<svg width="344" height="344" viewBox="0 0 344 344" fill="none" xmlns="http://www.w3.org/2000/svg">
<path d="M137.383 183.248L132.807 176.688C132.615 176.71 132.327 176.72 131.943 176.72H126.887V183.248H122.727V160.848H131.943C133.884 160.848 135.569 161.168 136.999 161.808C138.449 162.448 139.559 163.366 140.327 164.56C141.095 165.755 141.479 167.174 141.479 168.816C141.479 170.502 141.063 171.952 140.231 173.168C139.42 174.384 138.247 175.291 136.711 175.888L141.863 183.248H137.383ZM137.287 168.816C137.287 167.387 136.817 166.288 135.879 165.52C134.94 164.752 133.564 164.368 131.751 164.368H126.887V173.296H131.751C133.564 173.296 134.94 172.912 135.879 172.144C136.817 171.355 137.287 170.246 137.287 168.816ZM145.749 166.16H149.749V183.248H145.749V166.16ZM147.765 163.344C147.04 163.344 146.432 163.12 145.941 162.672C145.45 162.203 145.205 161.627 145.205 160.944C145.205 160.262 145.45 159.696 145.941 159.248C146.432 158.779 147.04 158.544 147.765 158.544C148.49 158.544 149.098 158.768 149.589 159.216C150.08 159.643 150.325 160.187 150.325 160.848C150.325 161.552 150.08 162.15 149.589 162.64C149.12 163.11 148.512 163.344 147.765 163.344ZM160.279 183.472C158.892 183.472 157.538 183.291 156.215 182.928C154.892 182.566 153.836 182.107 153.047 181.552L154.583 178.512C155.351 179.024 156.268 179.44 157.335 179.76C158.423 180.059 159.49 180.208 160.535 180.208C162.924 180.208 164.119 179.579 164.119 178.32C164.119 177.723 163.81 177.307 163.191 177.072C162.594 176.838 161.623 176.614 160.279 176.4C158.871 176.187 157.719 175.942 156.823 175.664C155.948 175.387 155.18 174.907 154.519 174.224C153.879 173.52 153.559 172.55 153.559 171.312C153.559 169.691 154.231 168.4 155.575 167.44C156.94 166.459 158.775 165.968 161.079 165.968C162.252 165.968 163.426 166.107 164.599 166.384C165.772 166.64 166.732 166.992 167.479 167.44L165.943 170.48C164.492 169.627 162.86 169.2 161.047 169.2C159.874 169.2 158.978 169.382 158.359 169.744C157.762 170.086 157.463 170.544 157.463 171.12C157.463 171.76 157.783 172.219 158.423 172.496C159.084 172.752 160.098 172.998 161.463 173.232C162.828 173.446 163.948 173.691 164.823 173.968C165.698 174.246 166.444 174.715 167.063 175.376C167.703 176.038 168.023 176.976 168.023 178.192C168.023 179.792 167.33 181.072 165.943 182.032C164.556 182.992 162.668 183.472 160.279 183.472ZM179.308 183.472C177.537 183.472 175.948 183.099 174.54 182.352C173.132 181.606 172.033 180.571 171.244 179.248C170.454 177.904 170.06 176.39 170.06 174.704C170.06 173.019 170.454 171.515 171.244 170.192C172.033 168.87 173.121 167.835 174.508 167.088C175.916 166.342 177.516 165.968 179.308 165.968C180.993 165.968 182.465 166.31 183.724 166.992C185.004 167.675 185.964 168.656 186.604 169.936L183.532 171.728C183.041 170.939 182.422 170.352 181.676 169.968C180.95 169.563 180.15 169.36 179.276 169.36C177.782 169.36 176.545 169.851 175.564 170.832C174.582 171.792 174.092 173.083 174.092 174.704C174.092 176.326 174.572 177.627 175.532 178.608C176.513 179.568 177.761 180.048 179.276 180.048C180.15 180.048 180.95 179.856 181.676 179.472C182.422 179.067 183.041 178.47 183.532 177.68L186.604 179.472C185.942 180.752 184.972 181.744 183.692 182.448C182.433 183.131 180.972 183.472 179.308 183.472ZM197.492 183.472C195.764 183.472 194.206 183.099 192.82 182.352C191.433 181.606 190.345 180.571 189.556 179.248C188.788 177.904 188.404 176.39 188.404 174.704C188.404 173.019 188.788 171.515 189.556 170.192C190.345 168.87 191.433 167.835 192.82 167.088C194.206 166.342 195.764 165.968 197.492 165.968C199.241 165.968 200.809 166.342 202.196 167.088C203.582 167.835 204.66 168.87 205.428 170.192C206.217 171.515 206.612 173.019 206.612 174.704C206.612 176.39 206.217 177.904 205.428 179.248C204.66 180.571 203.582 181.606 202.196 182.352C200.809 183.099 199.241 183.472 197.492 183.472ZM197.492 180.048C198.964 180.048 200.18 179.558 201.14 178.576C202.1 177.595 202.58 176.304 202.58 174.704C202.58 173.104 202.1 171.814 201.14 170.832C200.18 169.851 198.964 169.36 197.492 169.36C196.02 169.36 194.804 169.851 193.844 170.832C192.905 171.814 192.436 173.104 192.436 174.704C192.436 176.304 192.905 177.595 193.844 178.576C194.804 179.558 196.02 180.048 197.492 180.048ZM215.717 183.472C214.33 183.472 212.975 183.291 211.653 182.928C210.33 182.566 209.274 182.107 208.485 181.552L210.021 178.512C210.789 179.024 211.706 179.44 212.773 179.76C213.861 180.059 214.927 180.208 215.973 180.208C218.362 180.208 219.557 179.579 219.557 178.32C219.557 177.723 219.247 177.307 218.629 177.072C218.031 176.838 217.061 176.614 215.717 176.4C214.309 176.187 213.157 175.942 212.261 175.664C211.386 175.387 210.618 174.907 209.957 174.224C209.317 173.52 208.997 172.55 208.997 171.312C208.997 169.691 209.669 168.4 211.013 167.44C212.378 166.459 214.213 165.968 216.517 165.968C217.69 165.968 218.863 166.107 220.037 166.384C221.21 166.64 222.17 166.992 222.917 167.44L221.381 170.48C219.93 169.627 218.298 169.2 216.485 169.2C215.311 169.2 214.415 169.382 213.797 169.744C213.199 170.086 212.901 170.544 212.901 171.12C212.901 171.76 213.221 172.219 213.861 172.496C214.522 172.752 215.535 172.998 216.901 173.232C218.266 173.446 219.386 173.691 220.261 173.968C221.135 174.246 221.882 174.715 222.501 175.376C223.141 176.038 223.461 176.976 223.461 178.192C223.461 179.792 222.767 181.072 221.381 182.032C219.994 182.992 218.106 183.472 215.717 183.472Z" fill="#FE40B4"/>
<path d="M137.383 183.248L132.807 176.688C132.615 176.71 132.327 176.72 131.943 176.72H126.887V183.248H122.727V160.848H131.943C133.884 160.848 135.569 161.168 136.999 161.808C138.449 162.448 139.559 163.366 140.327 164.56C141.095 165.755 141.479 167.174 141.479 168.816C141.479 170.502 141.063 171.952 140.231 173.168C139.42 174.384 138.247 175.291 136.711 175.888L141.863 183.248H137.383ZM137.287 168.816C137.287 167.387 136.817 166.288 135.879 165.52C134.94 164.752 133.564 164.368 131.751 164.368H126.887V173.296H131.751C133.564 173.296 134.94 172.912 135.879 172.144C136.817 171.355 137.287 170.246 137.287 168.816ZM145.749 166.16H149.749V183.248H145.749V166.16ZM147.765 163.344C147.04 163.344 146.432 163.12 145.941 162.672C145.45 162.203 145.205 161.627 145.205 160.944C145.205 160.262 145.45 159.696 145.941 159.248C146.432 158.779 147.04 158.544 147.765 158.544C148.49 158.544 149.098 158.768 149.589 159.216C150.08 159.643 150.325 160.187 150.325 160.848C150.325 161.552 150.08 162.15 149.589 162.64C149.12 163.11 148.512 163.344 147.765 163.344ZM160.279 183.472C158.892 183.472 157.538 183.291 156.215 182.928C154.892 182.566 153.836 182.107 153.047 181.552L154.583 178.512C155.351 179.024 156.268 179.44 157.335 179.76C158.423 180.059 159.49 180.208 160.535 180.208C162.924 180.208 164.119 179.579 164.119 178.32C164.119 177.723 163.81 177.307 163.191 177.072C162.594 176.838 161.623 176.614 160.279 176.4C158.871 176.187 157.719 175.942 156.823 175.664C155.948 175.387 155.18 174.907 154.519 174.224C153.879 173.52 153.559 172.55 153.559 171.312C153.559 169.691 154.231 168.4 155.575 167.44C156.94 166.459 158.775 165.968 161.079 165.968C162.252 165.968 163.426 166.107 164.599 166.384C165.772 166.64 166.732 166.992 167.479 167.44L165.943 170.48C164.492 169.627 162.86 169.2 161.047 169.2C159.874 169.2 158.978 169.382 158.359 169.744C157.762 170.086 157.463 170.544 157.463 171.12C157.463 171.76 157.783 172.219 158.423 172.496C159.084 172.752 160.098 172.998 161.463 173.232C162.828 173.446 163.948 173.691 164.823 173.968C165.698 174.246 166.444 174.715 167.063 175.376C167.703 176.038 168.023 176.976 168.023 178.192C168.023 179.792 167.33 181.072 165.943 182.032C164.556 182.992 162.668 183.472 160.279 183.472ZM179.308 183.472C177.537 183.472 175.948 183.099 174.54 182.352C173.132 181.606 172.033 180.571 171.244 179.248C170.454 177.904 170.06 176.39 170.06 174.704C170.06 173.019 170.454 171.515 171.244 170.192C172.033 168.87 173.121 167.835 174.508 167.088C175.916 166.342 177.516 165.968 179.308 165.968C180.993 165.968 182.465 166.31 183.724 166.992C185.004 167.675 185.964 168.656 186.604 169.936L183.532 171.728C183.041 170.939 182.422 170.352 181.676 169.968C180.95 169.563 180.15 169.36 179.276 169.36C177.782 169.36 176.545 169.851 175.564 170.832C174.582 171.792 174.092 173.083 174.092 174.704C174.092 176.326 174.572 177.627 175.532 178.608C176.513 179.568 177.761 180.048 179.276 180.048C180.15 180.048 180.95 179.856 181.676 179.472C182.422 179.067 183.041 178.47 183.532 177.68L186.604 179.472C185.942 180.752 184.972 181.744 183.692 182.448C182.433 183.131 180.972 183.472 179.308 183.472ZM197.492 183.472C195.764 183.472 194.206 183.099 192.82 182.352C191.433 181.606 190.345 180.571 189.556 179.248C188.788 177.904 188.404 176.39 188.404 174.704C188.404 173.019 188.788 171.515 189.556 170.192C190.345 168.87 191.433 167.835 192.82 167.088C194.206 166.342 195.764 165.968 197.492 165.968C199.241 165.968 200.809 166.342 202.196 167.088C203.582 167.835 204.66 168.87 205.428 170.192C206.217 171.515 206.612 173.019 206.612 174.704C206.612 176.39 206.217 177.904 205.428 179.248C204.66 180.571 203.582 181.606 202.196 182.352C200.809 183.099 199.241 183.472 197.492 183.472ZM197.492 180.048C198.964 180.048 200.18 179.558 201.14 178.576C202.1 177.595 202.58 176.304 202.58 174.704C202.58 173.104 202.1 171.814 201.14 170.832C200.18 169.851 198.964 169.36 197.492 169.36C196.02 169.36 194.804 169.851 193.844 170.832C192.905 171.814 192.436 173.104 192.436 174.704C192.436 176.304 192.905 177.595 193.844 178.576C194.804 179.558 196.02 180.048 197.492 180.048ZM215.717 183.472C214.33 183.472 212.975 183.291 211.653 182.928C210.33 182.566 209.274 182.107 208.485 181.552L210.021 178.512C210.789 179.024 211.706 179.44 212.773 179.76C213.861 180.059 214.927 180.208 215.973 180.208C218.362 180.208 219.557 179.579 219.557 178.32C219.557 177.723 219.247 177.307 218.629 177.072C218.031 176.838 217.061 176.614 215.717 176.4C214.309 176.187 213.157 175.942 212.261 175.664C211.386 175.387 210.618 174.907 209.957 174.224C209.317 173.52 208.997 172.55 208.997 171.312C208.997 169.691 209.669 168.4 211.013 167.44C212.378 166.459 214.213 165.968 216.517 165.968C217.69 165.968 218.863 166.107 220.037 166.384C221.21 166.64 222.17 166.992 222.917 167.44L221.381 170.48C219.93 169.627 218.298 169.2 216.485 169.2C215.311 169.2 214.415 169.382 213.797 169.744C213.199 170.086 212.901 170.544 212.901 171.12C212.901 171.76 213.221 172.219 213.861 172.496C214.522 172.752 215.535 172.998 216.901 173.232C218.266 173.446 219.386 173.691 220.261 173.968C221.135 174.246 221.882 174.715 222.501 175.376C223.141 176.038 223.461 176.976 223.461 178.192C223.461 179.792 222.767 181.072 221.381 182.032C219.994 182.992 218.106 183.472 215.717 183.472Z" fill="black" fill-opacity="0.2"/>
<path d="M288.759 3.09361e-05L0 54.2484L54.2484 343.007L343.007 288.759L288.759 3.09361e-05Z" fill="#FDF001"/>
<path d="M318.818 25H25V318.818H318.818V25Z" fill="#00124C"/>
<g clip-path="url(#clip0_119_4103)">
<g opacity="0.5">
<path d="M169.725 166.638C171.079 167.789 172.178 169.118 173.225 170.499L172.433 170.537C173.276 169.169 174.183 167.827 175.333 166.625C174.822 168.198 174.068 169.63 173.251 171.023C173.085 171.317 172.65 171.33 172.459 171.061C171.424 169.681 170.453 168.236 169.725 166.625V166.638Z" fill="white"/>
<path d="M162.864 165.13C163.937 165.91 164.768 166.868 165.521 167.878L164.729 167.917C167.003 164.337 167.629 164.721 165.547 168.402C165.394 168.696 164.959 168.722 164.768 168.454C164.001 167.444 163.311 166.37 162.864 165.117V165.13Z" fill="white"/>
<path d="M182.219 165.168C182.078 166.165 180.75 169.86 179.383 168.875C178.565 167.84 178.144 166.472 178.029 165.168C178.029 165.117 178.08 165.066 178.105 165.117L179.97 168.134H179.817L182.129 165.117C182.168 165.066 182.232 165.117 182.206 165.181L182.219 165.168Z" fill="white"/>
<path d="M168.882 175.472C170.159 176.929 171.411 178.412 172.638 179.907L171.986 179.946C172.791 178.297 173.723 176.763 175.065 175.484C175.103 175.446 175.167 175.484 175.142 175.535C174.899 176.443 174.516 177.261 174.119 178.079C173.711 178.897 173.161 179.639 172.638 180.393C172.523 180.572 172.28 180.61 172.101 180.495C170.938 178.897 169.891 177.197 168.792 175.548C168.767 175.497 168.831 175.446 168.869 175.484L168.882 175.472Z" fill="white"/>
<path d="M162.187 172.404C163.069 173.324 163.912 174.283 164.742 175.229L164.091 175.267C164.346 174.73 164.576 174.18 164.934 173.708C165.317 173.273 165.726 172.621 166.275 172.416C166.237 173.056 165.969 173.644 165.739 174.193C165.483 174.756 165.087 175.229 164.717 175.727C164.589 175.893 164.359 175.932 164.193 175.804C163.427 174.743 162.788 173.58 162.098 172.455C162.072 172.404 162.136 172.352 162.175 172.391L162.187 172.404Z" fill="white"/>
<path d="M181.848 173.362C181.21 174.462 180.533 175.535 179.843 176.609C179.728 176.788 179.498 176.839 179.332 176.724C178.476 175.766 177.863 174.653 177.671 173.362C177.671 173.324 177.722 173.286 177.748 173.311C178.271 173.682 178.655 174.142 179.025 174.615C179.383 175.088 179.613 175.638 179.868 176.175L179.217 176.136C180.047 175.178 180.903 174.232 181.772 173.311C181.81 173.273 181.874 173.311 181.848 173.375V173.362Z" fill="white"/>
<path d="M188.543 170.333C187.904 171.432 187.227 172.506 186.537 173.58C186.422 173.759 186.192 173.81 186.026 173.695C185.17 172.736 184.557 171.624 184.365 170.333C184.365 170.294 184.416 170.256 184.442 170.282C184.966 170.652 185.349 171.112 185.719 171.585C186.077 172.058 186.307 172.608 186.563 173.145L185.911 173.107C186.741 172.148 187.597 171.202 188.466 170.282C188.504 170.243 188.568 170.282 188.543 170.345V170.333Z" fill="white"/>
<path d="M155.493 170.269C156.375 171.189 157.218 172.148 158.048 173.094L157.397 173.132C157.652 172.595 157.882 172.046 158.24 171.573C158.623 171.138 159.032 170.486 159.581 170.282C159.543 170.921 159.275 171.509 159.045 172.058C158.789 172.621 158.393 173.094 158.023 173.592C157.895 173.759 157.665 173.797 157.499 173.669C156.732 172.608 156.094 171.445 155.404 170.32C155.378 170.269 155.442 170.218 155.48 170.256L155.493 170.269Z" fill="white"/>
<path d="M171.13 159.224C172.203 160.004 173.034 160.962 173.787 161.972L172.995 162.011C175.269 158.431 175.895 158.815 173.813 162.496C173.66 162.791 173.225 162.816 173.034 162.548C172.267 161.538 171.577 160.464 171.13 159.211V159.224Z" fill="white"/>
</g>
<path d="M180.558 184.33C180.558 185.123 180.979 186.261 181.375 187.156C181.708 187.923 182.346 187.923 182.679 187.156C183.075 186.261 183.496 185.123 183.496 184.33C183.496 182.86 182.845 181.672 182.027 181.672C181.209 181.672 180.558 182.86 180.558 184.33Z" fill="#FDF001"/>
<path d="M177.364 184.33C177.364 185.123 177.786 186.261 178.182 187.156C178.514 187.923 179.153 187.923 179.485 187.156C179.881 186.261 180.303 185.123 180.303 184.33C180.303 182.86 179.651 181.672 178.833 181.672C178.016 181.672 177.364 182.86 177.364 184.33Z" fill="#FDF001"/>
<path d="M174.158 184.33C174.158 185.123 174.579 186.261 174.975 187.156C175.307 187.923 175.946 187.923 176.278 187.156C176.674 186.261 177.096 185.123 177.096 184.33C177.096 182.86 176.444 181.672 175.627 181.672C174.809 181.672 174.158 182.86 174.158 184.33Z" fill="#FDF001"/>
<path d="M166.863 184.33C166.863 185.123 167.285 186.261 167.681 187.156C168.013 187.923 168.652 187.923 168.984 187.156C169.38 186.261 169.801 185.123 169.801 184.33C169.801 182.86 169.15 181.672 168.332 181.672C167.515 181.672 166.863 182.86 166.863 184.33Z" fill="#FDF001"/>
<path d="M163.669 184.33C163.669 185.123 164.091 186.261 164.487 187.156C164.819 187.923 165.458 187.923 165.79 187.156C166.186 186.261 166.608 185.123 166.608 184.33C166.608 182.86 165.956 181.672 165.139 181.672C164.321 181.672 163.669 182.86 163.669 184.33Z" fill="#FDF001"/>
<path d="M160.463 184.33C160.463 185.123 160.884 186.261 161.281 187.156C161.613 187.923 162.251 187.923 162.584 187.156C162.98 186.261 163.401 185.123 163.401 184.33C163.401 182.86 162.75 181.672 161.932 181.672C161.114 181.672 160.463 182.86 160.463 184.33Z" fill="#FDF001"/>
<path d="M206.849 102.048C203.686 102.048 201.123 104.615 201.123 107.782C201.123 108.187 201.167 108.584 201.247 108.965L180.504 113.361L173.939 93.1873C176.233 92.4384 177.891 90.2814 177.891 87.7342C177.891 84.5666 175.328 82 172.165 82C169.002 82 166.44 84.5666 166.44 87.7342C166.44 90.2814 168.097 92.4384 170.391 93.1873L163.826 113.361L143.1 108.97C143.18 108.587 143.224 108.189 143.224 107.782C143.224 104.615 140.661 102.048 137.499 102.048C134.336 102.048 131.773 104.615 131.773 107.782C131.773 110.95 134.336 113.516 137.499 113.516C138.97 113.516 140.31 112.959 141.324 112.048L154.597 126.839C159.236 122.612 165.402 120.033 172.168 120.033C178.933 120.033 185.099 122.612 189.738 126.839L203.018 112.038C204.034 112.957 205.38 113.516 206.856 113.516C210.019 113.516 212.581 110.95 212.581 107.782C212.581 104.615 210.019 102.048 206.856 102.048H206.849Z" fill="#FDF001"/>
<path d="M137.492 110.945C139.236 110.945 140.65 109.529 140.65 107.782C140.65 106.035 139.236 104.619 137.492 104.619C135.748 104.619 134.334 106.035 134.334 107.782C134.334 109.529 135.748 110.945 137.492 110.945Z" fill="#FE40B4"/>
<path d="M172.162 90.8971C173.906 90.8971 175.32 89.4811 175.32 87.7343C175.32 85.9876 173.906 84.5715 172.162 84.5715C170.418 84.5715 169.004 85.9876 169.004 87.7343C169.004 89.4811 170.418 90.8971 172.162 90.8971Z" fill="#FE40B4"/>
<path d="M206.849 110.945C208.593 110.945 210.007 109.529 210.007 107.782C210.007 106.035 208.593 104.619 206.849 104.619C205.105 104.619 203.691 106.035 203.691 107.782C203.691 109.529 205.105 110.945 206.849 110.945Z" fill="#FE40B4"/>
<path d="M200.285 152.701C200.28 152.672 200.273 152.64 200.263 152.611C198.995 154.177 197.432 155.495 195.66 156.479C195.377 156.639 195.084 156.787 194.792 156.928C196.648 153.404 197.7 149.388 197.7 145.125C197.7 138.007 194.77 131.577 190.051 126.975C190.555 127.04 191.053 127.125 191.539 127.236C189.957 125.954 188.217 124.861 186.351 123.989C182.354 121.337 177.56 119.791 172.406 119.791C167.251 119.791 162.642 121.277 158.69 123.836C156.74 124.716 154.922 125.836 153.272 127.159C153.778 127.055 154.293 126.975 154.816 126.921C150.066 131.526 147.111 137.98 147.111 145.125C147.111 149.473 148.205 153.566 150.134 157.141C149.674 156.942 149.221 156.724 148.786 156.479C147.16 155.575 145.71 154.393 144.5 152.992C144.391 152.868 144.285 152.74 144.183 152.611C143.738 154.49 143.503 156.448 143.503 158.46C143.503 164.296 145.475 169.676 148.791 173.958C153.415 179.94 160.657 183.791 168.798 183.791C169.959 183.791 171.104 183.713 172.224 183.558C173.345 183.713 174.487 183.791 175.648 183.791C183.803 183.791 191.055 179.928 195.677 173.929C198.98 169.649 200.943 164.283 200.943 158.46C200.943 156.479 200.715 154.55 200.285 152.701Z" fill="#FE40B4"/>
<path d="M201.672 150.568C203.499 153.147 204.571 156.298 204.571 159.7C204.571 165.958 200.942 171.365 195.676 173.929C198.979 169.649 200.942 164.283 200.942 158.459C200.942 156.479 200.714 154.55 200.283 152.701C200.298 152.648 200.31 152.592 200.32 152.539C200.821 151.918 201.271 151.259 201.672 150.568Z" fill="#E077AC"/>
<path d="M148.789 173.958C143.458 171.421 139.772 165.978 139.772 159.671C139.772 156.242 140.864 153.065 142.717 150.474C143.146 151.228 143.635 151.943 144.181 152.611C143.736 154.49 143.501 156.448 143.501 158.46C143.501 164.296 145.474 169.676 148.789 173.958Z" fill="#E077AC"/>
<path d="M191.537 127.236C190.403 126.977 189.222 126.839 188.007 126.839C187.876 126.839 187.746 126.841 187.615 126.844C186.671 126.866 185.749 126.972 184.856 127.156C181.016 127.932 177.681 130.108 175.404 133.128C175.22 133.368 175.046 133.615 174.879 133.865C173.2 136.378 172.22 139.4 172.22 142.65C172.22 139.4 171.24 136.378 169.56 133.865C169.393 133.615 169.219 133.368 169.035 133.128C166.802 130.164 163.55 128.014 159.799 127.2C158.838 126.989 157.846 126.868 156.827 126.844C156.697 126.844 156.566 126.839 156.435 126.839C155.351 126.839 154.291 126.948 153.27 127.159C146.069 128.625 140.651 135.004 140.651 142.65C140.651 145.496 141.401 148.167 142.717 150.474C143.145 151.228 143.634 151.943 144.181 152.611C144.283 152.74 144.389 152.868 144.498 152.992C145.708 154.393 147.158 155.576 148.784 156.48C149.299 156.768 149.832 157.027 150.381 157.253C151.194 157.592 152.041 157.866 152.914 158.065C154.047 158.324 155.225 158.46 156.435 158.46C161.727 158.46 166.412 155.852 169.275 151.848C169.28 151.841 169.285 151.836 169.289 151.829L168.796 150.973L169.132 150.767C169.089 150.554 169.064 150.333 169.064 150.105C169.064 148.566 170.163 147.284 171.615 147.001C171.811 146.962 172.014 146.943 172.22 146.943C172.426 146.943 172.629 146.962 172.825 147.001C174.279 147.284 175.378 148.566 175.378 150.105C175.378 150.331 175.354 150.554 175.308 150.765L175.629 150.963L175.646 150.973L175.153 151.829C178.015 155.842 182.705 158.46 188.007 158.46C189.326 158.46 190.608 158.297 191.833 157.992C192.6 157.8 193.343 157.553 194.061 157.253C194.611 157.027 195.143 156.768 195.658 156.48C197.43 155.496 198.993 154.177 200.261 152.611C200.283 152.587 200.302 152.563 200.319 152.539C200.82 151.918 201.27 151.259 201.672 150.568C203.02 148.239 203.792 145.535 203.792 142.65C203.792 135.135 198.555 128.843 191.537 127.236ZM158.654 152.134C156.07 152.134 153.723 151.094 152.014 149.412C151.358 148.768 150.799 148.028 150.354 147.219C149.984 146.55 149.694 145.83 149.495 145.072C149.292 144.299 149.183 143.487 149.183 142.65C149.183 142.587 149.183 142.524 149.185 142.461C149.248 139.202 150.954 136.347 153.507 134.687C154.988 133.724 156.757 133.165 158.654 133.165C159.99 133.165 161.26 133.441 162.412 133.94C163.327 134.335 164.164 134.871 164.902 135.52C166.879 137.258 168.125 139.808 168.125 142.65C168.125 144.703 167.475 146.603 166.369 148.154C164.651 150.564 161.836 152.134 158.654 152.134ZM194.352 146.283C193.88 147.393 193.2 148.394 192.363 149.238C190.647 150.968 188.268 152.042 185.64 152.042C182.502 152.042 179.721 150.513 177.998 148.159C176.847 146.591 176.169 144.652 176.169 142.556C176.169 139.723 177.408 137.18 179.373 135.443C180.092 134.805 180.91 134.277 181.8 133.882C182.974 133.361 184.273 133.07 185.64 133.07C187.796 133.07 189.788 133.792 191.38 135.011C193.58 136.691 195.022 139.313 195.107 142.277C195.109 142.369 195.112 142.461 195.112 142.556C195.112 143.426 194.995 144.269 194.775 145.072C194.661 145.489 194.519 145.893 194.352 146.283Z" fill="#EBA0C6"/>
<path d="M188.787 142.861C190.098 142.861 191.223 142.061 191.7 140.92C191.722 140.871 191.741 140.821 191.758 140.77C191.879 140.435 191.944 140.074 191.944 139.698C191.944 139.468 191.92 139.243 191.872 139.025C191.565 137.604 190.299 136.538 188.787 136.538C188.649 136.538 188.511 136.548 188.378 136.565C187.581 136.667 186.88 137.066 186.386 137.648C186.347 137.689 186.313 137.733 186.28 137.777C185.897 138.273 185.66 138.889 185.634 139.558C185.629 139.604 185.629 139.652 185.629 139.698C185.629 141.424 187.008 142.827 188.724 142.859C188.745 142.861 188.765 142.861 188.787 142.861Z" fill="#FFFEFA"/>
<path d="M162.482 136.824C162.266 136.776 162.044 136.751 161.814 136.751C160.95 136.751 160.168 137.098 159.6 137.66C159.561 137.697 159.524 137.733 159.488 137.772C159.021 138.283 158.716 138.95 158.665 139.686C158.658 139.762 158.656 139.837 158.656 139.914C158.656 141.659 160.069 143.075 161.814 143.075C162.934 143.075 163.916 142.491 164.475 141.608C164.507 141.565 164.534 141.519 164.558 141.473C164.819 141.012 164.969 140.481 164.969 139.914C164.969 138.397 163.902 137.13 162.482 136.824Z" fill="#FFFEFA"/>
<path d="M186.661 149.112C188.539 149.112 190.209 148.2 191.254 146.795C191.791 146.07 192.166 145.217 192.314 144.289C192.362 143.99 192.386 143.688 192.386 143.377C192.386 142.439 192.159 141.552 191.757 140.77C191.74 140.82 191.721 140.871 191.699 140.92C191.223 142.061 190.097 142.861 188.786 142.861C188.764 142.861 188.745 142.861 188.723 142.859C187.007 142.827 185.628 141.424 185.628 139.698C185.628 139.652 185.628 139.604 185.633 139.558C185.659 138.889 185.896 138.273 186.279 137.776C186.313 137.733 186.347 137.689 186.385 137.648C185.555 137.687 184.769 137.905 184.067 138.266C182.209 139.214 180.933 141.15 180.933 143.377C180.933 144.206 181.11 144.996 181.429 145.709C182.325 147.713 184.333 149.112 186.661 149.112Z" fill="#231B3B"/>
<path d="M153.865 145.573C154.728 147.648 156.776 149.112 159.154 149.112C161.226 149.112 163.045 148.004 164.052 146.346C164.577 145.481 164.882 144.463 164.882 143.378C164.882 142.709 164.768 142.069 164.555 141.473C164.531 141.519 164.505 141.565 164.473 141.608C163.914 142.49 162.932 143.075 161.811 143.075C160.067 143.075 158.653 141.659 158.653 139.914C158.653 139.837 158.656 139.762 158.663 139.686C158.714 138.95 159.019 138.283 159.486 137.772C159.522 137.733 159.558 137.697 159.597 137.66C159.452 137.646 159.304 137.641 159.154 137.641C155.999 137.641 153.429 140.215 153.429 143.378C153.429 143.588 153.441 143.797 153.463 144C153.523 144.553 153.661 145.079 153.865 145.573Z" fill="#231B3B"/>
<path d="M172.823 147.001C172.627 146.962 172.423 146.943 172.218 146.943C172.012 146.943 171.809 146.962 171.613 147.001C170.161 147.284 169.062 148.567 169.062 150.106C169.062 150.333 169.086 150.554 169.13 150.767L170.425 149.975L172.218 148.877L174.013 149.975L175.305 150.765C175.351 150.554 175.376 150.331 175.376 150.106C175.376 148.567 174.277 147.284 172.823 147.001Z" fill="#231B3B"/>
<path d="M185.639 152.042C188.267 152.042 190.645 150.968 192.361 149.238C193.198 148.394 193.878 147.393 194.35 146.283C194.524 145.917 194.774 145.071 194.774 145.071C194.994 144.269 195.11 143.426 195.11 142.556C195.11 142.461 195.108 142.369 195.105 142.277C195.02 139.313 193.578 136.691 191.379 135.011C189.786 133.792 187.795 133.07 185.639 133.07C184.272 133.07 182.972 133.361 181.798 133.882C180.908 134.277 180.09 134.805 179.371 135.443C177.406 137.18 176.167 139.723 176.167 142.556C176.167 144.652 176.845 146.591 177.997 148.159C179.72 150.512 182.5 152.042 185.639 152.042ZM186.384 137.648C186.878 137.066 187.579 136.666 188.376 136.565C188.509 136.548 188.647 136.538 188.785 136.538C190.297 136.538 191.562 137.604 191.87 139.025C191.918 139.243 191.942 139.468 191.942 139.698C191.942 140.074 191.877 140.435 191.756 140.77C192.158 141.552 192.385 142.439 192.385 143.377C192.385 143.688 192.361 143.991 192.313 144.289C192.165 145.217 191.79 146.07 191.253 146.795C190.207 148.2 188.538 149.112 186.66 149.112C184.332 149.112 182.324 147.713 181.428 145.709C181.109 144.996 180.932 144.206 180.932 143.377C180.932 141.15 182.207 139.214 184.066 138.266C184.768 137.905 185.554 137.687 186.384 137.648Z" fill="#FDF001"/>
<path d="M175.308 150.765L174.016 149.975L172.22 148.877L170.427 149.975L169.133 150.767L168.796 150.973L169.29 151.829L170.509 153.944L172.22 156.913L173.933 153.944L174.521 152.927L175.153 151.829L175.647 150.973L175.63 150.963L175.308 150.765Z" fill="#FDF001"/>
<path d="M164.902 135.52C164.164 134.871 163.326 134.335 162.412 133.94C161.26 133.441 159.989 133.165 158.654 133.165C156.756 133.165 154.988 133.724 153.507 134.687C150.954 136.347 149.248 139.202 149.185 142.461C149.182 142.524 149.182 142.587 149.182 142.65C149.182 143.487 149.291 144.299 149.495 145.072C149.693 145.83 149.983 146.55 150.354 147.219C150.799 148.028 151.358 148.768 152.014 149.412C153.722 151.094 156.069 152.134 158.654 152.134C161.836 152.134 164.65 150.564 166.368 148.154C167.474 146.603 168.125 144.703 168.125 142.65C168.125 139.808 166.879 137.258 164.902 135.52ZM159.155 149.112C156.776 149.112 154.729 147.648 153.865 145.573C153.661 145.079 153.524 144.553 153.463 144C153.441 143.797 153.429 143.588 153.429 143.378C153.429 140.215 155.999 137.641 159.155 137.641C159.305 137.641 159.452 137.646 159.597 137.66C160.166 137.098 160.948 136.751 161.812 136.751C162.041 136.751 162.264 136.776 162.479 136.824C163.9 137.13 164.967 138.397 164.967 139.914C164.967 140.481 164.817 141.012 164.556 141.473C164.769 142.069 164.882 142.709 164.882 143.378C164.882 144.463 164.577 145.481 164.052 146.346C163.046 148.004 161.226 149.112 159.155 149.112Z" fill="#FDF001"/>
<g opacity="0.5">
<path d="M170.032 167.543C171.177 168.74 172.244 170.1 173.244 171.423L172.844 171.445C173.66 170.105 174.499 168.786 175.463 167.543C174.983 168.621 174.424 169.654 173.846 170.679C173.655 171.021 173.452 171.355 173.256 171.692C173.19 171.806 173.043 171.845 172.929 171.779C171.879 170.461 170.889 168.995 170.03 167.543H170.032Z" fill="white"/>
<path d="M163.396 166.089C164.284 166.944 165.056 167.909 165.799 168.89L165.4 168.912C166 167.931 166.624 166.971 167.372 166.089C166.946 167.165 166.394 168.168 165.814 169.159C165.734 169.307 165.511 169.319 165.414 169.181C164.679 168.195 163.97 167.184 163.396 166.089Z" fill="white"/>
<path d="M182.123 166.103C181.794 166.973 181.293 167.78 180.782 168.551C180.482 168.873 180.189 169.76 179.635 169.387C179.253 168.893 179.004 168.297 178.723 167.737C178.479 167.208 178.261 166.67 178.108 166.101C178.103 166.086 178.108 166.069 178.123 166.064C178.132 166.062 178.145 166.064 178.149 166.074L179.935 169.009L179.858 169.004L182.086 166.072C182.103 166.048 182.142 166.074 182.125 166.101L182.123 166.103Z" fill="white"/>
<path d="M169.208 176.125C170.094 177.213 171.855 179.419 172.722 180.521L172.39 180.538C173.228 179.028 174.133 177.4 175.272 176.125C174.66 177.737 173.678 179.292 172.734 180.744C172.666 180.868 172.482 180.878 172.402 180.761L170.776 178.466L169.169 176.156C169.152 176.132 169.189 176.103 169.208 176.127V176.125Z" fill="white"/>
<path d="M162.716 173.149C163.408 173.958 164.384 175.151 165.066 175.992L164.734 176.009C165.25 174.988 165.86 173.987 166.651 173.151C166.668 173.132 166.702 173.151 166.692 173.176C166.329 174.266 165.731 175.279 165.076 176.212C165.008 176.336 164.824 176.348 164.744 176.229L163.701 174.71C163.36 174.198 163.012 173.692 162.675 173.176C162.661 173.151 162.695 173.122 162.714 173.146L162.716 173.149Z" fill="white"/>
<path d="M181.764 174.058C181.183 174.952 180.307 176.219 179.695 177.111C179.618 177.23 179.431 177.218 179.363 177.094C179.083 176.673 178.671 176.089 178.446 175.64C178.221 175.168 177.844 174.525 177.764 174.026C178.582 174.821 179.182 175.878 179.705 176.888L179.373 176.871L180.539 175.444C180.934 174.971 181.323 174.496 181.723 174.031C181.74 174.009 181.778 174.036 181.761 174.06L181.764 174.058Z" fill="white"/>
<path d="M188.254 171.11C187.673 172.004 186.797 173.272 186.185 174.164C186.107 174.283 185.921 174.271 185.853 174.147C185.572 173.725 185.161 173.141 184.936 172.693C184.711 172.22 184.334 171.578 184.254 171.079C185.072 171.874 185.672 172.93 186.194 173.941L185.863 173.924L187.029 172.496C187.424 172.024 187.813 171.549 188.213 171.084C188.229 171.062 188.268 171.088 188.251 171.113L188.254 171.11Z" fill="white"/>
<path d="M156.227 171.081C156.919 171.891 157.894 173.083 158.576 173.924L158.245 173.941C158.76 172.921 159.37 171.92 160.161 171.084C160.178 171.064 160.212 171.084 160.202 171.108C159.839 172.199 159.242 173.212 158.586 174.145C158.518 174.268 158.334 174.28 158.254 174.162L157.211 172.642C156.868 172.131 156.522 171.624 156.185 171.108C156.171 171.084 156.205 171.055 156.224 171.079L156.227 171.081Z" fill="white"/>
<path d="M171.402 160.36C172.29 161.215 173.062 162.18 173.805 163.161L173.405 163.183C174.005 162.202 174.63 161.242 175.377 160.36C174.952 161.433 174.4 162.439 173.819 163.43C173.739 163.578 173.517 163.59 173.42 163.452C172.684 162.466 171.975 161.455 171.402 160.36Z" fill="white"/>
</g>
<path d="M180.542 184.704C180.542 185.468 180.951 186.58 181.331 187.446C181.655 188.185 182.265 188.185 182.589 187.446C182.969 186.58 183.378 185.47 183.378 184.704C183.378 183.282 182.744 182.131 181.96 182.131C181.176 182.131 180.542 183.284 180.542 184.704Z" fill="#FDF001"/>
<path d="M177.44 184.704C177.44 185.468 177.849 186.58 178.229 187.446C178.553 188.185 179.163 188.185 179.487 187.446C179.867 186.58 180.276 185.47 180.276 184.704C180.276 183.282 179.642 182.131 178.858 182.131C178.074 182.131 177.44 183.284 177.44 184.704Z" fill="#FDF001"/>
<path d="M174.337 184.704C174.337 185.468 174.746 186.58 175.126 187.446C175.451 188.185 176.06 188.185 176.385 187.446C176.765 186.58 177.173 185.47 177.173 184.704C177.173 183.282 176.539 182.131 175.755 182.131C174.971 182.131 174.337 183.284 174.337 184.704Z" fill="#FDF001"/>
<path d="M167.27 184.704C167.27 185.468 167.679 186.58 168.059 187.446C168.383 188.185 168.993 188.185 169.317 187.446C169.697 186.58 170.106 185.47 170.106 184.704C170.106 183.282 169.472 182.131 168.688 182.131C167.904 182.131 167.27 183.284 167.27 184.704Z" fill="#FDF001"/>
<path d="M164.168 184.704C164.168 185.468 164.577 186.58 164.957 187.446C165.282 188.185 165.891 188.185 166.216 187.446C166.596 186.58 167.005 185.47 167.005 184.704C167.005 183.282 166.371 182.131 165.586 182.131C164.802 182.131 164.168 183.284 164.168 184.704Z" fill="#FDF001"/>
<path d="M161.069 184.704C161.069 185.468 161.478 186.58 161.858 187.446C162.182 188.185 162.792 188.185 163.116 187.446C163.496 186.58 163.905 185.47 163.905 184.704C163.905 183.282 163.271 182.131 162.487 182.131C161.703 182.131 161.069 183.284 161.069 184.704Z" fill="#FDF001"/>
<path d="M56 234.583L56.5381 232.921L56.458 232.761L56.79 232.6L56.7099 232.807L57.0419 232.429L57.2022 232.761L56.9961 233.254L56.458 234.583L56.1259 234.995L56 234.583V234.583ZM57.9006 246.692L57.4884 247.311L56.9961 247.517L56.6183 247.391L56.2404 246.979V246.601L56.6183 245.272L57.2022 244.687L56.79 244.607L56.458 244.069L56.8358 243.45L57.2136 243.656L57.5457 243.782L57.4655 244.034L57.3052 244.447L57.2251 244.653L57.2709 244.607H57.8548L58.0609 244.561L58.1868 244.768L58.3929 245.306L58.3128 245.638L57.935 246.669L57.9006 246.692ZM61.0034 231.272L59.4692 234.961L58.599 236.862L58.0151 237.527H57.6831L57.351 238.398L57.0648 238.89L57.1907 238.558L57.5686 237.527L57.0762 237.366L56.6984 236.874L56.6526 236.416L56.7328 235.087L57.809 232.314L59.4692 229.542L60.2592 229.049L60.7172 229.003H61.1751L61.2553 229.209L61.5072 229.702L61.3812 230.114L61.0034 231.272ZM61.0034 248.48L60.6256 249.144L60.2477 249.476L59.9615 249.682L59.6753 249.602L59.2631 249.476L59.2173 249.224L59.1371 248.64L59.3432 248.021L59.4692 247.735L59.057 247.781L58.9769 247.574L58.6906 247.036L58.7708 246.498L59.4692 244.55L60.0073 243.84L60.4653 243.679L60.7973 243.599L61.0836 243.885L61.3354 244.137L61.2553 244.802L61.2095 244.928L61.4957 245.088L61.8278 245.249L61.8736 245.867L61.7133 246.738L61.0034 248.48ZM64.2321 231.569L61.0034 239.326L60.179 240.609L59.7669 240.895L59.3547 240.689L59.0684 240.563L58.9883 239.979L59.3203 238.776L59.0341 238.398L58.7822 238.146L58.828 237.653L59.3203 236.038L61.1866 231.604L62.343 229.118L62.9269 228.453L63.3047 228.499H63.6826L63.7284 228.831L63.8085 229.244V229.289L64.0604 229.335H64.5184L64.6443 229.828L64.7245 230.206L64.6443 230.492L64.2665 231.569H64.2321ZM62.2857 249.728L61.8278 250.347L61.2438 250.507L60.9576 250.462L60.6256 249.923L60.7057 249.591L60.8317 248.881L61.7476 246.646L62.2399 245.902L62.8239 245.741L63.0758 245.661L63.1559 245.913L63.4421 246.406L63.3162 247.07L62.2857 249.728ZM64.9764 238.787L63.8543 241.319L63.4765 241.903L63.1902 241.984L62.6521 242.144L62.4918 241.812L62.2857 241.399L62.3315 241.193L62.4575 240.529V240.483L62.3773 240.437L61.9194 240.391L61.7934 239.898L61.6675 239.566L61.7934 239.028L62.3773 237.458L64.7016 231.821L65.4458 230L66.0297 228.923L66.6938 228.304L67.1518 228.35H67.4838L67.6097 228.682L67.77 229.095L67.6899 229.427L67.4838 230.011L67.77 230.057L68.0219 230.103L68.0677 230.309L68.1937 230.893L67.9876 231.558L66.8312 233.918L66.1671 234.376L65.8809 234.124L65.8007 234.078L65.7206 234.239L64.5642 237.137L64.8962 237.218L65.2282 237.676L65.1825 238.008L65.0222 238.799H64.9764V238.787ZM70.0714 239.601L67.999 244.699L66.0984 249.259L65.4 250.416L65.068 250.748L64.61 250.908L64.2321 250.989L63.9001 250.863L63.4421 250.702L63.2818 250.118L63.2017 249.831L63.2818 249.373L63.8658 247.678L64.5298 246.475L65.6061 245.065L66.1442 242.407L67.1747 239.715L67.8845 238.386L68.5944 237.848H68.6402L68.7661 237.596L69.0982 237.103L69.1783 237.641L69.0982 237.802H69.5103L69.7622 238.054L70.0943 238.386L70.1401 238.718L70.0943 239.589H70.0714V239.601ZM63.7284 245.375L63.7742 245.123L64.1062 244.298L64.2665 244.011L64.1863 244.344L63.7284 245.375ZM65.8809 241.147L65.2969 242.224L65.0451 242.602L64.5527 242.808L64.1749 242.763L63.7971 242.35L63.8772 241.686L64.255 240.563L64.8733 239.028L65.3313 238.283L65.7091 237.997L65.9954 237.79L66.3732 237.997L66.6594 238.157L66.7396 237.905L67.3235 236.874L67.1976 237.16L66.8655 237.985L66.6594 238.191V238.73L65.8694 241.136H65.8809V241.147ZM69.4416 232.578L68.6516 234.399L68.3654 234.857L67.5754 235.27L67.0831 234.938V234.56L67.0373 234.067L67.2891 233.242L68.1593 231.34L68.4913 230.882L69.0295 230.63L69.4073 230.756L69.7393 231.168L69.6935 231.501L69.4416 232.578ZM71.2621 240.368L68.4913 247.082L67.7013 248.697L67.5754 248.823L67.4952 248.984V248.903L67.3349 249.029L67.209 248.617L67.3349 247.872L67.8731 246.543L70.5293 240.162L71.0217 239.039L71.3537 238.627H71.8117L71.7315 239.005L71.2736 240.368H71.2621ZM73.7123 241.858L71.6857 246.876L70.2775 249.9L69.2814 250.771L68.8692 250.931L68.2509 250.771L68.0448 250.691L67.9647 250.484L67.8387 249.9L67.9647 249.316L68.7547 247.322L71.0331 241.846L71.7773 240.437L71.9033 240.105L72.3612 239.108L72.6131 238.776L73.0253 238.615L72.9795 238.948L72.8192 239.44H73.4031L73.6894 239.818L73.9413 240.231V241.147L73.7352 241.858H73.7123ZM72.2239 234.434L71.1476 235.637L70.7354 235.763L70.3232 235.843L69.9912 235.637L69.579 235.384L69.4989 234.766L69.6248 233.895L70.369 232.073L70.8614 231.329L71.3194 231.123L71.4796 231.042L72.0979 229.794L72.4757 229.416L72.4299 229.668L72.2697 230.206L72.0636 230.744L71.9376 231.031V231.077L72.6017 231.409L72.8879 232.028L72.8421 232.44L72.2239 234.434ZM69.6592 230.871L70.4034 229.129L70.6553 228.717L70.6095 228.923L70.4034 229.461L69.9912 230.492L69.6592 230.871ZM76.4945 245.833L75.4984 247.655L75.1664 248.067L74.6282 248.354L74.4221 248.434L74.0443 248.101L73.9985 248.182L73.1742 248.64L72.762 248.48L72.4299 248.319V247.448L72.636 246.83L73.2543 245.295L74.9145 241.319L75.8304 239.91L76.2083 239.623L76.5403 239.749L76.9525 239.956L77.0784 240.574L77.0326 241.319L76.4144 243.06L76.6662 243.015L76.9525 243.507V243.92L76.4945 245.822V245.833ZM73.5978 232.864L74.01 232.119L74.4221 232.497L74.3764 232.704L74.1245 233.322L73.4146 233.483L73.5749 232.864H73.5978ZM74.5137 234.525L75.0519 234.399L75.0977 234.605L75.2236 235.19L74.5137 235.648L74.3878 235.316L74.1817 234.938L74.5137 234.525Z" fill="#FDF001"/>
<path d="M82.6885 234.124L81.7382 236.358L81.1543 237.767L80.4444 239.177L80.1582 239.509L80.204 239.177L80.536 238.019L80.7879 237.481L80.7078 237.435L80.4559 237.183L80.5017 236.851L80.6276 235.82L81.4978 233.334L82.1619 232.085L82.9519 231.168L83.49 231.008L83.7419 231.168L83.6961 231.375L83.49 232.165L83.364 232.417L83.3182 232.497L82.7 234.113H82.6885V234.124ZM85.9173 231.856L82.3908 240.311L81.7268 241.846L81.3947 242.258L81.1887 242.637L81.2688 242.476L80.5589 242.637L80.1811 242.304V241.846L80.765 239.28L82.9633 233.975L84.3716 230.779L85.2418 229.748L85.528 229.541L85.9058 229.622L86.2379 229.702L86.318 230.16L86.3638 230.492L86.2379 230.951L85.9058 231.867H85.9173V231.856ZM88.4476 232.337L84.0167 243.038L83.2267 244.733L82.9404 245.226L82.3221 245.352L81.9901 245.272L81.5779 244.733L81.5321 244.401L81.5779 243.404L82.5282 240.838L86.421 231.432L87.5774 229.152L87.9896 228.774L88.2415 228.568L88.7796 228.442L89.272 228.602L89.5582 229.095L89.478 229.427L88.4476 232.325V232.337ZM91.3443 231.558L85.7913 244.905L84.841 247.139L84.383 247.804L83.7648 248.262L83.5129 248.182L82.9748 247.975L82.8488 247.643L82.6427 247.105L82.6885 246.646L83.8449 243.45L88.0698 233.253L89.3178 230.389L89.936 229.519L90.1879 229.312L90.7718 229.152L90.9779 229.072L91.3558 229.324L91.642 229.53L91.6878 229.988L91.3558 231.569L91.3443 231.558ZM89.9818 245.89L88.9514 248.583L88.2072 249.866L87.4973 250.358H87.005L86.6271 250.404L86.3409 250.152L85.9631 249.866L85.9173 249.614L85.8371 248.995L85.9173 248.583L86.1692 247.964H86.1234L85.7455 248.09L85.6196 247.712L85.4593 247.299L85.5394 246.841L86.8676 243.358L91.4702 232.245L92.6724 229.633L93.4968 228.843L93.8288 229.003L94.1151 229.163V229.622L94.0349 229.908L94.699 229.622L95.2371 229.782L95.6951 230.069L96.0271 230.939L95.9012 231.73L95.4089 233.059L94.5387 235.087L94.0006 236.209L93.7945 236.587L93.3365 236.748L92.9243 236.908L92.5121 236.656L92.1343 236.404L91.974 236.026L91.7221 234.743L90.6001 236.198L89.936 239.681L88.8598 242.545L89.3521 242.625L89.5582 243.038L90.0963 244.985L89.9704 245.856V245.89H89.9818ZM96.0844 244.481L94.6303 248.044L93.6342 249.992L92.9701 250.61L92.5579 250.691L92.1 250.817L91.7221 250.565L91.31 250.278L91.3558 250.072L91.4016 249.327L91.4473 249.201H91.4016L91.0237 249.327L90.7718 249.121L90.394 248.869L90.3139 248.491L90.2337 248.033L90.394 247.288L90.9321 245.833L93.0503 242.43L94.0464 241.72L94.4586 241.514L94.7104 241.766L94.9165 242.178L95.4089 242.132L95.7409 242.052L96.0729 242.339L96.405 242.625V243.083L96.4508 243.542L96.0729 244.458V244.481H96.0844ZM96.6339 245.638L95.9699 247.173L95.0997 248.995L94.7219 249.453V249.247L94.802 248.376L96.1645 245.02L96.9545 243.565L97.3324 243.358L97.2866 243.817L96.6225 245.638H96.6339ZM100.195 234.605L98.7864 237.091L98.4086 237.378L97.7903 237.424L97.4125 237.298L97.0003 236.839V236.461L97.0805 235.969L96.9545 236.049L96.4164 236.129L96.0844 236.175L95.8783 235.889L95.5463 235.396L95.592 235.19L95.6722 234.525L96.2561 233.07L97.0461 231.168L97.6644 230.091L97.9163 229.713L98.9124 229.461L99.4963 229.839L99.5765 230.298L99.6222 230.756L99.2444 232.039H99.8283L100.115 232.417L100.401 232.795V233.127L100.447 233.666L100.195 234.617V234.605ZM97.9163 243.347L97.3324 244.802L96.9545 245.718L96.4966 246.589L96.2905 246.543L96.5767 245.833L97.7331 242.969L98.1109 242.178L98.317 241.926L98.3628 242.178L97.9048 243.335L97.9163 243.347ZM100.321 244.515L98.1224 248.949L97.4583 249.408L97.1721 249.568L96.7599 249.408L96.3821 249.281V248.365L96.5882 247.826L96.508 247.746L96.5882 247.414L96.9202 246.463L98.1224 243.519L98.7406 242.488L99.0269 242.155L99.0727 242.362L99.1528 242.614L99.6108 242.327L100.069 242.488L100.401 242.614L100.481 242.992L100.607 243.45L100.321 244.527V244.515ZM99.9886 236.175L100.653 234.56L101.065 234.353L100.985 234.812L100.492 236.06L100 236.186L99.9886 236.175ZM102.267 245.031L100.939 246.898L100.275 247.105L100.069 247.151V246.898L100.149 246.074L100.939 244.172L101.431 243.049L101.969 242.339L102.679 242.293L102.759 242.499L102.92 243.038L102.84 243.45L102.256 245.031H102.267ZM102.141 235.992L102.301 236.45L102.382 236.656L101.717 236.988L101.637 236.278L102.13 235.992H102.141ZM101.935 233.299L102.141 233.013L102.015 233.345L101.855 233.838L101.775 233.586L101.935 233.299ZM101.855 234.869L102.267 234.204L102.553 234.743L102.015 235.327L101.855 234.869Z" fill="#FDF001"/>
<path d="M109.904 232.348L107.5 238.157L107.042 239.188L106.79 239.601H106.297L106.172 239.108L106.126 237.206L107.374 233.024L107.168 233.231L107.328 232.692L108.072 230.871L108.45 230.378L108.404 230.424L108.61 230.046L108.942 229.587L109.687 229.129L110.099 229.255L110.431 229.381L110.511 229.633L110.637 230.172L110.511 230.71L109.893 232.371V232.348H109.904ZM113.728 232.016L109.458 242.339L108.003 245.822L107.42 247.105L107.087 247.391L107.168 247.139L107.294 246.727L107.133 246.979L106.973 246.647L106.721 245.856V242.213L108.084 237.653L110.282 232.348L111.312 229.908L112.137 228.751L112.675 228.499L112.961 228.339L113.545 228.384L113.923 228.43L114.209 228.808L114.461 229.06V229.438L114.129 230.802L114.289 230.641L114.163 230.928L113.705 232.051L113.728 232.016ZM117.255 232.348L112.526 243.748L110.625 248.354L110.213 249.018L110.053 249.27H109.801L109.469 249.19L109.515 249.03L109.022 249.442H108.313L107.9 249.282L107.488 248.789L107.442 248.457V247.872L107.603 247.334L108.885 244.183L113.03 234.193L114.232 231.329L114.724 230.332L114.93 229.92L115.675 229.542L116.052 229.748L117.048 230.997V231.203L117.506 231.157L117.461 231.363L117.255 232.36V232.348ZM115.64 245.352L114.976 248.376L114.438 249.499L113.82 250.084L113.327 250.038L112.95 249.992L112.869 249.786L112.663 249.121V248.995L112.251 249.247L111.919 249.373L111.633 249.213L111.221 248.961V248.09L111.713 246.761L112.709 244.309L116.98 234.033L118.388 230.756L119.212 229.473L119.705 229.141L119.957 229.015L120.334 229.175L120.667 229.301L120.712 229.679L120.758 230.011L121.25 229.633L121.708 229.759L122.04 229.839L122.121 230.218L122.201 230.71L121.823 231.913L120.621 234.858L119.751 236.645L119.132 237.229L118.64 237.355L118.308 237.401L118.182 237.195L117.93 236.782L116.98 238.398L116.236 241.01L115.32 243.37H115.526L115.606 243.828L115.652 245.363H115.64V245.352ZM123.678 232.074L122.098 235.717L121.937 236.003L121.193 236.255V236.003L121.147 235.385L121.308 234.972L121.72 233.941L121.88 233.529L121.926 233.403L122.464 232.154L122.876 231.123L123.163 230.504L123.288 230.172L123.953 229.461L123.872 229.794L123.746 230.08L123.872 230.034L123.998 230.321L124.159 230.607L124.033 231.02L123.655 232.051L123.678 232.074ZM124.548 233.357L123.758 235.052L123.3 235.465L122.968 235.178L123.048 234.72L123.506 233.357L124.25 231.615L124.582 230.951L125.2 230.538L125.246 231.031L125.12 231.821L124.536 233.357H124.548ZM125.258 234.72L125.006 235.465L124.594 235.671L124.262 235.831L124.181 235.545L124.056 235.132L124.262 234.308L124.639 233.517L124.972 233.437L125.304 233.391L125.349 233.723L125.269 234.72H125.258Z" fill="#FDF001"/>
<path d="M127.639 230.481L128.051 231.065L127.971 231.398L127.685 232.314L127.479 232.727L127.147 232.807L126.895 232.761L126.849 232.303L126.895 231.432L126.941 231.1L127.651 230.481H127.639ZM134.726 232.635L129.677 244.871L128.429 247.689L128.303 247.975L127.559 248.262L127.433 247.975L127.227 247.483L127.181 247.025L127.765 243.335L129.047 240.139L129.093 239.853L129.711 238.191L132.86 230.641L133.444 229.358L133.73 228.866L134.188 228.579L134.268 228.866L134.394 229.324L134.314 229.53L134.566 229.484L134.944 229.438L135.276 229.725L135.528 229.931L135.482 230.515L134.738 232.635H134.726ZM131.417 232.142L130.089 235.293L129.265 237.321L128.647 238.73L128.189 239.52L127.696 239.853L127.49 239.566L127.33 238.776L127.41 237.573L128.326 234.583L128.578 234.044V233.792L128.532 233.299L128.692 232.509L129.357 230.641L130.021 229.484L130.307 229.152L130.513 229.278L130.799 229.564V229.69L130.959 229.53L131.292 229.656L131.749 229.782L131.83 230.24L131.875 230.699L131.417 232.154V232.142ZM131.463 223.343L130.593 225.337L129.929 226.368L129.311 226.654L129.105 226.78L128.647 226.494L128.36 226.288L128.315 225.83V225.371L128.567 224.501L128.727 224.214L128.349 224.26L128.303 224.054L128.177 223.561L128.223 222.771L128.761 220.743L129.219 219.952L129.551 219.666L129.929 219.379L130.261 219.46L130.673 219.54L130.753 220.032L130.834 220.411L130.788 220.571L131.12 220.411L131.372 220.33L131.784 220.537L132.116 220.697V221.281L131.452 223.355L131.463 223.343ZM137.051 233.528L135.15 238.833L132.001 246.383L130.513 249.247L130.135 249.579L129.677 249.534L129.345 249.488L129.219 249.155L129.139 248.697L129.219 248.285L129.505 247.54L129.46 247.586L129.505 247.334L129.586 246.543L130.868 243.473L135.264 232.898L136.009 231.077L136.295 230.492L136.913 230.034L136.867 230.412L136.707 230.825L137.119 230.985L137.165 231.524L137.039 233.517H137.051V233.528ZM136.97 241.835L136.81 245.237L135.23 249.178L134.44 250.003L134.028 250.164L133.57 250.29L133.158 250.244L132.746 250.164L132.459 249.751L132.253 249.465L132.333 248.926L132.585 248.182L132.333 248.342L131.921 247.964L132.001 247.632L132.826 245.226L136.1 237.389L136.593 236.186L137.005 235.522L137.497 235.27L137.543 235.602L137.669 236.095L137.417 237.298L136.673 239.2H136.719L136.844 239.612L136.97 241.812V241.835ZM135.024 223.389L134.2 225.211L133.913 225.704L133.123 226.116L132.711 225.864L132.425 225.658V225.406L132.471 224.867L132.677 224.249L132.517 224.294V224.042L132.391 223.458L132.768 222.427L133.639 220.399L134.051 219.78L134.257 219.528L134.635 219.574L134.967 219.654L134.887 219.987L134.841 220.032H135.631L135.883 220.571L135.837 221.316L135.047 223.389H135.024ZM135.562 224.512L135.848 224.019L135.929 223.813L136.341 223.859L135.929 223.527L135.974 223.321L136.1 222.908L136.81 221.167L137.474 220.548L137.76 220.754L137.68 221.086L136.856 223.286L136.398 223.87L136.478 223.916L136.524 224.375L136.364 225.371L136.238 225.658L136.032 225.784L135.619 225.99L135.493 225.658L135.368 225.199L135.574 224.535V224.512H135.562ZM136.959 248.514L136.501 248.136L136.627 247.758L137.039 246.681L137.199 246.429H137.406L137.783 246.475V246.681L137.829 247.139L137.703 247.849L137.577 248.182L136.959 248.514Z" fill="#FDF001"/>
<path d="M150.343 222.519L150.389 223.343L149.473 226.162L148.271 229.026L143.13 241.502L141.344 245.776L140.806 246.773L140.6 247.105V246.727L140.554 245.524V242.579L140.6 240.712L141.516 237.939L141.562 237.813L141.608 237.607L141.768 236.988L142.924 234.216L146.565 225.383L147.515 223.149L147.847 222.358H148.054L148.18 222.072L148.844 221.487L149.176 221.533L149.885 221.74L150.343 222.53V222.519ZM146.943 223.664L142.672 233.941L141.596 236.347L140.978 236.931L140.898 236.679L140.646 235.889L140.898 232.898L141.848 230.206L141.562 230.366L141.482 229.908L141.401 229.45L141.562 228.579L142.386 226.345L143.668 223.321L144.493 221.74L144.951 221.361L145.409 221.648V221.854L145.363 222.106L145.409 222.026L146.153 221.487L146.691 221.568L146.943 221.614L147.023 221.82L147.275 222.358L147.195 222.69L146.943 223.641V223.664ZM142.844 224.455L141.814 226.907L141.401 227.617H140.863L140.818 227.365L140.657 226.78L140.703 225.532L141.115 223.172L141.825 222.014L142.111 221.728L142.695 221.568L143.107 221.694L143.485 222.152L143.439 222.69L142.856 224.478V224.455H142.844ZM153.481 231.134L151.122 236.736L147.183 246.314L145.981 248.926L145.443 249.511L144.779 249.797L144.527 249.877L144.115 249.671L143.783 249.511L143.703 249.133L143.623 248.674L143.749 248.182L143.21 248.674L142.718 248.629H142.386L142.18 248.342L141.848 247.964V247.632L141.802 246.841L143.256 242.568L149.015 228.682L150.378 225.452L150.63 224.959L151.248 224.581L151.328 224.913L151.454 225.864L151.374 230.263L151.294 230.424L152.576 229.267L153.068 229.015L153.4 229.221L153.813 229.473L153.767 229.851L153.481 231.134ZM150.95 246.268L150.08 248.342L149.622 249.133L149.416 249.419L148.878 249.705L148.546 249.66L148.168 249.247L148.214 248.789L148.26 248.629L147.973 248.789L147.641 248.915L147.355 248.709L147.023 248.422V248.216L147.103 247.552L148.054 245.191L149.92 240.712L150.664 239.131L151.076 238.844L151.454 239.669L150.962 243.072L150.756 243.656L151.133 243.817L151.466 243.977V244.435L150.973 246.257H150.95V246.268ZM159.698 232.314L154.145 245.661L153.194 247.895L152.702 248.606L152.164 249.064H151.374L151.168 248.777L150.916 248.399V248.067L151.076 247.07L152.359 244.298L153.641 243.015L154.465 241.48L154.923 237.951L155.954 235.052L157.488 231.409L158.152 230.206L158.404 229.828L158.736 229.748V229.702L158.862 229.656L159.24 229.53L159.618 229.782L159.904 229.943L159.984 230.321L160.11 230.813L159.698 232.303V232.314ZM157.465 230.584L156.183 233.735L155.725 234.857L155.473 235.396L154.809 236.015L154.557 235.808L154.099 235.522V235.27L154.053 234.605L154.213 234.147L153.927 234.353L153.469 234.227L153.183 234.101L153.137 233.769L153.091 233.311L153.343 232.486L154.5 229.713L155.198 228.51L156.068 228.098L156.561 228.51L156.606 228.969L156.446 229.553L156.858 229.267L157.19 229.347L157.522 229.473V229.679L157.442 230.596H157.465V230.584ZM163.098 234.846L161.106 239.784L157.912 247.54L156.125 250.232L155.633 250.485L155.141 250.404L154.809 250.324L154.603 250.038L154.351 249.625V249.087L154.557 248.422L154.431 248.629L153.847 248.709H153.595V248.457L153.721 247.54L154.969 244.47L159.48 233.563L160.682 231.077L160.888 230.825L161.301 230.745L161.507 230.825L161.552 231.237L161.22 232.36L161.472 232.028L161.724 231.776H162.594L162.972 232.188L163.098 234.846ZM165.09 241.732L162.892 247.781L161.53 248.858L161.117 249.018L160.831 248.812L160.545 248.56L160.625 247.975L160.911 247.151L160.579 247.941L159.457 249.476L159.079 249.763L158.415 249.717H158.209L158.083 249.511L157.797 248.972L157.877 248.64L158.037 247.895L158.953 245.661L162.228 237.699L163.258 235.247L163.877 234.376L164.621 234.422L164.827 234.88L164.907 237.08L163.957 239.612L164.163 239.119L164.369 238.707L164.575 238.661L165.033 238.581L165.079 238.833L165.125 239.291L165.079 241.743H165.09V241.732Z" fill="#FDF001"/>
<path d="M177.73 222.519L177.776 223.343L176.86 226.162L175.658 229.026L170.517 241.502L168.731 245.776L168.193 246.773L167.987 247.105V246.727L167.941 245.524V242.579L167.987 240.712L168.903 237.939L168.949 237.813L168.995 237.607L169.155 236.988L170.311 234.216L173.952 225.383L174.902 223.149L175.234 222.358H175.441L175.566 222.072L176.231 221.487L176.563 221.533L177.272 221.74L177.73 222.53V222.519ZM174.33 223.664L170.059 233.941L168.983 236.347L168.365 236.931L168.285 236.679L168.033 235.889L168.285 232.898L169.235 230.206L168.949 230.366L168.869 229.908L168.788 229.45L168.949 228.579L169.773 226.345L171.055 223.321L171.88 221.74L172.338 221.361L172.796 221.648V221.854L172.75 222.106L172.796 222.026L173.54 221.487L174.078 221.568L174.33 221.614L174.41 221.82L174.662 222.358L174.582 222.69L174.33 223.641V223.664ZM170.231 224.455L169.201 226.907L168.788 227.617H168.25L168.205 227.365L168.044 226.78L168.09 225.532L168.502 223.172L169.212 222.014L169.498 221.728L170.082 221.568L170.494 221.694L170.872 222.152L170.826 222.69L170.243 224.478V224.455H170.231ZM180.868 231.134L178.509 236.736L174.57 246.314L173.368 248.926L172.83 249.511L172.166 249.797L171.914 249.877L171.502 249.671L171.17 249.511L171.09 249.133L171.01 248.674L171.136 248.182L170.597 248.674L170.105 248.629H169.773L169.567 248.342L169.235 247.964V247.632L169.189 246.841L170.643 242.568L176.402 228.682L177.765 225.452L178.017 224.959L178.635 224.581L178.715 224.913L178.841 225.864L178.761 230.263L178.681 230.424L179.963 229.267L180.455 229.015L180.787 229.221L181.2 229.473L181.154 229.851L180.868 231.134ZM178.337 246.268L177.467 248.342L177.009 249.133L176.803 249.419L176.265 249.705L175.933 249.66L175.555 249.247L175.601 248.789L175.647 248.629L175.36 248.789L175.028 248.915L174.742 248.709L174.41 248.422V248.216L174.49 247.552L175.441 245.191L177.307 240.712L178.051 239.131L178.463 238.844L178.841 239.669L178.349 243.072L178.143 243.656L178.52 243.817L178.852 243.977V244.435L178.36 246.257H178.337V246.268ZM187.085 232.314L181.532 245.661L180.581 247.895L180.089 248.606L179.551 249.064H178.761L178.555 248.777L178.303 248.399V248.067L178.463 247.07L179.746 244.298L181.028 243.015L181.852 241.48L182.31 237.951L183.341 235.052L184.875 231.409L185.539 230.206L185.791 229.828L186.123 229.748V229.702L186.249 229.656L186.627 229.53L187.004 229.782L187.291 229.943L187.371 230.321L187.497 230.813L187.085 232.303V232.314ZM184.852 230.584L183.57 233.735L183.112 234.857L182.86 235.396L182.196 236.015L181.944 235.808L181.486 235.522V235.27L181.44 234.605L181.6 234.147L181.314 234.353L180.856 234.227L180.57 234.101L180.524 233.769L180.478 233.311L180.73 232.486L181.887 229.713L182.585 228.51L183.455 228.098L183.947 228.51L183.993 228.969L183.833 229.553L184.245 229.267L184.577 229.347L184.909 229.473V229.679L184.829 230.596H184.852V230.584ZM190.485 234.846L188.493 239.784L185.299 247.54L183.512 250.232L183.02 250.485L182.528 250.404L182.196 250.324L181.99 250.038L181.738 249.625V249.087L181.944 248.422L181.818 248.629L181.234 248.709H180.982V248.457L181.108 247.54L182.356 244.47L186.867 233.563L188.069 231.077L188.275 230.825L188.688 230.745L188.894 230.825L188.939 231.237L188.607 232.36L188.859 232.028L189.111 231.776H189.981L190.359 232.188L190.485 234.846ZM192.477 241.732L190.279 247.781L188.917 248.858L188.504 249.018L188.218 248.812L187.932 248.56L188.012 247.975L188.298 247.151L187.966 247.941L186.844 249.476L186.466 249.763L185.802 249.717H185.596L185.47 249.511L185.184 248.972L185.264 248.64L185.424 247.895L186.34 245.661L189.615 237.699L190.645 235.247L191.264 234.376L192.008 234.422L192.214 234.88L192.294 237.08L191.344 239.612L191.55 239.119L191.756 238.707L191.962 238.661L192.42 238.581L192.466 238.833L192.512 239.291L192.466 241.743H192.477V241.732Z" fill="#FDF001"/>
<path d="M197.114 222.977L196.198 225.463L195.821 226.127L195.157 226.082L195.076 225.623L195.122 223.47L195.408 222.645L195.74 222.267L195.992 221.98H196.53L196.863 222.141L197.114 222.965V222.977ZM200.515 223.24L199.152 226.723L197.126 231.615L196.176 233.609L195.718 233.861L195.511 233.907L195.466 233.7L195.34 233.288L195.294 231.054L195.454 228.602L196.908 224.661L197.904 222.542L198.191 222.083L198.683 221.705L198.969 221.499L199.553 221.453L199.931 221.407L200.263 221.694L200.595 221.98V222.358L200.515 223.229V223.24ZM205.152 228.728L204.992 230.389L202.999 235.533L199.141 244.905L197.481 248.674L197.195 249.167L196.702 249.453L196.416 249.614L196.164 249.408L195.752 248.995L195.626 248.331L195.706 246.795L196.416 244.47L196.336 243.805L196.382 241.319L196.874 239.532L198.946 234.514L203.045 224.604L204.499 221.167L204.911 220.674L205.656 220.594L205.988 221.304V221.636L205.827 222.839L204.751 225.497H204.877L205.129 226.082L205.175 228.74H205.152V228.728ZM202.083 225.486L197.733 236.015L196.702 238.466L196.324 239.177L196.37 238.89L196.828 237.813L196.416 238.524L195.924 238.363V237.779L196.462 235.499L196.92 234.376L196.588 234.709L196.542 234.09L197.412 231.856L200.515 224.352L201.339 222.53L201.671 222.152L201.877 222.53L201.832 222.69L202.118 222.232L202.324 221.946L202.736 221.9L203.068 221.854V222.347L203.022 222.805L202.69 223.676L202.977 223.263L202.816 223.676L202.072 225.497L202.083 225.486ZM202.873 224.684L198.809 234.468L197.778 236.92L197.446 237.538L197.492 237.252L197.985 236.049L199.313 232.898L202.667 224.776L203.492 222.828L203.824 222.335L203.744 222.542L203.538 223.08L202.873 224.695V224.684ZM204.694 239.727L201.5 247.483L200.79 248.846L200.412 249.259L199.748 249.304L199.702 249.098L199.622 248.64L199.782 247.93L199.198 249.007L198.866 249.293L198.282 249.167L198.076 249.087L198.03 248.881L198.076 247.964L199.233 244.974L203.251 235.316L204.282 232.864L204.866 231.948L205.404 232.028L205.45 232.486L205.198 234.846L204.373 237.08L204.454 236.92L204.946 236.633L205.072 237.172L204.66 239.704L204.694 239.727ZM205.77 242.419L205.61 245.856L205.152 247.311L204.568 248.514L204.488 248.594L204.534 248.72L204.579 249.178L204.167 249.018L204.007 249.224L203.515 249.43L203.228 249.591L202.77 249.545L202.312 249.499L201.98 249.121L201.729 248.869V248.411L202.187 246.715L204.213 241.823L204.705 240.62L205.037 240.288L205.415 240.036L205.576 240.322L205.782 240.609V242.419H205.77Z" fill="#FDF001"/>
<path d="M211.415 230.481L211.827 231.065L211.747 231.398L211.461 232.314L211.254 232.727L210.922 232.807L210.671 232.761L210.625 232.303L210.671 231.432L210.716 231.1L211.426 230.481H211.415ZM218.502 232.635L213.453 244.871L212.205 247.689L212.079 247.975L211.335 248.262L211.209 247.975L211.003 247.483L210.957 247.025L211.541 243.335L212.823 240.139L212.869 239.853L213.487 238.191L216.636 230.641L217.22 229.358L217.506 228.866L217.964 228.579L218.044 228.866L218.17 229.324L218.09 229.53L218.342 229.484L218.72 229.438L219.052 229.725L219.303 229.931L219.258 230.515L218.513 232.635H218.502ZM215.193 232.142L213.865 235.293L213.041 237.321L212.422 238.73L211.964 239.52L211.472 239.853L211.266 239.566L211.106 238.776L211.186 237.573L212.102 234.583L212.354 234.044V233.792L212.308 233.299L212.468 232.509L213.132 230.641L213.796 229.484L214.082 229.152L214.289 229.278L214.575 229.564V229.69L214.735 229.53L215.067 229.656L215.525 229.782L215.605 230.24L215.651 230.699L215.193 232.154V232.142ZM215.239 223.343L214.369 225.337L213.705 226.368L213.086 226.654L212.88 226.78L212.422 226.494L212.136 226.288L212.09 225.83V225.371L212.342 224.501L212.502 224.214L212.125 224.26L212.079 224.054L211.953 223.561L211.999 222.771L212.537 220.743L212.995 219.952L213.327 219.666L213.705 219.379L214.037 219.46L214.449 219.54L214.529 220.032L214.609 220.411L214.563 220.571L214.895 220.411L215.147 220.33L215.559 220.537L215.891 220.697V221.281L215.227 223.355L215.239 223.343ZM220.826 233.528L218.926 238.833L215.777 246.383L214.289 249.247L213.911 249.579L213.453 249.534L213.121 249.488L212.995 249.155L212.915 248.697L212.995 248.285L213.281 247.54L213.235 247.586L213.281 247.334L213.361 246.543L214.644 243.473L219.04 232.898L219.784 231.077L220.071 230.492L220.689 230.034L220.643 230.412L220.483 230.825L220.895 230.985L220.941 231.524L220.815 233.517H220.826V233.528ZM220.746 241.835L220.586 245.237L219.006 249.178L218.216 250.003L217.804 250.164L217.346 250.29L216.933 250.244L216.521 250.164L216.235 249.751L216.029 249.465L216.109 248.926L216.361 248.182L216.109 248.342L215.697 247.964L215.777 247.632L216.601 245.226L219.876 237.389L220.368 236.186L220.78 235.522L221.273 235.27L221.319 235.602L221.444 236.095L221.193 237.298L220.448 239.2H220.494L220.62 239.612L220.746 241.812V241.835ZM218.8 223.389L217.975 225.211L217.689 225.704L216.899 226.116L216.487 225.864L216.201 225.658V225.406L216.246 224.867L216.453 224.249L216.292 224.294V224.042L216.166 223.458L216.544 222.427L217.414 220.399L217.826 219.78L218.033 219.528L218.41 219.574L218.742 219.654L218.662 219.987L218.616 220.032H219.406L219.658 220.571L219.613 221.316L218.823 223.389H218.8ZM219.338 224.512L219.624 224.019L219.704 223.813L220.116 223.859L219.704 223.527L219.75 223.321L219.876 222.908L220.586 221.167L221.25 220.548L221.536 220.754L221.456 221.086L220.632 223.286L220.174 223.87L220.254 223.916L220.3 224.375L220.139 225.371L220.013 225.658L219.807 225.784L219.395 225.99L219.269 225.658L219.143 225.199L219.349 224.535V224.512H219.338ZM220.735 248.514L220.277 248.136L220.403 247.758L220.815 246.681L220.975 246.429H221.181L221.559 246.475V246.681L221.605 247.139L221.479 247.849L221.353 248.182L220.735 248.514Z" fill="#FDF001"/>
<path d="M227.284 232.921L225.795 236.484L225.303 237.309L224.971 237.389L224.765 237.057L224.81 236.645L225.6 233.655L226.058 232.532L225.646 233.448L225.154 233.655L224.822 233.07L225.108 230.504L225.818 229.347L226.15 229.015L226.562 229.141L227.02 229.221V229.713L227.066 230.172L226.734 231.088L227.146 230.217L227.524 229.725L227.982 229.679H228.268V230.344L228.016 231.214L227.306 232.91H227.284V232.921ZM231.508 231.398L227.284 241.56L226.207 243.885L226.001 244.263L225.257 244.218L225.131 244.011L224.845 243.221L225.051 240.483L225.715 238.822L225.509 238.902L225.223 238.856L225.268 238.398L225.807 236.702L227.879 231.73L228.543 230.401L228.829 229.988L229.241 230.24L229.115 230.618L229.814 229.461L230.558 228.969L231.142 228.923H231.52L231.806 229.381L231.966 229.668L231.886 230.126L231.508 231.409V231.398ZM234.657 235.694L232.424 242.407L230.89 246.051L230.066 247.953L229.573 248.743L229.035 248.995L228.703 249.156L228.417 248.995L227.879 248.709L227.799 248.502L227.513 247.838L227.719 246.383L227.97 245.764L227.719 246.177L226.768 246.589L226.23 246.177L226.184 245.845L226.139 244.974L227.135 242.155L231.108 232.578L232.23 230.046L232.722 229.381L232.974 229.129L233.638 229.083H233.89L234.016 229.29L234.302 229.828L234.256 230.366L233.764 231.73L233.97 231.398L234.302 231.237L234.508 231.157L234.554 231.363L234.714 232.234L234.668 235.671V235.694H234.657ZM235.561 247.173L234.737 249.121L233.993 250.244L233.283 250.702L232.699 250.622L232.413 250.542L232.367 250.29L232.241 249.705L232.367 249.293L232.413 249.167L232.333 249.247L231.875 249.293L231.417 249.339L231.039 249.052L230.707 248.766L230.581 247.815L230.959 246.658L233.615 240.277L234.359 238.535L234.611 238.042L234.943 238.123L235.195 238.168V238.547L235.275 239.543L235.401 242.98L235.023 244.137L235.607 244.057L235.985 244.183L236.317 244.676L236.271 245.214L235.561 247.208V247.173ZM246.209 231.707L240.622 245.26L238.928 248.159L238.676 248.411L238.138 248.537L237.806 248.617L237.725 248.285L237.565 247.872L237.279 248.491L237.027 248.823L236.535 249.075L236.248 249.236L235.997 248.984L235.79 248.732V248.48L235.871 247.861L236.409 246.498L237.359 244.263L238.847 241.365L239.637 238.753L241.916 233.242L243.198 230.172L243.782 229.347L243.988 229.095L244.572 228.969L244.824 228.889L244.904 229.141L245.156 229.679L245.076 230.011L245.454 229.519L245.706 229.267L246.164 229.312H246.576L246.702 229.805L246.782 230.137L246.656 230.55L246.244 231.707H246.209ZM241.813 232.039L239.615 237.424L238.905 238.707L238.618 238.867L238.458 238.581L238.252 236.794L238.504 234.674L239.294 232.394L239.546 231.856L239.5 231.65L239.42 231.065L239.466 230.321L239.798 229.163L240.588 228.785L241 229.198L240.954 229.53L240.828 229.862L241.16 229.702L241.572 229.542L241.95 229.794L242.237 229.954V230.447L241.824 232.028H241.813V232.039ZM248.442 236.324L246.496 241.88L243.965 247.895L242.843 249.637L242.511 249.969L241.801 250.015L241.595 250.061L241.469 249.854L241.218 249.316L241.263 248.984L241.389 248.571L241.057 248.732L240.805 248.48L240.427 248.067V247.403L240.805 245.867L241.675 243.714L245.9 233.551L247.103 230.607L247.641 229.61L247.847 229.232L248.385 228.98H248.797L249.255 229.312L249.301 229.897L248.683 232.222L248.225 233.299L248.431 233.677L248.511 234.342L248.431 236.335H248.442V236.324ZM247.858 247.884L247.526 248.594L247.114 249.007L246.862 249.259L246.61 249.052L246.324 248.846L246.37 248.64L246.416 248.514L246.209 248.766L245.958 248.972L245.294 249.018H245.087L244.961 248.812L244.71 248.228L244.79 247.689L245.454 245.741L247.812 240.024L248.728 238.123L249.186 237.745L249.438 238.283L249.564 239.154L249.484 241.147L248.282 244.584L248.488 244.504L248.534 244.756L248.614 245.375L247.87 247.907V247.884H247.858ZM248.259 247.964L248.717 247.299L248.877 247.586L249.083 247.872L248.877 248.457L248.831 248.663L248.122 248.617L248.247 247.953H248.259V247.964Z" fill="#FDF001"/>
<path d="M260.258 233.001L255.243 245.146L253.995 248.09L253.251 248.961L252.965 248.754L252.587 248.502L252.507 247.792L252.713 246.463L253.331 244.802V244.848L253.251 244.596L253.125 243.851L253.377 240.62L254.579 237.515L256.606 232.623L257.556 230.298L258.3 229.095L259.044 228.602L259.502 228.762L259.834 228.888L259.915 229.381L259.96 229.759L259.834 230.137L260.041 229.977L260.579 230.103L260.785 230.183L260.865 230.676L260.247 233.001H260.258ZM257.109 230.767L254.373 237.401L253.629 239.016L253.171 239.348L252.919 238.97L252.793 238.306L253.079 236.691L253.869 234.617L253.583 234.903L253.503 234.697L253.423 234.113L254.247 231.707L255.197 229.839L255.61 229.461L255.816 229.874L255.77 230.08L256.148 229.542L256.606 229.335H257.098L257.35 229.587L257.304 229.92L257.098 230.744V230.767H257.109ZM254.465 230.687L253.675 232.383L253.297 232.669L253.091 232.257V231.592L253.503 230.229L254.041 229.519H254.247L254.625 229.564V229.816L254.465 230.687ZM262.628 232.761L257.327 245.615L255.999 248.64L255.083 249.259L254.831 248.88L254.991 248.342L255.071 248.09L254.865 248.342L254.614 248.136L254.659 247.93L254.785 247.345L255.243 246.223L256.033 244.275L260.132 234.411L261.208 231.879L261.792 231.054L262.044 231.1L262.25 231.145L262.376 230.985L262.708 230.905L262.96 230.825L263.006 231.283L263.086 231.661L262.628 232.784V232.761ZM266.567 230.641L265.536 233.093L264.826 234.582L262.502 237.275L262.09 240.803L260.304 245.696L259.388 247.815L258.644 249.178L258.186 249.637L257.728 249.717L257.35 249.797L257.19 249.511L256.938 249.178L257.018 248.434L257.178 247.975L257.132 248.021L256.972 248.308L256.594 248.021L256.926 247.196L258.254 243.966L262.193 234.468L263.441 231.524L263.853 230.607L263.979 230.275L264.357 230.149V230.355L264.277 230.893L264.941 229.61L265.399 229.232L265.651 229.026L266.109 228.98L266.521 228.934L266.647 229.267L266.853 229.805L266.567 230.63V230.641ZM262.88 244.298L261.346 247.941L261.186 248.227L260.602 248.434L260.521 248.48L260.395 248.732L260.476 248.48L260.395 248.525L260.315 248.273L260.155 247.689L260.281 247.277L260.613 246.36L261.815 243.416L262.353 242.385L262.64 242.132L263.052 242.293V242.705L262.891 244.286H262.88V244.298ZM262.182 248.285V247.54L262.72 246.795L263.098 247.128L263.052 247.46L262.766 248.124L262.182 248.285ZM268.639 230.618L267.517 233.357L267.025 234.147L266.819 234.434H266.567L266.155 235.384L265.823 235.591L265.868 235.384L266.12 234.72L266.246 234.434H266.166L266.12 234.055L266.04 233.597L266.292 232.726L267.448 229.862L267.986 228.992L268.147 228.705L268.731 228.545L268.937 228.465L269.017 228.717L269.177 229.301L269.051 229.587L268.639 230.618ZM271.295 233.07L267.609 242.029L266.658 244.183L266.246 244.47L266.04 244.424L266.086 243.805L266.338 243.06L266.922 241.651L266.761 241.731L266.635 241.147L266.555 238.615L266.761 236.542L267.551 234.262L268.799 231.317L269.921 228.911L270.253 228.499L271.043 228.087L271.582 228.247L271.914 228.327L271.994 228.533L272.246 229.152L272.2 229.61L271.868 230.859L271.822 230.939H271.868V231.73L271.33 233.059H271.295V233.07ZM275.394 232.543L269.589 246.509L268.467 248.915L267.975 249.499L267.265 249.831L266.773 249.671L266.487 249.545L266.406 249.167L266.326 248.583L266.452 248.17L266.83 247.139L266.338 247.471V247.265L266.292 246.394L267.242 243.45L271.009 234.376L272.04 231.925L272.498 231.054L273.196 230.974L273.242 231.226L273.322 231.81L273.162 232.474L273.081 232.555L274.661 230.893L275.119 230.561L275.612 230.687L275.818 230.733V231.111L275.406 232.566V232.543H275.394ZM274.261 242.373L273.104 245.856L272.074 248.308L271.536 249.339L271.25 249.671L270.792 249.717L270.711 249.259V249.178L270.666 249.224L270.208 249.304L269.83 249.35L269.624 249.064L269.338 248.606L269.418 247.941L269.91 246.486L270.86 244.126L274.753 234.72L276.001 231.776L276.951 229.782L277.902 228.911L278.28 228.705L278.818 228.831L279.024 228.877L279.104 229.209L279.23 229.668L279.07 230.08L278.989 230.24L279.321 230.286L279.276 230.538L279.195 231.031L278.944 231.741L278.28 233.276L277.329 235.064L276.917 235.35L276.711 235.19L276.001 236.312L275.085 239.715L274.215 241.789L274.341 241.835L274.261 242.419V242.373ZM276.081 245.684L275.417 247.712L275.165 248.09L274.455 248.583L274.043 248.457L273.711 248.376L273.665 248.124L273.539 247.54L273.7 247.082L274.032 246.131L275.108 243.473L275.52 242.556H275.726L275.978 242.637L276.104 243.129L276.058 245.661L276.081 245.684ZM282.218 233.001L280.856 236.278L279.985 238.432L278.989 240.506L278.577 240.918L278.165 240.712L278.211 240.254L278.589 238.512L279.539 236.232L279.413 236.186L279.367 235.934L279.287 235.396L279.997 231.787L281.279 228.969L281.863 228.304L282.149 228.052L282.733 228.132H282.985L283.031 228.384L283.237 228.923L283.077 229.587L282.745 230.412L282.997 230.699L282.871 231.237L282.252 232.979L282.218 233.001ZM285.699 235.694L281.428 245.97L280.638 247.918L280.18 248.709L279.596 249.293L279.344 249.087L278.966 248.88L279.047 248.262L279.379 247.391L279.127 247.185L278.841 246.979L278.795 246.314L278.955 242.545L280.283 238.776L282.401 233.677L283.729 230.653L283.981 230.275L284.439 229.942L284.726 229.782L285.058 229.908L285.47 230.069L285.756 230.561L285.344 233.173L285.882 232.795L286.374 233.253L286.294 233.838L285.676 235.705H285.699V235.694ZM287.519 239.497L285.905 243.599L284.165 247.746L283.672 248.743L283.466 249.121L282.596 249.373L282.264 248.754L282.344 248.342L282.184 248.674L281.772 249.052L281.52 249.259L280.901 249.098V248.846L280.947 248.056L281.978 245.363L285.287 237.447L285.905 235.911L286.283 235.087L286.695 234.422L287.233 234.296L287.485 234.25L287.531 234.502L287.691 235.041L287.565 235.705L287.027 237.286L287.485 237L287.691 237.378L287.771 238.042L287.519 239.532V239.497ZM287.645 244.435L287.187 248.331L286.569 249.579L285.905 250.164L285.367 250.29L285.035 250.336L284.657 250.049L284.279 249.763L284.325 249.304L284.611 248.147L284.737 247.861L284.611 247.815L284.737 247.357L285.149 246.36L286.809 242.293L287.428 240.964L287.714 240.632L288 240.918L287.84 241.33L287.428 242.488L287.302 242.74H287.382L287.462 243.026L287.622 243.439V244.435H287.645Z" fill="#FDF001"/>
</g>
<defs>
<clipPath id="clip0_119_4103">
<rect width="232" height="169" fill="white" transform="translate(56 82)"/>
</clipPath>
</defs>
</svg>
