<svg width="390" height="600" viewBox="0 0 390 600" fill="none" xmlns="http://www.w3.org/2000/svg">
<g clip-path="url(#clip0_264_3856)">
<path d="M374.83 89.69C372.63 78.25 370.56 67.45 369.96 57.59C366.96 8.38 390.35 0.29 390.59 0.21L390.41 -1C390.16 -0.92 384.21 1.05 378.57 9.3C369.16 23.05 368.24 43.21 369.12 57.7C369.73 67.67 371.81 78.52 374.02 90.02C378.2 111.78 382.83 135.89 380.06 163.79C377.51 137.85 368.66 115.12 360.85 87.73C343.53 27.02 372.26 -0.39 372.26 -0.39H0.580078C10.2001 64.56 33.2001 74.38 51.0401 91.78C57.0401 104.38 60.7501 118.27 59.2501 135.84C57.2701 159.02 44.9301 180.85 32.9901 201.97C29.2201 208.65 25.5001 215.23 22.1401 221.76C5.75008 247.2 -3.41992 274.38 18.2201 305.14C19.1501 307.34 20.0601 309.39 20.9501 311.36C28.5601 328.4 34.0601 340.72 27.3801 403.39C23.4001 440.76 28.6701 471.46 42.6201 492.18C52.8601 507.38 67.5601 516.86 84.8301 519.91C103.57 527.82 125.9 524.52 145.76 516.45C177.35 503.61 210.69 504.39 242.39 516.62C255.57 521.7 271.05 526.09 286.86 523.19C308.78 520.86 331.56 503.78 345.45 478.04C356.97 456.7 367.77 419.86 353.84 365.52C346.16 335.54 344.28 311.96 345.7 292.15C346.47 290.38 347.3 288.63 348.21 286.89C375.61 234.2 382.53 198.75 380.41 168.21C384.15 138.26 379.24 112.67 374.82 89.68L374.83 89.69ZM33.6501 202.76C45.6601 181.51 58.0801 159.54 60.0901 136C61.5201 119.24 58.3301 105.82 52.9501 93.7C60.1101 101.11 66.3001 110.18 70.2101 125.26C77.8701 154.77 48.9301 183.26 27.2801 214.13C29.3401 210.37 31.4801 206.58 33.6401 202.76H33.6501ZM43.2301 491.32C29.4701 470.89 24.2901 440.56 28.2201 403.59C34.9401 340.45 29.3701 327.97 21.6601 310.7C21.3301 309.97 21.0001 309.23 20.6701 308.48C20.9001 308.78 21.1301 309.08 21.3601 309.38C61.4001 360.18 17.5001 443.99 63.0701 502.93C68.1001 509.44 73.8801 514.25 80.1401 517.67C65.1401 513.86 52.3701 504.91 43.2301 491.33V491.32ZM353.05 365.96C366.84 419.76 356.17 456.19 344.79 477.28C334.15 497 318.23 511.58 301.52 518.23C306.24 515.84 310.93 512.62 315.54 508.39C380.75 448.67 317.75 361.99 344.66 294.64C343.58 314.06 345.64 337.05 353.05 365.95V365.96Z" fill="url(#paint0_linear_264_3856)"/>
<path d="M30.6501 595.01H364.41C364.41 595.01 341.84 523.92 262.7 538.97C262.7 538.97 195.56 570.87 125.46 538.97C125.46 538.97 65.7901 525.41 30.6601 595.01H30.6501Z" fill="#00124C"/>
<path d="M261.496 467.766C263.038 461.28 259.03 454.773 252.544 453.232C246.059 451.69 239.552 455.698 238.011 462.183C236.469 468.669 240.477 475.176 246.962 476.717C253.448 478.259 259.955 474.251 261.496 467.766Z" fill="#FDF001" stroke="url(#paint1_linear_264_3856)" stroke-width="0.5" stroke-miterlimit="10"/>
<path d="M249.75 475.31C250.18 475.45 250.44 475.6 250.51 476.05L250.79 476.94C250.88 477.23 251.13 477.99 251.22 478.27C251.12 478.46 251.03 478.66 250.89 478.87C250.65 478.78 250.47 478.68 250.28 478.58C250.19 478.3 249.95 477.54 249.85 477.25L249.57 476.36C249.36 475.96 249.48 475.68 249.76 475.32L249.75 475.31Z" fill="#FE40B4"/>
<path d="M252.74 474.6C253.23 474.75 253.51 474.96 253.62 475.44L254.05 476.47C254.19 476.81 254.56 477.69 254.69 478.02C254.62 478.25 254.56 478.48 254.45 478.72C254.2 478.62 253.99 478.51 253.78 478.39C253.64 478.07 253.28 477.18 253.14 476.84L252.71 475.81C252.45 475.39 252.5 475.04 252.74 474.59V474.6Z" fill="#FE40B4"/>
<path d="M255.44 473.75C255.87 473.76 256.16 473.81 256.32 474.21L256.78 474.94C256.93 475.18 257.33 475.8 257.47 476.03C257.42 476.23 257.37 476.43 257.28 476.66C257.04 476.64 256.84 476.6 256.63 476.56C256.48 476.33 256.09 475.7 255.94 475.47L255.48 474.74C255.19 474.42 255.26 474.14 255.44 473.75V473.75Z" fill="#FE40B4"/>
<path d="M152.573 473.48C157.287 468.766 157.287 461.124 152.573 456.41C147.859 451.696 140.217 451.696 135.504 456.41C130.79 461.124 130.79 468.766 135.504 473.48C140.217 478.193 147.859 478.193 152.573 473.48Z" fill="#FDF001" stroke="url(#paint2_linear_264_3856)" stroke-width="0.5" stroke-miterlimit="10"/>
<path d="M136.77 472.47C136.83 472.98 136.75 473.33 136.35 473.64L135.57 474.47C135.31 474.74 134.65 475.45 134.4 475.72C134.16 475.76 133.92 475.8 133.65 475.8C133.64 475.53 133.65 475.29 133.68 475.05C133.92 474.79 134.59 474.07 134.85 473.8L135.63 472.97C135.91 472.56 136.26 472.45 136.77 472.48V472.47Z" fill="#FE40B4"/>
<path d="M136.02 477.02C135.94 476.48 136.03 476.11 136.42 475.76L137.2 474.81C137.46 474.5 138.12 473.69 138.37 473.38C138.62 473.32 138.86 473.25 139.14 473.22C139.16 473.5 139.14 473.75 139.14 474.01C138.9 474.31 138.23 475.12 137.97 475.44L137.19 476.39C136.92 476.84 136.57 477 136.03 477.03L136.02 477.02Z" fill="#FE40B4"/>
<path d="M139.35 478.16C139.08 477.74 139 477.42 139.23 476.99L139.58 475.98C139.7 475.65 139.99 474.79 140.1 474.47C140.3 474.35 140.5 474.23 140.74 474.13C140.87 474.36 140.95 474.58 141.03 474.8C140.92 475.12 140.62 475.98 140.51 476.31L140.16 477.32C140.08 477.79 139.81 478 139.34 478.17L139.35 478.16Z" fill="#FE40B4"/>
<path d="M264.7 538.98C264.7 538.98 258.59 555.67 242.17 568.81C231.53 577.34 216.53 584.36 196.08 584.36C175.63 584.36 160.63 577.34 149.98 568.81C133.56 555.67 127.46 538.98 127.46 538.98C145.48 539.63 157.79 531.68 166.09 521.78C166.75 520.98 167.4 520.17 168.01 519.35C179.3 504.41 182.24 486.4 182.24 486.4H209.91C209.91 486.4 212.85 504.41 224.14 519.35C224.74 520.17 225.39 520.98 226.06 521.78C234.37 531.68 246.68 539.63 264.7 538.98V538.98Z" fill="#3E4BF6"/>
<path d="M264.7 538.98C264.7 538.98 258.59 555.67 242.17 568.81C231.53 577.34 216.53 584.36 196.08 584.36C175.63 584.36 160.63 577.34 149.98 568.81C133.56 555.67 127.46 538.98 127.46 538.98C145.48 539.63 157.79 531.68 166.09 521.78C166.75 520.98 167.4 520.17 168.01 519.35C179.3 504.41 182.24 486.4 182.24 486.4H209.91C209.91 486.4 212.85 504.41 224.14 519.35C224.74 520.17 225.39 520.98 226.06 521.78C234.37 531.68 246.68 539.63 264.7 538.98V538.98Z" fill="#00124C"/>
<path d="M224.15 519.35C216.04 524.52 206.41 527.51 196.09 527.51C185.77 527.51 176.13 524.51 168.02 519.35C179.31 504.41 182.25 486.4 182.25 486.4H209.92C209.92 486.4 212.86 504.41 224.15 519.35Z" fill="#001E7D"/>
<path d="M248.37 422.2C248.37 393.316 224.957 369.9 196.075 369.9C167.194 369.9 143.78 393.316 143.78 422.2V462.88C143.78 491.764 167.194 515.18 196.075 515.18C224.957 515.18 248.37 491.764 248.37 462.88V422.2Z" fill="url(#paint3_linear_264_3856)"/>
<path d="M248.37 422.2C248.37 393.316 224.957 369.9 196.075 369.9C167.194 369.9 143.78 393.316 143.78 422.2V462.88C143.78 491.764 167.194 515.18 196.075 515.18C224.957 515.18 248.37 491.764 248.37 462.88V422.2Z" fill="#FDF001" stroke="url(#paint4_linear_264_3856)" stroke-miterlimit="10"/>
<path d="M169.487 480.917C173.056 477.348 173.056 471.561 169.487 467.991C165.917 464.422 160.13 464.422 156.561 467.991C152.991 471.561 152.991 477.348 156.561 480.917C160.13 484.487 165.917 484.487 169.487 480.917Z" fill="#FE40B4"/>
<path d="M238.063 481.377C241.683 477.859 241.766 472.073 238.248 468.453C234.73 464.832 228.943 464.75 225.323 468.268C221.703 471.786 221.62 477.572 225.138 481.192C228.656 484.812 234.443 484.895 238.063 481.377Z" fill="#FE40B4"/>
<path d="M197.08 414.05C199.6 425.94 202.06 439.02 204.47 450.85C205.36 454.98 205.96 459.16 206.41 463.36C206.5 464.11 205.86 464.78 205.1 464.73C203.18 464.62 201.26 464.48 199.34 464.3C197.42 464.11 195.5 463.89 193.58 463.57C193.42 463.54 193.42 463.3 193.58 463.27C197.4 462.65 201.24 462.34 205.1 462.11L203.81 463.63C201.89 455.5 201.22 447.16 200.01 438.91C199 431.71 197.69 421.41 196.79 414.09C196.76 413.92 197.05 413.85 197.08 414.04V414.05Z" fill="#00124C"/>
<path d="M199.34 499.41C201.864 499.41 203.91 496.209 203.91 492.26C203.91 488.311 201.864 485.11 199.34 485.11C196.816 485.11 194.77 488.311 194.77 492.26C194.77 496.209 196.816 499.41 199.34 499.41Z" fill="#FF9FDA"/>
<path d="M182.62 487.3C193.68 493.37 205.05 493.5 216.07 487.3C216.14 487.25 216.26 487.25 216.31 487.34C216.34 487.4 216.33 487.46 216.29 487.51C209.87 494.65 198.84 496.89 190.11 492.94C187.18 491.72 184.61 489.77 182.41 487.51C182.29 487.37 182.46 487.18 182.62 487.3V487.3Z" fill="#00124C"/>
<path d="M181.02 489.72C180.9 487.6 182.05 485.59 183.91 484.59C183.95 484.56 184.02 484.58 184 484.64C183.32 485.94 181.87 488.51 181.11 489.77C181.08 489.82 181.01 489.77 181.02 489.72Z" fill="#00124C"/>
<path d="M215.09 485.67C216.82 486.23 217.91 487.92 217.74 489.72C217.74 489.77 217.7 489.82 217.66 489.77C216.96 488.79 215.63 486.75 215.01 485.72C214.98 485.67 215.05 485.64 215.09 485.67Z" fill="#00124C"/>
<path d="M209.15 441.69C217.26 445.73 226.38 445.77 234.48 441.69C228.72 449.76 214.93 449.7 209.15 441.69V441.69Z" fill="#00124C"/>
<path d="M156.19 441.69C164.3 445.73 173.42 445.77 181.52 441.69C175.76 449.76 161.98 449.7 156.19 441.69Z" fill="#00124C"/>
<path d="M166.21 532.98C161.38 534.44 166.65 540.26 167.6 553.49C160.77 545.99 153.8 539.55 148.26 535.31C145.7 536.4 142.96 537.29 140.03 537.92C143.98 544.07 150.94 551.97 152.64 556.44C152.14 555.88 134.35 535.93 129.05 540.38C125.45 543.4 142.07 557.99 146.49 567.14C146.49 567.14 126.59 545.04 122.93 548.18C118.54 551.95 135.29 567.81 139.78 575.75C138.85 574.56 123.83 555.29 119.28 555.54C115.03 555.77 123.77 573.56 141.52 595H195.21C182.64 565.69 171.48 531.38 166.21 532.97V532.98Z" fill="#00124C"/>
<path d="M257 595.01C274.84 576.01 283.95 560.23 279.9 559.7C275.38 559.1 258.95 577.19 257.94 578.31C263.02 570.73 280.91 556.17 276.82 552.08C273.41 548.67 251.9 569.21 251.9 569.21C257 560.42 274.68 547.12 271.31 543.84C266.36 539.01 247.12 557.56 246.58 558.08C248.79 553.36 257.58 545.02 261.68 538.99C258.15 538.93 254.85 538.52 251.77 537.84C246.05 541.66 238.94 547.35 231.88 554.01C233.82 540.89 239.52 535.48 234.81 533.66C229.57 531.64 215.41 566.39 200.34 595.01H257Z" fill="#00124C"/>
<path d="M196.54 587.97L196.56 588C183.44 558.06 171.67 521.2 166.21 522.85C161.38 524.31 166.65 530.13 167.6 543.36C153.48 527.87 138.73 516.85 137.39 520.54C135.7 525.18 150.1 539.62 152.64 546.31C152.14 545.75 134.35 525.8 129.05 530.25C125.45 533.27 142.07 547.86 146.49 557.01C146.49 557.01 126.59 534.91 122.93 538.05C118.54 541.82 135.29 557.68 139.78 565.62C138.85 564.43 123.83 545.16 119.28 545.41C114.58 545.67 125.76 567.39 147.45 591.78C148.32 592.76 149.13 593.85 149.91 595.01H195.16C195.93 593.41 196.72 591.81 197.52 590.24C197.19 589.48 196.87 588.72 196.53 587.96L196.54 587.97Z" fill="#FDF001"/>
<path d="M196.54 587.97L196.56 588C183.44 558.06 171.67 521.2 166.21 522.85C161.38 524.31 166.65 530.13 167.6 543.36C153.48 527.87 138.73 516.85 137.39 520.54C135.7 525.18 150.1 539.62 152.64 546.31C152.14 545.75 134.35 525.8 129.05 530.25C125.45 533.27 142.07 547.86 146.49 557.01C146.49 557.01 126.59 534.91 122.93 538.05C118.54 541.82 135.29 557.68 139.78 565.62C138.85 564.43 123.83 545.16 119.28 545.41C114.58 545.67 125.76 567.39 147.45 591.78C148.32 592.76 149.13 593.85 149.91 595.01H195.16C195.93 593.41 196.72 591.81 197.52 590.24C197.19 589.48 196.87 588.72 196.53 587.96L196.54 587.97Z" fill="#FDF001"/>
<path d="M279.9 549.56C275.38 548.96 258.95 567.05 257.94 568.17C263.02 560.59 280.91 546.03 276.82 541.94C273.41 538.53 251.9 559.07 251.9 559.07C257 550.28 274.68 536.98 271.31 533.7C266.36 528.87 247.12 547.42 246.58 547.94C249.62 541.45 265.06 528.14 263.73 523.39C262.66 519.61 247.13 529.48 231.88 543.87C233.82 530.75 239.52 525.34 234.81 523.52C229.49 521.46 214.97 557.34 199.64 586.2L199.66 586.17C198.94 587.51 198.23 588.87 197.53 590.24C196.72 591.82 195.94 593.41 195.17 595.01H247.04C247.46 594.55 247.89 594.1 248.32 593.67C271.79 570.98 284.57 550.16 279.9 549.55V549.56Z" fill="#FDF001"/>
<path d="M279.9 549.56C275.38 548.96 258.95 567.05 257.94 568.17C263.02 560.59 280.91 546.03 276.82 541.94C273.41 538.53 251.9 559.07 251.9 559.07C257 550.28 274.68 536.98 271.31 533.7C266.36 528.87 247.12 547.42 246.58 547.94C249.62 541.45 265.06 528.14 263.73 523.39C262.66 519.61 247.13 529.48 231.88 543.87C233.82 530.75 239.52 525.34 234.81 523.52C229.49 521.46 214.97 557.34 199.64 586.2L199.66 586.17C198.94 587.51 198.23 588.87 197.53 590.24C196.72 591.82 195.94 593.41 195.17 595.01H247.04C247.46 594.55 247.89 594.1 248.32 593.67C271.79 570.98 284.57 550.16 279.9 549.55V549.56Z" fill="#FDF001"/>
<path d="M143.78 374.15V438.37H149.25V439.07C149.37 439.07 161.67 438.96 170.19 429.1C177.22 420.97 179.74 408.74 177.71 392.73C186.03 417.02 206.85 434.98 232.2 439.59L248.37 442.53V374.14H143.78V374.15Z" fill="#FFF983"/>
<path d="M134.25 359.54C118.05 380.89 122.43 408.03 134.25 437.26H140.87V438.11C141.02 438.11 155.89 437.97 166.21 426.05C174.72 416.21 177.76 401.41 175.31 382.04C185.38 411.43 210.57 433.17 241.26 438.75L260.83 442.3C273.97 413.04 275.8 385.22 260.83 359.54C183.24 317.65 183.38 330.51 134.26 359.54H134.25ZM165.57 425.48C157.44 434.89 146.39 436.78 142.39 437.16C148.9 434.69 174.12 422.61 174.61 383.35C176.76 401.87 173.73 416.04 165.56 425.48H165.57Z" fill="#00124C"/>
<path d="M173.83 330.12C171.93 328.12 171.75 326.23 173.29 324.86C174.65 323.65 176.8 323.8 177.99 325.18C179.34 326.76 178.94 328.75 176.88 330.3C179.31 336.12 181.75 341.97 184.26 348.01C186.09 343.84 187.82 339.89 189.55 335.94C191.67 331.12 193.77 326.29 195.91 321.48C196.21 320.81 196.3 320.38 195.63 319.78C194.28 318.57 194.34 316.58 195.59 315.34C196.86 314.09 198.94 314.09 200.22 315.34C201.51 316.6 201.56 318.51 200.28 319.79C199.84 320.23 199.63 320.52 199.95 321.2C204.08 329.86 208.17 338.54 212.27 347.22C212.34 347.38 212.44 347.52 212.61 347.82C214.9 341.84 217.14 336 219.38 330.15C216.98 328.54 216.96 326.28 218.27 324.83C219.47 323.5 221.56 323.46 222.88 324.69C224.39 326.09 224.24 328.01 222.41 329.84C225.75 335.34 229.11 340.87 232.54 346.51C234.05 345.25 235.48 344.06 236.9 342.86C241.87 338.68 246.82 334.48 251.81 330.32C252.38 329.85 252.43 329.5 252.17 328.83C251.51 327.11 252.56 325.24 254.35 324.78C256.19 324.31 258.09 325.48 258.43 327.28C258.78 329.17 257.56 330.95 255.67 331.05C254.79 331.1 254.63 331.56 254.45 332.18C253 337.1 251.55 342.01 250.1 346.93C247.29 356.46 244.48 365.98 241.69 375.52C241.49 376.2 241.17 376.37 240.5 376.37C213.07 370.04 185.31 370.41 157.25 376.79C156.55 376.79 156.27 376.57 156.06 375.92C152.03 363.6 147.98 351.28 143.93 338.97C143.22 336.82 142.5 334.68 141.8 332.53C141.62 331.97 141.42 331.69 140.71 331.66C138.74 331.57 137.46 329.85 137.75 327.89C138.02 326.1 139.89 324.92 141.75 325.37C143.59 325.82 144.65 327.71 144.01 329.5C143.82 330.03 143.79 330.35 144.29 330.76C150.82 336.02 157.34 341.3 163.86 346.58C163.94 346.65 164.04 346.69 164.28 346.84C167.46 341.27 170.64 335.7 173.81 330.15L173.83 330.12Z" fill="#FDF001"/>
<path d="M156.41 377.62C155.27 377.32 155.06 375.81 154.72 374.89L153.82 372.14C150.58 362.22 144.54 343.76 141.23 333.67L140.86 332.56C138.17 332.62 136.11 329.73 137 327.11C138.84 322.1 146.47 324.51 144.9 329.67C144.86 329.8 144.82 329.9 144.8 329.98C144.8 330.01 144.8 330.03 144.8 329.99C144.8 329.95 144.77 329.91 144.78 329.93C144.86 330.01 145.12 330.21 145.29 330.35L146.41 331.26L164.38 345.82L163.79 345.93L172.92 329.99L172.96 330.42C171.86 329.2 170.98 327.43 171.62 325.76C173.06 322.12 178.49 322.47 179.48 326.23C179.96 327.94 178.97 329.67 177.68 330.71L177.78 330.3L184.58 346.66H183.96C185.37 343.45 192.26 327.79 193.53 324.93L194.49 322.76C194.69 322.27 195.26 321.12 195.36 320.68C195.42 320.58 195.01 320.28 194.74 319.96C194.46 319.63 194.24 319.26 194.09 318.85C193.09 316.33 195.36 313.43 198.02 313.62C200.67 313.62 202.8 316.56 201.69 319.04C201.47 319.6 201.02 320.13 200.62 320.54C200.53 320.67 200.56 320.64 200.62 320.8C203.19 326.23 210.13 340.93 212.78 346.55L212.32 346.57L218.6 330.23L218.68 330.5C217.36 329.55 216.4 327.86 216.8 326.19C218.88 319.59 228.16 324.77 223.18 330.04L223.2 329.79L232.84 345.68L232.55 345.63L250.29 330.76L251.4 329.83C251.59 329.67 251.74 329.55 251.7 329.39C251.23 328.27 251.21 326.86 251.92 325.82C253.56 323 258.3 323.73 259.01 326.92C259.54 328.88 258.35 331.19 256.29 331.58C256.05 331.64 255.77 331.65 255.56 331.67C255.34 331.7 255.25 331.79 255.16 332.02C255.01 332.46 254.88 332.94 254.75 333.4C251.71 343.67 246.24 362.16 243.27 372.24L242.45 375.01C242.3 375.46 242.23 375.97 241.9 376.38C241.54 376.84 240.92 376.95 240.39 376.9C213.08 370.58 183.06 370.82 156.41 377.61V377.62ZM156.57 377.15C156.82 377.23 157.11 377.26 157.37 377.23C184.57 370.97 213.18 370.41 240.43 376.72C240.8 376.74 241.49 376.67 241.75 376.26C242.04 375.91 242.12 375.42 242.26 374.96L243.07 372.18C246 362.16 251.47 343.5 254.46 333.31C254.68 332.73 254.7 332.06 255.1 331.55C255.43 331.28 255.86 331.4 256.21 331.29C259.2 330.72 259.73 326.23 257.06 324.85C254.49 323.24 250.91 325.64 251.79 328.63C251.9 328.95 252.17 329.47 251.88 329.8C251.78 329.95 233.28 345.49 232.61 346.06L232.49 345.87L222.82 330L222.74 329.86L222.85 329.74C225.4 327.24 223.95 323.42 220.33 323.54C216.81 323.93 216.1 328.23 218.94 330.12L219.08 330.23L219.02 330.39L212.77 346.74L212.56 347.29L212.31 346.76C209.61 341.07 202.7 326.52 200.09 321.03C200.05 320.93 199.99 320.81 199.99 320.63C199.99 320.43 200.1 320.28 200.17 320.19C201.14 319.3 201.68 317.98 201.27 316.69C199.86 312.37 193.3 314.19 194.65 318.64C194.85 319.17 195.16 319.59 195.59 319.97C195.73 320.11 195.97 320.34 195.96 320.7C195.88 321.28 195.66 321.53 195.52 321.92C193.26 327.05 186.91 341.58 184.57 346.92L184.26 347.64L183.96 346.92L177.13 330.58L177.03 330.33L177.23 330.17C179.98 328.13 179.09 324.25 175.68 323.92C174.26 323.8 172.82 324.71 172.31 326.02C171.8 327.35 172.52 328.83 173.52 329.93L173.7 330.13L173.57 330.37L164.47 346.33L164.24 346.73L163.88 346.44L145.88 331.92L144.75 331.01C144.32 330.66 143.84 330.41 143.98 329.79C144.33 328.85 144.4 327.83 143.9 326.94C142.71 324.46 138.62 324.73 137.84 327.38C137.23 329.23 138.46 331.48 140.48 331.64C140.83 331.7 141 331.61 141.39 331.85C141.74 332.14 141.72 332.39 141.85 332.72C146.01 345.04 152.03 363.77 156.1 375.95C156.24 376.35 156.42 376.59 156.72 376.68L156.56 377.15H156.57Z" fill="#FE40B4"/>
<path d="M141.49 330.79C142.64 331.11 142.86 332.69 143.21 333.63C143.8 335.4 145.41 340.36 146.03 342.21C149.15 351.64 153.22 364.29 156.32 373.68C156.47 374.07 156.91 375.53 157.03 375.84C170.22 372.97 184.92 370.98 198.88 370.96C212.88 370.76 227.5 372.58 240.82 375.51C240.93 375.4 240.96 375.07 241.05 374.85L241.45 373.5C244.7 362.49 250.09 344.22 253.4 333.05L253.81 331.69C253.96 330.93 254.8 330.26 255.62 330.28C257.18 330.26 258.13 328.48 257.6 327.08C257.04 325.42 254.65 324.89 253.44 326.17C252.84 326.76 252.6 327.68 252.87 328.47C253.03 328.88 253.23 329.47 253 330.02C252.79 330.57 252.33 330.89 251.99 331.17L249.84 332.98L232.6 347.43C232.29 347.69 232.42 347.66 232.22 347.37L221.63 329.9L221.53 329.74C222.04 329.25 222.53 328.75 222.85 328.15C223.96 326.46 222.33 324.32 220.43 324.52C218.49 324.6 217.39 327.08 218.67 328.57C219.07 329.11 219.64 329.52 220.23 329.9L220.17 330.06L212.88 349.02L212.74 349.38C211.79 347.9 211.08 346.25 210.33 344.67C209.02 341.88 205.44 334.31 204.07 331.43L199.9 322.6C199.61 321.93 198.94 320.98 199.24 320.2C199.58 319.39 200.37 319.05 200.52 318.17C201.1 315.61 197.61 313.93 195.9 315.93C195.1 316.79 195.01 318.2 195.8 319.09C197.13 320.21 196.84 321.07 196.15 322.48L192.21 331.41L184.35 349.29L184.25 349.52L184.15 349.29L176.22 330.2L176.19 330.14C176.73 329.75 177.26 329.32 177.64 328.78C180.09 325.19 173.94 322.64 172.82 326.68C172.66 328.01 173.62 329.15 174.5 330.06L174.47 330.1L164.5 347.51L164.48 347.55C163.68 347.13 162.99 346.52 162.3 345.96C158.53 342.91 151.69 337.36 147.86 334.27C146.49 333.15 145.1 332.06 143.75 330.91C143.01 330.18 143.75 329.22 143.72 328.37C143.73 326.5 141.58 325.24 139.91 325.95C138.13 326.56 137.66 329.01 138.92 330.34C139.54 331.06 140.46 331.15 141.33 331.27L141.49 330.8V330.79ZM141.33 331.26C140.46 331.13 139.52 331.05 138.92 330.33C137.67 328.99 138.11 326.53 139.91 325.92C141.61 325.2 143.75 326.46 143.76 328.35C143.8 329.2 143.05 330.14 143.79 330.87C145.13 332.01 146.53 333.1 147.9 334.22C150.71 336.49 157.6 342.03 160.3 344.21C161.47 345.17 163.39 346.72 164.44 347.45L174.37 330.02C173.65 329.51 172.48 327.89 172.69 326.64C173.35 323.54 178.03 323.85 178.38 326.97C178.49 328.37 177.4 329.47 176.36 330.21L176.39 330.11L184.36 349.18H184.16L191.99 331.28L195.91 322.34C196.2 321.6 196.72 320.84 196.36 320.15C195.98 319.49 195.13 318.97 195.03 318.11C194.63 316.36 196.22 314.63 197.98 314.73C199.72 314.71 201.27 316.48 200.84 318.23C200.72 319.08 199.87 319.61 199.56 320.29C199.31 320.98 199.92 321.71 200.21 322.45L204.4 331.27C206.89 336.31 210.23 343.97 212.88 348.84L212.53 348.87L219.78 329.9L219.86 330.15C218.73 329.46 217.6 328.31 217.68 326.86C217.75 325.43 218.96 324.16 220.4 324.08C222.63 323.85 224.56 326.36 223.26 328.37C222.93 328.98 222.46 329.49 221.99 329.94L222.02 329.66L232.65 347.11L232.27 347.05L249.48 332.56L251.63 330.75C252 330.44 252.34 330.18 252.47 329.83C252.61 329.49 252.5 329.11 252.33 328.66C251.54 326.54 253.8 324.4 255.89 324.96C258.75 325.49 259.26 329.75 256.42 330.75C255.99 330.92 255.48 330.84 255.07 331.02C254.36 331.28 254.29 332.36 253.98 333.23L247.64 354.81C246.18 359.78 243.54 368.81 242.11 373.7L241.72 375.05C241.61 375.43 241.53 376.04 241.03 376.19C240.82 376.24 240.7 376.24 240.54 376.25C226.89 373.12 212.88 371.63 198.88 371.77C184.88 371.9 170.9 373.65 157.26 376.76C157.07 376.76 156.94 376.76 156.67 376.66C156.41 376.55 156.26 376.3 156.21 376.16C156.09 375.85 156.04 375.66 155.95 375.41L155.48 373.98C152.37 364.61 148.24 351.95 145.12 342.53C144.53 340.69 142.86 335.75 142.28 333.96L141.81 332.53C141.67 332.09 141.5 331.85 141.18 331.75L141.34 331.28L141.33 331.26Z" fill="#FE40B4"/>
<path d="M199.738 318.053C200.067 317.08 199.531 316.02 198.542 315.687C197.552 315.353 196.485 315.872 196.156 316.845C195.828 317.819 196.364 318.878 197.353 319.212C198.342 319.545 199.41 319.026 199.738 318.053Z" fill="#FE40B4"/>
<path d="M222.482 327.668C222.81 326.695 222.274 325.635 221.285 325.302C220.296 324.968 219.228 325.487 218.9 326.461C218.572 327.434 219.107 328.494 220.097 328.827C221.086 329.16 222.154 328.642 222.482 327.668Z" fill="#FE40B4"/>
<path d="M257.046 328.373C257.374 327.399 256.838 326.34 255.849 326.006C254.86 325.673 253.792 326.192 253.464 327.165C253.135 328.139 253.671 329.198 254.66 329.532C255.649 329.865 256.717 329.346 257.046 328.373Z" fill="#FE40B4"/>
<path d="M177.337 327.689C177.666 326.715 177.13 325.656 176.141 325.322C175.152 324.989 174.084 325.508 173.756 326.481C173.427 327.455 173.963 328.514 174.952 328.848C175.941 329.181 177.009 328.662 177.337 327.689Z" fill="#FE40B4"/>
<path d="M142.693 329.062C143.021 328.088 142.485 327.029 141.496 326.696C140.507 326.362 139.439 326.881 139.111 327.854C138.783 328.828 139.319 329.887 140.308 330.221C141.297 330.554 142.365 330.035 142.693 329.062Z" fill="#FE40B4"/>
<path d="M206.944 361.404C208.422 357.018 206.002 352.243 201.538 350.738C197.074 349.233 192.256 351.568 190.778 355.954C189.299 360.339 191.72 365.115 196.184 366.619C200.648 368.124 205.465 365.789 206.944 361.404Z" fill="#00124C"/>
<path d="M203.675 360.301C204.555 357.69 203.113 354.846 200.455 353.95C197.796 353.054 194.927 354.444 194.047 357.056C193.167 359.667 194.608 362.511 197.267 363.407C199.925 364.303 202.794 362.913 203.675 360.301Z" fill="#FDF001"/>
<path d="M201.808 359.672C202.346 358.076 201.463 356.337 199.835 355.788C198.208 355.24 196.452 356.089 195.914 357.685C195.376 359.281 196.259 361.02 197.887 361.569C199.514 362.117 201.27 361.268 201.808 359.672Z" fill="#FE40B4"/>
<path d="M200.207 359.132C200.452 358.405 200.048 357.612 199.305 357.361C198.562 357.111 197.761 357.497 197.515 358.225C197.27 358.952 197.674 359.745 198.417 359.996C199.16 360.246 199.961 359.86 200.207 359.132Z" fill="#00124C"/>
<path d="M141.25 460.07C141.27 460.01 141.28 459.94 141.25 459.93C141.3 459.98 140.71 460.49 140.59 460.77C138.77 463.38 140.4 466.18 141.24 468.9C137.52 467.34 136.1 461.1 140.72 459.77C141.01 459.68 141.69 459.77 141.24 460.07H141.25Z" fill="#00124C"/>
<path d="M252.02 468.53C252 468.59 251.99 468.66 252.02 468.67C251.97 468.62 252.56 468.11 252.68 467.83C254.5 465.22 252.87 462.42 252.03 459.7C255.75 461.26 257.17 467.5 252.55 468.83C252.26 468.92 251.58 468.83 252.03 468.53H252.02Z" fill="#00124C"/>
</g>
<path d="M86.4069 46.3778C70.2722 48.8866 60.0738 60.881 55.2188 82.0384C49.3679 59.1811 38.5039 49.64 21.2389 52.4529C38.9282 49.0974 50.1382 38.4222 52.4282 16.7923C56.6014 41.3536 69.8007 49.427 86.408 46.3778L86.4069 46.3778Z" fill="#FDF001"/>
<path d="M104.999 85.6012C95.5919 86.8353 89.5016 93.6619 86.3885 105.885C83.306 92.5263 77.1271 86.8333 67.0588 88.2284C77.3811 86.524 84.0408 80.4777 85.6704 67.9442C87.7547 82.2701 95.3105 87.1427 105 85.6012L104.999 85.6012Z" fill="#FDF001"/>
<path d="M44.1171 106.201C36.8975 107.148 32.2235 112.387 29.8344 121.768C27.4688 111.515 22.7268 107.146 15 108.217C22.9217 106.909 28.0327 102.269 29.2833 92.6501C30.8829 103.644 36.6815 107.384 44.1176 106.201L44.1171 106.201Z" fill="#FDF001"/>
<path d="M318.234 150.767C330.604 149.117 338.596 140.122 342.657 124.037C346.748 141.599 354.89 149.069 368.129 147.206C354.557 149.477 345.815 157.447 343.706 173.936C340.925 155.1 330.974 148.712 318.234 150.767L318.234 150.767Z" fill="#FDF001"/>
<path d="M304.679 120.488C311.888 119.701 316.655 114.586 319.236 105.298C321.37 115.557 325.996 120.009 333.713 119.11C325.797 120.242 320.608 124.751 319.155 134.3C317.8 123.32 312.108 119.471 304.679 120.488L304.679 120.488Z" fill="#FDF001"/>
<path d="M351.54 105.759C357.072 105.155 360.731 101.229 362.712 94.1014C364.349 101.974 367.9 105.391 373.822 104.701C367.747 105.569 363.765 109.03 362.65 116.359C361.61 107.932 357.241 104.978 351.54 105.759L351.54 105.759Z" fill="#FDF001"/>
<path d="M43.2579 581.616C52.0836 580.44 57.7854 574.021 60.6827 562.545C63.6017 575.075 69.4114 580.405 78.8569 579.076C69.1736 580.696 62.936 586.383 61.4315 598.147C59.4472 584.708 52.3471 580.151 43.2573 581.616L43.2579 581.616Z" fill="#FDF001"/>
<path d="M33.5869 560.013C38.7301 559.452 42.1311 555.802 43.973 549.175C45.4952 556.495 48.7964 559.671 54.3017 559.03C48.6542 559.837 44.952 563.054 43.9152 569.868C42.9486 562.033 38.8871 559.287 33.5865 560.013L33.5869 560.013Z" fill="#FDF001"/>
<path d="M67.021 549.504C70.9681 549.073 73.5782 546.272 74.9917 541.186C76.16 546.804 78.6934 549.242 82.9184 548.749C78.5843 549.369 75.7431 551.838 74.9474 557.067C74.2056 551.054 71.0886 548.947 67.0207 549.504L67.021 549.504Z" fill="#FDF001"/>
<path d="M296.486 469.759C305.013 468.622 310.521 462.421 313.321 451.333C316.141 463.439 321.754 468.589 330.879 467.305C321.524 468.87 315.498 474.364 314.044 485.731C312.127 472.746 305.267 468.343 296.485 469.759L296.486 469.759Z" fill="#FDF001"/>
<path d="M287.142 448.887C292.111 448.345 295.397 444.819 297.176 438.417C298.647 445.488 301.837 448.557 307.155 447.938C301.699 448.717 298.122 451.826 297.121 458.408C296.187 450.839 292.263 448.186 287.142 448.887L287.142 448.887Z" fill="#FDF001"/>
<path d="M319.444 438.734C323.258 438.318 325.779 435.612 327.145 430.698C328.274 436.125 330.722 438.481 334.803 438.005C330.616 438.603 327.871 440.989 327.102 446.041C326.386 440.232 323.374 438.196 319.444 438.734L319.444 438.734Z" fill="#FDF001"/>
<path d="M42.5863 328.232C51.6067 327.029 57.4343 320.469 60.3955 308.739C63.3789 321.546 69.3168 326.994 78.9707 325.635C69.0738 327.291 62.6985 333.103 61.1608 345.127C59.1328 331.392 51.876 326.734 42.5856 328.232L42.5863 328.232Z" fill="#FDF001"/>
<path d="M32.7014 306.152C37.9581 305.578 41.4341 301.848 43.3166 295.075C44.8725 302.556 48.2464 305.802 53.8732 305.147C48.1012 305.972 44.3173 309.26 43.2576 316.224C42.2696 308.216 38.1186 305.41 32.701 306.152L32.7014 306.152Z" fill="#FDF001"/>
<path d="M66.8735 295.411C70.9077 294.97 73.5753 292.108 75.0201 286.91C76.2141 292.651 78.8034 295.142 83.1217 294.639C78.6919 295.272 75.788 297.796 74.9748 303.14C74.2166 296.995 71.0309 294.841 66.8732 295.411L66.8735 295.411Z" fill="#FDF001"/>
<defs>
<linearGradient id="paint0_linear_264_3856" x1="152.74" y1="528.57" x2="200.41" y2="-17.58" gradientUnits="userSpaceOnUse">
<stop stop-color="#00124C"/>
<stop offset="0.36" stop-color="#001559"/>
<stop offset="1" stop-color="#001E7D"/>
</linearGradient>
<linearGradient id="paint1_linear_264_3856" x1="237.454" y1="464.959" x2="262.094" y2="464.959" gradientUnits="userSpaceOnUse">
<stop stop-color="#00124C"/>
<stop offset="0.36" stop-color="#001559"/>
<stop offset="1" stop-color="#001E7D"/>
</linearGradient>
<linearGradient id="paint2_linear_264_3856" x1="131.728" y1="464.947" x2="156.368" y2="464.947" gradientUnits="userSpaceOnUse">
<stop stop-color="#00124C"/>
<stop offset="0.36" stop-color="#001559"/>
<stop offset="1" stop-color="#001E7D"/>
</linearGradient>
<linearGradient id="paint3_linear_264_3856" x1="190.8" y1="356.44" x2="200.15" y2="508.87" gradientUnits="userSpaceOnUse">
<stop stop-color="#FA4E8F"/>
<stop offset="0.04" stop-color="#FA5795"/>
<stop offset="0.18" stop-color="#FC77AA"/>
<stop offset="0.32" stop-color="#FD90BA"/>
<stop offset="0.48" stop-color="#FEA2C6"/>
<stop offset="0.64" stop-color="#FEADCD"/>
<stop offset="0.82" stop-color="#FFB1D0"/>
</linearGradient>
<linearGradient id="paint4_linear_264_3856" x1="189.73" y1="515.33" x2="202.43" y2="369.75" gradientUnits="userSpaceOnUse">
<stop stop-color="#00124C"/>
<stop offset="0.36" stop-color="#001559"/>
<stop offset="1" stop-color="#001E7D"/>
</linearGradient>
<clipPath id="clip0_264_3856">
<rect width="391.14" height="596.01" fill="white" transform="translate(0 -1)"/>
</clipPath>
</defs>
</svg>
