<svg width="364" height="364" viewBox="0 0 364 364" fill="none" xmlns="http://www.w3.org/2000/svg">
<g filter="url(#filter0_d_64_569)">
<path d="M139.383 187L134.807 180.44C134.615 180.461 134.327 180.472 133.943 180.472H128.887V187H124.727V164.6H133.943C135.884 164.6 137.569 164.92 138.999 165.56C140.449 166.2 141.559 167.117 142.327 168.312C143.095 169.507 143.479 170.925 143.479 172.568C143.479 174.253 143.063 175.704 142.231 176.92C141.42 178.136 140.247 179.043 138.711 179.64L143.863 187H139.383ZM139.287 172.568C139.287 171.139 138.817 170.04 137.879 169.272C136.94 168.504 135.564 168.12 133.751 168.12H128.887V177.048H133.751C135.564 177.048 136.94 176.664 137.879 175.896C138.817 175.107 139.287 173.997 139.287 172.568ZM147.749 169.912H151.749V187H147.749V169.912ZM149.765 167.096C149.04 167.096 148.432 166.872 147.941 166.424C147.45 165.955 147.205 165.379 147.205 164.696C147.205 164.013 147.45 163.448 147.941 163C148.432 162.531 149.04 162.296 149.765 162.296C150.49 162.296 151.098 162.52 151.589 162.968C152.08 163.395 152.325 163.939 152.325 164.6C152.325 165.304 152.08 165.901 151.589 166.392C151.12 166.861 150.512 167.096 149.765 167.096ZM162.279 187.224C160.892 187.224 159.538 187.043 158.215 186.68C156.892 186.317 155.836 185.859 155.047 185.304L156.583 182.264C157.351 182.776 158.268 183.192 159.335 183.512C160.423 183.811 161.49 183.96 162.535 183.96C164.924 183.96 166.119 183.331 166.119 182.072C166.119 181.475 165.81 181.059 165.191 180.824C164.594 180.589 163.623 180.365 162.279 180.152C160.871 179.939 159.719 179.693 158.823 179.416C157.948 179.139 157.18 178.659 156.519 177.976C155.879 177.272 155.559 176.301 155.559 175.064C155.559 173.443 156.231 172.152 157.575 171.192C158.94 170.211 160.775 169.72 163.079 169.72C164.252 169.72 165.426 169.859 166.599 170.136C167.772 170.392 168.732 170.744 169.479 171.192L167.943 174.232C166.492 173.379 164.86 172.952 163.047 172.952C161.874 172.952 160.978 173.133 160.359 173.496C159.762 173.837 159.463 174.296 159.463 174.872C159.463 175.512 159.783 175.971 160.423 176.248C161.084 176.504 162.098 176.749 163.463 176.984C164.828 177.197 165.948 177.443 166.823 177.72C167.698 177.997 168.444 178.467 169.063 179.128C169.703 179.789 170.023 180.728 170.023 181.944C170.023 183.544 169.33 184.824 167.943 185.784C166.556 186.744 164.668 187.224 162.279 187.224ZM181.308 187.224C179.537 187.224 177.948 186.851 176.54 186.104C175.132 185.357 174.033 184.323 173.244 183C172.454 181.656 172.06 180.141 172.06 178.456C172.06 176.771 172.454 175.267 173.244 173.944C174.033 172.621 175.121 171.587 176.508 170.84C177.916 170.093 179.516 169.72 181.308 169.72C182.993 169.72 184.465 170.061 185.724 170.744C187.004 171.427 187.964 172.408 188.604 173.688L185.532 175.48C185.041 174.691 184.422 174.104 183.676 173.72C182.95 173.315 182.15 173.112 181.276 173.112C179.782 173.112 178.545 173.603 177.564 174.584C176.582 175.544 176.092 176.835 176.092 178.456C176.092 180.077 176.572 181.379 177.532 182.36C178.513 183.32 179.761 183.8 181.276 183.8C182.15 183.8 182.95 183.608 183.676 183.224C184.422 182.819 185.041 182.221 185.532 181.432L188.604 183.224C187.942 184.504 186.972 185.496 185.692 186.2C184.433 186.883 182.972 187.224 181.308 187.224ZM199.492 187.224C197.764 187.224 196.206 186.851 194.82 186.104C193.433 185.357 192.345 184.323 191.556 183C190.788 181.656 190.404 180.141 190.404 178.456C190.404 176.771 190.788 175.267 191.556 173.944C192.345 172.621 193.433 171.587 194.82 170.84C196.206 170.093 197.764 169.72 199.492 169.72C201.241 169.72 202.809 170.093 204.196 170.84C205.582 171.587 206.66 172.621 207.428 173.944C208.217 175.267 208.612 176.771 208.612 178.456C208.612 180.141 208.217 181.656 207.428 183C206.66 184.323 205.582 185.357 204.196 186.104C202.809 186.851 201.241 187.224 199.492 187.224ZM199.492 183.8C200.964 183.8 202.18 183.309 203.14 182.328C204.1 181.347 204.58 180.056 204.58 178.456C204.58 176.856 204.1 175.565 203.14 174.584C202.18 173.603 200.964 173.112 199.492 173.112C198.02 173.112 196.804 173.603 195.844 174.584C194.905 175.565 194.436 176.856 194.436 178.456C194.436 180.056 194.905 181.347 195.844 182.328C196.804 183.309 198.02 183.8 199.492 183.8ZM217.717 187.224C216.33 187.224 214.975 187.043 213.653 186.68C212.33 186.317 211.274 185.859 210.485 185.304L212.021 182.264C212.789 182.776 213.706 183.192 214.773 183.512C215.861 183.811 216.927 183.96 217.973 183.96C220.362 183.96 221.557 183.331 221.557 182.072C221.557 181.475 221.247 181.059 220.629 180.824C220.031 180.589 219.061 180.365 217.717 180.152C216.309 179.939 215.157 179.693 214.261 179.416C213.386 179.139 212.618 178.659 211.957 177.976C211.317 177.272 210.997 176.301 210.997 175.064C210.997 173.443 211.669 172.152 213.013 171.192C214.378 170.211 216.213 169.72 218.517 169.72C219.69 169.72 220.863 169.859 222.037 170.136C223.21 170.392 224.17 170.744 224.917 171.192L223.381 174.232C221.93 173.379 220.298 172.952 218.485 172.952C217.311 172.952 216.415 173.133 215.797 173.496C215.199 173.837 214.901 174.296 214.901 174.872C214.901 175.512 215.221 175.971 215.861 176.248C216.522 176.504 217.535 176.749 218.901 176.984C220.266 177.197 221.386 177.443 222.261 177.72C223.135 177.997 223.882 178.467 224.501 179.128C225.141 179.789 225.461 180.728 225.461 181.944C225.461 183.544 224.767 184.824 223.381 185.784C221.994 186.744 220.106 187.224 217.717 187.224Z" fill="#FE40B4"/>
<path d="M139.383 187L134.807 180.44C134.615 180.461 134.327 180.472 133.943 180.472H128.887V187H124.727V164.6H133.943C135.884 164.6 137.569 164.92 138.999 165.56C140.449 166.2 141.559 167.117 142.327 168.312C143.095 169.507 143.479 170.925 143.479 172.568C143.479 174.253 143.063 175.704 142.231 176.92C141.42 178.136 140.247 179.043 138.711 179.64L143.863 187H139.383ZM139.287 172.568C139.287 171.139 138.817 170.04 137.879 169.272C136.94 168.504 135.564 168.12 133.751 168.12H128.887V177.048H133.751C135.564 177.048 136.94 176.664 137.879 175.896C138.817 175.107 139.287 173.997 139.287 172.568ZM147.749 169.912H151.749V187H147.749V169.912ZM149.765 167.096C149.04 167.096 148.432 166.872 147.941 166.424C147.45 165.955 147.205 165.379 147.205 164.696C147.205 164.013 147.45 163.448 147.941 163C148.432 162.531 149.04 162.296 149.765 162.296C150.49 162.296 151.098 162.52 151.589 162.968C152.08 163.395 152.325 163.939 152.325 164.6C152.325 165.304 152.08 165.901 151.589 166.392C151.12 166.861 150.512 167.096 149.765 167.096ZM162.279 187.224C160.892 187.224 159.538 187.043 158.215 186.68C156.892 186.317 155.836 185.859 155.047 185.304L156.583 182.264C157.351 182.776 158.268 183.192 159.335 183.512C160.423 183.811 161.49 183.96 162.535 183.96C164.924 183.96 166.119 183.331 166.119 182.072C166.119 181.475 165.81 181.059 165.191 180.824C164.594 180.589 163.623 180.365 162.279 180.152C160.871 179.939 159.719 179.693 158.823 179.416C157.948 179.139 157.18 178.659 156.519 177.976C155.879 177.272 155.559 176.301 155.559 175.064C155.559 173.443 156.231 172.152 157.575 171.192C158.94 170.211 160.775 169.72 163.079 169.72C164.252 169.72 165.426 169.859 166.599 170.136C167.772 170.392 168.732 170.744 169.479 171.192L167.943 174.232C166.492 173.379 164.86 172.952 163.047 172.952C161.874 172.952 160.978 173.133 160.359 173.496C159.762 173.837 159.463 174.296 159.463 174.872C159.463 175.512 159.783 175.971 160.423 176.248C161.084 176.504 162.098 176.749 163.463 176.984C164.828 177.197 165.948 177.443 166.823 177.72C167.698 177.997 168.444 178.467 169.063 179.128C169.703 179.789 170.023 180.728 170.023 181.944C170.023 183.544 169.33 184.824 167.943 185.784C166.556 186.744 164.668 187.224 162.279 187.224ZM181.308 187.224C179.537 187.224 177.948 186.851 176.54 186.104C175.132 185.357 174.033 184.323 173.244 183C172.454 181.656 172.06 180.141 172.06 178.456C172.06 176.771 172.454 175.267 173.244 173.944C174.033 172.621 175.121 171.587 176.508 170.84C177.916 170.093 179.516 169.72 181.308 169.72C182.993 169.72 184.465 170.061 185.724 170.744C187.004 171.427 187.964 172.408 188.604 173.688L185.532 175.48C185.041 174.691 184.422 174.104 183.676 173.72C182.95 173.315 182.15 173.112 181.276 173.112C179.782 173.112 178.545 173.603 177.564 174.584C176.582 175.544 176.092 176.835 176.092 178.456C176.092 180.077 176.572 181.379 177.532 182.36C178.513 183.32 179.761 183.8 181.276 183.8C182.15 183.8 182.95 183.608 183.676 183.224C184.422 182.819 185.041 182.221 185.532 181.432L188.604 183.224C187.942 184.504 186.972 185.496 185.692 186.2C184.433 186.883 182.972 187.224 181.308 187.224ZM199.492 187.224C197.764 187.224 196.206 186.851 194.82 186.104C193.433 185.357 192.345 184.323 191.556 183C190.788 181.656 190.404 180.141 190.404 178.456C190.404 176.771 190.788 175.267 191.556 173.944C192.345 172.621 193.433 171.587 194.82 170.84C196.206 170.093 197.764 169.72 199.492 169.72C201.241 169.72 202.809 170.093 204.196 170.84C205.582 171.587 206.66 172.621 207.428 173.944C208.217 175.267 208.612 176.771 208.612 178.456C208.612 180.141 208.217 181.656 207.428 183C206.66 184.323 205.582 185.357 204.196 186.104C202.809 186.851 201.241 187.224 199.492 187.224ZM199.492 183.8C200.964 183.8 202.18 183.309 203.14 182.328C204.1 181.347 204.58 180.056 204.58 178.456C204.58 176.856 204.1 175.565 203.14 174.584C202.18 173.603 200.964 173.112 199.492 173.112C198.02 173.112 196.804 173.603 195.844 174.584C194.905 175.565 194.436 176.856 194.436 178.456C194.436 180.056 194.905 181.347 195.844 182.328C196.804 183.309 198.02 183.8 199.492 183.8ZM217.717 187.224C216.33 187.224 214.975 187.043 213.653 186.68C212.33 186.317 211.274 185.859 210.485 185.304L212.021 182.264C212.789 182.776 213.706 183.192 214.773 183.512C215.861 183.811 216.927 183.96 217.973 183.96C220.362 183.96 221.557 183.331 221.557 182.072C221.557 181.475 221.247 181.059 220.629 180.824C220.031 180.589 219.061 180.365 217.717 180.152C216.309 179.939 215.157 179.693 214.261 179.416C213.386 179.139 212.618 178.659 211.957 177.976C211.317 177.272 210.997 176.301 210.997 175.064C210.997 173.443 211.669 172.152 213.013 171.192C214.378 170.211 216.213 169.72 218.517 169.72C219.69 169.72 220.863 169.859 222.037 170.136C223.21 170.392 224.17 170.744 224.917 171.192L223.381 174.232C221.93 173.379 220.298 172.952 218.485 172.952C217.311 172.952 216.415 173.133 215.797 173.496C215.199 173.837 214.901 174.296 214.901 174.872C214.901 175.512 215.221 175.971 215.861 176.248C216.522 176.504 217.535 176.749 218.901 176.984C220.266 177.197 221.386 177.443 222.261 177.72C223.135 177.997 223.882 178.467 224.501 179.128C225.141 179.789 225.461 180.728 225.461 181.944C225.461 183.544 224.767 184.824 223.381 185.784C221.994 186.744 220.106 187.224 217.717 187.224Z" fill="black" fill-opacity="0.2"/>
<path d="M290.759 3.75162L2 58L56.2484 346.759L345.007 292.51L290.759 3.75162Z" fill="#FFC2C7"/>
<path d="M320.818 29H27V322.818H320.818V29Z" fill="#FDF001"/>
</g>
<defs>
<filter id="filter0_d_64_569" x="0" y="0.751617" width="363.007" height="363.007" filterUnits="userSpaceOnUse" color-interpolation-filters="sRGB">
<feFlood flood-opacity="0" result="BackgroundImageFix"/>
<feColorMatrix in="SourceAlpha" type="matrix" values="0 0 0 0 0 0 0 0 0 0 0 0 0 0 0 0 0 0 127 0" result="hardAlpha"/>
<feOffset dx="8" dy="7"/>
<feGaussianBlur stdDeviation="5"/>
<feComposite in2="hardAlpha" operator="out"/>
<feColorMatrix type="matrix" values="0 0 0 0 0 0 0 0 0 0 0 0 0 0 0 0 0 0 0.25 0"/>
<feBlend mode="normal" in2="BackgroundImageFix" result="effect1_dropShadow_64_569"/>
<feBlend mode="normal" in="SourceGraphic" in2="effect1_dropShadow_64_569" result="shape"/>
</filter>
</defs>
</svg>
