<svg width="390" height="600" viewBox="0 0 390 600" fill="none" xmlns="http://www.w3.org/2000/svg">
<g clip-path="url(#clip0_627_2710)">
<path d="M373.696 89.6885C371.497 78.2487 369.428 67.4488 368.828 57.589C365.829 8.37984 389.21 0.289978 389.45 0.20998L389.27 -1C389.021 -0.920001 383.073 1.04997 377.435 9.29983C368.028 23.0496 367.108 43.2093 367.988 57.699C368.598 67.6688 370.677 78.5187 372.886 90.0185C377.065 111.778 381.693 135.888 378.924 163.787C376.375 137.848 367.528 115.118 359.721 87.7285C342.407 27.0195 371.127 -0.39001 371.127 -0.39001H-0.420044C9.19651 64.5589 32.1883 74.3787 50.0219 91.7784C56.0197 104.378 59.7284 118.268 58.229 135.838C56.2497 159.017 43.9141 180.847 31.9784 201.967C28.2097 208.646 24.491 215.226 21.1322 221.756C4.7481 247.196 -4.41861 274.375 17.2136 305.135C18.1433 307.335 19.053 309.385 19.9427 311.355C27.5499 328.394 33.048 340.714 26.3704 403.383C22.3918 440.753 27.6599 471.452 41.6049 492.172C51.8412 507.371 66.536 516.851 83.7998 519.901C102.533 527.811 124.855 524.511 144.708 516.441C176.287 503.602 209.615 504.381 241.303 516.611C254.479 521.691 269.953 526.081 285.757 523.181C307.67 520.851 330.441 503.771 344.327 478.032C355.842 456.692 366.639 419.853 352.714 365.514C345.036 335.534 343.157 311.955 344.576 292.145C345.346 290.375 346.176 288.625 347.086 286.885C374.476 234.196 381.393 198.747 379.274 168.207C383.013 138.258 378.104 112.668 373.686 89.6785L373.696 89.6885ZM32.6381 202.757C44.6438 181.507 57.0594 159.537 59.0686 135.998C60.4981 119.238 57.3093 105.818 51.9312 93.6984C59.0886 101.108 65.2764 110.178 69.185 125.258C76.8423 154.767 47.9127 183.257 26.2704 214.126C28.3297 210.366 30.4689 206.576 32.6281 202.757H32.6381ZM42.2147 491.312C28.4596 470.882 23.2815 440.553 27.2101 403.583C33.9277 340.444 28.3596 327.964 20.6524 310.695C20.3225 309.965 19.9926 309.225 19.6628 308.475C19.8927 308.775 20.1226 309.075 20.3525 309.375C60.3782 360.174 16.4939 443.982 62.0476 502.921C67.0758 509.431 72.8537 514.241 79.1115 517.661C64.1168 513.851 51.3514 504.901 42.2147 491.322V491.312ZM351.924 365.954C365.709 419.753 355.043 456.182 343.667 477.272C333.031 496.992 317.116 511.571 300.412 518.221C305.131 515.831 309.819 512.611 314.427 508.381C379.614 448.662 316.636 361.984 343.537 294.635C342.457 314.055 344.516 337.044 351.924 365.944V365.954Z" fill="url(#paint0_linear_627_2710)"/>
<path d="M29.639 595H363.28C363.28 595 340.718 523.911 261.606 538.961C261.606 538.961 194.49 570.86 124.415 538.961C124.415 538.961 64.7665 525.401 29.649 595H29.639Z" fill="#00124C"/>
<path d="M260.402 467.758C261.943 461.272 257.937 454.765 251.454 453.224C244.971 451.683 238.466 455.69 236.925 462.176C235.384 468.661 239.391 475.168 245.874 476.709C252.357 478.251 258.861 474.243 260.402 467.758Z" fill="#FDF001" stroke="url(#paint1_linear_627_2710)" stroke-width="0.5" stroke-miterlimit="10"/>
<path d="M248.66 475.302C249.09 475.442 249.35 475.592 249.42 476.042L249.7 476.932C249.79 477.222 250.04 477.982 250.13 478.262C250.03 478.452 249.94 478.652 249.8 478.862C249.56 478.772 249.38 478.672 249.19 478.572C249.1 478.292 248.86 477.532 248.76 477.242L248.481 476.352C248.271 475.952 248.391 475.672 248.67 475.312L248.66 475.302Z" fill="#FE40B4"/>
<path d="M251.649 474.592C252.139 474.742 252.419 474.952 252.529 475.432L252.959 476.462C253.099 476.802 253.469 477.682 253.599 478.012C253.529 478.242 253.469 478.472 253.359 478.712C253.109 478.612 252.899 478.502 252.689 478.382C252.549 478.062 252.189 477.172 252.049 476.832L251.619 475.802C251.36 475.382 251.41 475.032 251.649 474.582V474.592Z" fill="#FE40B4"/>
<path d="M254.349 473.742C254.778 473.752 255.068 473.802 255.228 474.202L255.688 474.932C255.838 475.172 256.238 475.792 256.378 476.022C256.328 476.222 256.278 476.422 256.188 476.652C255.948 476.632 255.748 476.592 255.538 476.552C255.388 476.322 254.998 475.692 254.848 475.462L254.388 474.732C254.099 474.412 254.169 474.132 254.349 473.742Z" fill="#FE40B4"/>
<path d="M151.518 473.472C156.23 468.758 156.23 461.116 151.518 456.402C146.806 451.689 139.167 451.689 134.455 456.402C129.743 461.116 129.743 468.758 134.455 473.472C139.167 478.185 146.806 478.185 151.518 473.472Z" fill="#FDF001" stroke="url(#paint2_linear_627_2710)" stroke-width="0.5" stroke-miterlimit="10"/>
<path d="M135.721 472.462C135.781 472.972 135.701 473.322 135.301 473.632L134.521 474.462C134.261 474.732 133.602 475.442 133.352 475.712C133.112 475.752 132.872 475.792 132.602 475.792C132.592 475.522 132.602 475.282 132.632 475.042C132.872 474.782 133.542 474.062 133.802 473.792L134.581 472.962C134.861 472.552 135.211 472.442 135.721 472.472V472.462Z" fill="#FE40B4"/>
<path d="M134.971 477.012C134.891 476.472 134.981 476.102 135.371 475.752L136.151 474.802C136.411 474.492 137.07 473.682 137.32 473.372C137.57 473.312 137.81 473.242 138.09 473.212C138.11 473.492 138.09 473.742 138.09 474.002C137.85 474.302 137.18 475.112 136.92 475.432L136.141 476.382C135.871 476.832 135.521 476.992 134.981 477.022L134.971 477.012Z" fill="#FE40B4"/>
<path d="M138.3 478.152C138.03 477.732 137.95 477.412 138.18 476.982L138.53 475.972C138.65 475.642 138.94 474.782 139.05 474.462C139.25 474.342 139.45 474.222 139.689 474.122C139.819 474.352 139.899 474.572 139.979 474.792C139.869 475.112 139.569 475.972 139.46 476.302L139.11 477.312C139.03 477.782 138.76 477.992 138.29 478.162L138.3 478.152Z" fill="#FE40B4"/>
<path d="M263.605 538.971C263.605 538.971 257.497 555.661 241.083 568.8C230.447 577.33 215.452 584.35 195.01 584.35C174.567 584.35 159.572 577.33 148.926 568.8C132.512 555.661 126.414 538.971 126.414 538.971C144.428 539.621 156.733 531.671 165.03 521.771C165.69 520.971 166.34 520.161 166.95 519.341C178.236 504.401 181.175 486.392 181.175 486.392H208.835C208.835 486.392 211.774 504.401 223.06 519.341C223.659 520.161 224.309 520.971 224.979 521.771C233.286 531.671 245.592 539.621 263.605 538.971Z" fill="#3E4BF6"/>
<path d="M263.605 538.971C263.605 538.971 257.497 555.661 241.083 568.8C230.447 577.33 215.452 584.35 195.01 584.35C174.567 584.35 159.572 577.33 148.926 568.8C132.512 555.661 126.414 538.971 126.414 538.971C144.428 539.621 156.733 531.671 165.03 521.771C165.69 520.971 166.34 520.161 166.95 519.341C178.236 504.401 181.175 486.392 181.175 486.392H208.835C208.835 486.392 211.774 504.401 223.06 519.341C223.659 520.161 224.309 520.971 224.979 521.771C233.286 531.671 245.592 539.621 263.605 538.971Z" fill="#00124C"/>
<path d="M223.07 519.341C214.963 524.511 205.336 527.501 195.02 527.501C184.703 527.501 175.067 524.501 166.96 519.341C178.246 504.401 181.185 486.392 181.185 486.392H208.845C208.845 486.392 211.784 504.401 223.07 519.341Z" fill="#001E7D"/>
<path d="M247.281 422.193C247.281 393.309 223.876 369.894 195.005 369.894C166.133 369.894 142.728 393.309 142.728 422.193V462.872C142.728 491.756 166.133 515.171 195.005 515.171C223.876 515.171 247.281 491.756 247.281 462.872V422.193Z" fill="url(#paint3_linear_627_2710)"/>
<path d="M247.281 422.193C247.281 393.309 223.876 369.894 195.005 369.894C166.133 369.894 142.728 393.309 142.728 422.193V462.872C142.728 491.756 166.133 515.171 195.005 515.171C223.876 515.171 247.281 491.756 247.281 462.872V422.193Z" fill="#FDF001" stroke="url(#paint4_linear_627_2710)" stroke-miterlimit="10"/>
<path d="M168.426 480.909C171.994 477.34 171.994 471.553 168.426 467.983C164.858 464.414 159.073 464.414 155.504 467.983C151.936 471.553 151.936 477.34 155.504 480.909C159.073 484.478 164.858 484.478 168.426 480.909Z" fill="#FE40B4"/>
<path d="M236.977 481.369C240.596 477.851 240.679 472.065 237.162 468.445C233.645 464.825 227.861 464.742 224.242 468.26C220.623 471.778 220.541 477.564 224.057 481.184C227.574 484.804 233.358 484.887 236.977 481.369Z" fill="#FE40B4"/>
<path d="M196.009 414.043C198.528 425.933 200.988 439.013 203.397 450.842C204.286 454.972 204.886 459.152 205.336 463.352C205.426 464.102 204.786 464.772 204.026 464.722C202.107 464.612 200.188 464.472 198.269 464.292C196.349 464.102 194.43 463.882 192.511 463.562C192.351 463.532 192.351 463.292 192.511 463.262C196.329 462.642 200.168 462.332 204.026 462.102L202.737 463.622C200.818 455.492 200.148 447.152 198.938 438.903C197.929 431.703 196.619 421.403 195.719 414.083C195.689 413.913 195.979 413.843 196.009 414.033V414.043Z" fill="#00124C"/>
<path d="M198.269 499.402C200.792 499.402 202.837 496.2 202.837 492.252C202.837 488.303 200.792 485.102 198.269 485.102C195.746 485.102 193.7 488.303 193.7 492.252C193.7 496.2 195.746 499.402 198.269 499.402Z" fill="#FF9FDA"/>
<path d="M181.555 487.292C192.611 493.362 203.977 493.492 214.993 487.292C215.063 487.242 215.183 487.242 215.232 487.332C215.262 487.392 215.252 487.452 215.212 487.502C208.795 494.642 197.769 496.882 189.042 492.932C186.113 491.712 183.544 489.762 181.345 487.502C181.225 487.362 181.395 487.172 181.555 487.292Z" fill="#00124C"/>
<path d="M179.955 489.712C179.835 487.592 180.985 485.582 182.844 484.582C182.884 484.552 182.954 484.572 182.934 484.632C182.254 485.932 180.805 488.502 180.045 489.762C180.015 489.812 179.945 489.762 179.955 489.712Z" fill="#00124C"/>
<path d="M214.013 485.662C215.742 486.222 216.832 487.912 216.662 489.712C216.662 489.762 216.622 489.812 216.582 489.762C215.882 488.782 214.553 486.742 213.933 485.712C213.903 485.662 213.973 485.632 214.013 485.662Z" fill="#00124C"/>
<path d="M180.445 442.323C180.445 442.323 180.465 442.303 180.465 442.293C180.455 442.293 180.445 442.293 180.435 442.313C174.637 434.353 160.942 434.293 155.174 442.313C155.164 442.313 155.154 442.313 155.144 442.303C155.144 442.303 155.164 442.323 155.164 442.333C155.164 442.333 155.144 442.353 155.144 442.363C155.154 442.363 155.164 442.363 155.174 442.343C160.972 450.302 174.667 450.362 180.435 442.343C180.445 442.343 180.455 442.343 180.465 442.353C180.465 442.353 180.445 442.333 180.445 442.323ZM155.204 442.323C163.271 438.283 172.338 438.313 180.415 442.323C172.348 446.362 163.281 446.332 155.204 442.323Z" fill="#00124C" stroke="url(#paint5_linear_627_2710)" stroke-miterlimit="10"/>
<path d="M167.56 439.303C165.89 439.303 164.541 440.653 164.541 442.323C164.541 443.993 165.89 445.342 167.56 445.342C169.229 445.342 170.578 443.993 170.578 442.323C170.578 440.653 169.229 439.303 167.56 439.303ZM167.07 442.533C166.53 442.533 166.09 442.093 166.09 441.553C166.09 441.013 166.53 440.573 167.07 440.573C167.61 440.573 168.049 441.013 168.049 441.553C168.049 442.093 167.61 442.533 167.07 442.533ZM168.239 443.823C167.999 443.823 167.809 443.633 167.809 443.393C167.809 443.153 167.999 442.963 168.239 442.963C168.479 442.963 168.669 443.153 168.669 443.393C168.669 443.633 168.479 443.823 168.239 443.823Z" fill="#00124C"/>
<path d="M233.376 442.293C233.376 442.293 233.396 442.273 233.396 442.263C233.386 442.263 233.376 442.263 233.366 442.283C227.568 434.323 213.873 434.263 208.105 442.283C208.095 442.283 208.085 442.283 208.075 442.273C208.075 442.273 208.095 442.293 208.095 442.303C208.095 442.303 208.075 442.323 208.075 442.333C208.085 442.333 208.095 442.333 208.105 442.313C213.903 450.272 227.598 450.332 233.366 442.313C233.376 442.313 233.386 442.313 233.396 442.323C233.396 442.323 233.376 442.303 233.376 442.293ZM208.135 442.293C216.202 438.253 225.269 438.283 233.346 442.293C225.279 446.332 216.212 446.302 208.135 442.293Z" fill="#00124C" stroke="url(#paint6_linear_627_2710)" stroke-miterlimit="10"/>
<path d="M220.501 439.273C218.831 439.273 217.482 440.623 217.482 442.293C217.482 443.963 218.831 445.312 220.501 445.312C222.17 445.312 223.52 443.963 223.52 442.293C223.52 440.623 222.17 439.273 220.501 439.273ZM220.011 442.503C219.471 442.503 219.031 442.063 219.031 441.523C219.031 440.983 219.471 440.543 220.011 440.543C220.551 440.543 220.99 440.983 220.99 441.523C220.99 442.063 220.551 442.503 220.011 442.503ZM221.18 443.793C220.94 443.793 220.751 443.603 220.751 443.363C220.751 443.123 220.94 442.933 221.18 442.933C221.42 442.933 221.61 443.123 221.61 443.363C221.61 443.603 221.42 443.793 221.18 443.793Z" fill="#00124C"/>
<path d="M165.15 532.971C160.322 534.431 165.59 540.251 166.54 553.481C159.712 545.981 152.745 539.541 147.207 535.301C144.648 536.391 141.909 537.281 138.98 537.911C142.928 544.061 149.886 551.961 151.585 556.431C151.085 555.871 133.302 535.921 128.004 540.371C124.405 543.391 141.019 557.981 145.438 567.13C145.438 567.13 125.545 545.031 121.886 548.171C117.498 551.941 134.242 567.8 138.73 575.74C137.8 574.55 122.786 555.281 118.237 555.531C113.989 555.761 122.726 573.55 140.469 594.99H194.14C181.575 565.68 170.419 531.371 165.15 532.961V532.971Z" fill="#00124C"/>
<path d="M255.908 595C273.742 576 282.848 560.221 278.8 559.691C274.281 559.091 257.857 577.18 256.848 578.3C261.926 570.72 279.809 556.161 275.721 552.071C272.312 548.661 250.81 569.2 250.81 569.2C255.908 560.411 273.582 547.111 270.213 543.831C265.265 539.001 246.031 557.551 245.492 558.071C247.701 553.351 256.488 545.011 260.586 538.981C257.057 538.921 253.759 538.511 250.68 537.831C244.962 541.651 237.854 547.341 230.797 554.001C232.736 540.881 238.434 535.471 233.726 533.651C228.488 531.631 214.333 566.38 199.268 595H255.908Z" fill="#00124C"/>
<path d="M195.469 587.96L195.489 587.99C182.374 558.051 170.608 521.191 165.15 522.841C160.322 524.301 165.59 530.121 166.54 543.351C152.425 527.861 137.68 516.841 136.341 520.531C134.651 525.171 149.046 539.611 151.585 546.301C151.085 545.741 133.302 525.791 128.004 530.241C124.405 533.261 141.019 547.851 145.437 557.001C145.437 557.001 125.545 534.901 121.886 538.041C117.497 541.811 134.241 557.671 138.73 565.61C137.8 564.42 122.786 545.151 118.237 545.401C113.539 545.661 124.715 567.38 146.397 591.77C147.267 592.75 148.076 593.84 148.856 595H194.09C194.86 593.4 195.649 591.8 196.449 590.23C196.119 589.47 195.799 588.71 195.459 587.95L195.469 587.96Z" fill="#FDF001"/>
<path d="M195.469 587.96L195.489 587.99C182.374 558.051 170.608 521.191 165.15 522.841C160.322 524.301 165.59 530.121 166.54 543.351C152.425 527.861 137.68 516.841 136.341 520.531C134.651 525.171 149.046 539.611 151.585 546.301C151.085 545.741 133.302 525.791 128.004 530.241C124.405 533.261 141.019 547.851 145.437 557.001C145.437 557.001 125.545 534.901 121.886 538.041C117.497 541.811 134.241 557.671 138.73 565.61C137.8 564.42 122.786 545.151 118.237 545.401C113.539 545.661 124.715 567.38 146.397 591.77C147.267 592.75 148.076 593.84 148.856 595H194.09C194.86 593.4 195.649 591.8 196.449 590.23C196.119 589.47 195.799 588.71 195.459 587.95L195.469 587.96Z" fill="#FDF001"/>
<path d="M278.8 549.551C274.281 548.951 257.857 567.04 256.848 568.16C261.926 560.581 279.809 546.021 275.721 541.931C272.312 538.521 250.81 559.061 250.81 559.061C255.908 550.271 273.582 536.971 270.213 533.691C265.264 528.861 246.031 547.411 245.492 547.931C248.53 541.441 263.965 528.131 262.635 523.381C261.566 519.601 246.041 529.471 230.797 543.861C232.736 530.741 238.434 525.331 233.726 523.511C228.408 521.451 213.893 557.331 198.568 586.19L198.588 586.16C197.869 587.5 197.159 588.86 196.459 590.23C195.649 591.81 194.87 593.4 194.1 595H245.951C246.371 594.54 246.801 594.09 247.231 593.66C270.693 570.97 283.468 550.151 278.8 549.541V549.551Z" fill="#FDF001"/>
<path d="M278.8 549.551C274.281 548.951 257.857 567.04 256.848 568.16C261.926 560.581 279.809 546.021 275.721 541.931C272.312 538.521 250.81 559.061 250.81 559.061C255.908 550.271 273.582 536.971 270.213 533.691C265.264 528.861 246.031 547.411 245.492 547.931C248.53 541.441 263.965 528.131 262.635 523.381C261.566 519.601 246.041 529.471 230.797 543.861C232.736 530.741 238.434 525.331 233.726 523.511C228.408 521.451 213.893 557.331 198.568 586.19L198.588 586.16C197.869 587.5 197.159 588.86 196.459 590.23C195.649 591.81 194.87 593.4 194.1 595H245.951C246.371 594.54 246.801 594.09 247.231 593.66C270.693 570.97 283.468 550.151 278.8 549.541V549.551Z" fill="#FDF001"/>
<path d="M142.728 374.144V438.363H148.196V439.063C148.316 439.063 160.612 438.953 169.129 429.093C176.156 420.963 178.676 408.733 176.646 392.723C184.963 417.013 205.776 434.973 231.117 439.583L247.281 442.523V374.134H142.728V374.144Z" fill="#FFF983"/>
<path d="M133.202 359.534C117.008 380.884 121.386 408.023 133.202 437.253H139.82V438.103C139.969 438.103 154.834 437.963 165.15 426.043C173.657 416.203 176.696 401.403 174.247 382.034C184.314 411.423 209.495 433.163 240.174 438.743L259.737 442.293C272.872 413.033 274.701 385.214 259.737 359.534C182.174 317.645 182.314 330.504 133.212 359.534H133.202ZM164.511 425.473C156.384 434.883 145.338 436.773 141.339 437.153C147.847 434.683 173.058 422.603 173.547 383.344C175.697 401.863 172.668 416.033 164.501 425.473H164.511Z" fill="#00124C"/>
<path d="M204.135 399.126C204.38 398.399 203.976 397.606 203.233 397.355C202.49 397.105 201.69 397.491 201.444 398.219C201.199 398.946 201.603 399.739 202.346 399.99C203.088 400.24 203.889 399.854 204.135 399.126Z" fill="#00124C"/>
<path d="M296.563 375.876C291.57 375.876 287.509 379.872 287.461 384.819L245.619 385.031L278.785 357.677C280.443 359.415 282.791 360.504 285.394 360.504C290.424 360.504 294.502 356.454 294.502 351.459C294.502 346.464 290.424 342.414 285.394 342.414C280.364 342.414 276.285 346.464 276.285 351.459C276.285 352.494 276.462 353.487 276.785 354.414L236.431 369.235L257.587 333.278C258.739 333.804 260.025 334.101 261.379 334.101C266.409 334.101 270.487 330.051 270.487 325.056C270.487 320.061 266.409 316.011 261.379 316.011C256.349 316.011 252.27 320.061 252.27 325.056C252.27 327.181 253.008 329.13 254.24 330.674L222.36 357.513L230.017 315.659C230.566 315.762 231.127 315.817 231.7 315.817C236.73 315.817 240.808 311.767 240.808 306.772C240.808 301.777 236.73 297.726 231.7 297.726C226.67 297.726 222.591 301.777 222.591 306.772C222.591 309.817 224.109 312.511 226.432 314.152L205.1 351.277L197.802 308.897C201.929 308.037 205.027 304.398 205.027 300.045C205.027 295.05 200.948 291 195.918 291C190.888 291 186.81 295.05 186.81 300.045C186.81 304.398 189.907 308.031 194.034 308.897L186.736 351.277L165.599 314.485C168.001 312.856 169.574 310.12 169.574 307.014C169.574 302.019 165.495 297.969 160.466 297.969C155.436 297.969 151.357 302.019 151.357 307.014C151.357 312.009 155.436 316.059 160.466 316.059C160.947 316.059 161.417 316.023 161.874 315.95L169.477 357.519L137.28 330.414C138.371 328.925 139.017 327.09 139.017 325.104C139.017 320.109 134.939 316.059 129.909 316.059C124.879 316.059 120.8 320.109 120.8 325.104C120.8 330.099 124.879 334.15 129.909 334.15C131.439 334.15 132.884 333.774 134.152 333.108L155.411 369.241L114.886 354.359C115.38 353.245 115.655 352.016 115.655 350.726C115.655 345.732 111.576 341.681 106.546 341.681C101.516 341.681 97.4375 345.732 97.4375 350.726C97.4375 355.721 101.516 359.772 106.546 359.772C108.924 359.772 111.082 358.87 112.704 357.386L146.23 385.037L104.211 384.825C104.071 379.951 100.053 376.046 95.1085 376.046C90.1641 376.046 86 380.096 86 385.091C86 390.086 90.0787 394.136 95.1085 394.136C98.7727 394.136 101.925 391.987 103.376 388.893L143.023 402.994C152.826 383.923 172.793 370.869 195.833 370.869C218.872 370.869 238.839 383.929 248.643 403H248.795L288.381 388.918C289.869 391.908 292.966 393.967 296.557 393.967C301.587 393.967 305.666 389.916 305.666 384.922C305.666 379.927 301.587 375.876 296.557 375.876H296.563Z" fill="#FDF001"/>
<path d="M296.52 389.444C299.035 389.444 301.074 387.419 301.074 384.922C301.074 382.424 299.035 380.399 296.52 380.399C294.005 380.399 291.966 382.424 291.966 384.922C291.966 387.419 294.005 389.444 296.52 389.444Z" fill="#FE40B4" stroke="#00124C" stroke-miterlimit="10"/>
<path d="M285.357 355.988C287.872 355.988 289.911 353.963 289.911 351.465C289.911 348.967 287.872 346.942 285.357 346.942C282.842 346.942 280.803 348.967 280.803 351.465C280.803 353.963 282.842 355.988 285.357 355.988Z" fill="#FE40B4" stroke="#00124C" stroke-miterlimit="10"/>
<path d="M261.342 329.585C263.857 329.585 265.896 327.56 265.896 325.062C265.896 322.564 263.857 320.539 261.342 320.539C258.827 320.539 256.788 322.564 256.788 325.062C256.788 327.56 258.827 329.585 261.342 329.585Z" fill="#FE40B4" stroke="#00124C" stroke-miterlimit="10"/>
<path d="M231.663 311.3C234.179 311.3 236.218 309.275 236.218 306.778C236.218 304.28 234.179 302.255 231.663 302.255C229.148 302.255 227.109 304.28 227.109 306.778C227.109 309.275 229.148 311.3 231.663 311.3Z" fill="#FE40B4" stroke="#00124C" stroke-miterlimit="10"/>
<path d="M195.888 304.574C198.403 304.574 200.442 302.549 200.442 300.051C200.442 297.554 198.403 295.529 195.888 295.529C193.372 295.529 191.333 297.554 191.333 300.051C191.333 302.549 193.372 304.574 195.888 304.574Z" fill="#FE40B4" stroke="#00124C" stroke-miterlimit="10"/>
<path d="M160.435 311.536C162.95 311.536 164.989 309.512 164.989 307.014C164.989 304.516 162.95 302.491 160.435 302.491C157.92 302.491 155.881 304.516 155.881 307.014C155.881 309.512 157.92 311.536 160.435 311.536Z" fill="#FE40B4" stroke="#00124C" stroke-miterlimit="10"/>
<path d="M129.878 329.627C132.393 329.627 134.432 327.602 134.432 325.104C134.432 322.607 132.393 320.582 129.878 320.582C127.363 320.582 125.324 322.607 125.324 325.104C125.324 327.602 127.363 329.627 129.878 329.627Z" fill="#FE40B4" stroke="#00124C" stroke-miterlimit="10"/>
<path d="M106.509 355.249C109.024 355.249 111.063 353.224 111.063 350.726C111.063 348.229 109.024 346.204 106.509 346.204C103.994 346.204 101.955 348.229 101.955 350.726C101.955 353.224 103.994 355.249 106.509 355.249Z" fill="#FE40B4" stroke="#00124C" stroke-miterlimit="10"/>
<path d="M95.0779 389.608C97.5932 389.608 99.6322 387.583 99.6322 385.085C99.6322 382.587 97.5932 380.562 95.0779 380.562C92.5627 380.562 90.5237 382.587 90.5237 385.085C90.5237 387.583 92.5627 389.608 95.0779 389.608Z" fill="#FE40B4" stroke="#00124C" stroke-miterlimit="10"/>
<path d="M204.135 361.126C204.38 360.399 203.976 359.606 203.233 359.355C202.49 359.105 201.69 359.491 201.444 360.219C201.199 360.946 201.603 361.739 202.346 361.99C203.088 362.24 203.889 361.854 204.135 361.126Z" fill="#00124C"/>
<path d="M140.199 460.062C140.219 460.002 140.229 459.932 140.199 459.922C140.249 459.972 139.66 460.482 139.54 460.762C137.72 463.372 139.35 466.172 140.189 468.892C136.471 467.332 135.051 461.092 139.67 459.762C139.96 459.672 140.639 459.762 140.189 460.062H140.199Z" fill="#00124C"/>
<path d="M250.93 468.522C250.91 468.582 250.9 468.652 250.93 468.662C250.88 468.612 251.47 468.102 251.59 467.822C253.409 465.212 251.779 462.412 250.94 459.692C254.658 461.252 256.078 467.492 251.46 468.822C251.17 468.912 250.49 468.822 250.94 468.522H250.93Z" fill="#00124C"/>
</g>
<path d="M95.9279 50.4282C77.6419 53.2715 66.0838 66.8652 60.5814 90.8436C53.9504 64.9386 41.6378 54.1254 22.0709 57.3133C42.1188 53.5103 54.8235 41.4119 57.4187 16.8979C62.1483 44.7341 77.1076 53.8839 95.9292 50.4281L95.9279 50.4282Z" fill="#FDF001"/>
<path d="M116.999 94.8813C106.337 96.28 99.4352 104.017 95.9069 117.87C92.4135 102.73 85.4106 96.2777 74 97.8589C85.6986 95.9271 93.2462 89.0748 95.0931 74.8701C97.4553 91.106 106.019 96.6284 117 94.8813L116.999 94.8813Z" fill="#FDF001"/>
<path d="M47.9994 118.228C39.8171 119.301 34.52 125.239 31.8123 135.87C29.1313 124.251 23.757 119.299 15 120.513C23.978 119.03 29.7703 113.771 31.1877 102.87C33.0006 115.33 39.5724 119.568 48 118.228L47.9994 118.228Z" fill="#FDF001"/>
<path d="M324.898 153.774C335.743 152.328 342.749 144.441 346.309 130.339C349.896 145.736 357.035 152.286 368.642 150.652C356.743 152.643 349.078 159.631 347.229 174.088C344.791 157.573 336.066 151.973 324.897 153.774L324.898 153.774Z" fill="#FDF001"/>
<path d="M313.013 127.228C319.333 126.538 323.512 122.053 325.776 113.91C327.646 122.904 331.703 126.808 338.468 126.02C331.528 127.012 326.979 130.965 325.705 139.337C324.517 129.71 319.526 126.336 313.013 127.228L313.013 127.228Z" fill="#FDF001"/>
<path d="M354.098 114.314C358.948 113.785 362.155 110.343 363.892 104.094C365.328 110.996 368.441 113.992 373.632 113.387C368.307 114.148 364.815 117.182 363.838 123.607C362.926 116.219 359.096 113.63 354.097 114.314L354.098 114.314Z" fill="#FDF001"/>
<path d="M44.641 579.463C54.6294 578.132 61.0824 570.868 64.3614 557.879C67.665 572.06 74.2401 578.093 84.9299 576.588C73.971 578.422 66.9115 584.858 65.2088 598.172C62.9632 582.963 54.9276 577.805 44.6403 579.463L44.641 579.463Z" fill="#FDF001"/>
<path d="M33.6954 555.014C39.5161 554.379 43.3652 550.248 45.4498 542.748C47.1726 551.032 50.9086 554.627 57.1392 553.901C50.7477 554.815 46.5578 558.456 45.3844 566.167C44.2904 557.3 39.6939 554.193 33.6949 555.014L33.6954 555.014Z" fill="#FDF001"/>
<path d="M71.5346 543.12C76.0017 542.633 78.9557 539.463 80.5554 533.707C81.8776 540.064 84.7448 542.823 89.5264 542.266C84.6213 542.967 81.4058 545.762 80.5053 551.68C79.6657 544.875 76.1381 542.49 71.5343 543.12L71.5346 543.12Z" fill="#FDF001"/>
<path d="M302.503 472.475C309.653 471.521 314.272 466.322 316.619 457.024C318.984 467.175 323.691 471.493 331.343 470.417C323.498 471.729 318.445 476.336 317.226 485.867C315.618 474.98 309.866 471.287 302.502 472.475L302.503 472.475Z" fill="#FDF001"/>
<path d="M294.668 454.973C298.834 454.518 301.59 451.562 303.082 446.193C304.315 452.123 306.989 454.696 311.45 454.177C306.874 454.831 303.875 457.437 303.035 462.957C302.252 456.61 298.962 454.385 294.667 454.973L294.668 454.973Z" fill="#FDF001"/>
<path d="M321.754 446.459C324.952 446.11 327.066 443.841 328.212 439.721C329.158 444.272 331.21 446.247 334.633 445.848C331.122 446.35 328.82 448.35 328.176 452.586C327.575 447.715 325.049 446.008 321.754 446.459L321.754 446.459Z" fill="#FDF001"/>
<path d="M41.5441 323.574C49.5696 322.504 54.7545 316.668 57.3891 306.231C60.0435 317.625 65.3265 322.472 73.9156 321.264C65.1102 322.737 59.4381 327.908 58.07 338.606C56.2656 326.385 49.8092 322.241 41.5435 323.574L41.5441 323.574Z" fill="#FDF001"/>
<path d="M32.7497 303.929C37.4266 303.419 40.5193 300.1 42.1942 294.074C43.5785 300.73 46.5803 303.618 51.5865 303.035C46.451 303.769 43.0845 306.695 42.1417 312.89C41.2627 305.766 37.5694 303.269 32.7494 303.929L32.7497 303.929Z" fill="#FDF001"/>
<path d="M63.1528 294.373C66.7421 293.981 69.1155 291.434 70.4009 286.809C71.4633 291.917 73.767 294.134 77.609 293.687C73.6678 294.25 71.0842 296.495 70.3606 301.25C69.686 295.782 66.8517 293.866 63.1526 294.373L63.1528 294.373Z" fill="#FDF001"/>
<defs>
<linearGradient id="paint0_linear_627_2710" x1="151.685" y1="528.561" x2="199.371" y2="-17.5769" gradientUnits="userSpaceOnUse">
<stop stop-color="#00124C"/>
<stop offset="0.36" stop-color="#001559"/>
<stop offset="1" stop-color="#001E7D"/>
</linearGradient>
<linearGradient id="paint1_linear_627_2710" x1="236.369" y1="464.951" x2="261" y2="464.951" gradientUnits="userSpaceOnUse">
<stop stop-color="#00124C"/>
<stop offset="0.36" stop-color="#001559"/>
<stop offset="1" stop-color="#001E7D"/>
</linearGradient>
<linearGradient id="paint2_linear_627_2710" x1="130.68" y1="464.939" x2="155.311" y2="464.939" gradientUnits="userSpaceOnUse">
<stop stop-color="#00124C"/>
<stop offset="0.36" stop-color="#001559"/>
<stop offset="1" stop-color="#001E7D"/>
</linearGradient>
<linearGradient id="paint3_linear_627_2710" x1="189.732" y1="356.434" x2="199.085" y2="508.861" gradientUnits="userSpaceOnUse">
<stop stop-color="#FA4E8F"/>
<stop offset="0.04" stop-color="#FA5795"/>
<stop offset="0.18" stop-color="#FC77AA"/>
<stop offset="0.32" stop-color="#FD90BA"/>
<stop offset="0.48" stop-color="#FEA2C6"/>
<stop offset="0.64" stop-color="#FEADCD"/>
<stop offset="0.82" stop-color="#FFB1D0"/>
</linearGradient>
<linearGradient id="paint4_linear_627_2710" x1="188.662" y1="515.321" x2="201.366" y2="369.745" gradientUnits="userSpaceOnUse">
<stop stop-color="#00124C"/>
<stop offset="0.36" stop-color="#001559"/>
<stop offset="1" stop-color="#001E7D"/>
</linearGradient>
<linearGradient id="paint5_linear_627_2710" x1="167.26" y1="448.842" x2="168.4" y2="435.803" gradientUnits="userSpaceOnUse">
<stop stop-color="#00124C"/>
<stop offset="0.36" stop-color="#001559"/>
<stop offset="1" stop-color="#001E7D"/>
</linearGradient>
<linearGradient id="paint6_linear_627_2710" x1="220.201" y1="448.812" x2="221.341" y2="435.773" gradientUnits="userSpaceOnUse">
<stop stop-color="#00124C"/>
<stop offset="0.36" stop-color="#001559"/>
<stop offset="1" stop-color="#001E7D"/>
</linearGradient>
<clipPath id="clip0_627_2710">
<rect width="391" height="596" fill="white" transform="translate(-1 -1)"/>
</clipPath>
</defs>
</svg>
