<svg width="390" height="600" viewBox="0 0 390 600" fill="none" xmlns="http://www.w3.org/2000/svg">
<g clip-path="url(#clip0_630_3106)">
<path d="M374.83 89.69C372.63 78.25 370.56 67.45 369.96 57.59C366.96 8.38 390.35 0.29 390.59 0.21L390.41 -1C390.16 -0.92 384.21 1.05 378.57 9.3C369.16 23.05 368.24 43.21 369.12 57.7C369.73 67.67 371.81 78.52 374.02 90.02C378.2 111.78 382.83 135.89 380.06 163.79C377.51 137.85 368.66 115.12 360.85 87.73C343.53 27.02 372.26 -0.39 372.26 -0.39H0.580078C10.2001 64.56 33.2001 74.38 51.0401 91.78C57.0401 104.38 60.7501 118.27 59.2501 135.84C57.2701 159.02 44.9301 180.85 32.9901 201.97C29.2201 208.65 25.5001 215.23 22.1401 221.76C5.75008 247.2 -3.41992 274.38 18.2201 305.14C19.1501 307.34 20.0601 309.39 20.9501 311.36C28.5601 328.4 34.0601 340.72 27.3801 403.39C23.4001 440.76 28.6701 471.46 42.6201 492.18C52.8601 507.38 67.5601 516.86 84.8301 519.91C103.57 527.82 125.9 524.52 145.76 516.45C177.35 503.61 210.69 504.39 242.39 516.62C255.57 521.7 271.05 526.09 286.86 523.19C308.78 520.86 331.56 503.78 345.45 478.04C356.97 456.7 367.77 419.86 353.84 365.52C346.16 335.54 344.28 311.96 345.7 292.15C346.47 290.38 347.3 288.63 348.21 286.89C375.61 234.2 382.53 198.75 380.41 168.21C384.15 138.26 379.24 112.67 374.82 89.68L374.83 89.69ZM33.6501 202.76C45.6601 181.51 58.0801 159.54 60.0901 136C61.5201 119.24 58.3301 105.82 52.9501 93.7C60.1101 101.11 66.3001 110.18 70.2101 125.26C77.8701 154.77 48.9301 183.26 27.2801 214.13C29.3401 210.37 31.4801 206.58 33.6401 202.76H33.6501ZM43.2301 491.32C29.4701 470.89 24.2901 440.56 28.2201 403.59C34.9401 340.45 29.3701 327.97 21.6601 310.7C21.3301 309.97 21.0001 309.23 20.6701 308.48C20.9001 308.78 21.1301 309.08 21.3601 309.38C61.4001 360.18 17.5001 443.99 63.0701 502.93C68.1001 509.44 73.8801 514.25 80.1401 517.67C65.1401 513.86 52.3701 504.91 43.2301 491.33V491.32ZM353.05 365.96C366.84 419.76 356.17 456.19 344.79 477.28C334.15 497 318.23 511.58 301.52 518.23C306.24 515.84 310.93 512.62 315.54 508.39C380.75 448.67 317.75 361.99 344.66 294.64C343.58 314.06 345.64 337.05 353.05 365.95V365.96Z" fill="url(#paint0_linear_630_3106)"/>
<path d="M30.6501 595.01H364.41C364.41 595.01 341.84 523.92 262.7 538.97C262.7 538.97 195.56 570.87 125.46 538.97C125.46 538.97 65.7901 525.41 30.6601 595.01H30.6501Z" fill="#00124C"/>
<path d="M261.496 467.766C263.038 461.28 259.03 454.773 252.544 453.232C246.059 451.69 239.552 455.698 238.011 462.183C236.469 468.669 240.477 475.176 246.962 476.717C253.448 478.259 259.955 474.251 261.496 467.766Z" fill="#FDF001" stroke="url(#paint1_linear_630_3106)" stroke-width="0.5" stroke-miterlimit="10"/>
<path d="M249.75 475.31C250.18 475.45 250.44 475.6 250.51 476.05L250.79 476.94C250.88 477.23 251.13 477.99 251.22 478.27C251.12 478.46 251.03 478.66 250.89 478.87C250.65 478.78 250.47 478.68 250.28 478.58C250.19 478.3 249.95 477.54 249.85 477.25L249.57 476.36C249.36 475.96 249.48 475.68 249.76 475.32L249.75 475.31Z" fill="#FE40B4"/>
<path d="M252.74 474.6C253.23 474.75 253.51 474.96 253.62 475.44L254.05 476.47C254.19 476.81 254.56 477.69 254.69 478.02C254.62 478.25 254.56 478.48 254.45 478.72C254.2 478.62 253.99 478.51 253.78 478.39C253.64 478.07 253.28 477.18 253.14 476.84L252.71 475.81C252.45 475.39 252.5 475.04 252.74 474.59V474.6Z" fill="#FE40B4"/>
<path d="M255.44 473.75C255.87 473.76 256.16 473.81 256.32 474.21L256.78 474.94C256.93 475.18 257.33 475.8 257.47 476.03C257.42 476.23 257.37 476.43 257.28 476.66C257.04 476.64 256.84 476.6 256.63 476.56C256.48 476.33 256.09 475.7 255.94 475.47L255.48 474.74C255.19 474.42 255.26 474.14 255.44 473.75Z" fill="#FE40B4"/>
<path d="M152.573 473.48C157.287 468.766 157.287 461.124 152.573 456.41C147.859 451.696 140.217 451.696 135.504 456.41C130.79 461.124 130.79 468.766 135.504 473.48C140.217 478.193 147.859 478.193 152.573 473.48Z" fill="#FDF001" stroke="url(#paint2_linear_630_3106)" stroke-width="0.5" stroke-miterlimit="10"/>
<path d="M136.77 472.47C136.83 472.98 136.75 473.33 136.35 473.64L135.57 474.47C135.31 474.74 134.65 475.45 134.4 475.72C134.16 475.76 133.92 475.8 133.65 475.8C133.64 475.53 133.65 475.29 133.68 475.05C133.92 474.79 134.59 474.07 134.85 473.8L135.63 472.97C135.91 472.56 136.26 472.45 136.77 472.48V472.47Z" fill="#FE40B4"/>
<path d="M136.02 477.02C135.94 476.48 136.03 476.11 136.42 475.76L137.2 474.81C137.46 474.5 138.12 473.69 138.37 473.38C138.62 473.32 138.86 473.25 139.14 473.22C139.16 473.5 139.14 473.75 139.14 474.01C138.9 474.31 138.23 475.12 137.97 475.44L137.19 476.39C136.92 476.84 136.57 477 136.03 477.03L136.02 477.02Z" fill="#FE40B4"/>
<path d="M139.35 478.16C139.08 477.74 139 477.42 139.23 476.99L139.58 475.98C139.7 475.65 139.99 474.79 140.1 474.47C140.3 474.35 140.5 474.23 140.74 474.13C140.87 474.36 140.95 474.58 141.03 474.8C140.92 475.12 140.62 475.98 140.51 476.31L140.16 477.32C140.08 477.79 139.81 478 139.34 478.17L139.35 478.16Z" fill="#FE40B4"/>
<path d="M264.7 538.98C264.7 538.98 258.59 555.67 242.17 568.81C231.53 577.34 216.53 584.36 196.08 584.36C175.63 584.36 160.63 577.34 149.98 568.81C133.56 555.67 127.46 538.98 127.46 538.98C145.48 539.63 157.79 531.68 166.09 521.78C166.75 520.98 167.4 520.17 168.01 519.35C179.3 504.41 182.24 486.4 182.24 486.4H209.91C209.91 486.4 212.85 504.41 224.14 519.35C224.74 520.17 225.39 520.98 226.06 521.78C234.37 531.68 246.68 539.63 264.7 538.98Z" fill="#3E4BF6"/>
<path d="M264.7 538.98C264.7 538.98 258.59 555.67 242.17 568.81C231.53 577.34 216.53 584.36 196.08 584.36C175.63 584.36 160.63 577.34 149.98 568.81C133.56 555.67 127.46 538.98 127.46 538.98C145.48 539.63 157.79 531.68 166.09 521.78C166.75 520.98 167.4 520.17 168.01 519.35C179.3 504.41 182.24 486.4 182.24 486.4H209.91C209.91 486.4 212.85 504.41 224.14 519.35C224.74 520.17 225.39 520.98 226.06 521.78C234.37 531.68 246.68 539.63 264.7 538.98Z" fill="#00124C"/>
<path d="M224.15 519.35C216.04 524.52 206.41 527.51 196.09 527.51C185.77 527.51 176.13 524.51 168.02 519.35C179.31 504.41 182.25 486.4 182.25 486.4H209.92C209.92 486.4 212.86 504.41 224.15 519.35Z" fill="#001E7D"/>
<path d="M248.37 422.2C248.37 393.316 224.957 369.9 196.075 369.9C167.194 369.9 143.78 393.316 143.78 422.2V462.88C143.78 491.764 167.194 515.18 196.075 515.18C224.957 515.18 248.37 491.764 248.37 462.88V422.2Z" fill="url(#paint3_linear_630_3106)"/>
<path d="M248.37 422.2C248.37 393.316 224.957 369.9 196.075 369.9C167.194 369.9 143.78 393.316 143.78 422.2V462.88C143.78 491.764 167.194 515.18 196.075 515.18C224.957 515.18 248.37 491.764 248.37 462.88V422.2Z" fill="#FDF001" stroke="url(#paint4_linear_630_3106)" stroke-miterlimit="10"/>
<path d="M169.487 480.917C173.056 477.348 173.056 471.561 169.487 467.991C165.917 464.422 160.13 464.422 156.561 467.991C152.991 471.561 152.991 477.348 156.561 480.917C160.13 484.487 165.917 484.487 169.487 480.917Z" fill="#FE40B4"/>
<path d="M238.063 481.377C241.683 477.859 241.766 472.073 238.248 468.453C234.73 464.832 228.943 464.75 225.323 468.268C221.703 471.786 221.62 477.572 225.138 481.192C228.656 484.812 234.443 484.895 238.063 481.377Z" fill="#FE40B4"/>
<path d="M197.08 414.05C199.6 425.94 202.06 439.02 204.47 450.85C205.36 454.98 205.96 459.16 206.41 463.36C206.5 464.11 205.86 464.78 205.1 464.73C203.18 464.62 201.26 464.48 199.34 464.3C197.42 464.11 195.5 463.89 193.58 463.57C193.42 463.54 193.42 463.3 193.58 463.27C197.4 462.65 201.24 462.34 205.1 462.11L203.81 463.63C201.89 455.5 201.22 447.16 200.01 438.91C199 431.71 197.69 421.41 196.79 414.09C196.76 413.92 197.05 413.85 197.08 414.04V414.05Z" fill="#00124C"/>
<path d="M199.34 499.41C201.864 499.41 203.91 496.209 203.91 492.26C203.91 488.311 201.864 485.11 199.34 485.11C196.816 485.11 194.77 488.311 194.77 492.26C194.77 496.209 196.816 499.41 199.34 499.41Z" fill="#FF9FDA"/>
<path d="M182.62 487.3C193.68 493.37 205.05 493.5 216.07 487.3C216.14 487.25 216.26 487.25 216.31 487.34C216.34 487.4 216.33 487.46 216.29 487.51C209.87 494.65 198.84 496.89 190.11 492.94C187.18 491.72 184.61 489.77 182.41 487.51C182.29 487.37 182.46 487.18 182.62 487.3Z" fill="#00124C"/>
<path d="M181.02 489.72C180.9 487.6 182.05 485.59 183.91 484.59C183.95 484.56 184.02 484.58 184 484.64C183.32 485.94 181.87 488.51 181.11 489.77C181.08 489.82 181.01 489.77 181.02 489.72Z" fill="#00124C"/>
<path d="M215.09 485.67C216.82 486.23 217.91 487.92 217.74 489.72C217.74 489.77 217.7 489.82 217.66 489.77C216.96 488.79 215.63 486.75 215.01 485.72C214.98 485.67 215.05 485.64 215.09 485.67Z" fill="#00124C"/>
<path d="M209.15 441.69C217.26 445.73 226.38 445.77 234.48 441.69C228.72 449.76 214.93 449.7 209.15 441.69Z" fill="#00124C"/>
<path d="M156.19 441.69C164.3 445.73 173.42 445.77 181.52 441.69C175.76 449.76 161.98 449.7 156.19 441.69Z" fill="#00124C"/>
<path d="M166.21 532.98C161.38 534.44 166.65 540.26 167.6 553.49C160.77 545.99 153.8 539.55 148.26 535.31C145.7 536.4 142.96 537.29 140.03 537.92C143.98 544.07 150.94 551.97 152.64 556.44C152.14 555.88 134.35 535.93 129.05 540.38C125.45 543.4 142.07 557.99 146.49 567.14C146.49 567.14 126.59 545.04 122.93 548.18C118.54 551.95 135.29 567.81 139.78 575.75C138.85 574.56 123.83 555.29 119.28 555.54C115.03 555.77 123.77 573.56 141.52 595H195.21C182.64 565.69 171.48 531.38 166.21 532.97V532.98Z" fill="#00124C"/>
<path d="M257 595.01C274.84 576.01 283.95 560.23 279.9 559.7C275.38 559.1 258.95 577.19 257.94 578.31C263.02 570.73 280.91 556.17 276.82 552.08C273.41 548.67 251.9 569.21 251.9 569.21C257 560.42 274.68 547.12 271.31 543.84C266.36 539.01 247.12 557.56 246.58 558.08C248.79 553.36 257.58 545.02 261.68 538.99C258.15 538.93 254.85 538.52 251.77 537.84C246.05 541.66 238.94 547.35 231.88 554.01C233.82 540.89 239.52 535.48 234.81 533.66C229.57 531.64 215.41 566.39 200.34 595.01H257Z" fill="#00124C"/>
<path d="M196.54 587.97L196.56 588C183.44 558.06 171.67 521.2 166.21 522.85C161.38 524.31 166.65 530.13 167.6 543.36C153.48 527.87 138.73 516.85 137.39 520.54C135.7 525.18 150.1 539.62 152.64 546.31C152.14 545.75 134.35 525.8 129.05 530.25C125.45 533.27 142.07 547.86 146.49 557.01C146.49 557.01 126.59 534.91 122.93 538.05C118.54 541.82 135.29 557.68 139.78 565.62C138.85 564.43 123.83 545.16 119.28 545.41C114.58 545.67 125.76 567.39 147.45 591.78C148.32 592.76 149.13 593.85 149.91 595.01H195.16C195.93 593.41 196.72 591.81 197.52 590.24C197.19 589.48 196.87 588.72 196.53 587.96L196.54 587.97Z" fill="#FDF001"/>
<path d="M196.54 587.97L196.56 588C183.44 558.06 171.67 521.2 166.21 522.85C161.38 524.31 166.65 530.13 167.6 543.36C153.48 527.87 138.73 516.85 137.39 520.54C135.7 525.18 150.1 539.62 152.64 546.31C152.14 545.75 134.35 525.8 129.05 530.25C125.45 533.27 142.07 547.86 146.49 557.01C146.49 557.01 126.59 534.91 122.93 538.05C118.54 541.82 135.29 557.68 139.78 565.62C138.85 564.43 123.83 545.16 119.28 545.41C114.58 545.67 125.76 567.39 147.45 591.78C148.32 592.76 149.13 593.85 149.91 595.01H195.16C195.93 593.41 196.72 591.81 197.52 590.24C197.19 589.48 196.87 588.72 196.53 587.96L196.54 587.97Z" fill="#FDF001"/>
<path d="M279.9 549.56C275.38 548.96 258.95 567.05 257.94 568.17C263.02 560.59 280.91 546.03 276.82 541.94C273.41 538.53 251.9 559.07 251.9 559.07C257 550.28 274.68 536.98 271.31 533.7C266.36 528.87 247.12 547.42 246.58 547.94C249.62 541.45 265.06 528.14 263.73 523.39C262.66 519.61 247.13 529.48 231.88 543.87C233.82 530.75 239.52 525.34 234.81 523.52C229.49 521.46 214.97 557.34 199.64 586.2L199.66 586.17C198.94 587.51 198.23 588.87 197.53 590.24C196.72 591.82 195.94 593.41 195.17 595.01H247.04C247.46 594.55 247.89 594.1 248.32 593.67C271.79 570.98 284.57 550.16 279.9 549.55V549.56Z" fill="#FDF001"/>
<path d="M279.9 549.56C275.38 548.96 258.95 567.05 257.94 568.17C263.02 560.59 280.91 546.03 276.82 541.94C273.41 538.53 251.9 559.07 251.9 559.07C257 550.28 274.68 536.98 271.31 533.7C266.36 528.87 247.12 547.42 246.58 547.94C249.62 541.45 265.06 528.14 263.73 523.39C262.66 519.61 247.13 529.48 231.88 543.87C233.82 530.75 239.52 525.34 234.81 523.52C229.49 521.46 214.97 557.34 199.64 586.2L199.66 586.17C198.94 587.51 198.23 588.87 197.53 590.24C196.72 591.82 195.94 593.41 195.17 595.01H247.04C247.46 594.55 247.89 594.1 248.32 593.67C271.79 570.98 284.57 550.16 279.9 549.55V549.56Z" fill="#FDF001"/>
<path d="M143.78 374.15V438.37H149.25V439.07C149.37 439.07 161.67 438.96 170.19 429.1C177.22 420.97 179.74 408.74 177.71 392.73C186.03 417.02 206.85 434.98 232.2 439.59L248.37 442.53V374.14H143.78V374.15Z" fill="#FFF983"/>
<path d="M134.25 359.54C118.05 380.89 122.43 408.03 134.25 437.26H140.87V438.11C141.02 438.11 155.89 437.97 166.21 426.05C174.72 416.21 177.76 401.41 175.31 382.04C185.38 411.43 210.57 433.17 241.26 438.75L260.83 442.3C273.97 413.04 275.8 385.22 260.83 359.54C183.24 317.65 183.38 330.51 134.26 359.54H134.25ZM165.57 425.48C157.44 434.89 146.39 436.78 142.39 437.16C148.9 434.69 174.12 422.61 174.61 383.35C176.76 401.87 173.73 416.04 165.56 425.48H165.57Z" fill="#00124C"/>
<path d="M297.563 375.876C292.57 375.876 288.509 379.872 288.461 384.819L246.619 385.031L279.785 357.677C281.443 359.415 283.791 360.504 286.394 360.504C291.424 360.504 295.502 356.454 295.502 351.459C295.502 346.464 291.424 342.414 286.394 342.414C281.364 342.414 277.285 346.464 277.285 351.459C277.285 352.494 277.462 353.487 277.785 354.414L237.431 369.235L258.587 333.278C259.739 333.804 261.025 334.101 262.379 334.101C267.409 334.101 271.487 330.051 271.487 325.056C271.487 320.061 267.409 316.011 262.379 316.011C257.349 316.011 253.27 320.061 253.27 325.056C253.27 327.181 254.008 329.13 255.24 330.674L223.36 357.513L231.017 315.659C231.566 315.762 232.127 315.817 232.7 315.817C237.73 315.817 241.808 311.767 241.808 306.772C241.808 301.777 237.73 297.726 232.7 297.726C227.67 297.726 223.591 301.777 223.591 306.772C223.591 309.817 225.109 312.511 227.432 314.152L206.1 351.277L198.802 308.897C202.929 308.037 206.027 304.398 206.027 300.045C206.027 295.05 201.948 291 196.918 291C191.888 291 187.81 295.05 187.81 300.045C187.81 304.398 190.907 308.031 195.034 308.897L187.736 351.277L166.599 314.485C169.001 312.856 170.574 310.12 170.574 307.014C170.574 302.019 166.495 297.969 161.466 297.969C156.436 297.969 152.357 302.019 152.357 307.014C152.357 312.009 156.436 316.059 161.466 316.059C161.947 316.059 162.417 316.023 162.874 315.95L170.477 357.519L138.28 330.414C139.371 328.925 140.017 327.09 140.017 325.104C140.017 320.109 135.939 316.059 130.909 316.059C125.879 316.059 121.8 320.109 121.8 325.104C121.8 330.099 125.879 334.15 130.909 334.15C132.439 334.15 133.884 333.774 135.152 333.108L156.411 369.241L115.886 354.359C116.38 353.245 116.655 352.016 116.655 350.726C116.655 345.732 112.576 341.681 107.546 341.681C102.516 341.681 98.4375 345.732 98.4375 350.726C98.4375 355.721 102.516 359.772 107.546 359.772C109.924 359.772 112.082 358.87 113.704 357.386L147.23 385.037L105.211 384.825C105.071 379.951 101.053 376.046 96.1085 376.046C91.1641 376.046 87 380.096 87 385.091C87 390.086 91.0787 394.136 96.1085 394.136C99.7727 394.136 102.925 391.987 104.376 388.893L144.023 402.994C153.826 383.923 173.793 370.869 196.833 370.869C219.872 370.869 239.839 383.929 249.643 403H249.795L289.381 388.918C290.869 391.908 293.966 393.967 297.557 393.967C302.587 393.967 306.666 389.916 306.666 384.922C306.666 379.927 302.587 375.876 297.557 375.876H297.563Z" fill="#FDF001"/>
<path d="M297.52 389.444C300.035 389.444 302.074 387.419 302.074 384.922C302.074 382.424 300.035 380.399 297.52 380.399C295.005 380.399 292.966 382.424 292.966 384.922C292.966 387.419 295.005 389.444 297.52 389.444Z" fill="#FE40B4" stroke="#00124C" stroke-miterlimit="10"/>
<path d="M286.357 355.988C288.872 355.988 290.911 353.963 290.911 351.465C290.911 348.967 288.872 346.942 286.357 346.942C283.842 346.942 281.803 348.967 281.803 351.465C281.803 353.963 283.842 355.988 286.357 355.988Z" fill="#FE40B4" stroke="#00124C" stroke-miterlimit="10"/>
<path d="M262.342 329.585C264.857 329.585 266.896 327.56 266.896 325.062C266.896 322.564 264.857 320.539 262.342 320.539C259.827 320.539 257.788 322.564 257.788 325.062C257.788 327.56 259.827 329.585 262.342 329.585Z" fill="#FE40B4" stroke="#00124C" stroke-miterlimit="10"/>
<path d="M232.663 311.3C235.178 311.3 237.217 309.275 237.217 306.778C237.217 304.28 235.178 302.255 232.663 302.255C230.148 302.255 228.109 304.28 228.109 306.778C228.109 309.275 230.148 311.3 232.663 311.3Z" fill="#FE40B4" stroke="#00124C" stroke-miterlimit="10"/>
<path d="M196.888 304.574C199.403 304.574 201.442 302.549 201.442 300.051C201.442 297.554 199.403 295.529 196.888 295.529C194.372 295.529 192.333 297.554 192.333 300.051C192.333 302.549 194.372 304.574 196.888 304.574Z" fill="#FE40B4" stroke="#00124C" stroke-miterlimit="10"/>
<path d="M161.435 311.536C163.95 311.536 165.989 309.512 165.989 307.014C165.989 304.516 163.95 302.491 161.435 302.491C158.92 302.491 156.881 304.516 156.881 307.014C156.881 309.512 158.92 311.536 161.435 311.536Z" fill="#FE40B4" stroke="#00124C" stroke-miterlimit="10"/>
<path d="M130.878 329.627C133.393 329.627 135.432 327.602 135.432 325.104C135.432 322.607 133.393 320.582 130.878 320.582C128.363 320.582 126.324 322.607 126.324 325.104C126.324 327.602 128.363 329.627 130.878 329.627Z" fill="#FE40B4" stroke="#00124C" stroke-miterlimit="10"/>
<path d="M107.509 355.249C110.025 355.249 112.064 353.224 112.064 350.726C112.064 348.229 110.025 346.204 107.509 346.204C104.994 346.204 102.955 348.229 102.955 350.726C102.955 353.224 104.994 355.249 107.509 355.249Z" fill="#FE40B4" stroke="#00124C" stroke-miterlimit="10"/>
<path d="M96.0779 389.608C98.5932 389.608 100.632 387.583 100.632 385.085C100.632 382.587 98.5932 380.562 96.0779 380.562C93.5627 380.562 91.5237 382.587 91.5237 385.085C91.5237 387.583 93.5627 389.608 96.0779 389.608Z" fill="#FE40B4" stroke="#00124C" stroke-miterlimit="10"/>
<path d="M141.25 460.07C141.27 460.01 141.28 459.94 141.25 459.93C141.3 459.98 140.71 460.49 140.59 460.77C138.77 463.38 140.4 466.18 141.24 468.9C137.52 467.34 136.1 461.1 140.72 459.77C141.01 459.68 141.69 459.77 141.24 460.07H141.25Z" fill="#00124C"/>
<path d="M252.02 468.53C252 468.59 251.99 468.66 252.02 468.67C251.97 468.62 252.56 468.11 252.68 467.83C254.5 465.22 252.87 462.42 252.03 459.7C255.75 461.26 257.17 467.5 252.55 468.83C252.26 468.92 251.58 468.83 252.03 468.53H252.02Z" fill="#00124C"/>
</g>
<path d="M86.4069 46.3778C70.2722 48.8866 60.0738 60.881 55.2188 82.0384C49.3679 59.1811 38.5039 49.64 21.2389 52.4529C38.9282 49.0973 50.1382 38.4222 52.4282 16.7923C56.6014 41.3536 69.8007 49.427 86.408 46.3778L86.4069 46.3778Z" fill="#FDF001"/>
<path d="M104.999 85.6012C95.5919 86.8353 89.5016 93.6619 86.3885 105.885C83.306 92.5263 77.1271 86.8333 67.0588 88.2284C77.3811 86.524 84.0408 80.4777 85.6704 67.9442C87.7547 82.2701 95.3105 87.1427 105 85.6012L104.999 85.6012Z" fill="#FDF001"/>
<path d="M44.1171 106.201C36.8975 107.148 32.2235 112.387 29.8344 121.768C27.4688 111.515 22.7268 107.146 15 108.217C22.9217 106.909 28.0327 102.269 29.2833 92.6501C30.8829 103.644 36.6815 107.384 44.1176 106.201L44.1171 106.201Z" fill="#FDF001"/>
<path d="M318.235 150.767C330.605 149.117 338.596 140.122 342.657 124.037C346.748 141.599 354.891 149.069 368.129 147.206C354.558 149.477 345.815 157.447 343.706 173.936C340.925 155.1 330.974 148.712 318.234 150.767L318.235 150.767Z" fill="#FDF001"/>
<path d="M304.68 120.488C311.888 119.701 316.655 114.586 319.237 105.298C321.37 115.557 325.997 120.009 333.713 119.11C325.798 120.242 320.609 124.751 319.156 134.3C317.801 123.32 312.108 119.471 304.679 120.488L304.68 120.488Z" fill="#FDF001"/>
<path d="M351.541 105.759C357.073 105.155 360.731 101.229 362.712 94.1014C364.35 101.974 367.9 105.391 373.822 104.701C367.747 105.569 363.765 109.03 362.65 116.359C361.61 107.932 357.242 104.978 351.54 105.759L351.541 105.759Z" fill="#FDF001"/>
<path d="M43.258 581.616C52.0836 580.44 57.7854 574.021 60.6827 562.545C63.6017 575.075 69.4114 580.405 78.8569 579.076C69.1736 580.696 62.936 586.383 61.4315 598.147C59.4472 584.708 52.3471 580.151 43.2573 581.616L43.258 581.616Z" fill="#FDF001"/>
<path d="M33.5869 560.013C38.7301 559.452 42.1311 555.802 43.973 549.175C45.4952 556.495 48.7964 559.671 54.3017 559.03C48.6542 559.837 44.952 563.054 43.9152 569.868C42.9486 562.033 38.8871 559.287 33.5865 560.013L33.5869 560.013Z" fill="#FDF001"/>
<path d="M67.021 549.504C70.9681 549.073 73.5782 546.272 74.9917 541.186C76.16 546.804 78.6934 549.242 82.9184 548.749C78.5843 549.369 75.7431 551.838 74.9474 557.067C74.2056 551.054 71.0886 548.947 67.0207 549.504L67.021 549.504Z" fill="#FDF001"/>
<path d="M296.486 469.759C305.013 468.622 310.521 462.421 313.321 451.333C316.141 463.439 321.754 468.589 330.879 467.305C321.524 468.87 315.498 474.364 314.044 485.731C312.127 472.746 305.267 468.343 296.485 469.759L296.486 469.759Z" fill="#FDF001"/>
<path d="M287.142 448.887C292.111 448.345 295.397 444.819 297.176 438.417C298.647 445.488 301.837 448.557 307.155 447.938C301.699 448.717 298.122 451.826 297.121 458.408C296.187 450.839 292.263 448.186 287.142 448.887L287.142 448.887Z" fill="#FDF001"/>
<path d="M319.444 438.734C323.258 438.318 325.779 435.612 327.145 430.698C328.274 436.125 330.722 438.481 334.803 438.005C330.616 438.603 327.871 440.989 327.102 446.041C326.386 440.232 323.374 438.196 319.444 438.734L319.444 438.734Z" fill="#FDF001"/>
<path d="M42.5863 328.232C51.6067 327.029 57.4343 320.469 60.3955 308.739C63.3789 321.546 69.3168 326.994 78.9707 325.635C69.0738 327.291 62.6985 333.103 61.1608 345.127C59.1328 331.392 51.876 326.734 42.5856 328.232L42.5863 328.232Z" fill="#FDF001"/>
<path d="M32.7014 306.152C37.9581 305.578 41.4341 301.848 43.3166 295.075C44.8725 302.556 48.2464 305.802 53.8732 305.147C48.1012 305.972 44.3173 309.26 43.2576 316.224C42.2696 308.216 38.1186 305.41 32.701 306.152L32.7014 306.152Z" fill="#FDF001"/>
<path d="M66.8735 295.411C70.9077 294.97 73.5753 292.108 75.0201 286.91C76.2141 292.651 78.8034 295.142 83.1217 294.639C78.6919 295.272 75.788 297.796 74.9748 303.14C74.2166 296.995 71.0309 294.841 66.8732 295.411L66.8735 295.411Z" fill="#FDF001"/>
<defs>
<linearGradient id="paint0_linear_630_3106" x1="152.74" y1="528.57" x2="200.41" y2="-17.58" gradientUnits="userSpaceOnUse">
<stop stop-color="#00124C"/>
<stop offset="0.36" stop-color="#001559"/>
<stop offset="1" stop-color="#001E7D"/>
</linearGradient>
<linearGradient id="paint1_linear_630_3106" x1="237.454" y1="464.959" x2="262.094" y2="464.959" gradientUnits="userSpaceOnUse">
<stop stop-color="#00124C"/>
<stop offset="0.36" stop-color="#001559"/>
<stop offset="1" stop-color="#001E7D"/>
</linearGradient>
<linearGradient id="paint2_linear_630_3106" x1="131.728" y1="464.947" x2="156.368" y2="464.947" gradientUnits="userSpaceOnUse">
<stop stop-color="#00124C"/>
<stop offset="0.36" stop-color="#001559"/>
<stop offset="1" stop-color="#001E7D"/>
</linearGradient>
<linearGradient id="paint3_linear_630_3106" x1="190.8" y1="356.44" x2="200.15" y2="508.87" gradientUnits="userSpaceOnUse">
<stop stop-color="#FA4E8F"/>
<stop offset="0.04" stop-color="#FA5795"/>
<stop offset="0.18" stop-color="#FC77AA"/>
<stop offset="0.32" stop-color="#FD90BA"/>
<stop offset="0.48" stop-color="#FEA2C6"/>
<stop offset="0.64" stop-color="#FEADCD"/>
<stop offset="0.82" stop-color="#FFB1D0"/>
</linearGradient>
<linearGradient id="paint4_linear_630_3106" x1="189.73" y1="515.33" x2="202.43" y2="369.75" gradientUnits="userSpaceOnUse">
<stop stop-color="#00124C"/>
<stop offset="0.36" stop-color="#001559"/>
<stop offset="1" stop-color="#001E7D"/>
</linearGradient>
<clipPath id="clip0_630_3106">
<rect width="391.14" height="596.01" fill="white" transform="translate(0 -1)"/>
</clipPath>
</defs>
</svg>
