<svg width="260" height="260" viewBox="0 0 260 260" fill="none" xmlns="http://www.w3.org/2000/svg">
<g filter="url(#filter0_d_47_2375)">
<path d="M122 243C188.274 243 242 189.274 242 123C242 56.7258 188.274 3 122 3C55.7258 3 2 56.7258 2 123C2 189.274 55.7258 243 122 243Z" fill="#5570C6"/>
<mask id="mask0_47_2375" style="mask-type:alpha" maskUnits="userSpaceOnUse" x="2" y="3" width="240" height="240">
<path d="M122 243C188.274 243 242 189.274 242 123C242 56.7258 188.274 3 122 3C55.7258 3 2 56.7258 2 123C2 189.274 55.7258 243 122 243Z" fill="#5570C6"/>
</mask>
<g mask="url(#mask0_47_2375)">
<path d="M150.308 100.496L149.346 102.859L147.842 106.496L147.478 107.326L147.346 107.561L147.11 107.717L146.875 107.873L146.587 107.793L146.328 107.741L146.172 107.481L146.04 107.222V106.962L146.247 105.948L146.092 106.104L145.884 106.052L145.441 105.897L145.205 105.585L145.181 104.496L146.922 102.133L147.521 101.741L147.728 101.637L147.809 101.793L147.941 102.133L148.459 101.119L149.393 100.289L149.889 100.029L150.176 99.9772L150.308 99.9253V100.496ZM151.45 101.119L149.398 105.972L148.879 106.854L148.62 107.061L148.257 107.033L148.28 106.878V106.826L148.125 107.165L147.889 107.373L147.837 107.033L147.917 106.59L148.308 105.628L150.153 101.161L150.723 100.123L150.931 99.9961L150.983 100.18L151.138 99.9206L151.478 99.7886L151.634 99.7367L151.662 99.8923L151.742 100.255L151.662 100.463L151.454 101.114L151.45 101.119ZM153.19 101.222L151.709 104.807L151.266 105.873L151.082 106.264L151.03 106.293L150.638 107.203L150.379 107.594L150.459 107.231L150.799 106.401L150.775 106.429L150.643 106.481L150.436 106.378L150.148 106.25L149.964 105.963L149.832 105.779L149.912 105.387L150.355 104.194L151.808 100.689L152.563 99.4961L152.77 99.2886L153.185 99.2603L153.421 99.3641L153.657 99.6518L153.629 99.9914L153.185 101.237L153.19 101.222ZM156.355 101.845L154.954 105.533L152.539 111.349L150.954 115.193L150.615 115.867L150.483 116.103L150.143 116.075L150.091 115.867L149.988 115.089L150.195 112.236L150.714 110.806L150.818 110.547H150.686V110.34L150.657 109.844L150.813 107.844L151.124 106.934L151.695 105.533L153.355 101.51L154.03 99.9253L154.393 99.3546L154.525 99.199L154.94 99.0433L155.072 98.9915L155.331 99.1188L155.515 99.199L155.567 99.4867L155.619 99.7461L155.539 99.9819L155.798 99.9301L156.034 100.01L156.346 100.35L156.397 100.689L156.346 101.859L156.355 101.845ZM156.435 104.543L152.775 113.368L151.865 115.523L151.657 115.834L151.605 115.966L151.553 116.018L151.421 116.174L151.214 116.07L151.03 115.966L151.058 115.811L151.19 115.396L152.124 113.085L155.393 105.246L156.199 103.246L156.666 102.727L156.85 102.831L156.827 103.118L156.435 104.548V104.543ZM156.515 109.656L156.412 110.693L155.374 113.471L154.152 116.353L153.501 117.212L153.162 117.339L153.006 117.391L152.747 117.259L152.539 117.155L152.511 117.028L152.431 116.636L152.459 116.429L152.511 116.297L152.119 116.532L151.964 116.613L151.884 116.405L151.803 116.146L151.884 115.886L152.714 113.834L155.492 107.137L156.166 105.477L156.529 104.958L156.765 105.114L156.789 105.453L156.374 107.321L156.218 107.684L156.374 107.552L156.402 107.684L156.506 108.024L156.534 108.491L156.506 109.66L156.515 109.656ZM156.072 114.485L155.709 115.396L155.242 116.381L154.931 116.565V116.33L154.907 116.197L154.671 116.405V116.221L154.648 115.933L154.831 115.49L156.053 112.533L156.416 111.651L156.676 111.443L156.86 111.571L156.808 111.83L156.261 113.311L156.364 113.207L156.388 113.415L156.077 114.481L156.072 114.485ZM156.982 115.863L156.827 116.306L156.619 116.542L156.463 116.697L156.1 116.669H155.968L155.916 116.513L155.761 116.202L155.841 115.787L156.44 114.254L156.959 113.943L157.039 114.254L156.987 115.863H156.982Z" fill="#FDF001"/>
<path d="M163.364 101.873L160.562 108.651L159.888 110.184L159.628 110.443L159.265 110.34V110.207L159.241 109.844L159.322 109.429L159.685 108.208L159.973 107.505L159.949 107.373L159.869 107.033L159.921 105.477L160.675 102.439L161.505 101.01L162.284 100.232L162.571 100.024L162.986 99.9725L163.246 100.232V100.26L163.378 100.128L163.637 100.26L163.845 100.364L163.793 100.704L163.378 101.873H163.364ZM165.052 100.6L164.972 100.755L165.467 99.6895L165.651 99.4537L165.911 99.2981L166.118 99.1707L166.326 99.2745L166.585 99.4018V99.765L166.194 101.09L162.222 110.67L161.237 112.953L161.081 113.264L160.77 113.471L160.586 113.599L160.43 113.471L160.171 113.264L160.142 113.108L160.119 112.693L160.378 111.759L160.562 111.316L160.251 111.679L160.067 111.599L159.883 111.519L159.855 111.283L159.935 110.632L160.793 108.528L163.699 101.491L164.505 99.8027L164.972 99.3877L165.128 99.5197L165.283 99.6754L165.231 99.8829L165.048 100.586L165.052 100.6ZM168.792 100.416L168.17 102.076L167.547 103.373L166.198 105.165L165.939 106.826L165.703 107.892L165 109.684L163.859 112.434L163.185 114.094L162.666 115.212L162.482 115.499L161.986 115.759L161.854 115.707L161.491 115.575L161.307 115.339L161.152 115.103L161.123 114.867V114.297L161.411 113.438L161.388 113.518L161.152 113.702L161.175 113.467L161.307 112.919L162.321 110.481L165.647 102.486L166.453 100.515L166.689 100.072L166.769 99.8876L167.029 99.9914L167.392 99.4726L167.599 99.2886L168.014 99.1849L168.146 99.1613L168.458 99.265L168.717 99.449L168.901 99.8405L168.797 100.411L168.792 100.416ZM166.066 114.797L165.34 116.509L165.029 117.056L164.897 117.212L164.533 117.292L164.298 117.212L164.062 116.952V116.589L164.217 116.094L163.906 116.174L163.699 116.226L163.515 116.122L163.227 115.938L163.175 115.811L163.071 115.367L163.123 115.004L163.67 113.5L165.203 109.811L165.543 108.981L165.779 108.566L166.118 108.33L166.302 108.538L166.382 108.953L166.411 109.939L166.33 111.575L165.864 112.769L166.019 112.745L166.255 112.825L166.514 113.165L166.491 113.528L166.076 114.801L166.066 114.797ZM174.32 103.892L172.684 107.863L169.906 114.561L169.203 116.273L168.759 117.131L168.42 117.495L168.057 117.598L167.849 117.679L167.665 117.575L167.354 117.419L167.302 117.212L167.278 116.693L167.043 116.877L166.859 116.98L166.547 116.952H166.312L166.18 116.768L165.996 116.532V116.325L166.047 115.83L166.722 114.089L167.448 112.74L168.877 111.288L169.241 109.368L169.552 107.42L170.825 104.227L171.58 102.383L172.047 101.293L172.566 100.642L172.773 100.458L173.188 100.51L173.424 100.642L173.66 101.005V101.345L173.401 102.227L173.452 102.175H173.971L174.155 102.383L174.339 102.619L174.391 102.902L174.311 103.887L174.32 103.892ZM171.179 102.439L170.349 104.491L169.802 105.764L169.462 106.571L169.203 107.09L168.84 107.297L168.604 107.113V106.986L168.656 105.585L169.175 104L169.123 104.024L168.887 103.944L168.599 103.864L168.26 103.449L168.208 103.241L168.156 102.902L168.288 102.354L169.066 100.435L169.509 99.5763L169.693 99.3405L170.16 99.0528L170.552 99.1047L170.839 99.2603L171.075 99.6235V99.9112L170.92 100.534L171 100.482L171.443 100.614L171.547 100.954L171.523 101.449L171.184 102.435L171.179 102.439ZM174.5 108.359L171.929 114.537L171.306 115.99L171.071 116.457V116.042L170.759 116.641L170.5 116.877L170.189 116.98L169.953 117.032L169.509 116.745V116.589L169.481 116.198L169.821 115.287L170.472 113.702L173.688 105.915L174.467 104.071L174.882 103.449L175.089 103.529L175.349 103.684L175.452 103.944L175.4 105.84L174.957 106.958V107.113L174.825 107.528L174.485 108.359H174.5ZM175.848 108.67L175.641 110.825L175.018 112.514L175.226 112.226L175.198 112.382L175.174 112.797L174.707 113.938L174.5 114.226L174.344 114.07L173.877 115.033L172.5 116.202L172.24 116.306L171.953 116.226L171.717 116.146V115.99L171.769 115.547L172.391 113.962L174.599 108.665L175.169 107.34L175.457 107L175.768 107.156L175.82 107.495L175.844 108.665L175.848 108.67Z" fill="#FDF001"/>
<path d="M182.004 101.873L179.202 108.651L178.528 110.184L178.268 110.443L177.905 110.34V110.207L177.881 109.844L177.962 109.429L178.325 108.208L178.612 107.505L178.589 107.373L178.509 107.033L178.561 105.477L179.315 102.439L180.145 101.01L180.924 100.232L181.211 100.024L181.626 99.9725L181.886 100.232V100.26L182.018 100.128L182.277 100.26L182.485 100.364L182.433 100.704L182.018 101.873H182.004ZM183.692 100.6L183.612 100.755L184.107 99.6895L184.291 99.4537L184.551 99.2981L184.758 99.1707L184.966 99.2745L185.225 99.4018V99.765L184.834 101.09L180.862 110.67L179.876 112.953L179.721 113.264L179.41 113.471L179.226 113.599L179.07 113.471L178.811 113.264L178.782 113.108L178.759 112.693L179.018 111.759L179.202 111.316L178.891 111.679L178.707 111.599L178.523 111.519L178.494 111.283L178.575 110.632L179.433 108.528L182.338 101.491L183.145 99.8027L183.612 99.3877L183.768 99.5197L183.923 99.6754L183.871 99.8829L183.687 100.586L183.692 100.6ZM187.432 100.416L186.81 102.076L186.187 103.373L184.838 105.165L184.579 106.826L184.343 107.892L183.64 109.684L182.499 112.434L181.824 114.094L181.306 115.212L181.122 115.499L180.626 115.759L180.494 115.707L180.131 115.575L179.947 115.339L179.792 115.103L179.763 114.867V114.297L180.051 113.438L180.027 113.518L179.792 113.702L179.815 113.467L179.947 112.919L180.961 110.481L184.286 102.486L185.093 100.515L185.329 100.072L185.409 99.8876L185.668 99.9914L186.032 99.4726L186.239 99.2886L186.654 99.1849L186.786 99.1613L187.098 99.265L187.357 99.449L187.541 99.8405L187.437 100.411L187.432 100.416ZM184.706 114.797L183.98 116.509L183.669 117.056L183.537 117.212L183.173 117.292L182.938 117.212L182.702 116.952V116.589L182.857 116.094L182.546 116.174L182.338 116.226L182.155 116.122L181.867 115.938L181.815 115.811L181.711 115.367L181.763 115.004L182.31 113.5L183.843 109.811L184.183 108.981L184.418 108.566L184.758 108.33L184.942 108.538L185.022 108.953L185.051 109.939L184.97 111.575L184.503 112.769L184.659 112.745L184.895 112.825L185.154 113.165L185.131 113.528L184.716 114.801L184.706 114.797ZM192.96 103.892L191.324 107.863L188.545 114.561L187.843 116.273L187.399 117.131L187.06 117.495L186.697 117.598L186.489 117.679L186.305 117.575L185.994 117.419L185.942 117.212L185.918 116.693L185.683 116.877L185.499 116.98L185.187 116.952H184.951L184.819 116.768L184.635 116.532V116.325L184.687 115.83L185.362 114.089L186.088 112.74L187.517 111.288L187.88 109.368L188.192 107.42L189.465 104.227L190.22 102.383L190.687 101.293L191.206 100.642L191.413 100.458L191.828 100.51L192.064 100.642L192.3 101.005V101.345L192.04 102.227L192.092 102.175H192.611L192.795 102.383L192.979 102.619L193.031 102.902L192.951 103.887L192.96 103.892ZM189.819 102.439L188.989 104.491L188.442 105.764L188.102 106.571L187.843 107.09L187.48 107.297L187.244 107.113V106.986L187.296 105.585L187.814 104L187.763 104.024L187.527 103.944L187.239 103.864L186.899 103.449L186.848 103.241L186.796 102.902L186.928 102.354L187.706 100.435L188.149 99.5763L188.333 99.3405L188.8 99.0528L189.192 99.1047L189.479 99.2603L189.715 99.6235V99.9112L189.56 100.534L189.64 100.482L190.083 100.614L190.187 100.954L190.163 101.449L189.824 102.435L189.819 102.439ZM193.139 108.359L190.569 114.537L189.946 115.99L189.71 116.457V116.042L189.399 116.641L189.14 116.877L188.828 116.98L188.593 117.032L188.149 116.745V116.589L188.121 116.198L188.461 115.287L189.111 113.702L192.328 105.915L193.106 104.071L193.521 103.449L193.729 103.529L193.988 103.684L194.092 103.944L194.04 105.84L193.597 106.958V107.113L193.465 107.528L193.125 108.359H193.139ZM194.488 108.67L194.281 110.825L193.658 112.514L193.866 112.226L193.837 112.382L193.814 112.797L193.347 113.938L193.139 114.226L192.984 114.07L192.517 115.033L191.14 116.202L190.88 116.306L190.592 116.226L190.357 116.146V115.99L190.409 115.547L191.031 113.962L193.238 108.665L193.809 107.34L194.097 107L194.408 107.156L194.46 107.495L194.484 108.665L194.488 108.67Z" fill="#FDF001"/>
<path d="M43.3367 204.218L43.5206 203.855L43.5442 204.011L43.5725 204.35L43.3367 204.223V204.218ZM48.2702 193.394L45.728 199.52L45.261 200.586L45.0535 200.949L44.6101 201.157L44.5866 201.025L44.5583 200.61L45.2091 198.921L47.3127 193.884L47.9353 192.431L48.1947 192.016H48.223L48.3551 191.677L48.6664 191.337L48.6428 191.648L48.4872 192.012H48.6711L48.6475 192.299L48.2843 193.389L48.2702 193.394ZM47.5674 192.846L45.5157 197.752L45.1761 198.582L44.9922 198.945L44.7328 199.129L44.5771 198.818V198.322L44.7092 197.233L45.0205 195.441L45.7233 193.677L45.5676 193.596L45.5912 193.441L45.6431 193.153L46.0345 191.931L46.294 191.436L46.5298 191.384H46.7373L46.7137 191.62L46.8694 191.436L47.2609 191.252L47.3929 191.2L47.6287 191.356L47.8363 191.46V191.747L47.8599 192.035L47.5721 192.842L47.5674 192.846ZM44.662 203.723L44.7139 203.463L44.8177 203.331L44.8979 203.463L44.662 203.723ZM46.9213 205.383L46.143 207.123L45.7516 207.515L45.5676 207.647L45.4355 207.595L45.0441 207.468L44.912 207.128L45.2752 205.543L45.0677 205.44L44.8318 205.076L44.8082 204.737L45.1714 203.492L45.6902 202.817L45.8742 202.662H46.4213L46.4732 202.794L46.6571 203.185L46.577 203.548V203.577L46.9401 203.628L47.1477 203.761L47.3033 204.152L47.2514 204.411L46.9118 205.397L46.9213 205.383ZM49.1522 193.417L48.0344 196.091L47.3316 197.832L46.5534 199.676L46.3694 199.987L46.1619 199.935L46.0062 200.195L46.0581 200.039L46.0817 199.935H46.0581L46.1902 199.572L46.6854 198.351L48.7607 193.313L49.4635 191.729L49.8785 191.417L49.8502 191.549L49.7701 191.837L49.1475 193.422L49.1522 193.417ZM52.0859 192.922L51.02 195.389L50.1097 196.841L49.7182 198.45L49.0956 200.138L48.1853 201.643L47.9495 201.798L47.6382 201.77L47.4023 201.742L47.3222 201.534L47.1665 201.251L47.2184 200.992L47.3222 200.704L46.9826 200.732L46.6949 200.525L46.6713 200.317L46.6949 199.799L47.3175 198.19L49.7323 192.403L50.3313 191.158L50.619 190.766L50.9586 190.531L51.3501 190.582L51.5058 190.611L51.5293 190.766L51.6614 191.13L51.5812 191.441L51.5576 191.545L51.7935 191.441L52.0529 191.573L52.2368 191.653L52.2887 191.941L52.3123 192.2L52.0765 192.927L52.0859 192.922ZM48.973 206.916L48.2702 208.472L48.0344 208.836L47.8268 208.887L47.5674 208.968L47.5155 208.732L47.4354 208.444L47.591 207.925L47.7985 207.406L47.6665 207.383L47.5344 207.251L47.275 206.991V206.392L47.4071 206.001L48.2372 203.949L48.8362 202.676L49.0956 202.336L49.5908 202.1H49.9304L50.2417 202.204L50.5294 202.596L50.5011 202.855L50.1898 203.921L49.4635 205.685L49.3833 205.892L48.9682 206.906L48.973 206.916ZM55.1517 200.346L51.9869 207.954L51.2841 209.123L51.0766 209.331L50.6615 209.411L50.4257 209.331L50.1898 209.095L50.1663 208.859L50.2464 208.34L50.0389 208.369H49.8031L49.6474 208.161L49.4635 207.954L49.5154 207.671L49.7512 206.944L50.5813 204.921L50.9964 204.114L51.152 203.878L51.6473 203.643L51.9869 203.746L52.1708 203.827L52.3029 204.166L52.6943 203.595L52.982 201.959L53.5528 200.426H53.3971L53.1613 200.322L52.9254 199.959V199.671L53.1094 198.865L53.6565 197.591L54.0999 196.889L54.5951 196.577L55.0102 196.681L55.1422 196.705L55.1941 196.837L55.2979 197.252L55.246 197.459L55.0904 197.926H55.1941L55.4535 198.006L55.7129 198.294V198.841L55.6092 199.181L55.1658 200.35L55.1517 200.346ZM52.0623 199.516L51.5671 200.582L51.2558 201.025L50.9445 201.284L50.7605 201.129L50.6049 200.973L50.6568 200.685L50.6851 200.582L50.4257 200.501L50.2417 200.45L50.1615 200.242L50.0578 199.959L50.138 199.412L50.6049 198.27L51.3312 196.922L52.034 196.455L52.2934 196.351L52.501 196.379L52.8123 196.407L52.8924 196.615L52.9962 196.874L52.8405 197.497L52.3217 198.742L52.0623 199.52V199.516ZM54.3215 194.011L53.7508 195.337L53.515 195.752L53.383 195.936L53.0434 196.016L52.8877 195.912L52.7556 195.601L52.9396 195.054L53.0198 194.846L52.7839 194.742L52.5764 194.639L52.5245 194.403L52.4444 194.115L52.5764 193.568L53.3028 191.776L53.9537 190.554L54.397 190.215L54.7602 190.134L54.9677 190.106L55.2035 190.238L55.463 190.394L55.4865 190.682L55.1752 191.903L54.7319 192.993L54.7083 193.045L54.3168 194.007L54.3215 194.011ZM59.2787 203.072L58.1891 205.746L57.3071 207.562L56.7081 208.133L56.4723 208.288H55.9252L55.8969 208.133L55.7931 207.741L55.8969 207.402L55.845 207.505L55.3498 208.312L55.1422 208.52L54.7508 208.6L54.5149 208.548L54.2272 208.237L54.2791 208.001L54.147 208.208L53.9395 208.392L53.6801 208.496L53.3924 208.6L53.0811 208.52L52.8736 208.439L52.7934 208.255L52.6896 207.916L52.7415 207.628L53.3924 205.836L55.779 200.072L56.4817 198.412L56.8213 197.893L56.9251 197.709L57.4439 197.502L57.7835 197.629L58.0712 197.837L58.2552 198.2L58.2316 198.487L58.0241 199.294L58.208 199.162L58.4674 199.294L58.6749 199.398L58.7551 199.657L58.8353 199.917L58.8117 200.204L58.524 201.063L58.3684 201.454L58.5759 201.115L58.6797 201.086L58.8117 200.775L58.9957 200.464L58.9155 200.803L58.8117 201.039L58.9438 200.987L59.2032 201.067L59.439 201.35L59.4909 201.638L59.2834 203.067L59.2787 203.072ZM57.642 194.299L57.1232 195.417L56.9392 195.728L56.444 196.016L56.1044 195.964L55.8686 195.912L55.8167 195.78L55.6846 195.365L55.7365 195.106L55.7601 195.025L55.5762 195.106L55.2884 195.002L55.1045 194.922L55.0526 194.686L55.0007 194.375L55.1564 193.856L55.9346 191.936L56.378 191.078L56.5336 190.87L57.0006 190.559L57.2883 190.582L57.5241 190.611L57.6043 190.766L57.7599 191.106L57.708 191.446L57.6043 191.733L57.6326 191.705L57.8401 191.785L58.1278 192.2L58.1561 192.695L57.6373 194.304L57.642 194.299ZM59.0192 194.61L58.524 194.846L58.2646 194.61L58.2929 194.403L58.7363 193.181L59.1796 192.945L59.2032 193.078L59.2315 193.417V193.912L59.024 194.615L59.0192 194.61ZM59.8494 203.982V204.011L59.1985 205.878L58.8872 206.345L58.7551 206.529L58.8353 206.322L58.9909 205.958L58.6278 206.374L58.4438 206.27L58.2882 206.138L58.3401 205.954L58.524 205.435L59.3824 203.383L59.722 202.784L59.8777 202.68L59.9814 202.864L60.1135 203.048L60.0616 203.256L59.9295 203.751L60.0333 203.492L59.8777 203.987H59.8494V203.982Z" fill="#FDF001"/>
<path d="M65.9194 193.445L63.1178 200.223L62.4433 201.756L62.1839 202.015L61.8207 201.912V201.779L61.7971 201.416L61.8773 201.001L62.2405 199.78L62.5282 199.077L62.5046 198.945L62.4244 198.605L62.4763 197.049L63.231 194.011L64.0611 192.582L64.8393 191.804L65.127 191.596L65.5421 191.545L65.8015 191.804V191.832L65.9335 191.7L66.193 191.832L66.4005 191.936L66.3486 192.276L65.9335 193.445H65.9194ZM67.6079 192.172L67.5277 192.328L68.023 191.262L68.2069 191.026L68.4663 190.87L68.6739 190.743L68.8814 190.846L69.1408 190.974V191.337L68.7493 192.662L64.778 202.242L63.7922 204.525L63.6366 204.836L63.3253 205.043L63.1413 205.171L62.9857 205.043L62.7263 204.836L62.698 204.68L62.6744 204.265L62.9338 203.331L63.1178 202.888L62.8065 203.251L62.6225 203.171L62.4386 203.091L62.4103 202.855L62.4905 202.204L63.3489 200.1L66.2543 193.063L67.0608 191.375L67.5277 190.96L67.6834 191.092L67.839 191.247L67.7872 191.455L67.6032 192.158L67.6079 192.172ZM71.3482 191.988L70.7256 193.648L70.103 194.945L68.7541 196.737L68.4946 198.398L68.2588 199.464L67.556 201.256L66.4146 204.006L65.7402 205.666L65.2213 206.784L65.0374 207.071L64.5422 207.331L64.4101 207.279L64.0469 207.147L63.863 206.911L63.7073 206.675L63.679 206.439V205.869L63.9667 205.01L63.9432 205.091L63.7073 205.274L63.7309 205.039L63.863 204.492L64.877 202.053L68.2022 194.058L69.0087 192.087L69.2446 191.644L69.3248 191.46L69.5842 191.563L69.9473 191.045L70.1549 190.861L70.5699 190.757L70.702 190.733L71.0133 190.837L71.2727 191.021L71.4566 191.412L71.3529 191.983L71.3482 191.988ZM68.622 206.369L67.8956 208.081L67.5843 208.628L67.4523 208.784L67.0891 208.864L66.8533 208.784L66.6174 208.524V208.161L66.7731 207.666L66.4618 207.746L66.2543 207.798L66.0703 207.694L65.7826 207.51L65.7307 207.383L65.627 206.939L65.6789 206.576L66.226 205.072L67.7589 201.383L68.0984 200.553L68.3343 200.138L68.6739 199.902L68.8578 200.11L68.938 200.525L68.9663 201.511L68.8861 203.147L68.4192 204.341L68.5748 204.317L68.8107 204.397L69.0701 204.737L69.0465 205.1L68.6314 206.373L68.622 206.369ZM76.876 195.464L75.2393 199.435L72.4613 206.133L71.7585 207.845L71.3151 208.703L70.9756 209.067L70.6124 209.17L70.4048 209.251L70.2209 209.147L69.9096 208.991L69.8577 208.784L69.8341 208.265L69.5983 208.449L69.4144 208.552L69.1031 208.524H68.8673L68.7352 208.34L68.5512 208.104V207.897L68.6031 207.402L69.2776 205.661L70.0039 204.312L71.4331 202.86L71.7962 200.94L72.1075 198.992L73.381 195.799L74.1357 193.955L74.6026 192.865L75.1214 192.214L75.3289 192.03L75.744 192.082L75.9798 192.214L76.2157 192.577V192.917L75.9562 193.799L76.0081 193.747H76.5269L76.7109 193.955L76.8948 194.191L76.9467 194.474L76.8665 195.459L76.876 195.464ZM73.7347 194.011L72.9046 196.063L72.3575 197.336L72.0179 198.143L71.7585 198.662L71.3953 198.869L71.1595 198.685V198.558L71.2114 197.157L71.7302 195.573L71.6783 195.596L71.4425 195.516L71.1548 195.436L70.8152 195.021L70.7633 194.813L70.7114 194.474L70.8435 193.926L71.6217 192.007L72.0651 191.148L72.249 190.913L72.716 190.625L73.1074 190.677L73.3951 190.832L73.631 191.196V191.483L73.4753 192.106L73.5555 192.054L73.9989 192.186L74.1026 192.526L74.0791 193.021L73.7395 194.007L73.7347 194.011ZM77.0552 199.931L74.4847 206.109L73.8621 207.562L73.6263 208.029V207.614L73.315 208.213L73.0556 208.449L72.7443 208.552L72.5084 208.604L72.0651 208.317V208.161L72.0368 207.77L72.3764 206.859L73.0273 205.274L76.244 197.487L77.0222 195.643L77.4372 195.021L77.6448 195.101L77.9042 195.256L78.008 195.516L77.9561 197.412L77.5127 198.53V198.685L77.3807 199.1L77.0411 199.931H77.0552ZM78.4041 200.242L78.1966 202.397L77.574 204.086L77.7816 203.798L77.7533 203.954L77.7297 204.369L77.2627 205.51L77.0552 205.798L76.8996 205.642L76.4326 206.605L75.0554 207.774L74.796 207.878L74.5083 207.798L74.2724 207.718V207.562L74.3243 207.119L74.9469 205.534L77.1543 200.237L77.725 198.912L78.0127 198.572L78.324 198.728L78.3758 199.067L78.3994 200.237L78.4041 200.242Z" fill="#FDF001"/>
<path d="M116.656 62.971V152.817C116.656 153.671 115.962 154.364 115.109 154.364H10.547C9.69333 154.364 9 155.057 9 155.911V245.757C9 246.61 9.69333 247.304 10.547 247.304H221.222C222.076 247.304 222.769 246.61 222.769 245.757V62.971C222.769 62.1173 222.076 61.424 221.222 61.424H118.207C117.354 61.424 116.66 62.1173 116.66 62.971H116.656ZM101.553 225.381C101.553 230.937 97.0488 235.442 91.4927 235.442H32.6064C27.0503 235.442 22.546 230.937 22.546 225.381V176.296C22.546 170.74 27.0503 166.235 32.6064 166.235H91.4974C97.0535 166.235 101.558 170.74 101.558 176.296V225.381H101.553ZM130.206 83.3513C130.206 77.7951 134.711 73.2908 140.267 73.2908H199.158C204.714 73.2908 209.218 77.7951 209.218 83.3513V132.437C209.218 137.993 204.714 142.497 199.158 142.497H140.267C134.711 142.497 130.206 137.993 130.206 132.437V83.3513Z" fill="#001E7D"/>
<path d="M114.524 26.8799C118.868 27.9741 122.952 32.3558 124.773 36.53C126.593 40.7041 126.697 44.6566 126.141 49.194C125.801 51.9484 125.065 54.7359 124.584 57.3536C124.084 60.0798 125.329 63.8955 126.758 66.2538C127.301 67.1452 128.023 68.1074 127.763 69.1214C127.523 70.06 126.532 70.5694 125.612 70.8194C124.07 71.2392 122.429 71.2628 120.872 70.8996C120.391 70.7864 119.943 71.2014 120.004 71.7108C120.004 71.725 120.004 71.7438 120.009 71.758C120.066 72.2155 119.707 72.6164 119.264 72.5881C114.618 72.324 110.128 70.7203 105.727 69.1309C104.161 68.5649 102.529 67.9564 101.431 66.6877C100.827 65.9896 100.426 65.1359 100.044 64.287C98.5063 60.8722 97.1432 57.3772 95.9688 53.8115" fill="#FE40B4"/>
<path d="M94.5115 30.5353C97.9687 26.3092 102.615 23.8755 108.072 23.7858C111.152 23.734 112.425 24.3754 114.647 24.9744C116.863 25.5734 118.868 26.762 120.188 28.6439C121.759 30.8748 123.08 33.3746 123.377 36.0866C123.683 38.8741 123.99 41.6805 123.778 44.4727C123.566 47.2696 122.806 50.0854 121.16 52.3541L114.048 53.5898C110.119 53.7219 106.138 53.8539 102.308 52.9578C98.4828 52.0617 94.7615 50.0005 92.7145 46.647C89.8657 41.9871 91.0495 34.766 94.5068 30.54L94.5115 30.5353Z" fill="#FF9FDA"/>
<path d="M98.846 29.9644L108.331 26.1959L110.807 26.4836C116.382 26.5024 120.226 32.6528 120.264 37.1666C120.306 42.1803 120.155 48.3071 119.358 52.0049C117.755 59.4382 111.411 60.0561 111.411 60.0561C111.411 60.0561 111.34 66.5838 111.387 69.0789C106.468 72.5974 101.379 71.5456 96.6057 68.079L96.3416 32.5113C96.3887 31.1388 97.4782 30.0351 98.846 29.9644Z" fill="#FDF001" stroke="#00124C" stroke-miterlimit="10"/>
<path d="M116.519 43.2604C116.51 43.7698 116.071 44.1802 115.538 44.1802C115.01 44.1802 114.585 43.7698 114.595 43.2604C114.604 42.751 115.043 42.3407 115.576 42.3407C116.109 42.3407 116.528 42.7558 116.519 43.2604Z" fill="#00124C"/>
<path d="M118.688 40.8455C118.561 40.9587 117.839 40.4116 116.778 40.3691C115.722 40.3125 114.92 40.7889 114.811 40.6663C114.76 40.6097 114.892 40.3974 115.241 40.1805C115.585 39.9635 116.165 39.7654 116.825 39.7937C117.486 39.8267 118.028 40.0767 118.339 40.322C118.655 40.5672 118.754 40.7936 118.693 40.8408L118.688 40.8455Z" fill="#1A2E35"/>
<path d="M111.915 47.793C111.915 47.7316 112.562 47.6562 113.613 47.5807C113.878 47.5666 114.132 47.5288 114.189 47.3496C114.26 47.1609 114.165 46.8732 114.057 46.5572C113.845 45.9016 113.618 45.2177 113.387 44.5008C112.458 41.5765 111.802 39.1758 111.92 39.1428C112.038 39.1051 112.887 41.4492 113.816 44.3735C114.038 45.0951 114.25 45.7837 114.453 46.4393C114.538 46.7459 114.689 47.0949 114.533 47.4864C114.453 47.6798 114.25 47.8118 114.076 47.8496C113.901 47.892 113.755 47.8873 113.623 47.8873C112.571 47.8873 111.92 47.8543 111.92 47.7977L111.915 47.793Z" fill="#1A2E35"/>
<path d="M111.354 59.4289C111.354 59.4289 106.954 59.4713 102.751 56.6225C102.751 56.6225 104.827 61.2683 111.387 61.0183L111.354 59.4336V59.4289Z" fill="#FFF983"/>
<path d="M118.425 38.058C118.236 38.3033 117.453 38.091 116.524 38.1146C115.595 38.1146 114.812 38.341 114.623 38.1052C114.538 37.9873 114.651 37.7467 114.986 37.5109C115.316 37.2751 115.878 37.0723 116.514 37.0628C117.156 37.0534 117.717 37.2468 118.047 37.4732C118.387 37.6996 118.505 37.9401 118.42 38.058H118.425Z" fill="#FE40B4"/>
<path d="M104.534 43.0434C104.506 43.5528 104.916 43.9914 105.444 44.0292C105.973 44.0669 106.425 43.6849 106.454 43.1802C106.482 42.6708 106.072 42.2274 105.543 42.1897C105.015 42.152 104.562 42.534 104.534 43.0387V43.0434Z" fill="#00124C"/>
<path d="M103.982 40.3785C104.105 40.5247 104.935 39.9729 106.072 40.0389C107.208 40.0861 108.006 40.7181 108.138 40.586C108.204 40.5294 108.081 40.27 107.732 39.987C107.388 39.704 106.793 39.4163 106.086 39.3786C105.378 39.3456 104.77 39.572 104.411 39.8219C104.048 40.0719 103.916 40.3172 103.978 40.3785H103.982Z" fill="#1A2E35"/>
<path d="M105.52 36.7468C105.718 36.9873 106.524 36.7562 107.487 36.7609C108.449 36.7373 109.26 36.9496 109.453 36.709C109.538 36.5911 109.416 36.3553 109.062 36.1242C108.713 35.8978 108.133 35.7044 107.472 35.7091C106.812 35.7186 106.237 35.9214 105.897 36.1572C105.553 36.393 105.44 36.6336 105.525 36.7515L105.52 36.7468Z" fill="#FE40B4"/>
<path d="M112.002 53.3091C112.275 52.3143 111.973 51.3643 111.327 51.1872C110.682 51.0101 109.937 51.6729 109.664 52.6677C109.391 53.6625 109.694 54.6125 110.339 54.7896C110.985 54.9667 111.729 54.3038 112.002 53.3091Z" fill="#FF9FDA"/>
<path d="M106.449 50.5994C108.411 52.2737 111.053 52.5898 113.534 52.6794C113.708 52.6747 113.887 52.6794 114.066 52.6841C114.081 52.6841 114.09 52.6935 114.09 52.7077C111.604 53.335 107.841 52.835 106.449 50.5994Z" fill="#00124C"/>
<path d="M103.619 51.0381C104.338 51.0381 104.921 50.4552 104.921 49.7363C104.921 49.0173 104.338 48.4345 103.619 48.4345C102.9 48.4345 102.317 49.0173 102.317 49.7363C102.317 50.4552 102.9 51.0381 103.619 51.0381Z" fill="#FE40B4"/>
<path d="M117.406 51.5332C118.125 51.5332 118.708 50.9503 118.708 50.2314C118.708 49.5125 118.125 48.9296 117.406 48.9296C116.687 48.9296 116.104 49.5125 116.104 50.2314C116.104 50.9503 116.687 51.5332 117.406 51.5332Z" fill="#FE40B4"/>
<path d="M88.7666 37.9355C92.6531 30.0211 98.478 24.7621 108.892 24.3848L100.629 44.5245C96.7423 50.1702 96.747 57.0092 98.794 63.5511C99.3694 65.3811 100.143 67.4989 99.0676 69.0884C97.9875 70.6873 95.5019 70.7203 93.8794 69.6779C92.9974 69.1119 92.3135 68.329 91.7239 67.4611C91.3324 66.8857 90.5825 66.7112 89.9599 67.0178C89.9363 67.0272 89.9174 67.0367 89.8939 67.0461C89.1722 67.3385 88.3185 66.9848 87.8091 66.4046C87.295 65.8198 87.0545 65.0557 86.8611 64.3011C86.1772 61.6645 85.8942 58.9383 85.7621 56.2169C85.465 49.9816 86.0168 43.5435 88.7666 37.9402V37.9355Z" fill="#FE40B4"/>
<path d="M100.001 45.5621C100.02 45.0056 99.4214 43.6613 98.8742 43.5576C97.4074 43.2746 94.752 43.2982 94.5916 47.0384C94.3746 52.1512 99.5487 51.3163 99.5676 51.1701C99.5817 51.0569 99.9402 47.4912 100.006 45.5668L100.001 45.5621Z" fill="#FDF001"/>
<path d="M95.4312 41.7041L96.8508 43.27C96.9027 43.3266 96.9876 43.3407 97.0537 43.303C110.567 35.8225 115.448 24.0453 115.076 24.1679C115.033 24.182 114.986 24.1915 114.944 24.1773C114.297 23.9415 110.194 22.5265 105.798 23.1633C101.011 23.8566 91.9362 25.9602 92.1484 31.2003C92.356 36.2847 95.2378 41.3786 95.4123 41.6758C95.417 41.6852 95.4217 41.6946 95.4312 41.7041Z" fill="#FF9FDA"/>
<path d="M83.9415 70.5317L95.3038 66.2349C101.695 68.7017 107.147 67.7112 111.5 62.7069L124.551 64.4379C127.306 64.4945 132.069 70.277 135.701 76.4746C138.951 82.0212 141.507 87.6056 141.507 87.6056L126.329 93.275C125.466 99.7367 124.197 108.255 123.098 111.627C121.231 117.372 120.665 125.263 120.665 125.263L84.6019 120.565L84.0925 95.8125L72.2397 94.2702C72.2586 93.3976 76.8101 72.7343 83.9368 70.5364L83.9415 70.5317Z" fill="#5570C6"/>
<path d="M84.8519 80.4507C84.8519 80.4507 84.8472 80.6771 84.7858 81.0733C84.7245 81.4695 84.6443 82.0449 84.5547 82.7571C84.3755 84.1768 84.201 86.1531 84.201 88.3416C84.201 90.53 84.3802 92.5016 84.5642 93.926C84.6538 94.6382 84.7387 95.2136 84.8 95.6098C84.8613 96.006 84.8849 96.2277 84.866 96.2324C84.8472 96.2324 84.7905 96.0201 84.7009 95.6287C84.6066 95.2372 84.4981 94.6665 84.3849 93.9543C84.1538 92.5346 83.9463 90.5489 83.9463 88.3463C83.9463 86.1436 84.1491 84.158 84.3755 82.7383C84.4887 82.0261 84.5972 81.4554 84.6915 81.0639C84.7811 80.6724 84.8377 80.4555 84.8566 80.4602L84.8519 80.4507Z" fill="#00124C"/>
<path d="M72.7209 94.6146L84.4274 95.8833L84.2435 99.0953L86.847 95.3692L90.7759 103.515C90.7759 103.515 89.1911 108.274 88.3327 110.901C86.0452 117.943 82.3946 125.8 78.1214 125.315C72.9945 124.73 69.3674 118.561 69.5372 114.622C69.6881 111.042 72.7162 94.6193 72.7162 94.6193L72.7209 94.6146Z" fill="#FDF001"/>
<path d="M67.2356 141.308L46.9355 149.27L54.6518 158.609L71.9286 155.604L67.2356 141.308Z" fill="#FDF001"/>
<path d="M120.622 124.843C120.622 124.843 121.155 147.996 119.033 152.029C116.91 156.062 96.3838 156.213 96.3838 156.213L63.9999 157.859L60.2219 142.714C60.2219 142.714 83.7764 131.776 86.0121 130.517C88.243 129.253 93.5067 127.046 93.5067 127.046L101.426 116.858L120.627 124.852L120.622 124.843Z" fill="#FF9FDA"/>
<path d="M83.2012 156.482C83.2012 156.482 83.2861 156.444 83.4559 156.392C83.654 156.335 83.8992 156.265 84.2011 156.175C84.885 155.986 85.8189 155.727 86.9697 155.411C89.3516 154.779 92.6154 153.911 96.2849 152.939H96.2991H96.3226C96.8226 152.916 97.3509 152.925 97.8838 152.84C98.4027 152.798 98.8979 152.675 99.3931 152.581C99.8789 152.439 100.365 152.331 100.818 152.147C101.742 151.836 102.586 151.402 103.36 150.949C104.897 150.02 106.11 148.916 106.987 147.874C107.864 146.831 108.421 145.869 108.77 145.195C108.944 144.855 109.053 144.582 109.142 144.398C109.227 144.214 109.279 144.119 109.284 144.124C109.293 144.124 109.26 144.228 109.189 144.417C109.114 144.605 109.02 144.888 108.859 145.237C108.534 145.931 107.996 146.916 107.124 147.987C106.256 149.053 105.039 150.19 103.482 151.147C102.695 151.609 101.841 152.057 100.902 152.378C100.44 152.567 99.945 152.675 99.4544 152.821C98.9498 152.916 98.4404 153.043 97.9169 153.086C97.3744 153.171 96.832 153.161 96.3226 153.185H96.3557C92.6767 154.123 89.4082 154.958 87.0216 155.571C85.866 155.854 84.9227 156.09 84.2341 156.255C83.9275 156.326 83.6775 156.382 83.4794 156.43C83.3049 156.467 83.2153 156.482 83.2106 156.472L83.2012 156.482Z" fill="#00124C"/>
<path d="M84.1633 131.885L78.6496 98.1707C78.6496 98.1707 79.3807 73.904 65.7499 75.6397C52.1237 77.3754 53.7509 98.732 53.7509 98.732C53.7509 98.732 55.5149 128.008 56.4771 132.234C57.4393 136.46 57.9251 141.162 60.7126 142.855L73.0794 140.931L84.1586 131.889L84.1633 131.885Z" fill="#FF9FDA"/>
<path d="M73.5417 81.7807L76.815 89.747L74.7727 120.178C74.7727 120.178 57.2082 121.688 57.3733 121.206C57.5384 120.73 54.2226 106.052 54.2226 106.052C54.2226 106.052 53.1331 86.5727 58.3355 82.8608C63.5379 79.1441 73.5417 81.7854 73.5417 81.7854V81.7807Z" fill="#FF9FDA"/>
<path d="M74.0841 120.235L73.8577 134.762L61.5852 141.497L58.26 121.301L74.0841 120.235Z" fill="#FDF001"/>
<path d="M101.426 116.848L88.0261 111.33L80.0127 118.509L84.4557 132.833L96.2188 128.442L101.426 116.848Z" fill="#FF9FDA"/>
<path d="M60.9861 142.714C60.9861 142.714 61.038 142.681 61.1512 142.624C61.2738 142.563 61.4342 142.483 61.6417 142.379C62.0898 142.162 62.7218 141.851 63.5377 141.455C65.2027 140.658 67.5846 139.516 70.523 138.106C73.4803 136.696 76.9988 135.026 80.8994 133.168C82.8521 132.238 84.9038 131.267 87.031 130.258C88.0922 129.753 89.177 129.243 90.2759 128.72C90.8231 128.461 91.3796 128.196 91.9362 127.932C92.2145 127.8 92.4927 127.668 92.7757 127.536C93.054 127.404 93.3323 127.263 93.6389 127.173C94.8274 126.73 96.0632 126.498 97.2848 126.432C98.5064 126.366 99.7232 126.428 100.888 126.659C103.223 127.088 105.364 127.994 107.208 129.149C109.067 130.291 110.59 131.729 111.854 133.182C113.109 134.653 114.104 136.163 114.906 137.587C116.505 140.455 117.396 142.969 117.972 144.704C118.259 145.572 118.462 146.256 118.589 146.718C118.651 146.94 118.698 147.115 118.731 147.247C118.764 147.365 118.773 147.426 118.773 147.431C118.773 147.431 118.745 147.374 118.707 147.256C118.665 147.124 118.608 146.954 118.538 146.732C118.391 146.275 118.174 145.596 117.877 144.733C117.269 143.011 116.359 140.516 114.745 137.677C113.934 136.262 112.939 134.771 111.689 133.319C110.43 131.885 108.921 130.47 107.081 129.347C105.26 128.215 103.143 127.324 100.846 126.904C99.6996 126.678 98.5016 126.621 97.3036 126.687C96.1056 126.753 94.884 126.984 93.7332 127.413C93.436 127.498 93.1578 127.64 92.8795 127.772C92.6012 127.904 92.3182 128.036 92.0399 128.168C91.4834 128.432 90.9316 128.692 90.3797 128.951C89.2808 129.47 88.2007 129.979 87.1347 130.484C85.0075 131.489 82.9558 132.455 80.9985 133.38C77.0884 135.219 73.5652 136.875 70.6032 138.266C67.6506 139.643 65.2546 140.761 63.5849 141.54C62.7642 141.917 62.1228 142.209 61.67 142.417C61.4577 142.511 61.2927 142.582 61.17 142.639C61.0568 142.686 60.9955 142.709 60.9955 142.705L60.9861 142.714Z" fill="#00124C"/>
<path d="M86.5075 130.866C86.4509 130.866 86.5971 130.008 86.3566 128.663C86.1349 127.314 85.4321 125.55 84.4369 123.711C83.4417 121.872 82.5456 120.174 82.1352 118.843C81.923 118.183 81.8051 117.636 81.7532 117.254C81.7013 116.872 81.6966 116.655 81.7107 116.655C81.7579 116.646 81.8428 117.499 82.3097 118.787C82.7578 120.079 83.6681 121.744 84.668 123.588C85.6679 125.437 86.366 127.248 86.5405 128.635C86.6395 129.324 86.6395 129.89 86.6065 130.272C86.5735 130.658 86.5264 130.866 86.5122 130.866H86.5075Z" fill="#00124C"/>
<path d="M54.2226 106.052C54.2226 106.052 54.2415 106.104 54.2698 106.208C54.2981 106.326 54.3405 106.481 54.3877 106.675C54.4915 107.104 54.633 107.708 54.8169 108.472C55.1801 110.038 55.6989 112.302 56.3073 115.103C56.6092 116.504 56.9441 118.042 57.2648 119.702C57.3403 120.117 57.4252 120.537 57.4771 120.98C57.4771 121.046 57.4912 121.079 57.4865 121.169V121.23C57.4723 121.258 57.4959 121.206 57.4818 121.173C57.4582 121.136 57.4629 121.145 57.4582 121.14C57.4346 121.131 57.4771 121.14 57.4865 121.145C57.5808 121.164 57.6893 121.169 57.7978 121.173C58.0147 121.183 58.2364 121.183 58.4628 121.173C59.359 121.159 60.2834 121.107 61.2267 121.056C65.0141 120.829 69.1741 120.499 73.537 120.141C73.9567 120.108 74.3718 120.07 74.7585 120.037L74.6406 120.159C75.2255 111.703 75.749 104.104 76.1264 98.6C76.3292 95.8691 76.4895 93.657 76.6027 92.11C76.664 91.36 76.7112 90.7705 76.7442 90.3507C76.7631 90.162 76.7772 90.0111 76.7867 89.8932C76.7961 89.7894 76.8055 89.7375 76.8103 89.7375C76.8103 89.7375 76.815 89.7894 76.8103 89.8932C76.8103 90.0111 76.8008 90.162 76.7914 90.3507C76.7678 90.7705 76.7395 91.36 76.6971 92.1147C76.6027 93.6617 76.4659 95.8738 76.3009 98.6094C75.9424 104.114 75.4425 111.717 74.8906 120.178L74.8812 120.291L74.768 120.301C74.3812 120.334 73.9662 120.367 73.5464 120.405C69.1789 120.763 65.0188 121.089 61.2267 121.301C60.2787 121.353 59.3542 121.395 58.4534 121.409C58.227 121.409 58.0053 121.409 57.7789 121.4C57.6657 121.395 57.5572 121.39 57.4299 121.367C57.3874 121.353 57.3733 121.367 57.3073 121.32C57.2931 121.306 57.2837 121.31 57.2601 121.258C57.2507 121.235 57.2507 121.211 57.2507 121.188C57.2601 121.159 57.3261 121.188 57.2507 121.164V121.14C57.2507 121.14 57.2412 121.046 57.2412 121.004C57.1941 120.579 57.1139 120.155 57.0384 119.744C56.7318 118.089 56.4064 116.546 56.114 115.146C55.5197 112.349 55.0386 110.085 54.7037 108.495C54.5434 107.722 54.416 107.118 54.3264 106.684C54.2887 106.486 54.2556 106.33 54.2321 106.213C54.2132 106.104 54.2038 106.052 54.2085 106.047L54.2226 106.052Z" fill="#00124C"/>
<path d="M70.3958 79.4883C70.3958 79.4883 70.5467 79.5968 70.7872 79.8232C71.0325 80.0496 71.3626 80.3986 71.7541 80.8467C72.5371 81.7429 73.5181 83.0777 74.3577 84.6907C75.1972 86.3085 75.7302 87.8744 76.0132 89.03C76.1547 89.6054 76.2537 90.077 76.2962 90.4072C76.3433 90.7373 76.3622 90.9166 76.3481 90.9213C76.3056 90.9307 76.1641 90.2091 75.8387 89.0771C75.5132 87.9451 74.9614 86.4075 74.1313 84.8133C73.3012 83.2191 72.3578 81.8844 71.6173 80.9693C70.8768 80.0496 70.3675 79.5261 70.4005 79.4931L70.3958 79.4883Z" fill="#00124C"/>
<path d="M90.4553 127.022C90.4553 127.022 90.4695 126.843 90.5402 126.536C90.611 126.23 90.7289 125.786 90.8987 125.244C91.2335 124.164 91.7901 122.697 92.5778 121.155C93.3654 119.612 94.2286 118.301 94.9078 117.395C95.2473 116.943 95.5303 116.584 95.7426 116.348C95.9501 116.108 96.0727 115.985 96.0869 115.995C96.1199 116.023 95.6954 116.575 95.0587 117.504C94.422 118.433 93.5918 119.749 92.8136 121.272C92.0354 122.801 91.4552 124.244 91.0779 125.3C90.7006 126.362 90.4978 127.027 90.46 127.017L90.4553 127.022Z" fill="#00124C"/>
<path d="M112.491 125.263C112.534 125.248 112.708 125.772 113.076 126.579C113.444 127.385 113.151 131.191 114.854 129.526C116.552 127.861 116.571 131.437 117.255 131.993C117.939 132.554 118.401 132.856 118.377 132.894C118.368 132.908 118.245 132.847 118.024 132.724C117.802 132.602 117.5 132.403 117.137 132.139C116.415 131.611 115.481 130.772 114.642 129.687C113.802 128.597 113.232 127.484 112.901 126.649C112.736 126.234 112.623 125.89 112.562 125.645C112.496 125.404 112.472 125.267 112.486 125.263H112.491Z" fill="#00124C"/>
<path d="M47.2325 158.83C39.6719 158.444 37.7617 158.684 30.1963 158.297C28.3474 158.203 21.631 158.439 20.084 157.42C18.6784 156.496 16.872 155.628 16.5041 153.987C15.8815 151.218 16.6503 148.081 19.1973 146.346C20.0746 145.747 21.1122 145.412 22.1687 145.327C26.6353 144.968 30.7198 148.232 35.1864 147.265C36.3939 147.006 37.4787 146.332 38.6767 146.044C40.4312 145.624 42.3037 146.063 43.9074 146.888C45.511 147.714 45.8836 147.855 45.8836 147.855L53.831 145.162L56.3166 159.066L47.2325 158.83Z" fill="#FE40B4"/>
<path d="M47.2325 158.83C39.6719 158.444 37.7617 158.684 30.1963 158.297C28.3474 158.203 21.631 158.439 20.084 157.42C18.6784 156.496 16.872 155.628 16.5041 153.987C15.8815 151.218 16.6503 148.081 19.1973 146.346C20.0746 145.747 21.1122 145.412 22.1687 145.327C26.6353 144.968 30.7198 148.232 35.1864 147.265C36.3939 147.006 37.4787 146.332 38.6767 146.044C40.4312 145.624 42.3037 146.063 43.9074 146.888C45.511 147.714 45.8836 147.855 45.8836 147.855L53.831 145.162L56.3166 159.066L47.2325 158.83Z" fill="black" fill-opacity="0.2"/>
<path d="M53.9725 141.884L49.7936 143.247C49.1521 143.454 48.7748 144.115 48.921 144.77L52.1519 159.679C52.2934 160.335 52.9112 160.778 53.581 160.703L57.8306 160.231C58.5994 160.146 59.1277 159.415 58.9673 158.661L55.6657 142.86C55.5053 142.096 54.7177 141.638 53.9725 141.884Z" fill="#FE40B4"/>
<path d="M53.9725 141.884L49.7936 143.247C49.1521 143.454 48.7748 144.115 48.921 144.77L52.1519 159.679C52.2934 160.335 52.9112 160.778 53.581 160.703L57.8306 160.231C58.5994 160.146 59.1277 159.415 58.9673 158.661L55.6657 142.86C55.5053 142.096 54.7177 141.638 53.9725 141.884Z" fill="black" fill-opacity="0.2"/>
<path d="M52.2464 160.264C52.1993 160.278 51.8974 159.425 51.4729 158.029C51.0484 156.633 50.5108 154.685 50.0344 152.506C49.558 150.326 49.2373 148.331 49.0675 146.879C48.9826 146.152 48.926 145.563 48.8977 145.157C48.8694 144.752 48.8694 144.52 48.8977 144.52C48.9496 144.516 49.0864 145.407 49.3222 146.846C49.558 148.284 49.9118 150.26 50.3881 152.43C50.8645 154.6 51.3645 156.548 51.7229 157.963C52.0861 159.373 52.303 160.25 52.2512 160.264H52.2464Z" fill="#1A2E35"/>
<path d="M49.6239 146.671C49.5578 146.615 50.8313 145.553 52.784 145.256C54.7366 144.935 56.2742 145.553 56.227 145.629C56.2035 145.737 54.6942 145.303 52.8358 145.615C50.9775 145.893 49.6757 146.775 49.6191 146.676L49.6239 146.671Z" fill="#00124C"/>
<path d="M50.119 152.298C50.0907 152.204 51.6519 151.652 53.6329 151.19C55.6185 150.727 57.2599 150.539 57.2788 150.633C57.2976 150.732 55.6893 151.081 53.7178 151.539C51.7462 151.996 50.1473 152.392 50.119 152.298Z" fill="#00124C"/>
<path d="M52.0248 158.128C52.0248 158.014 53.652 158.208 55.4396 157.444C57.2413 156.713 58.2506 155.42 58.3308 155.501C58.3638 155.524 58.1657 155.883 57.7035 156.354C57.246 156.826 56.5055 157.382 55.5764 157.774C54.6425 158.161 53.7227 158.293 53.0671 158.283C52.4068 158.279 52.0153 158.17 52.0201 158.128H52.0248Z" fill="#00124C"/>
<path d="M74.4001 130.121L74.0841 136.403L61.5474 142.421L59.458 131.932L74.4001 130.121Z" fill="#FE40B4"/>
<path d="M57.3827 128.239L58.3213 132.616C58.4628 133.286 59.0901 133.738 59.774 133.663L75.2207 131.97C75.8999 131.894 76.414 131.319 76.4093 130.63L76.381 126.277C76.3763 125.489 75.6924 124.876 74.9094 124.956L58.5524 126.63C57.76 126.711 57.2176 127.461 57.3827 128.239Z" fill="#FE40B4"/>
<path d="M75.8197 131.937C75.8292 131.984 74.933 132.201 73.4756 132.484C72.0135 132.767 69.9853 133.102 67.7308 133.356C65.4716 133.611 63.4152 133.719 61.9295 133.738C61.1842 133.748 60.5852 133.743 60.1655 133.724C59.7504 133.71 59.5193 133.686 59.5193 133.663C59.5193 133.606 60.439 133.569 61.92 133.479C63.401 133.394 65.4433 133.243 67.6931 132.988C69.9382 132.734 71.9663 132.437 73.4379 132.224C74.9047 132.007 75.815 131.88 75.8244 131.932L75.8197 131.937Z" fill="#00124C"/>
<path d="M61.7738 133.153C61.7078 133.215 60.7692 131.814 60.6748 129.8C60.5569 127.786 61.3446 126.296 61.4153 126.347C61.5238 126.38 60.9248 127.866 61.038 129.776C61.1276 131.691 61.8776 133.102 61.7738 133.149V133.153Z" fill="#00124C"/>
<path d="M67.5232 133.248C67.4288 133.267 67.0279 131.63 66.7732 129.569C66.5138 127.508 66.4949 125.824 66.594 125.819C66.6978 125.815 66.877 127.479 67.1364 129.526C67.3911 131.573 67.6269 133.234 67.5232 133.253V133.248Z" fill="#00124C"/>
<path d="M73.6311 131.932C73.5179 131.918 73.8811 130.291 73.301 128.399C72.7491 126.494 71.5511 125.338 71.6407 125.263C71.669 125.23 72.0086 125.47 72.4378 125.989C72.867 126.503 73.3529 127.31 73.65 128.295C73.9424 129.281 73.9754 130.225 73.9 130.89C73.8245 131.555 73.6736 131.946 73.6311 131.932Z" fill="#00124C"/>
<path d="M102.318 83.9975C102.318 83.9975 95.9124 84.8984 95.5021 85.2946C95.0917 85.6908 86.8472 95.3692 86.8472 95.3692L90.7761 103.515C90.7761 103.515 97.2991 100.156 98.0443 99.7697C98.7895 99.383 100.346 99.0764 100.346 99.0764C100.346 99.0764 107.624 98.0859 108.114 97.2228C108.605 96.3596 108.341 96.1521 107.803 96.0059C107.27 95.8597 102.917 96.2653 101.95 96.4209C100.978 96.5766 99.0631 96.3596 99.0631 96.3596C99.0631 96.3596 102.091 95.7182 102.78 95.4965C103.468 95.2701 110.246 93.907 110.166 92.6949C110.086 91.4827 109.251 91.0252 105.006 92.0817C100.756 93.1382 97.8603 93.0769 97.8603 93.0769L107.265 90.0158C107.265 90.0158 111.053 88.8839 109.864 87.7849C108.675 86.686 100.568 88.7329 100.568 88.7329L96.9783 90.0017L98.0301 87.8745C98.0301 87.8745 103.124 86.4784 103.784 85.9879C104.6 85.3795 104.728 84.7993 104.133 84.2664C103.539 83.7334 102.322 83.9975 102.322 83.9975H102.318Z" fill="#FDF001"/>
<path d="M124.188 73.8004C124.188 73.8004 124.197 74.0598 124.273 74.5173C124.358 75.0408 124.466 75.687 124.594 76.4558C124.867 78.0924 125.226 80.3564 125.551 82.8656C125.877 85.3748 126.108 87.6529 126.263 89.3084C126.339 90.0819 126.4 90.7375 126.447 91.2658C126.494 91.728 126.527 91.9827 126.551 91.9827C126.575 91.9827 126.579 91.7233 126.57 91.2611C126.56 90.7941 126.532 90.1244 126.485 89.2943C126.386 87.634 126.188 85.3465 125.862 82.8279C125.537 80.3139 125.141 78.05 124.811 76.4181C124.645 75.6021 124.504 74.9465 124.391 74.4937C124.282 74.0409 124.212 73.7956 124.188 73.8004Z" fill="#00124C"/>
<path d="M98.9121 75.7765L100.78 93.69C100.841 94.2985 101.379 94.7418 101.987 94.6947L113.085 93.8079C113.699 93.7608 114.161 93.2231 114.118 92.6099L112.788 73.7767C112.741 73.1211 112.147 72.6447 111.496 72.7438L99.8554 74.5455C99.2611 74.6351 98.8461 75.1775 98.9074 75.7718L98.9121 75.7765Z" fill="#FE40B4"/>
<path d="M108.284 81.7429C108.284 81.7429 114.75 81.5825 115.222 81.9033C115.694 82.224 125.41 90.4214 125.41 90.4214L122.868 99.0999C122.868 99.0999 115.882 96.8548 115.081 96.5954C114.279 96.336 112.699 96.2888 112.699 96.2888C112.699 96.2888 105.355 96.5058 104.732 95.7322C104.11 94.9587 104.336 94.7135 104.841 94.4823C105.346 94.2512 109.704 93.9352 110.685 93.9305C111.671 93.9305 113.524 93.3975 113.524 93.3975C113.524 93.3975 110.435 93.2655 109.718 93.1523C109.006 93.0438 102.091 92.808 101.973 91.6005C101.855 90.3931 102.601 89.8035 106.963 90.1478C111.326 90.4921 114.175 89.9592 114.175 89.9592L104.393 88.4782C104.393 88.4782 100.473 87.9829 101.464 86.7047C102.454 85.4266 110.789 86.1152 110.789 86.1152L114.538 86.7802L113.152 84.8511C113.152 84.8511 107.897 84.3087 107.166 83.9314C106.261 83.4645 106.044 82.9126 106.539 82.29C107.039 81.6674 108.284 81.7288 108.284 81.7288V81.7429Z" fill="#FDF001"/>
<path d="M139.027 88.5301L128.188 92.5769L128.386 94.0815L125.122 90.1998L122.113 98.0151C122.113 98.0151 127.155 107.925 128.245 110.467C131.386 117.801 136.937 121.645 140.918 120.013C145.691 118.061 148.464 113 146.276 107.392C144.974 104.052 139.027 88.5301 139.027 88.5301Z" fill="#FDF001"/>
<path d="M125.405 90.4215C125.405 90.4215 125.32 90.3366 125.141 90.1809C124.952 90.0206 124.688 89.7895 124.344 89.4923C123.632 88.8839 122.599 88.0019 121.273 86.8699C119.934 85.7379 118.297 84.3607 116.401 82.7618C116.16 82.5637 115.92 82.3609 115.67 82.1581C115.547 82.0543 115.42 81.9552 115.288 81.8515C115.118 81.7524 114.939 81.743 114.779 81.7147C114.114 81.644 113.43 81.6298 112.727 81.6157C111.321 81.5921 109.836 81.6062 108.279 81.6392H108.289C107.897 81.6298 107.501 81.6723 107.114 81.8043C106.921 81.8703 106.732 81.9694 106.572 82.1156C106.411 82.2713 106.298 82.4411 106.223 82.6533C106.147 82.8655 106.166 83.1202 106.279 83.3183C106.392 83.5164 106.558 83.6674 106.727 83.7947C106.907 83.9173 107.076 84.0305 107.298 84.1013C107.506 84.1673 107.713 84.2145 107.921 84.2569C109.586 84.5729 111.331 84.771 113.142 84.9691L113.062 84.922C113.491 85.521 113.967 86.1813 114.448 86.851L114.566 86.6671C113.397 86.4596 112.118 86.2332 110.821 86.0021H110.812C109.237 85.8794 107.624 85.804 105.968 85.8134C105.143 85.8228 104.308 85.8464 103.463 85.9407C103.044 85.9926 102.619 86.0539 102.199 86.1766C101.992 86.2426 101.78 86.3134 101.582 86.4501C101.383 86.5916 101.223 86.7944 101.195 87.068C101.171 87.3557 101.365 87.5774 101.539 87.7189C101.723 87.8604 101.926 87.9641 102.129 88.0538C102.539 88.2283 102.964 88.3415 103.393 88.4405C104.256 88.6292 105.124 88.7188 105.996 88.865C107.741 89.1291 109.505 89.398 111.293 89.6668C112.26 89.813 113.222 89.9593 114.17 90.1008V89.8461C111.934 90.1904 109.675 90.2045 107.496 90.0677C106.402 89.9923 105.308 89.9027 104.223 89.9545C103.68 89.9828 103.133 90.03 102.61 90.2517C102.355 90.3602 102.096 90.5488 101.968 90.8271C101.841 91.1054 101.832 91.3884 101.874 91.6808C101.912 91.8647 102.039 91.9732 102.152 92.0581C102.27 92.143 102.393 92.2091 102.515 92.2609C102.765 92.3694 103.02 92.4496 103.27 92.5156C103.78 92.6477 104.289 92.7373 104.794 92.8128C105.808 92.9637 106.812 93.058 107.798 93.1335C108.293 93.1712 108.779 93.2042 109.265 93.242C109.741 93.275 110.227 93.3505 110.708 93.3741C111.666 93.4401 112.604 93.4825 113.524 93.525L113.496 93.3033C112.453 93.5769 111.42 93.8504 110.392 93.8457C109.35 93.8882 108.336 93.9683 107.35 94.0532C106.855 94.0957 106.369 94.1476 105.888 94.2042C105.647 94.2325 105.407 94.2655 105.171 94.3079C105.053 94.3315 104.93 94.3551 104.803 94.4023C104.695 94.4541 104.581 94.5107 104.478 94.5909C104.374 94.6664 104.279 94.7985 104.265 94.9494C104.251 95.0956 104.298 95.2229 104.35 95.3361C104.402 95.4493 104.473 95.5484 104.539 95.6474L104.647 95.7889C104.685 95.8314 104.751 95.8974 104.803 95.921C105.251 96.1474 105.704 96.1757 106.143 96.2417C107.911 96.4257 109.567 96.4162 111.1 96.4115C111.482 96.4068 111.859 96.3974 112.222 96.3927C112.59 96.3785 112.939 96.3785 113.288 96.4115C113.981 96.4634 114.651 96.5247 115.245 96.7322C117.66 97.4963 119.561 98.0953 120.868 98.5057C121.509 98.7038 122.009 98.8594 122.353 98.9632C122.514 99.0103 122.641 99.0481 122.735 99.0764C122.82 99.1 122.867 99.1141 122.867 99.1094C122.867 99.1094 122.825 99.0905 122.74 99.0575C122.646 99.0245 122.523 98.982 122.363 98.9254C122.018 98.8122 121.528 98.6472 120.886 98.4349C119.585 98.0104 117.689 97.3878 115.283 96.6002C114.052 96.1898 112.614 96.2181 111.095 96.2464C109.567 96.2464 107.911 96.2464 106.161 96.0531C105.737 95.9917 105.265 95.9399 104.897 95.7512C104.845 95.7276 104.831 95.704 104.794 95.6663L104.695 95.5342C104.633 95.4446 104.567 95.3503 104.525 95.256C104.426 95.0579 104.421 94.8692 104.595 94.7513C104.676 94.69 104.775 94.6381 104.878 94.5862C104.973 94.5532 105.086 94.5296 105.199 94.506C105.43 94.4683 105.666 94.4353 105.902 94.407C106.378 94.3504 106.864 94.3032 107.359 94.2608C108.345 94.1759 109.359 94.1051 110.392 94.0627C111.449 94.0721 112.5 93.7985 113.552 93.525C113.614 93.5108 113.647 93.4495 113.632 93.3882C113.618 93.341 113.576 93.308 113.529 93.3033C112.609 93.2608 111.67 93.2137 110.722 93.1477C110.241 93.1241 109.779 93.0533 109.284 93.0156C108.798 92.9779 108.307 92.9401 107.817 92.9024C106.831 92.8222 105.831 92.7279 104.831 92.577C104.331 92.5015 103.827 92.4119 103.331 92.2798C103.086 92.2138 102.841 92.1383 102.615 92.0393C102.402 91.9402 102.143 91.8034 102.115 91.6336C102.082 91.412 102.091 91.1431 102.19 90.9403C102.284 90.7328 102.482 90.5866 102.709 90.4875C103.166 90.2894 103.704 90.2375 104.232 90.2139C105.298 90.1668 106.378 90.2564 107.473 90.3319C109.675 90.4686 111.93 90.4592 114.208 90.1102C114.279 90.1007 114.326 90.0347 114.316 89.964C114.307 89.9074 114.264 89.8649 114.208 89.8555C113.26 89.7093 112.298 89.5678 111.331 89.4216C109.543 89.1527 107.774 88.8839 106.029 88.6198C105.157 88.4783 104.284 88.3839 103.445 88.2C103.025 88.1056 102.61 87.9925 102.228 87.8321C102.034 87.7519 101.85 87.6576 101.695 87.5349C101.544 87.4123 101.431 87.2614 101.445 87.1057C101.483 86.7567 101.874 86.5445 102.265 86.4407C102.662 86.3228 103.072 86.2615 103.487 86.2143C104.312 86.12 105.143 86.0964 105.963 86.087C107.605 86.0775 109.218 86.153 110.784 86.2662H110.774C112.076 86.4926 113.349 86.719 114.524 86.9265C114.59 86.9359 114.651 86.8935 114.661 86.8322C114.665 86.7992 114.661 86.7661 114.642 86.7426C114.161 86.0728 113.684 85.4125 113.25 84.8182C113.232 84.7899 113.198 84.7758 113.17 84.771C111.368 84.5729 109.614 84.3843 107.973 84.0777C107.77 84.0353 107.567 83.9928 107.378 83.9315C107.204 83.8749 107.02 83.7617 106.864 83.6532C106.543 83.4363 106.298 83.0919 106.43 82.7476C106.548 82.3986 106.841 82.1345 107.194 82.026C107.543 81.9034 107.93 81.8609 108.289 81.8703H108.293C109.845 81.8326 111.331 81.8138 112.732 81.8279C113.43 81.8373 114.114 81.8515 114.764 81.9128C114.925 81.9364 115.085 81.9505 115.198 82.0166C115.326 82.1156 115.448 82.2147 115.576 82.3137C115.826 82.5165 116.066 82.7146 116.307 82.9127C118.212 84.4975 119.858 85.8606 121.207 86.9831C122.547 88.0962 123.594 88.9641 124.315 89.5631C124.669 89.8508 124.938 90.0725 125.131 90.2281C125.315 90.379 125.414 90.4498 125.414 90.4498L125.405 90.4215Z" fill="#00124C"/>
<path d="M125.405 90.4214C125.339 90.478 128.391 94.3362 132.216 99.0386C136.046 103.746 139.206 107.514 139.272 107.462C139.338 107.406 136.291 103.548 132.456 98.8452C128.627 94.1381 125.466 90.3696 125.4 90.4262L125.405 90.4214Z" fill="#00124C"/>
<path d="M191.301 180.087L191.211 173.629C191.198 172.654 192.308 172.09 193.084 172.672L198.266 176.53C198.575 176.762 198.981 176.825 199.348 176.701L205.465 174.62C206.387 174.304 207.266 175.184 206.953 176.107L204.886 182.226C204.763 182.589 204.827 182.993 205.059 183.302L208.93 188.475C209.512 189.256 208.95 190.363 207.975 190.355L201.515 190.281C201.129 190.276 200.764 190.464 200.541 190.779L196.818 196.054C196.257 196.851 195.029 196.656 194.737 195.728L192.811 189.561C192.695 189.19 192.407 188.905 192.037 188.791L185.866 186.879C184.936 186.591 184.74 185.361 185.536 184.797L190.807 181.062C191.121 180.838 191.307 180.473 191.301 180.087Z" fill="#FDF001"/>
<path d="M133.294 210.688L133.204 204.23C133.191 203.256 134.301 202.691 135.077 203.273L140.259 207.131C140.568 207.363 140.974 207.426 141.341 207.302L147.458 205.221C148.379 204.906 149.259 205.785 148.946 206.708L146.879 212.827C146.756 213.19 146.82 213.594 147.052 213.903L150.923 219.077C151.505 219.857 150.943 220.964 149.968 220.956L143.508 220.882C143.122 220.878 142.757 221.065 142.534 221.38L138.811 226.655C138.25 227.452 137.022 227.258 136.73 226.329L134.804 220.162C134.688 219.791 134.399 219.506 134.03 219.392L127.859 217.48C126.929 217.192 126.733 215.962 127.529 215.399L132.8 211.663C133.114 211.439 133.3 211.074 133.294 210.688Z" fill="#FDF001"/>
<path d="M156.985 185.536L156.89 178.552C156.873 177.5 158.075 176.887 158.918 177.514L164.52 181.684C164.854 181.934 165.29 182.002 165.688 181.867L172.302 179.615C173.297 179.277 174.25 180.225 173.913 181.224L171.678 187.842C171.545 188.238 171.615 188.675 171.861 189.009L176.045 194.604C176.675 195.445 176.066 196.646 175.015 196.635L168.03 196.555C167.612 196.552 167.218 196.754 166.976 197.095L162.948 202.803C162.34 203.663 161.015 203.455 160.698 202.449L158.616 195.783C158.491 195.385 158.176 195.071 157.781 194.949L151.109 192.886C150.102 192.574 149.892 191.245 150.75 190.638L156.447 186.598C156.788 186.354 156.986 185.962 156.983 185.542L156.985 185.536Z" fill="#FDF001"/>
</g>
</g>
<defs>
<filter id="filter0_d_47_2375" x="0" y="0" width="260" height="260" filterUnits="userSpaceOnUse" color-interpolation-filters="sRGB">
<feFlood flood-opacity="0" result="BackgroundImageFix"/>
<feColorMatrix in="SourceAlpha" type="matrix" values="0 0 0 0 0 0 0 0 0 0 0 0 0 0 0 0 0 0 127 0" result="hardAlpha"/>
<feOffset dx="8" dy="7"/>
<feGaussianBlur stdDeviation="5"/>
<feComposite in2="hardAlpha" operator="out"/>
<feColorMatrix type="matrix" values="0 0 0 0 0 0 0 0 0 0 0 0 0 0 0 0 0 0 0.25 0"/>
<feBlend mode="normal" in2="BackgroundImageFix" result="effect1_dropShadow_47_2375"/>
<feBlend mode="normal" in="SourceGraphic" in2="effect1_dropShadow_47_2375" result="shape"/>
</filter>
</defs>
</svg>
