<svg width="390" height="600" viewBox="0 0 390 600" fill="none" xmlns="http://www.w3.org/2000/svg">
<g clip-path="url(#clip0_630_2927)">
<path d="M374.25 90.69C372.05 79.25 369.98 68.45 369.38 58.59C366.38 9.38 389.77 1.29 390.01 1.21L389.83 0C389.58 0.08 383.63 2.05 377.99 10.3C368.58 24.05 367.66 44.21 368.54 58.7C369.15 68.67 371.23 79.52 373.44 91.02C377.62 112.78 382.25 136.89 379.48 164.79C376.93 138.85 368.08 116.12 360.27 88.73C342.95 28.02 371.68 0.61 371.68 0.61H0C9.63 65.56 32.62 75.38 50.46 92.78C56.46 105.38 60.17 119.27 58.67 136.84C56.69 160.02 44.35 181.85 32.41 202.97C28.64 209.65 24.92 216.23 21.56 222.76C5.17 248.2 -4 275.38 17.64 306.14C18.57 308.34 19.48 310.39 20.37 312.36C27.98 329.4 33.48 341.72 26.8 404.39C22.82 441.76 28.09 472.46 42.04 493.18C52.28 508.38 66.98 517.86 84.25 520.91C102.99 528.82 125.32 525.52 145.18 517.45C176.77 504.61 210.11 505.39 241.81 517.62C254.99 522.7 270.47 527.09 286.28 524.19C308.2 521.86 330.98 504.78 344.87 479.04C356.39 457.7 367.19 420.86 353.26 366.52C345.58 336.54 343.7 312.96 345.12 293.15C345.89 291.38 346.72 289.63 347.63 287.89C375.03 235.2 381.95 199.75 379.83 169.21C383.57 139.26 378.66 113.67 374.24 90.68L374.25 90.69ZM33.07 203.76C45.08 182.51 57.5 160.54 59.51 137C60.94 120.24 57.75 106.82 52.37 94.7C59.53 102.11 65.72 111.18 69.63 126.26C77.29 155.77 48.35 184.26 26.7 215.13C28.76 211.37 30.9 207.58 33.06 203.76H33.07ZM42.65 492.32C28.89 471.89 23.71 441.56 27.64 404.59C34.36 341.45 28.79 328.97 21.08 311.7C20.75 310.97 20.42 310.23 20.09 309.48C20.32 309.78 20.55 310.08 20.78 310.38C60.82 361.18 16.92 444.99 62.49 503.93C67.52 510.44 73.3 515.25 79.56 518.67C64.56 514.86 51.79 505.91 42.65 492.33V492.32ZM352.47 366.96C366.26 420.76 355.59 457.19 344.21 478.28C333.57 498 317.65 512.58 300.94 519.23C305.66 516.84 310.35 513.62 314.96 509.39C380.17 449.67 317.17 362.99 344.08 295.64C343 315.06 345.06 338.05 352.47 366.95V366.96Z" fill="url(#paint0_linear_630_2927)"/>
<path d="M30.0801 596.01H363.83C363.83 596.01 341.26 524.92 262.12 539.97C262.12 539.97 194.98 571.87 124.88 539.97C124.88 539.97 65.2101 526.41 30.0801 596.01Z" fill="#FE40B4"/>
<path d="M260.922 468.77C262.463 462.284 258.456 455.777 251.97 454.236C245.485 452.695 238.978 456.702 237.436 463.188C235.895 469.673 239.903 476.18 246.388 477.722C252.874 479.263 259.381 475.255 260.922 468.77Z" fill="#FDF001" stroke="url(#paint1_linear_630_2927)" stroke-width="0.5" stroke-miterlimit="10"/>
<path d="M249.17 476.31C249.6 476.45 249.86 476.6 249.93 477.05L250.21 477.94C250.3 478.23 250.55 478.99 250.64 479.27C250.54 479.46 250.45 479.66 250.31 479.87C250.07 479.78 249.89 479.68 249.7 479.58C249.61 479.3 249.37 478.54 249.27 478.25L248.99 477.36C248.78 476.96 248.9 476.68 249.18 476.32L249.17 476.31Z" fill="url(#paint2_linear_630_2927)"/>
<path d="M252.16 475.6C252.65 475.75 252.93 475.96 253.04 476.44L253.47 477.47C253.61 477.81 253.98 478.69 254.11 479.02C254.04 479.25 253.98 479.48 253.87 479.72C253.62 479.62 253.41 479.51 253.2 479.39C253.06 479.07 252.7 478.18 252.56 477.84L252.13 476.81C251.87 476.39 251.92 476.04 252.16 475.59V475.6Z" fill="url(#paint3_linear_630_2927)"/>
<path d="M254.86 474.75C255.29 474.76 255.58 474.81 255.74 475.21L256.2 475.94C256.35 476.18 256.75 476.8 256.89 477.03C256.84 477.23 256.79 477.43 256.7 477.66C256.46 477.64 256.26 477.6 256.05 477.56C255.9 477.33 255.51 476.7 255.36 476.47L254.9 475.74C254.61 475.42 254.68 475.14 254.86 474.75Z" fill="url(#paint4_linear_630_2927)"/>
<path d="M151.993 474.48C156.706 469.766 156.706 462.124 151.993 457.41C147.279 452.696 139.637 452.696 134.923 457.41C130.21 462.124 130.21 469.766 134.923 474.48C139.637 479.193 147.279 479.193 151.993 474.48Z" fill="#FDF001" stroke="url(#paint5_linear_630_2927)" stroke-width="0.5" stroke-miterlimit="10"/>
<path d="M136.19 473.47C136.25 473.98 136.17 474.33 135.77 474.64L134.99 475.47C134.73 475.74 134.07 476.45 133.82 476.72C133.58 476.76 133.34 476.8 133.07 476.8C133.06 476.53 133.07 476.29 133.1 476.05C133.34 475.79 134.01 475.07 134.27 474.8L135.05 473.97C135.33 473.56 135.68 473.45 136.19 473.48V473.47Z" fill="url(#paint6_linear_630_2927)"/>
<path d="M135.44 478.02C135.36 477.48 135.45 477.11 135.84 476.76L136.62 475.81C136.88 475.5 137.54 474.69 137.79 474.38C138.04 474.32 138.28 474.25 138.56 474.22C138.58 474.5 138.56 474.75 138.56 475.01C138.32 475.31 137.65 476.12 137.39 476.44L136.61 477.39C136.34 477.84 135.99 478 135.45 478.03L135.44 478.02Z" fill="url(#paint7_linear_630_2927)"/>
<path d="M138.77 479.16C138.5 478.74 138.42 478.42 138.65 477.99L139 476.98C139.12 476.65 139.41 475.79 139.52 475.47C139.72 475.35 139.92 475.23 140.16 475.13C140.29 475.36 140.37 475.58 140.45 475.8C140.34 476.12 140.04 476.98 139.93 477.31L139.58 478.32C139.5 478.79 139.23 479 138.76 479.17L138.77 479.16Z" fill="url(#paint8_linear_630_2927)"/>
<path d="M264.12 539.98C264.12 539.98 258.01 556.67 241.59 569.81C230.95 578.34 215.95 585.36 195.5 585.36C175.05 585.36 160.05 578.34 149.4 569.81C132.98 556.67 126.88 539.98 126.88 539.98C144.9 540.63 157.21 532.68 165.51 522.78C166.17 521.98 166.82 521.17 167.43 520.35C178.72 505.41 181.66 487.4 181.66 487.4H209.33C209.33 487.4 212.27 505.41 223.56 520.35C224.16 521.17 224.81 521.98 225.48 522.78C233.79 532.68 246.1 540.63 264.12 539.98Z" fill="#FF71C8"/>
<path d="M264.12 539.98C264.12 539.98 258.01 556.67 241.59 569.81C230.95 578.34 215.95 585.36 195.5 585.36C175.05 585.36 160.05 578.34 149.4 569.81C132.98 556.67 126.88 539.98 126.88 539.98C144.9 540.63 157.21 532.68 165.51 522.78C166.17 521.98 166.82 521.17 167.43 520.35C178.72 505.41 181.66 487.4 181.66 487.4H209.33C209.33 487.4 212.27 505.41 223.56 520.35C224.16 521.17 224.81 521.98 225.48 522.78C233.79 532.68 246.1 540.63 264.12 539.98Z" fill="#FF71C8"/>
<path d="M223.57 520.35C215.46 525.52 205.83 528.51 195.51 528.51C185.19 528.51 175.55 525.51 167.44 520.35C178.73 505.41 181.67 487.4 181.67 487.4H209.34C209.34 487.4 212.28 505.41 223.57 520.35Z" fill="#FE40B4"/>
<path d="M247.79 423.2C247.79 394.316 224.377 370.9 195.495 370.9C166.613 370.9 143.2 394.316 143.2 423.2V463.88C143.2 492.764 166.613 516.18 195.495 516.18C224.377 516.18 247.79 492.764 247.79 463.88V423.2Z" fill="url(#paint9_linear_630_2927)"/>
<path d="M247.79 423.2C247.79 394.316 224.377 370.9 195.495 370.9C166.613 370.9 143.2 394.316 143.2 423.2V463.88C143.2 492.764 166.613 516.18 195.495 516.18C224.377 516.18 247.79 492.764 247.79 463.88V423.2Z" fill="#FDF001" stroke="url(#paint10_linear_630_2927)" stroke-miterlimit="10"/>
<path d="M168.906 481.917C172.476 478.348 172.476 472.561 168.906 468.991C165.337 465.422 159.55 465.422 155.981 468.991C152.411 472.561 152.411 478.348 155.981 481.917C159.55 485.487 165.337 485.487 168.906 481.917Z" fill="#FE40B4"/>
<path d="M237.477 482.381C241.097 478.863 241.179 473.077 237.661 469.457C234.144 465.837 228.357 465.754 224.737 469.272C221.117 472.79 221.034 478.576 224.552 482.196C228.07 485.816 233.856 485.899 237.477 482.381Z" fill="#FE40B4"/>
<path d="M196.5 415.05C199.02 426.94 201.48 440.02 203.89 451.85C204.78 455.98 205.38 460.16 205.83 464.36C205.92 465.11 205.28 465.78 204.52 465.73C202.6 465.62 200.68 465.48 198.76 465.3C196.84 465.11 194.92 464.89 193 464.57C192.84 464.54 192.84 464.3 193 464.27C196.82 463.65 200.66 463.34 204.52 463.11L203.23 464.63C201.31 456.5 200.64 448.16 199.43 439.91C198.42 432.71 197.11 422.41 196.21 415.09C196.18 414.92 196.47 414.85 196.5 415.04V415.05Z" fill="#00124C"/>
<path d="M198.76 500.41C201.284 500.41 203.33 497.209 203.33 493.26C203.33 489.311 201.284 486.11 198.76 486.11C196.236 486.11 194.19 489.311 194.19 493.26C194.19 497.209 196.236 500.41 198.76 500.41Z" fill="#FF9FDA"/>
<path d="M182.04 488.3C193.1 494.37 204.47 494.5 215.49 488.3C215.56 488.25 215.68 488.25 215.73 488.34C215.76 488.4 215.75 488.46 215.71 488.51C209.29 495.65 198.26 497.89 189.53 493.94C186.6 492.72 184.03 490.77 181.83 488.51C181.71 488.37 181.88 488.18 182.04 488.3Z" fill="#00124C"/>
<path d="M180.44 490.72C180.32 488.6 181.47 486.59 183.33 485.59C183.37 485.56 183.44 485.58 183.42 485.64C182.74 486.94 181.29 489.51 180.53 490.77C180.5 490.82 180.43 490.77 180.44 490.72Z" fill="#00124C"/>
<path d="M214.51 486.67C216.24 487.23 217.33 488.92 217.16 490.72C217.16 490.77 217.12 490.82 217.08 490.77C216.38 489.79 215.05 487.75 214.43 486.72C214.4 486.67 214.47 486.64 214.51 486.67Z" fill="#00124C"/>
<path d="M180.93 443.33C180.93 443.33 180.95 443.31 180.95 443.3C180.94 443.3 180.93 443.3 180.92 443.32C175.12 435.36 161.42 435.3 155.65 443.32C155.64 443.32 155.63 443.32 155.62 443.31C155.62 443.31 155.64 443.33 155.64 443.34C155.64 443.34 155.62 443.36 155.62 443.37C155.63 443.37 155.64 443.37 155.65 443.35C161.45 451.31 175.15 451.37 180.92 443.35C180.93 443.35 180.94 443.35 180.95 443.36C180.95 443.36 180.93 443.34 180.93 443.33ZM155.68 443.33C163.75 439.29 172.82 439.32 180.9 443.33C172.83 447.37 163.76 447.34 155.68 443.33Z" fill="#00124C" stroke="url(#paint11_linear_630_2927)" stroke-miterlimit="10"/>
<path d="M168.04 440.31C166.37 440.31 165.02 441.66 165.02 443.33C165.02 445 166.37 446.35 168.04 446.35C169.71 446.35 171.06 445 171.06 443.33C171.06 441.66 169.71 440.31 168.04 440.31ZM167.55 443.54C167.01 443.54 166.57 443.1 166.57 442.56C166.57 442.02 167.01 441.58 167.55 441.58C168.09 441.58 168.53 442.02 168.53 442.56C168.53 443.1 168.09 443.54 167.55 443.54ZM168.72 444.83C168.48 444.83 168.29 444.64 168.29 444.4C168.29 444.16 168.48 443.97 168.72 443.97C168.96 443.97 169.15 444.16 169.15 444.4C169.15 444.64 168.96 444.83 168.72 444.83Z" fill="#00124C"/>
<path d="M233.88 443.3C233.88 443.3 233.9 443.28 233.9 443.27C233.89 443.27 233.88 443.27 233.87 443.29C228.07 435.33 214.37 435.27 208.6 443.29C208.59 443.29 208.58 443.29 208.57 443.28C208.57 443.28 208.59 443.3 208.59 443.31C208.59 443.31 208.57 443.33 208.57 443.34C208.58 443.34 208.59 443.34 208.6 443.32C214.4 451.28 228.1 451.34 233.87 443.32C233.88 443.32 233.89 443.32 233.9 443.33C233.9 443.33 233.88 443.31 233.88 443.3ZM208.63 443.3C216.7 439.26 225.77 439.29 233.85 443.3C225.78 447.34 216.71 447.31 208.63 443.3Z" fill="#00124C" stroke="url(#paint12_linear_630_2927)" stroke-miterlimit="10"/>
<path d="M221 440.28C219.33 440.28 217.98 441.63 217.98 443.3C217.98 444.97 219.33 446.32 221 446.32C222.67 446.32 224.02 444.97 224.02 443.3C224.02 441.63 222.67 440.28 221 440.28ZM220.51 443.51C219.97 443.51 219.53 443.07 219.53 442.53C219.53 441.99 219.97 441.55 220.51 441.55C221.05 441.55 221.49 441.99 221.49 442.53C221.49 443.07 221.05 443.51 220.51 443.51ZM221.68 444.8C221.44 444.8 221.25 444.61 221.25 444.37C221.25 444.13 221.44 443.94 221.68 443.94C221.92 443.94 222.11 444.13 222.11 444.37C222.11 444.61 221.92 444.8 221.68 444.8Z" fill="#00124C"/>
<path d="M165.63 533.98C160.8 535.44 166.07 541.26 167.02 554.49C160.19 546.99 153.22 540.55 147.68 536.31C145.12 537.4 142.38 538.29 139.45 538.92C143.4 545.07 150.36 552.97 152.06 557.44C151.56 556.88 133.77 536.93 128.47 541.38C124.87 544.4 141.49 558.99 145.91 568.14C145.91 568.14 126.01 546.04 122.35 549.18C117.96 552.95 134.71 568.81 139.2 576.75C138.27 575.56 123.25 556.29 118.7 556.54C114.45 556.77 123.19 574.56 140.94 596H194.63C182.06 566.69 170.9 532.38 165.63 533.97V533.98Z" fill="#FF71C8"/>
<path d="M256.42 596.01C274.26 577.01 283.37 561.23 279.32 560.7C274.8 560.1 258.37 578.19 257.36 579.31C262.44 571.73 280.33 557.17 276.24 553.08C272.83 549.67 251.32 570.21 251.32 570.21C256.42 561.42 274.1 548.12 270.73 544.84C265.78 540.01 246.54 558.56 246 559.08C248.21 554.36 257 546.02 261.1 539.99C257.57 539.93 254.27 539.52 251.19 538.84C245.47 542.66 238.36 548.35 231.3 555.01C233.24 541.89 238.94 536.48 234.23 534.66C228.99 532.64 214.83 567.39 199.76 596.01H256.42Z" fill="#FF71C8"/>
<path d="M195.96 588.97L195.98 589C182.86 559.06 171.09 522.2 165.63 523.85C160.8 525.31 166.07 531.13 167.02 544.36C152.9 528.87 138.15 517.85 136.81 521.54C135.12 526.18 149.52 540.62 152.06 547.31C151.56 546.75 133.77 526.8 128.47 531.25C124.87 534.27 141.49 548.86 145.91 558.01C145.91 558.01 126.01 535.91 122.35 539.05C117.96 542.82 134.71 558.68 139.2 566.62C138.27 565.43 123.25 546.16 118.7 546.41C114 546.67 125.18 568.39 146.87 592.78C147.74 593.76 148.55 594.85 149.33 596.01H194.58C195.35 594.41 196.14 592.81 196.94 591.24C196.61 590.48 196.29 589.72 195.95 588.96L195.96 588.97Z" fill="#FDF001"/>
<path d="M195.96 588.97L195.98 589C182.86 559.06 171.09 522.2 165.63 523.85C160.8 525.31 166.07 531.13 167.02 544.36C152.9 528.87 138.15 517.85 136.81 521.54C135.12 526.18 149.52 540.62 152.06 547.31C151.56 546.75 133.77 526.8 128.47 531.25C124.87 534.27 141.49 548.86 145.91 558.01C145.91 558.01 126.01 535.91 122.35 539.05C117.96 542.82 134.71 558.68 139.2 566.62C138.27 565.43 123.25 546.16 118.7 546.41C114 546.67 125.18 568.39 146.87 592.78C147.74 593.76 148.55 594.85 149.33 596.01H194.58C195.35 594.41 196.14 592.81 196.94 591.24C196.61 590.48 196.29 589.72 195.95 588.96L195.96 588.97Z" fill="#FDF001"/>
<path d="M279.32 550.56C274.8 549.96 258.37 568.05 257.36 569.17C262.44 561.59 280.33 547.03 276.24 542.94C272.83 539.53 251.32 560.07 251.32 560.07C256.42 551.28 274.1 537.98 270.73 534.7C265.78 529.87 246.54 548.42 246 548.94C249.04 542.45 264.48 529.14 263.15 524.39C262.08 520.61 246.55 530.48 231.3 544.87C233.24 531.75 238.94 526.34 234.23 524.52C228.91 522.46 214.39 558.34 199.06 587.2L199.08 587.17C198.36 588.51 197.65 589.87 196.95 591.24C196.14 592.82 195.36 594.41 194.59 596.01H246.46C246.88 595.55 247.31 595.1 247.74 594.67C271.21 571.98 283.99 551.16 279.32 550.55V550.56Z" fill="#FDF001"/>
<path d="M279.32 550.56C274.8 549.96 258.37 568.05 257.36 569.17C262.44 561.59 280.33 547.03 276.24 542.94C272.83 539.53 251.32 560.07 251.32 560.07C256.42 551.28 274.1 537.98 270.73 534.7C265.78 529.87 246.54 548.42 246 548.94C249.04 542.45 264.48 529.14 263.15 524.39C262.08 520.61 246.55 530.48 231.3 544.87C233.24 531.75 238.94 526.34 234.23 524.52C228.91 522.46 214.39 558.34 199.06 587.2L199.08 587.17C198.36 588.51 197.65 589.87 196.95 591.24C196.14 592.82 195.36 594.41 194.59 596.01H246.46C246.88 595.55 247.31 595.1 247.74 594.67C271.21 571.98 283.99 551.16 279.32 550.55V550.56Z" fill="#FDF001"/>
<path d="M143.2 375.15V439.37H148.67V440.07C148.79 440.07 161.09 439.96 169.61 430.1C176.64 421.97 179.16 409.74 177.13 393.73C185.45 418.02 206.27 435.98 231.62 440.59L247.79 443.53V375.14H143.2V375.15Z" fill="#FFF983"/>
<path d="M133.67 360.54C117.47 381.89 121.85 409.03 133.67 438.26H140.29V439.11C140.44 439.11 155.31 438.97 165.63 427.05C174.14 417.21 177.18 402.41 174.73 383.04C184.8 412.43 209.99 434.17 240.68 439.75L260.25 443.3C273.39 414.04 275.22 386.22 260.25 360.54C182.66 318.65 182.8 331.51 133.68 360.54H133.67ZM164.99 426.48C156.86 435.89 145.81 437.78 141.81 438.16C148.32 435.69 173.54 423.61 174.03 384.35C176.18 402.87 173.15 417.04 164.98 426.48H164.99Z" fill="#FE40B4"/>
<path d="M205.135 399.126C205.38 398.399 204.976 397.606 204.233 397.355C203.49 397.105 202.69 397.491 202.444 398.219C202.199 398.946 202.603 399.739 203.346 399.99C204.088 400.24 204.889 399.854 205.135 399.126Z" fill="#00124C"/>
<path d="M297.563 375.876C292.57 375.876 288.509 379.872 288.461 384.819L246.619 385.031L279.785 357.677C281.443 359.415 283.791 360.504 286.394 360.504C291.424 360.504 295.502 356.454 295.502 351.459C295.502 346.464 291.424 342.414 286.394 342.414C281.364 342.414 277.285 346.464 277.285 351.459C277.285 352.494 277.462 353.487 277.785 354.414L237.431 369.235L258.587 333.278C259.739 333.804 261.025 334.101 262.379 334.101C267.409 334.101 271.487 330.051 271.487 325.056C271.487 320.061 267.409 316.011 262.379 316.011C257.349 316.011 253.27 320.061 253.27 325.056C253.27 327.181 254.008 329.13 255.24 330.674L223.36 357.513L231.017 315.659C231.566 315.762 232.127 315.817 232.7 315.817C237.73 315.817 241.808 311.767 241.808 306.772C241.808 301.777 237.73 297.726 232.7 297.726C227.67 297.726 223.591 301.777 223.591 306.772C223.591 309.817 225.109 312.511 227.432 314.152L206.1 351.277L198.802 308.897C202.929 308.037 206.027 304.398 206.027 300.045C206.027 295.05 201.948 291 196.918 291C191.888 291 187.81 295.05 187.81 300.045C187.81 304.398 190.907 308.031 195.034 308.897L187.736 351.277L166.599 314.485C169.001 312.856 170.574 310.12 170.574 307.014C170.574 302.019 166.495 297.969 161.466 297.969C156.436 297.969 152.357 302.019 152.357 307.014C152.357 312.009 156.436 316.059 161.466 316.059C161.947 316.059 162.417 316.023 162.874 315.95L170.477 357.519L138.28 330.414C139.371 328.925 140.017 327.09 140.017 325.104C140.017 320.109 135.939 316.059 130.909 316.059C125.879 316.059 121.8 320.109 121.8 325.104C121.8 330.099 125.879 334.15 130.909 334.15C132.439 334.15 133.884 333.774 135.152 333.108L156.411 369.241L115.886 354.359C116.38 353.245 116.655 352.016 116.655 350.726C116.655 345.732 112.576 341.681 107.546 341.681C102.516 341.681 98.4375 345.732 98.4375 350.726C98.4375 355.721 102.516 359.772 107.546 359.772C109.924 359.772 112.082 358.87 113.704 357.386L147.23 385.037L105.211 384.825C105.071 379.951 101.053 376.046 96.1085 376.046C91.1641 376.046 87 380.096 87 385.091C87 390.086 91.0787 394.136 96.1085 394.136C99.7727 394.136 102.925 391.987 104.376 388.893L144.023 402.994C153.826 383.923 173.793 370.869 196.833 370.869C219.872 370.869 239.839 383.929 249.643 403H249.795L289.381 388.918C290.869 391.908 293.966 393.967 297.557 393.967C302.587 393.967 306.666 389.916 306.666 384.922C306.666 379.927 302.587 375.876 297.557 375.876H297.563Z" fill="#FDF001"/>
<path d="M297.52 389.444C300.035 389.444 302.074 387.419 302.074 384.922C302.074 382.424 300.035 380.399 297.52 380.399C295.005 380.399 292.966 382.424 292.966 384.922C292.966 387.419 295.005 389.444 297.52 389.444Z" fill="#FE40B4" stroke="#00124C" stroke-miterlimit="10"/>
<path d="M286.357 355.988C288.872 355.988 290.911 353.963 290.911 351.465C290.911 348.967 288.872 346.942 286.357 346.942C283.842 346.942 281.803 348.967 281.803 351.465C281.803 353.963 283.842 355.988 286.357 355.988Z" fill="#FE40B4" stroke="#00124C" stroke-miterlimit="10"/>
<path d="M262.342 329.585C264.857 329.585 266.896 327.56 266.896 325.062C266.896 322.564 264.857 320.539 262.342 320.539C259.827 320.539 257.788 322.564 257.788 325.062C257.788 327.56 259.827 329.585 262.342 329.585Z" fill="#FE40B4" stroke="#00124C" stroke-miterlimit="10"/>
<path d="M232.663 311.3C235.178 311.3 237.217 309.275 237.217 306.778C237.217 304.28 235.178 302.255 232.663 302.255C230.148 302.255 228.109 304.28 228.109 306.778C228.109 309.275 230.148 311.3 232.663 311.3Z" fill="#FE40B4" stroke="#00124C" stroke-miterlimit="10"/>
<path d="M196.888 304.574C199.403 304.574 201.442 302.549 201.442 300.051C201.442 297.554 199.403 295.529 196.888 295.529C194.372 295.529 192.333 297.554 192.333 300.051C192.333 302.549 194.372 304.574 196.888 304.574Z" fill="#FE40B4" stroke="#00124C" stroke-miterlimit="10"/>
<path d="M161.435 311.536C163.95 311.536 165.989 309.512 165.989 307.014C165.989 304.516 163.95 302.491 161.435 302.491C158.92 302.491 156.881 304.516 156.881 307.014C156.881 309.512 158.92 311.536 161.435 311.536Z" fill="#FE40B4" stroke="#00124C" stroke-miterlimit="10"/>
<path d="M130.878 329.627C133.393 329.627 135.432 327.602 135.432 325.104C135.432 322.607 133.393 320.582 130.878 320.582C128.363 320.582 126.324 322.607 126.324 325.104C126.324 327.602 128.363 329.627 130.878 329.627Z" fill="#FE40B4" stroke="#00124C" stroke-miterlimit="10"/>
<path d="M107.509 355.249C110.025 355.249 112.064 353.224 112.064 350.726C112.064 348.229 110.025 346.204 107.509 346.204C104.994 346.204 102.955 348.229 102.955 350.726C102.955 353.224 104.994 355.249 107.509 355.249Z" fill="#FE40B4" stroke="#00124C" stroke-miterlimit="10"/>
<path d="M96.0779 389.608C98.5932 389.608 100.632 387.583 100.632 385.085C100.632 382.587 98.5932 380.562 96.0779 380.562C93.5627 380.562 91.5237 382.587 91.5237 385.085C91.5237 387.583 93.5627 389.608 96.0779 389.608Z" fill="#FE40B4" stroke="#00124C" stroke-miterlimit="10"/>
<path d="M199.621 360.132C199.866 359.404 199.463 358.612 198.72 358.361C197.976 358.11 197.175 358.497 196.93 359.225C196.685 359.952 197.088 360.745 197.831 360.995C198.575 361.246 199.376 360.859 199.621 360.132Z" fill="#00124C"/>
<path d="M140.67 461.07C140.69 461.01 140.7 460.94 140.67 460.93C140.72 460.98 140.13 461.49 140.01 461.77C138.19 464.38 139.82 467.18 140.66 469.9C136.94 468.34 135.52 462.1 140.14 460.77C140.43 460.68 141.11 460.77 140.66 461.07H140.67Z" fill="#00124C"/>
<path d="M251.44 469.53C251.42 469.59 251.41 469.66 251.44 469.67C251.39 469.62 251.98 469.11 252.1 468.83C253.92 466.22 252.29 463.42 251.45 460.7C255.17 462.26 256.59 468.5 251.97 469.83C251.68 469.92 251 469.83 251.45 469.53H251.44Z" fill="#00124C"/>
</g>
<path d="M95.9279 50.4282C77.6419 53.2715 66.0838 66.8652 60.5814 90.8436C53.9504 64.9386 41.6378 54.1254 22.0709 57.3133C42.1188 53.5103 54.8235 41.4119 57.4187 16.8979C62.1483 44.7341 77.1076 53.8839 95.9292 50.4281L95.9279 50.4282Z" fill="#FDF001"/>
<path d="M116.999 94.8813C106.337 96.28 99.4352 104.017 95.9069 117.87C92.4135 102.73 85.4106 96.2777 74 97.8589C85.6986 95.9271 93.2462 89.0748 95.0931 74.8701C97.4553 91.106 106.019 96.6284 117 94.8813L116.999 94.8813Z" fill="#FDF001"/>
<path d="M47.9994 118.228C39.8171 119.301 34.52 125.239 31.8123 135.87C29.1313 124.251 23.757 119.299 15 120.513C23.978 119.03 29.7703 113.771 31.1877 102.87C33.0006 115.33 39.5724 119.568 48 118.228L47.9994 118.228Z" fill="#FDF001"/>
<path d="M324.898 153.774C335.743 152.328 342.749 144.441 346.309 130.339C349.896 145.736 357.035 152.286 368.642 150.652C356.743 152.643 349.078 159.631 347.229 174.088C344.791 157.573 336.066 151.973 324.897 153.774L324.898 153.774Z" fill="#FDF001"/>
<path d="M313.013 127.228C319.333 126.538 323.512 122.053 325.776 113.91C327.646 122.904 331.703 126.808 338.468 126.02C331.528 127.012 326.979 130.965 325.705 139.337C324.517 129.71 319.526 126.336 313.013 127.228L313.013 127.228Z" fill="#FDF001"/>
<path d="M354.098 114.314C358.948 113.785 362.155 110.343 363.892 104.094C365.328 110.996 368.441 113.992 373.632 113.387C368.307 114.148 364.815 117.182 363.838 123.607C362.926 116.219 359.096 113.63 354.097 114.314L354.098 114.314Z" fill="#FDF001"/>
<path d="M44.6409 579.463C54.6293 578.132 61.0823 570.868 64.3613 557.879C67.6649 572.06 74.24 578.093 84.9298 576.588C73.9708 578.422 66.9114 584.858 65.2087 598.172C62.963 582.963 54.9275 577.805 44.6402 579.463L44.6409 579.463Z" fill="#FDF001"/>
<path d="M33.6955 555.014C39.5163 554.379 43.3653 550.248 45.4499 542.748C47.1727 551.032 50.9087 554.627 57.1394 553.901C50.7479 554.815 46.5579 558.456 45.3845 566.167C44.2905 557.3 39.694 554.193 33.6951 555.014L33.6955 555.014Z" fill="#FDF001"/>
<path d="M71.5346 543.12C76.0017 542.633 78.9557 539.463 80.5554 533.707C81.8776 540.064 84.7448 542.823 89.5264 542.266C84.6213 542.967 81.4058 545.762 80.5053 551.68C79.6657 544.875 76.1381 542.49 71.5343 543.12L71.5346 543.12Z" fill="#FDF001"/>
<path d="M302.503 472.475C309.653 471.521 314.272 466.322 316.619 457.024C318.984 467.175 323.691 471.493 331.343 470.417C323.498 471.729 318.445 476.336 317.226 485.867C315.618 474.98 309.866 471.287 302.502 472.475L302.503 472.475Z" fill="#FDF001"/>
<path d="M294.668 454.973C298.834 454.518 301.59 451.562 303.082 446.193C304.315 452.123 306.989 454.696 311.45 454.177C306.874 454.831 303.875 457.437 303.035 462.957C302.252 456.61 298.962 454.385 294.667 454.973L294.668 454.973Z" fill="#FDF001"/>
<path d="M321.754 446.459C324.952 446.11 327.066 443.841 328.212 439.721C329.158 444.272 331.21 446.247 334.633 445.848C331.122 446.35 328.82 448.35 328.176 452.586C327.575 447.715 325.049 446.008 321.754 446.459L321.754 446.459Z" fill="#FDF001"/>
<path d="M41.5442 323.574C49.5698 322.504 54.7546 316.668 57.3892 306.231C60.0436 317.625 65.3266 322.472 73.9157 321.264C65.1104 322.737 59.4382 327.908 58.0701 338.606C56.2658 326.385 49.8093 322.241 41.5436 323.574L41.5442 323.574Z" fill="#FDF001"/>
<path d="M32.7497 303.929C37.4266 303.419 40.5193 300.1 42.1942 294.074C43.5785 300.73 46.5803 303.618 51.5865 303.035C46.451 303.769 43.0845 306.695 42.1417 312.89C41.2627 305.766 37.5694 303.269 32.7494 303.929L32.7497 303.929Z" fill="#FDF001"/>
<path d="M63.1528 294.373C66.7421 293.981 69.1155 291.434 70.4009 286.809C71.4633 291.917 73.767 294.134 77.609 293.687C73.6678 294.25 71.0842 296.495 70.3606 301.25C69.686 295.782 66.8517 293.866 63.1526 294.373L63.1528 294.373Z" fill="#FDF001"/>
<defs>
<linearGradient id="paint0_linear_630_2927" x1="152.16" y1="529.57" x2="199.83" y2="-16.58" gradientUnits="userSpaceOnUse">
<stop stop-color="#FE40B4"/>
<stop offset="0.21" stop-color="#FE4DB9"/>
<stop offset="0.6" stop-color="#FE72C8"/>
<stop offset="1" stop-color="#FF9FDA"/>
</linearGradient>
<linearGradient id="paint1_linear_630_2927" x1="236.887" y1="465.958" x2="261.527" y2="465.958" gradientUnits="userSpaceOnUse">
<stop stop-color="#00124C"/>
<stop offset="0.36" stop-color="#001559"/>
<stop offset="1" stop-color="#001E7D"/>
</linearGradient>
<linearGradient id="paint2_linear_630_2927" x1="248.88" y1="478.09" x2="250.64" y2="478.09" gradientUnits="userSpaceOnUse">
<stop stop-color="#00124C"/>
<stop offset="0.36" stop-color="#001559"/>
<stop offset="1" stop-color="#001E7D"/>
</linearGradient>
<linearGradient id="paint3_linear_630_2927" x1="251.96" y1="477.67" x2="254.11" y2="477.67" gradientUnits="userSpaceOnUse">
<stop stop-color="#00124C"/>
<stop offset="0.36" stop-color="#001559"/>
<stop offset="1" stop-color="#001E7D"/>
</linearGradient>
<linearGradient id="paint4_linear_630_2927" x1="254.71" y1="476.21" x2="256.9" y2="476.21" gradientUnits="userSpaceOnUse">
<stop stop-color="#00124C"/>
<stop offset="0.36" stop-color="#001559"/>
<stop offset="1" stop-color="#001E7D"/>
</linearGradient>
<linearGradient id="paint5_linear_630_2927" x1="131.147" y1="-0.00300782" x2="155.787" y2="-0.00300003" gradientUnits="userSpaceOnUse">
<stop stop-color="#00124C"/>
<stop offset="0.36" stop-color="#001559"/>
<stop offset="1" stop-color="#001E7D"/>
</linearGradient>
<linearGradient id="paint6_linear_630_2927" x1="133.07" y1="475.13" x2="136.21" y2="475.13" gradientUnits="userSpaceOnUse">
<stop stop-color="#00124C"/>
<stop offset="0.36" stop-color="#001559"/>
<stop offset="1" stop-color="#001E7D"/>
</linearGradient>
<linearGradient id="paint7_linear_630_2927" x1="135.41" y1="476.12" x2="138.57" y2="476.12" gradientUnits="userSpaceOnUse">
<stop stop-color="#00124C"/>
<stop offset="0.36" stop-color="#001559"/>
<stop offset="1" stop-color="#001E7D"/>
</linearGradient>
<linearGradient id="paint8_linear_630_2927" x1="138.52" y1="477.15" x2="140.46" y2="477.15" gradientUnits="userSpaceOnUse">
<stop stop-color="#00124C"/>
<stop offset="0.36" stop-color="#001559"/>
<stop offset="1" stop-color="#001E7D"/>
</linearGradient>
<linearGradient id="paint9_linear_630_2927" x1="190.22" y1="357.44" x2="199.57" y2="509.87" gradientUnits="userSpaceOnUse">
<stop stop-color="#FA4E8F"/>
<stop offset="0.04" stop-color="#FA5795"/>
<stop offset="0.18" stop-color="#FC77AA"/>
<stop offset="0.32" stop-color="#FD90BA"/>
<stop offset="0.48" stop-color="#FEA2C6"/>
<stop offset="0.64" stop-color="#FEADCD"/>
<stop offset="0.82" stop-color="#FFB1D0"/>
</linearGradient>
<linearGradient id="paint10_linear_630_2927" x1="189.15" y1="516.33" x2="201.85" y2="370.75" gradientUnits="userSpaceOnUse">
<stop stop-color="#00124C"/>
<stop offset="0.36" stop-color="#001559"/>
<stop offset="1" stop-color="#001E7D"/>
</linearGradient>
<linearGradient id="paint11_linear_630_2927" x1="167.74" y1="449.85" x2="168.88" y2="436.81" gradientUnits="userSpaceOnUse">
<stop stop-color="#00124C"/>
<stop offset="0.36" stop-color="#001559"/>
<stop offset="1" stop-color="#001E7D"/>
</linearGradient>
<linearGradient id="paint12_linear_630_2927" x1="220.7" y1="449.82" x2="221.84" y2="436.78" gradientUnits="userSpaceOnUse">
<stop stop-color="#00124C"/>
<stop offset="0.36" stop-color="#001559"/>
<stop offset="1" stop-color="#001E7D"/>
</linearGradient>
<clipPath id="clip0_630_2927">
<rect width="390" height="596.01" fill="white"/>
</clipPath>
</defs>
</svg>
