<svg width="261" height="279" viewBox="0 0 261 279" fill="none" xmlns="http://www.w3.org/2000/svg">
<g filter="url(#filter0_d_47_2316)">
<path d="M122 252C188.274 252 242 198.274 242 132C242 65.7258 188.274 12 122 12C55.7258 12 2 65.7258 2 132C2 198.274 55.7258 252 122 252Z" fill="#5570C6"/>
<g clip-path="url(#clip0_47_2316)">
<path d="M193.956 172.834C193.943 172.761 193.925 172.681 193.9 172.608C190.671 176.563 186.691 179.893 182.18 182.379C181.459 182.783 180.713 183.156 179.968 183.511C184.694 174.61 187.375 164.465 187.375 153.696C187.375 135.714 179.912 119.472 167.896 107.845C169.178 108.011 170.447 108.225 171.686 108.506C167.656 105.268 163.225 102.507 158.474 100.303C148.295 93.6047 136.087 89.6986 122.962 89.6986C109.837 89.6986 98.098 93.4516 88.0353 99.9168C83.0687 102.139 78.4409 104.968 74.2384 108.311C75.5262 108.047 76.8388 107.845 78.1698 107.711C66.0736 119.343 58.5496 135.647 58.5496 153.696C58.5496 164.679 61.3349 175.02 66.2461 184.05C65.0753 183.548 63.923 182.997 62.8138 182.379C58.6729 180.095 54.9818 177.107 51.9007 173.569C51.6234 173.256 51.3523 172.932 51.0935 172.608C49.9597 177.352 49.3619 182.299 49.3619 187.381C49.3619 202.123 54.3841 215.715 62.8261 226.533C74.6019 241.643 93.0451 251.372 113.774 251.372C116.732 251.372 119.647 251.176 122.5 250.784C125.353 251.176 128.262 251.372 131.219 251.372C151.986 251.372 170.453 241.613 182.223 226.46C190.634 215.648 195.632 202.093 195.632 187.381C195.632 182.379 195.053 177.505 193.956 172.834Z" fill="#FE40B4"/>
<path d="M193.956 172.834C193.943 172.761 193.925 172.681 193.9 172.608C190.671 176.563 186.691 179.893 182.18 182.379C181.459 182.783 180.713 183.156 179.968 183.511C184.694 174.61 187.375 164.465 187.375 153.696C187.375 135.714 179.912 119.472 167.896 107.845C169.178 108.011 170.447 108.225 171.686 108.506C167.656 105.268 163.225 102.507 158.474 100.303C148.295 93.6047 136.087 89.6986 122.962 89.6986C109.837 89.6986 98.098 93.4516 88.0353 99.9168C83.0687 102.139 78.4409 104.968 74.2384 108.311C75.5262 108.047 76.8388 107.845 78.1698 107.711C66.0736 119.343 58.5496 135.647 58.5496 153.696C58.5496 164.679 61.3349 175.02 66.2461 184.05C65.0753 183.548 63.923 182.997 62.8138 182.379C58.6729 180.095 54.9818 177.107 51.9007 173.569C51.6234 173.256 51.3523 172.932 51.0935 172.608C49.9597 177.352 49.3619 182.299 49.3619 187.381C49.3619 202.123 54.3841 215.715 62.8261 226.533C74.6019 241.643 93.0451 251.372 113.774 251.372C116.732 251.372 119.647 251.176 122.5 250.784C125.353 251.176 128.262 251.372 131.219 251.372C151.986 251.372 170.453 241.613 182.223 226.46C190.634 215.648 195.632 202.093 195.632 187.381C195.632 182.379 195.053 177.505 193.956 172.834Z" fill="black" fill-opacity="0.2"/>
<path d="M167.034 88.8783L190.24 49.4075C191.509 49.983 192.914 50.3075 194.399 50.3075C199.921 50.3075 204.394 45.8627 204.394 40.377C204.394 34.8914 199.921 30.4466 194.399 30.4466C188.878 30.4466 184.405 34.8914 184.405 40.377C184.405 42.7097 185.212 44.8464 186.567 46.5423L151.591 76.003L159.99 30.0609C160.588 30.1711 161.204 30.2323 161.839 30.2323C167.36 30.2323 171.834 25.7875 171.834 20.3018C171.834 14.8162 167.36 10.3714 161.839 10.3714C156.318 10.3714 151.844 14.8162 151.844 20.3018C151.844 23.6447 153.508 26.6017 156.059 28.4017L132.655 69.1582L124.644 22.6406C129.174 21.6977 132.569 17.706 132.569 12.9244C132.569 7.43879 128.095 2.99396 122.574 2.99396C117.053 2.99396 112.579 7.43879 112.579 12.9244C112.579 17.706 115.98 21.6916 120.503 22.6406L112.493 69.1582L89.2986 28.7691C91.9298 26.9813 93.6613 23.9753 93.6613 20.5651C93.6613 15.0795 89.1877 10.6347 83.6664 10.6347C78.1452 10.6347 73.6715 15.0795 73.6715 20.5651C73.6715 26.0507 78.1452 30.4956 83.6664 30.4956C84.1902 30.4956 84.7078 30.4527 85.2131 30.3792L93.5566 76.0091L58.2354 46.2545C59.4308 44.6198 60.1395 42.6056 60.1395 40.426C60.1395 34.9404 55.6658 30.4956 50.1445 30.4956C44.6233 30.4956 40.1496 34.9404 40.1496 40.426C40.1496 45.9116 44.6233 50.3565 50.1445 50.3565C51.8268 50.3565 53.4105 49.9402 54.7969 49.2116L78.1205 88.8722L33.6547 72.5378C34.197 71.3194 34.499 69.9664 34.499 68.5521C34.499 63.0665 30.0253 58.6217 24.504 58.6217C18.9828 58.6217 14.5091 63.0665 14.5091 68.5521C14.5091 74.0377 18.9828 78.4826 24.504 78.4826C27.1106 78.4826 29.483 77.4907 31.2638 75.8683L68.0455 106.217L21.9467 105.984C21.7927 100.639 17.3806 96.3476 11.9641 96.3476C6.54764 96.3476 2 100.786 2 106.272C2 111.758 6.47369 116.202 11.9949 116.202C16.0126 116.202 19.4757 113.845 21.0594 110.447L64.5577 125.931C75.3106 104.998 97.2169 90.666 122.494 90.666C147.771 90.666 169.683 104.998 180.436 125.937H180.603L224.033 110.484C225.66 113.766 229.067 116.031 232.999 116.031C238.52 116.031 242.994 111.586 242.994 106.1C242.994 100.615 238.52 96.17 232.999 96.17C227.478 96.17 223.072 100.554 223.01 105.99L177.102 106.223L213.496 76.1989C215.32 78.1091 217.889 79.303 220.749 79.303C226.27 79.303 230.744 74.8581 230.744 69.3725C230.744 63.8869 226.27 59.4421 220.749 59.4421C215.227 59.4421 210.754 63.8869 210.754 69.3725C210.754 70.5113 210.951 71.601 211.302 72.6173" fill="#FDF001"/>
<path d="M232.962 111.053C235.722 111.053 237.959 108.83 237.959 106.088C237.959 103.346 235.722 101.123 232.962 101.123C230.202 101.123 227.964 103.346 227.964 106.088C227.964 108.83 230.202 111.053 232.962 111.053Z" fill="#FE40B4"/>
<path d="M232.962 111.053C235.722 111.053 237.959 108.83 237.959 106.088C237.959 103.346 235.722 101.123 232.962 101.123C230.202 101.123 227.964 103.346 227.964 106.088C227.964 108.83 230.202 111.053 232.962 111.053Z" fill="black" fill-opacity="0.2"/>
<path d="M232.962 111.053C235.722 111.053 237.959 108.83 237.959 106.088C237.959 103.346 235.722 101.123 232.962 101.123C230.202 101.123 227.964 103.346 227.964 106.088C227.964 108.83 230.202 111.053 232.962 111.053Z" stroke="#231B3B" stroke-miterlimit="10"/>
<path d="M220.712 74.3315C223.472 74.3315 225.709 72.1085 225.709 69.3663C225.709 66.6241 223.472 64.4011 220.712 64.4011C217.952 64.4011 215.714 66.6241 215.714 69.3663C215.714 72.1085 217.952 74.3315 220.712 74.3315Z" fill="#FE40B4"/>
<path d="M220.712 74.3315C223.472 74.3315 225.709 72.1085 225.709 69.3663C225.709 66.6241 223.472 64.4011 220.712 64.4011C217.952 64.4011 215.714 66.6241 215.714 69.3663C215.714 72.1085 217.952 74.3315 220.712 74.3315Z" fill="black" fill-opacity="0.2"/>
<path d="M220.712 74.3315C223.472 74.3315 225.709 72.1085 225.709 69.3663C225.709 66.6241 223.472 64.4011 220.712 64.4011C217.952 64.4011 215.714 66.6241 215.714 69.3663C215.714 72.1085 217.952 74.3315 220.712 74.3315Z" stroke="#231B3B" stroke-miterlimit="10"/>
<path d="M194.362 45.3483C197.122 45.3483 199.36 43.1253 199.36 40.3831C199.36 37.6409 197.122 35.4178 194.362 35.4178C191.602 35.4178 189.365 37.6409 189.365 40.3831C189.365 43.1253 191.602 45.3483 194.362 45.3483Z" fill="#FE40B4"/>
<path d="M194.362 45.3483C197.122 45.3483 199.36 43.1253 199.36 40.3831C199.36 37.6409 197.122 35.4178 194.362 35.4178C191.602 35.4178 189.365 37.6409 189.365 40.3831C189.365 43.1253 191.602 45.3483 194.362 45.3483Z" fill="black" fill-opacity="0.2"/>
<path d="M194.362 45.3483C197.122 45.3483 199.36 43.1253 199.36 40.3831C199.36 37.6409 197.122 35.4178 194.362 35.4178C191.602 35.4178 189.365 37.6409 189.365 40.3831C189.365 43.1253 191.602 45.3483 194.362 45.3483Z" stroke="#231B3B" stroke-miterlimit="10"/>
<path d="M161.802 25.2731C164.562 25.2731 166.799 23.0501 166.799 20.3079C166.799 17.5657 164.562 15.3427 161.802 15.3427C159.042 15.3427 156.804 17.5657 156.804 20.3079C156.804 23.0501 159.042 25.2731 161.802 25.2731Z" fill="#FE40B4"/>
<path d="M161.802 25.2731C164.562 25.2731 166.799 23.0501 166.799 20.3079C166.799 17.5657 164.562 15.3427 161.802 15.3427C159.042 15.3427 156.804 17.5657 156.804 20.3079C156.804 23.0501 159.042 25.2731 161.802 25.2731Z" fill="black" fill-opacity="0.2"/>
<path d="M161.802 25.2731C164.562 25.2731 166.799 23.0501 166.799 20.3079C166.799 17.5657 164.562 15.3427 161.802 15.3427C159.042 15.3427 156.804 17.5657 156.804 20.3079C156.804 23.0501 159.042 25.2731 161.802 25.2731Z" stroke="#231B3B" stroke-miterlimit="10"/>
<path d="M122.543 17.8957C125.303 17.8957 127.541 15.6727 127.541 12.9304C127.541 10.1882 125.303 7.96521 122.543 7.96521C119.783 7.96521 117.546 10.1882 117.546 12.9304C117.546 15.6727 119.783 17.8957 122.543 17.8957Z" fill="#FE40B4"/>
<path d="M122.543 17.8957C125.303 17.8957 127.541 15.6727 127.541 12.9304C127.541 10.1882 125.303 7.96521 122.543 7.96521C119.783 7.96521 117.546 10.1882 117.546 12.9304C117.546 15.6727 119.783 17.8957 122.543 17.8957Z" fill="black" fill-opacity="0.2"/>
<path d="M122.543 17.8957C125.303 17.8957 127.541 15.6727 127.541 12.9304C127.541 10.1882 125.303 7.96521 122.543 7.96521C119.783 7.96521 117.546 10.1882 117.546 12.9304C117.546 15.6727 119.783 17.8957 122.543 17.8957Z" stroke="#231B3B" stroke-miterlimit="10"/>
<path d="M83.6479 25.5364C86.4079 25.5364 88.6453 23.3133 88.6453 20.5711C88.6453 17.8289 86.4079 15.6059 83.6479 15.6059C80.8878 15.6059 78.6504 17.8289 78.6504 20.5711C78.6504 23.3133 80.8878 25.5364 83.6479 25.5364Z" fill="#FE40B4"/>
<path d="M83.6479 25.5364C86.4079 25.5364 88.6453 23.3133 88.6453 20.5711C88.6453 17.8289 86.4079 15.6059 83.6479 15.6059C80.8878 15.6059 78.6504 17.8289 78.6504 20.5711C78.6504 23.3133 80.8878 25.5364 83.6479 25.5364Z" fill="black" fill-opacity="0.2"/>
<path d="M83.6479 25.5364C86.4079 25.5364 88.6453 23.3133 88.6453 20.5711C88.6453 17.8289 86.4079 15.6059 83.6479 15.6059C80.8878 15.6059 78.6504 17.8289 78.6504 20.5711C78.6504 23.3133 80.8878 25.5364 83.6479 25.5364Z" stroke="#231B3B" stroke-miterlimit="10"/>
<path d="M50.126 45.3911C52.886 45.3911 55.1235 43.1681 55.1235 40.4259C55.1235 37.6837 52.886 35.4607 50.126 35.4607C47.366 35.4607 45.1285 37.6837 45.1285 40.4259C45.1285 43.1681 47.366 45.3911 50.126 45.3911Z" fill="#FE40B4"/>
<path d="M50.126 45.3911C52.886 45.3911 55.1235 43.1681 55.1235 40.4259C55.1235 37.6837 52.886 35.4607 50.126 35.4607C47.366 35.4607 45.1285 37.6837 45.1285 40.4259C45.1285 43.1681 47.366 45.3911 50.126 45.3911Z" fill="black" fill-opacity="0.2"/>
<path d="M50.126 45.3911C52.886 45.3911 55.1235 43.1681 55.1235 40.4259C55.1235 37.6837 52.886 35.4607 50.126 35.4607C47.366 35.4607 45.1285 37.6837 45.1285 40.4259C45.1285 43.1681 47.366 45.3911 50.126 45.3911Z" stroke="#231B3B" stroke-miterlimit="10"/>
<path d="M24.4855 73.5172C27.2455 73.5172 29.483 71.2942 29.483 68.552C29.483 65.8098 27.2455 63.5868 24.4855 63.5868C21.7255 63.5868 19.488 65.8098 19.488 68.552C19.488 71.2942 21.7255 73.5172 24.4855 73.5172Z" fill="#FE40B4"/>
<path d="M24.4855 73.5172C27.2455 73.5172 29.483 71.2942 29.483 68.552C29.483 65.8098 27.2455 63.5868 24.4855 63.5868C21.7255 63.5868 19.488 65.8098 19.488 68.552C19.488 71.2942 21.7255 73.5172 24.4855 73.5172Z" fill="black" fill-opacity="0.2"/>
<path d="M24.4855 73.5172C27.2455 73.5172 29.483 71.2942 29.483 68.552C29.483 65.8098 27.2455 63.5868 24.4855 63.5868C21.7255 63.5868 19.488 65.8098 19.488 68.552C19.488 71.2942 21.7255 73.5172 24.4855 73.5172Z" stroke="#231B3B" stroke-miterlimit="10"/>
<path d="M11.9456 111.237C14.7056 111.237 16.9431 109.014 16.9431 106.272C16.9431 103.53 14.7056 101.307 11.9456 101.307C9.18556 101.307 6.94812 103.53 6.94812 106.272C6.94812 109.014 9.18556 111.237 11.9456 111.237Z" fill="#FE40B4"/>
<path d="M11.9456 111.237C14.7056 111.237 16.9431 109.014 16.9431 106.272C16.9431 103.53 14.7056 101.307 11.9456 101.307C9.18556 101.307 6.94812 103.53 6.94812 106.272C6.94812 109.014 9.18556 111.237 11.9456 111.237Z" fill="black" fill-opacity="0.2"/>
<path d="M11.9456 111.237C14.7056 111.237 16.9431 109.014 16.9431 106.272C16.9431 103.53 14.7056 101.307 11.9456 101.307C9.18556 101.307 6.94812 103.53 6.94812 106.272C6.94812 109.014 9.18556 111.237 11.9456 111.237Z" stroke="#231B3B" stroke-miterlimit="10"/>
<path d="M197.493 167.446C202.145 173.961 204.875 181.92 204.875 190.515C204.875 206.323 195.632 219.982 182.223 226.46C190.634 215.648 195.632 202.093 195.632 187.381C195.632 182.379 195.053 177.505 193.956 172.834C193.993 172.699 194.024 172.559 194.048 172.424C195.324 170.857 196.47 169.191 197.493 167.446Z" fill="#FF71C8"/>
<path d="M62.8262 226.533C49.2511 220.123 39.8662 206.372 39.8662 190.442C39.8662 181.779 42.6453 173.752 47.3655 167.208C48.4562 169.112 49.7009 170.918 51.0936 172.607C49.9597 177.352 49.362 182.299 49.362 187.381C49.362 202.123 54.3841 215.715 62.8262 226.533Z" fill="#FF71C8"/>
<path d="M171.686 108.507C168.796 107.851 165.789 107.502 162.695 107.502C162.363 107.502 162.03 107.509 161.697 107.515C159.294 107.57 156.946 107.839 154.672 108.304C144.893 110.264 136.402 115.761 130.603 123.39C130.135 123.996 129.691 124.621 129.266 125.251C124.99 131.6 122.494 139.235 122.494 147.445C122.494 139.235 119.998 131.6 115.722 125.251C115.297 124.621 114.853 123.996 114.385 123.39C108.697 115.902 100.415 110.472 90.8638 108.415C88.4174 107.882 85.8909 107.576 83.2967 107.515C82.9639 107.515 82.6312 107.502 82.2984 107.502C79.5378 107.502 76.8388 107.778 74.2384 108.311C55.9 112.015 42.103 128.129 42.103 147.445C42.103 154.632 44.0133 161.379 47.3655 167.208C48.4562 169.112 49.7009 170.918 51.0935 172.608C51.3523 172.932 51.6235 173.257 51.9008 173.569C54.9818 177.107 58.6729 180.095 62.8139 182.379C64.1264 183.107 65.4821 183.762 66.8809 184.332C68.9513 185.189 71.1081 185.881 73.3326 186.383C76.2164 187.038 79.2174 187.381 82.2984 187.381C95.775 187.381 107.705 180.793 114.995 170.679C115.007 170.661 115.019 170.648 115.032 170.63L113.774 168.469L114.631 167.948C114.52 167.41 114.458 166.853 114.458 166.277C114.458 162.389 117.256 159.151 120.953 158.434C121.452 158.336 121.97 158.287 122.494 158.287C123.018 158.287 123.535 158.336 124.034 158.434C127.738 159.151 130.535 162.389 130.535 166.277C130.535 166.846 130.474 167.41 130.357 167.942L131.176 168.444L131.219 168.469L129.962 170.63C137.252 180.769 149.194 187.381 162.695 187.381C166.054 187.381 169.32 186.971 172.438 186.199C174.391 185.715 176.283 185.091 178.113 184.332C179.512 183.762 180.867 183.107 182.18 182.379C186.691 179.893 190.671 176.563 193.9 172.608C193.956 172.546 194.005 172.485 194.048 172.424C195.324 170.857 196.47 169.191 197.493 167.446C200.925 161.563 202.891 154.73 202.891 147.445C202.891 128.459 189.556 112.566 171.686 108.507ZM87.9491 171.401C81.368 171.401 75.3907 168.775 71.0403 164.526C69.3703 162.897 67.9469 161.03 66.8131 158.985C65.8703 157.296 65.1308 155.477 64.6255 153.561C64.1079 151.608 63.8306 149.557 63.8306 147.445C63.8306 147.285 63.8306 147.126 63.8368 146.967C63.997 138.733 68.3413 131.52 74.8423 127.327C78.6135 124.896 83.118 123.482 87.9491 123.482C91.3506 123.482 94.5857 124.18 97.5188 125.441C99.8481 126.439 101.98 127.792 103.86 129.433C108.894 133.822 112.068 140.263 112.068 147.445C112.068 152.63 110.41 157.43 107.594 161.349C103.219 167.434 96.0523 171.401 87.9491 171.401ZM178.852 156.622C177.651 159.426 175.919 161.955 173.787 164.085C169.418 168.457 163.361 171.169 156.669 171.169C148.677 171.169 141.596 167.306 137.209 161.361C134.276 157.4 132.55 152.502 132.55 147.206C132.55 140.049 135.705 133.627 140.709 129.237C142.539 127.627 144.622 126.292 146.89 125.294C149.878 123.978 153.187 123.243 156.669 123.243C162.159 123.243 167.231 125.067 171.285 128.147C176.887 132.39 180.559 139.014 180.775 146.502C180.781 146.734 180.787 146.967 180.787 147.206C180.787 149.404 180.492 151.534 179.931 153.561C179.641 154.614 179.278 155.636 178.852 156.622Z" fill="#FFC2C7"/>
<path d="M164.68 147.977C168.019 147.977 170.885 145.957 172.099 143.073C172.154 142.951 172.204 142.822 172.247 142.694C172.555 141.849 172.721 140.937 172.721 139.988C172.721 139.406 172.66 138.837 172.536 138.286C171.754 134.698 168.531 132.004 164.68 132.004C164.328 132.004 163.977 132.029 163.638 132.071C161.611 132.329 159.824 133.339 158.567 134.808C158.468 134.912 158.382 135.022 158.296 135.133C157.322 136.388 156.718 137.943 156.65 139.633C156.638 139.749 156.638 139.871 156.638 139.988C156.638 144.347 160.15 147.892 164.519 147.971C164.575 147.977 164.624 147.977 164.68 147.977Z" fill="white"/>
<path d="M97.6914 132.727C97.143 132.604 96.576 132.543 95.9906 132.543C93.7908 132.543 91.8004 133.418 90.3523 134.839C90.2537 134.931 90.1613 135.022 90.0689 135.12C88.8796 136.412 88.1032 138.096 87.9738 139.957C87.9553 140.147 87.9491 140.337 87.9491 140.533C87.9491 144.941 91.5478 148.516 95.9906 148.516C98.8437 148.516 101.346 147.041 102.769 144.812C102.849 144.702 102.917 144.586 102.978 144.469C103.644 143.306 104.026 141.965 104.026 140.533C104.026 136.7 101.309 133.498 97.6914 132.727Z" fill="white"/>
<path d="M159.269 163.767C164.051 163.767 168.303 161.465 170.965 157.914C172.333 156.083 173.288 153.928 173.664 151.583C173.787 150.83 173.849 150.065 173.849 149.281C173.849 146.912 173.27 144.671 172.247 142.694C172.204 142.822 172.154 142.951 172.099 143.073C170.885 145.957 168.019 147.977 164.68 147.977C164.624 147.977 164.575 147.977 164.519 147.971C160.15 147.892 156.638 144.347 156.638 139.988C156.638 139.871 156.638 139.749 156.65 139.633C156.718 137.943 157.322 136.388 158.296 135.133C158.382 135.022 158.468 134.912 158.567 134.808C156.453 134.906 154.451 135.457 152.664 136.369C147.931 138.763 144.684 143.655 144.684 149.281C144.684 151.375 145.133 153.371 145.947 155.171C148.227 160.234 153.341 163.767 159.269 163.767Z" fill="#231B3B"/>
<path d="M75.7542 154.828C77.9541 160.069 83.1672 163.767 89.2246 163.767C94.4993 163.767 99.1332 160.969 101.697 156.781C103.034 154.595 103.81 152.024 103.81 149.281C103.81 147.592 103.521 145.975 102.978 144.469C102.917 144.585 102.849 144.702 102.769 144.812C101.345 147.041 98.8436 148.516 95.9906 148.516C91.5477 148.516 87.949 144.941 87.949 140.532C87.949 140.337 87.9552 140.147 87.9737 139.957C88.1031 138.096 88.8795 136.412 90.0688 135.12C90.1612 135.022 90.2536 134.93 90.3522 134.839C89.9825 134.802 89.6066 134.79 89.2246 134.79C81.1892 134.79 74.645 141.292 74.645 149.281C74.645 149.814 74.6758 150.34 74.7313 150.855C74.8853 152.251 75.2366 153.579 75.7542 154.828Z" fill="#231B3B"/>
<path d="M124.034 158.434C123.535 158.336 123.018 158.287 122.494 158.287C121.97 158.287 121.452 158.336 120.953 158.434C117.256 159.151 114.458 162.389 114.458 166.277C114.458 166.853 114.52 167.41 114.631 167.948L117.928 165.946L122.494 163.173L127.066 165.946L130.357 167.942C130.474 167.41 130.535 166.846 130.535 166.277C130.535 162.389 127.738 159.151 124.034 158.434Z" fill="#231B3B"/>
<path d="M156.669 171.169C163.361 171.169 169.418 168.457 173.787 164.085C175.919 161.955 177.651 159.426 178.852 156.622C179.296 155.698 179.931 153.561 179.931 153.561C180.492 151.534 180.787 149.404 180.787 147.206C180.787 146.967 180.781 146.734 180.775 146.502C180.559 139.014 176.887 132.39 171.285 128.147C167.231 125.067 162.159 123.243 156.669 123.243C153.187 123.243 149.878 123.978 146.89 125.294C144.622 126.292 142.539 127.627 140.709 129.237C135.705 133.626 132.55 140.049 132.55 147.206C132.55 152.502 134.276 157.4 137.209 161.361C141.596 167.306 148.677 171.169 156.669 171.169ZM158.567 134.808C159.824 133.339 161.611 132.329 163.638 132.071C163.977 132.029 164.328 132.004 164.68 132.004C168.531 132.004 171.754 134.698 172.536 138.286C172.66 138.837 172.721 139.406 172.721 139.988C172.721 140.937 172.555 141.849 172.247 142.694C173.27 144.671 173.849 146.912 173.849 149.281C173.849 150.065 173.787 150.83 173.664 151.583C173.288 153.928 172.333 156.083 170.965 157.914C168.303 161.465 164.051 163.767 159.269 163.767C153.341 163.767 148.227 160.234 145.947 155.171C145.133 153.371 144.684 151.375 144.684 149.281C144.684 143.655 147.931 138.763 152.664 136.369C154.451 135.457 156.453 134.906 158.567 134.808Z" fill="#FDF001"/>
<path d="M130.357 167.942L127.066 165.946L122.494 163.173L117.928 165.946L114.631 167.948L113.774 168.469L115.031 170.63L118.137 175.975L122.494 183.475L126.857 175.975L128.354 173.403L129.962 170.63L131.219 168.469L131.176 168.444L130.357 167.942Z" fill="#FDF001"/>
<path d="M103.86 129.433C101.98 127.792 99.8481 126.439 97.5188 125.441C94.5856 124.18 91.3505 123.482 87.9491 123.482C83.118 123.482 78.6135 124.896 74.8423 127.327C68.3412 131.52 63.9969 138.733 63.8367 146.967C63.8306 147.126 63.8306 147.285 63.8306 147.445C63.8306 149.557 64.1079 151.608 64.6255 153.561C65.1308 155.477 65.8702 157.296 66.813 158.985C67.9469 161.03 69.3703 162.897 71.0402 164.526C75.3907 168.775 81.3679 171.401 87.9491 171.401C96.0522 171.401 103.219 167.434 107.594 161.349C110.41 157.43 112.068 152.63 112.068 147.445C112.068 140.263 108.894 133.822 103.86 129.433ZM89.2246 163.767C83.1673 163.767 77.9541 160.069 75.7542 154.828C75.2366 153.579 74.8854 152.251 74.7313 150.855C74.6759 150.341 74.6451 149.814 74.6451 149.281C74.6451 141.292 81.1892 134.79 89.2246 134.79C89.6067 134.79 89.9826 134.802 90.3523 134.839C91.8004 133.418 93.7907 132.543 95.9906 132.543C96.576 132.543 97.1429 132.604 97.6913 132.727C101.308 133.498 104.026 136.7 104.026 140.533C104.026 141.965 103.644 143.306 102.978 144.469C103.521 145.975 103.81 147.592 103.81 149.281C103.81 152.024 103.034 154.596 101.697 156.781C99.1333 160.969 94.4994 163.767 89.2246 163.767Z" fill="#FDF001"/>
<g opacity="0.5">
<path d="M116.929 210.327C119.844 213.352 122.562 216.786 125.107 220.129L124.09 220.184C126.167 216.799 128.305 213.468 130.757 210.327C129.537 213.052 128.114 215.66 126.641 218.25C126.154 219.113 125.637 219.958 125.137 220.809C124.971 221.097 124.595 221.195 124.306 221.029C121.631 217.699 119.111 213.995 116.923 210.327H116.929Z" fill="white"/>
<path d="M100.027 206.654C102.288 208.815 104.254 211.252 106.146 213.731L105.129 213.786C106.657 211.307 108.247 208.882 110.151 206.654C109.067 209.372 107.662 211.907 106.183 214.411C105.979 214.784 105.413 214.815 105.166 214.466C103.293 211.974 101.487 209.421 100.027 206.654Z" fill="white"/>
<path d="M147.715 206.691C146.877 208.889 145.602 210.927 144.295 212.874C143.531 213.689 142.786 215.929 141.375 214.986C140.401 213.738 139.766 212.231 139.051 210.817C138.429 209.482 137.875 208.123 137.486 206.685C137.474 206.648 137.486 206.605 137.523 206.593C137.548 206.587 137.579 206.593 137.591 206.617L142.139 214.031L141.935 214.019L147.611 206.611C147.654 206.55 147.752 206.617 147.709 206.685L147.715 206.691Z" fill="white"/>
<path d="M114.822 232.007C117.077 234.755 121.563 240.327 123.769 243.113L122.925 243.155C125.057 239.341 127.362 235.227 130.264 232.007C128.705 236.078 126.203 240.008 123.8 243.676C123.628 243.988 123.159 244.012 122.956 243.719L118.815 237.921L114.723 232.086C114.68 232.025 114.773 231.951 114.822 232.013V232.007Z" fill="white"/>
<path d="M98.2952 224.488C100.058 226.533 102.541 229.545 104.279 231.67L103.434 231.713C104.747 229.135 106.3 226.607 108.315 224.494C108.358 224.445 108.444 224.494 108.42 224.556C107.495 227.311 105.973 229.87 104.303 232.227C104.131 232.539 103.662 232.57 103.459 232.27L100.803 228.431C99.9343 227.139 99.047 225.86 98.1905 224.556C98.1535 224.494 98.2398 224.421 98.2891 224.482L98.2952 224.488Z" fill="white"/>
<path d="M146.803 226.784C145.324 229.043 143.094 232.245 141.535 234.492C141.338 234.792 140.863 234.762 140.691 234.449C139.976 233.384 138.928 231.909 138.355 230.776C137.782 229.582 136.821 227.96 136.617 226.699C138.7 228.707 140.228 231.376 141.559 233.929L140.715 233.886L143.685 230.28C144.69 229.086 145.682 227.886 146.699 226.711C146.742 226.656 146.84 226.723 146.797 226.784H146.803Z" fill="white"/>
<path d="M163.33 219.339C161.851 221.599 159.621 224.801 158.062 227.048C157.864 227.348 157.39 227.317 157.217 227.005C156.503 225.939 155.455 224.464 154.882 223.331C154.309 222.137 153.348 220.515 153.144 219.254C155.227 221.262 156.755 223.931 158.086 226.484L157.242 226.441L160.212 222.835C161.217 221.641 162.209 220.442 163.225 219.266C163.269 219.211 163.367 219.278 163.324 219.339H163.33Z" fill="white"/>
<path d="M81.7685 219.266C83.5309 221.311 86.0142 224.323 87.7519 226.447L86.9077 226.49C88.2202 223.913 89.7731 221.384 91.7881 219.272C91.8312 219.223 91.9175 219.272 91.8928 219.333C90.9685 222.088 89.4465 224.648 87.7766 227.005C87.604 227.317 87.1357 227.347 86.9323 227.047L84.2765 223.209C83.4076 221.917 82.5203 220.637 81.6637 219.333C81.6268 219.272 81.713 219.199 81.7623 219.26L81.7685 219.266Z" fill="white"/>
<path d="M120.417 192.181C122.679 194.342 124.644 196.779 126.536 199.258L125.519 199.313C127.048 196.834 128.637 194.409 130.542 192.181C129.457 194.893 128.052 197.434 126.573 199.938C126.37 200.311 125.803 200.342 125.556 199.993C123.683 197.501 121.878 194.948 120.417 192.181Z" fill="white"/>
</g>
<path d="M143.679 253.68C143.679 255.608 144.721 258.418 145.688 260.604C146.514 262.471 148.067 262.471 148.892 260.604C149.86 258.418 150.901 255.614 150.901 253.68C150.901 250.086 149.287 247.178 147.29 247.178C145.294 247.178 143.679 250.092 143.679 253.68Z" fill="#FDF001"/>
<path d="M135.779 253.68C135.779 255.608 136.821 258.418 137.788 260.604C138.614 262.471 140.167 262.471 140.992 260.604C141.96 258.418 143.001 255.614 143.001 253.68C143.001 250.086 141.387 247.178 139.39 247.178C137.394 247.178 135.779 250.092 135.779 253.68Z" fill="#FDF001"/>
<path d="M127.88 253.68C127.88 255.608 128.921 258.418 129.888 260.604C130.714 262.471 132.267 262.471 133.093 260.604C134.06 258.418 135.102 255.614 135.102 253.68C135.102 250.086 133.487 247.178 131.491 247.178C129.494 247.178 127.88 250.092 127.88 253.68Z" fill="#FDF001"/>
<path d="M109.892 253.68C109.892 255.608 110.934 258.418 111.901 260.604C112.727 262.471 114.28 262.471 115.105 260.604C116.073 258.418 117.114 255.614 117.114 253.68C117.114 250.086 115.5 247.178 113.503 247.178C111.507 247.178 109.892 250.092 109.892 253.68Z" fill="#FDF001"/>
<path d="M101.992 253.68C101.992 255.608 103.034 258.418 104.001 260.604C104.827 262.471 106.38 262.471 107.206 260.604C108.173 258.418 109.214 255.614 109.214 253.68C109.214 250.086 107.6 247.178 105.603 247.178C103.607 247.178 101.992 250.092 101.992 253.68Z" fill="#FDF001"/>
<path d="M94.0927 253.68C94.0927 255.608 95.1341 258.418 96.1015 260.604C96.9272 262.471 98.4801 262.471 99.3058 260.604C100.273 258.418 101.315 255.614 101.315 253.68C101.315 250.086 99.7002 247.178 97.7036 247.178C95.7071 247.178 94.0927 250.092 94.0927 253.68Z" fill="#FDF001"/>
</g>
</g>
<defs>
<filter id="filter0_d_47_2316" x="0" y="0" width="261" height="279" filterUnits="userSpaceOnUse" color-interpolation-filters="sRGB">
<feFlood flood-opacity="0" result="BackgroundImageFix"/>
<feColorMatrix in="SourceAlpha" type="matrix" values="0 0 0 0 0 0 0 0 0 0 0 0 0 0 0 0 0 0 127 0" result="hardAlpha"/>
<feOffset dx="8" dy="7"/>
<feGaussianBlur stdDeviation="5"/>
<feComposite in2="hardAlpha" operator="out"/>
<feColorMatrix type="matrix" values="0 0 0 0 0 0 0 0 0 0 0 0 0 0 0 0 0 0 0.25 0"/>
<feBlend mode="normal" in2="BackgroundImageFix" result="effect1_dropShadow_47_2316"/>
<feBlend mode="normal" in="SourceGraphic" in2="effect1_dropShadow_47_2316" result="shape"/>
</filter>
<clipPath id="clip0_47_2316">
<rect width="241" height="259" fill="white" transform="translate(2 3)"/>
</clipPath>
</defs>
</svg>
