<svg width="352" height="91" viewBox="0 0 352 91" fill="none" xmlns="http://www.w3.org/2000/svg">
<path d="M338.365 35.2772C326.533 37.117 319.054 45.9129 315.494 61.4283C311.203 44.6663 303.236 37.6694 290.575 39.7322C303.548 37.2715 311.768 29.4431 313.447 13.5811C316.508 31.5927 326.187 37.5132 338.366 35.2771L338.365 35.2772Z" fill="#FDF001"/>
<path d="M352 64.0409C345.101 64.9459 340.635 69.9521 338.352 78.916C336.091 69.1193 331.56 64.9445 324.177 65.9676C331.746 64.7176 336.63 60.2837 337.825 51.0925C339.353 61.5981 344.894 65.1713 352 64.0409L352 64.0409Z" fill="#FDF001"/>
<path d="M307.353 79.1472C302.058 79.8418 298.631 83.6837 296.879 90.563C295.144 83.0446 291.666 79.8406 286 80.6258C291.809 79.6665 295.557 76.2638 296.474 69.21C297.647 77.2725 301.9 80.0148 307.353 79.1472L307.353 79.1472Z" fill="#FDF001"/>
<path d="M52.3652 22.2772C40.5331 24.117 33.0543 32.9129 29.4939 48.4283C25.2033 31.6663 17.2363 24.6694 4.57537 26.7322C17.5475 24.2715 25.7682 16.4431 27.4475 0.581093C30.5078 18.5927 40.1873 24.5132 52.366 22.2771L52.3652 22.2772Z" fill="#FDF001"/>
<path d="M65.9996 51.0409C59.1008 51.9459 54.6346 56.9521 52.3516 65.916C50.0911 56.1193 45.5599 51.9445 38.1765 52.9676C45.7462 51.7176 50.6299 47.2837 51.825 38.0925C53.3535 48.5981 58.8944 52.1713 66 51.0409L65.9996 51.0409Z" fill="#FDF001"/>
<path d="M21.3526 66.1472C16.0581 66.8418 12.6306 70.6837 10.8785 77.563C9.14375 70.0446 5.6663 66.8406 -4.34368e-07 67.6258C5.80927 66.6665 9.55728 63.2638 10.4744 56.21C11.6474 64.2725 15.8998 67.0148 21.3529 66.1472L21.3526 66.1472Z" fill="#FDF001"/>
<path d="M187.943 57.1637C180.951 58.2509 176.532 63.4484 174.428 72.6166C171.893 62.7118 167.185 58.5773 159.704 59.7963C167.369 58.3422 172.227 53.7163 173.219 44.3433C175.027 54.9865 180.747 58.485 187.944 57.1637L187.943 57.1637Z" fill="#FDF001"/>
<path d="M196 74.1606C191.923 74.6954 189.284 77.6536 187.935 82.9504C186.599 77.1615 183.922 74.6945 179.559 75.2991C184.032 74.5605 186.918 71.9405 187.624 66.5093C188.527 72.7171 191.801 74.8286 196 74.1606L196 74.1606Z" fill="#FDF001"/>
<path d="M169.617 83.0871C166.489 83.4975 164.464 85.7677 163.428 89.8328C162.403 85.3901 160.348 83.4968 157 83.9608C160.433 83.394 162.647 81.3832 163.189 77.2151C163.883 81.9793 166.395 83.5997 169.618 83.0871L169.617 83.0871Z" fill="#FDF001"/>
</svg>
