<svg width="390" height="604" viewBox="0 0 390 604" fill="none" xmlns="http://www.w3.org/2000/svg">
<g clip-path="url(#clip0_264_3865)">
<path d="M374.25 89.69C372.05 78.25 369.98 67.45 369.38 57.59C366.38 8.38 389.77 0.29 390.01 0.21L389.83 -1C389.58 -0.92 383.63 1.05 377.99 9.3C368.58 23.05 367.66 43.21 368.54 57.7C369.15 67.67 371.23 78.52 373.44 90.02C377.62 111.78 382.25 135.89 379.48 163.79C376.93 137.85 368.08 115.12 360.27 87.73C342.95 27.02 371.68 -0.39 371.68 -0.39H0C9.63 64.56 32.62 74.38 50.46 91.78C56.46 104.38 60.17 118.27 58.67 135.84C56.69 159.02 44.35 180.85 32.41 201.97C28.64 208.65 24.92 215.23 21.56 221.76C5.17 247.2 -4 274.38 17.64 305.14C18.57 307.34 19.48 309.39 20.37 311.36C27.98 328.4 33.48 340.72 26.8 403.39C22.82 440.76 28.09 471.46 42.04 492.18C52.28 507.38 66.98 516.86 84.25 519.91C102.99 527.82 125.32 524.52 145.18 516.45C176.77 503.61 210.11 504.39 241.81 516.62C254.99 521.7 270.47 526.09 286.28 523.19C308.2 520.86 330.98 503.78 344.87 478.04C356.39 456.7 367.19 419.86 353.26 365.52C345.58 335.54 343.7 311.96 345.12 292.15C345.89 290.38 346.72 288.63 347.63 286.89C375.03 234.2 381.95 198.75 379.83 168.21C383.57 138.26 378.66 112.67 374.24 89.68L374.25 89.69ZM33.07 202.76C45.08 181.51 57.5 159.54 59.51 136C60.94 119.24 57.75 105.82 52.37 93.7C59.53 101.11 65.72 110.18 69.63 125.26C77.29 154.77 48.35 183.26 26.7 214.13C28.76 210.37 30.9 206.58 33.06 202.76H33.07ZM42.65 491.32C28.89 470.89 23.71 440.56 27.64 403.59C34.36 340.45 28.79 327.97 21.08 310.7C20.75 309.97 20.42 309.23 20.09 308.48C20.32 308.78 20.55 309.08 20.78 309.38C60.82 360.18 16.92 443.99 62.49 502.93C67.52 509.44 73.3 514.25 79.56 517.67C64.56 513.86 51.79 504.91 42.65 491.33V491.32ZM352.47 365.96C366.26 419.76 355.59 456.19 344.21 477.28C333.57 497 317.65 511.58 300.94 518.23C305.66 515.84 310.35 512.62 314.96 508.39C380.17 448.67 317.17 361.99 344.08 294.64C343 314.06 345.06 337.05 352.47 365.95V365.96Z" fill="url(#paint0_linear_264_3865)"/>
<path d="M30.0801 595.01H363.83C363.83 595.01 341.26 523.92 262.12 538.97C262.12 538.97 194.98 570.87 124.88 538.97C124.88 538.97 65.2101 525.41 30.0801 595.01Z" fill="#FE40B4"/>
<path d="M260.922 467.77C262.464 461.284 258.456 454.777 251.97 453.236C245.485 451.694 238.978 455.702 237.437 462.188C235.895 468.673 239.903 475.18 246.388 476.722C252.874 478.263 259.381 474.255 260.922 467.77Z" fill="#FDF001" stroke="url(#paint1_linear_264_3865)" stroke-width="0.5" stroke-miterlimit="10"/>
<path d="M249.17 475.31C249.6 475.45 249.86 475.6 249.93 476.05L250.21 476.94C250.3 477.23 250.55 477.99 250.64 478.27C250.54 478.46 250.45 478.66 250.31 478.87C250.07 478.78 249.89 478.68 249.7 478.58C249.61 478.3 249.37 477.54 249.27 477.25L248.99 476.36C248.78 475.96 248.9 475.68 249.18 475.32L249.17 475.31Z" fill="url(#paint2_linear_264_3865)"/>
<path d="M252.16 474.6C252.65 474.75 252.93 474.96 253.04 475.44L253.47 476.47C253.61 476.81 253.98 477.69 254.11 478.02C254.04 478.25 253.98 478.48 253.87 478.72C253.62 478.62 253.41 478.51 253.2 478.39C253.06 478.07 252.7 477.18 252.56 476.84L252.13 475.81C251.87 475.39 251.92 475.04 252.16 474.59V474.6Z" fill="url(#paint3_linear_264_3865)"/>
<path d="M254.861 473.75C255.291 473.76 255.581 473.81 255.741 474.21L256.201 474.94C256.351 475.18 256.751 475.8 256.891 476.03C256.841 476.23 256.791 476.43 256.701 476.66C256.461 476.64 256.261 476.6 256.051 476.56C255.901 476.33 255.511 475.7 255.361 475.47L254.901 474.74C254.611 474.42 254.681 474.14 254.861 473.75V473.75Z" fill="url(#paint4_linear_264_3865)"/>
<path d="M151.993 473.48C156.707 468.766 156.707 461.124 151.993 456.41C147.279 451.696 139.637 451.696 134.923 456.41C130.21 461.124 130.21 468.766 134.923 473.48C139.637 478.193 147.279 478.193 151.993 473.48Z" fill="#FDF001" stroke="url(#paint5_linear_264_3865)" stroke-width="0.5" stroke-miterlimit="10"/>
<path d="M136.19 472.47C136.25 472.98 136.17 473.33 135.77 473.64L134.99 474.47C134.73 474.74 134.07 475.45 133.82 475.72C133.58 475.76 133.34 475.8 133.07 475.8C133.06 475.53 133.07 475.29 133.1 475.05C133.34 474.79 134.01 474.07 134.27 473.8L135.05 472.97C135.33 472.56 135.68 472.45 136.19 472.48V472.47Z" fill="url(#paint6_linear_264_3865)"/>
<path d="M135.44 477.02C135.36 476.48 135.45 476.11 135.84 475.76L136.62 474.81C136.88 474.5 137.54 473.69 137.79 473.38C138.04 473.32 138.28 473.25 138.56 473.22C138.58 473.5 138.56 473.75 138.56 474.01C138.32 474.31 137.65 475.12 137.39 475.44L136.61 476.39C136.34 476.84 135.99 477 135.45 477.03L135.44 477.02Z" fill="url(#paint7_linear_264_3865)"/>
<path d="M138.77 478.16C138.5 477.74 138.42 477.42 138.65 476.99L139 475.98C139.12 475.65 139.41 474.79 139.52 474.47C139.72 474.35 139.92 474.23 140.16 474.13C140.29 474.36 140.37 474.58 140.45 474.8C140.34 475.12 140.04 475.98 139.93 476.31L139.58 477.32C139.5 477.79 139.23 478 138.76 478.17L138.77 478.16Z" fill="url(#paint8_linear_264_3865)"/>
<path d="M264.12 538.98C264.12 538.98 258.01 555.67 241.59 568.81C230.95 577.34 215.95 584.36 195.5 584.36C175.05 584.36 160.05 577.34 149.4 568.81C132.98 555.67 126.88 538.98 126.88 538.98C144.9 539.63 157.21 531.68 165.51 521.78C166.17 520.98 166.82 520.17 167.43 519.35C178.72 504.41 181.66 486.4 181.66 486.4H209.33C209.33 486.4 212.27 504.41 223.56 519.35C224.16 520.17 224.81 520.98 225.48 521.78C233.79 531.68 246.1 539.63 264.12 538.98V538.98Z" fill="#3E4BF6"/>
<path d="M264.12 538.98C264.12 538.98 258.01 555.67 241.59 568.81C230.95 577.34 215.95 584.36 195.5 584.36C175.05 584.36 160.05 577.34 149.4 568.81C132.98 555.67 126.88 538.98 126.88 538.98C144.9 539.63 157.21 531.68 165.51 521.78C166.17 520.98 166.82 520.17 167.43 519.35C178.72 504.41 181.66 486.4 181.66 486.4H209.33C209.33 486.4 212.27 504.41 223.56 519.35C224.16 520.17 224.81 520.98 225.48 521.78C233.79 531.68 246.1 539.63 264.12 538.98V538.98Z" fill="#FF71C8"/>
<path d="M223.57 519.35C215.46 524.52 205.83 527.51 195.51 527.51C185.19 527.51 175.55 524.51 167.44 519.35C178.73 504.41 181.67 486.4 181.67 486.4H209.34C209.34 486.4 212.28 504.41 223.57 519.35V519.35Z" fill="#FE40B4"/>
<path d="M247.79 422.2C247.79 393.315 224.377 369.9 195.495 369.9C166.613 369.9 143.2 393.315 143.2 422.2V462.88C143.2 491.764 166.613 515.18 195.495 515.18C224.377 515.18 247.79 491.764 247.79 462.88V422.2Z" fill="url(#paint9_linear_264_3865)"/>
<path d="M247.79 422.2C247.79 393.315 224.377 369.9 195.495 369.9C166.613 369.9 143.2 393.315 143.2 422.2V462.88C143.2 491.764 166.613 515.18 195.495 515.18C224.377 515.18 247.79 491.764 247.79 462.88V422.2Z" fill="#FDF001" stroke="url(#paint10_linear_264_3865)" stroke-miterlimit="10"/>
<path d="M168.906 480.917C172.476 477.348 172.476 471.561 168.906 467.991C165.337 464.422 159.55 464.422 155.981 467.991C152.411 471.561 152.411 477.348 155.981 480.917C159.55 484.487 165.337 484.487 168.906 480.917Z" fill="#FE40B4"/>
<path d="M237.477 481.381C241.097 477.863 241.18 472.077 237.662 468.457C234.144 464.837 228.358 464.754 224.737 468.272C221.117 471.79 221.034 477.576 224.552 481.196C228.07 484.816 233.857 484.899 237.477 481.381Z" fill="#FE40B4"/>
<path d="M196.5 414.05C199.02 425.94 201.48 439.02 203.89 450.85C204.78 454.98 205.38 459.16 205.83 463.36C205.92 464.11 205.28 464.78 204.52 464.73C202.6 464.62 200.68 464.48 198.76 464.3C196.84 464.11 194.92 463.89 193 463.57C192.84 463.54 192.84 463.3 193 463.27C196.82 462.65 200.66 462.34 204.52 462.11L203.23 463.63C201.31 455.5 200.64 447.16 199.43 438.91C198.42 431.71 197.11 421.41 196.21 414.09C196.18 413.92 196.47 413.85 196.5 414.04V414.05Z" fill="#00124C"/>
<path d="M198.84 498.89C201.364 498.89 203.411 495.689 203.411 491.74C203.411 487.791 201.364 484.59 198.84 484.59C196.317 484.59 194.271 487.791 194.271 491.74C194.271 495.689 196.317 498.89 198.84 498.89Z" fill="#FF9FDA"/>
<path d="M215.571 496.69C204.511 490.62 193.141 490.49 182.121 496.69C182.051 496.74 181.931 496.74 181.881 496.65C181.851 496.59 181.861 496.53 181.901 496.48C188.321 489.34 199.351 487.1 208.081 491.05C211.011 492.27 213.581 494.22 215.781 496.48C215.901 496.62 215.731 496.81 215.571 496.69V496.69Z" fill="#00124C"/>
<path d="M217.16 494.27C217.28 496.39 216.13 498.4 214.27 499.4C214.23 499.43 214.16 499.41 214.18 499.35C214.86 498.05 216.31 495.48 217.07 494.22C217.1 494.17 217.17 494.22 217.16 494.27Z" fill="#00124C"/>
<path d="M183.101 498.32C181.371 497.76 180.281 496.07 180.451 494.27C180.451 494.22 180.491 494.17 180.531 494.22C181.231 495.2 182.56 497.24 183.18 498.27C183.21 498.32 183.141 498.35 183.101 498.32Z" fill="#00124C"/>
<path d="M208.57 441.69C216.68 445.73 225.8 445.77 233.9 441.69C228.14 449.76 214.35 449.7 208.57 441.69Z" fill="#00124C"/>
<path d="M155.61 441.69C163.72 445.73 172.84 445.77 180.94 441.69C175.18 449.76 161.4 449.7 155.61 441.69Z" fill="#00124C"/>
<path d="M165.63 532.98C160.8 534.44 166.07 540.26 167.02 553.49C160.19 545.99 153.22 539.55 147.68 535.31C145.12 536.4 142.38 537.29 139.45 537.92C143.4 544.07 150.36 551.97 152.06 556.44C151.56 555.88 133.77 535.93 128.47 540.38C124.87 543.4 141.49 557.99 145.91 567.14C145.91 567.14 126.01 545.04 122.35 548.18C117.96 551.95 134.71 567.81 139.2 575.75C138.27 574.56 123.25 555.29 118.7 555.54C114.45 555.77 123.19 573.56 140.94 595H194.63C182.06 565.69 170.9 531.38 165.63 532.97V532.98Z" fill="#FF71C8"/>
<path d="M256.42 595.01C274.26 576.01 283.37 560.23 279.32 559.7C274.8 559.1 258.37 577.19 257.36 578.31C262.44 570.73 280.33 556.17 276.24 552.08C272.83 548.67 251.32 569.21 251.32 569.21C256.42 560.42 274.1 547.12 270.73 543.84C265.78 539.01 246.54 557.56 246 558.08C248.21 553.36 257 545.02 261.1 538.99C257.57 538.93 254.27 538.52 251.19 537.84C245.47 541.66 238.36 547.35 231.3 554.01C233.24 540.89 238.94 535.48 234.23 533.66C228.99 531.64 214.83 566.39 199.76 595.01H256.42Z" fill="#FF71C8"/>
<path d="M195.96 587.97L195.98 588C182.86 558.06 171.09 521.2 165.63 522.85C160.8 524.31 166.07 530.13 167.02 543.36C152.9 527.87 138.15 516.85 136.81 520.54C135.12 525.18 149.52 539.62 152.06 546.31C151.56 545.75 133.77 525.8 128.47 530.25C124.87 533.27 141.49 547.86 145.91 557.01C145.91 557.01 126.01 534.91 122.35 538.05C117.96 541.82 134.71 557.68 139.2 565.62C138.27 564.43 123.25 545.16 118.7 545.41C114 545.67 125.18 567.39 146.87 591.78C147.74 592.76 148.55 593.85 149.33 595.01H194.58C195.35 593.41 196.14 591.81 196.94 590.24C196.61 589.48 196.29 588.72 195.95 587.96L195.96 587.97Z" fill="#FDF001"/>
<path d="M195.96 587.97L195.98 588C182.86 558.06 171.09 521.2 165.63 522.85C160.8 524.31 166.07 530.13 167.02 543.36C152.9 527.87 138.15 516.85 136.81 520.54C135.12 525.18 149.52 539.62 152.06 546.31C151.56 545.75 133.77 525.8 128.47 530.25C124.87 533.27 141.49 547.86 145.91 557.01C145.91 557.01 126.01 534.91 122.35 538.05C117.96 541.82 134.71 557.68 139.2 565.62C138.27 564.43 123.25 545.16 118.7 545.41C114 545.67 125.18 567.39 146.87 591.78C147.74 592.76 148.55 593.85 149.33 595.01H194.58C195.35 593.41 196.14 591.81 196.94 590.24C196.61 589.48 196.29 588.72 195.95 587.96L195.96 587.97Z" fill="#FDF001"/>
<path d="M279.32 549.56C274.8 548.96 258.37 567.05 257.36 568.17C262.44 560.59 280.33 546.03 276.24 541.94C272.83 538.53 251.32 559.07 251.32 559.07C256.42 550.28 274.1 536.98 270.73 533.7C265.78 528.87 246.54 547.42 246 547.94C249.04 541.45 264.48 528.14 263.15 523.39C262.08 519.61 246.55 529.48 231.3 543.87C233.24 530.75 238.94 525.34 234.23 523.52C228.91 521.46 214.39 557.34 199.06 586.2L199.08 586.17C198.36 587.51 197.65 588.87 196.95 590.24C196.14 591.82 195.36 593.41 194.59 595.01H246.46C246.88 594.55 247.31 594.1 247.74 593.67C271.21 570.98 283.99 550.16 279.32 549.55V549.56Z" fill="#FDF001"/>
<path d="M279.32 549.56C274.8 548.96 258.37 567.05 257.36 568.17C262.44 560.59 280.33 546.03 276.24 541.94C272.83 538.53 251.32 559.07 251.32 559.07C256.42 550.28 274.1 536.98 270.73 533.7C265.78 528.87 246.54 547.42 246 547.94C249.04 541.45 264.48 528.14 263.15 523.39C262.08 519.61 246.55 529.48 231.3 543.87C233.24 530.75 238.94 525.34 234.23 523.52C228.91 521.46 214.39 557.34 199.06 586.2L199.08 586.17C198.36 587.51 197.65 588.87 196.95 590.24C196.14 591.82 195.36 593.41 194.59 595.01H246.46C246.88 594.55 247.31 594.1 247.74 593.67C271.21 570.98 283.99 550.16 279.32 549.55V549.56Z" fill="#FDF001"/>
<path d="M143.2 374.15V438.37H148.67V439.07C148.79 439.07 161.09 438.96 169.61 429.1C176.64 420.97 179.16 408.74 177.13 392.73C185.45 417.02 206.27 434.98 231.62 439.59L247.79 442.53V374.14H143.2V374.15Z" fill="#FFF983"/>
<path d="M133.67 359.54C117.47 380.89 121.85 408.03 133.67 437.26H140.29V438.11C140.44 438.11 155.31 437.97 165.63 426.05C174.14 416.21 177.18 401.41 174.73 382.04C184.8 411.43 209.99 433.17 240.68 438.75L260.25 442.3C273.39 413.04 275.22 385.22 260.25 359.54C182.66 317.65 182.8 330.51 133.68 359.54H133.67ZM164.99 425.48C156.86 434.89 145.81 436.78 141.81 437.16C148.32 434.69 173.54 422.61 174.03 383.35C176.18 401.87 173.15 416.04 164.98 425.48H164.99Z" fill="#FE40B4"/>
<path d="M173.23 330.08C171.33 328.08 171.15 326.19 172.69 324.82C174.05 323.61 176.2 323.76 177.39 325.14C178.74 326.72 178.34 328.71 176.28 330.26C178.71 336.08 181.15 341.93 183.66 347.97C185.49 343.8 187.22 339.85 188.95 335.9C191.07 331.08 193.17 326.25 195.31 321.44C195.61 320.77 195.7 320.34 195.03 319.74C193.68 318.53 193.74 316.54 194.99 315.3C196.26 314.05 198.34 314.05 199.62 315.3C200.91 316.56 200.96 318.47 199.68 319.75C199.24 320.19 199.03 320.48 199.35 321.16C203.48 329.82 207.57 338.5 211.67 347.18C211.74 347.34 211.84 347.48 212.01 347.78C214.3 341.8 216.54 335.96 218.78 330.11C216.38 328.5 216.36 326.24 217.67 324.79C218.87 323.46 220.96 323.42 222.28 324.65C223.79 326.05 223.64 327.97 221.81 329.8C225.15 335.3 228.51 340.83 231.94 346.47C233.45 345.21 234.88 344.02 236.3 342.82C241.27 338.64 246.22 334.44 251.21 330.28C251.78 329.81 251.83 329.46 251.57 328.79C250.91 327.07 251.96 325.2 253.75 324.74C255.59 324.27 257.49 325.44 257.83 327.24C258.18 329.13 256.96 330.91 255.07 331.01C254.19 331.06 254.03 331.52 253.85 332.14C252.4 337.06 250.95 341.97 249.5 346.89C246.69 356.42 243.88 365.94 241.09 375.48C240.89 376.16 240.57 376.33 239.9 376.33C212.47 370 184.71 370.37 156.65 376.75C155.95 376.75 155.67 376.53 155.46 375.88C151.43 363.56 147.38 351.24 143.33 338.93C142.62 336.78 141.9 334.64 141.2 332.49C141.02 331.93 140.82 331.65 140.11 331.62C138.14 331.53 136.86 329.81 137.15 327.85C137.42 326.06 139.29 324.88 141.15 325.33C142.99 325.78 144.05 327.67 143.41 329.46C143.22 329.99 143.19 330.31 143.69 330.72C150.22 335.98 156.74 341.26 163.26 346.54C163.34 346.61 163.44 346.65 163.68 346.8C166.86 341.23 170.04 335.66 173.21 330.11L173.23 330.08Z" fill="#FDF001"/>
<path d="M155.81 377.58C154.67 377.28 154.46 375.77 154.12 374.85L153.22 372.1C149.98 362.18 143.94 343.72 140.63 333.63L140.26 332.52C137.57 332.58 135.51 329.69 136.4 327.07C138.24 322.06 145.87 324.47 144.3 329.63C144.26 329.76 144.22 329.86 144.2 329.94C144.2 329.97 144.2 329.99 144.2 329.95C144.2 329.91 144.17 329.87 144.18 329.89C144.26 329.97 144.52 330.17 144.69 330.31L145.81 331.22L163.78 345.78L163.19 345.89L172.32 329.95L172.36 330.38C171.26 329.16 170.38 327.39 171.02 325.72C172.46 322.08 177.89 322.43 178.88 326.19C179.36 327.9 178.37 329.63 177.08 330.67L177.18 330.26L183.98 346.62H183.36C184.77 343.41 191.66 327.75 192.93 324.89L193.89 322.72C194.09 322.23 194.66 321.08 194.76 320.64C194.82 320.54 194.41 320.24 194.14 319.92C193.86 319.59 193.64 319.22 193.49 318.81C192.49 316.29 194.76 313.39 197.42 313.58C200.07 313.58 202.2 316.52 201.09 319C200.87 319.56 200.42 320.09 200.02 320.5C199.93 320.63 199.96 320.6 200.02 320.76C202.59 326.19 209.53 340.89 212.18 346.51L211.72 346.53L218 330.19L218.08 330.46C216.76 329.51 215.8 327.82 216.2 326.15C218.28 319.55 227.56 324.73 222.58 330L222.6 329.75L232.24 345.64L231.95 345.59L249.69 330.72L250.8 329.79C250.99 329.63 251.14 329.51 251.1 329.35C250.63 328.23 250.61 326.82 251.32 325.78C252.96 322.96 257.7 323.69 258.41 326.88C258.94 328.84 257.75 331.15 255.69 331.54C255.45 331.6 255.17 331.61 254.96 331.63C254.74 331.66 254.65 331.75 254.56 331.98C254.41 332.42 254.28 332.9 254.15 333.36C251.11 343.63 245.64 362.12 242.67 372.2L241.85 374.97C241.7 375.42 241.63 375.93 241.3 376.34C240.94 376.8 240.32 376.91 239.79 376.86C212.48 370.54 182.46 370.78 155.81 377.57V377.58ZM155.97 377.11C156.22 377.19 156.51 377.22 156.77 377.19C183.97 370.93 212.58 370.37 239.83 376.68C240.2 376.7 240.89 376.63 241.15 376.22C241.44 375.87 241.52 375.38 241.66 374.92L242.47 372.14C245.4 362.12 250.87 343.46 253.86 333.27C254.08 332.69 254.1 332.02 254.5 331.51C254.83 331.24 255.26 331.36 255.61 331.25C258.6 330.68 259.13 326.19 256.46 324.81C253.89 323.2 250.31 325.6 251.19 328.59C251.3 328.91 251.57 329.43 251.28 329.76C251.18 329.91 232.68 345.45 232.01 346.02L231.89 345.83L222.22 329.96L222.14 329.82L222.25 329.7C224.8 327.2 223.35 323.38 219.73 323.5C216.21 323.89 215.5 328.19 218.34 330.08L218.48 330.19L218.42 330.35L212.17 346.7L211.96 347.25L211.71 346.72C209.01 341.03 202.1 326.48 199.49 320.99C199.45 320.89 199.39 320.77 199.39 320.59C199.39 320.39 199.5 320.24 199.57 320.15C200.54 319.26 201.08 317.94 200.67 316.65C199.26 312.33 192.7 314.15 194.05 318.6C194.25 319.13 194.56 319.55 194.99 319.93C195.13 320.07 195.37 320.3 195.36 320.66C195.28 321.24 195.06 321.49 194.92 321.88C192.66 327.01 186.31 341.54 183.97 346.88L183.66 347.6L183.36 346.88L176.53 330.54L176.43 330.29L176.63 330.13C179.38 328.09 178.49 324.21 175.08 323.88C173.66 323.76 172.22 324.67 171.71 325.98C171.2 327.31 171.92 328.79 172.92 329.89L173.1 330.09L172.97 330.33L163.87 346.29L163.64 346.69L163.28 346.4L145.28 331.88L144.15 330.97C143.72 330.62 143.24 330.37 143.38 329.75C143.73 328.81 143.8 327.79 143.3 326.9C142.11 324.42 138.02 324.69 137.24 327.34C136.63 329.19 137.86 331.44 139.88 331.6C140.23 331.66 140.4 331.57 140.79 331.81C141.14 332.1 141.12 332.35 141.25 332.68C145.41 345 151.43 363.73 155.5 375.91C155.64 376.31 155.82 376.55 156.12 376.64L155.96 377.11H155.97Z" fill="#00124C"/>
<path d="M140.89 330.75C142.04 331.07 142.26 332.65 142.61 333.59C143.2 335.36 144.81 340.32 145.43 342.17C148.55 351.6 152.62 364.25 155.72 373.64C155.87 374.03 156.31 375.49 156.43 375.8C169.62 372.93 184.32 370.94 198.28 370.92C212.28 370.72 226.9 372.54 240.22 375.47C240.33 375.36 240.36 375.03 240.45 374.81L240.85 373.46C244.1 362.45 249.49 344.18 252.8 333.01L253.21 331.65C253.36 330.89 254.2 330.22 255.02 330.24C256.58 330.22 257.53 328.44 257 327.04C256.44 325.38 254.05 324.85 252.84 326.13C252.24 326.72 252 327.64 252.27 328.43C252.43 328.84 252.63 329.43 252.4 329.98C252.19 330.53 251.73 330.85 251.39 331.13L249.24 332.94L232 347.39C231.69 347.65 231.82 347.62 231.62 347.33L221.03 329.86L220.93 329.7C221.44 329.21 221.93 328.71 222.25 328.11C223.36 326.42 221.73 324.28 219.83 324.48C217.89 324.56 216.79 327.04 218.07 328.53C218.47 329.07 219.04 329.48 219.63 329.86L219.57 330.02L212.28 348.98L212.14 349.34C211.19 347.86 210.48 346.21 209.73 344.63C208.42 341.84 204.84 334.27 203.47 331.39L199.3 322.56C199.01 321.89 198.34 320.94 198.64 320.16C198.98 319.35 199.77 319.01 199.92 318.13C200.5 315.57 197.01 313.89 195.3 315.89C194.5 316.75 194.41 318.16 195.2 319.05C196.53 320.17 196.24 321.03 195.55 322.44L191.61 331.37L183.75 349.25L183.65 349.48L183.55 349.25L175.62 330.16L175.59 330.1C176.13 329.71 176.66 329.28 177.04 328.74C179.49 325.15 173.34 322.6 172.22 326.64C172.06 327.97 173.02 329.11 173.9 330.02L173.87 330.06L163.9 347.47L163.88 347.51C163.08 347.09 162.39 346.48 161.7 345.92C157.93 342.87 151.09 337.32 147.26 334.23C145.89 333.11 144.5 332.02 143.15 330.87C142.41 330.14 143.15 329.18 143.12 328.33C143.13 326.46 140.98 325.2 139.31 325.91C137.53 326.52 137.06 328.97 138.32 330.3C138.94 331.02 139.86 331.11 140.73 331.23L140.89 330.76V330.75ZM140.73 331.22C139.86 331.09 138.92 331.01 138.32 330.29C137.07 328.95 137.51 326.49 139.31 325.88C141.01 325.16 143.15 326.42 143.16 328.31C143.2 329.16 142.45 330.1 143.19 330.83C144.53 331.97 145.93 333.06 147.3 334.18C150.11 336.45 157 341.99 159.7 344.17C160.87 345.13 162.79 346.68 163.84 347.41L173.77 329.98C173.05 329.47 171.88 327.85 172.09 326.6C172.75 323.5 177.43 323.81 177.78 326.93C177.89 328.33 176.8 329.43 175.76 330.17L175.79 330.07L183.76 349.14H183.56L191.39 331.24L195.31 322.3C195.6 321.56 196.12 320.8 195.76 320.11C195.38 319.45 194.53 318.93 194.43 318.07C194.03 316.32 195.62 314.59 197.38 314.69C199.12 314.67 200.67 316.44 200.24 318.19C200.12 319.04 199.27 319.57 198.96 320.25C198.71 320.94 199.32 321.67 199.61 322.41L203.8 331.23C206.29 336.27 209.63 343.93 212.28 348.8L211.93 348.83L219.18 329.86L219.26 330.11C218.13 329.42 217 328.27 217.08 326.82C217.15 325.39 218.36 324.12 219.8 324.04C222.03 323.81 223.96 326.32 222.66 328.33C222.33 328.94 221.86 329.45 221.39 329.9L221.42 329.62L232.05 347.07L231.67 347.01L248.88 332.52L251.03 330.71C251.4 330.4 251.74 330.14 251.87 329.79C252.01 329.45 251.9 329.07 251.73 328.62C250.94 326.5 253.2 324.36 255.29 324.92C258.15 325.45 258.66 329.71 255.82 330.71C255.39 330.88 254.88 330.8 254.47 330.98C253.76 331.24 253.69 332.32 253.38 333.19L247.04 354.77C245.58 359.74 242.94 368.77 241.51 373.66L241.12 375.01C241.01 375.39 240.93 376 240.43 376.15C240.22 376.2 240.1 376.2 239.94 376.21C226.29 373.08 212.28 371.59 198.28 371.73C184.28 371.86 170.3 373.61 156.66 376.72C156.47 376.72 156.34 376.72 156.07 376.62C155.81 376.51 155.66 376.26 155.61 376.12C155.49 375.81 155.44 375.62 155.35 375.37L154.88 373.94C151.77 364.57 147.64 351.91 144.52 342.49C143.93 340.65 142.26 335.71 141.68 333.92L141.21 332.49C141.07 332.05 140.9 331.81 140.58 331.71L140.74 331.24L140.73 331.22Z" fill="#00124C"/>
<path d="M199.125 318.008C199.453 317.035 198.918 315.975 197.929 315.642C196.939 315.308 195.872 315.827 195.543 316.801C195.215 317.774 195.751 318.834 196.74 319.167C197.729 319.5 198.797 318.982 199.125 318.008Z" fill="#FE40B4"/>
<path d="M221.869 327.633C222.197 326.66 221.661 325.601 220.672 325.267C219.683 324.934 218.615 325.453 218.287 326.426C217.959 327.399 218.495 328.459 219.484 328.792C220.473 329.126 221.541 328.607 221.869 327.633Z" fill="#FE40B4"/>
<path d="M256.432 328.338C256.761 327.365 256.225 326.305 255.236 325.972C254.247 325.638 253.179 326.157 252.851 327.13C252.522 328.104 253.058 329.163 254.047 329.497C255.036 329.83 256.104 329.311 256.432 328.338Z" fill="#FE40B4"/>
<path d="M176.738 327.644C177.066 326.671 176.53 325.612 175.541 325.278C174.552 324.945 173.484 325.464 173.156 326.437C172.828 327.41 173.363 328.47 174.353 328.803C175.342 329.137 176.409 328.618 176.738 327.644Z" fill="#FE40B4"/>
<path d="M142.099 329.03C142.428 328.057 141.892 326.997 140.903 326.664C139.914 326.33 138.846 326.849 138.518 327.823C138.189 328.796 138.725 329.856 139.714 330.189C140.703 330.522 141.771 330.004 142.099 329.03Z" fill="#FE40B4"/>
<path d="M206.331 361.369C207.809 356.983 205.389 352.208 200.925 350.703C196.461 349.198 191.643 351.533 190.165 355.919C188.686 360.304 191.107 365.08 195.571 366.585C200.035 368.09 204.852 365.754 206.331 361.369Z" fill="#00124C"/>
<path d="M203.062 360.267C203.942 357.655 202.5 354.812 199.842 353.915C197.183 353.019 194.314 354.409 193.434 357.021C192.554 359.632 193.995 362.476 196.654 363.372C199.312 364.269 202.181 362.878 203.062 360.267Z" fill="#FDF001"/>
<path d="M201.195 359.637C201.733 358.041 200.85 356.302 199.222 355.754C197.595 355.205 195.839 356.054 195.301 357.65C194.763 359.246 195.646 360.985 197.274 361.534C198.901 362.083 200.657 361.233 201.195 359.637Z" fill="#FE40B4"/>
<path d="M199.594 359.097C199.839 358.37 199.435 357.577 198.692 357.327C197.949 357.076 197.148 357.463 196.903 358.19C196.657 358.918 197.061 359.71 197.804 359.961C198.547 360.211 199.348 359.825 199.594 359.097Z" fill="#00124C"/>
<path d="M140.67 460.07C140.69 460.01 140.7 459.94 140.67 459.93C140.72 459.98 140.13 460.49 140.01 460.77C138.19 463.38 139.82 466.18 140.66 468.9C136.94 467.34 135.52 461.1 140.14 459.77C140.43 459.68 141.11 459.77 140.66 460.07H140.67Z" fill="#00124C"/>
<path d="M251.44 468.53C251.42 468.59 251.41 468.66 251.44 468.67C251.39 468.62 251.98 468.11 252.1 467.83C253.92 465.22 252.29 462.42 251.45 459.7C255.17 461.26 256.59 467.5 251.97 468.83C251.68 468.92 251 468.83 251.45 468.53H251.44Z" fill="#00124C"/>
</g>
<g clip-path="url(#clip1_264_3865)">
<path d="M38.9115 81.5848C37.3812 81.6115 35.9374 81.6392 34.495 81.6612C32.2076 81.6966 30.6358 80.0763 30.8355 77.8906C31.0304 75.7535 32.8787 74.0736 35.133 74.0028C36.4208 73.9627 37.7073 73.9489 39.0744 73.921C39.1104 72.4647 39.1075 71.0784 39.1872 69.6866C39.3544 66.7329 42.6136 64.738 45.0762 66.0809C46.2395 66.7143 46.8411 67.7555 46.8256 69.156C46.8095 70.6714 46.7769 72.1889 46.7488 73.7641C48.3569 73.7365 49.9043 73.6759 51.4433 73.6903C54.0615 73.7151 55.5696 76.2226 54.5023 78.7228C53.8704 80.2031 52.4151 81.2488 50.8097 81.3277C49.4405 81.3952 48.0747 81.4175 46.7068 81.4608C46.6848 81.462 46.6605 81.4863 46.8389 81.4889C46.7057 82.8594 46.4256 84.252 46.4743 85.5987C46.5394 87.3989 44.4732 89.4485 42.839 89.6582C40.829 89.9131 39.0186 88.6603 38.888 86.6927C38.793 85.2675 38.8981 83.8087 38.9115 82.3645C38.9139 82.1355 38.9117 81.9089 38.9115 81.5848V81.5848Z" fill="#FDF001"/>
</g>
<g clip-path="url(#clip2_264_3865)">
<path d="M88.327 93.5114C86.7967 93.5382 85.353 93.5658 83.9106 93.5879C81.6231 93.6232 80.0514 92.0029 80.251 89.8173C80.4459 87.6801 82.2942 86.0003 84.5485 85.9295C85.8363 85.8893 87.1228 85.8756 88.4899 85.8476C88.5259 84.3914 88.5231 83.0051 88.6027 81.6133C88.7699 78.6595 92.0291 76.6646 94.4917 78.0075C95.655 78.641 96.2566 79.6822 96.2412 81.0826C96.225 82.5981 96.1924 84.1155 96.1643 85.6907C97.7724 85.6631 99.3198 85.6026 100.859 85.617C103.477 85.6418 104.985 88.1493 103.918 90.6494C103.286 92.1298 101.831 93.1754 100.225 93.2543C98.856 93.3218 97.4903 93.3442 96.1223 93.3875C96.1003 93.3887 96.0761 93.4129 96.2544 93.4155C96.1212 94.7861 95.8411 96.1787 95.8898 97.5253C95.9549 99.3255 93.8887 101.375 92.2545 101.585C90.2445 101.84 88.4341 100.587 88.3035 98.6194C88.2086 97.1942 88.3137 95.7353 88.3271 94.2912C88.3294 94.0622 88.3272 93.8356 88.327 93.5114V93.5114Z" fill="#FDF001"/>
</g>
<g clip-path="url(#clip3_264_3865)">
<path d="M65.7014 40.1784C63.151 40.223 60.7447 40.2691 58.3407 40.3059C54.5282 40.3647 51.9087 37.6642 52.2414 34.0215C52.5662 30.4596 55.6467 27.6598 59.4039 27.5418C61.5503 27.4749 63.6944 27.452 65.9729 27.4055C66.0329 24.9783 66.0282 22.6678 66.1609 20.3481C66.4395 15.4252 71.8715 12.1005 75.976 14.3386C77.9147 15.3944 78.9174 17.1297 78.8917 19.4637C78.8648 21.9895 78.8104 24.5185 78.7636 27.1439C81.4437 27.0979 84.0227 26.997 86.5877 27.021C90.9515 27.0623 93.465 31.2415 91.6861 35.4084C90.6329 37.8757 88.2074 39.6184 85.5319 39.75C83.2498 39.8624 80.9735 39.8997 78.6936 39.9719C78.657 39.9738 78.6165 40.0143 78.9138 40.0185C78.6917 42.3028 78.2249 44.6238 78.3062 46.8682C78.4146 49.8686 74.9709 53.2846 72.2473 53.6341C68.8972 54.059 65.88 51.971 65.6622 48.6917C65.504 46.3163 65.6792 43.8849 65.7015 41.478C65.7054 41.0963 65.7018 40.7187 65.7014 40.1784V40.1784Z" fill="#FDF001"/>
</g>
<g clip-path="url(#clip4_264_3865)">
<path d="M100.976 560.704C101.893 560.688 102.759 560.671 103.624 560.658C104.996 560.637 105.938 561.609 105.819 562.919C105.702 564.201 104.593 565.208 103.242 565.251C102.469 565.275 101.698 565.283 100.878 565.3C100.856 566.173 100.858 567.004 100.81 567.839C100.71 569.61 98.7555 570.807 97.2787 570.001C96.5811 569.621 96.2203 568.997 96.2296 568.157C96.2392 567.248 96.2588 566.339 96.2756 565.394C95.3113 565.41 94.3834 565.447 93.4604 565.438C91.8903 565.423 90.9859 563.92 91.626 562.42C92.0049 561.532 92.8777 560.905 93.8404 560.858C94.6615 560.818 95.4805 560.804 96.3008 560.778C96.314 560.778 96.3286 560.763 96.2216 560.761C96.3015 559.94 96.4695 559.104 96.4402 558.297C96.4012 557.217 97.6403 555.988 98.6203 555.862C99.8257 555.71 100.911 556.461 100.99 557.641C101.047 558.495 100.984 559.37 100.976 560.236C100.974 560.374 100.975 560.51 100.976 560.704V560.704Z" fill="#FDF001"/>
</g>
<g clip-path="url(#clip5_264_3865)">
<path d="M71.3418 553.552C72.2595 553.536 73.1253 553.519 73.9903 553.506C75.362 553.485 76.3046 554.456 76.1849 555.767C76.068 557.049 74.9596 558.056 73.6077 558.098C72.8354 558.123 72.0639 558.131 71.2441 558.148C71.2225 559.021 71.2242 559.852 71.1765 560.687C71.0762 562.458 69.1217 563.654 67.6449 562.849C66.9473 562.469 66.5865 561.845 66.5958 561.005C66.6054 560.096 66.625 559.186 66.6418 558.242C65.6775 558.258 64.7496 558.295 63.8266 558.286C62.2565 558.271 61.3521 556.767 61.9922 555.268C62.3712 554.38 63.2439 553.753 64.2066 553.706C65.0277 553.665 65.8467 553.652 66.6671 553.626C66.6802 553.625 66.6948 553.611 66.5878 553.609C66.6677 552.787 66.8357 551.952 66.8065 551.145C66.7674 550.065 68.0065 548.836 68.9865 548.71C70.1919 548.557 71.2775 549.309 71.3559 550.489C71.4128 551.343 71.3498 552.218 71.3417 553.084C71.3403 553.221 71.3416 553.357 71.3418 553.552V553.552Z" fill="#FDF001"/>
</g>
<g clip-path="url(#clip6_264_3865)">
<path d="M84.9095 585.535C86.439 585.508 87.882 585.48 89.3236 585.458C91.6099 585.423 93.1808 587.042 92.9813 589.227C92.7865 591.363 90.9392 593.042 88.686 593.113C87.3989 593.153 86.1131 593.167 84.7467 593.194C84.7107 594.65 84.7135 596.036 84.634 597.427C84.4669 600.379 81.2094 602.373 78.748 601.03C77.5853 600.397 76.984 599.357 76.9995 597.957C77.0156 596.442 77.0482 594.926 77.0763 593.351C75.469 593.379 73.9225 593.439 72.3843 593.425C69.7673 593.4 68.2601 590.894 69.3269 588.395C69.9584 586.916 71.413 585.871 73.0174 585.792C74.386 585.724 75.751 585.702 77.1183 585.659C77.1402 585.657 77.1645 585.633 76.9862 585.631C77.1194 584.261 77.3993 582.869 77.3506 581.523C77.2855 579.724 79.3507 577.675 80.984 577.465C82.993 577.211 84.8024 578.463 84.933 580.429C85.0279 581.854 84.9228 583.312 84.9094 584.755C84.9071 584.984 84.9093 585.211 84.9095 585.535V585.535Z" fill="#FDF001"/>
</g>
<g clip-path="url(#clip7_264_3865)">
<path d="M310.093 152.816C308.797 152.839 307.574 152.862 306.352 152.881C304.415 152.911 303.084 151.539 303.253 149.688C303.418 147.878 304.983 146.455 306.893 146.395C307.983 146.361 309.073 146.349 310.231 146.326C310.261 145.092 310.259 143.918 310.326 142.74C310.468 140.238 313.228 138.549 315.314 139.686C316.299 140.222 316.808 141.104 316.795 142.29C316.782 143.574 316.754 144.859 316.73 146.193C318.092 146.169 319.403 146.118 320.706 146.13C322.923 146.151 324.201 148.275 323.297 150.392C322.762 151.646 321.529 152.532 320.169 152.598C319.01 152.656 317.853 152.675 316.695 152.711C316.676 152.712 316.655 152.733 316.807 152.735C316.694 153.896 316.456 155.075 316.498 156.216C316.553 157.74 314.803 159.476 313.419 159.654C311.717 159.87 310.183 158.809 310.073 157.142C309.992 155.935 310.081 154.7 310.093 153.477C310.095 153.283 310.093 153.091 310.093 152.816V152.816Z" fill="#FDF001"/>
</g>
<g clip-path="url(#clip8_264_3865)">
<path d="M351.943 162.917C350.647 162.94 349.424 162.963 348.202 162.982C346.265 163.012 344.934 161.639 345.103 159.788C345.268 157.978 346.834 156.556 348.743 156.496C349.833 156.462 350.923 156.45 352.081 156.427C352.111 155.193 352.109 154.019 352.176 152.84C352.318 150.339 355.078 148.649 357.164 149.787C358.149 150.323 358.658 151.205 358.645 152.391C358.632 153.674 358.604 154.96 358.58 156.294C359.942 156.27 361.253 156.219 362.556 156.231C364.774 156.252 366.051 158.376 365.147 160.493C364.612 161.747 363.379 162.632 362.02 162.699C360.86 162.756 359.703 162.775 358.545 162.812C358.526 162.813 358.506 162.834 358.657 162.836C358.544 163.997 358.307 165.176 358.348 166.316C358.403 167.841 356.653 169.577 355.269 169.754C353.567 169.97 352.034 168.909 351.923 167.243C351.843 166.036 351.932 164.8 351.943 163.577C351.945 163.383 351.943 163.192 351.943 162.917V162.917Z" fill="#FDF001"/>
</g>
<g clip-path="url(#clip9_264_3865)">
<path d="M332.782 117.749C330.622 117.787 328.584 117.826 326.548 117.857C323.319 117.907 321.101 115.619 321.383 112.534C321.658 109.518 324.267 107.147 327.449 107.047C329.266 106.99 331.082 106.971 333.012 106.931C333.063 104.876 333.059 102.919 333.171 100.954C333.407 96.785 338.007 93.9693 341.484 95.8648C343.126 96.7589 343.975 98.2286 343.953 100.205C343.93 102.344 343.884 104.486 343.844 106.71C346.114 106.671 348.298 106.585 350.471 106.606C354.167 106.641 356.295 110.18 354.789 113.709C353.897 115.799 351.842 117.274 349.577 117.386C347.644 117.481 345.716 117.513 343.785 117.574C343.754 117.575 343.72 117.61 343.972 117.613C343.784 119.548 343.388 121.514 343.457 123.414C343.549 125.955 340.632 128.849 338.326 129.145C335.489 129.504 332.933 127.736 332.749 124.959C332.615 122.947 332.763 120.888 332.782 118.849C332.785 118.526 332.782 118.206 332.782 117.749V117.749Z" fill="#FDF001"/>
</g>
<g clip-path="url(#clip10_264_3865)">
<path d="M54.5584 367.73C53.3723 367.75 52.2532 367.772 51.1352 367.789C49.3621 367.816 48.1438 366.56 48.2986 364.866C48.4497 363.21 49.8823 361.908 51.6296 361.853C52.6279 361.822 53.625 361.811 54.6847 361.789C54.7125 360.661 54.7104 359.586 54.7721 358.507C54.9017 356.218 57.4279 354.672 59.3368 355.712C60.2384 356.203 60.7047 357.011 60.6928 358.096C60.6803 359.271 60.655 360.447 60.6332 361.668C61.8796 361.646 63.079 361.599 64.2719 361.611C66.3014 361.63 67.4703 363.573 66.643 365.511C66.1532 366.659 65.0252 367.469 63.7809 367.53C62.7196 367.583 61.661 367.6 60.6006 367.634C60.5836 367.635 60.5648 367.653 60.703 367.655C60.5998 368.718 60.3827 369.797 60.4205 370.841C60.4709 372.236 58.8694 373.825 57.6027 373.988C56.0447 374.185 54.6414 373.214 54.5402 371.689C54.4666 370.584 54.5481 369.453 54.5585 368.334C54.5603 368.157 54.5586 367.981 54.5584 367.73V367.73Z" fill="#FDF001"/>
</g>
<g clip-path="url(#clip11_264_3865)">
<path d="M92.8611 376.974C91.675 376.995 90.5559 377.016 89.4379 377.033C87.6649 377.061 86.4466 375.805 86.6013 374.111C86.7524 372.454 88.185 371.152 89.9324 371.097C90.9306 371.066 91.9277 371.055 92.9874 371.034C93.0153 369.905 93.0131 368.83 93.0748 367.752C93.2044 365.462 95.7307 363.916 97.6395 364.957C98.5411 365.448 99.0075 366.255 98.9955 367.34C98.983 368.515 98.9577 369.691 98.9359 370.912C100.182 370.891 101.382 370.844 102.575 370.855C104.604 370.874 105.773 372.818 104.946 374.756C104.456 375.903 103.328 376.714 102.084 376.775C101.022 376.827 99.9637 376.844 98.9034 376.878C98.8863 376.879 98.8675 376.898 99.0058 376.9C98.9025 377.962 98.6854 379.042 98.7232 380.085C98.7736 381.481 97.1721 383.069 95.9054 383.232C94.3474 383.43 92.9442 382.458 92.8429 380.933C92.7693 379.829 92.8508 378.698 92.8612 377.579C92.863 377.401 92.8613 377.225 92.8611 376.974V376.974Z" fill="#FDF001"/>
</g>
<g clip-path="url(#clip12_264_3865)">
<path d="M75.3244 335.635C73.3475 335.67 71.4823 335.705 69.619 335.734C66.6639 335.78 64.6334 333.686 64.8914 330.863C65.1431 328.102 67.5309 325.932 70.4431 325.84C72.1068 325.789 73.7687 325.771 75.5348 325.735C75.5813 323.853 75.5777 322.062 75.6805 320.264C75.8965 316.449 80.1069 313.872 83.2883 315.606C84.7911 316.425 85.5683 317.77 85.5483 319.579C85.5275 321.537 85.4853 323.497 85.4491 325.532C87.5264 325.496 89.5254 325.418 91.5136 325.437C94.8961 325.469 96.8443 328.708 95.4654 331.938C94.6491 333.85 92.769 335.201 90.6952 335.303C88.9263 335.39 87.162 335.419 85.3948 335.475C85.3664 335.477 85.335 335.508 85.5655 335.511C85.3933 337.282 85.0315 339.081 85.0945 340.821C85.1786 343.146 82.5093 345.794 80.3982 346.065C77.8015 346.394 75.4628 344.776 75.294 342.234C75.1714 340.393 75.3072 338.508 75.3245 336.642C75.3275 336.347 75.3247 336.054 75.3244 335.635V335.635Z" fill="#FDF001"/>
</g>
<g clip-path="url(#clip13_264_3865)">
<path d="M295.16 449.176C294.181 449.193 293.258 449.211 292.336 449.225C290.873 449.248 289.868 448.212 289.996 446.814C290.121 445.448 291.302 444.373 292.744 444.328C293.567 444.303 294.39 444.294 295.264 444.276C295.287 443.345 295.285 442.458 295.336 441.568C295.443 439.68 297.527 438.404 299.102 439.263C299.845 439.668 300.23 440.334 300.22 441.229C300.21 442.198 300.189 443.168 300.171 444.176C301.199 444.158 302.189 444.119 303.173 444.128C304.847 444.144 305.811 445.748 305.129 447.346C304.725 448.293 303.794 448.961 302.768 449.012C301.892 449.055 301.019 449.069 300.144 449.097C300.13 449.098 300.115 449.113 300.229 449.115C300.144 449.991 299.964 450.882 299.996 451.743C300.037 452.894 298.716 454.204 297.671 454.338C296.386 454.501 295.228 453.7 295.145 452.442C295.084 451.531 295.151 450.598 295.16 449.675C295.161 449.528 295.16 449.383 295.16 449.176V449.176Z" fill="#FDF001"/>
</g>
<g clip-path="url(#clip14_264_3865)">
<path d="M326.756 456.802C325.778 456.819 324.854 456.837 323.932 456.851C322.47 456.874 321.465 455.838 321.592 454.44C321.717 453.074 322.899 451.999 324.34 451.954C325.164 451.928 325.986 451.92 326.86 451.902C326.883 450.971 326.881 450.084 326.932 449.194C327.039 447.306 329.123 446.03 330.698 446.889C331.442 447.294 331.826 447.96 331.816 448.855C331.806 449.824 331.785 450.794 331.767 451.801C332.795 451.784 333.785 451.745 334.769 451.754C336.443 451.77 337.407 453.374 336.725 454.972C336.321 455.919 335.39 456.587 334.364 456.638C333.488 456.681 332.615 456.695 331.74 456.723C331.726 456.724 331.711 456.739 331.825 456.741C331.74 457.617 331.561 458.508 331.592 459.369C331.633 460.52 330.312 461.83 329.267 461.964C327.982 462.127 326.825 461.326 326.741 460.068C326.68 459.157 326.748 458.224 326.756 457.301C326.758 457.154 326.756 457.009 326.756 456.802V456.802Z" fill="#FDF001"/>
</g>
<g clip-path="url(#clip15_264_3865)">
<path d="M312.289 422.701C310.659 422.729 309.12 422.759 307.583 422.782C305.145 422.82 303.47 421.093 303.683 418.764C303.891 416.486 305.86 414.696 308.263 414.621C309.635 414.578 311.006 414.563 312.463 414.534C312.501 412.982 312.498 411.504 312.583 410.021C312.761 406.873 316.235 404.747 318.859 406.179C320.099 406.854 320.74 407.963 320.723 409.456C320.706 411.071 320.671 412.688 320.641 414.366C322.355 414.337 324.004 414.272 325.644 414.288C328.434 414.314 330.042 416.986 328.904 419.651C328.231 421.228 326.68 422.343 324.969 422.427C323.51 422.499 322.054 422.522 320.597 422.569C320.573 422.57 320.547 422.596 320.737 422.598C320.595 424.059 320.297 425.543 320.349 426.978C320.418 428.897 318.216 431.081 316.475 431.304C314.333 431.576 312.404 430.241 312.264 428.144C312.163 426.625 312.275 425.071 312.289 423.532C312.292 423.288 312.29 423.046 312.289 422.701V422.701Z" fill="#FDF001"/>
</g>
<defs>
<linearGradient id="paint0_linear_264_3865" x1="152.16" y1="528.57" x2="199.83" y2="-17.58" gradientUnits="userSpaceOnUse">
<stop stop-color="#FE40B4"/>
<stop offset="0.21" stop-color="#FE4DB9"/>
<stop offset="0.6" stop-color="#FE72C8"/>
<stop offset="1" stop-color="#FF9FDA"/>
</linearGradient>
<linearGradient id="paint1_linear_264_3865" x1="236.887" y1="464.958" x2="261.527" y2="464.958" gradientUnits="userSpaceOnUse">
<stop stop-color="#00124C"/>
<stop offset="0.36" stop-color="#001559"/>
<stop offset="1" stop-color="#001E7D"/>
</linearGradient>
<linearGradient id="paint2_linear_264_3865" x1="248.88" y1="477.09" x2="250.64" y2="477.09" gradientUnits="userSpaceOnUse">
<stop stop-color="#00124C"/>
<stop offset="0.36" stop-color="#001559"/>
<stop offset="1" stop-color="#001E7D"/>
</linearGradient>
<linearGradient id="paint3_linear_264_3865" x1="251.96" y1="476.67" x2="254.11" y2="476.67" gradientUnits="userSpaceOnUse">
<stop stop-color="#00124C"/>
<stop offset="0.36" stop-color="#001559"/>
<stop offset="1" stop-color="#001E7D"/>
</linearGradient>
<linearGradient id="paint4_linear_264_3865" x1="254.711" y1="475.21" x2="256.901" y2="475.21" gradientUnits="userSpaceOnUse">
<stop stop-color="#00124C"/>
<stop offset="0.36" stop-color="#001559"/>
<stop offset="1" stop-color="#001E7D"/>
</linearGradient>
<linearGradient id="paint5_linear_264_3865" x1="131.148" y1="-1.00305" x2="155.788" y2="-1.00304" gradientUnits="userSpaceOnUse">
<stop stop-color="#00124C"/>
<stop offset="0.36" stop-color="#001559"/>
<stop offset="1" stop-color="#001E7D"/>
</linearGradient>
<linearGradient id="paint6_linear_264_3865" x1="133.07" y1="474.13" x2="136.21" y2="474.13" gradientUnits="userSpaceOnUse">
<stop stop-color="#00124C"/>
<stop offset="0.36" stop-color="#001559"/>
<stop offset="1" stop-color="#001E7D"/>
</linearGradient>
<linearGradient id="paint7_linear_264_3865" x1="135.41" y1="475.12" x2="138.57" y2="475.12" gradientUnits="userSpaceOnUse">
<stop stop-color="#00124C"/>
<stop offset="0.36" stop-color="#001559"/>
<stop offset="1" stop-color="#001E7D"/>
</linearGradient>
<linearGradient id="paint8_linear_264_3865" x1="138.52" y1="476.15" x2="140.46" y2="476.15" gradientUnits="userSpaceOnUse">
<stop stop-color="#00124C"/>
<stop offset="0.36" stop-color="#001559"/>
<stop offset="1" stop-color="#001E7D"/>
</linearGradient>
<linearGradient id="paint9_linear_264_3865" x1="190.22" y1="356.44" x2="199.57" y2="508.87" gradientUnits="userSpaceOnUse">
<stop stop-color="#FA4E8F"/>
<stop offset="0.04" stop-color="#FA5795"/>
<stop offset="0.18" stop-color="#FC77AA"/>
<stop offset="0.32" stop-color="#FD90BA"/>
<stop offset="0.48" stop-color="#FEA2C6"/>
<stop offset="0.64" stop-color="#FEADCD"/>
<stop offset="0.82" stop-color="#FFB1D0"/>
</linearGradient>
<linearGradient id="paint10_linear_264_3865" x1="189.15" y1="515.33" x2="201.85" y2="369.75" gradientUnits="userSpaceOnUse">
<stop stop-color="#00124C"/>
<stop offset="0.36" stop-color="#001559"/>
<stop offset="1" stop-color="#001E7D"/>
</linearGradient>
<clipPath id="clip0_264_3865">
<rect width="390" height="596.01" fill="white" transform="translate(0 -1)"/>
</clipPath>
<clipPath id="clip1_264_3865">
<rect width="19.8813" height="18.5894" fill="white" transform="translate(29.2324 78.136) rotate(-45)"/>
</clipPath>
<clipPath id="clip2_264_3865">
<rect width="19.8813" height="18.5894" fill="white" transform="translate(78.6479 90.0626) rotate(-45)"/>
</clipPath>
<clipPath id="clip3_264_3865">
<rect width="33.1356" height="30.9823" fill="white" transform="translate(49.5698 34.4303) rotate(-45)"/>
</clipPath>
<clipPath id="clip4_264_3865">
<rect width="11.9226" height="11.1478" fill="white" transform="translate(106.78 562.772) rotate(135)"/>
</clipPath>
<clipPath id="clip5_264_3865">
<rect width="11.9226" height="11.1478" fill="white" transform="translate(77.146 555.62) rotate(135)"/>
</clipPath>
<clipPath id="clip6_264_3865">
<rect width="19.871" height="18.5797" fill="white" transform="translate(94.5835 588.982) rotate(135)"/>
</clipPath>
<clipPath id="clip7_264_3865">
<rect width="16.8377" height="15.7435" fill="white" transform="translate(301.896 149.895) rotate(-45)"/>
</clipPath>
<clipPath id="clip8_264_3865">
<rect width="16.8377" height="15.7435" fill="white" transform="translate(343.746 159.996) rotate(-45)"/>
</clipPath>
<clipPath id="clip9_264_3865">
<rect width="28.0628" height="26.2392" fill="white" transform="translate(319.12 112.881) rotate(-45)"/>
</clipPath>
<clipPath id="clip10_264_3865">
<rect width="15.4103" height="14.4089" fill="white" transform="translate(47.0562 365.057) rotate(-45)"/>
</clipPath>
<clipPath id="clip11_264_3865">
<rect width="15.4103" height="14.4089" fill="white" transform="translate(85.3589 374.301) rotate(-45)"/>
</clipPath>
<clipPath id="clip12_264_3865">
<rect width="25.6838" height="24.0148" fill="white" transform="translate(62.8203 331.18) rotate(-45)"/>
</clipPath>
<clipPath id="clip13_264_3865">
<rect width="12.7123" height="11.8862" fill="white" transform="translate(288.971 446.971) rotate(-45)"/>
</clipPath>
<clipPath id="clip14_264_3865">
<rect width="12.7123" height="11.8862" fill="white" transform="translate(320.567 454.597) rotate(-45)"/>
</clipPath>
<clipPath id="clip15_264_3865">
<rect width="21.1871" height="19.8103" fill="white" transform="translate(301.975 419.025) rotate(-45)"/>
</clipPath>
</defs>
</svg>
