<svg width="390" height="604" viewBox="0 0 390 604" fill="none" xmlns="http://www.w3.org/2000/svg">
<g clip-path="url(#clip0_264_3860)">
<path d="M373.83 89.69C371.63 78.25 369.56 67.45 368.96 57.59C365.96 8.38 389.35 0.29 389.59 0.21L389.41 -1C389.16 -0.92 383.21 1.05 377.57 9.3C368.16 23.05 367.24 43.21 368.12 57.7C368.73 67.67 370.81 78.52 373.02 90.02C377.2 111.78 381.83 135.89 379.06 163.79C376.51 137.85 367.66 115.12 359.85 87.73C342.53 27.02 371.26 -0.39 371.26 -0.39H-0.419922C9.20008 64.56 32.2001 74.38 50.0401 91.78C56.0401 104.38 59.7501 118.27 58.2501 135.84C56.2701 159.02 43.9301 180.85 31.9901 201.97C28.2201 208.65 24.5001 215.23 21.1401 221.76C4.75008 247.2 -4.41992 274.38 17.2201 305.14C18.1501 307.34 19.0601 309.39 19.9501 311.36C27.5601 328.4 33.0601 340.72 26.3801 403.39C22.4001 440.76 27.6701 471.46 41.6201 492.18C51.8601 507.38 66.5601 516.86 83.8301 519.91C102.57 527.82 124.9 524.52 144.76 516.45C176.35 503.61 209.69 504.39 241.39 516.62C254.57 521.7 270.05 526.09 285.86 523.19C307.78 520.86 330.56 503.78 344.45 478.04C355.97 456.7 366.77 419.86 352.84 365.52C345.16 335.54 343.28 311.96 344.7 292.15C345.47 290.38 346.3 288.63 347.21 286.89C374.61 234.2 381.53 198.75 379.41 168.21C383.15 138.26 378.24 112.67 373.82 89.68L373.83 89.69ZM32.6501 202.76C44.6601 181.51 57.0801 159.54 59.0901 136C60.5201 119.24 57.3301 105.82 51.9501 93.7C59.1101 101.11 65.3001 110.18 69.2101 125.26C76.8701 154.77 47.9301 183.26 26.2801 214.13C28.3401 210.37 30.4801 206.58 32.6401 202.76H32.6501ZM42.2301 491.32C28.4701 470.89 23.2901 440.56 27.2201 403.59C33.9401 340.45 28.3701 327.97 20.6601 310.7C20.3301 309.97 20.0001 309.23 19.6701 308.48C19.9001 308.78 20.1301 309.08 20.3601 309.38C60.4001 360.18 16.5001 443.99 62.0701 502.93C67.1001 509.44 72.8801 514.25 79.1401 517.67C64.1401 513.86 51.3701 504.91 42.2301 491.33V491.32ZM352.05 365.96C365.84 419.76 355.17 456.19 343.79 477.28C333.15 497 317.23 511.58 300.52 518.23C305.24 515.84 309.93 512.62 314.54 508.39C379.75 448.67 316.75 361.99 343.66 294.64C342.58 314.06 344.64 337.05 352.05 365.95V365.96Z" fill="url(#paint0_linear_264_3860)"/>
<path d="M29.6504 595.01H363.41C363.41 595.01 340.84 523.92 261.7 538.97C261.7 538.97 194.56 570.87 124.46 538.97C124.46 538.97 64.7904 525.41 29.6604 595.01H29.6504Z" fill="#00124C"/>
<path d="M260.496 467.766C262.038 461.28 258.03 454.773 251.545 453.232C245.059 451.69 238.552 455.698 237.011 462.183C235.469 468.669 239.477 475.176 245.963 476.717C252.448 478.259 258.955 474.251 260.496 467.766Z" fill="#FDF001" stroke="url(#paint1_linear_264_3860)" stroke-width="0.5" stroke-miterlimit="10"/>
<path d="M248.75 475.31C249.18 475.45 249.44 475.6 249.51 476.05L249.79 476.94C249.88 477.23 250.13 477.99 250.22 478.27C250.12 478.46 250.03 478.66 249.89 478.87C249.65 478.78 249.47 478.68 249.28 478.58C249.19 478.3 248.95 477.54 248.85 477.25L248.57 476.36C248.36 475.96 248.48 475.68 248.76 475.32L248.75 475.31Z" fill="#FE40B4"/>
<path d="M251.74 474.6C252.23 474.75 252.51 474.96 252.62 475.44L253.05 476.47C253.19 476.81 253.56 477.69 253.69 478.02C253.62 478.25 253.56 478.48 253.45 478.72C253.2 478.62 252.99 478.51 252.78 478.39C252.64 478.07 252.28 477.18 252.14 476.84L251.71 475.81C251.45 475.39 251.5 475.04 251.74 474.59V474.6Z" fill="#FE40B4"/>
<path d="M254.441 473.75C254.871 473.76 255.161 473.81 255.321 474.21L255.781 474.94C255.931 475.18 256.331 475.8 256.471 476.03C256.421 476.23 256.371 476.43 256.281 476.66C256.041 476.64 255.841 476.6 255.631 476.56C255.481 476.33 255.091 475.7 254.941 475.47L254.481 474.74C254.191 474.42 254.261 474.14 254.441 473.75V473.75Z" fill="#FE40B4"/>
<path d="M151.573 473.48C156.287 468.766 156.287 461.124 151.573 456.41C146.859 451.696 139.217 451.696 134.504 456.41C129.79 461.124 129.79 468.766 134.504 473.48C139.217 478.193 146.859 478.193 151.573 473.48Z" fill="#FDF001" stroke="url(#paint2_linear_264_3860)" stroke-width="0.5" stroke-miterlimit="10"/>
<path d="M135.77 472.47C135.83 472.98 135.75 473.33 135.35 473.64L134.57 474.47C134.31 474.74 133.65 475.45 133.4 475.72C133.16 475.76 132.92 475.8 132.65 475.8C132.64 475.53 132.65 475.29 132.68 475.05C132.92 474.79 133.59 474.07 133.85 473.8L134.63 472.97C134.91 472.56 135.26 472.45 135.77 472.48V472.47Z" fill="#FE40B4"/>
<path d="M135.02 477.02C134.94 476.48 135.03 476.11 135.42 475.76L136.2 474.81C136.46 474.5 137.12 473.69 137.37 473.38C137.62 473.32 137.86 473.25 138.14 473.22C138.16 473.5 138.14 473.75 138.14 474.01C137.9 474.31 137.23 475.12 136.97 475.44L136.19 476.39C135.92 476.84 135.57 477 135.03 477.03L135.02 477.02Z" fill="#FE40B4"/>
<path d="M138.35 478.16C138.08 477.74 138 477.42 138.23 476.99L138.58 475.98C138.7 475.65 138.99 474.79 139.1 474.47C139.3 474.35 139.5 474.23 139.74 474.13C139.87 474.36 139.95 474.58 140.03 474.8C139.92 475.12 139.62 475.98 139.51 476.31L139.16 477.32C139.08 477.79 138.81 478 138.34 478.17L138.35 478.16Z" fill="#FE40B4"/>
<path d="M263.7 538.98C263.7 538.98 257.59 555.67 241.17 568.81C230.53 577.34 215.53 584.36 195.08 584.36C174.63 584.36 159.63 577.34 148.98 568.81C132.56 555.67 126.46 538.98 126.46 538.98C144.48 539.63 156.79 531.68 165.09 521.78C165.75 520.98 166.4 520.17 167.01 519.35C178.3 504.41 181.24 486.4 181.24 486.4H208.91C208.91 486.4 211.85 504.41 223.14 519.35C223.74 520.17 224.39 520.98 225.06 521.78C233.37 531.68 245.68 539.63 263.7 538.98V538.98Z" fill="#3E4BF6"/>
<path d="M263.7 538.98C263.7 538.98 257.59 555.67 241.17 568.81C230.53 577.34 215.53 584.36 195.08 584.36C174.63 584.36 159.63 577.34 148.98 568.81C132.56 555.67 126.46 538.98 126.46 538.98C144.48 539.63 156.79 531.68 165.09 521.78C165.75 520.98 166.4 520.17 167.01 519.35C178.3 504.41 181.24 486.4 181.24 486.4H208.91C208.91 486.4 211.85 504.41 223.14 519.35C223.74 520.17 224.39 520.98 225.06 521.78C233.37 531.68 245.68 539.63 263.7 538.98V538.98Z" fill="#00124C"/>
<path d="M223.15 519.35C215.04 524.52 205.41 527.51 195.09 527.51C184.771 527.51 175.131 524.51 167.021 519.35C178.311 504.41 181.251 486.4 181.251 486.4H208.921C208.921 486.4 211.86 504.41 223.15 519.35Z" fill="#001E7D"/>
<path d="M247.37 422.2C247.37 393.316 223.957 369.9 195.075 369.9C166.194 369.9 142.78 393.316 142.78 422.2V462.88C142.78 491.764 166.194 515.18 195.075 515.18C223.957 515.18 247.37 491.764 247.37 462.88V422.2Z" fill="url(#paint3_linear_264_3860)"/>
<path d="M247.37 422.2C247.37 393.316 223.957 369.9 195.075 369.9C166.194 369.9 142.78 393.316 142.78 422.2V462.88C142.78 491.764 166.194 515.18 195.075 515.18C223.957 515.18 247.37 491.764 247.37 462.88V422.2Z" fill="#FDF001" stroke="url(#paint4_linear_264_3860)" stroke-miterlimit="10"/>
<path d="M168.487 480.917C172.056 477.348 172.056 471.561 168.487 467.991C164.917 464.422 159.13 464.422 155.561 467.991C151.991 471.561 151.991 477.348 155.561 480.917C159.13 484.487 164.917 484.487 168.487 480.917Z" fill="#FE40B4"/>
<path d="M237.063 481.377C240.683 477.859 240.766 472.073 237.248 468.453C233.73 464.832 227.943 464.75 224.323 468.268C220.703 471.786 220.62 477.572 224.138 481.192C227.656 484.812 233.443 484.895 237.063 481.377Z" fill="#FE40B4"/>
<path d="M196.08 414.05C198.6 425.94 201.06 439.02 203.47 450.85C204.36 454.98 204.96 459.16 205.41 463.36C205.5 464.11 204.86 464.78 204.1 464.73C202.18 464.62 200.26 464.48 198.34 464.3C196.42 464.11 194.5 463.89 192.58 463.57C192.42 463.54 192.42 463.3 192.58 463.27C196.4 462.65 200.24 462.34 204.1 462.11L202.81 463.63C200.89 455.5 200.22 447.16 199.01 438.91C198 431.71 196.69 421.41 195.79 414.09C195.76 413.92 196.05 413.85 196.08 414.04V414.05Z" fill="#00124C"/>
<path d="M198.42 498.89C200.944 498.89 202.99 495.689 202.99 491.74C202.99 487.791 200.944 484.59 198.42 484.59C195.896 484.59 193.85 487.791 193.85 491.74C193.85 495.689 195.896 498.89 198.42 498.89Z" fill="#FF9FDA"/>
<path d="M215.15 496.69C204.09 490.62 192.72 490.49 181.7 496.69C181.63 496.74 181.51 496.74 181.46 496.65C181.43 496.59 181.44 496.53 181.48 496.48C187.9 489.34 198.93 487.1 207.66 491.05C210.59 492.27 213.16 494.22 215.36 496.48C215.48 496.62 215.31 496.81 215.15 496.69V496.69Z" fill="#00124C"/>
<path d="M216.74 494.27C216.86 496.39 215.71 498.4 213.85 499.4C213.81 499.43 213.74 499.41 213.76 499.35C214.44 498.05 215.89 495.48 216.65 494.22C216.68 494.17 216.75 494.22 216.74 494.27Z" fill="#00124C"/>
<path d="M182.68 498.32C180.95 497.76 179.86 496.07 180.03 494.27C180.03 494.22 180.07 494.17 180.11 494.22C180.81 495.2 182.14 497.24 182.76 498.27C182.79 498.32 182.72 498.35 182.68 498.32Z" fill="#00124C"/>
<path d="M208.15 441.69C216.26 445.73 225.38 445.77 233.48 441.69C227.72 449.76 213.93 449.7 208.15 441.69V441.69Z" fill="#00124C"/>
<path d="M155.19 441.69C163.3 445.73 172.42 445.77 180.52 441.69C174.76 449.76 160.98 449.7 155.19 441.69Z" fill="#00124C"/>
<path d="M165.21 532.98C160.38 534.44 165.65 540.26 166.6 553.49C159.77 545.99 152.8 539.55 147.26 535.31C144.7 536.4 141.96 537.29 139.03 537.92C142.98 544.07 149.94 551.97 151.64 556.44C151.14 555.88 133.35 535.93 128.05 540.38C124.45 543.4 141.07 557.99 145.49 567.14C145.49 567.14 125.59 545.04 121.93 548.18C117.54 551.95 134.29 567.81 138.78 575.75C137.85 574.56 122.83 555.29 118.28 555.54C114.03 555.77 122.77 573.56 140.52 595H194.21C181.64 565.69 170.48 531.38 165.21 532.97V532.98Z" fill="#00124C"/>
<path d="M256 595.01C273.84 576.01 282.95 560.23 278.9 559.7C274.38 559.1 257.95 577.19 256.94 578.31C262.02 570.73 279.91 556.17 275.82 552.08C272.41 548.67 250.9 569.21 250.9 569.21C256 560.42 273.68 547.12 270.31 543.84C265.36 539.01 246.12 557.56 245.58 558.08C247.79 553.36 256.58 545.02 260.68 538.99C257.15 538.93 253.85 538.52 250.77 537.84C245.05 541.66 237.94 547.35 230.88 554.01C232.82 540.89 238.52 535.48 233.81 533.66C228.57 531.64 214.41 566.39 199.34 595.01H256Z" fill="#00124C"/>
<path d="M195.54 587.97L195.56 588C182.44 558.06 170.67 521.2 165.21 522.85C160.38 524.31 165.65 530.13 166.6 543.36C152.48 527.87 137.73 516.85 136.39 520.54C134.7 525.18 149.1 539.62 151.64 546.31C151.14 545.75 133.35 525.8 128.05 530.25C124.45 533.27 141.07 547.86 145.49 557.01C145.49 557.01 125.59 534.91 121.93 538.05C117.54 541.82 134.29 557.68 138.78 565.62C137.85 564.43 122.83 545.16 118.28 545.41C113.58 545.67 124.76 567.39 146.45 591.78C147.32 592.76 148.13 593.85 148.91 595.01H194.16C194.93 593.41 195.72 591.81 196.52 590.24C196.19 589.48 195.87 588.72 195.53 587.96L195.54 587.97Z" fill="#FDF001"/>
<path d="M195.54 587.97L195.56 588C182.44 558.06 170.67 521.2 165.21 522.85C160.38 524.31 165.65 530.13 166.6 543.36C152.48 527.87 137.73 516.85 136.39 520.54C134.7 525.18 149.1 539.62 151.64 546.31C151.14 545.75 133.35 525.8 128.05 530.25C124.45 533.27 141.07 547.86 145.49 557.01C145.49 557.01 125.59 534.91 121.93 538.05C117.54 541.82 134.29 557.68 138.78 565.62C137.85 564.43 122.83 545.16 118.28 545.41C113.58 545.67 124.76 567.39 146.45 591.78C147.32 592.76 148.13 593.85 148.91 595.01H194.16C194.93 593.41 195.72 591.81 196.52 590.24C196.19 589.48 195.87 588.72 195.53 587.96L195.54 587.97Z" fill="#FDF001"/>
<path d="M278.9 549.56C274.38 548.96 257.95 567.05 256.94 568.17C262.02 560.59 279.91 546.03 275.82 541.94C272.41 538.53 250.9 559.07 250.9 559.07C256 550.28 273.68 536.98 270.31 533.7C265.36 528.87 246.12 547.42 245.58 547.94C248.62 541.45 264.06 528.14 262.73 523.39C261.66 519.61 246.13 529.48 230.88 543.87C232.82 530.75 238.52 525.34 233.81 523.52C228.49 521.46 213.97 557.34 198.64 586.2L198.66 586.17C197.94 587.51 197.23 588.87 196.53 590.24C195.72 591.82 194.94 593.41 194.17 595.01H246.04C246.46 594.55 246.89 594.1 247.32 593.67C270.79 570.98 283.57 550.16 278.9 549.55V549.56Z" fill="#FDF001"/>
<path d="M278.9 549.56C274.38 548.96 257.95 567.05 256.94 568.17C262.02 560.59 279.91 546.03 275.82 541.94C272.41 538.53 250.9 559.07 250.9 559.07C256 550.28 273.68 536.98 270.31 533.7C265.36 528.87 246.12 547.42 245.58 547.94C248.62 541.45 264.06 528.14 262.73 523.39C261.66 519.61 246.13 529.48 230.88 543.87C232.82 530.75 238.52 525.34 233.81 523.52C228.49 521.46 213.97 557.34 198.64 586.2L198.66 586.17C197.94 587.51 197.23 588.87 196.53 590.24C195.72 591.82 194.94 593.41 194.17 595.01H246.04C246.46 594.55 246.89 594.1 247.32 593.67C270.79 570.98 283.57 550.16 278.9 549.55V549.56Z" fill="#FDF001"/>
<path d="M142.78 374.15V438.37H148.25V439.07C148.37 439.07 160.67 438.96 169.19 429.1C176.22 420.97 178.74 408.74 176.71 392.73C185.03 417.02 205.85 434.98 231.2 439.59L247.37 442.53V374.14H142.78V374.15Z" fill="#FFF983"/>
<path d="M133.25 359.54C117.05 380.89 121.43 408.03 133.25 437.26H139.87V438.11C140.02 438.11 154.89 437.97 165.21 426.05C173.72 416.21 176.76 401.41 174.31 382.04C184.38 411.43 209.57 433.17 240.26 438.75L259.83 442.3C272.97 413.04 274.8 385.22 259.83 359.54C182.24 317.65 182.38 330.51 133.26 359.54H133.25ZM164.57 425.48C156.44 434.89 145.39 436.78 141.39 437.16C147.9 434.69 173.12 422.61 173.61 383.35C175.76 401.87 172.73 416.04 164.56 425.48H164.57Z" fill="#00124C"/>
<path d="M172.83 330.12C170.93 328.12 170.75 326.23 172.29 324.86C173.65 323.65 175.8 323.8 176.99 325.18C178.34 326.76 177.94 328.75 175.88 330.3C178.31 336.12 180.75 341.97 183.26 348.01C185.09 343.84 186.82 339.89 188.55 335.94C190.67 331.12 192.77 326.29 194.91 321.48C195.21 320.81 195.3 320.38 194.63 319.78C193.28 318.57 193.34 316.58 194.59 315.34C195.86 314.09 197.94 314.09 199.22 315.34C200.51 316.6 200.56 318.51 199.28 319.79C198.84 320.23 198.63 320.52 198.95 321.2C203.08 329.86 207.17 338.54 211.27 347.22C211.34 347.38 211.44 347.52 211.61 347.82C213.9 341.84 216.14 336 218.38 330.15C215.98 328.54 215.96 326.28 217.27 324.83C218.47 323.5 220.56 323.46 221.88 324.69C223.39 326.09 223.24 328.01 221.41 329.84C224.75 335.34 228.11 340.87 231.54 346.51C233.05 345.25 234.48 344.06 235.9 342.86C240.87 338.68 245.82 334.48 250.81 330.32C251.38 329.85 251.43 329.5 251.17 328.83C250.51 327.11 251.56 325.24 253.35 324.78C255.19 324.31 257.09 325.48 257.43 327.28C257.78 329.17 256.56 330.95 254.67 331.05C253.79 331.1 253.63 331.56 253.45 332.18C252 337.1 250.55 342.01 249.1 346.93C246.29 356.46 243.48 365.98 240.69 375.52C240.49 376.2 240.17 376.37 239.5 376.37C212.07 370.04 184.31 370.41 156.25 376.79C155.55 376.79 155.27 376.57 155.06 375.92C151.03 363.6 146.98 351.28 142.93 338.97C142.22 336.82 141.5 334.68 140.8 332.53C140.62 331.97 140.42 331.69 139.71 331.66C137.74 331.57 136.46 329.85 136.75 327.89C137.02 326.1 138.89 324.92 140.75 325.37C142.59 325.82 143.65 327.71 143.01 329.5C142.82 330.03 142.79 330.35 143.29 330.76C149.82 336.02 156.34 341.3 162.86 346.58C162.94 346.65 163.04 346.69 163.28 346.84C166.46 341.27 169.64 335.7 172.81 330.15L172.83 330.12Z" fill="#FDF001"/>
<path d="M155.41 377.62C154.27 377.32 154.06 375.81 153.72 374.89L152.82 372.14C149.58 362.22 143.54 343.76 140.23 333.67L139.86 332.56C137.17 332.62 135.11 329.73 136 327.11C137.84 322.1 145.47 324.51 143.9 329.67C143.86 329.8 143.82 329.9 143.8 329.98C143.8 330.01 143.8 330.03 143.8 329.99C143.8 329.95 143.77 329.91 143.78 329.93C143.86 330.01 144.12 330.21 144.29 330.35L145.41 331.26L163.38 345.82L162.79 345.93L171.92 329.99L171.96 330.42C170.86 329.2 169.98 327.43 170.62 325.76C172.06 322.12 177.49 322.47 178.48 326.23C178.96 327.94 177.97 329.67 176.68 330.71L176.78 330.3L183.58 346.66H182.96C184.37 343.45 191.26 327.79 192.53 324.93L193.49 322.76C193.69 322.27 194.26 321.12 194.36 320.68C194.42 320.58 194.01 320.28 193.74 319.96C193.46 319.63 193.24 319.26 193.09 318.85C192.09 316.33 194.36 313.43 197.02 313.62C199.67 313.62 201.8 316.56 200.69 319.04C200.47 319.6 200.02 320.13 199.62 320.54C199.53 320.67 199.56 320.64 199.62 320.8C202.19 326.23 209.13 340.93 211.78 346.55L211.32 346.57L217.6 330.23L217.68 330.5C216.36 329.55 215.4 327.86 215.8 326.19C217.88 319.59 227.16 324.77 222.18 330.04L222.2 329.79L231.84 345.68L231.55 345.63L249.29 330.76L250.4 329.83C250.59 329.67 250.74 329.55 250.7 329.39C250.23 328.27 250.21 326.86 250.92 325.82C252.56 323 257.3 323.73 258.01 326.92C258.54 328.88 257.35 331.19 255.29 331.58C255.05 331.64 254.77 331.65 254.56 331.67C254.34 331.7 254.25 331.79 254.16 332.02C254.01 332.46 253.88 332.94 253.75 333.4C250.71 343.67 245.24 362.16 242.27 372.24L241.45 375.01C241.3 375.46 241.23 375.97 240.9 376.38C240.54 376.84 239.92 376.95 239.39 376.9C212.08 370.58 182.06 370.82 155.41 377.61V377.62ZM155.57 377.15C155.82 377.23 156.11 377.26 156.37 377.23C183.57 370.97 212.18 370.41 239.43 376.72C239.8 376.74 240.49 376.67 240.75 376.26C241.04 375.91 241.12 375.42 241.26 374.96L242.07 372.18C245 362.16 250.47 343.5 253.46 333.31C253.68 332.73 253.7 332.06 254.1 331.55C254.43 331.28 254.86 331.4 255.21 331.29C258.2 330.72 258.73 326.23 256.06 324.85C253.49 323.24 249.91 325.64 250.79 328.63C250.9 328.95 251.17 329.47 250.88 329.8C250.78 329.95 232.28 345.49 231.61 346.06L231.49 345.87L221.82 330L221.74 329.86L221.85 329.74C224.4 327.24 222.95 323.42 219.33 323.54C215.81 323.93 215.1 328.23 217.94 330.12L218.08 330.23L218.02 330.39L211.77 346.74L211.56 347.29L211.31 346.76C208.61 341.07 201.7 326.52 199.09 321.03C199.05 320.93 198.99 320.81 198.99 320.63C198.99 320.43 199.1 320.28 199.17 320.19C200.14 319.3 200.68 317.98 200.27 316.69C198.86 312.37 192.3 314.19 193.65 318.64C193.85 319.17 194.16 319.59 194.59 319.97C194.73 320.11 194.97 320.34 194.96 320.7C194.88 321.28 194.66 321.53 194.52 321.92C192.26 327.05 185.91 341.58 183.57 346.92L183.26 347.64L182.96 346.92L176.13 330.58L176.03 330.33L176.23 330.17C178.98 328.13 178.09 324.25 174.68 323.92C173.26 323.8 171.82 324.71 171.31 326.02C170.8 327.35 171.52 328.83 172.52 329.93L172.7 330.13L172.57 330.37L163.47 346.33L163.24 346.73L162.88 346.44L144.88 331.92L143.75 331.01C143.32 330.66 142.84 330.41 142.98 329.79C143.33 328.85 143.4 327.83 142.9 326.94C141.71 324.46 137.62 324.73 136.84 327.38C136.23 329.23 137.46 331.48 139.48 331.64C139.83 331.7 140 331.61 140.39 331.85C140.74 332.14 140.72 332.39 140.85 332.72C145.01 345.04 151.03 363.77 155.1 375.95C155.24 376.35 155.42 376.59 155.72 376.68L155.56 377.15H155.57Z" fill="#FE40B4"/>
<path d="M140.49 330.79C141.64 331.11 141.86 332.69 142.21 333.63C142.8 335.4 144.41 340.36 145.03 342.21C148.15 351.64 152.22 364.29 155.32 373.68C155.47 374.07 155.91 375.53 156.03 375.84C169.22 372.97 183.92 370.98 197.88 370.96C211.88 370.76 226.5 372.58 239.82 375.51C239.93 375.4 239.96 375.07 240.05 374.85L240.45 373.5C243.7 362.49 249.09 344.22 252.4 333.05L252.81 331.69C252.96 330.93 253.8 330.26 254.62 330.28C256.18 330.26 257.13 328.48 256.6 327.08C256.04 325.42 253.65 324.89 252.44 326.17C251.84 326.76 251.6 327.68 251.87 328.47C252.03 328.88 252.23 329.47 252 330.02C251.79 330.57 251.33 330.89 250.99 331.17L248.84 332.98L231.6 347.43C231.29 347.69 231.42 347.66 231.22 347.37L220.63 329.9L220.53 329.74C221.04 329.25 221.53 328.75 221.85 328.15C222.96 326.46 221.33 324.32 219.43 324.52C217.49 324.6 216.39 327.08 217.67 328.57C218.07 329.11 218.64 329.52 219.23 329.9L219.17 330.06L211.88 349.02L211.74 349.38C210.79 347.9 210.08 346.25 209.33 344.67C208.02 341.88 204.44 334.31 203.07 331.43L198.9 322.6C198.61 321.93 197.94 320.98 198.24 320.2C198.58 319.39 199.37 319.05 199.52 318.17C200.1 315.61 196.61 313.93 194.9 315.93C194.1 316.79 194.01 318.2 194.8 319.09C196.13 320.21 195.84 321.07 195.15 322.48L191.21 331.41L183.35 349.29L183.25 349.52L183.15 349.29L175.22 330.2L175.19 330.14C175.73 329.75 176.26 329.32 176.64 328.78C179.09 325.19 172.94 322.64 171.82 326.68C171.66 328.01 172.62 329.15 173.5 330.06L173.47 330.1L163.5 347.51L163.48 347.55C162.68 347.13 161.99 346.52 161.3 345.96C157.53 342.91 150.69 337.36 146.86 334.27C145.49 333.15 144.1 332.06 142.75 330.91C142.01 330.18 142.75 329.22 142.72 328.37C142.73 326.5 140.58 325.24 138.91 325.95C137.13 326.56 136.66 329.01 137.92 330.34C138.54 331.06 139.46 331.15 140.33 331.27L140.49 330.8V330.79ZM140.33 331.26C139.46 331.13 138.52 331.05 137.92 330.33C136.67 328.99 137.11 326.53 138.91 325.92C140.61 325.2 142.75 326.46 142.76 328.35C142.8 329.2 142.05 330.14 142.79 330.87C144.13 332.01 145.53 333.1 146.9 334.22C149.71 336.49 156.6 342.03 159.3 344.21C160.47 345.17 162.39 346.72 163.44 347.45L173.37 330.02C172.65 329.51 171.48 327.89 171.69 326.64C172.35 323.54 177.03 323.85 177.38 326.97C177.49 328.37 176.4 329.47 175.36 330.21L175.39 330.11L183.36 349.18H183.16L190.99 331.28L194.91 322.34C195.2 321.6 195.72 320.84 195.36 320.15C194.98 319.49 194.13 318.97 194.03 318.11C193.63 316.36 195.22 314.63 196.98 314.73C198.72 314.71 200.27 316.48 199.84 318.23C199.72 319.08 198.87 319.61 198.56 320.29C198.31 320.98 198.92 321.71 199.21 322.45L203.4 331.27C205.89 336.31 209.23 343.97 211.88 348.84L211.53 348.87L218.78 329.9L218.86 330.15C217.73 329.46 216.6 328.31 216.68 326.86C216.75 325.43 217.96 324.16 219.4 324.08C221.63 323.85 223.56 326.36 222.26 328.37C221.93 328.98 221.46 329.49 220.99 329.94L221.02 329.66L231.65 347.11L231.27 347.05L248.48 332.56L250.63 330.75C251 330.44 251.34 330.18 251.47 329.83C251.61 329.49 251.5 329.11 251.33 328.66C250.54 326.54 252.8 324.4 254.89 324.96C257.75 325.49 258.26 329.75 255.42 330.75C254.99 330.92 254.48 330.84 254.07 331.02C253.36 331.28 253.29 332.36 252.98 333.23L246.64 354.81C245.18 359.78 242.54 368.81 241.11 373.7L240.72 375.05C240.61 375.43 240.53 376.04 240.03 376.19C239.82 376.24 239.7 376.24 239.54 376.25C225.89 373.12 211.88 371.63 197.88 371.77C183.88 371.9 169.9 373.65 156.26 376.76C156.07 376.76 155.94 376.76 155.67 376.66C155.41 376.55 155.26 376.3 155.21 376.16C155.09 375.85 155.04 375.66 154.95 375.41L154.48 373.98C151.37 364.61 147.24 351.95 144.12 342.53C143.53 340.69 141.86 335.75 141.28 333.96L140.81 332.53C140.67 332.09 140.5 331.85 140.18 331.75L140.34 331.28L140.33 331.26Z" fill="#FE40B4"/>
<path d="M198.738 318.053C199.066 317.08 198.53 316.02 197.541 315.687C196.552 315.353 195.484 315.872 195.156 316.845C194.828 317.819 195.364 318.878 196.353 319.212C197.342 319.545 198.41 319.026 198.738 318.053Z" fill="#FE40B4"/>
<path d="M221.482 327.668C221.81 326.695 221.274 325.635 220.285 325.302C219.296 324.968 218.228 325.487 217.9 326.461C217.572 327.434 218.107 328.494 219.097 328.827C220.086 329.16 221.154 328.642 221.482 327.668Z" fill="#FE40B4"/>
<path d="M256.046 328.373C256.374 327.399 255.838 326.34 254.849 326.006C253.86 325.673 252.792 326.192 252.464 327.165C252.136 328.139 252.671 329.198 253.661 329.532C254.65 329.865 255.718 329.346 256.046 328.373Z" fill="#FE40B4"/>
<path d="M176.337 327.689C176.665 326.715 176.13 325.656 175.14 325.322C174.151 324.989 173.083 325.508 172.755 326.481C172.427 327.455 172.963 328.514 173.952 328.848C174.941 329.181 176.009 328.662 176.337 327.689Z" fill="#FE40B4"/>
<path d="M141.693 329.062C142.021 328.088 141.485 327.029 140.496 326.696C139.507 326.362 138.439 326.881 138.111 327.854C137.783 328.828 138.318 329.887 139.308 330.221C140.297 330.554 141.365 330.035 141.693 329.062Z" fill="#FE40B4"/>
<path d="M205.944 361.404C207.422 357.018 205.002 352.243 200.538 350.738C196.074 349.233 191.256 351.568 189.778 355.954C188.299 360.339 190.719 365.115 195.184 366.619C199.648 368.124 204.465 365.789 205.944 361.404Z" fill="#00124C"/>
<path d="M202.674 360.301C203.555 357.69 202.113 354.846 199.455 353.95C196.796 353.054 193.927 354.444 193.047 357.056C192.166 359.667 193.608 362.511 196.266 363.407C198.925 364.303 201.794 362.913 202.674 360.301Z" fill="#FDF001"/>
<path d="M200.808 359.672C201.346 358.076 200.463 356.337 198.835 355.788C197.208 355.24 195.452 356.089 194.914 357.685C194.376 359.281 195.259 361.02 196.887 361.569C198.514 362.117 200.27 361.268 200.808 359.672Z" fill="#FE40B4"/>
<path d="M199.207 359.132C199.452 358.405 199.048 357.612 198.305 357.361C197.562 357.111 196.761 357.497 196.515 358.225C196.27 358.952 196.674 359.745 197.417 359.996C198.16 360.246 198.961 359.86 199.207 359.132Z" fill="#00124C"/>
<path d="M140.25 460.07C140.27 460.01 140.28 459.94 140.25 459.93C140.3 459.98 139.71 460.49 139.59 460.77C137.77 463.38 139.4 466.18 140.24 468.9C136.52 467.34 135.1 461.1 139.72 459.77C140.01 459.68 140.69 459.77 140.24 460.07H140.25Z" fill="#00124C"/>
<path d="M251.02 468.53C251 468.59 250.99 468.66 251.02 468.67C250.97 468.62 251.56 468.11 251.68 467.83C253.5 465.22 251.87 462.42 251.03 459.7C254.75 461.26 256.17 467.5 251.55 468.83C251.26 468.92 250.58 468.83 251.03 468.53H251.02Z" fill="#00124C"/>
</g>
<g clip-path="url(#clip1_264_3860)">
<path d="M38.9115 81.5849C37.3812 81.6117 35.9374 81.6393 34.495 81.6614C32.2076 81.6967 30.6358 80.0764 30.8355 77.8908C31.0304 75.7536 32.8787 74.0738 35.133 74.0029C36.4208 73.9628 37.7073 73.9491 39.0744 73.9211C39.1104 72.4648 39.1075 71.0785 39.1872 69.6867C39.3544 66.733 42.6136 64.7381 45.0762 66.081C46.2395 66.7145 46.8411 67.7557 46.8256 69.1561C46.8095 70.6715 46.7769 72.189 46.7488 73.7642C48.3569 73.7366 49.9043 73.6761 51.4433 73.6905C54.0615 73.7153 55.5696 76.2228 54.5023 78.7229C53.8704 80.2033 52.4151 81.2489 50.8097 81.3278C49.4405 81.3953 48.0747 81.4177 46.7068 81.461C46.6848 81.4621 46.6605 81.4864 46.8389 81.489C46.7057 82.8595 46.4256 84.2522 46.4743 85.5988C46.5394 87.399 44.4732 89.4486 42.839 89.6583C40.829 89.9132 39.0186 88.6604 38.888 86.6928C38.793 85.2676 38.8981 83.8088 38.9115 82.3647C38.9139 82.1356 38.9117 81.9091 38.9115 81.5849V81.5849Z" fill="#FDF001"/>
</g>
<g clip-path="url(#clip2_264_3860)">
<path d="M88.327 93.5115C86.7967 93.5383 85.353 93.5659 83.9106 93.588C81.6231 93.6233 80.0514 92.003 80.251 89.8174C80.4459 87.6802 82.2942 86.0004 84.5485 85.9296C85.8363 85.8894 87.1228 85.8757 88.4899 85.8477C88.5259 84.3915 88.5231 83.0051 88.6027 81.6133C88.7699 78.6596 92.0291 76.6647 94.4917 78.0076C95.655 78.6411 96.2566 79.6823 96.2412 81.0827C96.225 82.5982 96.1924 84.1156 96.1643 85.6908C97.7724 85.6632 99.3198 85.6027 100.859 85.6171C103.477 85.6419 104.985 88.1494 103.918 90.6495C103.286 92.1299 101.831 93.1755 100.225 93.2544C98.856 93.3219 97.4903 93.3443 96.1223 93.3876C96.1003 93.3887 96.0761 93.413 96.2544 93.4156C96.1212 94.7861 95.8411 96.1788 95.8898 97.5254C95.9549 99.3256 93.8887 101.375 92.2545 101.585C90.2445 101.84 88.4341 100.587 88.3035 98.6195C88.2086 97.1942 88.3137 95.7354 88.3271 94.2913C88.3294 94.0622 88.3272 93.8357 88.327 93.5115V93.5115Z" fill="#FDF001"/>
</g>
<g clip-path="url(#clip3_264_3860)">
<path d="M65.7014 40.1785C63.151 40.2231 60.7447 40.2692 58.3407 40.3059C54.5282 40.3648 51.9087 37.6643 52.2414 34.0216C52.5662 30.4597 55.6467 27.6599 59.4039 27.5419C61.5503 27.475 63.6944 27.4521 65.9729 27.4055C66.0329 24.9784 66.0282 22.6679 66.1609 20.3482C66.4395 15.4253 71.8715 12.1005 75.976 14.3387C77.9147 15.3945 78.9174 17.1298 78.8917 19.4638C78.8648 21.9896 78.8104 24.5186 78.7636 27.144C81.4437 27.098 84.0227 26.9971 86.5877 27.0211C90.9515 27.0624 93.465 31.2416 91.6861 35.4085C90.6329 37.8758 88.2074 39.6185 85.5319 39.7501C83.2498 39.8625 80.9735 39.8998 78.6936 39.972C78.657 39.9739 78.6165 40.0144 78.9138 40.0186C78.6917 42.3029 78.2249 44.6239 78.3062 46.8683C78.4146 49.8687 74.9709 53.2847 72.2473 53.6342C68.8972 54.0591 65.88 51.9711 65.6622 48.6917C65.504 46.3164 65.6792 43.885 65.7015 41.4781C65.7054 41.0964 65.7018 40.7188 65.7014 40.1785V40.1785Z" fill="#FDF001"/>
</g>
<g clip-path="url(#clip4_264_3860)">
<path d="M100.976 560.704C101.893 560.688 102.759 560.671 103.624 560.658C104.996 560.637 105.938 561.608 105.819 562.919C105.702 564.201 104.593 565.208 103.242 565.251C102.469 565.275 101.698 565.283 100.878 565.3C100.856 566.173 100.858 567.004 100.81 567.839C100.71 569.61 98.7555 570.807 97.2787 570.001C96.5811 569.621 96.2203 568.997 96.2296 568.157C96.2392 567.248 96.2588 566.338 96.2756 565.394C95.3113 565.41 94.3834 565.447 93.4604 565.438C91.8903 565.423 90.9859 563.919 91.626 562.42C92.0049 561.532 92.8777 560.905 93.8404 560.858C94.6615 560.818 95.4805 560.804 96.3008 560.778C96.314 560.777 96.3286 560.763 96.2216 560.761C96.3015 559.939 96.4695 559.104 96.4402 558.297C96.4012 557.217 97.6403 555.988 98.6203 555.862C99.8257 555.709 100.911 556.461 100.99 557.641C101.047 558.495 100.984 559.37 100.976 560.236C100.974 560.374 100.975 560.509 100.976 560.704V560.704Z" fill="#FDF001"/>
</g>
<g clip-path="url(#clip5_264_3860)">
<path d="M71.3418 553.552C72.2595 553.536 73.1253 553.519 73.9903 553.506C75.362 553.485 76.3046 554.456 76.1849 555.767C76.068 557.049 74.9596 558.056 73.6077 558.098C72.8354 558.122 72.0639 558.131 71.2441 558.147C71.2225 559.021 71.2242 559.852 71.1765 560.687C71.0762 562.458 69.1217 563.654 67.6449 562.849C66.9473 562.469 66.5865 561.845 66.5958 561.005C66.6054 560.096 66.625 559.186 66.6418 558.242C65.6775 558.258 64.7496 558.294 63.8266 558.286C62.2565 558.271 61.3521 556.767 61.9922 555.268C62.3712 554.38 63.2439 553.753 64.2066 553.706C65.0277 553.665 65.8467 553.652 66.6671 553.626C66.6802 553.625 66.6948 553.611 66.5878 553.609C66.6677 552.787 66.8357 551.952 66.8065 551.145C66.7674 550.065 68.0065 548.836 68.9865 548.71C70.1919 548.557 71.2775 549.309 71.3559 550.488C71.4128 551.343 71.3498 552.218 71.3417 553.084C71.3403 553.221 71.3416 553.357 71.3418 553.552V553.552Z" fill="#FDF001"/>
</g>
<g clip-path="url(#clip6_264_3860)">
<path d="M84.9095 585.535C86.439 585.508 87.882 585.48 89.3236 585.458C91.6099 585.423 93.1808 587.042 92.9813 589.227C92.7865 591.363 90.9392 593.042 88.686 593.113C87.3989 593.153 86.1131 593.167 84.7467 593.194C84.7107 594.65 84.7135 596.036 84.634 597.427C84.4669 600.379 81.2094 602.373 78.748 601.03C77.5853 600.397 76.984 599.357 76.9995 597.957C77.0156 596.442 77.0482 594.926 77.0763 593.351C75.469 593.379 73.9225 593.439 72.3843 593.425C69.7673 593.4 68.2601 590.894 69.3269 588.395C69.9584 586.916 71.413 585.871 73.0174 585.792C74.386 585.724 75.751 585.702 77.1183 585.659C77.1402 585.657 77.1645 585.633 76.9862 585.631C77.1194 584.261 77.3993 582.869 77.3506 581.523C77.2855 579.724 79.3507 577.675 80.984 577.465C82.993 577.211 84.8024 578.463 84.933 580.429C85.0279 581.854 84.9228 583.312 84.9094 584.755C84.9071 584.984 84.9093 585.211 84.9095 585.535V585.535Z" fill="#FDF001"/>
</g>
<g clip-path="url(#clip7_264_3860)">
<path d="M310.093 152.816C308.797 152.839 307.574 152.862 306.352 152.881C304.415 152.911 303.084 151.539 303.253 149.688C303.418 147.878 304.983 146.455 306.893 146.395C307.983 146.361 309.073 146.349 310.231 146.326C310.261 145.092 310.259 143.918 310.326 142.74C310.468 140.238 313.228 138.549 315.314 139.686C316.299 140.222 316.808 141.104 316.795 142.29C316.782 143.574 316.754 144.859 316.73 146.193C318.092 146.169 319.403 146.118 320.706 146.13C322.923 146.151 324.201 148.275 323.297 150.392C322.762 151.646 321.529 152.532 320.169 152.599C319.01 152.656 317.853 152.675 316.695 152.711C316.676 152.712 316.655 152.733 316.807 152.735C316.694 153.896 316.456 155.075 316.498 156.216C316.553 157.74 314.803 159.476 313.419 159.654C311.717 159.87 310.183 158.809 310.073 157.142C309.992 155.935 310.081 154.7 310.093 153.477C310.095 153.283 310.093 153.091 310.093 152.816V152.816Z" fill="#FDF001"/>
</g>
<g clip-path="url(#clip8_264_3860)">
<path d="M351.943 162.917C350.647 162.94 349.424 162.963 348.202 162.982C346.265 163.012 344.934 161.639 345.103 159.788C345.268 157.978 346.834 156.556 348.743 156.496C349.833 156.462 350.923 156.45 352.081 156.426C352.111 155.193 352.109 154.019 352.176 152.84C352.318 150.339 355.078 148.649 357.164 149.787C358.149 150.323 358.658 151.205 358.645 152.391C358.632 153.674 358.604 154.96 358.58 156.294C359.942 156.27 361.253 156.219 362.556 156.231C364.774 156.252 366.051 158.376 365.147 160.493C364.612 161.747 363.379 162.632 362.02 162.699C360.86 162.756 359.703 162.775 358.545 162.812C358.526 162.813 358.506 162.834 358.657 162.836C358.544 163.997 358.307 165.176 358.348 166.316C358.403 167.841 356.653 169.577 355.269 169.754C353.567 169.97 352.034 168.909 351.923 167.243C351.843 166.036 351.932 164.8 351.943 163.577C351.945 163.383 351.943 163.192 351.943 162.917V162.917Z" fill="#FDF001"/>
</g>
<g clip-path="url(#clip9_264_3860)">
<path d="M332.782 117.749C330.622 117.787 328.584 117.826 326.548 117.857C323.319 117.907 321.101 115.619 321.383 112.534C321.658 109.518 324.267 107.147 327.449 107.047C329.266 106.99 331.082 106.971 333.012 106.931C333.063 104.876 333.059 102.919 333.171 100.954C333.407 96.785 338.007 93.9693 341.484 95.8648C343.126 96.7589 343.975 98.2286 343.953 100.205C343.93 102.344 343.884 104.486 343.844 106.71C346.114 106.671 348.298 106.585 350.471 106.606C354.167 106.641 356.295 110.18 354.789 113.709C353.897 115.799 351.842 117.274 349.577 117.386C347.644 117.481 345.716 117.513 343.785 117.574C343.754 117.575 343.72 117.61 343.972 117.613C343.784 119.548 343.388 121.514 343.457 123.414C343.549 125.955 340.632 128.849 338.326 129.145C335.489 129.504 332.933 127.736 332.749 124.959C332.615 122.947 332.763 120.888 332.782 118.849C332.785 118.526 332.782 118.206 332.782 117.749V117.749Z" fill="#FDF001"/>
</g>
<g clip-path="url(#clip10_264_3860)">
<path d="M54.5584 367.73C53.3723 367.75 52.2532 367.772 51.1352 367.789C49.3621 367.816 48.1438 366.56 48.2986 364.866C48.4497 363.21 49.8823 361.908 51.6296 361.853C52.6279 361.822 53.625 361.811 54.6847 361.789C54.7125 360.661 54.7104 359.586 54.7721 358.507C54.9017 356.218 57.4279 354.672 59.3368 355.712C60.2384 356.203 60.7047 357.011 60.6928 358.096C60.6803 359.271 60.655 360.447 60.6332 361.668C61.8796 361.646 63.079 361.599 64.2719 361.611C66.3014 361.63 67.4703 363.573 66.643 365.511C66.1532 366.659 65.0252 367.469 63.7809 367.53C62.7196 367.583 61.661 367.6 60.6006 367.634C60.5836 367.635 60.5648 367.653 60.703 367.655C60.5998 368.718 60.3827 369.797 60.4205 370.841C60.4709 372.236 58.8694 373.825 57.6027 373.988C56.0447 374.185 54.6414 373.214 54.5402 371.689C54.4666 370.584 54.5481 369.453 54.5585 368.334C54.5603 368.157 54.5586 367.981 54.5584 367.73V367.73Z" fill="#FDF001"/>
</g>
<g clip-path="url(#clip11_264_3860)">
<path d="M92.8611 376.974C91.675 376.995 90.5559 377.016 89.4379 377.033C87.6649 377.061 86.4466 375.805 86.6013 374.111C86.7524 372.454 88.185 371.152 89.9324 371.097C90.9306 371.066 91.9277 371.056 92.9874 371.034C93.0153 369.905 93.0131 368.831 93.0748 367.752C93.2044 365.462 95.7307 363.916 97.6395 364.957C98.5411 365.448 99.0075 366.255 98.9955 367.34C98.983 368.515 98.9577 369.691 98.9359 370.912C100.182 370.891 101.382 370.844 102.575 370.855C104.604 370.874 105.773 372.818 104.946 374.756C104.456 375.903 103.328 376.714 102.084 376.775C101.022 376.827 99.9637 376.845 98.9034 376.878C98.8863 376.879 98.8675 376.898 99.0058 376.9C98.9025 377.962 98.6854 379.042 98.7232 380.085C98.7736 381.481 97.1721 383.069 95.9054 383.232C94.3474 383.43 92.9442 382.459 92.8429 380.933C92.7693 379.829 92.8508 378.698 92.8612 377.579C92.863 377.401 92.8613 377.225 92.8611 376.974V376.974Z" fill="#FDF001"/>
</g>
<g clip-path="url(#clip12_264_3860)">
<path d="M75.3244 335.635C73.3475 335.67 71.4823 335.705 69.619 335.734C66.6639 335.78 64.6334 333.686 64.8914 330.863C65.1431 328.102 67.5309 325.932 70.4431 325.84C72.1068 325.788 73.7687 325.771 75.5348 325.735C75.5813 323.853 75.5777 322.062 75.6805 320.264C75.8965 316.449 80.1069 313.872 83.2883 315.606C84.7911 316.425 85.5683 317.77 85.5483 319.579C85.5275 321.537 85.4853 323.497 85.4491 325.532C87.5264 325.496 89.5254 325.418 91.5136 325.437C94.8961 325.469 96.8443 328.708 95.4654 331.938C94.6491 333.85 92.769 335.201 90.6952 335.303C88.9263 335.39 87.162 335.419 85.3948 335.475C85.3664 335.477 85.335 335.508 85.5655 335.511C85.3933 337.282 85.0315 339.081 85.0945 340.82C85.1786 343.146 82.5093 345.794 80.3982 346.065C77.8015 346.394 75.4628 344.776 75.294 342.234C75.1714 340.393 75.3072 338.508 75.3245 336.642C75.3275 336.347 75.3247 336.054 75.3244 335.635V335.635Z" fill="#FDF001"/>
</g>
<g clip-path="url(#clip13_264_3860)">
<path d="M295.16 449.176C294.181 449.193 293.258 449.211 292.336 449.225C290.873 449.248 289.868 448.212 289.996 446.814C290.121 445.448 291.302 444.373 292.744 444.328C293.567 444.303 294.39 444.294 295.264 444.276C295.287 443.345 295.285 442.458 295.336 441.568C295.443 439.68 297.527 438.404 299.102 439.263C299.845 439.668 300.23 440.334 300.22 441.229C300.21 442.198 300.189 443.168 300.171 444.176C301.199 444.158 302.189 444.119 303.173 444.128C304.847 444.144 305.811 445.748 305.129 447.346C304.725 448.293 303.794 448.961 302.768 449.012C301.892 449.055 301.019 449.069 300.144 449.097C300.13 449.098 300.115 449.113 300.229 449.115C300.144 449.991 299.964 450.882 299.996 451.743C300.037 452.894 298.716 454.204 297.671 454.338C296.386 454.501 295.228 453.7 295.145 452.442C295.084 451.531 295.151 450.598 295.16 449.675C295.161 449.528 295.16 449.383 295.16 449.176V449.176Z" fill="#FDF001"/>
</g>
<g clip-path="url(#clip14_264_3860)">
<path d="M326.756 456.802C325.778 456.819 324.854 456.837 323.932 456.851C322.47 456.874 321.465 455.838 321.592 454.44C321.717 453.073 322.899 451.999 324.34 451.954C325.164 451.928 325.986 451.92 326.86 451.902C326.883 450.971 326.881 450.084 326.932 449.194C327.039 447.306 329.123 446.03 330.698 446.889C331.442 447.294 331.826 447.96 331.816 448.855C331.806 449.824 331.785 450.794 331.767 451.801C332.795 451.784 333.785 451.745 334.769 451.754C336.443 451.77 337.407 453.373 336.725 454.972C336.321 455.919 335.39 456.587 334.364 456.638C333.488 456.681 332.615 456.695 331.74 456.723C331.726 456.724 331.711 456.739 331.825 456.741C331.74 457.617 331.561 458.508 331.592 459.369C331.633 460.52 330.312 461.83 329.267 461.964C327.982 462.127 326.825 461.326 326.741 460.068C326.68 459.157 326.748 458.224 326.756 457.301C326.758 457.154 326.756 457.009 326.756 456.802V456.802Z" fill="#FDF001"/>
</g>
<g clip-path="url(#clip15_264_3860)">
<path d="M312.289 422.701C310.659 422.729 309.12 422.759 307.583 422.782C305.145 422.82 303.47 421.093 303.683 418.764C303.891 416.486 305.86 414.696 308.263 414.621C309.635 414.578 311.006 414.563 312.463 414.533C312.501 412.982 312.498 411.504 312.583 410.021C312.761 406.873 316.235 404.747 318.859 406.178C320.099 406.854 320.74 407.963 320.723 409.455C320.706 411.07 320.671 412.688 320.641 414.366C322.355 414.337 324.004 414.272 325.644 414.288C328.434 414.314 330.042 416.986 328.904 419.651C328.231 421.228 326.68 422.343 324.969 422.427C323.51 422.499 322.054 422.522 320.597 422.569C320.573 422.57 320.547 422.596 320.737 422.598C320.595 424.059 320.297 425.543 320.349 426.978C320.418 428.897 318.216 431.081 316.475 431.304C314.333 431.576 312.404 430.241 312.264 428.144C312.163 426.625 312.275 425.071 312.289 423.532C312.292 423.288 312.29 423.046 312.289 422.701V422.701Z" fill="#FDF001"/>
</g>
<defs>
<linearGradient id="paint0_linear_264_3860" x1="151.74" y1="528.57" x2="199.41" y2="-17.58" gradientUnits="userSpaceOnUse">
<stop stop-color="#00124C"/>
<stop offset="0.36" stop-color="#001559"/>
<stop offset="1" stop-color="#001E7D"/>
</linearGradient>
<linearGradient id="paint1_linear_264_3860" x1="236.455" y1="464.959" x2="261.095" y2="464.959" gradientUnits="userSpaceOnUse">
<stop stop-color="#00124C"/>
<stop offset="0.36" stop-color="#001559"/>
<stop offset="1" stop-color="#001E7D"/>
</linearGradient>
<linearGradient id="paint2_linear_264_3860" x1="130.728" y1="464.947" x2="155.368" y2="464.947" gradientUnits="userSpaceOnUse">
<stop stop-color="#00124C"/>
<stop offset="0.36" stop-color="#001559"/>
<stop offset="1" stop-color="#001E7D"/>
</linearGradient>
<linearGradient id="paint3_linear_264_3860" x1="189.8" y1="356.44" x2="199.15" y2="508.87" gradientUnits="userSpaceOnUse">
<stop stop-color="#FA4E8F"/>
<stop offset="0.04" stop-color="#FA5795"/>
<stop offset="0.18" stop-color="#FC77AA"/>
<stop offset="0.32" stop-color="#FD90BA"/>
<stop offset="0.48" stop-color="#FEA2C6"/>
<stop offset="0.64" stop-color="#FEADCD"/>
<stop offset="0.82" stop-color="#FFB1D0"/>
</linearGradient>
<linearGradient id="paint4_linear_264_3860" x1="188.73" y1="515.33" x2="201.43" y2="369.75" gradientUnits="userSpaceOnUse">
<stop stop-color="#00124C"/>
<stop offset="0.36" stop-color="#001559"/>
<stop offset="1" stop-color="#001E7D"/>
</linearGradient>
<clipPath id="clip0_264_3860">
<rect width="391.14" height="596.01" fill="white" transform="translate(-1 -1)"/>
</clipPath>
<clipPath id="clip1_264_3860">
<rect width="19.8813" height="18.5894" fill="white" transform="translate(29.2324 78.1361) rotate(-45)"/>
</clipPath>
<clipPath id="clip2_264_3860">
<rect width="19.8813" height="18.5894" fill="white" transform="translate(78.6479 90.0627) rotate(-45)"/>
</clipPath>
<clipPath id="clip3_264_3860">
<rect width="33.1356" height="30.9823" fill="white" transform="translate(49.5698 34.4304) rotate(-45)"/>
</clipPath>
<clipPath id="clip4_264_3860">
<rect width="11.9226" height="11.1478" fill="white" transform="translate(106.78 562.772) rotate(135)"/>
</clipPath>
<clipPath id="clip5_264_3860">
<rect width="11.9226" height="11.1478" fill="white" transform="translate(77.146 555.62) rotate(135)"/>
</clipPath>
<clipPath id="clip6_264_3860">
<rect width="19.871" height="18.5797" fill="white" transform="translate(94.5835 588.982) rotate(135)"/>
</clipPath>
<clipPath id="clip7_264_3860">
<rect width="16.8377" height="15.7435" fill="white" transform="translate(301.896 149.895) rotate(-45)"/>
</clipPath>
<clipPath id="clip8_264_3860">
<rect width="16.8377" height="15.7435" fill="white" transform="translate(343.746 159.996) rotate(-45)"/>
</clipPath>
<clipPath id="clip9_264_3860">
<rect width="28.0628" height="26.2392" fill="white" transform="translate(319.12 112.881) rotate(-45)"/>
</clipPath>
<clipPath id="clip10_264_3860">
<rect width="15.4103" height="14.4089" fill="white" transform="translate(47.0562 365.056) rotate(-45)"/>
</clipPath>
<clipPath id="clip11_264_3860">
<rect width="15.4103" height="14.4089" fill="white" transform="translate(85.3589 374.301) rotate(-45)"/>
</clipPath>
<clipPath id="clip12_264_3860">
<rect width="25.6838" height="24.0148" fill="white" transform="translate(62.8203 331.18) rotate(-45)"/>
</clipPath>
<clipPath id="clip13_264_3860">
<rect width="12.7123" height="11.8862" fill="white" transform="translate(288.971 446.971) rotate(-45)"/>
</clipPath>
<clipPath id="clip14_264_3860">
<rect width="12.7123" height="11.8862" fill="white" transform="translate(320.567 454.597) rotate(-45)"/>
</clipPath>
<clipPath id="clip15_264_3860">
<rect width="21.1871" height="19.8103" fill="white" transform="translate(301.975 419.025) rotate(-45)"/>
</clipPath>
</defs>
</svg>
