<svg width="390" height="600" viewBox="0 0 390 600" fill="none" xmlns="http://www.w3.org/2000/svg">
<g clip-path="url(#clip0_264_3854)">
<path d="M373.696 89.6885C371.497 78.2487 369.428 67.4488 368.828 57.589C365.829 8.37984 389.211 0.289978 389.45 0.20998L389.271 -1C389.021 -0.920001 383.073 1.04997 377.435 9.29983C368.028 23.0496 367.108 43.2093 367.988 57.699C368.598 67.6688 370.677 78.5187 372.886 90.0185C377.065 111.778 381.693 135.888 378.924 163.787C376.375 137.848 367.528 115.118 359.721 87.7285C342.407 27.0195 371.127 -0.39001 371.127 -0.39001H-0.419922C9.19663 64.5589 32.1884 74.3787 50.022 91.7784C56.0199 104.378 59.7285 118.268 58.2291 135.838C56.2498 159.017 43.9142 180.847 31.9785 201.967C28.2098 208.646 24.4912 215.226 21.1324 221.756C4.74823 247.196 -4.41849 274.375 17.2138 305.135C18.1434 307.335 19.0531 309.385 19.9428 311.355C27.5501 328.394 33.0481 340.714 26.3705 403.383C22.3919 440.753 27.66 471.452 41.605 492.172C51.8414 507.371 66.5361 516.851 83.7999 519.901C102.533 527.811 124.855 524.511 144.708 516.441C176.287 503.602 209.615 504.381 241.304 516.611C254.479 521.691 269.953 526.081 285.758 523.181C307.67 520.851 330.442 503.771 344.327 478.032C355.843 456.692 366.639 419.853 352.714 365.514C345.036 335.534 343.157 311.955 344.577 292.145C345.346 290.375 346.176 288.625 347.086 286.885C374.476 234.196 381.393 198.747 379.274 168.207C383.013 138.258 378.105 112.668 373.686 89.6785L373.696 89.6885ZM32.6382 202.757C44.6439 181.507 57.0595 159.537 59.0688 135.998C60.4983 119.238 57.3094 105.818 51.9313 93.6984C59.0888 101.108 65.2765 110.178 69.1852 125.258C76.8424 154.767 47.9128 183.257 26.2705 214.126C28.3298 210.366 30.469 206.576 32.6282 202.757H32.6382ZM42.2148 491.312C28.4597 470.882 23.2816 440.553 27.2102 403.583C33.9278 340.444 28.3598 327.964 20.6525 310.695C20.3227 309.965 19.9928 309.225 19.6629 308.475C19.8928 308.775 20.1227 309.075 20.3526 309.375C60.3783 360.174 16.494 443.982 62.0477 502.921C67.0759 509.431 72.8538 514.241 79.1116 517.661C64.117 513.851 51.3515 504.901 42.2148 491.322V491.312ZM351.924 365.954C365.709 419.753 355.043 456.182 343.667 477.272C333.031 496.992 317.116 511.571 300.412 518.221C305.131 515.831 309.819 512.611 314.427 508.381C379.614 448.662 316.637 361.984 343.537 294.635C342.457 314.055 344.517 337.044 351.924 365.944V365.954Z" fill="url(#paint0_linear_264_3854)"/>
<path d="M29.6392 595H363.28C363.28 595 340.718 523.911 261.606 538.961C261.606 538.961 194.49 570.86 124.415 538.961C124.415 538.961 64.7666 525.401 29.6492 595H29.6392Z" fill="#00124C"/>
<path d="M260.403 467.758C261.944 461.272 257.937 454.765 251.454 453.224C244.971 451.683 238.466 455.69 236.925 462.176C235.384 468.661 239.391 475.168 245.874 476.709C252.357 478.251 258.862 474.243 260.403 467.758Z" fill="#FDF001" stroke="url(#paint1_linear_264_3854)" stroke-width="0.5" stroke-miterlimit="10"/>
<path d="M248.661 475.302C249.091 475.442 249.35 475.592 249.42 476.042L249.7 476.932C249.79 477.222 250.04 477.982 250.13 478.262C250.03 478.452 249.94 478.652 249.8 478.862C249.56 478.772 249.38 478.672 249.19 478.572C249.101 478.292 248.861 477.532 248.761 477.242L248.481 476.352C248.271 475.952 248.391 475.672 248.671 475.312L248.661 475.302Z" fill="#FE40B4"/>
<path d="M251.65 474.592C252.139 474.742 252.419 474.952 252.529 475.432L252.959 476.462C253.099 476.802 253.469 477.682 253.599 478.012C253.529 478.242 253.469 478.472 253.359 478.712C253.109 478.612 252.899 478.502 252.689 478.382C252.549 478.062 252.189 477.172 252.05 476.832L251.62 475.802C251.36 475.382 251.41 475.032 251.65 474.582V474.592Z" fill="#FE40B4"/>
<path d="M254.349 473.742C254.779 473.752 255.069 473.802 255.228 474.202L255.688 474.932C255.838 475.172 256.238 475.792 256.378 476.022C256.328 476.222 256.278 476.422 256.188 476.652C255.948 476.632 255.748 476.592 255.538 476.552C255.388 476.322 254.999 475.692 254.849 475.462L254.389 474.732C254.099 474.412 254.169 474.132 254.349 473.742V473.742Z" fill="#FE40B4"/>
<path d="M151.518 473.472C156.23 468.758 156.23 461.116 151.518 456.402C146.806 451.689 139.167 451.689 134.455 456.402C129.743 461.116 129.743 468.758 134.455 473.472C139.167 478.185 146.806 478.185 151.518 473.472Z" fill="#FDF001" stroke="url(#paint2_linear_264_3854)" stroke-width="0.5" stroke-miterlimit="10"/>
<path d="M135.721 472.462C135.781 472.972 135.701 473.322 135.301 473.632L134.521 474.462C134.262 474.732 133.602 475.442 133.352 475.712C133.112 475.752 132.872 475.792 132.602 475.792C132.592 475.522 132.602 475.282 132.632 475.042C132.872 474.782 133.542 474.062 133.802 473.792L134.581 472.962C134.861 472.552 135.211 472.442 135.721 472.472V472.462Z" fill="#FE40B4"/>
<path d="M134.971 477.012C134.891 476.472 134.981 476.102 135.371 475.752L136.151 474.802C136.411 474.492 137.071 473.682 137.32 473.372C137.57 473.312 137.81 473.242 138.09 473.212C138.11 473.492 138.09 473.742 138.09 474.002C137.85 474.302 137.181 475.112 136.921 475.432L136.141 476.382C135.871 476.832 135.521 476.992 134.981 477.022L134.971 477.012Z" fill="#FE40B4"/>
<path d="M138.3 478.152C138.03 477.732 137.95 477.412 138.18 476.982L138.53 475.972C138.65 475.642 138.94 474.782 139.05 474.462C139.25 474.342 139.45 474.222 139.69 474.122C139.82 474.352 139.9 474.572 139.98 474.792C139.87 475.112 139.57 475.972 139.46 476.302L139.11 477.312C139.03 477.782 138.76 477.992 138.29 478.162L138.3 478.152Z" fill="#FE40B4"/>
<path d="M263.605 538.971C263.605 538.971 257.497 555.661 241.083 568.8C230.447 577.33 215.452 584.35 195.01 584.35C174.567 584.35 159.572 577.33 148.926 568.8C132.512 555.661 126.414 538.971 126.414 538.971C144.428 539.621 156.733 531.671 165.03 521.771C165.69 520.971 166.34 520.161 166.95 519.341C178.236 504.401 181.175 486.392 181.175 486.392H208.835C208.835 486.392 211.774 504.401 223.06 519.341C223.659 520.161 224.309 520.971 224.979 521.771C233.286 531.671 245.592 539.621 263.605 538.971V538.971Z" fill="#3E4BF6"/>
<path d="M263.605 538.971C263.605 538.971 257.497 555.661 241.083 568.8C230.447 577.33 215.452 584.35 195.01 584.35C174.567 584.35 159.572 577.33 148.926 568.8C132.512 555.661 126.414 538.971 126.414 538.971C144.428 539.621 156.733 531.671 165.03 521.771C165.69 520.971 166.34 520.161 166.95 519.341C178.236 504.401 181.175 486.392 181.175 486.392H208.835C208.835 486.392 211.774 504.401 223.06 519.341C223.659 520.161 224.309 520.971 224.979 521.771C233.286 531.671 245.592 539.621 263.605 538.971V538.971Z" fill="#00124C"/>
<path d="M223.07 519.341C214.963 524.511 205.336 527.501 195.02 527.501C184.703 527.501 175.067 524.501 166.96 519.341C178.246 504.401 181.185 486.392 181.185 486.392H208.845C208.845 486.392 211.784 504.401 223.07 519.341Z" fill="#001E7D"/>
<path d="M247.281 422.193C247.281 393.309 223.876 369.894 195.005 369.894C166.133 369.894 142.729 393.309 142.729 422.193V462.872C142.729 491.756 166.133 515.171 195.005 515.171C223.876 515.171 247.281 491.756 247.281 462.872V422.193Z" fill="url(#paint3_linear_264_3854)"/>
<path d="M247.281 422.193C247.281 393.309 223.876 369.894 195.005 369.894C166.133 369.894 142.729 393.309 142.729 422.193V462.872C142.729 491.756 166.133 515.171 195.005 515.171C223.876 515.171 247.281 491.756 247.281 462.872V422.193Z" fill="#FDF001" stroke="url(#paint4_linear_264_3854)" stroke-miterlimit="10"/>
<path d="M168.426 480.909C171.994 477.34 171.994 471.553 168.426 467.983C164.858 464.414 159.073 464.414 155.505 467.983C151.936 471.553 151.936 477.34 155.505 480.909C159.073 484.478 164.858 484.478 168.426 480.909Z" fill="#FE40B4"/>
<path d="M236.977 481.369C240.596 477.851 240.679 472.065 237.162 468.445C233.646 464.825 227.861 464.742 224.242 468.26C220.624 471.778 220.541 477.564 224.057 481.184C227.574 484.804 233.359 484.887 236.977 481.369Z" fill="#FE40B4"/>
<path d="M196.01 414.043C198.529 425.933 200.988 439.013 203.397 450.842C204.287 454.972 204.886 459.152 205.336 463.352C205.426 464.102 204.786 464.772 204.027 464.722C202.107 464.612 200.188 464.472 198.269 464.292C196.349 464.102 194.43 463.882 192.511 463.562C192.351 463.532 192.351 463.292 192.511 463.262C196.329 462.642 200.168 462.332 204.027 462.102L202.737 463.622C200.818 455.492 200.148 447.152 198.939 438.903C197.929 431.703 196.619 421.403 195.72 414.083C195.69 413.913 195.98 413.843 196.01 414.033V414.043Z" fill="#00124C"/>
<path d="M198.269 499.402C200.792 499.402 202.837 496.2 202.837 492.252C202.837 488.303 200.792 485.102 198.269 485.102C195.746 485.102 193.7 488.303 193.7 492.252C193.7 496.2 195.746 499.402 198.269 499.402Z" fill="#FF9FDA"/>
<path d="M181.555 487.292C192.611 493.362 203.977 493.492 214.993 487.292C215.063 487.242 215.183 487.242 215.233 487.332C215.263 487.392 215.253 487.452 215.213 487.502C208.795 494.642 197.769 496.882 189.042 492.932C186.113 491.712 183.544 489.762 181.345 487.502C181.225 487.362 181.395 487.172 181.555 487.292V487.292Z" fill="#00124C"/>
<path d="M179.955 489.712C179.835 487.592 180.985 485.582 182.844 484.582C182.884 484.552 182.954 484.572 182.934 484.632C182.255 485.932 180.805 488.502 180.045 489.762C180.015 489.812 179.945 489.762 179.955 489.712Z" fill="#00124C"/>
<path d="M214.013 485.662C215.742 486.222 216.832 487.912 216.662 489.712C216.662 489.762 216.622 489.812 216.582 489.762C215.882 488.782 214.553 486.742 213.933 485.712C213.903 485.662 213.973 485.632 214.013 485.662Z" fill="#00124C"/>
<path d="M180.445 442.323C180.445 442.323 180.465 442.303 180.465 442.293C180.455 442.293 180.445 442.293 180.435 442.313C174.637 434.353 160.942 434.293 155.174 442.313C155.164 442.313 155.154 442.313 155.144 442.303C155.144 442.303 155.164 442.323 155.164 442.333C155.164 442.333 155.144 442.353 155.144 442.363C155.154 442.363 155.164 442.363 155.174 442.343C160.972 450.302 174.667 450.362 180.435 442.343C180.445 442.343 180.455 442.343 180.465 442.353C180.465 442.353 180.445 442.333 180.445 442.323ZM155.204 442.323C163.271 438.283 172.338 438.313 180.415 442.323C172.348 446.362 163.281 446.332 155.204 442.323Z" fill="#00124C" stroke="url(#paint5_linear_264_3854)" stroke-miterlimit="10"/>
<path d="M167.56 439.303C165.89 439.303 164.541 440.653 164.541 442.323C164.541 443.993 165.89 445.343 167.56 445.343C169.229 445.343 170.579 443.993 170.579 442.323C170.579 440.653 169.229 439.303 167.56 439.303ZM167.07 442.533C166.53 442.533 166.09 442.093 166.09 441.553C166.09 441.013 166.53 440.573 167.07 440.573C167.61 440.573 168.05 441.013 168.05 441.553C168.05 442.093 167.61 442.533 167.07 442.533ZM168.239 443.823C168 443.823 167.81 443.633 167.81 443.393C167.81 443.153 168 442.963 168.239 442.963C168.479 442.963 168.669 443.153 168.669 443.393C168.669 443.633 168.479 443.823 168.239 443.823Z" fill="#00124C"/>
<path d="M233.376 442.293C233.376 442.293 233.396 442.273 233.396 442.263C233.386 442.263 233.376 442.263 233.366 442.283C227.568 434.323 213.873 434.263 208.105 442.283C208.095 442.283 208.085 442.283 208.075 442.273C208.075 442.273 208.095 442.293 208.095 442.303C208.095 442.303 208.075 442.323 208.075 442.333C208.085 442.333 208.095 442.333 208.105 442.313C213.903 450.272 227.598 450.332 233.366 442.313C233.376 442.313 233.386 442.313 233.396 442.323C233.396 442.323 233.376 442.303 233.376 442.293ZM208.135 442.293C216.202 438.253 225.269 438.283 233.346 442.293C225.279 446.332 216.212 446.302 208.135 442.293Z" fill="#00124C" stroke="url(#paint6_linear_264_3854)" stroke-miterlimit="10"/>
<path d="M220.501 439.273C218.831 439.273 217.482 440.623 217.482 442.293C217.482 443.963 218.831 445.313 220.501 445.313C222.17 445.313 223.52 443.963 223.52 442.293C223.52 440.623 222.17 439.273 220.501 439.273ZM220.011 442.503C219.471 442.503 219.031 442.063 219.031 441.523C219.031 440.983 219.471 440.543 220.011 440.543C220.551 440.543 220.991 440.983 220.991 441.523C220.991 442.063 220.551 442.503 220.011 442.503ZM221.181 443.793C220.941 443.793 220.751 443.603 220.751 443.363C220.751 443.123 220.941 442.933 221.181 442.933C221.421 442.933 221.61 443.123 221.61 443.363C221.61 443.603 221.421 443.793 221.181 443.793Z" fill="#00124C"/>
<path d="M165.151 532.971C160.322 534.431 165.59 540.251 166.54 553.481C159.713 545.981 152.745 539.541 147.207 535.301C144.648 536.391 141.909 537.281 138.98 537.911C142.929 544.061 149.886 551.961 151.585 556.431C151.086 555.871 133.302 535.921 128.004 540.371C124.405 543.391 141.019 557.981 145.438 567.13C145.438 567.13 125.545 545.031 121.886 548.171C117.498 551.941 134.242 567.8 138.73 575.74C137.8 574.55 122.786 555.281 118.237 555.531C113.989 555.761 122.726 573.55 140.469 594.99H194.14C181.575 565.68 170.419 531.371 165.151 532.961V532.971Z" fill="#00124C"/>
<path d="M255.908 595C273.742 576 282.848 560.221 278.8 559.691C274.281 559.091 257.857 577.18 256.848 578.3C261.926 570.72 279.809 556.161 275.721 552.071C272.312 548.661 250.81 569.2 250.81 569.2C255.908 560.411 273.582 547.111 270.213 543.831C265.265 539.001 246.032 557.551 245.492 558.071C247.701 553.351 256.488 545.011 260.586 538.981C257.058 538.921 253.759 538.511 250.68 537.831C244.962 541.651 237.855 547.341 230.797 554.001C232.736 540.881 238.434 535.471 233.726 533.651C228.488 531.631 214.333 566.38 199.268 595H255.908Z" fill="#00124C"/>
<path d="M195.47 587.96L195.49 587.99C182.374 558.051 170.609 521.191 165.15 522.841C160.322 524.301 165.59 530.121 166.54 543.351C152.425 527.861 137.68 516.841 136.341 520.531C134.651 525.171 149.046 539.611 151.585 546.301C151.086 545.741 133.302 525.791 128.004 530.241C124.405 533.261 141.019 547.851 145.438 557.001C145.438 557.001 125.545 534.901 121.886 538.041C117.498 541.811 134.242 557.671 138.73 565.61C137.8 564.42 122.786 545.151 118.237 545.401C113.539 545.661 124.715 567.38 146.397 591.77C147.267 592.75 148.077 593.84 148.856 595H194.09C194.86 593.4 195.65 591.8 196.449 590.23C196.119 589.47 195.799 588.71 195.46 587.95L195.47 587.96Z" fill="#FDF001"/>
<path d="M195.47 587.96L195.49 587.99C182.374 558.051 170.609 521.191 165.15 522.841C160.322 524.301 165.59 530.121 166.54 543.351C152.425 527.861 137.68 516.841 136.341 520.531C134.651 525.171 149.046 539.611 151.585 546.301C151.086 545.741 133.302 525.791 128.004 530.241C124.405 533.261 141.019 547.851 145.438 557.001C145.438 557.001 125.545 534.901 121.886 538.041C117.498 541.811 134.242 557.671 138.73 565.61C137.8 564.42 122.786 545.151 118.237 545.401C113.539 545.661 124.715 567.38 146.397 591.77C147.267 592.75 148.077 593.84 148.856 595H194.09C194.86 593.4 195.65 591.8 196.449 590.23C196.119 589.47 195.799 588.71 195.46 587.95L195.47 587.96Z" fill="#FDF001"/>
<path d="M278.8 549.551C274.281 548.951 257.857 567.04 256.848 568.16C261.926 560.581 279.809 546.021 275.721 541.931C272.312 538.521 250.81 559.061 250.81 559.061C255.908 550.271 273.582 536.971 270.213 533.691C265.265 528.861 246.032 547.411 245.492 547.931C248.531 541.441 263.965 528.131 262.636 523.381C261.566 519.601 246.042 529.471 230.797 543.861C232.736 530.741 238.434 525.331 233.726 523.511C228.408 521.451 213.893 557.331 198.568 586.19L198.588 586.16C197.869 587.5 197.159 588.86 196.459 590.23C195.65 591.81 194.87 593.4 194.1 595H245.952C246.371 594.54 246.801 594.09 247.231 593.66C270.693 570.97 283.468 550.151 278.8 549.541V549.551Z" fill="#FDF001"/>
<path d="M278.8 549.551C274.281 548.951 257.857 567.04 256.848 568.16C261.926 560.581 279.809 546.021 275.721 541.931C272.312 538.521 250.81 559.061 250.81 559.061C255.908 550.271 273.582 536.971 270.213 533.691C265.265 528.861 246.032 547.411 245.492 547.931C248.531 541.441 263.965 528.131 262.636 523.381C261.566 519.601 246.042 529.471 230.797 543.861C232.736 530.741 238.434 525.331 233.726 523.511C228.408 521.451 213.893 557.331 198.568 586.19L198.588 586.16C197.869 587.5 197.159 588.86 196.459 590.23C195.65 591.81 194.87 593.4 194.1 595H245.952C246.371 594.54 246.801 594.09 247.231 593.66C270.693 570.97 283.468 550.151 278.8 549.541V549.551Z" fill="#FDF001"/>
<path d="M142.729 374.144V438.363H148.197V439.063C148.317 439.063 160.612 438.953 169.129 429.093C176.157 420.963 178.676 408.733 176.646 392.723C184.963 417.013 205.776 434.973 231.117 439.583L247.281 442.523V374.134H142.729V374.144Z" fill="#FFF983"/>
<path d="M133.202 359.534C117.008 380.884 121.386 408.023 133.202 437.253H139.82V438.103C139.969 438.103 154.834 437.963 165.15 426.043C173.657 416.203 176.696 401.403 174.247 382.034C184.314 411.423 209.495 433.163 240.174 438.743L259.737 442.293C272.872 413.033 274.701 385.214 259.737 359.534C182.174 317.645 182.314 330.504 133.212 359.534H133.202ZM164.511 425.473C156.384 434.883 145.338 436.773 141.339 437.153C147.847 434.683 173.058 422.603 173.547 383.344C175.697 401.863 172.668 416.033 164.501 425.473H164.511Z" fill="#00124C"/>
<path d="M172.768 330.114C170.869 328.114 170.689 326.224 172.228 324.855C173.588 323.645 175.737 323.795 176.926 325.175C178.276 326.754 177.876 328.744 175.817 330.294C178.246 336.114 180.685 341.964 183.194 348.004C185.023 343.834 186.753 339.884 188.482 335.934C190.601 331.114 192.701 326.285 194.84 321.475C195.14 320.805 195.23 320.375 194.56 319.775C193.211 318.565 193.271 316.575 194.52 315.335C195.79 314.085 197.869 314.085 199.148 315.335C200.438 316.595 200.488 318.505 199.208 319.785C198.769 320.225 198.559 320.515 198.879 321.195C203.007 329.854 207.096 338.534 211.194 347.214C211.264 347.374 211.364 347.514 211.534 347.814C213.823 341.834 216.062 335.994 218.302 330.144C215.902 328.534 215.882 326.274 217.192 324.825C218.392 323.495 220.481 323.455 221.8 324.685C223.31 326.085 223.16 328.004 221.33 329.834C224.669 335.334 228.028 340.864 231.457 346.504C232.966 345.244 234.396 344.054 235.815 342.854C240.784 338.674 245.732 334.474 250.72 330.314C251.29 329.844 251.34 329.494 251.08 328.824C250.42 327.104 251.47 325.235 253.259 324.775C255.098 324.305 256.998 325.475 257.338 327.274C257.687 329.164 256.468 330.944 254.579 331.044C253.699 331.094 253.539 331.554 253.359 332.174C251.91 337.094 250.46 342.004 249.011 346.924C246.202 356.454 243.393 365.974 240.604 375.514C240.404 376.194 240.084 376.364 239.414 376.364C211.994 370.034 184.244 370.404 156.194 376.784C155.494 376.784 155.214 376.564 155.004 375.914C150.976 363.594 146.927 351.274 142.879 338.964C142.169 336.814 141.449 334.674 140.749 332.524C140.569 331.964 140.369 331.684 139.66 331.654C137.69 331.564 136.411 329.844 136.701 327.884C136.971 326.095 138.84 324.915 140.699 325.365C142.539 325.815 143.598 327.704 142.959 329.494C142.769 330.024 142.739 330.344 143.238 330.754C149.766 336.014 156.284 341.294 162.801 346.574C162.881 346.644 162.981 346.684 163.221 346.834C166.4 341.264 169.579 335.694 172.748 330.144L172.768 330.114Z" fill="#FDF001"/>
<path d="M155.354 377.614C154.215 377.314 154.005 375.804 153.665 374.884L152.765 372.134C149.526 362.214 143.488 343.754 140.18 333.664L139.81 332.554C137.121 332.614 135.061 329.724 135.951 327.104C137.79 322.095 145.418 324.505 143.848 329.664C143.808 329.794 143.768 329.894 143.748 329.974C143.748 330.004 143.748 330.024 143.748 329.984C143.748 329.944 143.718 329.904 143.728 329.924C143.808 330.004 144.068 330.204 144.238 330.344L145.358 331.254L163.321 345.814L162.731 345.924L171.858 329.984L171.898 330.414C170.799 329.194 169.919 327.424 170.559 325.755C171.998 322.115 177.426 322.465 178.416 326.224C178.896 327.934 177.906 329.664 176.616 330.704L176.716 330.294L183.514 346.654H182.894C184.304 343.444 191.191 327.784 192.461 324.924L193.42 322.755C193.62 322.265 194.19 321.115 194.29 320.675C194.35 320.575 193.94 320.275 193.67 319.955C193.39 319.625 193.171 319.255 193.021 318.845C192.021 316.325 194.29 313.425 196.949 313.615C199.598 313.615 201.727 316.555 200.618 319.035C200.398 319.595 199.948 320.125 199.548 320.535C199.458 320.665 199.488 320.635 199.548 320.795C202.117 326.224 209.055 340.924 211.704 346.544L211.244 346.564L217.522 330.224L217.602 330.494C216.282 329.544 215.323 327.854 215.722 326.184C217.802 319.585 227.078 324.765 222.1 330.034L222.12 329.784L231.757 345.674L231.467 345.624L249.2 330.754L250.31 329.824C250.5 329.664 250.65 329.544 250.61 329.384C250.14 328.264 250.12 326.854 250.83 325.814C252.469 322.995 257.208 323.725 257.917 326.914C258.447 328.874 257.258 331.184 255.198 331.574C254.958 331.634 254.679 331.644 254.469 331.664C254.249 331.694 254.159 331.784 254.069 332.014C253.919 332.454 253.789 332.934 253.659 333.394C250.62 343.664 245.152 362.154 242.183 372.234L241.363 375.004C241.213 375.454 241.143 375.964 240.813 376.374C240.454 376.834 239.834 376.944 239.304 376.894C212.004 370.574 181.995 370.814 155.354 377.604V377.614ZM155.514 377.144C155.764 377.224 156.054 377.254 156.314 377.224C183.504 370.964 212.104 370.404 239.344 376.714C239.714 376.734 240.404 376.664 240.664 376.254C240.953 375.904 241.033 375.414 241.173 374.954L241.983 372.174C244.912 362.154 250.38 343.494 253.369 333.304C253.589 332.724 253.609 332.054 254.009 331.544C254.339 331.274 254.768 331.394 255.118 331.284C258.107 330.714 258.637 326.224 255.968 324.845C253.399 323.235 249.82 325.635 250.7 328.624C250.81 328.944 251.08 329.464 250.79 329.794C250.69 329.944 232.197 345.484 231.527 346.054L231.407 345.864L221.74 329.994L221.66 329.854L221.77 329.734C224.319 327.234 222.87 323.415 219.251 323.535C215.732 323.925 215.023 328.224 217.862 330.114L218.002 330.224L217.942 330.384L211.694 346.734L211.484 347.284L211.234 346.754C208.535 341.064 201.628 326.514 199.018 321.025C198.978 320.925 198.919 320.805 198.919 320.625C198.919 320.425 199.028 320.275 199.098 320.185C200.068 319.295 200.608 317.975 200.198 316.685C198.789 312.365 192.231 314.185 193.58 318.635C193.78 319.165 194.09 319.585 194.52 319.965C194.66 320.105 194.9 320.335 194.89 320.695C194.81 321.275 194.59 321.525 194.45 321.915C192.191 327.044 185.843 341.574 183.504 346.914L183.194 347.634L182.894 346.914L176.067 330.574L175.967 330.324L176.167 330.164C178.916 328.124 178.026 324.245 174.617 323.915C173.198 323.795 171.758 324.705 171.248 326.014C170.739 327.344 171.458 328.824 172.458 329.924L172.638 330.124L172.508 330.364L163.411 346.324L163.181 346.724L162.821 346.434L144.828 331.914L143.698 331.004C143.268 330.654 142.789 330.404 142.929 329.784C143.278 328.844 143.348 327.824 142.849 326.934C141.659 324.455 137.57 324.725 136.791 327.374C136.181 329.224 137.411 331.474 139.43 331.634C139.78 331.694 139.95 331.604 140.339 331.844C140.689 332.134 140.669 332.384 140.799 332.714C144.958 345.034 150.976 363.764 155.044 375.944C155.184 376.344 155.364 376.584 155.664 376.674L155.504 377.144H155.514Z" fill="#FE40B4"/>
<path d="M140.439 330.784C141.589 331.104 141.809 332.684 142.159 333.624C142.749 335.394 144.358 340.354 144.978 342.204C148.097 351.634 152.165 364.284 155.264 373.674C155.414 374.064 155.854 375.524 155.974 375.834C169.159 372.964 183.854 370.974 197.809 370.954C211.804 370.754 226.419 372.574 239.734 375.504C239.844 375.394 239.874 375.064 239.964 374.844L240.364 373.494C243.612 362.484 249 344.214 252.309 333.044L252.719 331.684C252.869 330.924 253.709 330.254 254.528 330.274C256.088 330.254 257.038 328.474 256.508 327.074C255.948 325.414 253.559 324.885 252.349 326.165C251.749 326.754 251.51 327.674 251.779 328.464C251.939 328.874 252.139 329.464 251.909 330.014C251.699 330.564 251.24 330.884 250.9 331.164L248.751 332.974L231.517 347.424C231.207 347.684 231.337 347.654 231.137 347.364L220.551 329.894L220.451 329.734C220.96 329.244 221.45 328.744 221.77 328.144C222.88 326.454 221.25 324.315 219.351 324.515C217.412 324.595 216.312 327.074 217.592 328.564C217.992 329.104 218.561 329.514 219.151 329.894L219.091 330.054L211.804 349.014L211.664 349.374C210.714 347.894 210.004 346.244 209.255 344.664C207.945 341.874 204.366 334.304 202.997 331.424L198.828 322.595C198.539 321.925 197.869 320.975 198.169 320.195C198.509 319.385 199.298 319.045 199.448 318.165C200.028 315.605 196.539 313.925 194.83 315.925C194.03 316.785 193.94 318.195 194.73 319.085C196.059 320.205 195.77 321.065 195.08 322.475L191.141 331.404L183.284 349.284L183.184 349.514L183.084 349.284L175.157 330.194L175.127 330.134C175.667 329.744 176.197 329.314 176.576 328.774C179.026 325.185 172.878 322.635 171.758 326.674C171.598 328.004 172.558 329.144 173.438 330.054L173.408 330.094L163.441 347.504L163.421 347.544C162.621 347.124 161.932 346.514 161.242 345.954C157.473 342.904 150.636 337.354 146.807 334.264C145.438 333.144 144.048 332.054 142.699 330.904C141.959 330.174 142.699 329.214 142.669 328.364C142.679 326.494 140.529 325.235 138.86 325.945C137.081 326.554 136.611 329.004 137.87 330.334C138.49 331.054 139.41 331.144 140.279 331.264L140.439 330.794V330.784ZM140.279 331.254C139.41 331.124 138.47 331.044 137.87 330.324C136.621 328.984 137.061 326.524 138.86 325.915C140.559 325.195 142.699 326.454 142.709 328.344C142.749 329.194 141.999 330.134 142.739 330.864C144.078 332.004 145.478 333.094 146.847 334.214C149.656 336.484 156.544 342.024 159.243 344.204C160.412 345.164 162.331 346.714 163.381 347.444L173.308 330.014C172.588 329.504 171.418 327.884 171.628 326.634C172.288 323.535 176.966 323.845 177.316 326.964C177.426 328.364 176.336 329.464 175.297 330.204L175.327 330.104L183.294 349.174H183.094L190.921 331.274L194.84 322.335C195.13 321.595 195.65 320.835 195.29 320.145C194.91 319.485 194.06 318.965 193.96 318.105C193.56 316.355 195.15 314.625 196.909 314.725C198.648 314.705 200.198 316.475 199.768 318.225C199.648 319.075 198.798 319.605 198.489 320.285C198.239 320.975 198.848 321.705 199.138 322.445L203.327 331.264C205.816 336.304 209.155 343.964 211.804 348.834L211.454 348.864L218.701 329.894L218.781 330.144C217.652 329.454 216.522 328.304 216.602 326.854C216.672 325.424 217.882 324.155 219.321 324.075C221.55 323.845 223.48 326.354 222.18 328.364C221.85 328.974 221.38 329.484 220.911 329.934L220.941 329.654L231.567 347.104L231.187 347.044L248.391 332.554L250.54 330.744C250.91 330.434 251.25 330.174 251.38 329.824C251.52 329.484 251.41 329.104 251.24 328.654C250.45 326.534 252.709 324.395 254.798 324.955C257.657 325.484 258.167 329.744 255.328 330.744C254.898 330.914 254.389 330.834 253.979 331.014C253.269 331.274 253.199 332.354 252.889 333.224L246.551 354.804C245.092 359.774 242.453 368.804 241.023 373.694L240.633 375.044C240.523 375.424 240.444 376.034 239.944 376.184C239.734 376.234 239.614 376.234 239.454 376.244C225.809 373.114 211.804 371.624 197.809 371.764C183.814 371.894 169.839 373.644 156.204 376.754C156.014 376.754 155.884 376.754 155.614 376.654C155.354 376.544 155.204 376.294 155.154 376.154C155.034 375.844 154.984 375.654 154.894 375.404L154.424 373.974C151.315 364.604 147.187 351.944 144.068 342.524C143.478 340.684 141.809 335.744 141.229 333.954L140.759 332.524C140.619 332.084 140.449 331.844 140.129 331.744L140.289 331.274L140.279 331.254Z" fill="#FE40B4"/>
<path d="M198.667 318.048C198.995 317.074 198.459 316.015 197.47 315.681C196.482 315.348 195.414 315.867 195.086 316.84C194.758 317.813 195.294 318.873 196.283 319.206C197.271 319.54 198.339 319.021 198.667 318.048Z" fill="#FE40B4"/>
<path d="M221.402 327.663C221.73 326.689 221.195 325.63 220.206 325.296C219.217 324.963 218.15 325.482 217.822 326.455C217.493 327.429 218.029 328.488 219.018 328.821C220.007 329.155 221.074 328.636 221.402 327.663Z" fill="#FE40B4"/>
<path d="M255.953 328.367C256.281 327.394 255.746 326.334 254.757 326.001C253.768 325.668 252.701 326.186 252.373 327.16C252.045 328.133 252.58 329.193 253.569 329.526C254.558 329.859 255.625 329.341 255.953 328.367Z" fill="#FE40B4"/>
<path d="M176.274 327.683C176.602 326.71 176.066 325.65 175.077 325.317C174.089 324.984 173.021 325.502 172.693 326.476C172.365 327.449 172.901 328.509 173.889 328.842C174.878 329.175 175.946 328.657 176.274 327.683Z" fill="#FE40B4"/>
<path d="M141.642 329.056C141.97 328.083 141.434 327.024 140.445 326.69C139.457 326.357 138.389 326.875 138.061 327.849C137.733 328.822 138.269 329.882 139.257 330.215C140.246 330.549 141.314 330.03 141.642 329.056Z" fill="#FE40B4"/>
<path d="M205.87 361.397C207.348 357.012 204.928 352.237 200.466 350.732C196.003 349.227 191.187 351.562 189.71 355.948C188.232 360.333 190.651 365.108 195.114 366.613C199.576 368.118 204.392 365.783 205.87 361.397Z" fill="#00124C"/>
<path d="M202.602 360.295C203.482 357.684 202.041 354.84 199.383 353.944C196.726 353.048 193.858 354.438 192.978 357.05C192.097 359.661 193.538 362.505 196.196 363.401C198.854 364.297 201.722 362.907 202.602 360.295Z" fill="#FDF001"/>
<path d="M200.736 359.666C201.274 358.07 200.391 356.331 198.764 355.782C197.137 355.234 195.382 356.083 194.844 357.679C194.306 359.275 195.189 361.014 196.816 361.563C198.443 362.111 200.198 361.262 200.736 359.666Z" fill="#FE40B4"/>
<path d="M199.135 359.126C199.38 358.399 198.976 357.606 198.233 357.355C197.49 357.105 196.69 357.491 196.444 358.219C196.199 358.946 196.603 359.739 197.346 359.99C198.088 360.24 198.889 359.854 199.135 359.126Z" fill="#00124C"/>
<path d="M140.199 460.062C140.219 460.002 140.229 459.932 140.199 459.922C140.249 459.972 139.66 460.482 139.54 460.762C137.72 463.372 139.35 466.172 140.189 468.892C136.471 467.332 135.051 461.092 139.67 459.762C139.959 459.672 140.639 459.762 140.189 460.062H140.199Z" fill="#00124C"/>
<path d="M250.93 468.522C250.91 468.582 250.9 468.652 250.93 468.662C250.88 468.612 251.47 468.102 251.59 467.822C253.409 465.212 251.779 462.412 250.94 459.692C254.658 461.252 256.078 467.492 251.46 468.822C251.17 468.912 250.49 468.822 250.94 468.522H250.93Z" fill="#00124C"/>
</g>
<path d="M95.9279 50.4282C77.6419 53.2715 66.0838 66.8652 60.5814 90.8436C53.9504 64.9386 41.6378 54.1253 22.0709 57.3133C42.1188 53.5103 54.8235 41.4119 57.4187 16.8979C62.1483 44.7341 77.1076 53.8839 95.9292 50.4281L95.9279 50.4282Z" fill="#FDF001"/>
<path d="M116.999 94.8813C106.337 96.28 99.4352 104.017 95.9069 117.87C92.4135 102.73 85.4106 96.2777 74 97.8589C85.6986 95.9271 93.2462 89.0748 95.0931 74.8701C97.4553 91.106 106.019 96.6284 117 94.8813L116.999 94.8813Z" fill="#FDF001"/>
<path d="M47.9994 118.228C39.8171 119.301 34.52 125.239 31.8123 135.87C29.1313 124.251 23.757 119.299 15 120.513C23.978 119.03 29.7703 113.771 31.1877 102.87C33.0006 115.33 39.5724 119.568 48 118.228L47.9994 118.228Z" fill="#FDF001"/>
<path d="M324.898 153.774C335.743 152.328 342.749 144.441 346.309 130.339C349.896 145.736 357.035 152.286 368.642 150.652C356.743 152.643 349.078 159.631 347.229 174.088C344.791 157.573 336.066 151.973 324.897 153.774L324.898 153.774Z" fill="#FDF001"/>
<path d="M313.013 127.228C319.333 126.538 323.512 122.053 325.776 113.91C327.646 122.904 331.703 126.808 338.468 126.02C331.528 127.012 326.979 130.965 325.705 139.337C324.517 129.71 319.526 126.336 313.013 127.228L313.013 127.228Z" fill="#FDF001"/>
<path d="M354.098 114.314C358.948 113.785 362.155 110.343 363.892 104.094C365.328 110.996 368.441 113.992 373.632 113.387C368.307 114.148 364.815 117.182 363.838 123.607C362.926 116.219 359.096 113.63 354.097 114.314L354.098 114.314Z" fill="#FDF001"/>
<path d="M44.6409 579.463C54.6293 578.132 61.0823 570.868 64.3613 557.879C67.6649 572.06 74.24 578.093 84.9298 576.588C73.9708 578.422 66.9114 584.858 65.2087 598.172C62.963 582.963 54.9275 577.805 44.6402 579.463L44.6409 579.463Z" fill="#FDF001"/>
<path d="M33.6955 555.014C39.5163 554.379 43.3653 550.248 45.4499 542.748C47.1727 551.032 50.9087 554.627 57.1394 553.901C50.7479 554.815 46.5579 558.456 45.3845 566.167C44.2905 557.3 39.694 554.193 33.6951 555.014L33.6955 555.014Z" fill="#FDF001"/>
<path d="M71.5346 543.12C76.0017 542.633 78.9557 539.463 80.5554 533.707C81.8776 540.064 84.7448 542.823 89.5264 542.266C84.6213 542.967 81.4058 545.762 80.5053 551.68C79.6657 544.875 76.1381 542.49 71.5343 543.12L71.5346 543.12Z" fill="#FDF001"/>
<path d="M302.503 472.475C309.653 471.521 314.272 466.322 316.619 457.024C318.984 467.175 323.691 471.493 331.343 470.417C323.498 471.729 318.445 476.336 317.226 485.867C315.618 474.98 309.866 471.287 302.502 472.475L302.503 472.475Z" fill="#FDF001"/>
<path d="M294.668 454.973C298.834 454.518 301.59 451.562 303.082 446.193C304.315 452.123 306.989 454.696 311.45 454.177C306.874 454.831 303.875 457.437 303.035 462.957C302.252 456.61 298.962 454.385 294.667 454.973L294.668 454.973Z" fill="#FDF001"/>
<path d="M321.754 446.459C324.952 446.11 327.066 443.841 328.212 439.721C329.158 444.272 331.21 446.247 334.633 445.848C331.122 446.35 328.82 448.35 328.176 452.586C327.575 447.715 325.049 446.008 321.754 446.459L321.754 446.459Z" fill="#FDF001"/>
<path d="M41.5442 323.574C49.5698 322.504 54.7546 316.668 57.3892 306.231C60.0436 317.625 65.3266 322.472 73.9157 321.264C65.1104 322.737 59.4382 327.908 58.0701 338.606C56.2658 326.385 49.8093 322.241 41.5436 323.574L41.5442 323.574Z" fill="#FDF001"/>
<path d="M32.7497 303.929C37.4266 303.419 40.5193 300.1 42.1942 294.074C43.5785 300.73 46.5803 303.618 51.5865 303.035C46.451 303.769 43.0845 306.695 42.1417 312.89C41.2627 305.766 37.5694 303.269 32.7494 303.929L32.7497 303.929Z" fill="#FDF001"/>
<path d="M63.1528 294.373C66.7421 293.981 69.1155 291.434 70.4009 286.809C71.4633 291.917 73.767 294.134 77.609 293.687C73.6678 294.25 71.0842 296.495 70.3606 301.25C69.686 295.782 66.8517 293.866 63.1526 294.373L63.1528 294.373Z" fill="#FDF001"/>
<defs>
<linearGradient id="paint0_linear_264_3854" x1="151.686" y1="528.561" x2="199.371" y2="-17.5769" gradientUnits="userSpaceOnUse">
<stop stop-color="#00124C"/>
<stop offset="0.36" stop-color="#001559"/>
<stop offset="1" stop-color="#001E7D"/>
</linearGradient>
<linearGradient id="paint1_linear_264_3854" x1="236.369" y1="464.951" x2="261" y2="464.951" gradientUnits="userSpaceOnUse">
<stop stop-color="#00124C"/>
<stop offset="0.36" stop-color="#001559"/>
<stop offset="1" stop-color="#001E7D"/>
</linearGradient>
<linearGradient id="paint2_linear_264_3854" x1="130.68" y1="464.939" x2="155.312" y2="464.939" gradientUnits="userSpaceOnUse">
<stop stop-color="#00124C"/>
<stop offset="0.36" stop-color="#001559"/>
<stop offset="1" stop-color="#001E7D"/>
</linearGradient>
<linearGradient id="paint3_linear_264_3854" x1="189.732" y1="356.434" x2="199.085" y2="508.861" gradientUnits="userSpaceOnUse">
<stop stop-color="#FA4E8F"/>
<stop offset="0.04" stop-color="#FA5795"/>
<stop offset="0.18" stop-color="#FC77AA"/>
<stop offset="0.32" stop-color="#FD90BA"/>
<stop offset="0.48" stop-color="#FEA2C6"/>
<stop offset="0.64" stop-color="#FEADCD"/>
<stop offset="0.82" stop-color="#FFB1D0"/>
</linearGradient>
<linearGradient id="paint4_linear_264_3854" x1="188.662" y1="515.321" x2="201.366" y2="369.745" gradientUnits="userSpaceOnUse">
<stop stop-color="#00124C"/>
<stop offset="0.36" stop-color="#001559"/>
<stop offset="1" stop-color="#001E7D"/>
</linearGradient>
<linearGradient id="paint5_linear_264_3854" x1="167.26" y1="448.842" x2="168.4" y2="435.803" gradientUnits="userSpaceOnUse">
<stop stop-color="#00124C"/>
<stop offset="0.36" stop-color="#001559"/>
<stop offset="1" stop-color="#001E7D"/>
</linearGradient>
<linearGradient id="paint6_linear_264_3854" x1="220.201" y1="448.812" x2="221.341" y2="435.773" gradientUnits="userSpaceOnUse">
<stop stop-color="#00124C"/>
<stop offset="0.36" stop-color="#001559"/>
<stop offset="1" stop-color="#001E7D"/>
</linearGradient>
<clipPath id="clip0_264_3854">
<rect width="391" height="596" fill="white" transform="translate(-1 -1)"/>
</clipPath>
</defs>
</svg>
