<svg width="390" height="600" viewBox="0 0 390 600" fill="none" xmlns="http://www.w3.org/2000/svg">
<g clip-path="url(#clip0_630_3977)">
<path d="M374.25 89.69C372.05 78.25 369.98 67.45 369.38 57.59C366.38 8.38 389.77 0.29 390.01 0.21L389.83 -1C389.58 -0.92 383.63 1.05 377.99 9.3C368.58 23.05 367.66 43.21 368.54 57.7C369.15 67.67 371.23 78.52 373.44 90.02C377.62 111.78 382.25 135.89 379.48 163.79C376.93 137.85 368.08 115.12 360.27 87.73C342.95 27.02 371.68 -0.39 371.68 -0.39H0C9.63 64.56 32.62 74.38 50.46 91.78C56.46 104.38 60.17 118.27 58.67 135.84C56.69 159.02 44.35 180.85 32.41 201.97C28.64 208.65 24.92 215.23 21.56 221.76C5.17 247.2 -4 274.38 17.64 305.14C18.57 307.34 19.48 309.39 20.37 311.36C27.98 328.4 33.48 340.72 26.8 403.39C22.82 440.76 28.09 471.46 42.04 492.18C52.28 507.38 66.98 516.86 84.25 519.91C102.99 527.82 125.32 524.52 145.18 516.45C176.77 503.61 210.11 504.39 241.81 516.62C254.99 521.7 270.47 526.09 286.28 523.19C308.2 520.86 330.98 503.78 344.87 478.04C356.39 456.7 367.19 419.86 353.26 365.52C345.58 335.54 343.7 311.96 345.12 292.15C345.89 290.38 346.72 288.63 347.63 286.89C375.03 234.2 381.95 198.75 379.83 168.21C383.57 138.26 378.66 112.67 374.24 89.68L374.25 89.69ZM33.07 202.76C45.08 181.51 57.5 159.54 59.51 136C60.94 119.24 57.75 105.82 52.37 93.7C59.53 101.11 65.72 110.18 69.63 125.26C77.29 154.77 48.35 183.26 26.7 214.13C28.76 210.37 30.9 206.58 33.06 202.76H33.07ZM42.65 491.32C28.89 470.89 23.71 440.56 27.64 403.59C34.36 340.45 28.79 327.97 21.08 310.7C20.75 309.97 20.42 309.23 20.09 308.48C20.32 308.78 20.55 309.08 20.78 309.38C60.82 360.18 16.92 443.99 62.49 502.93C67.52 509.44 73.3 514.25 79.56 517.67C64.56 513.86 51.79 504.91 42.65 491.33V491.32ZM352.47 365.96C366.26 419.76 355.59 456.19 344.21 477.28C333.57 497 317.65 511.58 300.94 518.23C305.66 515.84 310.35 512.62 314.96 508.39C380.17 448.67 317.17 361.99 344.08 294.64C343 314.06 345.06 337.05 352.47 365.95V365.96Z" fill="url(#paint0_linear_630_3977)"/>
<path d="M30.0801 595.01H363.83C363.83 595.01 341.26 523.92 262.12 538.97C262.12 538.97 194.98 570.87 124.88 538.97C124.88 538.97 65.2101 525.41 30.0801 595.01Z" fill="#FE40B4"/>
<path d="M260.922 467.77C262.464 461.284 258.456 454.777 251.97 453.236C245.485 451.695 238.978 455.702 237.437 462.188C235.895 468.673 239.903 475.18 246.388 476.722C252.874 478.263 259.381 474.255 260.922 467.77Z" fill="#FDF001" stroke="url(#paint1_linear_630_3977)" stroke-width="0.5" stroke-miterlimit="10"/>
<path d="M249.17 475.31C249.6 475.45 249.86 475.6 249.93 476.05L250.21 476.94C250.3 477.23 250.55 477.99 250.64 478.27C250.54 478.46 250.45 478.66 250.31 478.87C250.07 478.78 249.89 478.68 249.7 478.58C249.61 478.3 249.37 477.54 249.27 477.25L248.99 476.36C248.78 475.96 248.9 475.68 249.18 475.32L249.17 475.31Z" fill="url(#paint2_linear_630_3977)"/>
<path d="M252.16 474.6C252.65 474.75 252.93 474.96 253.04 475.44L253.47 476.47C253.61 476.81 253.98 477.69 254.11 478.02C254.04 478.25 253.98 478.48 253.87 478.72C253.62 478.62 253.41 478.51 253.2 478.39C253.06 478.07 252.7 477.18 252.56 476.84L252.13 475.81C251.87 475.39 251.92 475.04 252.16 474.59V474.6Z" fill="url(#paint3_linear_630_3977)"/>
<path d="M254.861 473.75C255.291 473.76 255.581 473.81 255.741 474.21L256.201 474.94C256.351 475.18 256.751 475.8 256.891 476.03C256.841 476.23 256.791 476.43 256.701 476.66C256.461 476.64 256.261 476.6 256.051 476.56C255.901 476.33 255.511 475.7 255.361 475.47L254.901 474.74C254.611 474.42 254.681 474.14 254.861 473.75Z" fill="url(#paint4_linear_630_3977)"/>
<path d="M151.993 473.48C156.707 468.766 156.707 461.124 151.993 456.41C147.279 451.696 139.637 451.696 134.923 456.41C130.21 461.124 130.21 468.766 134.923 473.48C139.637 478.193 147.279 478.193 151.993 473.48Z" fill="#FDF001" stroke="url(#paint5_linear_630_3977)" stroke-width="0.5" stroke-miterlimit="10"/>
<path d="M136.19 472.47C136.25 472.98 136.17 473.33 135.77 473.64L134.99 474.47C134.73 474.74 134.07 475.45 133.82 475.72C133.58 475.76 133.34 475.8 133.07 475.8C133.06 475.53 133.07 475.29 133.1 475.05C133.34 474.79 134.01 474.07 134.27 473.8L135.05 472.97C135.33 472.56 135.68 472.45 136.19 472.48V472.47Z" fill="url(#paint6_linear_630_3977)"/>
<path d="M135.44 477.02C135.36 476.48 135.45 476.11 135.84 475.76L136.62 474.81C136.88 474.5 137.54 473.69 137.79 473.38C138.04 473.32 138.28 473.25 138.56 473.22C138.58 473.5 138.56 473.75 138.56 474.01C138.32 474.31 137.65 475.12 137.39 475.44L136.61 476.39C136.34 476.84 135.99 477 135.45 477.03L135.44 477.02Z" fill="url(#paint7_linear_630_3977)"/>
<path d="M138.77 478.16C138.5 477.74 138.42 477.42 138.65 476.99L139 475.98C139.12 475.65 139.41 474.79 139.52 474.47C139.72 474.35 139.92 474.23 140.16 474.13C140.29 474.36 140.37 474.58 140.45 474.8C140.34 475.12 140.04 475.98 139.93 476.31L139.58 477.32C139.5 477.79 139.23 478 138.76 478.17L138.77 478.16Z" fill="url(#paint8_linear_630_3977)"/>
<path d="M264.12 538.98C264.12 538.98 258.01 555.67 241.59 568.81C230.95 577.34 215.95 584.36 195.5 584.36C175.05 584.36 160.05 577.34 149.4 568.81C132.98 555.67 126.88 538.98 126.88 538.98C144.9 539.63 157.21 531.68 165.51 521.78C166.17 520.98 166.82 520.17 167.43 519.35C178.72 504.41 181.66 486.4 181.66 486.4H209.33C209.33 486.4 212.27 504.41 223.56 519.35C224.16 520.17 224.81 520.98 225.48 521.78C233.79 531.68 246.1 539.63 264.12 538.98Z" fill="#3E4BF6"/>
<path d="M264.12 538.98C264.12 538.98 258.01 555.67 241.59 568.81C230.95 577.34 215.95 584.36 195.5 584.36C175.05 584.36 160.05 577.34 149.4 568.81C132.98 555.67 126.88 538.98 126.88 538.98C144.9 539.63 157.21 531.68 165.51 521.78C166.17 520.98 166.82 520.17 167.43 519.35C178.72 504.41 181.66 486.4 181.66 486.4H209.33C209.33 486.4 212.27 504.41 223.56 519.35C224.16 520.17 224.81 520.98 225.48 521.78C233.79 531.68 246.1 539.63 264.12 538.98Z" fill="#FF71C8"/>
<path d="M223.57 519.35C215.46 524.52 205.83 527.51 195.51 527.51C185.19 527.51 175.55 524.51 167.44 519.35C178.73 504.41 181.67 486.4 181.67 486.4H209.34C209.34 486.4 212.28 504.41 223.57 519.35Z" fill="#FE40B4"/>
<path d="M247.79 422.2C247.79 393.316 224.377 369.9 195.495 369.9C166.613 369.9 143.2 393.316 143.2 422.2V462.88C143.2 491.764 166.613 515.18 195.495 515.18C224.377 515.18 247.79 491.764 247.79 462.88V422.2Z" fill="url(#paint9_linear_630_3977)"/>
<path d="M247.79 422.2C247.79 393.316 224.377 369.9 195.495 369.9C166.613 369.9 143.2 393.316 143.2 422.2V462.88C143.2 491.764 166.613 515.18 195.495 515.18C224.377 515.18 247.79 491.764 247.79 462.88V422.2Z" fill="#FDF001" stroke="url(#paint10_linear_630_3977)" stroke-miterlimit="10"/>
<path d="M168.906 480.917C172.476 477.348 172.476 471.561 168.906 467.991C165.337 464.422 159.55 464.422 155.981 467.991C152.411 471.561 152.411 477.348 155.981 480.917C159.55 484.487 165.337 484.487 168.906 480.917Z" fill="#FE40B4"/>
<path d="M237.477 481.381C241.097 477.863 241.18 472.077 237.662 468.457C234.144 464.837 228.358 464.754 224.737 468.272C221.117 471.79 221.034 477.576 224.552 481.196C228.07 484.816 233.857 484.899 237.477 481.381Z" fill="#FE40B4"/>
<path d="M196.5 414.05C199.02 425.94 201.48 439.02 203.89 450.85C204.78 454.98 205.38 459.16 205.83 463.36C205.92 464.11 205.28 464.78 204.52 464.73C202.6 464.62 200.68 464.48 198.76 464.3C196.84 464.11 194.92 463.89 193 463.57C192.84 463.54 192.84 463.3 193 463.27C196.82 462.65 200.66 462.34 204.52 462.11L203.23 463.63C201.31 455.5 200.64 447.16 199.43 438.91C198.42 431.71 197.11 421.41 196.21 414.09C196.18 413.92 196.47 413.85 196.5 414.04V414.05Z" fill="#00124C"/>
<path d="M198.76 499.41C201.284 499.41 203.33 496.209 203.33 492.26C203.33 488.311 201.284 485.11 198.76 485.11C196.236 485.11 194.19 488.311 194.19 492.26C194.19 496.209 196.236 499.41 198.76 499.41Z" fill="#FF9FDA"/>
<path d="M182.04 487.3C193.1 493.37 204.47 493.5 215.49 487.3C215.56 487.25 215.68 487.25 215.73 487.34C215.76 487.4 215.75 487.46 215.71 487.51C209.29 494.65 198.26 496.89 189.53 492.94C186.6 491.72 184.03 489.77 181.83 487.51C181.71 487.37 181.88 487.18 182.04 487.3Z" fill="#00124C"/>
<path d="M180.44 489.72C180.32 487.6 181.47 485.59 183.33 484.59C183.37 484.56 183.44 484.58 183.42 484.64C182.74 485.94 181.29 488.51 180.53 489.77C180.5 489.82 180.43 489.77 180.44 489.72Z" fill="#00124C"/>
<path d="M214.51 485.67C216.24 486.23 217.33 487.92 217.16 489.72C217.16 489.77 217.12 489.82 217.08 489.77C216.38 488.79 215.05 486.75 214.43 485.72C214.4 485.67 214.47 485.64 214.51 485.67Z" fill="#00124C"/>
<path d="M208.57 441.69C216.68 445.73 225.8 445.77 233.9 441.69C228.14 449.76 214.35 449.7 208.57 441.69Z" fill="#00124C"/>
<path d="M155.61 441.69C163.72 445.73 172.84 445.77 180.94 441.69C175.18 449.76 161.4 449.7 155.61 441.69Z" fill="#00124C"/>
<path d="M165.63 532.98C160.8 534.44 166.07 540.26 167.02 553.49C160.19 545.99 153.22 539.55 147.68 535.31C145.12 536.4 142.38 537.29 139.45 537.92C143.4 544.07 150.36 551.97 152.06 556.44C151.56 555.88 133.77 535.93 128.47 540.38C124.87 543.4 141.49 557.99 145.91 567.14C145.91 567.14 126.01 545.04 122.35 548.18C117.96 551.95 134.71 567.81 139.2 575.75C138.27 574.56 123.25 555.29 118.7 555.54C114.45 555.77 123.19 573.56 140.94 595H194.63C182.06 565.69 170.9 531.38 165.63 532.97V532.98Z" fill="#FF71C8"/>
<path d="M256.42 595.01C274.26 576.01 283.37 560.23 279.32 559.7C274.8 559.1 258.37 577.19 257.36 578.31C262.44 570.73 280.33 556.17 276.24 552.08C272.83 548.67 251.32 569.21 251.32 569.21C256.42 560.42 274.1 547.12 270.73 543.84C265.78 539.01 246.54 557.56 246 558.08C248.21 553.36 257 545.02 261.1 538.99C257.57 538.93 254.27 538.52 251.19 537.84C245.47 541.66 238.36 547.35 231.3 554.01C233.24 540.89 238.94 535.48 234.23 533.66C228.99 531.64 214.83 566.39 199.76 595.01H256.42Z" fill="#FF71C8"/>
<path d="M195.96 587.97L195.98 588C182.86 558.06 171.09 521.2 165.63 522.85C160.8 524.31 166.07 530.13 167.02 543.36C152.9 527.87 138.15 516.85 136.81 520.54C135.12 525.18 149.52 539.62 152.06 546.31C151.56 545.75 133.77 525.8 128.47 530.25C124.87 533.27 141.49 547.86 145.91 557.01C145.91 557.01 126.01 534.91 122.35 538.05C117.96 541.82 134.71 557.68 139.2 565.62C138.27 564.43 123.25 545.16 118.7 545.41C114 545.67 125.18 567.39 146.87 591.78C147.74 592.76 148.55 593.85 149.33 595.01H194.58C195.35 593.41 196.14 591.81 196.94 590.24C196.61 589.48 196.29 588.72 195.95 587.96L195.96 587.97Z" fill="#FDF001"/>
<path d="M195.96 587.97L195.98 588C182.86 558.06 171.09 521.2 165.63 522.85C160.8 524.31 166.07 530.13 167.02 543.36C152.9 527.87 138.15 516.85 136.81 520.54C135.12 525.18 149.52 539.62 152.06 546.31C151.56 545.75 133.77 525.8 128.47 530.25C124.87 533.27 141.49 547.86 145.91 557.01C145.91 557.01 126.01 534.91 122.35 538.05C117.96 541.82 134.71 557.68 139.2 565.62C138.27 564.43 123.25 545.16 118.7 545.41C114 545.67 125.18 567.39 146.87 591.78C147.74 592.76 148.55 593.85 149.33 595.01H194.58C195.35 593.41 196.14 591.81 196.94 590.24C196.61 589.48 196.29 588.72 195.95 587.96L195.96 587.97Z" fill="#FDF001"/>
<path d="M279.32 549.56C274.8 548.96 258.37 567.05 257.36 568.17C262.44 560.59 280.33 546.03 276.24 541.94C272.83 538.53 251.32 559.07 251.32 559.07C256.42 550.28 274.1 536.98 270.73 533.7C265.78 528.87 246.54 547.42 246 547.94C249.04 541.45 264.48 528.14 263.15 523.39C262.08 519.61 246.55 529.48 231.3 543.87C233.24 530.75 238.94 525.34 234.23 523.52C228.91 521.46 214.39 557.34 199.06 586.2L199.08 586.17C198.36 587.51 197.65 588.87 196.95 590.24C196.14 591.82 195.36 593.41 194.59 595.01H246.46C246.88 594.55 247.31 594.1 247.74 593.67C271.21 570.98 283.99 550.16 279.32 549.55V549.56Z" fill="#FDF001"/>
<path d="M279.32 549.56C274.8 548.96 258.37 567.05 257.36 568.17C262.44 560.59 280.33 546.03 276.24 541.94C272.83 538.53 251.32 559.07 251.32 559.07C256.42 550.28 274.1 536.98 270.73 533.7C265.78 528.87 246.54 547.42 246 547.94C249.04 541.45 264.48 528.14 263.15 523.39C262.08 519.61 246.55 529.48 231.3 543.87C233.24 530.75 238.94 525.34 234.23 523.52C228.91 521.46 214.39 557.34 199.06 586.2L199.08 586.17C198.36 587.51 197.65 588.87 196.95 590.24C196.14 591.82 195.36 593.41 194.59 595.01H246.46C246.88 594.55 247.31 594.1 247.74 593.67C271.21 570.98 283.99 550.16 279.32 549.55V549.56Z" fill="#FDF001"/>
<path d="M143.2 374.15V438.37H148.67V439.07C148.79 439.07 161.09 438.96 169.61 429.1C176.64 420.97 179.16 408.74 177.13 392.73C185.45 417.02 206.27 434.98 231.62 439.59L247.79 442.53V374.14H143.2V374.15Z" fill="#FFF983"/>
<path d="M133.67 359.54C117.47 380.89 121.85 408.03 133.67 437.26H140.29V438.11C140.44 438.11 155.31 437.97 165.63 426.05C174.14 416.21 177.18 401.41 174.73 382.04C184.8 411.43 209.99 433.17 240.68 438.75L260.25 442.3C273.39 413.04 275.22 385.22 260.25 359.54C182.66 317.65 182.8 330.51 133.68 359.54H133.67ZM164.99 425.48C156.86 434.89 145.81 436.78 141.81 437.16C148.32 434.69 173.54 422.61 174.03 383.35C176.18 401.87 173.15 416.04 164.98 425.48H164.99Z" fill="#FE40B4"/>
<path d="M297.563 375.876C292.57 375.876 288.509 379.872 288.461 384.819L246.619 385.031L279.785 357.677C281.443 359.415 283.791 360.504 286.394 360.504C291.424 360.504 295.502 356.454 295.502 351.459C295.502 346.464 291.424 342.414 286.394 342.414C281.364 342.414 277.285 346.464 277.285 351.459C277.285 352.494 277.462 353.487 277.785 354.414L237.431 369.235L258.587 333.278C259.739 333.804 261.025 334.101 262.379 334.101C267.409 334.101 271.487 330.051 271.487 325.056C271.487 320.061 267.409 316.011 262.379 316.011C257.349 316.011 253.27 320.061 253.27 325.056C253.27 327.181 254.008 329.13 255.24 330.674L223.36 357.513L231.017 315.659C231.566 315.762 232.127 315.817 232.7 315.817C237.73 315.817 241.808 311.767 241.808 306.772C241.808 301.777 237.73 297.726 232.7 297.726C227.67 297.726 223.591 301.777 223.591 306.772C223.591 309.817 225.109 312.511 227.432 314.152L206.1 351.277L198.802 308.897C202.929 308.037 206.027 304.398 206.027 300.045C206.027 295.05 201.948 291 196.918 291C191.888 291 187.81 295.05 187.81 300.045C187.81 304.398 190.907 308.031 195.034 308.897L187.736 351.277L166.599 314.485C169.001 312.856 170.574 310.12 170.574 307.014C170.574 302.019 166.495 297.969 161.466 297.969C156.436 297.969 152.357 302.019 152.357 307.014C152.357 312.009 156.436 316.059 161.466 316.059C161.947 316.059 162.417 316.023 162.874 315.95L170.477 357.519L138.28 330.414C139.371 328.925 140.017 327.09 140.017 325.104C140.017 320.109 135.939 316.059 130.909 316.059C125.879 316.059 121.8 320.109 121.8 325.104C121.8 330.099 125.879 334.15 130.909 334.15C132.439 334.15 133.884 333.774 135.152 333.108L156.411 369.241L115.886 354.359C116.38 353.245 116.655 352.016 116.655 350.726C116.655 345.732 112.576 341.681 107.546 341.681C102.516 341.681 98.4375 345.732 98.4375 350.726C98.4375 355.721 102.516 359.772 107.546 359.772C109.924 359.772 112.082 358.87 113.704 357.386L147.23 385.037L105.211 384.825C105.071 379.951 101.053 376.046 96.1085 376.046C91.1641 376.046 87 380.096 87 385.091C87 390.086 91.0787 394.136 96.1085 394.136C99.7727 394.136 102.925 391.987 104.376 388.893L144.023 402.994C153.826 383.923 173.793 370.869 196.833 370.869C219.872 370.869 239.839 383.929 249.643 403H249.795L289.381 388.918C290.869 391.908 293.966 393.967 297.557 393.967C302.587 393.967 306.666 389.916 306.666 384.922C306.666 379.927 302.587 375.876 297.557 375.876H297.563Z" fill="#FDF001"/>
<path d="M297.52 389.444C300.035 389.444 302.074 387.419 302.074 384.922C302.074 382.424 300.035 380.399 297.52 380.399C295.005 380.399 292.966 382.424 292.966 384.922C292.966 387.419 295.005 389.444 297.52 389.444Z" fill="#FE40B4" stroke="#00124C" stroke-miterlimit="10"/>
<path d="M286.357 355.988C288.872 355.988 290.911 353.963 290.911 351.465C290.911 348.967 288.872 346.942 286.357 346.942C283.842 346.942 281.803 348.967 281.803 351.465C281.803 353.963 283.842 355.988 286.357 355.988Z" fill="#FE40B4" stroke="#00124C" stroke-miterlimit="10"/>
<path d="M262.342 329.585C264.857 329.585 266.896 327.56 266.896 325.062C266.896 322.564 264.857 320.539 262.342 320.539C259.827 320.539 257.788 322.564 257.788 325.062C257.788 327.56 259.827 329.585 262.342 329.585Z" fill="#FE40B4" stroke="#00124C" stroke-miterlimit="10"/>
<path d="M232.663 311.3C235.178 311.3 237.217 309.275 237.217 306.778C237.217 304.28 235.178 302.255 232.663 302.255C230.148 302.255 228.109 304.28 228.109 306.778C228.109 309.275 230.148 311.3 232.663 311.3Z" fill="#FE40B4" stroke="#00124C" stroke-miterlimit="10"/>
<path d="M196.887 304.574C199.403 304.574 201.442 302.549 201.442 300.051C201.442 297.554 199.403 295.529 196.887 295.529C194.372 295.529 192.333 297.554 192.333 300.051C192.333 302.549 194.372 304.574 196.887 304.574Z" fill="#FE40B4" stroke="#00124C" stroke-miterlimit="10"/>
<path d="M161.435 311.536C163.95 311.536 165.989 309.512 165.989 307.014C165.989 304.516 163.95 302.491 161.435 302.491C158.92 302.491 156.881 304.516 156.881 307.014C156.881 309.512 158.92 311.536 161.435 311.536Z" fill="#FE40B4" stroke="#00124C" stroke-miterlimit="10"/>
<path d="M130.878 329.627C133.393 329.627 135.432 327.602 135.432 325.104C135.432 322.607 133.393 320.582 130.878 320.582C128.363 320.582 126.324 322.607 126.324 325.104C126.324 327.602 128.363 329.627 130.878 329.627Z" fill="#FE40B4" stroke="#00124C" stroke-miterlimit="10"/>
<path d="M107.509 355.249C110.025 355.249 112.064 353.224 112.064 350.726C112.064 348.229 110.025 346.204 107.509 346.204C104.994 346.204 102.955 348.229 102.955 350.726C102.955 353.224 104.994 355.249 107.509 355.249Z" fill="#FE40B4" stroke="#00124C" stroke-miterlimit="10"/>
<path d="M96.0782 389.608C98.5934 389.608 100.632 387.583 100.632 385.085C100.632 382.587 98.5934 380.562 96.0782 380.562C93.5629 380.562 91.5239 382.587 91.5239 385.085C91.5239 387.583 93.5629 389.608 96.0782 389.608Z" fill="#FE40B4" stroke="#00124C" stroke-miterlimit="10"/>
<path d="M140.67 460.07C140.69 460.01 140.7 459.94 140.67 459.93C140.72 459.98 140.13 460.49 140.01 460.77C138.19 463.38 139.82 466.18 140.66 468.9C136.94 467.34 135.52 461.1 140.14 459.77C140.43 459.68 141.11 459.77 140.66 460.07H140.67Z" fill="#00124C"/>
<path d="M251.44 468.53C251.42 468.59 251.41 468.66 251.44 468.67C251.39 468.62 251.98 468.11 252.1 467.83C253.92 465.22 252.29 462.42 251.45 459.7C255.17 461.26 256.59 467.5 251.97 468.83C251.68 468.92 251 468.83 251.45 468.53H251.44Z" fill="#00124C"/>
</g>
<path d="M86.4069 46.3778C70.2722 48.8866 60.0738 60.881 55.2188 82.0384C49.3679 59.1811 38.5039 49.64 21.2389 52.4529C38.9282 49.0973 50.1382 38.4222 52.4282 16.7923C56.6014 41.3536 69.8007 49.427 86.408 46.3778L86.4069 46.3778Z" fill="#FDF001"/>
<path d="M104.999 85.6012C95.5917 86.8353 89.5014 93.6619 86.3882 105.885C83.3058 92.5263 77.1268 86.8333 67.0586 88.2284C77.3808 86.524 84.0405 80.4777 85.6701 67.9442C87.7544 82.2701 95.3103 87.1427 105 85.6012L104.999 85.6012Z" fill="#FDF001"/>
<path d="M44.1171 106.201C36.8975 107.148 32.2235 112.387 29.8344 121.768C27.4688 111.515 22.7268 107.146 15 108.217C22.9217 106.909 28.0327 102.269 29.2833 92.6501C30.8829 103.644 36.6815 107.384 44.1176 106.201L44.1171 106.201Z" fill="#FDF001"/>
<path d="M318.235 150.767C330.605 149.117 338.597 140.122 342.657 124.037C346.749 141.599 354.891 149.069 368.13 147.206C354.558 149.477 345.816 157.447 343.707 173.936C340.926 155.1 330.975 148.712 318.235 150.767L318.235 150.767Z" fill="#FDF001"/>
<path d="M304.68 120.488C311.889 119.701 316.655 114.586 319.237 105.298C321.37 115.557 325.997 120.009 333.713 119.11C325.798 120.242 320.609 124.751 319.156 134.3C317.801 123.32 312.109 119.471 304.68 120.488L304.68 120.488Z" fill="#FDF001"/>
<path d="M351.541 105.759C357.073 105.155 360.731 101.229 362.713 94.1014C364.35 101.974 367.901 105.391 373.822 104.701C367.748 105.569 363.766 109.03 362.651 116.359C361.611 107.932 357.242 104.978 351.541 105.759L351.541 105.759Z" fill="#FDF001"/>
<path d="M43.2582 581.616C52.0839 580.44 57.7856 574.021 60.683 562.545C63.602 575.075 69.4117 580.405 78.8571 579.076C69.1739 580.696 62.9362 586.383 61.4317 598.147C59.4475 584.708 52.3473 580.151 43.2576 581.616L43.2582 581.616Z" fill="#FDF001"/>
<path d="M33.5869 560.013C38.7301 559.452 42.1311 555.802 43.973 549.175C45.4952 556.495 48.7964 559.671 54.3017 559.03C48.6542 559.837 44.952 563.054 43.9152 569.868C42.9486 562.033 38.8871 559.287 33.5865 560.013L33.5869 560.013Z" fill="#FDF001"/>
<path d="M67.0213 549.504C70.9684 549.073 73.5784 546.272 74.992 541.186C76.1602 546.804 78.6936 549.242 82.9187 548.749C78.5846 549.369 75.7433 551.838 74.9477 557.067C74.2058 551.054 71.0889 548.947 67.021 549.504L67.0213 549.504Z" fill="#FDF001"/>
<path d="M296.486 469.759C305.013 468.622 310.521 462.421 313.321 451.333C316.141 463.439 321.754 468.589 330.879 467.305C321.524 468.87 315.498 474.364 314.044 485.731C312.127 472.746 305.267 468.343 296.485 469.759L296.486 469.759Z" fill="#FDF001"/>
<path d="M287.142 448.887C292.111 448.345 295.397 444.819 297.176 438.417C298.647 445.488 301.837 448.557 307.155 447.938C301.699 448.717 298.122 451.826 297.121 458.408C296.187 450.839 292.263 448.186 287.142 448.887L287.142 448.887Z" fill="#FDF001"/>
<path d="M319.445 438.734C323.258 438.318 325.78 435.612 327.146 430.698C328.274 436.125 330.722 438.481 334.804 438.005C330.617 438.603 327.872 440.989 327.103 446.041C326.386 440.232 323.375 438.196 319.445 438.734L319.445 438.734Z" fill="#FDF001"/>
<path d="M42.5863 328.232C51.6067 327.029 57.4343 320.469 60.3955 308.739C63.3789 321.546 69.3168 326.994 78.9707 325.635C69.0738 327.291 62.6985 333.103 61.1608 345.127C59.1328 331.392 51.876 326.734 42.5856 328.232L42.5863 328.232Z" fill="#FDF001"/>
<path d="M32.7014 306.152C37.9581 305.578 41.4341 301.848 43.3166 295.075C44.8725 302.556 48.2464 305.802 53.8732 305.147C48.1012 305.972 44.3173 309.26 43.2576 316.224C42.2696 308.216 38.1186 305.41 32.701 306.152L32.7014 306.152Z" fill="#FDF001"/>
<path d="M66.8735 295.411C70.9077 294.97 73.5753 292.108 75.0201 286.91C76.2141 292.651 78.8034 295.142 83.1217 294.639C78.6919 295.272 75.788 297.796 74.9748 303.14C74.2166 296.995 71.0309 294.841 66.8732 295.411L66.8735 295.411Z" fill="#FDF001"/>
<defs>
<linearGradient id="paint0_linear_630_3977" x1="152.16" y1="528.57" x2="199.83" y2="-17.58" gradientUnits="userSpaceOnUse">
<stop stop-color="#FE40B4"/>
<stop offset="0.21" stop-color="#FE4DB9"/>
<stop offset="0.6" stop-color="#FE72C8"/>
<stop offset="1" stop-color="#FF9FDA"/>
</linearGradient>
<linearGradient id="paint1_linear_630_3977" x1="236.887" y1="464.958" x2="261.527" y2="464.958" gradientUnits="userSpaceOnUse">
<stop stop-color="#00124C"/>
<stop offset="0.36" stop-color="#001559"/>
<stop offset="1" stop-color="#001E7D"/>
</linearGradient>
<linearGradient id="paint2_linear_630_3977" x1="248.88" y1="477.09" x2="250.64" y2="477.09" gradientUnits="userSpaceOnUse">
<stop stop-color="#00124C"/>
<stop offset="0.36" stop-color="#001559"/>
<stop offset="1" stop-color="#001E7D"/>
</linearGradient>
<linearGradient id="paint3_linear_630_3977" x1="251.96" y1="476.67" x2="254.11" y2="476.67" gradientUnits="userSpaceOnUse">
<stop stop-color="#00124C"/>
<stop offset="0.36" stop-color="#001559"/>
<stop offset="1" stop-color="#001E7D"/>
</linearGradient>
<linearGradient id="paint4_linear_630_3977" x1="254.711" y1="475.21" x2="256.901" y2="475.21" gradientUnits="userSpaceOnUse">
<stop stop-color="#00124C"/>
<stop offset="0.36" stop-color="#001559"/>
<stop offset="1" stop-color="#001E7D"/>
</linearGradient>
<linearGradient id="paint5_linear_630_3977" x1="131.148" y1="-1.00301" x2="155.788" y2="-1.003" gradientUnits="userSpaceOnUse">
<stop stop-color="#00124C"/>
<stop offset="0.36" stop-color="#001559"/>
<stop offset="1" stop-color="#001E7D"/>
</linearGradient>
<linearGradient id="paint6_linear_630_3977" x1="133.07" y1="474.13" x2="136.21" y2="474.13" gradientUnits="userSpaceOnUse">
<stop stop-color="#00124C"/>
<stop offset="0.36" stop-color="#001559"/>
<stop offset="1" stop-color="#001E7D"/>
</linearGradient>
<linearGradient id="paint7_linear_630_3977" x1="135.41" y1="475.12" x2="138.57" y2="475.12" gradientUnits="userSpaceOnUse">
<stop stop-color="#00124C"/>
<stop offset="0.36" stop-color="#001559"/>
<stop offset="1" stop-color="#001E7D"/>
</linearGradient>
<linearGradient id="paint8_linear_630_3977" x1="138.52" y1="476.15" x2="140.46" y2="476.15" gradientUnits="userSpaceOnUse">
<stop stop-color="#00124C"/>
<stop offset="0.36" stop-color="#001559"/>
<stop offset="1" stop-color="#001E7D"/>
</linearGradient>
<linearGradient id="paint9_linear_630_3977" x1="190.22" y1="356.44" x2="199.57" y2="508.87" gradientUnits="userSpaceOnUse">
<stop stop-color="#FA4E8F"/>
<stop offset="0.04" stop-color="#FA5795"/>
<stop offset="0.18" stop-color="#FC77AA"/>
<stop offset="0.32" stop-color="#FD90BA"/>
<stop offset="0.48" stop-color="#FEA2C6"/>
<stop offset="0.64" stop-color="#FEADCD"/>
<stop offset="0.82" stop-color="#FFB1D0"/>
</linearGradient>
<linearGradient id="paint10_linear_630_3977" x1="189.15" y1="515.33" x2="201.85" y2="369.75" gradientUnits="userSpaceOnUse">
<stop stop-color="#00124C"/>
<stop offset="0.36" stop-color="#001559"/>
<stop offset="1" stop-color="#001E7D"/>
</linearGradient>
<clipPath id="clip0_630_3977">
<rect width="390" height="596.01" fill="white" transform="translate(0 -1)"/>
</clipPath>
</defs>
</svg>
