<svg width="352" height="311" viewBox="0 0 352 311" fill="none" xmlns="http://www.w3.org/2000/svg">
<path d="M328 44H14V297H328V44Z" fill="#FE40B4"/>
<path d="M328 44H14V297H328V44Z" fill="black" fill-opacity="0.2"/>
<rect x="1" y="295" width="342" height="16" rx="3" fill="#FDF001"/>
<path d="M43.2292 136.38L53.8228 130.825C55.5087 129.942 57.4738 131.366 57.1517 133.239L55.1275 144.996C54.9986 145.74 55.2456 146.495 55.7879 147.019L64.3626 155.346C65.7264 156.668 64.9747 158.975 63.0901 159.248L51.2455 160.966C50.4992 161.073 49.8495 161.544 49.5166 162.218L44.2172 172.916C43.3742 174.618 40.9419 174.618 40.0989 172.916L34.7995 162.218C34.4666 161.544 33.8169 161.073 33.0706 160.966L21.226 159.248C19.3414 158.975 18.5897 156.668 19.9535 155.346L28.5282 147.019C29.0705 146.495 29.3175 145.735 29.1886 144.996L27.1644 133.239C26.8423 131.371 28.8128 129.947 30.4934 130.825L41.0869 136.38C41.758 136.728 42.5527 136.728 43.2239 136.38H43.2292Z" fill="#FF9FDA"/>
<path d="M185.364 213.985C185.289 214.268 183.828 219.781 181.203 226.754C180.73 228.006 180.22 229.307 179.678 230.634C179.522 231.003 179.367 231.378 179.211 231.752C177.155 236.622 175.007 240.856 172.757 244.468C172.022 245.651 171.275 246.764 170.523 247.813C168.864 250.119 167.146 252.11 165.369 253.796C165.138 254.015 164.907 254.229 164.676 254.438C163.866 255.171 163.039 255.835 162.196 256.44C161.111 257.226 160 257.906 158.867 258.489C155.715 260.1 152.429 260.914 149.138 260.914C146.625 260.914 144.112 260.443 141.642 259.495C132.418 255.969 123.532 248.166 115.226 236.307C109.464 228.081 105.99 220.706 105.845 220.396C103.204 214.75 105.652 208.044 111.317 205.411C116.976 202.784 123.698 205.219 126.34 210.854C126.41 211.004 129.304 217.073 133.97 223.677C139.14 230.992 144.445 236.087 149.009 238.137C150.534 237.018 154.024 233.101 158.137 223.516C160.021 219.133 161.455 214.937 162.357 212.058C162.829 210.549 163.157 209.404 163.334 208.783C163.425 208.456 163.474 208.28 163.474 208.269C164.445 204.582 167.135 201.799 170.47 200.557C170.851 200.413 171.248 200.29 171.646 200.193C172.086 200.081 172.542 199.995 172.993 199.937C174.389 199.76 175.839 199.846 177.283 200.22C177.713 200.333 178.132 200.466 178.54 200.627C179.882 201.146 181.079 201.906 182.089 202.843C185.058 205.577 186.454 209.816 185.359 213.985H185.364Z" fill="#001E7D"/>
<path d="M238.16 217.897C238.101 219.085 238.02 220.327 237.913 221.611C237.779 223.184 237.607 224.827 237.403 226.545C237.263 227.701 237.113 228.889 236.941 230.115L236.85 230.693L236.034 235.729L235.534 238.833L235.518 238.929L235.443 239.395L235.432 239.469L235.266 240.508L235.255 240.577L230.24 271.574L229.65 275.219L228.866 280.078L228.211 284.119L227.287 289.85L226.981 291.75L226.509 294.677H157.906C157.686 294.565 157.466 294.447 157.251 294.33C159.57 287.801 162.078 281.646 163.753 275.32C164.107 273.977 164.424 272.629 164.698 271.264C165.052 269.476 165.321 267.667 165.487 265.827C165.573 264.895 165.632 263.959 165.659 263.012C165.718 261.042 165.659 259.025 165.439 256.948C165.369 256.29 165.283 255.626 165.186 254.963C165.186 254.963 164.999 254.781 164.693 254.449C164.44 254.176 164.107 253.801 163.726 253.336C161.272 250.355 156.832 243.676 159.184 236.697C160.816 231.854 162.062 226.69 163.28 221.659C163.608 220.305 163.935 218.956 164.263 217.629C164.746 215.692 165.24 213.787 165.766 211.956C165.884 211.544 166.003 211.132 166.126 210.731C166.722 208.756 167.356 206.867 168.07 205.101C168.558 203.886 169.235 202.81 170.046 201.842C170.54 201.258 171.077 200.713 171.662 200.21C171.834 200.06 172.011 199.91 172.188 199.765C175.624 196.993 180.306 195.249 184.527 193.413C185.128 193.151 185.724 192.888 186.304 192.616C186.76 192.407 187.2 192.193 187.635 191.973C188.043 191.77 188.441 191.561 188.822 191.347C188.988 191.256 189.16 191.16 189.321 191.064C190.057 190.635 190.739 190.18 191.356 189.699C191.383 189.677 191.415 189.651 191.448 189.629C191.48 189.608 191.507 189.581 191.539 189.56L210.379 188.719C210.379 188.719 211.775 189.64 214.036 190.876C215.357 191.599 216.968 192.423 218.777 193.236C219.829 193.713 220.946 194.178 222.106 194.617C224.066 195.361 226.154 196.019 228.264 196.485C231.218 197.132 233.424 198.497 234.998 200.595C235.073 200.697 235.148 200.804 235.223 200.911C235.841 201.794 236.356 202.805 236.775 203.934C237.312 205.379 237.693 207.028 237.929 208.874C238.079 210.025 238.176 211.25 238.224 212.551C238.284 214.215 238.267 216.002 238.171 217.924L238.16 217.897Z" fill="#001E7D"/>
<path d="M188.129 219.893H198.057V223.447C197.644 223.125 197.096 222.96 196.511 223.056C195.641 223.195 194.954 223.918 194.852 224.79C194.717 225.994 195.657 227.011 196.833 227.011C197.295 227.011 197.713 227.123 198.052 226.861V231.447H193.837H190.68H186.465V221.552C186.465 220.637 187.211 219.898 188.124 219.898L188.129 219.893Z" fill="#FE40B4"/>
<path d="M206.927 235.135C206.927 235.595 206.771 236.012 206.508 236.35H210.723V246.245C210.723 247.16 209.977 247.898 209.064 247.898H199.136V244.345C199.55 244.666 200.097 244.832 200.683 244.736C201.552 244.596 202.24 243.874 202.342 243.002C202.476 241.798 201.536 240.781 200.36 240.781C199.899 240.781 199.48 240.936 199.142 241.198V236.344H203.356C203.034 235.932 202.868 235.386 202.965 234.803C203.104 233.936 203.829 233.251 204.704 233.149C205.912 233.015 206.932 233.952 206.932 235.124L206.927 235.135Z" fill="#FE40B4"/>
<path d="M199.523 223.88C199.985 223.88 200.403 224.035 200.742 224.298V220.096H210.669C211.588 220.096 212.329 220.84 212.329 221.75V231.645H208.763C209.086 231.233 209.252 230.687 209.155 230.104C209.016 229.237 208.291 228.552 207.416 228.45C206.208 228.317 205.187 229.253 205.187 230.425C205.187 230.885 205.343 231.303 205.606 231.64H200.736V227.439C200.323 227.76 199.775 227.926 199.19 227.83C198.32 227.69 197.633 226.968 197.531 226.096C197.397 224.892 198.336 223.875 199.512 223.875L199.523 223.88Z" fill="#FDF001" stroke="#00124C" stroke-width="0.5" stroke-miterlimit="10"/>
<path d="M198.895 244.917C198.433 244.917 198.014 244.762 197.676 244.5V247.979H187.748C186.83 247.979 186.089 247.235 186.089 246.325V236.43H189.654C189.332 236.842 189.166 237.388 189.262 237.971C189.402 238.838 190.127 239.523 191.002 239.625C192.21 239.758 193.23 238.822 193.23 237.65C193.23 237.19 193.074 236.772 192.811 236.435H197.681V241.364C198.095 241.043 198.642 240.877 199.228 240.973C200.097 241.112 200.785 241.835 200.887 242.707C201.021 243.911 200.081 244.928 198.905 244.928L198.895 244.917Z" fill="#FDF001" stroke="#00124C" stroke-width="0.5" stroke-miterlimit="10"/>
<path d="M235.427 239.475L235.261 240.513L235.25 240.577C226.401 231.228 219.411 215.671 219.33 215.494C219.228 215.275 219.33 215.012 219.55 214.916C219.77 214.814 220.033 214.916 220.135 215.135C220.211 215.307 226.911 230.211 235.422 239.475H235.427Z" fill="#00124C"/>
<path d="M195.845 225.871C195.206 225.871 194.825 225.828 194.782 225.828C194.54 225.801 194.363 225.582 194.39 225.341C194.417 225.1 194.637 224.924 194.879 224.95C194.905 224.95 197.794 225.255 201.359 224.078C206.127 222.51 209.778 219.197 212.216 214.231C212.323 214.011 212.586 213.921 212.806 214.028C213.027 214.135 213.118 214.397 213.01 214.616C209.826 221.097 205.048 223.8 201.595 224.924C199.152 225.721 197.042 225.865 195.84 225.865L195.845 225.871Z" fill="#00124C"/>
<path d="M203.41 253.314C201.816 253.314 200.339 253.111 199.04 252.817C194.035 251.687 190.61 249.081 190.465 248.969C190.272 248.819 190.234 248.546 190.384 248.353C190.535 248.161 190.809 248.123 191.002 248.273C191.034 248.3 194.444 250.885 199.265 251.966C205.687 253.405 211.453 251.645 216.404 246.726C216.576 246.555 216.855 246.555 217.027 246.726C217.198 246.898 217.198 247.176 217.027 247.347C212.377 251.971 207.502 253.314 203.405 253.314H203.41Z" fill="#00124C"/>
<path d="M300.272 209.473C300.18 209.821 297.995 218.079 294.118 227.246C288.191 241.268 281.538 250.012 273.774 253.978C270.617 255.594 267.337 256.402 264.045 256.402C261.532 256.402 259.02 255.931 256.55 254.984C256.093 254.808 255.637 254.626 255.186 254.428C254.413 254.096 253.645 253.732 252.877 253.341C250.37 252.062 247.889 250.457 245.441 248.541C244.657 247.925 243.878 247.283 243.105 246.603C240.667 244.473 238.262 242.028 235.9 239.266C235.776 239.122 235.653 238.977 235.529 238.827C235.411 238.688 235.293 238.544 235.169 238.399C233.467 236.36 231.792 234.161 230.133 231.795C229.87 231.415 229.607 231.041 229.354 230.666C228.603 229.564 227.894 228.483 227.228 227.434C225.44 224.619 223.98 222.066 222.906 220.08C222.417 219.181 222.009 218.405 221.687 217.769C221.113 216.65 220.796 215.97 220.753 215.879C220.248 214.798 219.931 213.68 219.786 212.561C219.625 211.325 219.674 210.078 219.921 208.879C220.608 205.497 222.847 202.468 226.23 200.895C226.621 200.713 227.013 200.558 227.416 200.424C228.195 200.162 228.995 199.99 229.789 199.905C231.567 199.712 233.355 199.947 234.992 200.563C235.105 200.606 235.212 200.649 235.325 200.691C236.619 201.221 237.811 201.992 238.842 202.971C239.819 203.908 240.646 205.037 241.258 206.332C241.29 206.402 241.983 207.857 243.218 210.084C243.663 210.892 244.184 211.807 244.77 212.797C245.908 214.713 247.293 216.902 248.888 219.155C254.058 226.47 259.363 231.56 263.927 233.61C265.441 232.502 268.883 228.643 272.953 219.219C276.368 211.32 278.37 203.806 278.392 203.731C279.976 197.705 286.156 194.109 292.202 195.688C298.247 197.266 301.861 203.431 300.277 209.457L300.272 209.473Z" fill="#001E7D"/>
<path d="M194.239 127.844L194.921 125.618C196.414 120.748 203.356 120.817 204.752 125.714L205.391 127.951C206.374 131.403 210.53 132.794 213.408 130.632L215.271 129.23C219.351 126.164 224.925 130.284 223.164 135.069L222.358 137.252C221.118 140.624 223.658 144.183 227.26 144.119L229.596 144.076C234.702 143.985 236.785 150.589 232.544 153.425L230.605 154.72C227.615 156.722 227.572 161.089 230.52 163.144L232.431 164.476C236.619 167.398 234.407 173.954 229.301 173.762L226.965 173.676C223.368 173.542 220.753 177.053 221.929 180.446L222.691 182.645C224.356 187.462 218.702 191.47 214.68 188.323L212.844 186.884C210.014 184.668 205.832 185.974 204.779 189.41L204.097 191.636C202.605 196.506 195.662 196.437 194.266 191.54L193.627 189.303C192.645 185.851 188.489 184.46 185.611 186.622L183.748 188.024C179.667 191.09 174.094 186.97 175.855 182.185L176.661 180.002C177.901 176.63 175.361 173.071 171.758 173.135L169.423 173.178C164.317 173.269 162.233 166.665 166.475 163.829L168.413 162.534C171.404 160.532 171.447 156.165 168.499 154.11L166.588 152.778C162.4 149.856 164.612 143.3 169.718 143.492L172.054 143.578C175.651 143.712 178.266 140.201 177.09 136.808L176.328 134.609C174.663 129.792 180.317 125.784 184.339 128.931L186.175 130.37C189.004 132.586 193.187 131.28 194.239 127.844V127.844Z" fill="#FF9FDA"/>
<path d="M184.424 164.08C184.424 164.08 181.471 160.607 179.807 164.08C178.142 167.554 179.42 174.586 183.914 173.435L184.43 164.08H184.424Z" fill="#FFF983"/>
<path d="M191.877 181.912L191.485 191.374C191.485 191.374 196.946 199.765 212.071 189.742C209.204 186.552 209.096 180.489 210.256 176.812C210.256 176.812 209.145 177.208 207.335 178.273C206.981 178.482 206.557 178.616 206.127 178.792C202.347 180.376 196.656 182.276 191.872 181.907L191.877 181.912Z" fill="#FDF001"/>
<path d="M190.277 209.334C201.128 211.988 211.303 200.429 214.031 190.849C211.77 189.613 210.374 188.693 210.374 188.693L191.533 189.533C191.501 189.56 191.469 189.581 191.442 189.602C191.41 189.629 191.378 189.651 191.351 189.672C190.594 190.266 189.74 190.812 188.817 191.326C186.706 198.599 184.006 207.793 190.282 209.329L190.277 209.334Z" fill="#FDF001"/>
<path d="M191.877 181.912L191.689 186.397C195.802 185.482 203.195 183.25 207.335 178.273C206.959 178.439 206.557 178.615 206.127 178.792C202.347 180.376 196.656 182.276 191.872 181.907L191.877 181.912Z" fill="#FFF983"/>
<path d="M183.657 178.776C191.732 187.103 209.66 177.165 210.235 176.844C210.245 176.844 210.251 176.833 210.251 176.833C210.417 176.089 210.567 175.346 210.702 174.618C211.845 168.426 211.915 162.667 211.282 157.203C211.582 151.44 208.141 146.072 202.701 144.092C197.064 142.042 192.006 144.515 188.972 145.446C184.387 146.853 181.504 152.762 181.477 161.18C181.445 171.508 181.659 176.705 183.662 178.776H183.657Z" fill="#FDF001"/>
<path d="M194.873 157.739C194.873 157.739 193.198 157.904 193.783 159.435C194.374 160.966 197.735 159.28 200.14 162.1C200.14 162.1 201.166 158.429 194.868 157.739H194.873Z" fill="#00124C"/>
<path d="M206.739 172.499C206.793 172.616 208.205 175.881 210.235 176.839C210.24 176.833 210.245 176.828 210.245 176.828C210.412 176.084 210.562 175.34 210.696 174.612C210.621 174.602 208.57 174.243 206.739 172.493V172.499Z" fill="#FFF983"/>
<path d="M208.71 165.065C208.71 165.065 213.005 159.317 216.151 163.834C218.745 167.559 213.843 177.262 208.71 173.933V165.065Z" fill="#FDF001"/>
<path d="M187.174 136.744C179.667 137.852 176.628 146.987 181.767 152.558C182.798 153.671 183.904 154.458 184.945 154.356C185.128 154.34 185.294 154.303 185.439 154.244C188.425 153.109 191.689 153.142 194.433 154.774C195.582 155.459 196.699 155.887 197.665 155.86C201.961 155.721 197.311 148.657 197.311 148.657C197.311 148.657 201.832 158.006 206.079 159.328C210.326 160.65 208.382 153.81 208.382 153.81C208.382 153.81 209.145 162.384 211.84 162.973C216.28 163.947 215.577 151.654 208.865 144.739C204.651 140.399 194.771 135.625 187.174 136.749V136.744Z" fill="#FF9FDA"/>
<path d="M186.583 158.209C186.583 158.209 188.258 158.375 187.673 159.906C187.082 161.437 183.721 159.751 181.316 162.571C181.316 162.571 180.29 158.9 186.588 158.209H186.583Z" fill="#00124C"/>
<path d="M184.494 164.546C185.443 164.546 186.212 163.779 186.212 162.833C186.212 161.888 185.443 161.121 184.494 161.121C183.545 161.121 182.776 161.888 182.776 162.833C182.776 163.779 183.545 164.546 184.494 164.546Z" fill="#00124C"/>
<path d="M196.575 163.813C197.524 163.813 198.293 163.046 198.293 162.1C198.293 161.154 197.524 160.388 196.575 160.388C195.626 160.388 194.857 161.154 194.857 162.1C194.857 163.046 195.626 163.813 196.575 163.813Z" fill="#00124C"/>
<path d="M189.708 179.301C191.063 179.301 192.162 178.524 192.162 177.567C192.162 176.609 191.063 175.833 189.708 175.833C188.353 175.833 187.254 176.609 187.254 177.567C187.254 178.524 188.353 179.301 189.708 179.301Z" fill="#FF9FDA"/>
<path d="M185.439 176.796C190.11 178.915 192.264 177.058 196.097 174.58C196.14 174.548 196.205 174.602 196.178 174.65C194.825 177.588 191.227 179.017 188.161 178.166C187.157 177.893 186.229 177.443 185.391 176.887C185.337 176.849 185.386 176.764 185.445 176.796H185.439Z" fill="#00124C"/>
<path d="M184.355 172.001C185.224 172.001 185.928 171.299 185.928 170.433C185.928 169.567 185.224 168.865 184.355 168.865C183.486 168.865 182.781 169.567 182.781 170.433C182.781 171.299 183.486 172.001 184.355 172.001Z" fill="#FE40B4"/>
<path d="M197.74 170.433C198.609 170.433 199.313 169.731 199.313 168.865C199.313 167.999 198.609 167.297 197.74 167.297C196.871 167.297 196.167 167.999 196.167 168.865C196.167 169.731 196.871 170.433 197.74 170.433Z" fill="#FE40B4"/>
<path d="M190.229 165.67C190.712 168.041 189.949 170.77 187.898 172.167L187.796 171.883L190.771 172.044L187.796 172.204C187.646 172.215 187.571 172.006 187.694 171.921C188.527 171.15 189.139 170.176 189.359 169.116C189.595 168.057 189.466 166.949 189.176 165.895C188.999 165.177 190.089 164.937 190.229 165.67V165.67Z" fill="#00124C"/>
<path d="M111.419 161.18C111.419 161.18 106.694 149.529 112.02 141.089C114.801 136.685 119.027 135.872 121.792 135.877C123.634 135.877 125.465 135.599 127.172 134.914C130.265 133.677 135.682 132.313 141.036 134.855C147.785 138.06 156.091 148.839 148.155 161.41L145.959 159.499C145.959 159.499 140.74 143.755 132.788 144.809C124.836 145.868 121.035 162.699 121.035 162.699L111.419 161.185V161.18Z" fill="#5570C6"/>
<path d="M167.689 294.672H90.2155C87.2786 286.334 85.5872 278.344 84.7067 270.365C84.5295 268.775 84.3899 267.186 84.2771 265.596C83.2462 251.27 84.5563 236.745 85.7054 220.032C86.6987 205.572 91.9605 196.661 101.099 195.329C104.433 194.842 107.22 194.06 109.459 193.231C110.076 193.006 110.651 192.77 111.188 192.54C111.489 192.412 111.778 192.278 112.052 192.15C112.466 191.957 112.852 191.764 113.207 191.577C115.381 190.442 116.46 189.527 116.46 189.527H137.052C138.807 191.871 141.019 193.348 143.393 194.392C143.656 194.51 143.924 194.617 144.193 194.724C144.574 194.874 144.96 195.018 145.347 195.152C147.135 195.773 148.971 196.222 150.743 196.683C155.844 198.01 160.381 199.396 161.611 205.031C162.572 209.468 159.42 218.041 158.969 234.407C158.91 236.59 158.899 238.902 158.947 241.364C158.98 242.9 159.033 244.494 159.125 246.148C159.205 247.695 159.312 249.3 159.447 250.954C159.57 252.495 159.721 254.085 159.898 255.717C160.053 257.146 160.225 258.618 160.424 260.121C160.628 261.663 160.853 263.247 161.106 264.868C162.464 273.581 164.564 283.465 167.694 294.672H167.689Z" fill="#5570C6"/>
<path d="M135.876 215.841C132.423 215.841 128.724 214.98 124.874 213.289C118.254 210.372 113.395 205.914 113.346 205.871C113.169 205.705 113.158 205.427 113.325 205.251C113.491 205.074 113.77 205.063 113.948 205.229C113.996 205.272 118.759 209.639 125.25 212.497C133.878 216.291 141.299 215.751 147.312 210.897C147.5 210.741 147.779 210.773 147.935 210.961C148.091 211.148 148.059 211.426 147.871 211.582C144.402 214.38 140.418 215.815 136.026 215.847C135.972 215.847 135.924 215.847 135.87 215.847L135.876 215.841Z" fill="#00124C"/>
<path d="M131.178 199.899C126.378 199.899 120.788 196.11 120.482 195.896C120.283 195.757 120.23 195.484 120.369 195.286C120.509 195.088 120.783 195.034 120.981 195.173C121.073 195.237 130.41 201.569 134.759 197.838C134.941 197.678 135.221 197.699 135.382 197.887C135.543 198.069 135.521 198.347 135.333 198.507C134.158 199.519 132.708 199.899 131.178 199.899V199.899Z" fill="#00124C"/>
<path d="M167.689 294.672H92.8787L91.5471 288.999C91.5471 288.999 105.593 280.998 111.671 261.722C113.797 254.978 114.125 244.607 113.652 233.973C113.636 233.663 113.625 233.352 113.609 233.047C112.659 213.589 109.131 193.584 109.131 193.584C109.239 193.461 109.346 193.343 109.454 193.231C111.467 191.16 113.137 191.561 113.201 191.577C116.901 200.242 119.687 228.98 120.197 234.514C120.246 235.038 120.273 235.359 120.278 235.429C120.278 235.44 120.278 235.445 120.278 235.445C129.513 237.821 152.638 233.93 152.638 233.93C152.638 233.93 152.638 233.92 152.638 233.914C152.692 233.625 152.741 233.326 152.778 233.015V232.994C154.249 221.434 146.249 197.801 145.331 195.152C145.277 194.992 145.245 194.911 145.245 194.911C147.054 195.008 148.794 195.414 150.453 196.238C150.544 196.378 150.636 196.527 150.727 196.683C154.26 202.693 158.271 220.3 158.872 231.715C158.888 232.02 158.904 232.325 158.915 232.619C158.942 233.235 158.953 233.834 158.953 234.407C158.894 236.59 158.883 238.902 158.931 241.364C158.963 242.9 159.017 244.495 159.108 246.148C159.189 247.695 159.296 249.3 159.431 250.954C159.554 252.495 159.704 254.085 159.882 255.717C160.037 257.146 160.209 258.618 160.408 260.121C160.612 261.663 160.837 263.247 161.09 264.868C162.448 273.581 164.547 283.466 167.678 294.672H167.689Z" fill="#FF9FDA"/>
<path d="M148.816 284.193C147.012 284.193 145.175 284.043 143.301 283.744C138.689 283.011 133.862 281.368 128.971 278.868C120.649 274.619 114.909 269.278 114.85 269.225C114.673 269.059 114.662 268.78 114.828 268.604C114.995 268.427 115.274 268.416 115.451 268.582C115.505 268.636 121.175 273.907 129.39 278.098C136.933 281.946 148.236 285.644 159.253 281.421C159.479 281.335 159.737 281.448 159.823 281.673C159.908 281.897 159.796 282.154 159.57 282.24C156.182 283.54 152.579 284.193 148.81 284.193H148.816Z" fill="#00124C"/>
<path d="M146.84 287.303C146.781 287.11 146.598 286.987 146.399 286.987C142.845 287.067 139.462 286.725 136.52 286.222C127.424 284.67 120.439 281.325 120.369 281.293C120.149 281.186 119.886 281.277 119.779 281.496C119.671 281.715 119.763 281.978 119.983 282.085C120.052 282.117 127.135 285.51 136.348 287.089C139.854 287.688 143.226 287.956 146.426 287.886C146.727 287.881 146.931 287.586 146.845 287.303H146.84Z" fill="#00124C"/>
<path d="M157.992 199.487L167.195 202.398C167.195 202.398 164.891 204.4 163.613 208.697C162.276 213.203 160.419 217.902 160.419 217.902C160.419 217.902 159.237 201.868 157.992 199.492V199.487Z" fill="#5570C6"/>
<path d="M80.1643 250.836C80.0301 250.836 79.8959 250.772 79.8099 250.654C79.665 250.456 79.7079 250.183 79.9066 250.039C92.7767 240.614 105.137 226.459 105.26 226.315C105.421 226.133 105.7 226.111 105.883 226.272C106.066 226.433 106.087 226.711 105.926 226.893C105.802 227.037 93.378 241.267 80.4274 250.751C80.3469 250.809 80.2556 250.836 80.1643 250.836V250.836Z" fill="#00124C"/>
<path d="M99.1768 233.936C98.9513 233.936 98.758 233.764 98.7365 233.534C98.715 233.293 98.8922 233.079 99.1338 233.053L108.208 232.212C108.449 232.186 108.664 232.368 108.691 232.608C108.713 232.849 108.535 233.063 108.294 233.09L99.2197 233.93C99.2197 233.93 99.1929 233.93 99.1768 233.93V233.936Z" fill="#00124C"/>
<path d="M58.0108 259.763C56.2443 259.763 54.4671 259.554 52.7113 259.126C49.2052 258.28 45.7259 256.584 42.3701 254.09C37.7472 250.654 33.1404 245.511 28.6732 238.806C21.6717 228.295 17.0649 217.078 16.8716 216.607C14.5198 210.838 17.3011 204.261 23.0892 201.916C28.8772 199.572 35.476 202.345 37.8278 208.114C37.8546 208.183 41.1084 216.066 45.9783 223.933C52.1422 233.887 56.6094 236.836 57.941 237.195C60.4699 236.167 67.1654 232.346 78.1133 218.485C84.7819 210.046 89.4585 202.366 89.5068 202.286C92.7391 196.955 99.6977 195.254 105.04 198.475C110.388 201.697 112.095 208.633 108.863 213.958C108.643 214.322 103.408 222.911 95.8909 232.432C84.943 246.293 75.1333 254.759 65.9036 258.307C63.3747 259.281 60.7061 259.768 58.0162 259.768L58.0108 259.763Z" fill="#5570C6"/>
<path d="M111.671 192.46C111.671 192.46 109.727 188.901 107.139 189.886C104.551 190.871 102.704 197.132 102.205 199.369C101.706 201.612 106.007 198.315 106.941 196.105C107.875 193.895 109.137 193.589 109.137 193.589L111.671 192.46Z" fill="#FDF001"/>
<path d="M102.849 194.762C102.849 194.762 100.906 191.203 98.3178 192.187C95.7244 193.172 93.8828 199.434 93.3835 201.671C92.8841 203.908 97.1849 200.616 98.1191 198.406C99.0534 196.19 100.315 195.891 100.315 195.891L102.849 194.762Z" fill="#FDF001"/>
<path d="M98.3983 195.339C98.3983 195.339 96.6802 192.193 94.3929 193.065C92.1056 193.932 90.4733 199.466 90.033 201.446C89.5928 203.426 93.3942 200.514 94.2157 198.561C95.0372 196.608 96.154 196.34 96.154 196.34L98.393 195.345L98.3983 195.339Z" fill="#FDF001"/>
<path d="M107.37 193.787C107.37 193.787 105.427 190.229 102.839 191.213C100.251 192.198 98.4037 198.459 97.9043 200.696C97.405 202.939 101.706 199.642 102.64 197.432C103.574 195.222 104.836 194.917 104.836 194.917L107.37 193.787Z" fill="#FDF001"/>
<path d="M137.052 184.358V189.538C136.445 190.025 135.827 190.453 135.215 190.823C126.195 196.222 116.466 189.538 116.466 189.538V171.583L134.603 182.832L137.057 184.358H137.052Z" fill="#FDF001"/>
<path d="M137.052 184.358V189.538C136.445 190.025 135.827 190.453 135.215 190.823C127.537 187.794 121.943 179.761 121.943 179.761L134.598 182.838L137.052 184.363V184.358Z" fill="#FFF983"/>
<path d="M143.543 161.41C143.543 161.41 146.496 157.936 148.161 161.41C149.825 164.883 148.547 171.915 144.053 170.764L143.538 161.41H143.543Z" fill="#FFF983"/>
<path d="M146.689 173.596C146.689 173.596 146.705 184.299 135.532 184.278C124.428 184.256 116.863 175.565 116.471 175.164C116.466 175.158 116.46 175.153 116.46 175.153L116.337 172.905L115.703 161.228L115.365 154.988C115.365 154.988 113.948 143.749 124.665 141.7C132.493 140.201 139.838 141.496 143.543 145.569C143.661 145.703 143.779 145.836 143.887 145.976C145.052 147.404 145.798 149.149 145.997 151.21L146.346 162.421L146.432 165.167L146.695 173.601L146.689 173.596Z" fill="#FDF001"/>
<path d="M114.64 157.888C114.64 157.888 115.591 163.251 118.152 164.54H123.247C123.247 164.54 119.483 157.476 122.361 154.608C125.755 151.231 123.596 146.746 123.596 146.746C123.596 146.746 135.86 142.518 140.391 146.746C144.923 150.974 144.193 159.242 144.193 159.242L148.155 161.41C148.155 161.41 149.073 143.813 141.959 140.287C134.85 136.765 118.614 138.879 115.301 144.75C111.988 150.621 114.635 157.888 114.635 157.888H114.64Z" fill="#5570C6"/>
<path d="M125.341 156.978C125.91 158.231 127.376 158.798 128.643 158.257C129.384 157.942 130.254 157.631 131.172 157.428C132.477 157.144 133.282 155.839 132.928 154.559C132.928 154.559 127.725 154.083 125.341 156.978V156.978Z" fill="#5570C6"/>
<path d="M145.965 156.978C145.395 158.231 143.93 158.798 142.662 158.257C141.922 157.942 141.052 157.631 140.134 157.428C138.829 157.144 138.023 155.839 138.378 154.559C138.378 154.559 143.581 154.083 145.965 156.978V156.978Z" fill="#5570C6"/>
<path d="M119.967 170.818C119.918 170.936 118.501 174.205 116.471 175.163L116.461 175.153L116.337 172.905C116.337 172.905 118.098 172.605 119.967 170.823V170.818Z" fill="#FFF983"/>
<path d="M118.001 163.384C118.001 163.384 113.706 157.637 110.56 162.154C107.966 165.878 112.868 175.581 118.001 172.252V163.384V163.384Z" fill="#FDF001"/>
<path d="M86.5376 277.632C87.751 283.476 89.3779 289.347 91.0316 294.677H23.6744L22.1227 285.151L21.9777 284.268L17.9454 259.479L14.5037 238.308L14.1117 235.911L13.1721 230.115C10.3801 209.773 11.5345 198.716 21.8596 196.458C25.8221 195.591 29.6933 194.028 32.8182 192.53C34.0317 191.946 35.1377 191.368 36.0881 190.849C37.0277 190.336 37.876 189.886 38.5418 189.538C39.4761 189.051 40.056 188.757 40.056 188.757L58.5853 189.533C58.6175 189.56 58.6497 189.581 58.6765 189.602C59.7665 190.475 61.0659 191.24 62.4887 191.952C63.4766 192.45 64.5237 192.92 65.5975 193.391C66.113 193.616 66.6391 193.841 67.1707 194.066C69.0821 194.879 71.0473 195.698 72.9104 196.629C73.8823 197.116 74.8273 197.625 75.7185 198.181C76.6689 198.77 77.5709 199.412 78.3871 200.118C79.9764 201.488 81.2596 203.099 82.0596 205.079C84.5939 211.368 86.2047 219.245 88.186 227.053C89.0128 230.318 89.9041 233.566 90.9511 236.681C94.1243 246.095 84.9429 254.952 84.9429 254.952C84.6583 256.862 84.5349 258.912 84.5402 261.058C84.5402 261.909 84.5671 262.776 84.6154 263.659C84.6852 265.088 84.8087 266.554 84.9751 268.042C85.0718 268.904 85.1845 269.771 85.308 270.643C85.5174 272.093 85.759 273.554 86.0275 275.026C86.1886 275.893 86.3604 276.76 86.5376 277.627V277.632Z" fill="#FF9FDA"/>
<path d="M79.1441 205.17H26.3053V207.771H79.1441V205.17Z" fill="#E6D7CF"/>
<path d="M84.6154 263.659H26.3053V261.058H84.5402C84.5402 261.909 84.5671 262.776 84.6154 263.659Z" fill="#E6D7CF"/>
<path d="M85.308 270.648H26.3053V268.047H84.9751C85.0718 268.909 85.1845 269.776 85.308 270.648Z" fill="#E6D7CF"/>
<path d="M92.8786 294.672H75.8796C75.8796 294.672 67.8257 267.245 66.4619 246.635C65.0981 226.021 59.3101 206.573 59.3101 206.573C59.3101 206.573 60.4376 205.743 61.6457 204.106C61.737 203.982 61.8282 203.854 61.9195 203.72C63.584 201.307 65.2485 197.378 64.1853 192.011C64.1853 192.011 77.7212 196.003 81.716 204.352C85.7053 212.7 90.4893 233.818 92.0142 239.882C93.539 245.94 86.1939 253.18 85.6033 257.526C85.0127 261.866 92.884 294.672 92.884 294.672H92.8786Z" fill="#001E7D"/>
<path d="M79.6059 294.672H78.8596C73.9896 280.03 68.717 250.232 68.0137 239.63C67.262 228.295 62.2954 206.904 61.6404 204.105C61.5974 203.918 61.5706 203.816 61.5706 203.8L61.9142 203.72L62.2578 203.64C62.3169 203.875 67.917 227.444 68.7224 239.582C69.4258 250.216 74.7413 280.201 79.6059 294.672V294.672Z" fill="#00124C"/>
<path d="M83.7766 224.966L69.6429 225.806L69.779 228.081L83.9126 227.242L83.7766 224.966Z" fill="#5570C6"/>
<path d="M66.4566 294.672H22.4395C22.4395 294.672 19.0085 288.967 17.9025 284.161C16.7964 279.355 19.626 258.762 16.0232 247.679C12.4205 236.596 13.7467 203.704 15.336 199.846C16.9253 195.987 19.9159 196.303 23.7335 195.537C27.5457 194.767 36.5767 190.175 36.5767 190.175L47.9649 203.174L48.4643 203.747L52.7489 208.638C52.7489 208.638 56.9584 226.839 56.9584 238.495C56.9584 250.157 66.4513 294.667 66.4513 294.667L66.4566 294.672Z" fill="#001E7D"/>
<path d="M63.1706 294.672H62.435C57.7423 279.254 54.016 252.019 53.3019 238.522C52.4804 223.034 47.6695 203.453 47.6212 203.255L47.9648 203.169L48.3085 203.089C48.3085 203.089 48.3729 203.335 48.4696 203.742C49.3125 207.29 53.2697 224.527 54.0106 238.485C54.7301 252.014 58.4725 279.393 63.1706 294.672V294.672Z" fill="#00124C"/>
<path d="M48.5344 227.1L34.4008 227.94L34.5368 230.215L48.6705 229.376L48.5344 227.1Z" fill="#5570C6"/>
<path d="M76.6528 198.968L89.6142 202.414L84.1268 211.121L76.6528 198.968Z" fill="#001E7D"/>
<path d="M41.5862 179.113C41.5862 179.113 29.2584 174.457 29.5215 160.912C29.7846 147.367 37.323 138.125 51.2723 139.971C51.2723 139.971 55.6751 178.353 41.5808 179.113H41.5862Z" fill="#FF9FDA"/>
<path d="M69.6029 150.128C69.6029 150.128 72.4594 161.297 70.6284 163.245C68.7975 165.193 66.0968 161.014 66.0968 161.014C66.0968 161.014 67.4284 150.578 69.6029 150.134V150.128Z" fill="#FF9FDA"/>
<path d="M66.4567 164.915C66.4567 164.915 69.4097 161.442 71.0742 164.915C72.7441 168.388 71.4608 175.421 66.9667 174.27L66.4513 164.915H66.4567Z" fill="#FFF64F"/>
<path d="M59.0041 182.747V192.327C59.0041 192.327 53.9355 200.6 38.8103 190.577C41.6775 187.387 41.7634 181.227 40.6036 177.551C40.6036 177.551 41.7097 178.294 43.546 179.108C43.9218 179.274 44.3245 179.45 44.7541 179.627C48.534 181.211 54.2254 183.111 59.0094 182.742L59.0041 182.747Z" fill="#FDF001"/>
<path d="M38.8103 190.576C38.8103 190.576 51.1059 210.217 57.694 207.643C64.282 205.063 59.0041 191.042 59.0041 191.042L38.8103 190.582V190.576Z" fill="#FDF001"/>
<path d="M59.0041 187.232C59.0041 187.232 67.6271 191.866 65.5063 199.225C63.3854 206.583 59.3048 206.573 59.3048 206.573C59.3048 206.573 59.5142 198.342 59.0041 196.239C58.8269 196.281 58.8001 191.55 59.0041 187.226V187.232Z" fill="#5570C6"/>
<path d="M65.3022 199.899C65.3022 199.899 69.807 196.865 68.4217 193.209C67.0364 189.554 63.2565 190.17 63.2565 190.17C63.2565 190.17 66.2901 196.506 65.1894 200.22" fill="#5570C6"/>
<path d="M59.0041 182.747V187.232C54.8913 186.317 47.6803 184.085 43.546 179.108C43.9219 179.274 44.3246 179.45 44.7541 179.627C48.5341 181.211 54.2255 183.111 59.0095 182.742L59.0041 182.747Z" fill="#FFF983"/>
<path d="M67.2244 179.611C59.1491 187.938 41.2211 178 40.6466 177.679C40.6359 177.679 40.6305 177.668 40.6305 177.668C40.4641 176.924 40.3137 176.181 40.1795 175.453C39.0359 169.261 38.9661 163.502 39.5996 158.038C39.299 152.275 42.7407 146.907 48.1797 144.927C53.8174 142.877 58.8753 145.35 61.9089 146.281C66.4942 147.688 69.3775 153.596 69.4044 162.015C69.4366 172.343 69.2218 177.54 67.2191 179.611H67.2244Z" fill="#FDF001"/>
<path d="M56.4806 156.545C56.4806 156.545 58.1558 156.711 57.5706 158.242C56.98 159.772 53.6188 158.086 51.2134 160.907C51.2134 160.907 50.1879 157.236 56.486 156.545H56.4806Z" fill="#00124C"/>
<path d="M63.9117 156.545C63.9117 156.545 62.2365 156.711 62.8217 158.242C63.4123 159.772 66.7735 158.086 69.1789 160.907C69.1789 160.907 70.2044 157.236 63.9063 156.545H63.9117Z" fill="#00124C"/>
<path d="M61.2109 177.679C62.314 177.679 63.2082 176.955 63.2082 176.063C63.2082 175.17 62.314 174.447 61.2109 174.447C60.1078 174.447 59.2135 175.17 59.2135 176.063C59.2135 176.955 60.1078 177.679 61.2109 177.679Z" fill="#FF9FDA"/>
<path d="M56.792 173.713C58.886 175.362 61.329 176.234 63.9922 175.993C64.862 175.94 65.7425 175.811 66.6714 175.71C63.5519 177.925 58.5585 177.353 56.7974 173.719L56.792 173.713Z" fill="#00124C"/>
<path d="M44.1421 173.333C44.0884 173.451 42.6763 176.716 40.6467 177.674L40.636 177.663C40.4695 176.919 40.3192 176.175 40.1849 175.447C40.2601 175.437 42.3112 175.078 44.1421 173.328V173.333Z" fill="#FFF983"/>
<path d="M42.1715 165.9C42.1715 165.9 37.8761 160.152 34.7297 164.669C32.1364 168.394 37.017 178.305 42.2681 174.682L42.1715 165.9Z" fill="#FDF001"/>
<path d="M61.5813 142.513C65.721 143.68 69.2486 146.447 71.2084 150.262C72.438 152.655 73.646 155.871 70.0325 155.967C67.0687 156.048 64.3894 155.266 62.0914 154.137C57.9947 152.119 53.1946 152.692 49.4253 155.272C48.3354 156.015 46.9501 156.497 45.2051 156.497C37.4304 156.497 36.8183 150.744 40.6573 146.864C43.7876 143.707 52.3945 139.923 61.5813 142.513V142.513Z" fill="#FF9FDA"/>
<path d="M44.4319 153.505C44.4319 153.505 40.7916 158.777 43.0896 163.534C45.3877 168.292 46.091 180.954 44.8668 183.871C44.8668 183.871 43.6641 169.999 41.1406 166.306C39.0734 163.272 37.221 161.003 37.8009 157.064C38.1982 154.362 39.7231 151.595 44.4266 153.5L44.4319 153.505Z" fill="#FF9FDA"/>
<path d="M95.558 248.803H83.6758C82.543 248.803 81.6248 249.718 81.6248 250.847V277.172C81.6248 278.301 82.543 279.216 83.6758 279.216H95.558C96.6907 279.216 97.609 278.301 97.609 277.172V250.847C97.609 249.718 96.6907 248.803 95.558 248.803Z" fill="#00124C" stroke="url(#paint0_linear_431_1239)" stroke-miterlimit="10"/>
<path d="M1.1289 261.834C1.32219 265.596 2.25107 268.7 3.67392 271.194C7.87805 278.606 16.3615 280.656 22.4448 278.671C23.2073 278.424 23.9321 278.114 24.6033 277.739C28.6463 275.508 36.6787 275.112 45.7259 275.652C55.004 276.203 64.1854 269.749 64.1854 269.749C61.6887 268.272 64.1854 257.184 64.1854 257.184C60.3518 253.833 48.8991 258.141 41.699 255.225C35.0357 252.528 23.7603 252.843 23.7603 252.843C26.6114 250.264 28.0664 242.541 27.6154 236.414C27.1805 230.43 29.6289 225.94 32.6088 213.894C35.5888 201.847 24.9308 195.532 17.7628 198.256C10.5895 200.986 5.48873 220.091 4.65113 231.624C3.81352 243.151 0.291294 245.49 1.1289 261.829V261.834Z" fill="#001E7D"/>
<path d="M59.3799 273.233C56.4967 270.359 55.1758 266.426 55.557 261.855C55.847 258.425 56.9691 255.883 57.0175 255.776C57.0819 255.637 57.2161 255.54 57.3665 255.53C57.549 255.514 61.8176 255.187 64.4109 256.836C64.5613 256.932 64.6364 257.114 64.5935 257.29C64.572 257.376 62.3814 266.121 64.5398 269.53C64.6579 269.717 64.6096 269.963 64.427 270.092L59.9222 273.276C59.8471 273.329 59.7665 273.351 59.6806 273.351C59.5732 273.351 59.4658 273.308 59.3853 273.228L59.3799 273.233ZM63.7022 257.387C61.6726 256.263 58.5853 256.306 57.6886 256.343C57.0873 257.858 54.0697 266.426 59.7289 272.388L63.6324 269.626C61.7961 266.11 63.3317 258.966 63.7022 257.381V257.387Z" fill="#00124C"/>
<path d="M64.9424 259.56C65.1143 259.56 65.2753 259.453 65.3344 259.281C65.4149 259.062 65.2968 258.826 65.082 258.746C64.8834 258.677 60.2282 257.039 56.5933 257.665C56.3677 257.703 56.212 257.922 56.2496 258.147C56.2872 258.377 56.5073 258.527 56.7329 258.489C60.1584 257.901 64.7491 259.517 64.7975 259.533C64.8458 259.549 64.8941 259.56 64.9371 259.56H64.9424Z" fill="#00124C"/>
<path d="M65.4472 262.733C65.6459 262.733 65.8231 262.589 65.8607 262.391C65.9036 262.166 65.7479 261.947 65.5224 261.904C65.2486 261.856 58.8055 260.726 56.1155 261.465C55.89 261.524 55.7611 261.754 55.8255 261.979C55.8846 262.203 56.1209 262.332 56.341 262.268C58.8431 261.577 65.313 262.712 65.3774 262.723C65.4043 262.723 65.4258 262.728 65.4526 262.728L65.4472 262.733Z" fill="#00124C"/>
<path d="M56.2228 266.297C56.2818 266.297 56.3409 266.287 56.3946 266.26C59.4336 264.869 64.5021 265.398 64.5505 265.404C64.7813 265.43 64.9854 265.265 65.0122 265.034C65.0391 264.804 64.8726 264.601 64.6417 264.574C64.427 264.553 59.2993 264.012 56.0456 265.5C55.8362 265.596 55.7449 265.843 55.8415 266.051C55.9113 266.206 56.0617 266.297 56.2228 266.297V266.297Z" fill="#00124C"/>
<path d="M57.3879 270.247C57.4577 270.247 57.5275 270.231 57.592 270.194C60.1692 268.738 64.9854 267.635 65.0337 267.625C65.2592 267.571 65.3988 267.352 65.3505 267.127C65.2968 266.902 65.0767 266.763 64.8512 266.811C64.6472 266.859 59.8631 267.951 57.1839 269.466C56.9799 269.578 56.9101 269.835 57.0282 270.033C57.1033 270.167 57.2483 270.247 57.3933 270.247H57.3879Z" fill="#00124C"/>
<path d="M26.1442 251.912C26.3322 251.912 26.504 251.784 26.5523 251.596C26.5684 251.532 28.1577 245.083 28.1094 239.213C28.104 238.308 28.0825 237.43 28.0664 236.58C27.9644 231.838 27.8785 228.092 29.8759 225.234C32.4585 221.531 33.9726 215.275 32.99 212.369C32.9149 212.149 32.6786 212.031 32.4585 212.106C32.2383 212.181 32.1202 212.417 32.1954 212.636C33.092 215.291 31.5994 221.295 29.1832 224.758C27.0355 227.84 27.1214 231.897 27.2235 236.596C27.2396 237.441 27.261 238.319 27.2664 239.218C27.3147 244.982 25.7469 251.329 25.7308 251.393C25.6771 251.618 25.8113 251.843 26.0368 251.901C26.0691 251.912 26.1066 251.912 26.1389 251.912H26.1442Z" fill="#001E7D"/>
<path d="M28.8665 226.534C28.8665 226.534 28.888 226.534 28.8987 226.534C31.1377 226.363 34.0639 224.26 34.1874 224.169C34.3754 224.035 34.4183 223.773 34.2787 223.586C34.1445 223.398 33.8814 223.355 33.6935 223.495C33.6666 223.516 30.8316 225.55 28.8289 225.705C28.598 225.721 28.4262 225.924 28.4423 226.154C28.4584 226.374 28.641 226.54 28.8611 226.54L28.8665 226.534Z" fill="#00124C"/>
<path d="M22.5308 278.071L22.6704 278.906C23.3469 278.671 24.0449 278.408 24.7536 278.13C31.0249 275.652 37.9674 275.797 45.9998 275.968C46.8857 275.984 47.7877 276.005 48.7059 276.022C58.1289 276.193 64.223 270.301 64.4807 270.049C64.6472 269.889 64.6472 269.621 64.4807 269.46C64.3197 269.294 64.0512 269.294 63.8848 269.46C63.8257 269.519 57.7799 275.358 48.7112 275.192C47.7985 275.176 46.8964 275.155 46.0105 275.138C37.8868 274.967 30.8692 274.817 24.4368 277.359C23.7872 277.616 23.1482 277.857 22.52 278.077L22.5308 278.071Z" fill="#00124C"/>
<path d="M15.1534 259.806C15.2983 259.806 15.4433 259.731 15.5185 259.592C18.0742 255.086 26.2033 252.217 26.2838 252.19C26.504 252.116 26.6167 251.875 26.5415 251.661C26.4664 251.441 26.2248 251.329 26.01 251.404C25.6664 251.522 17.4997 254.401 14.7936 259.185C14.6809 259.388 14.7507 259.64 14.9547 259.752C15.0191 259.79 15.0889 259.806 15.1587 259.806H15.1534Z" fill="#00124C"/>
<path d="M23.7496 253.202C23.9106 253.202 24.0664 253.105 24.1362 252.945C24.2274 252.731 24.1254 252.49 23.916 252.399C21.8005 251.505 16.7212 251.928 16.5064 251.95C16.2756 251.971 16.1037 252.174 16.1252 252.399C16.1467 252.629 16.3454 252.8 16.5762 252.779C16.6246 252.779 21.6663 252.351 23.5885 253.164C23.6422 253.186 23.6959 253.196 23.7496 253.196V253.202Z" fill="#00124C"/>
<path d="M62.9719 266.592C63.3907 267.86 64.6417 269.321 65.9626 270.493C67.7022 272.04 71.3909 271.66 73.399 272.211C76.4165 273.035 84.8301 277.14 87.0262 275.754C89.2222 274.373 81.5764 272.099 80.0193 271.601C78.4622 271.103 77.587 270.194 77.587 270.194C77.587 270.194 92.7927 274.02 94.4089 272.73C96.025 271.441 88.7765 268.262 86.3013 267.48C86.3013 267.48 94.8277 269.803 95.5955 268.658C97.1365 266.367 87.1711 263.37 87.1711 263.37C87.1711 263.37 95.0532 264.639 95.2035 262.728C95.3592 260.71 86.6503 259.389 86.6503 259.389C86.6503 259.389 92.8357 257.045 93.7162 255.455C94.5968 253.871 79.9173 255.3 77.4206 255.503C74.9239 255.707 68.1425 255.701 64.9693 256.509C62.8108 257.061 61.6457 262.567 62.9665 266.587L62.9719 266.592Z" fill="#FDF001"/>
<path d="M3.66858 271.194C7.8727 278.606 16.3561 280.656 22.4395 278.67C19.7334 274.988 13.0111 267.732 3.96926 271.082C3.86724 271.119 3.7706 271.157 3.67395 271.194H3.66858Z" fill="#5570C6"/>
<path d="M41.0009 185.739C41.0009 185.739 43.6909 193.766 51.7394 195.537C53.7797 199.846 54.3059 207.402 52.7542 208.644C52.7542 208.644 45.7151 206.102 41.0009 200.118C36.2867 194.135 36.0827 190.855 36.0827 190.855C36.0827 190.855 35.8142 185.262 41.0009 185.739Z" fill="#5570C6"/>
<path d="M19.1427 193.199C19.1427 193.199 17.8272 196.292 17.7198 196.977C17.7198 196.977 22.1495 200.836 28.8664 199.6C35.5834 198.369 43.5513 202.447 43.5513 202.447C43.5513 202.447 39.8251 189.372 34.4075 188.762C28.9845 188.152 19.1481 193.199 19.1481 193.199H19.1427Z" fill="#5570C6"/>
<path d="M316.712 251.093C316.712 252.164 316.701 253.229 316.68 254.294C316.658 255.45 316.621 256.6 316.578 257.751C316.084 269.947 314.119 281.871 309.227 294.677H230.412C234.563 280.314 237.355 268.064 239.212 257.612C239.422 256.434 239.615 255.284 239.803 254.154C239.98 253.068 240.152 252.003 240.308 250.96C240.485 249.782 240.651 248.626 240.802 247.502C240.963 246.314 241.113 245.158 241.247 244.024C241.392 242.841 241.521 241.69 241.634 240.567C242.037 236.697 242.289 233.176 242.439 229.96C243.191 213.953 241.344 205.599 241.918 201.071C242.579 195.837 245.784 194.023 249.768 192.599C250.558 192.316 251.379 192.048 252.217 191.775C256.265 190.448 260.7 188.928 263.975 184.545H283.493C283.493 184.545 286.483 187.087 292.55 188.976C293.689 189.335 294.934 189.661 296.293 189.95C297.173 190.138 298.097 190.304 299.069 190.448C299.101 190.448 299.139 190.459 299.171 190.464C308.492 191.823 313.861 200.916 314.876 215.671C315.101 218.999 315.338 222.242 315.563 225.416C315.638 226.518 315.713 227.61 315.789 228.697C316.068 232.796 316.309 236.788 316.476 240.695C316.524 241.856 316.567 243.007 316.605 244.152C316.642 245.319 316.669 246.48 316.685 247.631C316.707 248.787 316.718 249.943 316.712 251.088V251.093Z" fill="#FF9FDA"/>
<path d="M316.605 244.158L241.253 244.024C241.398 242.841 241.526 241.691 241.639 240.567L316.476 240.7C316.524 241.862 316.567 243.012 316.605 244.158Z" fill="#001E7D"/>
<path d="M316.712 251.093L240.308 250.954C240.485 249.777 240.651 248.621 240.802 247.497L316.68 247.636C316.701 248.792 316.712 249.948 316.707 251.093H316.712Z" fill="#001E7D"/>
<path d="M316.685 254.294C316.664 255.45 316.626 256.6 316.583 257.751L239.218 257.612C239.427 256.434 239.62 255.284 239.808 254.155L316.685 254.294Z" fill="#001E7D"/>
<path d="M296.234 287.945C292.277 287.945 288.32 287.292 284.411 285.986C278.682 284.07 273.033 280.763 267.616 276.15C258.413 268.31 252.99 259.276 252.936 259.19C252.813 258.982 252.882 258.709 253.092 258.586C253.301 258.463 253.575 258.532 253.699 258.741C253.752 258.832 259.111 267.753 268.206 275.497C276.566 282.609 289.887 290.166 305.904 285.735C306.14 285.671 306.382 285.81 306.446 286.04C306.511 286.275 306.371 286.516 306.14 286.58C302.843 287.49 299.536 287.945 296.228 287.945H296.234Z" fill="#00124C"/>
<path d="M282.757 292.151C282.757 292.151 282.746 292.151 282.741 292.151C274.29 291.857 267.326 286.666 262.977 282.358C258.284 277.713 255.529 273.067 255.503 273.024C255.379 272.816 255.449 272.543 255.658 272.42C255.868 272.297 256.142 272.366 256.265 272.575C256.292 272.623 258.998 277.183 263.616 281.748C267.852 285.938 274.617 290.985 282.773 291.268C283.015 291.279 283.208 291.482 283.197 291.723C283.186 291.959 282.993 292.146 282.757 292.146V292.151Z" fill="#00124C"/>
<path d="M285.2 231.148C285.2 231.148 285.189 231.148 285.184 231.148C276.749 231.763 269.269 227.348 264.475 223.532C259.304 219.417 256.066 215.098 256.034 215.055C255.889 214.862 255.932 214.584 256.125 214.44C256.324 214.295 256.598 214.338 256.743 214.531C256.775 214.573 259.959 218.817 265.044 222.858C269.71 226.567 276.98 230.864 285.119 230.27C285.361 230.254 285.576 230.436 285.592 230.677C285.608 230.912 285.436 231.121 285.2 231.148V231.148Z" fill="#00124C"/>
<path d="M270.741 195.752C270.418 195.752 270.096 195.73 269.785 195.687C266.612 195.243 265.205 192.712 265.146 192.605C265.028 192.391 265.108 192.123 265.323 192.005C265.538 191.888 265.806 191.968 265.919 192.182C265.935 192.214 267.192 194.44 269.919 194.815C272.947 195.232 276.743 193.21 280.888 188.971C281.06 188.794 281.339 188.794 281.511 188.966C281.688 189.137 281.688 189.415 281.517 189.586C277.511 193.681 273.887 195.752 270.735 195.752H270.741Z" fill="#00124C"/>
<path d="M269.624 204.7C274.902 204.7 279.632 201.435 283.31 195.254C286.048 190.646 287.229 186.119 287.278 185.926C287.353 185.642 287.181 185.353 286.897 185.284C286.612 185.209 286.322 185.38 286.252 185.664C286.242 185.707 285.055 190.255 282.386 194.729C278.864 200.638 274.574 203.635 269.624 203.635C267.127 203.635 265.189 202.8 263.852 201.151C260.088 196.506 262.101 186.911 262.123 186.814C262.182 186.531 262.005 186.247 261.715 186.188C261.43 186.129 261.146 186.306 261.087 186.595C260.995 187.007 258.95 196.784 263.025 201.815C264.571 203.72 266.789 204.689 269.618 204.689L269.624 204.7Z" fill="#00124C"/>
<path d="M245.838 194.44L231.164 197.443C231.164 197.443 233.677 198.727 234.987 200.568C234.987 200.568 240.018 202.88 242.031 207.895C242.031 207.895 242.139 198.01 245.838 194.435V194.44Z" fill="#FF9FDA"/>
<path d="M263.981 180.703V185.883C264.587 186.37 265.205 186.798 265.817 187.168C274.837 192.567 284.566 185.883 284.566 185.883V167.928L266.429 179.177L263.975 180.703H263.981Z" fill="#FDF001"/>
<path d="M263.981 180.703V185.883C264.587 186.37 265.205 186.798 265.817 187.167C273.495 184.138 279.09 176.105 279.09 176.105L266.434 179.183L263.981 180.708V180.703Z" fill="#FFF983"/>
<path d="M261.36 137.761C261.36 137.761 250.337 139.714 254.869 152.804C254.869 152.804 261.65 141.18 261.36 137.761V137.761Z" fill="#5570C6"/>
<path d="M257.489 157.755C257.489 157.755 254.536 154.281 252.872 157.755C251.202 161.228 252.485 168.26 256.979 167.109L257.495 157.755H257.489Z" fill="#FDF001"/>
<path d="M254.338 169.935C254.338 169.935 254.321 180.638 265.495 180.617C276.598 180.596 284.164 171.904 284.556 171.503C284.561 171.498 284.566 171.492 284.566 171.492L284.69 169.245L285.323 157.567L285.662 151.327C285.662 151.327 287.079 140.089 276.362 138.039C268.534 136.54 261.189 137.836 257.484 141.908C256.12 143.412 255.25 145.29 255.03 147.549L254.681 158.761L254.595 161.506L254.332 169.94L254.338 169.935Z" fill="#FDF001"/>
<path d="M257.489 141.903C257.57 142.278 257.731 142.604 257.978 142.861C260.147 145.13 265.28 144.327 270.032 142.861C274.789 141.4 278.123 144.836 278.123 144.836C276.802 149.374 281.28 149.738 280.325 153.179C279.369 156.62 279.739 161.153 279.739 161.153L282.531 160.789C283.133 159.173 284.572 157.45 287.745 156.765C291.004 157.364 291.192 150.61 289.517 145.264C289.517 145.264 287.085 140.084 276.368 138.034C268.539 136.535 261.194 137.83 257.495 141.903H257.489Z" fill="#5570C6"/>
<path d="M291.89 145.285C291.89 145.285 273.785 138.157 261.414 137.739C261.092 137.729 260.77 137.723 260.453 137.723C259.164 137.713 257.946 137.793 256.829 137.964C256.829 137.964 259.186 131.66 267.648 129.808C268.609 129.594 269.656 129.444 270.784 129.364C272.271 129.262 273.898 129.284 275.691 129.471C275.75 129.471 275.809 129.482 275.868 129.487C276.335 129.541 276.792 129.599 277.232 129.674C278.59 129.894 279.825 130.21 280.948 130.6C281.243 130.702 281.527 130.809 281.801 130.921C283.874 131.756 285.528 132.853 286.832 134.079C287.262 134.48 287.654 134.892 288.013 135.31C291.885 139.843 291.885 145.296 291.885 145.296L291.89 145.285Z" fill="#001E7D"/>
<path d="M292.137 144.456C292.137 144.456 280.292 134.726 265.092 135.475H265.087C265.055 135.475 265.028 135.475 264.995 135.481C263.573 135.556 262.123 135.722 260.646 135.995C247.862 137.547 240.614 138.986 241.253 143.3C241.961 148.089 257.489 141.903 257.489 141.903L268.528 140.667C274.972 141.287 282.95 143.439 290.392 149.294C290.392 149.294 293.184 148.041 292.148 144.456H292.137Z" fill="#FF9FDA"/>
<path d="M274.751 150.931C274.504 149.802 273.559 147.678 269.935 147.517C269.495 147.496 269.092 147.79 268.979 148.213C268.834 148.748 269.173 149.299 269.72 149.395C270.681 149.567 272.077 150.091 272.877 151.654C273.124 152.141 273.753 152.296 274.22 152.007L274.327 151.937C274.671 151.723 274.843 151.317 274.757 150.921L274.751 150.931Z" fill="#5570C6"/>
<path d="M256.174 150.931C256.421 149.802 257.366 147.678 260.99 147.517C261.43 147.496 261.833 147.79 261.946 148.213C262.091 148.748 261.752 149.299 261.205 149.395C260.244 149.567 258.848 150.091 258.048 151.654C257.801 152.141 257.172 152.296 256.705 152.007L256.598 151.937C256.254 151.723 256.082 151.317 256.168 150.921L256.174 150.931Z" fill="#5570C6"/>
<path d="M257.972 159.301C258.981 159.301 259.798 158.487 259.798 157.482C259.798 156.477 258.981 155.662 257.972 155.662C256.964 155.662 256.147 156.477 256.147 157.482C256.147 158.487 256.964 159.301 257.972 159.301Z" fill="#00222E"/>
<path d="M269.726 159.269C270.725 159.269 271.535 158.462 271.535 157.466C271.535 156.47 270.725 155.662 269.726 155.662C268.726 155.662 267.916 156.47 267.916 157.466C267.916 158.462 268.726 159.269 269.726 159.269Z" fill="#00124C"/>
<path d="M281.06 167.163C281.109 167.281 282.526 170.55 284.556 171.508C284.561 171.503 284.566 171.498 284.566 171.498L284.69 169.25C284.69 169.25 282.929 168.95 281.06 167.168V167.163Z" fill="#FFF983"/>
<path d="M283.031 159.724C283.031 159.724 287.326 153.976 290.473 158.493C293.066 162.218 288.164 171.921 283.031 168.592V159.724V159.724Z" fill="#FDF001"/>
<path d="M286.392 167.757C286.938 167.757 287.38 167.316 287.38 166.772C287.38 166.228 286.938 165.788 286.392 165.788C285.846 165.788 285.404 166.228 285.404 166.772C285.404 167.316 285.846 167.757 286.392 167.757Z" fill="#001E7D"/>
<path d="M248.329 155.662L254.853 155.887V156.791H254.842L248.302 156.561C248.055 156.55 247.857 156.342 247.867 156.096C247.878 155.849 248.077 155.646 248.335 155.662H248.329Z" fill="white"/>
<path d="M265.087 155.4C265.087 151.199 268.518 147.779 272.732 147.779C276.947 147.779 280.378 151.199 280.378 155.4C280.378 159.601 276.947 163.021 272.732 163.021C268.518 163.021 265.087 159.601 265.087 155.4V155.4ZM265.994 155.4C265.994 159.103 269.017 162.116 272.732 162.116C276.448 162.116 279.471 159.103 279.471 155.4C279.471 151.696 276.448 148.683 272.732 148.683C269.017 148.683 265.994 151.696 265.994 155.4V155.4Z" fill="white"/>
<path d="M247.03 155.4C247.03 151.199 250.461 147.779 254.676 147.779C258.891 147.779 262.322 151.199 262.322 155.4C262.322 159.601 258.891 163.021 254.676 163.021C250.461 163.021 247.03 159.601 247.03 155.4V155.4ZM247.937 155.4C247.937 159.103 250.96 162.116 254.676 162.116C258.391 162.116 261.414 159.103 261.414 155.4C261.414 151.696 258.391 148.683 254.676 148.683C250.96 148.683 247.937 151.696 247.937 155.4Z" fill="white"/>
<path d="M289.367 156.989C289.42 156.989 289.474 156.979 289.528 156.957C289.758 156.866 289.877 156.609 289.791 156.374C287.777 151.124 279.761 153.816 279.68 153.842C279.444 153.923 279.321 154.18 279.401 154.415C279.482 154.651 279.739 154.774 279.976 154.693C280.051 154.667 287.246 152.258 288.948 156.695C289.017 156.877 289.189 156.984 289.372 156.984L289.367 156.989Z" fill="white"/>
<path d="M261.817 154.217C261.935 154.217 262.053 154.174 262.139 154.083C263.395 152.815 265.296 153.891 265.312 153.901C265.527 154.024 265.806 153.955 265.93 153.735C266.053 153.521 265.983 153.243 265.763 153.12C264.893 152.617 262.885 152.039 261.489 153.446C261.312 153.623 261.317 153.907 261.489 154.083C261.575 154.169 261.693 154.212 261.806 154.212L261.817 154.217Z" fill="white"/>
<path d="M264.008 151.343C263.991 154.875 262.467 158.092 261.747 161.49C261.527 162.56 261.146 163.722 261.275 164.792L260.947 164.551C262.488 164.273 265.253 165.263 265.71 166.836C265.731 166.965 265.608 167.206 265.489 167.168C265.484 167.157 265.489 167.141 265.489 167.136C265.672 166.97 265.565 166.74 265.42 166.574C264.228 165.413 262.365 164.883 260.738 165.156L260.705 164.872C260.603 162.464 261.983 160.388 262.429 158.081C262.912 155.865 263.283 153.355 264.002 151.338L264.008 151.343Z" fill="#00124C"/>
<path d="M265.226 177.631C265.991 177.631 266.612 176.962 266.612 176.138C266.612 175.313 265.991 174.645 265.226 174.645C264.461 174.645 263.841 175.313 263.841 176.138C263.841 176.962 264.461 177.631 265.226 177.631Z" fill="#FF9FDA"/>
<path d="M270.51 172.552C269.076 177.229 263.154 176.962 259.728 174.693C259.696 174.682 259.707 174.628 259.744 174.645C263.723 176.239 268.163 176.651 270.504 172.557L270.51 172.552Z" fill="#00124C"/>
<path d="M342.984 260.866C342.968 261.235 342.941 261.61 342.909 261.979C342.871 262.348 342.812 262.728 342.753 263.097L342.656 263.654C342.619 263.841 342.576 264.023 342.533 264.205C342.442 264.569 342.345 264.938 342.243 265.297C342.13 265.65 342.007 266.003 341.878 266.351C341.813 266.522 341.749 266.704 341.679 266.87L341.459 267.368C340.868 268.711 340.133 269.862 339.36 270.911C338.973 271.403 338.565 271.917 338.162 272.34C337.958 272.554 337.754 272.778 337.545 272.987L336.927 273.576C335.274 275.106 333.636 276.177 332.063 277.065C330.49 277.948 328.965 278.623 327.488 279.222C326.747 279.522 326.017 279.784 325.292 280.035C324.573 280.292 323.859 280.522 323.15 280.742C321.732 281.17 320.347 281.555 318.967 281.892C316.213 282.572 313.512 283.075 310.838 283.498C308.164 283.91 305.512 284.231 302.876 284.483C300.239 284.745 297.619 284.948 294.999 285.087C292.379 285.232 289.769 285.312 287.154 285.371C284.54 285.419 281.925 285.414 279.262 285.355C274.902 285.259 271.444 281.657 271.535 277.311C271.626 273.1 275.02 269.728 279.203 269.61H279.262C281.608 269.546 283.997 269.396 286.376 269.209C288.76 269.022 291.138 268.77 293.512 268.465C295.879 268.165 298.231 267.817 300.556 267.411C302.881 266.999 305.168 266.522 307.407 265.987C309.641 265.447 311.826 264.842 313.877 264.146C314.903 263.798 315.907 263.44 316.846 263.033C317.313 262.83 317.775 262.632 318.216 262.418C318.656 262.204 319.075 261.984 319.472 261.759C320.095 261.417 320.653 261.053 321.126 260.694C321.265 260.593 321.394 260.491 321.512 260.389L321.534 260.373L321.271 259.817L320.798 258.821C320.551 258.302 320.31 257.783 320.036 257.253C319.499 256.194 318.978 255.139 318.43 254.074L316.755 250.879C315.606 248.744 314.479 246.598 313.292 244.452L312.411 242.841L311.515 241.236L310.264 238.977L309.732 238.014L309.082 236.847L307.933 234.792L306.113 231.576C304.905 229.43 303.686 227.278 302.462 225.138L295.138 212.299L295.09 212.219C292.003 206.803 293.904 199.921 299.332 196.843C304.712 193.793 311.547 195.634 314.677 200.938L316.615 204.229L318.505 207.509C319.139 208.601 319.751 209.704 320.374 210.801C320.991 211.898 321.614 213 322.221 214.103C323.445 216.308 324.653 218.523 325.861 220.744L327.649 224.089L327.886 224.538L329.421 227.45C330.012 228.568 330.597 229.697 331.177 230.827L332.047 232.523L332.433 233.294L332.906 234.23C334.055 236.499 335.188 238.801 336.305 241.113L337.953 244.623C338.495 245.806 339.032 247.01 339.569 248.204C339.838 248.792 340.101 249.418 340.364 250.039L341.148 251.896L341.346 252.362L341.395 252.48L341.421 252.538L341.459 252.635L341.62 253.047C341.722 253.325 341.824 253.598 341.926 253.876C341.974 254.01 342.023 254.165 342.066 254.315L342.2 254.765C342.286 255.07 342.377 255.359 342.452 255.675C342.522 255.996 342.592 256.322 342.656 256.643L342.748 257.13C342.774 257.296 342.796 257.473 342.817 257.644C342.86 257.986 342.903 258.334 342.936 258.677C342.968 259.03 342.973 259.399 342.984 259.758C342.995 260.122 343 260.48 342.979 260.855L342.984 260.866Z" fill="#FDF001"/>
<path d="M291.01 204.903C292.529 194.51 305.19 190.207 313.018 197.239C314.892 198.92 316.82 201.167 318.672 204.154C326.973 217.533 329.781 221.68 329.781 221.68L306.011 235.969C306.011 235.969 289.893 214.279 290.951 205.326C290.967 205.187 290.983 205.047 291.004 204.908L291.01 204.903Z" fill="#FF9FDA"/>
<path d="M307.273 237.982C307.155 237.982 307.042 237.939 306.956 237.848C301.818 232.55 291.917 213.3 291.498 212.486C291.385 212.272 291.471 212.005 291.691 211.892C291.906 211.78 292.175 211.865 292.287 212.085C292.389 212.283 302.548 232.031 307.595 237.238C307.767 237.414 307.762 237.693 307.584 237.859C307.498 237.939 307.386 237.982 307.278 237.982H307.273Z" fill="#00124C"/>
<path d="M295.23 219.01C295.165 219.01 295.106 218.994 295.042 218.967L289.613 216.441C289.393 216.34 289.297 216.077 289.399 215.858C289.501 215.638 289.764 215.542 289.984 215.644L295.412 218.17C295.632 218.271 295.729 218.534 295.627 218.753C295.552 218.914 295.391 219.01 295.224 219.01H295.23Z" fill="#00124C"/>
<path d="M332.922 265.489C332.836 265.564 332.729 265.607 332.621 265.607C332.503 265.607 332.385 265.559 332.294 265.463C329.555 262.508 323.944 261.197 321.131 260.705C321.271 260.603 321.399 260.502 321.518 260.4L321.539 260.384L321.276 259.827C321.528 259.87 321.808 259.918 322.103 259.977C324.175 258.628 329.212 257.885 329.432 257.852C329.673 257.815 329.899 257.981 329.931 258.222C329.969 258.463 329.802 258.687 329.561 258.719C329.512 258.725 325.679 259.292 323.451 260.261C326.511 260.972 330.618 262.348 332.943 264.858C333.11 265.04 333.099 265.318 332.916 265.484L332.922 265.489Z" fill="#00222E"/>
<path d="M290.532 188.436C290.532 188.436 293.018 185.246 295.316 186.793C297.614 188.34 297.979 194.853 297.952 197.148C297.925 199.444 294.489 195.259 294.086 192.894C293.683 190.528 292.524 189.945 292.524 189.945L290.532 188.436V188.436Z" fill="#FDF001"/>
<path d="M298.333 191.24C298.333 191.24 301.002 188.184 303.316 189.699C305.635 191.219 306.081 197.726 306.081 200.022C306.081 202.318 302.596 198.176 302.161 195.816C301.727 193.456 300.561 192.888 300.561 192.888L298.328 191.24H298.333Z" fill="#FDF001"/>
<path d="M302.58 194.087C302.58 194.087 304.97 191.417 306.999 192.781C309.029 194.146 309.351 199.899 309.329 201.927C309.308 203.956 306.269 200.258 305.915 198.165C305.56 196.073 304.535 195.564 304.535 195.564L302.58 194.087Z" fill="#FDF001"/>
<path d="M294.199 190.534C294.199 190.534 296.905 187.51 299.203 189.057C301.501 190.603 301.866 197.116 301.839 199.412C301.812 201.708 298.376 197.523 297.973 195.158C297.571 192.792 296.411 192.209 296.411 192.209L294.199 190.534V190.534Z" fill="#FDF001"/>
<path d="M266.902 257.745H253.124C252.335 257.745 251.696 258.383 251.696 259.169V289.176C251.696 289.962 252.335 290.599 253.124 290.599H266.902C267.69 290.599 268.33 289.962 268.33 289.176V259.169C268.33 258.383 267.69 257.745 266.902 257.745Z" fill="#00124C"/>
<path d="M281.978 274.844C281.56 273.576 280.309 272.115 278.988 270.943C277.248 269.396 273.559 269.776 271.551 269.225C268.534 268.401 260.12 264.296 257.924 265.682C255.728 267.063 263.374 269.337 264.931 269.835C266.488 270.332 267.363 271.242 267.363 271.242C267.363 271.242 252.158 267.416 250.541 268.706C248.925 269.995 256.174 273.174 258.649 273.956C258.649 273.956 250.123 271.633 249.355 272.778C247.814 275.069 257.779 278.066 257.779 278.066C257.779 278.066 249.897 276.797 249.747 278.708C249.591 280.725 258.3 282.047 258.3 282.047C258.3 282.047 252.115 284.391 251.234 285.981C250.353 287.565 265.033 286.136 267.53 285.933C270.026 285.729 276.808 285.735 279.981 284.927C282.139 284.375 283.305 278.868 281.984 274.849L281.978 274.844Z" fill="#FDF001"/>
<path d="M287.987 268.706C287.987 268.706 290.118 278.21 287.928 285.451H283.901C283.901 285.451 286.172 278.002 283.901 268.706H287.987Z" fill="#5570C6"/>
<path d="M55.3959 164.053C56.1817 164.053 56.8187 163.418 56.8187 162.635C56.8187 161.852 56.1817 161.217 55.3959 161.217C54.6101 161.217 53.973 161.852 53.973 162.635C53.973 163.418 54.6101 164.053 55.3959 164.053Z" fill="#00124C"/>
<path d="M66.6714 163.781C67.3059 163.781 67.8204 163.268 67.8204 162.635C67.8204 162.003 67.3059 161.49 66.6714 161.49C66.0368 161.49 65.5223 162.003 65.5223 162.635C65.5223 163.268 66.0368 163.781 66.6714 163.781Z" fill="#00124C"/>
<path d="M49.9515 170.449C50.5268 170.449 50.9932 169.984 50.9932 169.411C50.9932 168.837 50.5268 168.372 49.9515 168.372C49.3763 168.372 48.9099 168.837 48.9099 169.411C48.9099 169.984 49.3763 170.449 49.9515 170.449Z" fill="#FE40B4"/>
<path d="M67.5144 170.449C67.9799 170.449 68.3573 170.073 68.3573 169.609C68.3573 169.144 67.9799 168.768 67.5144 168.768C67.0488 168.768 66.6714 169.144 66.6714 169.609C66.6714 170.073 67.0488 170.449 67.5144 170.449Z" fill="#FE40B4"/>
<path d="M61.0389 164.61C63.1866 165.9 66.9934 169.352 63.0256 170.963C62.945 170.995 62.8591 171 62.7786 170.979C62.0322 170.802 61.3342 170.524 60.6416 170.379C59.9758 170.235 59.3154 170.219 58.5906 170.486C58.5637 170.497 58.5315 170.486 58.5208 170.454C59.4604 169.031 61.694 169.394 63.0309 169.93H62.7088C65.1572 169.448 63.4014 167.147 62.3759 166.06C61.941 165.579 61.4577 165.14 60.9745 164.69C60.9262 164.653 60.9852 164.567 61.0389 164.605V164.61Z" fill="#00124C"/>
<path d="M141.449 254.7C141.642 254.577 141.857 254.481 142.029 254.342C142.249 254.16 142.517 254.165 142.764 254.106C143.027 254.042 143.274 254.155 143.511 254.245C144.101 254.47 144.429 254.957 144.606 255.519C144.751 255.979 144.703 256.456 144.542 256.916C144.305 257.601 144.074 258.286 143.838 258.966C143.742 259.239 143.634 259.506 143.538 259.774C143.403 260.148 143.285 260.528 143.146 260.898C143.076 261.074 143.119 261.213 143.231 261.347C143.672 261.856 144.123 262.359 144.552 262.872C144.917 263.306 145.288 263.739 145.615 264.205C146.104 264.89 146.587 265.591 146.942 266.356C147.103 266.699 147.21 267.063 147.344 267.421C147.355 267.453 147.36 267.486 147.377 267.512C147.586 267.93 147.597 268.385 147.645 268.834C147.704 269.375 147.666 269.904 147.505 270.418C147.339 270.953 147.081 271.456 146.77 271.927C146.442 272.42 146.077 272.891 145.717 273.356C145.428 273.731 145.127 274.09 144.821 274.448C144.622 274.684 144.413 274.914 144.193 275.122C143.983 275.32 143.758 275.497 143.538 275.684C143.436 275.77 143.344 275.872 143.237 275.952C143.001 276.123 142.759 276.289 142.512 276.455C142.26 276.626 142.018 276.803 141.755 276.958C141.529 277.092 141.293 277.204 141.052 277.301C140.703 277.445 140.343 277.584 139.983 277.697C139.639 277.804 139.29 277.879 138.941 277.948C138.678 278.002 138.405 278.034 138.082 278.082C137.717 278.018 137.315 277.943 136.907 277.873C136.246 277.761 135.677 277.45 135.151 277.065C134.077 276.273 133.03 275.454 132.171 274.421C131.763 273.929 131.403 273.405 131.124 272.821C130.888 272.329 130.786 271.815 130.753 271.291C130.727 270.82 130.866 270.375 131.199 270.012C131.5 269.69 131.822 269.385 132.273 269.337C132.584 269.305 132.901 269.369 133.218 269.391C133.282 269.391 133.39 269.401 133.4 269.38C133.427 269.316 133.427 269.23 133.4 269.166C133.25 268.834 133.304 268.481 133.298 268.138C133.293 267.785 133.406 267.469 133.578 267.18C133.835 266.758 134.184 266.399 134.673 266.271C134.984 266.19 135.323 266.223 135.65 266.206C135.682 266.206 135.715 266.217 135.747 266.217C136.074 266.233 136.101 266.18 136.037 265.864C135.881 265.104 136.047 264.424 136.59 263.852C136.681 263.755 136.788 263.664 136.896 263.579C137.239 263.284 137.653 263.226 138.088 263.258C138.131 263.258 138.179 263.236 138.227 263.226C138.217 263.172 138.217 263.103 138.184 263.065C138.045 262.883 137.889 262.712 137.749 262.535C137.143 261.759 136.536 260.983 135.94 260.202C135.564 259.71 135.21 259.206 134.85 258.703C134.582 258.323 134.388 257.906 134.217 257.467C134.029 256.991 133.98 256.504 134.109 256.028C134.184 255.739 134.356 255.46 134.533 255.214C134.845 254.775 135.306 254.551 135.817 254.427C136.064 254.369 136.311 254.411 136.552 254.502C137.094 254.695 137.562 254.995 137.986 255.369C138.179 255.535 138.345 255.733 138.517 255.921C138.582 255.99 138.598 256.108 138.662 256.177C138.909 256.434 139.178 256.675 139.425 256.932C139.564 257.077 139.677 257.248 139.811 257.398C139.854 257.446 139.951 257.483 140.015 257.467C140.064 257.456 140.117 257.36 140.117 257.301M138.174 277.21C138.716 277.268 139.269 277.06 139.822 276.888C140.397 276.706 140.966 276.487 141.47 276.139C141.943 275.813 142.426 275.508 142.872 275.154C143.296 274.812 143.677 274.421 144.069 274.047C144.585 273.554 144.998 272.971 145.395 272.382C145.83 271.74 146.206 271.05 146.593 270.375C146.781 270.038 146.877 269.658 146.856 269.278C146.829 268.861 146.764 268.443 146.668 268.037C146.539 267.496 146.335 266.977 146.072 266.485C145.513 265.457 144.821 264.521 144.074 263.627C143.495 262.926 142.899 262.241 142.303 261.556C141.524 260.651 140.74 259.752 139.956 258.853C139.403 258.216 138.861 257.569 138.292 256.948C137.76 256.365 137.256 255.744 136.509 255.396C136.219 255.262 135.962 255.198 135.65 255.38C134.984 255.765 134.727 256.284 134.931 257.012C135.054 257.451 135.253 257.869 135.521 258.243C135.806 258.645 136.101 259.035 136.396 259.431C136.81 259.988 137.213 260.55 137.642 261.096C138.12 261.7 138.625 262.284 139.119 262.878C139.494 263.327 139.87 263.777 140.246 264.221C140.536 264.564 140.837 264.895 141.127 265.238C141.562 265.746 141.991 266.255 142.426 266.758C142.587 266.94 142.636 267.154 142.587 267.384C142.571 267.459 142.501 267.56 142.437 267.577C142.233 267.625 142.023 267.614 141.873 267.443C141.503 267.02 141.143 266.581 140.772 266.158C140.305 265.623 139.849 265.072 139.355 264.564C138.893 264.087 138.313 263.943 137.658 264.135C137.186 264.275 136.933 264.633 136.842 265.056C136.745 265.505 136.805 265.971 137.041 266.388C137.433 267.079 137.943 267.689 138.469 268.283C138.796 268.658 139.167 268.995 139.511 269.353C139.645 269.492 139.666 269.781 139.57 269.899C139.457 270.033 139.172 270.081 139.006 269.963C138.807 269.819 138.625 269.653 138.458 269.471C137.959 268.941 137.476 268.395 136.982 267.866C136.794 267.662 136.59 267.464 136.364 267.298C135.994 267.02 135.559 267.036 135.124 267.052C134.813 267.063 134.598 267.207 134.415 267.421C133.991 267.924 134.039 268.508 134.211 269.08C134.351 269.541 134.646 269.931 134.963 270.279C135.419 270.782 135.924 271.237 136.396 271.724C136.536 271.869 136.66 272.029 136.762 272.2C136.864 272.372 136.805 272.575 136.649 272.709C136.504 272.837 136.364 272.773 136.23 272.687C136.166 272.645 136.096 272.612 136.037 272.564C135.86 272.409 135.698 272.232 135.516 272.088C134.866 271.553 134.211 271.023 133.556 270.488C133.073 270.097 132.391 270.076 131.929 270.45C131.704 270.632 131.564 270.884 131.553 271.173C131.537 271.628 131.655 272.061 131.854 272.463C132.047 272.837 132.284 273.19 132.525 273.544C132.923 274.127 133.422 274.619 133.953 275.074C134.415 275.476 134.904 275.85 135.382 276.23C136.182 276.862 137.073 277.247 138.174 277.215V277.21ZM143.876 256.151C143.838 255.894 143.785 255.664 143.65 255.444C143.339 254.936 142.791 254.834 142.372 255.016C142.077 255.145 141.846 255.375 141.658 255.648C141.358 256.076 141.197 256.568 141.041 257.055C140.939 257.376 140.853 257.703 140.735 258.013C140.654 258.227 140.676 258.404 140.821 258.575C141.089 258.885 141.363 259.19 141.626 259.501C141.846 259.763 142.061 260.031 142.281 260.298C142.303 260.325 142.362 260.352 142.389 260.341C142.431 260.325 142.474 260.282 142.491 260.239C142.636 259.827 142.775 259.41 142.92 258.992C143.167 258.291 143.43 257.596 143.672 256.895C143.752 256.654 143.806 256.408 143.87 256.161L143.876 256.151Z" fill="#00124C"/>
<path d="M138.184 277.204C137.084 277.231 136.192 276.851 135.392 276.219C134.909 275.84 134.426 275.465 133.964 275.064C133.433 274.603 132.933 274.116 132.536 273.533C132.3 273.185 132.058 272.832 131.865 272.452C131.661 272.056 131.543 271.617 131.564 271.162C131.575 270.873 131.714 270.622 131.94 270.44C132.402 270.065 133.084 270.086 133.567 270.477C134.222 271.007 134.877 271.537 135.527 272.077C135.709 272.227 135.87 272.398 136.047 272.554C136.101 272.602 136.176 272.639 136.241 272.677C136.375 272.762 136.515 272.827 136.66 272.698C136.815 272.559 136.874 272.361 136.772 272.19C136.67 272.018 136.547 271.858 136.407 271.713C135.935 271.226 135.43 270.771 134.974 270.268C134.657 269.921 134.362 269.53 134.222 269.07C134.05 268.497 134.002 267.914 134.426 267.411C134.603 267.197 134.823 267.047 135.135 267.041C135.575 267.031 136.01 267.015 136.375 267.288C136.595 267.453 136.799 267.651 136.992 267.855C137.492 268.385 137.975 268.93 138.469 269.46C138.635 269.637 138.818 269.808 139.017 269.953C139.183 270.07 139.462 270.022 139.58 269.888C139.677 269.776 139.656 269.482 139.521 269.343C139.178 268.984 138.813 268.642 138.48 268.272C137.954 267.678 137.443 267.073 137.052 266.378C136.815 265.96 136.756 265.489 136.853 265.045C136.944 264.622 137.196 264.264 137.669 264.125C138.324 263.932 138.904 264.077 139.366 264.553C139.86 265.061 140.316 265.612 140.783 266.148C141.154 266.57 141.513 267.009 141.884 267.432C142.034 267.603 142.244 267.614 142.448 267.566C142.512 267.55 142.587 267.448 142.598 267.373C142.646 267.143 142.598 266.934 142.437 266.747C142.002 266.244 141.572 265.73 141.138 265.227C140.848 264.885 140.547 264.553 140.257 264.21C139.876 263.766 139.505 263.317 139.129 262.867C138.635 262.273 138.131 261.69 137.653 261.085C137.223 260.544 136.821 259.977 136.407 259.421C136.112 259.025 135.817 258.634 135.532 258.232C135.269 257.858 135.065 257.44 134.941 257.002C134.737 256.279 135 255.76 135.661 255.369C135.972 255.187 136.23 255.252 136.52 255.385C137.266 255.733 137.771 256.354 138.303 256.937C138.872 257.558 139.414 258.206 139.967 258.843C140.751 259.742 141.535 260.641 142.313 261.545C142.909 262.23 143.505 262.915 144.085 263.616C144.832 264.515 145.524 265.447 146.083 266.474C146.351 266.966 146.55 267.486 146.679 268.026C146.775 268.433 146.845 268.85 146.867 269.268C146.888 269.648 146.791 270.033 146.603 270.365C146.222 271.044 145.846 271.729 145.406 272.372C145.009 272.955 144.595 273.538 144.08 274.036C143.688 274.411 143.301 274.801 142.883 275.144C142.437 275.502 141.954 275.807 141.481 276.129C140.976 276.476 140.407 276.696 139.833 276.878C139.28 277.049 138.721 277.258 138.184 277.199V277.204Z" fill="#FDF001" stroke="#00124C" stroke-width="0.5" stroke-miterlimit="10"/>
<path d="M143.887 256.145C143.822 256.392 143.768 256.643 143.688 256.879C143.446 257.58 143.183 258.275 142.936 258.976C142.791 259.388 142.652 259.806 142.507 260.223C142.491 260.266 142.448 260.309 142.405 260.325C142.378 260.336 142.319 260.309 142.297 260.282C142.077 260.02 141.862 259.747 141.642 259.485C141.379 259.174 141.105 258.869 140.837 258.559C140.692 258.393 140.67 258.211 140.751 257.997C140.869 257.681 140.95 257.355 141.057 257.039C141.218 256.552 141.379 256.06 141.674 255.632C141.862 255.359 142.099 255.129 142.389 255C142.807 254.818 143.355 254.92 143.666 255.428C143.801 255.648 143.854 255.878 143.892 256.135L143.887 256.145Z" fill="#FDF001" stroke="#00124C" stroke-miterlimit="10"/>
<path d="M142.496 246.523C142.346 246.255 142.125 246.036 141.857 245.886C140.88 245.335 140.037 246.384 139.355 246.908C138.668 246.384 137.524 245.335 136.536 245.908C136.289 246.047 136.085 246.255 135.945 246.502C135.365 247.502 135.521 248.509 136.069 249.199L138.7 253.737C138.931 254.197 139.511 254.197 139.741 253.796L142.56 248.931C142.576 248.899 142.593 248.872 142.603 248.84C142.619 248.803 142.63 248.765 142.646 248.728C142.931 248.096 142.936 247.315 142.496 246.534V246.523Z" fill="#FF9FDA" stroke="#00124C" stroke-miterlimit="10"/>
<path d="M156.488 146.901C156.488 145.098 155.436 143.54 153.916 142.791C156.767 140.8 158.534 137.359 158.12 133.538C157.61 128.839 153.728 125.099 149.003 124.729C145.723 124.472 142.754 125.805 140.767 128.026C139.935 127.207 138.797 126.704 137.54 126.704C136.026 126.704 134.689 127.437 133.851 128.561C132.874 126.731 130.936 125.479 128.708 125.479C125.631 125.479 123.118 127.86 122.904 130.868C122.308 130.584 121.642 130.423 120.938 130.423C119.161 130.423 117.62 131.43 116.858 132.901C115.268 132.361 113.513 132.19 111.666 132.564C107.392 133.431 104.106 137.038 103.708 141.368C103.317 145.601 105.593 149.342 109.046 151.134C107.241 151.755 105.947 153.457 105.947 155.464C105.947 157.995 108.004 160.045 110.544 160.045C110.624 160.045 110.705 160.034 110.785 160.034C111.333 160.88 112.154 161.533 113.126 161.875C113.872 163.395 115.435 164.439 117.25 164.439C117.255 164.439 117.266 164.439 117.271 164.439C117.255 164.583 117.25 164.733 117.25 164.883C117.25 168.485 128.842 168.934 125.212 168.238C121.583 167.543 125.459 160.302 121.846 160.302C121.84 160.302 121.83 160.302 121.824 160.302C121.84 160.157 121.846 160.008 121.846 159.858C121.846 157.862 120.557 156.165 118.769 155.539C118.023 154.019 116.46 152.975 114.646 152.975C114.565 152.975 114.485 152.981 114.404 152.986C114.232 152.724 114.039 152.478 113.819 152.253C119.252 152.162 123.628 147.752 123.628 142.315C123.628 141.175 123.424 140.083 123.07 139.066C124.235 138.456 125.1 137.37 125.411 136.064C126.351 136.712 127.484 137.086 128.713 137.086C130.941 137.086 132.874 135.839 133.857 134.004C134.694 135.128 136.031 135.861 137.546 135.861C137.803 135.861 138.056 135.834 138.303 135.791C138.866 140.651 142.947 144.44 147.946 144.568C147.543 145.248 147.307 146.04 147.307 146.891C147.307 148.287 147.935 149.534 148.923 150.375C147.656 151.188 146.818 152.606 146.818 154.222C146.818 154.522 146.85 154.816 146.904 155.1C144.864 155.705 143.414 157.68 143.64 159.954C143.865 162.229 145.798 164 148.069 164.069C150.673 164.15 152.805 162.068 152.805 159.488C152.805 159.189 152.773 158.894 152.719 158.611C154.62 158.049 156.01 156.299 156.01 154.222C156.01 152.826 155.382 151.579 154.394 150.738C155.661 149.925 156.499 148.507 156.499 146.891L156.488 146.901Z" fill="#5570C6"/>
<path d="M131.253 163.368C132.222 163.368 133.008 162.585 133.008 161.618C133.008 160.652 132.222 159.868 131.253 159.868C130.283 159.868 129.497 160.652 129.497 161.618C129.497 162.585 130.283 163.368 131.253 163.368Z" fill="#00124C"/>
<path d="M140.912 163.24C141.882 163.24 142.668 162.456 142.668 161.49C142.668 160.523 141.882 159.74 140.912 159.74C139.942 159.74 139.156 160.523 139.156 161.49C139.156 162.456 139.942 163.24 140.912 163.24Z" fill="#00124C"/>
<path d="M128.321 163.534C130.281 164.583 132.257 164.573 134.238 163.534" stroke="#00124C" stroke-linecap="round" stroke-linejoin="round"/>
<path d="M137.954 163.368C139.913 164.417 141.889 164.407 143.871 163.368" stroke="#00124C" stroke-linecap="round" stroke-linejoin="round"/>
<path d="M136.284 166.055C135.988 167.682 136.284 169.609 137.76 170.583C138.233 170.904 138.743 171.161 139.248 171.412C139.419 171.492 139.36 171.765 139.178 171.771C138.501 171.824 137.825 171.867 137.143 171.862C136.466 171.84 135.741 171.883 135.092 171.76C136.407 171.476 137.798 171.412 139.146 171.391L139.065 171.749C137.664 170.877 135.956 169.534 135.854 167.757C135.833 167.152 135.978 166.558 136.241 166.039C136.252 166.018 136.284 166.028 136.278 166.05L136.284 166.055Z" fill="#00124C"/>
<path d="M128.987 170.818C129.699 170.818 130.275 170.243 130.275 169.534C130.275 168.824 129.699 168.249 128.987 168.249C128.275 168.249 127.698 168.824 127.698 169.534C127.698 170.243 128.275 170.818 128.987 170.818Z" fill="#FE40B4"/>
<path d="M143.022 172.103C143.734 172.103 144.311 171.527 144.311 170.818C144.311 170.109 143.734 169.534 143.022 169.534C142.31 169.534 141.734 170.109 141.734 170.818C141.734 171.527 142.31 172.103 143.022 172.103Z" fill="#FE40B4"/>
<path d="M138.512 180.917C139.772 180.917 140.794 180.208 140.794 179.333C140.794 178.458 139.772 177.749 138.512 177.749C137.252 177.749 136.23 178.458 136.23 179.333C136.23 180.208 137.252 180.917 138.512 180.917Z" fill="#FF9FDA"/>
<path d="M132.021 176.02C133.792 176.962 137.766 179.857 139.629 178.535C140.257 177.978 140.423 176.908 140.687 176.068C140.697 176.014 140.778 176.014 140.794 176.068C141.669 178.894 139.876 180.874 137.03 179.509C135.119 178.68 133.529 177.422 131.956 176.116C131.908 176.079 131.961 175.993 132.021 176.03V176.02Z" fill="#00124C"/>
<path d="M274.682 168.527C275.642 168.527 276.421 167.751 276.421 166.794C276.421 165.836 275.642 165.06 274.682 165.06C273.721 165.06 272.942 165.836 272.942 166.794C272.942 167.751 273.721 168.527 274.682 168.527Z" fill="#FE40B4"/>
<path d="M257.489 171.508C258.45 171.508 259.229 170.732 259.229 169.774C259.229 168.817 258.45 168.041 257.489 168.041C256.529 168.041 255.75 168.817 255.75 169.774C255.75 170.732 256.529 171.508 257.489 171.508Z" fill="#FE40B4"/>
<path d="M338.365 35.2772C326.533 37.117 319.054 45.9129 315.494 61.4283C311.203 44.6663 303.236 37.6694 290.575 39.7322C303.548 37.2715 311.768 29.4431 313.447 13.5811C316.508 31.5927 326.187 37.5132 338.366 35.2771L338.365 35.2772Z" fill="#FDF001"/>
<path d="M352 64.0409C345.101 64.9459 340.635 69.9521 338.352 78.916C336.091 69.1193 331.56 64.9445 324.177 65.9676C331.746 64.7176 336.63 60.2837 337.825 51.0925C339.353 61.5981 344.894 65.1713 352 64.0409L352 64.0409Z" fill="#FDF001"/>
<path d="M307.353 79.1472C302.058 79.8418 298.631 83.6837 296.879 90.563C295.144 83.0446 291.666 79.8406 286 80.6258C291.809 79.6665 295.557 76.2638 296.474 69.21C297.647 77.2725 301.9 80.0148 307.353 79.1472L307.353 79.1472Z" fill="#FDF001"/>
<path d="M52.3652 22.2772C40.5331 24.117 33.0543 32.9129 29.4939 48.4283C25.2033 31.6663 17.2363 24.6694 4.57537 26.7322C17.5475 24.2715 25.7682 16.4431 27.4475 0.581093C30.5078 18.5927 40.1873 24.5132 52.366 22.2771L52.3652 22.2772Z" fill="#FDF001"/>
<path d="M65.9996 51.0409C59.1008 51.9459 54.6346 56.9521 52.3516 65.916C50.0911 56.1193 45.5599 51.9445 38.1765 52.9676C45.7462 51.7176 50.6299 47.2837 51.825 38.0925C53.3535 48.5981 58.8944 52.1713 66 51.0409L65.9996 51.0409Z" fill="#FDF001"/>
<path d="M21.3526 66.1472C16.0581 66.8418 12.6306 70.6837 10.8785 77.563C9.14375 70.0446 5.6663 66.8406 -4.34368e-07 67.6258C5.80927 66.6665 9.55728 63.2638 10.4744 56.21C11.6474 64.2725 15.8998 67.0148 21.3529 66.1472L21.3526 66.1472Z" fill="#FDF001"/>
<path d="M187.943 57.1637C180.951 58.2509 176.532 63.4484 174.428 72.6166C171.893 62.7118 167.185 58.5773 159.704 59.7963C167.369 58.3422 172.227 53.7163 173.219 44.3433C175.027 54.9865 180.747 58.485 187.944 57.1637L187.943 57.1637Z" fill="#FDF001"/>
<path d="M196 74.1606C191.923 74.6954 189.284 77.6536 187.935 82.9504C186.599 77.1615 183.922 74.6945 179.559 75.2991C184.032 74.5605 186.918 71.9405 187.624 66.5093C188.527 72.7171 191.801 74.8286 196 74.1606L196 74.1606Z" fill="#FDF001"/>
<path d="M169.617 83.0871C166.489 83.4975 164.464 85.7677 163.428 89.8328C162.403 85.3901 160.348 83.4968 157 83.9608C160.433 83.394 162.647 81.3832 163.189 77.2151C163.883 81.9793 166.395 83.5997 169.618 83.0871L169.617 83.0871Z" fill="#FDF001"/>
<defs>
<linearGradient id="paint0_linear_431_1239" x1="89.6142" y1="279.484" x2="89.6142" y2="248.535" gradientUnits="userSpaceOnUse">
<stop stop-color="#FF71C8"/>
<stop offset="0.4" stop-color="#FE60C1"/>
<stop offset="1" stop-color="#FE40B4"/>
</linearGradient>
</defs>
</svg>
