<svg width="24" height="29" viewBox="0 0 24 29" fill="none" xmlns="http://www.w3.org/2000/svg">
<path d="M8.69474 19.5288C8.47755 19.5288 8.28944 19.4485 8.12654 19.2898C7.96364 19.1292 7.88414 18.9571 7.88414 18.7697V18.4504C7.88414 18.3433 7.89771 18.2382 7.92486 18.1311C8.11297 17.3051 8.45234 16.5384 8.93909 15.8329C9.42584 15.1273 9.97271 14.4677 10.5816 13.854C11.1906 13.2402 11.7782 12.6743 12.3464 12.1542C12.9146 11.6341 13.3936 11.1294 13.7853 10.6341C14.177 10.1409 14.3729 9.66859 14.3729 9.21544C14.4 8.78907 14.3128 8.42196 14.1091 8.11604C13.9055 7.81012 13.636 7.57686 13.2985 7.41625C12.9611 7.25564 12.5752 7.17725 12.1427 7.17725C11.1964 7.17725 10.4944 7.38375 10.0348 7.79674C9.57516 8.20973 9.23773 8.75083 9.02054 9.4162C8.91194 9.71065 8.76262 9.94965 8.57451 10.1351C8.38446 10.3225 8.07418 10.4143 7.64173 10.4143H1.39539C1.1239 10.4143 0.895067 10.3091 0.706959 10.095C0.516912 9.88273 0.423828 9.60167 0.423828 9.2556C0.450978 8.21547 0.720534 7.18299 1.23444 6.15624C1.74834 5.13141 2.5124 4.17733 3.52469 3.29781C4.53892 2.41829 5.80913 1.71849 7.33727 1.19843C8.86152 0.678367 10.667 0.418335 12.7497 0.418335C14.9391 0.418335 16.7368 0.672631 18.1428 1.1774C19.5487 1.68408 20.6502 2.33033 21.4473 3.11617C22.2443 3.902 22.8047 4.72225 23.1305 5.575C23.4544 6.42775 23.6037 7.2002 23.5766 7.89425C23.5766 8.80054 23.4214 9.62652 23.1112 10.3722C22.8009 11.1179 22.4014 11.8062 21.9146 12.4314C21.4279 13.0586 20.914 13.657 20.3729 14.2306C19.8319 14.8042 19.318 15.3644 18.8312 15.9094C18.3445 16.4562 17.9256 17.0221 17.5746 17.6091C17.5203 17.743 17.4602 17.8692 17.3923 17.9896C17.3244 18.1101 17.2643 18.2496 17.21 18.4102C16.9928 18.7831 16.7969 19.0642 16.6224 19.2496C16.4459 19.437 16.1958 19.5288 15.8719 19.5288H8.69474ZM8.93715 28.8039C8.6385 28.8039 8.39028 28.7045 8.18666 28.5037C7.98304 28.3048 7.8822 28.0582 7.8822 27.7638V22.326C7.8822 22.0335 7.98304 21.7792 8.18666 21.567C8.39028 21.3547 8.6385 21.2477 8.93715 21.2477H15.263C15.5325 21.2477 15.7769 21.3547 15.9922 21.567C16.2074 21.7811 16.316 22.0335 16.316 22.326V27.7638C16.316 28.0582 16.2074 28.3029 15.9922 28.5037C15.775 28.7045 15.5325 28.8039 15.263 28.8039H8.93715Z" fill="#00124C"/>
</svg>
