<svg width="390" height="604" viewBox="0 0 390 604" fill="none" xmlns="http://www.w3.org/2000/svg">
<g clip-path="url(#clip0_630_4189)">
<path d="M374.25 89.69C372.05 78.25 369.98 67.45 369.38 57.59C366.38 8.38 389.77 0.29 390.01 0.21L389.83 -1C389.58 -0.92 383.63 1.05 377.99 9.3C368.58 23.05 367.66 43.21 368.54 57.7C369.15 67.67 371.23 78.52 373.44 90.02C377.62 111.78 382.25 135.89 379.48 163.79C376.93 137.85 368.08 115.12 360.27 87.73C342.95 27.02 371.68 -0.39 371.68 -0.39H0C9.63 64.56 32.62 74.38 50.46 91.78C56.46 104.38 60.17 118.27 58.67 135.84C56.69 159.02 44.35 180.85 32.41 201.97C28.64 208.65 24.92 215.23 21.56 221.76C5.17 247.2 -4 274.38 17.64 305.14C18.57 307.34 19.48 309.39 20.37 311.36C27.98 328.4 33.48 340.72 26.8 403.39C22.82 440.76 28.09 471.46 42.04 492.18C52.28 507.38 66.98 516.86 84.25 519.91C102.99 527.82 125.32 524.52 145.18 516.45C176.77 503.61 210.11 504.39 241.81 516.62C254.99 521.7 270.47 526.09 286.28 523.19C308.2 520.86 330.98 503.78 344.87 478.04C356.39 456.7 367.19 419.86 353.26 365.52C345.58 335.54 343.7 311.96 345.12 292.15C345.89 290.38 346.72 288.63 347.63 286.89C375.03 234.2 381.95 198.75 379.83 168.21C383.57 138.26 378.66 112.67 374.24 89.68L374.25 89.69ZM33.07 202.76C45.08 181.51 57.5 159.54 59.51 136C60.94 119.24 57.75 105.82 52.37 93.7C59.53 101.11 65.72 110.18 69.63 125.26C77.29 154.77 48.35 183.26 26.7 214.13C28.76 210.37 30.9 206.58 33.06 202.76H33.07ZM42.65 491.32C28.89 470.89 23.71 440.56 27.64 403.59C34.36 340.45 28.79 327.97 21.08 310.7C20.75 309.97 20.42 309.23 20.09 308.48C20.32 308.78 20.55 309.08 20.78 309.38C60.82 360.18 16.92 443.99 62.49 502.93C67.52 509.44 73.3 514.25 79.56 517.67C64.56 513.86 51.79 504.91 42.65 491.33V491.32ZM352.47 365.96C366.26 419.76 355.59 456.19 344.21 477.28C333.57 497 317.65 511.58 300.94 518.23C305.66 515.84 310.35 512.62 314.96 508.39C380.17 448.67 317.17 361.99 344.08 294.64C343 314.06 345.06 337.05 352.47 365.95V365.96Z" fill="url(#paint0_linear_630_4189)"/>
<path d="M30.0801 595.01H363.83C363.83 595.01 341.26 523.92 262.12 538.97C262.12 538.97 194.98 570.87 124.88 538.97C124.88 538.97 65.2101 525.41 30.0801 595.01Z" fill="#FE40B4"/>
<path d="M260.922 467.77C262.464 461.284 258.456 454.777 251.97 453.236C245.485 451.695 238.978 455.702 237.437 462.188C235.895 468.673 239.903 475.18 246.388 476.722C252.874 478.263 259.381 474.255 260.922 467.77Z" fill="#FDF001" stroke="url(#paint1_linear_630_4189)" stroke-width="0.5" stroke-miterlimit="10"/>
<path d="M249.17 475.31C249.6 475.45 249.86 475.6 249.93 476.05L250.21 476.94C250.3 477.23 250.55 477.99 250.64 478.27C250.54 478.46 250.45 478.66 250.31 478.87C250.07 478.78 249.89 478.68 249.7 478.58C249.61 478.3 249.37 477.54 249.27 477.25L248.99 476.36C248.78 475.96 248.9 475.68 249.18 475.32L249.17 475.31Z" fill="url(#paint2_linear_630_4189)"/>
<path d="M252.16 474.6C252.65 474.75 252.93 474.96 253.04 475.44L253.47 476.47C253.61 476.81 253.98 477.69 254.11 478.02C254.04 478.25 253.98 478.48 253.87 478.72C253.62 478.62 253.41 478.51 253.2 478.39C253.06 478.07 252.7 477.18 252.56 476.84L252.13 475.81C251.87 475.39 251.92 475.04 252.16 474.59V474.6Z" fill="url(#paint3_linear_630_4189)"/>
<path d="M254.861 473.75C255.291 473.76 255.581 473.81 255.741 474.21L256.201 474.94C256.351 475.18 256.751 475.8 256.891 476.03C256.841 476.23 256.791 476.43 256.701 476.66C256.461 476.64 256.261 476.6 256.051 476.56C255.901 476.33 255.511 475.7 255.361 475.47L254.901 474.74C254.611 474.42 254.681 474.14 254.861 473.75Z" fill="url(#paint4_linear_630_4189)"/>
<path d="M151.993 473.48C156.707 468.766 156.707 461.124 151.993 456.41C147.279 451.696 139.637 451.696 134.923 456.41C130.21 461.124 130.21 468.766 134.923 473.48C139.637 478.193 147.279 478.193 151.993 473.48Z" fill="#FDF001" stroke="url(#paint5_linear_630_4189)" stroke-width="0.5" stroke-miterlimit="10"/>
<path d="M136.19 472.47C136.25 472.98 136.17 473.33 135.77 473.64L134.99 474.47C134.73 474.74 134.07 475.45 133.82 475.72C133.58 475.76 133.34 475.8 133.07 475.8C133.06 475.53 133.07 475.29 133.1 475.05C133.34 474.79 134.01 474.07 134.27 473.8L135.05 472.97C135.33 472.56 135.68 472.45 136.19 472.48V472.47Z" fill="url(#paint6_linear_630_4189)"/>
<path d="M135.44 477.02C135.36 476.48 135.45 476.11 135.84 475.76L136.62 474.81C136.88 474.5 137.54 473.69 137.79 473.38C138.04 473.32 138.28 473.25 138.56 473.22C138.58 473.5 138.56 473.75 138.56 474.01C138.32 474.31 137.65 475.12 137.39 475.44L136.61 476.39C136.34 476.84 135.99 477 135.45 477.03L135.44 477.02Z" fill="url(#paint7_linear_630_4189)"/>
<path d="M138.77 478.16C138.5 477.74 138.42 477.42 138.65 476.99L139 475.98C139.12 475.65 139.41 474.79 139.52 474.47C139.72 474.35 139.92 474.23 140.16 474.13C140.29 474.36 140.37 474.58 140.45 474.8C140.34 475.12 140.04 475.98 139.93 476.31L139.58 477.32C139.5 477.79 139.23 478 138.76 478.17L138.77 478.16Z" fill="url(#paint8_linear_630_4189)"/>
<path d="M264.12 538.98C264.12 538.98 258.01 555.67 241.59 568.81C230.95 577.34 215.95 584.36 195.5 584.36C175.05 584.36 160.05 577.34 149.4 568.81C132.98 555.67 126.88 538.98 126.88 538.98C144.9 539.63 157.21 531.68 165.51 521.78C166.17 520.98 166.82 520.17 167.43 519.35C178.72 504.41 181.66 486.4 181.66 486.4H209.33C209.33 486.4 212.27 504.41 223.56 519.35C224.16 520.17 224.81 520.98 225.48 521.78C233.79 531.68 246.1 539.63 264.12 538.98Z" fill="#3E4BF6"/>
<path d="M264.12 538.98C264.12 538.98 258.01 555.67 241.59 568.81C230.95 577.34 215.95 584.36 195.5 584.36C175.05 584.36 160.05 577.34 149.4 568.81C132.98 555.67 126.88 538.98 126.88 538.98C144.9 539.63 157.21 531.68 165.51 521.78C166.17 520.98 166.82 520.17 167.43 519.35C178.72 504.41 181.66 486.4 181.66 486.4H209.33C209.33 486.4 212.27 504.41 223.56 519.35C224.16 520.17 224.81 520.98 225.48 521.78C233.79 531.68 246.1 539.63 264.12 538.98Z" fill="#FF71C8"/>
<path d="M223.57 519.35C215.46 524.52 205.83 527.51 195.51 527.51C185.19 527.51 175.55 524.51 167.44 519.35C178.73 504.41 181.67 486.4 181.67 486.4H209.34C209.34 486.4 212.28 504.41 223.57 519.35Z" fill="#FE40B4"/>
<path d="M247.79 422.2C247.79 393.316 224.377 369.9 195.495 369.9C166.613 369.9 143.2 393.316 143.2 422.2V462.88C143.2 491.764 166.613 515.18 195.495 515.18C224.377 515.18 247.79 491.764 247.79 462.88V422.2Z" fill="url(#paint9_linear_630_4189)"/>
<path d="M247.79 422.2C247.79 393.316 224.377 369.9 195.495 369.9C166.613 369.9 143.2 393.316 143.2 422.2V462.88C143.2 491.764 166.613 515.18 195.495 515.18C224.377 515.18 247.79 491.764 247.79 462.88V422.2Z" fill="#FDF001" stroke="url(#paint10_linear_630_4189)" stroke-miterlimit="10"/>
<path d="M168.906 480.917C172.476 477.348 172.476 471.561 168.906 467.991C165.337 464.422 159.55 464.422 155.981 467.991C152.411 471.561 152.411 477.348 155.981 480.917C159.55 484.487 165.337 484.487 168.906 480.917Z" fill="#FE40B4"/>
<path d="M237.477 481.381C241.097 477.863 241.18 472.077 237.662 468.457C234.144 464.837 228.358 464.754 224.737 468.272C221.117 471.79 221.034 477.576 224.552 481.196C228.07 484.816 233.857 484.899 237.477 481.381Z" fill="#FE40B4"/>
<path d="M196.5 414.05C199.02 425.94 201.48 439.02 203.89 450.85C204.78 454.98 205.38 459.16 205.83 463.36C205.92 464.11 205.28 464.78 204.52 464.73C202.6 464.62 200.68 464.48 198.76 464.3C196.84 464.11 194.92 463.89 193 463.57C192.84 463.54 192.84 463.3 193 463.27C196.82 462.65 200.66 462.34 204.52 462.11L203.23 463.63C201.31 455.5 200.64 447.16 199.43 438.91C198.42 431.71 197.11 421.41 196.21 414.09C196.18 413.92 196.47 413.85 196.5 414.04V414.05Z" fill="#00124C"/>
<path d="M198.84 498.89C201.364 498.89 203.411 495.689 203.411 491.74C203.411 487.791 201.364 484.59 198.84 484.59C196.317 484.59 194.271 487.791 194.271 491.74C194.271 495.689 196.317 498.89 198.84 498.89Z" fill="#FF9FDA"/>
<path d="M215.571 496.69C204.511 490.62 193.141 490.49 182.121 496.69C182.051 496.74 181.931 496.74 181.881 496.65C181.851 496.59 181.861 496.53 181.901 496.48C188.321 489.34 199.351 487.1 208.081 491.05C211.011 492.27 213.581 494.22 215.781 496.48C215.901 496.62 215.731 496.81 215.571 496.69Z" fill="#00124C"/>
<path d="M217.16 494.27C217.28 496.39 216.13 498.4 214.27 499.4C214.23 499.43 214.16 499.41 214.18 499.35C214.86 498.05 216.31 495.48 217.07 494.22C217.1 494.17 217.17 494.22 217.16 494.27Z" fill="#00124C"/>
<path d="M183.101 498.32C181.371 497.76 180.281 496.07 180.451 494.27C180.451 494.22 180.491 494.17 180.531 494.22C181.231 495.2 182.56 497.24 183.18 498.27C183.21 498.32 183.141 498.35 183.101 498.32Z" fill="#00124C"/>
<path d="M208.57 441.69C216.68 445.73 225.8 445.77 233.9 441.69C228.14 449.76 214.35 449.7 208.57 441.69Z" fill="#00124C"/>
<path d="M155.61 441.69C163.72 445.73 172.84 445.77 180.94 441.69C175.18 449.76 161.4 449.7 155.61 441.69Z" fill="#00124C"/>
<path d="M165.63 532.98C160.8 534.44 166.07 540.26 167.02 553.49C160.19 545.99 153.22 539.55 147.68 535.31C145.12 536.4 142.38 537.29 139.45 537.92C143.4 544.07 150.36 551.97 152.06 556.44C151.56 555.88 133.77 535.93 128.47 540.38C124.87 543.4 141.49 557.99 145.91 567.14C145.91 567.14 126.01 545.04 122.35 548.18C117.96 551.95 134.71 567.81 139.2 575.75C138.27 574.56 123.25 555.29 118.7 555.54C114.45 555.77 123.19 573.56 140.94 595H194.63C182.06 565.69 170.9 531.38 165.63 532.97V532.98Z" fill="#FF71C8"/>
<path d="M256.42 595.01C274.26 576.01 283.37 560.23 279.32 559.7C274.8 559.1 258.37 577.19 257.36 578.31C262.44 570.73 280.33 556.17 276.24 552.08C272.83 548.67 251.32 569.21 251.32 569.21C256.42 560.42 274.1 547.12 270.73 543.84C265.78 539.01 246.54 557.56 246 558.08C248.21 553.36 257 545.02 261.1 538.99C257.57 538.93 254.27 538.52 251.19 537.84C245.47 541.66 238.36 547.35 231.3 554.01C233.24 540.89 238.94 535.48 234.23 533.66C228.99 531.64 214.83 566.39 199.76 595.01H256.42Z" fill="#FF71C8"/>
<path d="M195.96 587.97L195.98 588C182.86 558.06 171.09 521.2 165.63 522.85C160.8 524.31 166.07 530.13 167.02 543.36C152.9 527.87 138.15 516.85 136.81 520.54C135.12 525.18 149.52 539.62 152.06 546.31C151.56 545.75 133.77 525.8 128.47 530.25C124.87 533.27 141.49 547.86 145.91 557.01C145.91 557.01 126.01 534.91 122.35 538.05C117.96 541.82 134.71 557.68 139.2 565.62C138.27 564.43 123.25 545.16 118.7 545.41C114 545.67 125.18 567.39 146.87 591.78C147.74 592.76 148.55 593.85 149.33 595.01H194.58C195.35 593.41 196.14 591.81 196.94 590.24C196.61 589.48 196.29 588.72 195.95 587.96L195.96 587.97Z" fill="#FDF001"/>
<path d="M195.96 587.97L195.98 588C182.86 558.06 171.09 521.2 165.63 522.85C160.8 524.31 166.07 530.13 167.02 543.36C152.9 527.87 138.15 516.85 136.81 520.54C135.12 525.18 149.52 539.62 152.06 546.31C151.56 545.75 133.77 525.8 128.47 530.25C124.87 533.27 141.49 547.86 145.91 557.01C145.91 557.01 126.01 534.91 122.35 538.05C117.96 541.82 134.71 557.68 139.2 565.62C138.27 564.43 123.25 545.16 118.7 545.41C114 545.67 125.18 567.39 146.87 591.78C147.74 592.76 148.55 593.85 149.33 595.01H194.58C195.35 593.41 196.14 591.81 196.94 590.24C196.61 589.48 196.29 588.72 195.95 587.96L195.96 587.97Z" fill="#FDF001"/>
<path d="M279.32 549.56C274.8 548.96 258.37 567.05 257.36 568.17C262.44 560.59 280.33 546.03 276.24 541.94C272.83 538.53 251.32 559.07 251.32 559.07C256.42 550.28 274.1 536.98 270.73 533.7C265.78 528.87 246.54 547.42 246 547.94C249.04 541.45 264.48 528.14 263.15 523.39C262.08 519.61 246.55 529.48 231.3 543.87C233.24 530.75 238.94 525.34 234.23 523.52C228.91 521.46 214.39 557.34 199.06 586.2L199.08 586.17C198.36 587.51 197.65 588.87 196.95 590.24C196.14 591.82 195.36 593.41 194.59 595.01H246.46C246.88 594.55 247.31 594.1 247.74 593.67C271.21 570.98 283.99 550.16 279.32 549.55V549.56Z" fill="#FDF001"/>
<path d="M279.32 549.56C274.8 548.96 258.37 567.05 257.36 568.17C262.44 560.59 280.33 546.03 276.24 541.94C272.83 538.53 251.32 559.07 251.32 559.07C256.42 550.28 274.1 536.98 270.73 533.7C265.78 528.87 246.54 547.42 246 547.94C249.04 541.45 264.48 528.14 263.15 523.39C262.08 519.61 246.55 529.48 231.3 543.87C233.24 530.75 238.94 525.34 234.23 523.52C228.91 521.46 214.39 557.34 199.06 586.2L199.08 586.17C198.36 587.51 197.65 588.87 196.95 590.24C196.14 591.82 195.36 593.41 194.59 595.01H246.46C246.88 594.55 247.31 594.1 247.74 593.67C271.21 570.98 283.99 550.16 279.32 549.55V549.56Z" fill="#FDF001"/>
<path d="M143.2 374.15V438.37H148.67V439.07C148.79 439.07 161.09 438.96 169.61 429.1C176.64 420.97 179.16 408.74 177.13 392.73C185.45 417.02 206.27 434.98 231.62 439.59L247.79 442.53V374.14H143.2V374.15Z" fill="#FFF983"/>
<path d="M133.67 359.54C117.47 380.89 121.85 408.03 133.67 437.26H140.29V438.11C140.44 438.11 155.31 437.97 165.63 426.05C174.14 416.21 177.18 401.41 174.73 382.04C184.8 411.43 209.99 433.17 240.68 438.75L260.25 442.3C273.39 413.04 275.22 385.22 260.25 359.54C182.66 317.65 182.8 330.51 133.68 359.54H133.67ZM164.99 425.48C156.86 434.89 145.81 436.78 141.81 437.16C148.32 434.69 173.54 422.61 174.03 383.35C176.18 401.87 173.15 416.04 164.98 425.48H164.99Z" fill="#FE40B4"/>
<path d="M297.563 375.876C292.57 375.876 288.509 379.872 288.461 384.819L246.619 385.031L279.785 357.677C281.443 359.415 283.791 360.504 286.394 360.504C291.424 360.504 295.502 356.454 295.502 351.459C295.502 346.464 291.424 342.414 286.394 342.414C281.364 342.414 277.285 346.464 277.285 351.459C277.285 352.494 277.462 353.487 277.785 354.414L237.431 369.235L258.587 333.278C259.739 333.804 261.025 334.101 262.379 334.101C267.409 334.101 271.487 330.051 271.487 325.056C271.487 320.061 267.409 316.011 262.379 316.011C257.349 316.011 253.27 320.061 253.27 325.056C253.27 327.181 254.008 329.13 255.24 330.674L223.36 357.513L231.017 315.659C231.566 315.762 232.127 315.817 232.7 315.817C237.73 315.817 241.808 311.767 241.808 306.772C241.808 301.777 237.73 297.726 232.7 297.726C227.67 297.726 223.591 301.777 223.591 306.772C223.591 309.817 225.109 312.511 227.432 314.152L206.1 351.277L198.802 308.897C202.929 308.037 206.027 304.398 206.027 300.045C206.027 295.05 201.948 291 196.918 291C191.888 291 187.81 295.05 187.81 300.045C187.81 304.398 190.907 308.031 195.034 308.897L187.736 351.277L166.599 314.485C169.001 312.856 170.574 310.12 170.574 307.014C170.574 302.019 166.495 297.969 161.466 297.969C156.436 297.969 152.357 302.019 152.357 307.014C152.357 312.009 156.436 316.059 161.466 316.059C161.947 316.059 162.417 316.023 162.874 315.95L170.477 357.519L138.28 330.414C139.371 328.925 140.017 327.09 140.017 325.104C140.017 320.109 135.939 316.059 130.909 316.059C125.879 316.059 121.8 320.109 121.8 325.104C121.8 330.099 125.879 334.15 130.909 334.15C132.439 334.15 133.884 333.774 135.152 333.108L156.411 369.241L115.886 354.359C116.38 353.245 116.655 352.016 116.655 350.726C116.655 345.732 112.576 341.681 107.546 341.681C102.516 341.681 98.4375 345.732 98.4375 350.726C98.4375 355.721 102.516 359.772 107.546 359.772C109.924 359.772 112.082 358.87 113.704 357.386L147.23 385.037L105.211 384.825C105.071 379.951 101.053 376.046 96.1085 376.046C91.1641 376.046 87 380.096 87 385.091C87 390.086 91.0787 394.136 96.1085 394.136C99.7727 394.136 102.925 391.987 104.376 388.893L144.023 402.994C153.826 383.923 173.793 370.869 196.833 370.869C219.872 370.869 239.839 383.929 249.643 403H249.795L289.381 388.918C290.869 391.908 293.966 393.967 297.557 393.967C302.587 393.967 306.666 389.916 306.666 384.922C306.666 379.927 302.587 375.876 297.557 375.876H297.563Z" fill="#FDF001"/>
<path d="M297.52 389.444C300.035 389.444 302.074 387.419 302.074 384.922C302.074 382.424 300.035 380.399 297.52 380.399C295.005 380.399 292.966 382.424 292.966 384.922C292.966 387.419 295.005 389.444 297.52 389.444Z" fill="#FE40B4" stroke="#00124C" stroke-miterlimit="10"/>
<path d="M286.357 355.988C288.872 355.988 290.911 353.963 290.911 351.465C290.911 348.967 288.872 346.942 286.357 346.942C283.842 346.942 281.803 348.967 281.803 351.465C281.803 353.963 283.842 355.988 286.357 355.988Z" fill="#FE40B4" stroke="#00124C" stroke-miterlimit="10"/>
<path d="M262.342 329.585C264.857 329.585 266.896 327.56 266.896 325.062C266.896 322.564 264.857 320.539 262.342 320.539C259.827 320.539 257.788 322.564 257.788 325.062C257.788 327.56 259.827 329.585 262.342 329.585Z" fill="#FE40B4" stroke="#00124C" stroke-miterlimit="10"/>
<path d="M232.663 311.3C235.178 311.3 237.217 309.275 237.217 306.778C237.217 304.28 235.178 302.255 232.663 302.255C230.148 302.255 228.109 304.28 228.109 306.778C228.109 309.275 230.148 311.3 232.663 311.3Z" fill="#FE40B4" stroke="#00124C" stroke-miterlimit="10"/>
<path d="M196.887 304.574C199.403 304.574 201.442 302.549 201.442 300.051C201.442 297.554 199.403 295.529 196.887 295.529C194.372 295.529 192.333 297.554 192.333 300.051C192.333 302.549 194.372 304.574 196.887 304.574Z" fill="#FE40B4" stroke="#00124C" stroke-miterlimit="10"/>
<path d="M161.435 311.536C163.95 311.536 165.989 309.512 165.989 307.014C165.989 304.516 163.95 302.491 161.435 302.491C158.92 302.491 156.881 304.516 156.881 307.014C156.881 309.512 158.92 311.536 161.435 311.536Z" fill="#FE40B4" stroke="#00124C" stroke-miterlimit="10"/>
<path d="M130.878 329.627C133.393 329.627 135.432 327.602 135.432 325.104C135.432 322.607 133.393 320.582 130.878 320.582C128.363 320.582 126.324 322.607 126.324 325.104C126.324 327.602 128.363 329.627 130.878 329.627Z" fill="#FE40B4" stroke="#00124C" stroke-miterlimit="10"/>
<path d="M107.509 355.249C110.025 355.249 112.064 353.224 112.064 350.726C112.064 348.229 110.025 346.204 107.509 346.204C104.994 346.204 102.955 348.229 102.955 350.726C102.955 353.224 104.994 355.249 107.509 355.249Z" fill="#FE40B4" stroke="#00124C" stroke-miterlimit="10"/>
<path d="M96.0782 389.608C98.5934 389.608 100.632 387.583 100.632 385.085C100.632 382.587 98.5934 380.562 96.0782 380.562C93.5629 380.562 91.5239 382.587 91.5239 385.085C91.5239 387.583 93.5629 389.608 96.0782 389.608Z" fill="#FE40B4" stroke="#00124C" stroke-miterlimit="10"/>
<path d="M140.67 460.07C140.69 460.01 140.7 459.94 140.67 459.93C140.72 459.98 140.13 460.49 140.01 460.77C138.19 463.38 139.82 466.18 140.66 468.9C136.94 467.34 135.52 461.1 140.14 459.77C140.43 459.68 141.11 459.77 140.66 460.07H140.67Z" fill="#00124C"/>
<path d="M251.44 468.53C251.42 468.59 251.41 468.66 251.44 468.67C251.39 468.62 251.98 468.11 252.1 467.83C253.92 465.22 252.29 462.42 251.45 459.7C255.17 461.26 256.59 467.5 251.97 468.83C251.68 468.92 251 468.83 251.45 468.53H251.44Z" fill="#00124C"/>
</g>
<g clip-path="url(#clip1_630_4189)">
<path d="M38.9115 81.5849C37.3812 81.6117 35.9374 81.6393 34.495 81.6614C32.2076 81.6967 30.6358 80.0764 30.8355 77.8908C31.0304 75.7536 32.8787 74.0738 35.133 74.0029C36.4208 73.9628 37.7073 73.9491 39.0744 73.9211C39.1104 72.4648 39.1075 71.0785 39.1872 69.6867C39.3544 66.733 42.6136 64.7381 45.0762 66.081C46.2395 66.7145 46.8411 67.7557 46.8256 69.1561C46.8095 70.6715 46.7769 72.189 46.7488 73.7642C48.3569 73.7366 49.9043 73.6761 51.4433 73.6905C54.0615 73.7153 55.5696 76.2228 54.5023 78.7229C53.8704 80.2033 52.4151 81.2489 50.8097 81.3278C49.4405 81.3953 48.0747 81.4177 46.7068 81.461C46.6848 81.4621 46.6605 81.4864 46.8389 81.489C46.7057 82.8595 46.4256 84.2522 46.4743 85.5988C46.5394 87.399 44.4732 89.4486 42.839 89.6583C40.829 89.9132 39.0186 88.6604 38.888 86.6928C38.793 85.2676 38.8981 83.8088 38.9115 82.3647C38.9139 82.1356 38.9117 81.9091 38.9115 81.5849Z" fill="#FDF001"/>
</g>
<g clip-path="url(#clip2_630_4189)">
<path d="M88.327 93.5115C86.7967 93.5383 85.353 93.5659 83.9106 93.588C81.6231 93.6233 80.0514 92.003 80.251 89.8174C80.4459 87.6802 82.2942 86.0004 84.5485 85.9296C85.8363 85.8894 87.1228 85.8757 88.4899 85.8477C88.5259 84.3915 88.5231 83.0051 88.6027 81.6133C88.7699 78.6596 92.0291 76.6647 94.4917 78.0076C95.655 78.6411 96.2566 79.6823 96.2412 81.0827C96.225 82.5982 96.1924 84.1156 96.1643 85.6908C97.7724 85.6632 99.3198 85.6027 100.859 85.6171C103.477 85.6419 104.985 88.1494 103.918 90.6495C103.286 92.1299 101.831 93.1755 100.225 93.2544C98.856 93.3219 97.4903 93.3443 96.1223 93.3876C96.1003 93.3887 96.0761 93.413 96.2544 93.4156C96.1212 94.7861 95.8411 96.1788 95.8898 97.5254C95.9549 99.3256 93.8887 101.375 92.2545 101.585C90.2445 101.84 88.4341 100.587 88.3035 98.6195C88.2086 97.1942 88.3137 95.7354 88.3271 94.2913C88.3294 94.0622 88.3272 93.8357 88.327 93.5115Z" fill="#FDF001"/>
</g>
<g clip-path="url(#clip3_630_4189)">
<path d="M65.7014 40.1785C63.151 40.2231 60.7447 40.2692 58.3407 40.3059C54.5282 40.3648 51.9087 37.6643 52.2414 34.0216C52.5662 30.4597 55.6467 27.6599 59.4039 27.5419C61.5503 27.475 63.6944 27.4521 65.9729 27.4055C66.0329 24.9784 66.0282 22.6679 66.1609 20.3482C66.4395 15.4253 71.8715 12.1005 75.976 14.3387C77.9147 15.3945 78.9174 17.1298 78.8917 19.4638C78.8648 21.9896 78.8104 24.5186 78.7636 27.144C81.4437 27.098 84.0227 26.9971 86.5877 27.0211C90.9515 27.0624 93.465 31.2416 91.6861 35.4085C90.6329 37.8758 88.2074 39.6185 85.5319 39.7501C83.2498 39.8625 80.9735 39.8998 78.6936 39.972C78.657 39.9739 78.6165 40.0144 78.9138 40.0186C78.6917 42.3029 78.2249 44.6239 78.3062 46.8683C78.4146 49.8687 74.9709 53.2847 72.2473 53.6342C68.8972 54.0591 65.88 51.9711 65.6622 48.6917C65.504 46.3164 65.6792 43.885 65.7015 41.4781C65.7054 41.0964 65.7018 40.7188 65.7014 40.1785Z" fill="#FDF001"/>
</g>
<g clip-path="url(#clip4_630_4189)">
<path d="M100.976 560.704C101.893 560.688 102.759 560.671 103.624 560.658C104.996 560.637 105.938 561.608 105.819 562.919C105.702 564.201 104.593 565.208 103.242 565.251C102.469 565.275 101.698 565.283 100.878 565.3C100.856 566.173 100.858 567.004 100.81 567.839C100.71 569.61 98.7555 570.807 97.2787 570.001C96.5811 569.621 96.2203 568.997 96.2296 568.157C96.2392 567.248 96.2588 566.338 96.2756 565.394C95.3113 565.41 94.3834 565.447 93.4604 565.438C91.8903 565.423 90.9859 563.919 91.626 562.42C92.0049 561.532 92.8777 560.905 93.8404 560.858C94.6615 560.818 95.4805 560.804 96.3008 560.778C96.314 560.777 96.3286 560.763 96.2216 560.761C96.3015 559.939 96.4695 559.104 96.4402 558.297C96.4012 557.217 97.6403 555.988 98.6203 555.862C99.8257 555.709 100.911 556.461 100.99 557.641C101.047 558.495 100.984 559.37 100.976 560.236C100.974 560.374 100.975 560.509 100.976 560.704Z" fill="#FDF001"/>
</g>
<g clip-path="url(#clip5_630_4189)">
<path d="M71.3418 553.552C72.2595 553.536 73.1253 553.519 73.9903 553.506C75.362 553.485 76.3046 554.456 76.1849 555.767C76.068 557.049 74.9596 558.056 73.6077 558.098C72.8354 558.122 72.0639 558.131 71.2441 558.147C71.2225 559.021 71.2242 559.852 71.1765 560.687C71.0762 562.458 69.1217 563.654 67.6449 562.849C66.9473 562.469 66.5865 561.845 66.5958 561.005C66.6054 560.096 66.625 559.186 66.6418 558.242C65.6775 558.258 64.7496 558.294 63.8266 558.286C62.2565 558.271 61.3521 556.767 61.9922 555.268C62.3712 554.38 63.2439 553.753 64.2066 553.706C65.0277 553.665 65.8467 553.652 66.6671 553.626C66.6802 553.625 66.6948 553.611 66.5878 553.609C66.6677 552.787 66.8357 551.952 66.8065 551.145C66.7674 550.065 68.0065 548.836 68.9865 548.71C70.1919 548.557 71.2775 549.309 71.3559 550.488C71.4128 551.343 71.3498 552.218 71.3417 553.084C71.3403 553.221 71.3416 553.357 71.3418 553.552Z" fill="#FDF001"/>
</g>
<g clip-path="url(#clip6_630_4189)">
<path d="M84.9095 585.535C86.439 585.508 87.882 585.48 89.3236 585.458C91.6099 585.423 93.1808 587.042 92.9813 589.227C92.7865 591.363 90.9392 593.042 88.686 593.113C87.3989 593.153 86.1131 593.167 84.7467 593.194C84.7107 594.65 84.7135 596.036 84.634 597.427C84.4669 600.379 81.2094 602.373 78.748 601.03C77.5853 600.397 76.984 599.357 76.9995 597.957C77.0156 596.442 77.0482 594.926 77.0763 593.351C75.469 593.379 73.9225 593.439 72.3842 593.425C69.7673 593.4 68.2601 590.894 69.3269 588.395C69.9584 586.916 71.413 585.871 73.0175 585.792C74.386 585.724 75.751 585.702 77.1183 585.659C77.1402 585.657 77.1645 585.633 76.9862 585.631C77.1194 584.261 77.3993 582.869 77.3506 581.523C77.2855 579.724 79.3507 577.675 80.984 577.465C82.993 577.211 84.8024 578.463 84.933 580.429C85.0279 581.854 84.9228 583.312 84.9094 584.755C84.9071 584.984 84.9093 585.211 84.9095 585.535Z" fill="#FDF001"/>
</g>
<g clip-path="url(#clip7_630_4189)">
<path d="M310.093 152.816C308.797 152.839 307.574 152.862 306.352 152.881C304.415 152.911 303.084 151.539 303.253 149.688C303.418 147.878 304.983 146.455 306.893 146.395C307.983 146.361 309.073 146.349 310.231 146.326C310.261 145.092 310.259 143.918 310.326 142.74C310.468 140.238 313.228 138.549 315.314 139.686C316.299 140.222 316.808 141.104 316.795 142.29C316.782 143.574 316.754 144.859 316.73 146.193C318.092 146.169 319.403 146.118 320.706 146.13C322.923 146.151 324.201 148.275 323.297 150.392C322.762 151.646 321.529 152.532 320.169 152.599C319.01 152.656 317.853 152.675 316.695 152.711C316.676 152.712 316.655 152.733 316.807 152.735C316.694 153.896 316.456 155.075 316.498 156.216C316.553 157.74 314.803 159.476 313.419 159.654C311.717 159.87 310.183 158.809 310.073 157.142C309.992 155.935 310.081 154.7 310.093 153.477C310.095 153.283 310.093 153.091 310.093 152.816Z" fill="#FDF001"/>
</g>
<g clip-path="url(#clip8_630_4189)">
<path d="M351.943 162.917C350.647 162.94 349.424 162.963 348.202 162.982C346.265 163.012 344.934 161.639 345.103 159.788C345.268 157.978 346.834 156.556 348.743 156.496C349.833 156.462 350.923 156.45 352.081 156.426C352.111 155.193 352.109 154.019 352.176 152.84C352.318 150.339 355.078 148.649 357.164 149.787C358.149 150.323 358.658 151.205 358.645 152.391C358.632 153.674 358.604 154.96 358.58 156.294C359.942 156.27 361.253 156.219 362.556 156.231C364.774 156.252 366.051 158.376 365.147 160.493C364.612 161.747 363.379 162.632 362.02 162.699C360.86 162.756 359.703 162.775 358.545 162.812C358.526 162.813 358.506 162.834 358.657 162.836C358.544 163.997 358.307 165.176 358.348 166.316C358.403 167.841 356.653 169.577 355.269 169.754C353.567 169.97 352.034 168.909 351.923 167.243C351.843 166.036 351.932 164.8 351.943 163.577C351.945 163.383 351.943 163.192 351.943 162.917Z" fill="#FDF001"/>
</g>
<g clip-path="url(#clip9_630_4189)">
<path d="M332.782 117.749C330.622 117.787 328.584 117.826 326.548 117.857C323.319 117.907 321.101 115.619 321.383 112.534C321.658 109.518 324.267 107.147 327.449 107.047C329.266 106.99 331.082 106.971 333.012 106.931C333.063 104.876 333.059 102.919 333.171 100.954C333.407 96.785 338.007 93.9693 341.484 95.8648C343.126 96.7589 343.975 98.2286 343.953 100.205C343.93 102.344 343.884 104.486 343.844 106.71C346.114 106.671 348.298 106.585 350.471 106.606C354.167 106.641 356.295 110.18 354.789 113.709C353.897 115.799 351.842 117.274 349.577 117.386C347.644 117.481 345.716 117.513 343.785 117.574C343.754 117.575 343.72 117.61 343.972 117.613C343.784 119.548 343.388 121.514 343.457 123.414C343.549 125.955 340.632 128.849 338.326 129.145C335.489 129.504 332.933 127.736 332.749 124.959C332.615 122.947 332.763 120.888 332.782 118.849C332.785 118.526 332.782 118.206 332.782 117.749Z" fill="#FDF001"/>
</g>
<g clip-path="url(#clip10_630_4189)">
<path d="M54.5584 367.73C53.3723 367.75 52.2532 367.772 51.1352 367.789C49.3621 367.816 48.1438 366.56 48.2986 364.866C48.4497 363.21 49.8823 361.908 51.6296 361.853C52.6279 361.822 53.625 361.811 54.6847 361.789C54.7125 360.661 54.7104 359.586 54.7721 358.507C54.9017 356.218 57.4279 354.672 59.3368 355.712C60.2384 356.203 60.7047 357.011 60.6928 358.096C60.6803 359.271 60.655 360.447 60.6332 361.668C61.8796 361.646 63.079 361.599 64.2719 361.611C66.3014 361.63 67.4703 363.573 66.643 365.511C66.1532 366.659 65.0252 367.469 63.7809 367.53C62.7196 367.583 61.661 367.6 60.6006 367.634C60.5836 367.635 60.5648 367.653 60.703 367.655C60.5998 368.718 60.3827 369.797 60.4205 370.841C60.4709 372.236 58.8694 373.825 57.6027 373.988C56.0447 374.185 54.6414 373.214 54.5402 371.689C54.4666 370.584 54.5481 369.453 54.5585 368.334C54.5603 368.157 54.5586 367.981 54.5584 367.73Z" fill="#FDF001"/>
</g>
<g clip-path="url(#clip11_630_4189)">
<path d="M92.8611 376.974C91.675 376.995 90.5559 377.016 89.4379 377.033C87.6649 377.061 86.4466 375.805 86.6013 374.111C86.7524 372.454 88.185 371.152 89.9324 371.097C90.9306 371.066 91.9277 371.056 92.9874 371.034C93.0153 369.905 93.0131 368.831 93.0748 367.752C93.2044 365.462 95.7307 363.916 97.6395 364.957C98.5411 365.448 99.0075 366.255 98.9955 367.34C98.983 368.515 98.9577 369.691 98.9359 370.912C100.182 370.891 101.382 370.844 102.575 370.855C104.604 370.874 105.773 372.818 104.946 374.756C104.456 375.903 103.328 376.714 102.084 376.775C101.022 376.827 99.9637 376.845 98.9034 376.878C98.8863 376.879 98.8675 376.898 99.0058 376.9C98.9025 377.962 98.6854 379.042 98.7232 380.085C98.7736 381.481 97.1721 383.069 95.9054 383.232C94.3474 383.43 92.9442 382.459 92.8429 380.933C92.7693 379.829 92.8508 378.698 92.8612 377.579C92.863 377.401 92.8613 377.225 92.8611 376.974Z" fill="#FDF001"/>
</g>
<g clip-path="url(#clip12_630_4189)">
<path d="M75.3244 335.635C73.3475 335.67 71.4823 335.705 69.619 335.734C66.6639 335.78 64.6334 333.686 64.8914 330.863C65.1431 328.102 67.5309 325.932 70.4431 325.84C72.1068 325.788 73.7687 325.771 75.5348 325.735C75.5813 323.853 75.5777 322.062 75.6805 320.264C75.8965 316.449 80.1069 313.872 83.2883 315.606C84.7911 316.425 85.5683 317.77 85.5483 319.579C85.5275 321.537 85.4853 323.497 85.4491 325.532C87.5264 325.496 89.5254 325.418 91.5136 325.437C94.8961 325.469 96.8443 328.708 95.4654 331.938C94.6491 333.85 92.769 335.201 90.6952 335.303C88.9263 335.39 87.162 335.419 85.3948 335.475C85.3664 335.477 85.335 335.508 85.5655 335.511C85.3933 337.282 85.0315 339.081 85.0945 340.82C85.1786 343.146 82.5093 345.794 80.3982 346.065C77.8015 346.394 75.4628 344.776 75.294 342.234C75.1714 340.393 75.3072 338.508 75.3245 336.642C75.3275 336.347 75.3247 336.054 75.3244 335.635Z" fill="#FDF001"/>
</g>
<g clip-path="url(#clip13_630_4189)">
<path d="M295.16 449.176C294.181 449.193 293.258 449.211 292.336 449.225C290.873 449.248 289.868 448.212 289.996 446.814C290.121 445.448 291.302 444.373 292.744 444.328C293.567 444.303 294.39 444.294 295.264 444.276C295.287 443.345 295.285 442.458 295.336 441.568C295.443 439.68 297.527 438.404 299.102 439.263C299.845 439.668 300.23 440.334 300.22 441.229C300.21 442.198 300.189 443.168 300.171 444.176C301.199 444.158 302.189 444.119 303.173 444.128C304.847 444.144 305.811 445.748 305.129 447.346C304.725 448.293 303.794 448.961 302.768 449.012C301.892 449.055 301.019 449.069 300.144 449.097C300.13 449.098 300.115 449.113 300.229 449.115C300.144 449.991 299.964 450.882 299.996 451.743C300.037 452.894 298.716 454.204 297.671 454.338C296.386 454.501 295.228 453.7 295.145 452.442C295.084 451.531 295.151 450.598 295.16 449.675C295.161 449.528 295.16 449.383 295.16 449.176Z" fill="#FDF001"/>
</g>
<g clip-path="url(#clip14_630_4189)">
<path d="M326.756 456.802C325.778 456.819 324.854 456.837 323.932 456.851C322.47 456.874 321.465 455.838 321.592 454.44C321.717 453.073 322.899 451.999 324.34 451.954C325.164 451.928 325.986 451.92 326.86 451.902C326.883 450.971 326.881 450.084 326.932 449.194C327.039 447.306 329.123 446.03 330.698 446.889C331.442 447.294 331.826 447.96 331.816 448.855C331.806 449.824 331.785 450.794 331.767 451.801C332.795 451.784 333.785 451.745 334.769 451.754C336.443 451.77 337.407 453.373 336.725 454.972C336.321 455.919 335.39 456.587 334.364 456.638C333.488 456.681 332.615 456.695 331.74 456.723C331.726 456.724 331.711 456.739 331.825 456.741C331.74 457.617 331.561 458.508 331.592 459.369C331.633 460.52 330.312 461.83 329.267 461.964C327.982 462.127 326.825 461.326 326.741 460.068C326.68 459.157 326.748 458.224 326.756 457.301C326.758 457.154 326.756 457.009 326.756 456.802Z" fill="#FDF001"/>
</g>
<g clip-path="url(#clip15_630_4189)">
<path d="M312.289 422.701C310.659 422.729 309.12 422.759 307.583 422.782C305.145 422.82 303.47 421.093 303.683 418.764C303.891 416.486 305.86 414.696 308.263 414.621C309.635 414.578 311.006 414.563 312.463 414.533C312.501 412.982 312.498 411.504 312.583 410.021C312.761 406.873 316.235 404.747 318.859 406.178C320.099 406.854 320.74 407.963 320.723 409.455C320.706 411.07 320.671 412.688 320.641 414.366C322.355 414.337 324.004 414.272 325.644 414.288C328.434 414.314 330.042 416.986 328.904 419.651C328.231 421.228 326.68 422.343 324.969 422.427C323.51 422.499 322.054 422.522 320.597 422.569C320.573 422.57 320.547 422.596 320.737 422.598C320.595 424.059 320.297 425.543 320.349 426.978C320.418 428.897 318.216 431.081 316.475 431.304C314.333 431.576 312.404 430.241 312.264 428.144C312.163 426.625 312.275 425.071 312.289 423.532C312.292 423.288 312.29 423.046 312.289 422.701Z" fill="#FDF001"/>
</g>
<defs>
<linearGradient id="paint0_linear_630_4189" x1="152.16" y1="528.57" x2="199.83" y2="-17.58" gradientUnits="userSpaceOnUse">
<stop stop-color="#FE40B4"/>
<stop offset="0.21" stop-color="#FE4DB9"/>
<stop offset="0.6" stop-color="#FE72C8"/>
<stop offset="1" stop-color="#FF9FDA"/>
</linearGradient>
<linearGradient id="paint1_linear_630_4189" x1="236.887" y1="464.958" x2="261.527" y2="464.958" gradientUnits="userSpaceOnUse">
<stop stop-color="#00124C"/>
<stop offset="0.36" stop-color="#001559"/>
<stop offset="1" stop-color="#001E7D"/>
</linearGradient>
<linearGradient id="paint2_linear_630_4189" x1="248.88" y1="477.09" x2="250.64" y2="477.09" gradientUnits="userSpaceOnUse">
<stop stop-color="#00124C"/>
<stop offset="0.36" stop-color="#001559"/>
<stop offset="1" stop-color="#001E7D"/>
</linearGradient>
<linearGradient id="paint3_linear_630_4189" x1="251.96" y1="476.67" x2="254.11" y2="476.67" gradientUnits="userSpaceOnUse">
<stop stop-color="#00124C"/>
<stop offset="0.36" stop-color="#001559"/>
<stop offset="1" stop-color="#001E7D"/>
</linearGradient>
<linearGradient id="paint4_linear_630_4189" x1="254.711" y1="475.21" x2="256.901" y2="475.21" gradientUnits="userSpaceOnUse">
<stop stop-color="#00124C"/>
<stop offset="0.36" stop-color="#001559"/>
<stop offset="1" stop-color="#001E7D"/>
</linearGradient>
<linearGradient id="paint5_linear_630_4189" x1="131.148" y1="-1.00301" x2="155.788" y2="-1.003" gradientUnits="userSpaceOnUse">
<stop stop-color="#00124C"/>
<stop offset="0.36" stop-color="#001559"/>
<stop offset="1" stop-color="#001E7D"/>
</linearGradient>
<linearGradient id="paint6_linear_630_4189" x1="133.07" y1="474.13" x2="136.21" y2="474.13" gradientUnits="userSpaceOnUse">
<stop stop-color="#00124C"/>
<stop offset="0.36" stop-color="#001559"/>
<stop offset="1" stop-color="#001E7D"/>
</linearGradient>
<linearGradient id="paint7_linear_630_4189" x1="135.41" y1="475.12" x2="138.57" y2="475.12" gradientUnits="userSpaceOnUse">
<stop stop-color="#00124C"/>
<stop offset="0.36" stop-color="#001559"/>
<stop offset="1" stop-color="#001E7D"/>
</linearGradient>
<linearGradient id="paint8_linear_630_4189" x1="138.52" y1="476.15" x2="140.46" y2="476.15" gradientUnits="userSpaceOnUse">
<stop stop-color="#00124C"/>
<stop offset="0.36" stop-color="#001559"/>
<stop offset="1" stop-color="#001E7D"/>
</linearGradient>
<linearGradient id="paint9_linear_630_4189" x1="190.22" y1="356.44" x2="199.57" y2="508.87" gradientUnits="userSpaceOnUse">
<stop stop-color="#FA4E8F"/>
<stop offset="0.04" stop-color="#FA5795"/>
<stop offset="0.18" stop-color="#FC77AA"/>
<stop offset="0.32" stop-color="#FD90BA"/>
<stop offset="0.48" stop-color="#FEA2C6"/>
<stop offset="0.64" stop-color="#FEADCD"/>
<stop offset="0.82" stop-color="#FFB1D0"/>
</linearGradient>
<linearGradient id="paint10_linear_630_4189" x1="189.15" y1="515.33" x2="201.85" y2="369.75" gradientUnits="userSpaceOnUse">
<stop stop-color="#00124C"/>
<stop offset="0.36" stop-color="#001559"/>
<stop offset="1" stop-color="#001E7D"/>
</linearGradient>
<clipPath id="clip0_630_4189">
<rect width="390" height="596.01" fill="white" transform="translate(0 -1)"/>
</clipPath>
<clipPath id="clip1_630_4189">
<rect width="19.8813" height="18.5894" fill="white" transform="translate(29.2324 78.1361) rotate(-45)"/>
</clipPath>
<clipPath id="clip2_630_4189">
<rect width="19.8813" height="18.5894" fill="white" transform="translate(78.6479 90.0627) rotate(-45)"/>
</clipPath>
<clipPath id="clip3_630_4189">
<rect width="33.1356" height="30.9823" fill="white" transform="translate(49.5698 34.4304) rotate(-45)"/>
</clipPath>
<clipPath id="clip4_630_4189">
<rect width="11.9226" height="11.1478" fill="white" transform="translate(106.78 562.772) rotate(135)"/>
</clipPath>
<clipPath id="clip5_630_4189">
<rect width="11.9226" height="11.1478" fill="white" transform="translate(77.146 555.62) rotate(135)"/>
</clipPath>
<clipPath id="clip6_630_4189">
<rect width="19.871" height="18.5797" fill="white" transform="translate(94.5835 588.982) rotate(135)"/>
</clipPath>
<clipPath id="clip7_630_4189">
<rect width="16.8377" height="15.7435" fill="white" transform="translate(301.896 149.895) rotate(-45)"/>
</clipPath>
<clipPath id="clip8_630_4189">
<rect width="16.8377" height="15.7435" fill="white" transform="translate(343.746 159.996) rotate(-45)"/>
</clipPath>
<clipPath id="clip9_630_4189">
<rect width="28.0628" height="26.2392" fill="white" transform="translate(319.12 112.881) rotate(-45)"/>
</clipPath>
<clipPath id="clip10_630_4189">
<rect width="15.4103" height="14.4089" fill="white" transform="translate(47.0562 365.056) rotate(-45)"/>
</clipPath>
<clipPath id="clip11_630_4189">
<rect width="15.4103" height="14.4089" fill="white" transform="translate(85.3589 374.301) rotate(-45)"/>
</clipPath>
<clipPath id="clip12_630_4189">
<rect width="25.6838" height="24.0148" fill="white" transform="translate(62.8203 331.18) rotate(-45)"/>
</clipPath>
<clipPath id="clip13_630_4189">
<rect width="12.7123" height="11.8862" fill="white" transform="translate(288.971 446.971) rotate(-45)"/>
</clipPath>
<clipPath id="clip14_630_4189">
<rect width="12.7123" height="11.8862" fill="white" transform="translate(320.567 454.597) rotate(-45)"/>
</clipPath>
<clipPath id="clip15_630_4189">
<rect width="21.1871" height="19.8103" fill="white" transform="translate(301.975 419.025) rotate(-45)"/>
</clipPath>
</defs>
</svg>
