<svg width="342" height="267" viewBox="0 0 342 267" fill="none" xmlns="http://www.w3.org/2000/svg">
<path d="M327 0H13V253H327V0Z" fill="#FE40B4"/>
<path d="M327 0H13V253H327V0Z" fill="black" fill-opacity="0.2"/>
<rect y="251" width="342" height="16" rx="3" fill="#FDF001"/>
<path d="M42.2292 92.38L52.8228 86.825C54.5087 85.942 56.4739 87.3655 56.1517 89.2386L54.1275 100.996C53.9986 101.74 54.2456 102.495 54.7879 103.019L63.3626 111.346C64.7264 112.668 63.9747 114.975 62.0901 115.248L50.2455 116.966C49.4992 117.073 48.8495 117.544 48.5166 118.218L43.2172 128.916C42.3742 130.618 39.9419 130.618 39.0989 128.916L33.7995 118.218C33.4666 117.544 32.8169 117.073 32.0706 116.966L20.226 115.248C18.3414 114.975 17.5897 112.668 18.9535 111.346L27.5282 103.019C28.0705 102.495 28.3175 101.735 28.1886 100.996L26.1644 89.2386C25.8423 87.3709 27.8128 85.9473 29.4934 86.825L40.0869 92.38C40.758 92.7279 41.5527 92.7279 42.2239 92.38H42.2292Z" fill="#FF9FDA"/>
<path d="M184.364 169.985C184.289 170.268 182.828 175.781 180.203 182.754C179.73 184.006 179.22 185.307 178.678 186.634C178.522 187.003 178.367 187.378 178.211 187.752C176.155 192.622 174.007 196.856 171.757 200.468C171.022 201.651 170.275 202.764 169.523 203.813C167.864 206.119 166.146 208.11 164.369 209.796C164.138 210.015 163.907 210.229 163.676 210.438C162.866 211.171 162.039 211.835 161.196 212.44C160.111 213.226 159 213.906 157.867 214.489C154.715 216.1 151.429 216.914 148.138 216.914C145.625 216.914 143.112 216.443 140.642 215.495C131.418 211.969 122.532 204.166 114.226 192.307C108.464 184.081 104.99 176.706 104.845 176.396C102.204 170.75 104.652 164.044 110.317 161.411C115.976 158.784 122.698 161.219 125.34 166.854C125.41 167.004 128.304 173.073 132.97 179.677C138.14 186.992 143.445 192.087 148.009 194.137C149.534 193.018 153.024 189.101 157.137 179.516C159.021 175.133 160.455 170.937 161.357 168.058C161.829 166.549 162.157 165.404 162.334 164.783C162.425 164.456 162.474 164.28 162.474 164.269C163.445 160.582 166.135 157.799 169.47 156.557C169.851 156.413 170.248 156.29 170.646 156.193C171.086 156.081 171.542 155.995 171.993 155.937C173.389 155.76 174.839 155.846 176.283 156.22C176.713 156.333 177.132 156.466 177.54 156.627C178.882 157.146 180.079 157.906 181.089 158.843C184.058 161.577 185.454 165.816 184.359 169.985H184.364Z" fill="#001E7D"/>
<path d="M237.16 173.897C237.101 175.085 237.02 176.327 236.913 177.611C236.779 179.184 236.607 180.827 236.403 182.545C236.263 183.701 236.113 184.889 235.941 186.115L235.85 186.693L235.034 191.729L234.534 194.833L234.518 194.929L234.443 195.395L234.432 195.469L234.266 196.508L234.255 196.577L229.24 227.574L228.65 231.219L227.866 236.078L227.211 240.119L226.287 245.85L225.981 247.75L225.509 250.677H156.906C156.686 250.565 156.466 250.447 156.251 250.33C158.57 243.801 161.078 237.646 162.753 231.32C163.107 229.977 163.424 228.629 163.698 227.264C164.052 225.476 164.321 223.667 164.487 221.827C164.573 220.895 164.632 219.959 164.659 219.012C164.718 217.042 164.659 215.025 164.439 212.948C164.369 212.29 164.283 211.626 164.186 210.963C164.186 210.963 163.999 210.781 163.693 210.449C163.44 210.176 163.107 209.801 162.726 209.336C160.272 206.355 155.832 199.676 158.184 192.697C159.816 187.854 161.062 182.69 162.28 177.659C162.608 176.305 162.935 174.956 163.263 173.629C163.746 171.692 164.24 169.787 164.766 167.956C164.884 167.544 165.003 167.132 165.126 166.731C165.722 164.756 166.356 162.867 167.07 161.101C167.558 159.886 168.235 158.81 169.046 157.842C169.54 157.258 170.077 156.713 170.662 156.21C170.834 156.06 171.011 155.91 171.188 155.765C174.624 152.993 179.306 151.249 183.527 149.413C184.128 149.151 184.724 148.888 185.304 148.616C185.76 148.407 186.2 148.193 186.635 147.973C187.043 147.77 187.441 147.561 187.822 147.347C187.988 147.256 188.16 147.16 188.321 147.064C189.057 146.635 189.739 146.18 190.356 145.699C190.383 145.677 190.415 145.651 190.448 145.629C190.48 145.608 190.507 145.581 190.539 145.56L209.379 144.719C209.379 144.719 210.775 145.64 213.036 146.876C214.357 147.599 215.968 148.423 217.777 149.236C218.829 149.713 219.946 150.178 221.106 150.617C223.066 151.361 225.154 152.019 227.264 152.485C230.218 153.132 232.424 154.497 233.998 156.595C234.073 156.697 234.148 156.804 234.223 156.911C234.84 157.794 235.356 158.805 235.775 159.934C236.312 161.379 236.693 163.028 236.929 164.874C237.079 166.025 237.176 167.25 237.224 168.551C237.284 170.215 237.267 172.002 237.171 173.924L237.16 173.897Z" fill="#001E7D"/>
<path d="M187.129 175.893H197.057V179.447C196.644 179.125 196.096 178.96 195.511 179.056C194.641 179.195 193.954 179.918 193.852 180.79C193.717 181.994 194.657 183.011 195.833 183.011C196.295 183.011 196.713 183.123 197.052 182.861V187.447H192.837H189.68H185.465V177.552C185.465 176.637 186.211 175.898 187.124 175.898L187.129 175.893Z" fill="#FE40B4"/>
<path d="M205.927 191.135C205.927 191.595 205.771 192.012 205.508 192.35H209.723V202.245C209.723 203.16 208.977 203.898 208.064 203.898H198.136V200.345C198.55 200.666 199.097 200.832 199.683 200.736C200.552 200.596 201.24 199.874 201.342 199.002C201.476 197.798 200.536 196.781 199.36 196.781C198.899 196.781 198.48 196.936 198.142 197.198V192.344H202.356C202.034 191.932 201.868 191.386 201.965 190.803C202.104 189.936 202.829 189.251 203.704 189.149C204.912 189.015 205.932 189.952 205.932 191.124L205.927 191.135Z" fill="#FE40B4"/>
<path d="M198.523 179.88C198.985 179.88 199.403 180.035 199.742 180.298V176.096H209.669C210.588 176.096 211.329 176.84 211.329 177.75V187.645H207.763C208.086 187.233 208.252 186.687 208.155 186.104C208.016 185.237 207.291 184.552 206.416 184.45C205.208 184.317 204.187 185.253 204.187 186.425C204.187 186.885 204.343 187.303 204.606 187.64H199.736V183.439C199.323 183.76 198.775 183.926 198.19 183.83C197.32 183.69 196.633 182.968 196.531 182.096C196.397 180.892 197.336 179.875 198.512 179.875L198.523 179.88Z" fill="#FDF001" stroke="#00124C" stroke-width="0.5" stroke-miterlimit="10"/>
<path d="M197.895 200.917C197.433 200.917 197.014 200.762 196.676 200.5V203.979H186.748C185.83 203.979 185.089 203.235 185.089 202.325V192.43H188.654C188.332 192.842 188.166 193.388 188.262 193.971C188.402 194.838 189.127 195.523 190.002 195.625C191.21 195.758 192.23 194.822 192.23 193.65C192.23 193.19 192.074 192.772 191.811 192.435H196.681V197.364C197.095 197.043 197.642 196.877 198.228 196.973C199.097 197.112 199.785 197.835 199.887 198.707C200.021 199.911 199.081 200.928 197.905 200.928L197.895 200.917Z" fill="#FDF001" stroke="#00124C" stroke-width="0.5" stroke-miterlimit="10"/>
<path d="M234.427 195.475L234.261 196.513L234.25 196.577C225.401 187.228 218.411 171.671 218.33 171.494C218.228 171.275 218.33 171.012 218.55 170.916C218.77 170.814 219.033 170.916 219.135 171.135C219.211 171.307 225.911 186.211 234.422 195.475H234.427Z" fill="#00124C"/>
<path d="M194.845 181.871C194.206 181.871 193.825 181.828 193.782 181.828C193.54 181.801 193.363 181.582 193.39 181.341C193.417 181.1 193.637 180.924 193.879 180.95C193.905 180.95 196.794 181.255 200.359 180.078C205.127 178.51 208.778 175.197 211.216 170.231C211.323 170.011 211.586 169.921 211.806 170.028C212.027 170.135 212.118 170.397 212.01 170.616C208.826 177.097 204.048 179.8 200.595 180.924C198.152 181.721 196.042 181.865 194.84 181.865L194.845 181.871Z" fill="#00124C"/>
<path d="M202.41 209.314C200.816 209.314 199.339 209.111 198.04 208.817C193.035 207.687 189.61 205.081 189.465 204.969C189.272 204.819 189.234 204.546 189.384 204.353C189.535 204.161 189.809 204.123 190.002 204.273C190.034 204.3 193.444 206.885 198.265 207.966C204.687 209.405 210.453 207.645 215.404 202.726C215.576 202.555 215.855 202.555 216.027 202.726C216.198 202.898 216.198 203.176 216.027 203.347C211.377 207.971 206.502 209.314 202.405 209.314H202.41Z" fill="#00124C"/>
<path d="M299.272 165.473C299.18 165.821 296.995 174.079 293.118 183.246C287.191 197.268 280.538 206.012 272.774 209.978C269.617 211.594 266.337 212.402 263.045 212.402C260.532 212.402 258.02 211.931 255.55 210.984C255.093 210.808 254.637 210.626 254.186 210.428C253.413 210.096 252.645 209.732 251.877 209.341C249.37 208.062 246.889 206.457 244.441 204.541C243.657 203.925 242.878 203.283 242.105 202.603C239.667 200.473 237.262 198.028 234.9 195.266C234.776 195.122 234.653 194.977 234.529 194.827C234.411 194.688 234.293 194.544 234.169 194.399C232.467 192.36 230.792 190.161 229.133 187.795C228.87 187.415 228.607 187.041 228.354 186.666C227.603 185.564 226.894 184.483 226.228 183.434C224.44 180.619 222.98 178.066 221.906 176.08C221.417 175.181 221.009 174.405 220.687 173.769C220.113 172.65 219.796 171.97 219.753 171.879C219.248 170.798 218.931 169.68 218.786 168.561C218.625 167.325 218.674 166.078 218.921 164.879C219.608 161.497 221.847 158.468 225.23 156.895C225.621 156.713 226.013 156.558 226.416 156.424C227.195 156.162 227.995 155.99 228.789 155.905C230.567 155.712 232.355 155.947 233.992 156.563C234.105 156.606 234.212 156.649 234.325 156.691C235.619 157.221 236.811 157.992 237.842 158.971C238.819 159.908 239.646 161.037 240.258 162.332C240.29 162.402 240.983 163.857 242.218 166.084C242.663 166.892 243.184 167.807 243.77 168.797C244.908 170.713 246.293 172.902 247.888 175.155C253.058 182.47 258.363 187.56 262.927 189.61C264.441 188.502 267.883 184.643 271.953 175.219C275.368 167.32 277.37 159.806 277.392 159.731C278.976 153.705 285.156 150.109 291.202 151.688C297.247 153.266 300.861 159.431 299.277 165.457L299.272 165.473Z" fill="#001E7D"/>
<path d="M193.239 83.8441L193.921 81.6178C195.414 76.7478 202.356 76.8174 203.752 81.7142L204.391 83.9512C205.374 87.403 209.53 88.7944 212.408 86.6324L214.271 85.2302C218.351 82.1637 223.925 86.2845 222.164 91.0689L221.358 93.2524C220.118 96.6239 222.658 100.183 226.26 100.119L228.596 100.076C233.702 99.9848 235.785 106.589 231.544 109.425L229.605 110.72C226.615 112.722 226.572 117.089 229.52 119.144L231.431 120.476C235.619 123.398 233.407 129.954 228.301 129.762L225.965 129.676C222.368 129.542 219.753 133.053 220.929 136.446L221.691 138.645C223.356 143.462 217.702 147.47 213.68 144.323L211.844 142.884C209.014 140.668 204.832 141.974 203.779 145.41L203.097 147.636C201.605 152.506 194.662 152.437 193.266 147.54L192.627 145.303C191.645 141.851 187.489 140.46 184.611 142.622L182.748 144.024C178.667 147.09 173.094 142.97 174.855 138.185L175.661 136.002C176.901 132.63 174.361 129.071 170.758 129.135L168.423 129.178C163.317 129.269 161.233 122.665 165.475 119.829L167.413 118.534C170.404 116.532 170.447 112.165 167.499 110.11L165.588 108.778C161.4 105.856 163.612 99.2998 168.718 99.4924L171.054 99.5781C174.651 99.7119 177.266 96.2012 176.09 92.8082L175.328 90.6087C173.663 85.7921 179.317 81.7837 183.339 84.9305L185.175 86.3701C188.004 88.5857 192.187 87.2799 193.239 83.8441Z" fill="#FF9FDA"/>
<path d="M183.424 120.08C183.424 120.08 180.471 116.607 178.807 120.08C177.142 123.554 178.42 130.586 182.914 129.435L183.43 120.08H183.424Z" fill="#FFF983"/>
<path d="M190.877 137.912L190.485 147.374C190.485 147.374 195.946 155.765 211.071 145.742C208.204 142.552 208.096 136.489 209.256 132.812C209.256 132.812 208.145 133.208 206.335 134.273C205.981 134.482 205.557 134.616 205.127 134.792C201.347 136.376 195.656 138.276 190.872 137.907L190.877 137.912Z" fill="#FDF001"/>
<path d="M189.277 165.334C200.128 167.989 210.303 156.429 213.031 146.849C210.77 145.613 209.374 144.693 209.374 144.693L190.533 145.533C190.501 145.56 190.469 145.581 190.442 145.602C190.41 145.629 190.378 145.651 190.351 145.672C189.594 146.266 188.74 146.812 187.817 147.326C185.706 154.599 183.006 163.793 189.282 165.329L189.277 165.334Z" fill="#FDF001"/>
<path d="M190.877 137.912L190.689 142.397C194.802 141.482 202.195 139.25 206.335 134.273C205.959 134.439 205.557 134.615 205.127 134.792C201.347 136.376 195.656 138.276 190.872 137.907L190.877 137.912Z" fill="#FFF983"/>
<path d="M182.657 134.776C190.732 143.103 208.66 133.165 209.235 132.844C209.245 132.844 209.251 132.833 209.251 132.833C209.417 132.089 209.567 131.346 209.702 130.618C210.845 124.426 210.915 118.667 210.282 113.203C210.582 107.44 207.141 102.072 201.701 100.092C196.064 98.0421 191.006 100.515 187.972 101.446C183.387 102.853 180.504 108.762 180.477 117.18C180.445 127.508 180.659 132.705 182.662 134.776H182.657Z" fill="#FDF001"/>
<path d="M193.873 113.739C193.873 113.739 192.198 113.904 192.783 115.435C193.374 116.966 196.735 115.28 199.14 118.1C199.14 118.1 200.166 114.429 193.868 113.739H193.873Z" fill="#00124C"/>
<path d="M205.739 128.499C205.793 128.616 207.205 131.881 209.235 132.839C209.24 132.833 209.245 132.828 209.245 132.828C209.412 132.084 209.562 131.34 209.696 130.612C209.621 130.602 207.57 130.243 205.739 128.493V128.499Z" fill="#FFF983"/>
<path d="M207.71 121.065C207.71 121.065 212.005 115.317 215.151 119.834C217.745 123.559 212.843 133.262 207.71 129.933V121.065Z" fill="#FDF001"/>
<path d="M186.174 92.744C178.667 93.8518 175.628 102.987 180.767 108.558C181.798 109.671 182.904 110.458 183.945 110.356C184.128 110.34 184.294 110.303 184.439 110.244C187.425 109.109 190.689 109.142 193.433 110.774C194.582 111.459 195.699 111.887 196.665 111.86C200.961 111.721 196.311 104.657 196.311 104.657C196.311 104.657 200.832 114.006 205.079 115.328C209.326 116.65 207.382 109.81 207.382 109.81C207.382 109.81 208.145 118.384 210.84 118.973C215.28 119.947 214.577 107.654 207.865 100.739C203.651 96.3992 193.771 91.6255 186.174 92.7493V92.744Z" fill="#FF9FDA"/>
<path d="M185.583 114.209C185.583 114.209 187.258 114.375 186.673 115.906C186.082 117.437 182.721 115.751 180.316 118.571C180.316 118.571 179.29 114.9 185.588 114.209H185.583Z" fill="#00124C"/>
<path d="M183.494 120.546C184.443 120.546 185.212 119.779 185.212 118.833C185.212 117.888 184.443 117.121 183.494 117.121C182.545 117.121 181.776 117.888 181.776 118.833C181.776 119.779 182.545 120.546 183.494 120.546Z" fill="#00124C"/>
<path d="M195.575 119.813C196.524 119.813 197.293 119.046 197.293 118.1C197.293 117.154 196.524 116.388 195.575 116.388C194.626 116.388 193.857 117.154 193.857 118.1C193.857 119.046 194.626 119.813 195.575 119.813Z" fill="#00124C"/>
<path d="M188.708 135.301C190.063 135.301 191.162 134.524 191.162 133.567C191.162 132.609 190.063 131.833 188.708 131.833C187.353 131.833 186.254 132.609 186.254 133.567C186.254 134.524 187.353 135.301 188.708 135.301Z" fill="#FF9FDA"/>
<path d="M184.439 132.796C189.11 134.915 191.264 133.058 195.097 130.58C195.14 130.548 195.205 130.602 195.178 130.65C193.825 133.588 190.227 135.017 187.161 134.166C186.157 133.893 185.229 133.443 184.391 132.887C184.337 132.849 184.386 132.764 184.445 132.796H184.439Z" fill="#00124C"/>
<path d="M183.355 128.001C184.224 128.001 184.928 127.299 184.928 126.433C184.928 125.567 184.224 124.865 183.355 124.865C182.486 124.865 181.781 125.567 181.781 126.433C181.781 127.299 182.486 128.001 183.355 128.001Z" fill="#FE40B4"/>
<path d="M196.74 126.433C197.609 126.433 198.313 125.731 198.313 124.865C198.313 123.999 197.609 123.297 196.74 123.297C195.871 123.297 195.167 123.999 195.167 124.865C195.167 125.731 195.871 126.433 196.74 126.433Z" fill="#FE40B4"/>
<path d="M189.229 121.67C189.712 124.041 188.949 126.77 186.898 128.167L186.796 127.883L189.771 128.044L186.796 128.204C186.646 128.215 186.571 128.006 186.694 127.921C187.527 127.15 188.139 126.176 188.359 125.116C188.595 124.057 188.466 122.949 188.176 121.895C187.999 121.177 189.089 120.937 189.229 121.67Z" fill="#00124C"/>
<path d="M110.419 117.18C110.419 117.18 105.694 105.529 111.02 97.0894C113.801 92.685 118.027 91.8715 120.792 91.8769C122.634 91.8769 124.465 91.5986 126.172 90.9135C129.265 89.6773 134.682 88.3126 140.036 90.8547C146.785 94.0603 155.091 104.839 147.155 117.41L144.959 115.499C144.959 115.499 139.74 99.7545 131.788 100.809C123.836 101.868 120.035 118.699 120.035 118.699L110.419 117.185V117.18Z" fill="#5570C6"/>
<path d="M166.688 250.672H89.2155C86.2786 242.334 84.5872 234.344 83.7067 226.365C83.5295 224.775 83.3899 223.186 83.2771 221.596C82.2462 207.27 83.5563 192.745 84.7054 176.032C85.6987 161.572 90.9605 152.661 100.099 151.329C103.433 150.842 106.22 150.06 108.459 149.231C109.076 149.006 109.651 148.77 110.188 148.54C110.489 148.412 110.778 148.278 111.052 148.15C111.466 147.957 111.852 147.764 112.207 147.577C114.381 146.442 115.46 145.527 115.46 145.527H136.052C137.807 147.871 140.019 149.348 142.393 150.392C142.656 150.51 142.924 150.617 143.193 150.724C143.574 150.874 143.96 151.018 144.347 151.152C146.135 151.773 147.971 152.222 149.743 152.683C154.844 154.01 159.381 155.396 160.611 161.031C161.572 165.468 158.42 174.041 157.969 190.407C157.91 192.59 157.899 194.902 157.947 197.364C157.98 198.9 158.033 200.494 158.125 202.148C158.205 203.695 158.312 205.3 158.447 206.954C158.57 208.495 158.721 210.085 158.898 211.717C159.053 213.146 159.225 214.618 159.424 216.121C159.628 217.663 159.853 219.247 160.106 220.868C161.464 229.581 163.564 239.465 166.694 250.672H166.688Z" fill="#5570C6"/>
<path d="M134.876 171.841C131.423 171.841 127.724 170.98 123.874 169.289C117.254 166.372 112.395 161.914 112.346 161.871C112.169 161.705 112.158 161.427 112.325 161.251C112.491 161.074 112.77 161.063 112.948 161.229C112.996 161.272 117.759 165.639 124.25 168.497C132.878 172.291 140.299 171.751 146.312 166.897C146.5 166.741 146.779 166.773 146.935 166.961C147.091 167.148 147.059 167.426 146.871 167.582C143.402 170.38 139.418 171.815 135.026 171.847C134.972 171.847 134.924 171.847 134.87 171.847L134.876 171.841Z" fill="#00124C"/>
<path d="M130.178 155.899C125.378 155.899 119.788 152.11 119.482 151.896C119.283 151.757 119.23 151.484 119.369 151.286C119.509 151.088 119.783 151.034 119.981 151.173C120.073 151.237 129.41 157.569 133.759 153.838C133.941 153.678 134.221 153.699 134.382 153.887C134.543 154.069 134.521 154.347 134.333 154.507C133.158 155.519 131.708 155.899 130.178 155.899Z" fill="#00124C"/>
<path d="M166.689 250.672H91.8787L90.5471 244.999C90.5471 244.999 104.593 236.998 110.671 217.722C112.797 210.978 113.125 200.607 112.652 189.973C112.636 189.663 112.625 189.352 112.609 189.047C111.659 169.589 108.131 149.584 108.131 149.584C108.239 149.461 108.346 149.343 108.454 149.231C110.467 147.16 112.137 147.561 112.201 147.577C115.901 156.242 118.687 184.98 119.197 190.514C119.246 191.038 119.273 191.359 119.278 191.429C119.278 191.44 119.278 191.445 119.278 191.445C128.513 193.821 151.638 189.93 151.638 189.93C151.638 189.93 151.638 189.92 151.638 189.914C151.692 189.625 151.741 189.326 151.778 189.015V188.994C153.249 177.434 145.249 153.801 144.331 151.152C144.277 150.992 144.245 150.911 144.245 150.911C146.054 151.008 147.794 151.414 149.453 152.238C149.544 152.378 149.636 152.527 149.727 152.683C153.26 158.693 157.271 176.3 157.872 187.715C157.888 188.02 157.904 188.325 157.915 188.619C157.942 189.235 157.953 189.834 157.953 190.407C157.894 192.59 157.883 194.902 157.931 197.364C157.963 198.9 158.017 200.495 158.108 202.148C158.189 203.695 158.296 205.3 158.431 206.954C158.554 208.495 158.704 210.085 158.882 211.717C159.037 213.146 159.209 214.618 159.408 216.121C159.612 217.663 159.837 219.247 160.09 220.868C161.448 229.581 163.547 239.465 166.678 250.672H166.689Z" fill="#FF9FDA"/>
<path d="M147.816 240.193C146.012 240.193 144.175 240.043 142.301 239.744C137.689 239.011 132.862 237.368 127.971 234.868C119.649 230.619 113.909 225.278 113.85 225.225C113.673 225.059 113.662 224.78 113.828 224.604C113.995 224.427 114.274 224.416 114.451 224.582C114.505 224.636 120.175 229.907 128.39 234.098C135.933 237.946 147.236 241.644 158.253 237.421C158.479 237.335 158.737 237.448 158.823 237.673C158.908 237.897 158.796 238.154 158.57 238.24C155.182 239.54 151.579 240.193 147.81 240.193H147.816Z" fill="#00124C"/>
<path d="M145.84 243.303C145.781 243.11 145.598 242.987 145.399 242.987C141.845 243.067 138.462 242.725 135.52 242.222C126.424 240.67 119.439 237.325 119.369 237.293C119.149 237.186 118.886 237.277 118.779 237.496C118.671 237.715 118.763 237.978 118.983 238.085C119.052 238.117 126.135 241.51 135.348 243.089C138.854 243.688 142.226 243.956 145.426 243.886C145.727 243.881 145.931 243.586 145.845 243.303H145.84Z" fill="#00124C"/>
<path d="M156.992 155.487L166.195 158.398C166.195 158.398 163.891 160.4 162.613 164.697C161.276 169.203 159.419 173.902 159.419 173.902C159.419 173.902 158.237 157.868 156.992 155.492V155.487Z" fill="#5570C6"/>
<path d="M79.1643 206.836C79.0301 206.836 78.8959 206.772 78.8099 206.654C78.665 206.456 78.7079 206.183 78.9066 206.039C91.7767 196.614 104.137 182.459 104.26 182.315C104.421 182.133 104.7 182.111 104.883 182.272C105.066 182.433 105.087 182.711 104.926 182.893C104.802 183.037 92.378 197.267 79.4274 206.751C79.3469 206.809 79.2556 206.836 79.1643 206.836Z" fill="#00124C"/>
<path d="M98.1768 189.936C97.9513 189.936 97.758 189.764 97.7365 189.534C97.715 189.293 97.8922 189.079 98.1338 189.053L107.208 188.212C107.449 188.186 107.664 188.368 107.691 188.608C107.713 188.849 107.535 189.063 107.294 189.09L98.2197 189.93C98.2197 189.93 98.1929 189.93 98.1768 189.93V189.936Z" fill="#00124C"/>
<path d="M57.0108 215.763C55.2443 215.763 53.4671 215.554 51.7113 215.126C48.2052 214.28 44.7259 212.584 41.3701 210.09C36.7472 206.654 32.1404 201.511 27.6732 194.806C20.6717 184.295 16.0649 173.078 15.8716 172.607C13.5198 166.838 16.3011 160.261 22.0892 157.916C27.8772 155.572 34.476 158.345 36.8278 164.114C36.8546 164.183 40.1084 172.066 44.9783 179.933C51.1422 189.887 55.6094 192.836 56.941 193.195C59.4699 192.167 66.1654 188.346 77.1133 174.485C83.7819 166.046 88.4585 158.366 88.5068 158.286C91.7391 152.955 98.6977 151.254 104.04 154.475C109.388 157.697 111.095 164.633 107.863 169.958C107.643 170.322 102.408 178.911 94.8909 188.432C83.943 202.293 74.1333 210.759 64.9036 214.307C62.3747 215.281 59.7061 215.768 57.0162 215.768L57.0108 215.763Z" fill="#5570C6"/>
<path d="M110.671 148.46C110.671 148.46 108.727 144.901 106.139 145.886C103.551 146.871 101.704 153.132 101.205 155.369C100.706 157.612 105.007 154.315 105.941 152.105C106.875 149.895 108.137 149.589 108.137 149.589L110.671 148.46Z" fill="#FDF001"/>
<path d="M101.849 150.762C101.849 150.762 99.9058 147.203 97.3178 148.187C94.7244 149.172 92.8828 155.434 92.3835 157.671C91.8841 159.908 96.1849 156.616 97.1191 154.406C98.0534 152.19 99.3152 151.891 99.3152 151.891L101.849 150.762Z" fill="#FDF001"/>
<path d="M97.3983 151.339C97.3983 151.339 95.6802 148.193 93.3929 149.065C91.1056 149.932 89.4733 155.466 89.033 157.446C88.5928 159.426 92.3942 156.514 93.2157 154.561C94.0372 152.608 95.154 152.34 95.154 152.34L97.393 151.345L97.3983 151.339Z" fill="#FDF001"/>
<path d="M106.37 149.787C106.37 149.787 104.427 146.229 101.839 147.213C99.2507 148.198 97.4037 154.459 96.9043 156.696C96.405 158.939 100.706 155.642 101.64 153.432C102.574 151.222 103.836 150.917 103.836 150.917L106.37 149.787Z" fill="#FDF001"/>
<path d="M136.052 140.358V145.538C135.445 146.025 134.827 146.453 134.215 146.823C125.195 152.222 115.466 145.538 115.466 145.538V127.583L133.603 138.832L136.057 140.358H136.052Z" fill="#FDF001"/>
<path d="M136.052 140.358V145.538C135.445 146.025 134.827 146.453 134.215 146.823C126.537 143.794 120.943 135.761 120.943 135.761L133.598 138.838L136.052 140.363V140.358Z" fill="#FFF983"/>
<path d="M142.543 117.41C142.543 117.41 145.496 113.936 147.161 117.41C148.825 120.883 147.547 127.915 143.053 126.764L142.538 117.41H142.543Z" fill="#FFF983"/>
<path d="M145.689 129.596C145.689 129.596 145.705 140.299 134.532 140.278C123.428 140.256 115.863 131.565 115.471 131.164C115.466 131.158 115.46 131.153 115.46 131.153L115.337 128.905L114.703 117.228L114.365 110.988C114.365 110.988 112.948 99.7493 123.665 97.6996C131.493 96.2011 138.838 97.4962 142.543 101.569C142.661 101.703 142.779 101.836 142.887 101.976C144.052 103.404 144.798 105.149 144.997 107.21L145.346 118.421L145.432 121.167L145.695 129.601L145.689 129.596Z" fill="#FDF001"/>
<path d="M113.64 113.888C113.64 113.888 114.591 119.251 117.152 120.54H122.247C122.247 120.54 118.483 113.476 121.361 110.608C124.755 107.231 122.596 102.746 122.596 102.746C122.596 102.746 134.86 98.5183 139.391 102.746C143.923 106.974 143.193 115.242 143.193 115.242L147.155 117.41C147.155 117.41 148.073 99.8134 140.959 96.2866C133.85 92.7652 117.614 94.8791 114.301 100.75C110.988 106.621 113.635 113.888 113.635 113.888H113.64Z" fill="#5570C6"/>
<path d="M124.341 112.978C124.91 114.231 126.376 114.798 127.643 114.257C128.384 113.942 129.254 113.631 130.172 113.428C131.477 113.144 132.282 111.839 131.928 110.559C131.928 110.559 126.725 110.083 124.341 112.978Z" fill="#5570C6"/>
<path d="M144.965 112.978C144.395 114.231 142.93 114.798 141.662 114.257C140.922 113.942 140.052 113.631 139.134 113.428C137.829 113.144 137.023 111.839 137.378 110.559C137.378 110.559 142.581 110.083 144.965 112.978Z" fill="#5570C6"/>
<path d="M118.967 126.818C118.918 126.936 117.501 130.205 115.471 131.163L115.461 131.153L115.337 128.905C115.337 128.905 117.098 128.605 118.967 126.823V126.818Z" fill="#FFF983"/>
<path d="M117.001 119.384C117.001 119.384 112.706 113.637 109.56 118.154C106.966 121.878 111.868 131.581 117.001 128.252V119.384Z" fill="#FDF001"/>
<path d="M85.5376 233.632C86.751 239.476 88.3779 245.347 90.0316 250.677H22.6744L21.1227 241.151L20.9777 240.268L16.9454 215.479L13.5037 194.308L13.1117 191.911L12.1721 186.115C9.3801 165.773 10.5345 154.716 20.8596 152.458C24.8221 151.591 28.6933 150.028 31.8182 148.53C33.0317 147.946 34.1377 147.368 35.0881 146.849C36.0277 146.336 36.876 145.886 37.5418 145.538C38.4761 145.051 39.056 144.757 39.056 144.757L57.5853 145.533C57.6175 145.56 57.6497 145.581 57.6765 145.602C58.7665 146.475 60.0659 147.24 61.4887 147.952C62.4766 148.45 63.5237 148.92 64.5975 149.391C65.1129 149.616 65.6391 149.841 66.1707 150.066C68.0821 150.879 70.0473 151.698 71.9104 152.629C72.8823 153.116 73.8273 153.625 74.7185 154.181C75.6689 154.77 76.5709 155.412 77.3871 156.118C78.9764 157.488 80.2596 159.099 81.0596 161.079C83.5939 167.368 85.2047 175.245 87.186 183.053C88.0128 186.318 88.9041 189.566 89.9511 192.681C93.1243 202.095 83.9429 210.952 83.9429 210.952C83.6583 212.862 83.5349 214.912 83.5402 217.058C83.5402 217.909 83.5671 218.776 83.6154 219.659C83.6852 221.088 83.8087 222.554 83.9751 224.042C84.0718 224.904 84.1845 225.771 84.308 226.643C84.5174 228.093 84.759 229.554 85.0275 231.026C85.1886 231.893 85.3604 232.76 85.5376 233.627V233.632Z" fill="#FF9FDA"/>
<path d="M78.1441 161.17H25.3053V163.771H78.1441V161.17Z" fill="#E6D7CF"/>
<path d="M83.6154 219.659H25.3053V217.058H83.5402C83.5402 217.909 83.5671 218.776 83.6154 219.659Z" fill="#E6D7CF"/>
<path d="M84.308 226.648H25.3053V224.047H83.9751C84.0718 224.909 84.1845 225.776 84.308 226.648Z" fill="#E6D7CF"/>
<path d="M91.8786 250.672H74.8796C74.8796 250.672 66.8257 223.245 65.4619 202.635C64.0981 182.021 58.3101 162.573 58.3101 162.573C58.3101 162.573 59.4376 161.743 60.6457 160.106C60.737 159.982 60.8282 159.854 60.9195 159.72C62.584 157.307 64.2485 153.378 63.1853 148.011C63.1853 148.011 76.7212 152.003 80.716 160.352C84.7053 168.7 89.4893 189.818 91.0142 195.882C92.539 201.94 85.1939 209.18 84.6033 213.526C84.0127 217.866 91.884 250.672 91.884 250.672H91.8786Z" fill="#001E7D"/>
<path d="M78.6059 250.672H77.8596C72.9896 236.03 67.717 206.232 67.0137 195.63C66.262 184.295 61.2954 162.904 60.6404 160.105C60.5974 159.918 60.5706 159.816 60.5706 159.8L60.9142 159.72L61.2578 159.64C61.3169 159.875 66.917 183.444 67.7224 195.582C68.4258 206.216 73.7413 236.201 78.6059 250.672Z" fill="#00124C"/>
<path d="M82.7766 180.966L68.6429 181.806L68.779 184.081L82.9126 183.242L82.7766 180.966Z" fill="#5570C6"/>
<path d="M65.4566 250.672H21.4395C21.4395 250.672 18.0085 244.967 16.9025 240.161C15.7964 235.355 18.626 214.762 15.0232 203.679C11.4205 192.596 12.7467 159.704 14.336 155.846C15.9253 151.987 18.9159 152.303 22.7335 151.537C26.5457 150.767 35.5767 146.175 35.5767 146.175L46.9649 159.174L47.4643 159.747L51.7489 164.638C51.7489 164.638 55.9584 182.839 55.9584 194.495C55.9584 206.157 65.4513 250.667 65.4513 250.667L65.4566 250.672Z" fill="#001E7D"/>
<path d="M62.1706 250.672H61.435C56.7423 235.254 53.016 208.019 52.3019 194.522C51.4804 179.034 46.6695 159.453 46.6212 159.255L46.9648 159.169L47.3085 159.089C47.3085 159.089 47.3729 159.335 47.4696 159.742C48.3125 163.29 52.2697 180.527 53.0106 194.485C53.7301 208.014 57.4725 235.393 62.1706 250.672Z" fill="#00124C"/>
<path d="M47.5344 183.1L33.4008 183.94L33.5368 186.215L47.6705 185.376L47.5344 183.1Z" fill="#5570C6"/>
<path d="M75.6528 154.968L88.6142 158.414L83.1268 167.121L75.6528 154.968Z" fill="#001E7D"/>
<path d="M40.5862 135.113C40.5862 135.113 28.2584 130.457 28.5215 116.912C28.7846 103.367 36.323 94.1246 50.2723 95.971C50.2723 95.971 54.6751 134.353 40.5808 135.113H40.5862Z" fill="#FF9FDA"/>
<path d="M68.6029 106.128C68.6029 106.128 71.4594 117.297 69.6284 119.245C67.7975 121.193 65.0968 117.014 65.0968 117.014C65.0968 117.014 66.4284 106.578 68.6029 106.134V106.128Z" fill="#FF9FDA"/>
<path d="M65.4567 120.915C65.4567 120.915 68.4097 117.442 70.0742 120.915C71.7441 124.388 70.4608 131.421 65.9667 130.27L65.4513 120.915H65.4567Z" fill="#FFF64F"/>
<path d="M58.0041 138.747V148.327C58.0041 148.327 52.9355 156.6 37.8103 146.577C40.6775 143.387 40.7634 137.227 39.6036 133.551C39.6036 133.551 40.7097 134.294 42.546 135.108C42.9218 135.274 43.3245 135.45 43.7541 135.627C47.534 137.211 53.2254 139.111 58.0094 138.742L58.0041 138.747Z" fill="#FDF001"/>
<path d="M37.8103 146.576C37.8103 146.576 50.1059 166.217 56.694 163.643C63.282 161.063 58.0041 147.042 58.0041 147.042L37.8103 146.582V146.576Z" fill="#FDF001"/>
<path d="M58.0041 143.232C58.0041 143.232 66.6271 147.866 64.5063 155.225C62.3854 162.583 58.3048 162.573 58.3048 162.573C58.3048 162.573 58.5142 154.342 58.0041 152.239C57.8269 152.281 57.8001 147.55 58.0041 143.226V143.232Z" fill="#5570C6"/>
<path d="M64.3022 155.899C64.3022 155.899 68.807 152.865 67.4217 149.209C66.0364 145.554 62.2565 146.17 62.2565 146.17C62.2565 146.17 65.2901 152.506 64.1894 156.22" fill="#5570C6"/>
<path d="M58.0041 138.747V143.232C53.8913 142.317 46.6803 140.085 42.546 135.108C42.9219 135.274 43.3246 135.45 43.7541 135.627C47.5341 137.211 53.2255 139.111 58.0095 138.742L58.0041 138.747Z" fill="#FFF983"/>
<path d="M66.2244 135.611C58.1491 143.938 40.2211 134 39.6466 133.679C39.6359 133.679 39.6305 133.668 39.6305 133.668C39.4641 132.924 39.3137 132.181 39.1795 131.453C38.0359 125.261 37.9661 119.502 38.5996 114.038C38.299 108.275 41.7407 102.907 47.1797 100.927C52.8174 98.8771 57.8753 101.35 60.9089 102.281C65.4942 103.688 68.3775 109.596 68.4044 118.015C68.4366 128.343 68.2218 133.54 66.2191 135.611H66.2244Z" fill="#FDF001"/>
<path d="M55.4806 112.545C55.4806 112.545 57.1558 112.711 56.5706 114.242C55.98 115.772 52.6188 114.086 50.2134 116.907C50.2134 116.907 49.1879 113.236 55.486 112.545H55.4806Z" fill="#00124C"/>
<path d="M62.9117 112.545C62.9117 112.545 61.2365 112.711 61.8217 114.242C62.4123 115.772 65.7735 114.086 68.1789 116.907C68.1789 116.907 69.2044 113.236 62.9063 112.545H62.9117Z" fill="#00124C"/>
<path d="M60.2109 133.679C61.314 133.679 62.2082 132.955 62.2082 132.063C62.2082 131.17 61.314 130.447 60.2109 130.447C59.1078 130.447 58.2135 131.17 58.2135 132.063C58.2135 132.955 59.1078 133.679 60.2109 133.679Z" fill="#FF9FDA"/>
<path d="M55.792 129.713C57.886 131.362 60.329 132.234 62.9922 131.993C63.862 131.94 64.7425 131.811 65.6714 131.71C62.5519 133.925 57.5585 133.353 55.7974 129.719L55.792 129.713Z" fill="#00124C"/>
<path d="M43.1421 129.333C43.0884 129.451 41.6763 132.716 39.6467 133.674L39.636 133.663C39.4695 132.919 39.3192 132.175 39.1849 131.447C39.2601 131.437 41.3112 131.078 43.1421 129.328V129.333Z" fill="#FFF983"/>
<path d="M41.1715 121.9C41.1715 121.9 36.8761 116.152 33.7297 120.669C31.1364 124.394 36.017 134.305 41.2681 130.682L41.1715 121.9Z" fill="#FDF001"/>
<path d="M60.5813 98.5131C64.721 99.6798 68.2486 102.447 70.2084 106.262C71.438 108.655 72.646 111.871 69.0325 111.967C66.0687 112.048 63.3894 111.266 61.0914 110.137C56.9947 108.119 52.1946 108.692 48.4253 111.272C47.3354 112.015 45.9501 112.497 44.2051 112.497C36.4304 112.497 35.8183 106.744 39.6573 102.864C42.7876 99.7065 51.3945 95.9229 60.5813 98.5131Z" fill="#FF9FDA"/>
<path d="M43.4319 109.505C43.4319 109.505 39.7916 114.777 42.0896 119.534C44.3877 124.292 45.091 136.954 43.8668 139.871C43.8668 139.871 42.6641 125.999 40.1406 122.306C38.0734 119.272 36.221 117.003 36.8009 113.064C37.1982 110.362 38.7231 107.595 43.4266 109.5L43.4319 109.505Z" fill="#FF9FDA"/>
<path d="M94.558 204.803H82.6758C81.543 204.803 80.6248 205.718 80.6248 206.847V233.172C80.6248 234.301 81.543 235.216 82.6758 235.216H94.558C95.6907 235.216 96.609 234.301 96.609 233.172V206.847C96.609 205.718 95.6907 204.803 94.558 204.803Z" fill="#00124C" stroke="url(#paint0_linear_431_1240)" stroke-miterlimit="10"/>
<path d="M0.128897 217.834C0.32219 221.596 1.25107 224.7 2.67392 227.194C6.87805 234.606 15.3615 236.656 21.4448 234.671C22.2073 234.424 22.9321 234.114 23.6033 233.739C27.6463 231.508 35.6787 231.112 44.7259 231.652C54.004 232.203 63.1854 225.749 63.1854 225.749C60.6887 224.272 63.1854 213.184 63.1854 213.184C59.3518 209.833 47.8991 214.141 40.699 211.225C34.0357 208.528 22.7603 208.843 22.7603 208.843C25.6114 206.264 27.0664 198.541 26.6154 192.414C26.1805 186.43 28.6289 181.94 31.6088 169.894C34.5888 157.847 23.9308 151.532 16.7628 154.256C9.58952 156.986 4.48873 176.091 3.65113 187.624C2.81352 199.151 -0.708706 201.49 0.128897 217.829V217.834Z" fill="#001E7D"/>
<path d="M58.3799 229.233C55.4967 226.359 54.1758 222.426 54.557 217.855C54.847 214.425 55.9691 211.883 56.0175 211.776C56.0819 211.637 56.2161 211.54 56.3665 211.53C56.549 211.514 60.8176 211.187 63.4109 212.836C63.5613 212.932 63.6364 213.114 63.5935 213.29C63.572 213.376 61.3814 222.121 63.5398 225.53C63.6579 225.717 63.6096 225.963 63.427 226.092L58.9222 229.276C58.8471 229.329 58.7665 229.351 58.6806 229.351C58.5732 229.351 58.4658 229.308 58.3853 229.228L58.3799 229.233ZM62.7022 213.387C60.6726 212.263 57.5853 212.306 56.6886 212.343C56.0873 213.858 53.0697 222.426 58.7289 228.388L62.6324 225.626C60.7961 222.11 62.3317 214.966 62.7022 213.381V213.387Z" fill="#00124C"/>
<path d="M63.9424 215.56C64.1143 215.56 64.2753 215.453 64.3344 215.281C64.4149 215.062 64.2968 214.826 64.082 214.746C63.8834 214.677 59.2282 213.039 55.5933 213.665C55.3677 213.703 55.212 213.922 55.2496 214.147C55.2872 214.377 55.5073 214.527 55.7329 214.489C59.1584 213.901 63.7491 215.517 63.7975 215.533C63.8458 215.549 63.8941 215.56 63.9371 215.56H63.9424Z" fill="#00124C"/>
<path d="M64.4472 218.733C64.6459 218.733 64.8231 218.589 64.8607 218.391C64.9036 218.166 64.7479 217.947 64.5224 217.904C64.2486 217.856 57.8055 216.726 55.1155 217.465C54.89 217.524 54.7611 217.754 54.8255 217.979C54.8846 218.203 55.1209 218.332 55.341 218.268C57.8431 217.577 64.313 218.712 64.3774 218.723C64.4043 218.723 64.4258 218.728 64.4526 218.728L64.4472 218.733Z" fill="#00124C"/>
<path d="M55.2228 222.297C55.2818 222.297 55.3409 222.287 55.3946 222.26C58.4336 220.869 63.5021 221.398 63.5505 221.404C63.7813 221.43 63.9854 221.265 64.0122 221.034C64.0391 220.804 63.8726 220.601 63.6417 220.574C63.427 220.553 58.2993 220.012 55.0456 221.5C54.8362 221.596 54.7449 221.843 54.8415 222.051C54.9113 222.206 55.0617 222.297 55.2228 222.297Z" fill="#00124C"/>
<path d="M56.3879 226.247C56.4577 226.247 56.5275 226.231 56.592 226.194C59.1692 224.738 63.9854 223.635 64.0337 223.625C64.2592 223.571 64.3988 223.352 64.3505 223.127C64.2968 222.902 64.0767 222.763 63.8512 222.811C63.6472 222.859 58.8631 223.951 56.1839 225.466C55.9799 225.578 55.9101 225.835 56.0282 226.033C56.1033 226.167 56.2483 226.247 56.3933 226.247H56.3879Z" fill="#00124C"/>
<path d="M25.1442 207.912C25.3322 207.912 25.504 207.784 25.5523 207.596C25.5684 207.532 27.1577 201.083 27.1094 195.213C27.104 194.308 27.0825 193.43 27.0664 192.58C26.9644 187.838 26.8785 184.092 28.8759 181.234C31.4585 177.531 32.9726 171.275 31.99 168.369C31.9149 168.149 31.6786 168.031 31.4585 168.106C31.2383 168.181 31.1202 168.417 31.1954 168.636C32.092 171.291 30.5994 177.295 28.1832 180.758C26.0355 183.84 26.1214 187.897 26.2235 192.596C26.2396 193.441 26.261 194.319 26.2664 195.218C26.3147 200.982 24.7469 207.329 24.7308 207.393C24.6771 207.618 24.8113 207.843 25.0368 207.901C25.0691 207.912 25.1066 207.912 25.1389 207.912H25.1442Z" fill="#001E7D"/>
<path d="M27.8665 182.534C27.8665 182.534 27.888 182.534 27.8987 182.534C30.1377 182.363 33.0639 180.26 33.1874 180.169C33.3754 180.035 33.4183 179.773 33.2787 179.586C33.1445 179.398 32.8814 179.355 32.6935 179.495C32.6666 179.516 29.8316 181.55 27.8289 181.705C27.598 181.721 27.4262 181.924 27.4423 182.154C27.4584 182.374 27.641 182.54 27.8611 182.54L27.8665 182.534Z" fill="#00124C"/>
<path d="M21.5308 234.071L21.6704 234.906C22.3469 234.671 23.0449 234.408 23.7536 234.13C30.0249 231.652 36.9674 231.797 44.9998 231.968C45.8857 231.984 46.7877 232.005 47.7059 232.022C57.1289 232.193 63.223 226.301 63.4807 226.049C63.6472 225.889 63.6472 225.621 63.4807 225.46C63.3197 225.294 63.0512 225.294 62.8848 225.46C62.8257 225.519 56.7799 231.358 47.7112 231.192C46.7985 231.176 45.8964 231.155 45.0105 231.138C36.8868 230.967 29.8692 230.817 23.4368 233.359C22.7872 233.616 22.1482 233.857 21.52 234.077L21.5308 234.071Z" fill="#00124C"/>
<path d="M14.1534 215.806C14.2983 215.806 14.4433 215.731 14.5185 215.592C17.0742 211.086 25.2033 208.217 25.2838 208.19C25.504 208.116 25.6167 207.875 25.5415 207.661C25.4664 207.441 25.2248 207.329 25.01 207.404C24.6664 207.522 16.4997 210.401 13.7936 215.185C13.6809 215.388 13.7507 215.64 13.9547 215.752C14.0191 215.79 14.0889 215.806 14.1587 215.806H14.1534Z" fill="#00124C"/>
<path d="M22.7496 209.202C22.9106 209.202 23.0664 209.105 23.1362 208.945C23.2274 208.731 23.1254 208.49 22.916 208.399C20.8005 207.505 15.7212 207.928 15.5064 207.95C15.2756 207.971 15.1037 208.174 15.1252 208.399C15.1467 208.629 15.3454 208.8 15.5762 208.779C15.6246 208.779 20.6663 208.351 22.5885 209.164C22.6422 209.186 22.6959 209.196 22.7496 209.196V209.202Z" fill="#00124C"/>
<path d="M61.9719 222.592C62.3907 223.86 63.6417 225.321 64.9626 226.493C66.7022 228.04 70.3909 227.66 72.399 228.211C75.4165 229.035 83.8301 233.14 86.0262 231.754C88.2222 230.373 80.5764 228.099 79.0193 227.601C77.4622 227.103 76.587 226.194 76.587 226.194C76.587 226.194 91.7927 230.02 93.4089 228.73C95.025 227.441 87.7765 224.262 85.3013 223.48C85.3013 223.48 93.8277 225.803 94.5955 224.658C96.1365 222.367 86.1711 219.37 86.1711 219.37C86.1711 219.37 94.0532 220.639 94.2035 218.728C94.3592 216.71 85.6503 215.389 85.6503 215.389C85.6503 215.389 91.8357 213.045 92.7162 211.455C93.5968 209.871 78.9173 211.3 76.4206 211.503C73.9239 211.707 67.1425 211.701 63.9693 212.509C61.8108 213.061 60.6457 218.567 61.9665 222.587L61.9719 222.592Z" fill="#FDF001"/>
<path d="M2.66858 227.194C6.8727 234.606 15.3561 236.656 21.4395 234.67C18.7334 230.988 12.0111 223.732 2.96926 227.082C2.86724 227.119 2.7706 227.157 2.67395 227.194H2.66858Z" fill="#5570C6"/>
<path d="M40.0009 141.739C40.0009 141.739 42.6909 149.766 50.7394 151.537C52.7797 155.846 53.3059 163.402 51.7542 164.644C51.7542 164.644 44.7151 162.102 40.0009 156.118C35.2867 150.135 35.0827 146.855 35.0827 146.855C35.0827 146.855 34.8142 141.262 40.0009 141.739Z" fill="#5570C6"/>
<path d="M18.1427 149.199C18.1427 149.199 16.8272 152.292 16.7198 152.977C16.7198 152.977 21.1495 156.836 27.8664 155.6C34.5834 154.369 42.5513 158.447 42.5513 158.447C42.5513 158.447 38.8251 145.372 33.4075 144.762C27.9845 144.152 18.1481 149.199 18.1481 149.199H18.1427Z" fill="#5570C6"/>
<path d="M315.712 207.093C315.712 208.164 315.701 209.229 315.68 210.294C315.658 211.45 315.621 212.6 315.578 213.751C315.084 225.947 313.119 237.871 308.227 250.677H229.412C233.563 236.314 236.355 224.064 238.212 213.612C238.422 212.434 238.615 211.284 238.803 210.154C238.98 209.068 239.152 208.003 239.308 206.96C239.485 205.782 239.651 204.626 239.802 203.502C239.963 202.314 240.113 201.158 240.247 200.024C240.392 198.841 240.521 197.69 240.634 196.567C241.037 192.697 241.289 189.176 241.439 185.96C242.191 169.953 240.344 161.599 240.918 157.071C241.579 151.837 244.784 150.023 248.768 148.599C249.558 148.316 250.379 148.048 251.217 147.775C255.265 146.448 259.7 144.928 262.975 140.545H282.493C282.493 140.545 285.483 143.087 291.55 144.976C292.689 145.335 293.934 145.661 295.293 145.95C296.173 146.138 297.097 146.304 298.069 146.448C298.101 146.448 298.139 146.459 298.171 146.464C307.492 147.823 312.861 156.916 313.876 171.671C314.101 174.999 314.338 178.242 314.563 181.416C314.638 182.518 314.713 183.61 314.789 184.697C315.068 188.796 315.309 192.788 315.476 196.695C315.524 197.856 315.567 199.007 315.605 200.152C315.642 201.319 315.669 202.48 315.685 203.631C315.707 204.787 315.718 205.943 315.712 207.088V207.093Z" fill="#FF9FDA"/>
<path d="M315.605 200.158L240.253 200.024C240.398 198.841 240.526 197.691 240.639 196.567L315.476 196.7C315.524 197.862 315.567 199.012 315.605 200.158Z" fill="#001E7D"/>
<path d="M315.712 207.093L239.308 206.954C239.485 205.777 239.651 204.621 239.802 203.497L315.68 203.636C315.701 204.792 315.712 205.948 315.707 207.093H315.712Z" fill="#001E7D"/>
<path d="M315.685 210.294C315.664 211.45 315.626 212.6 315.583 213.751L238.218 213.612C238.427 212.434 238.62 211.284 238.808 210.155L315.685 210.294Z" fill="#001E7D"/>
<path d="M295.234 243.945C291.277 243.945 287.32 243.292 283.411 241.986C277.682 240.07 272.033 236.763 266.616 232.15C257.413 224.31 251.99 215.276 251.936 215.19C251.813 214.982 251.882 214.709 252.092 214.586C252.301 214.463 252.575 214.532 252.699 214.741C252.752 214.832 258.111 223.753 267.206 231.497C275.566 238.609 288.887 246.166 304.904 241.735C305.14 241.671 305.382 241.81 305.446 242.04C305.511 242.275 305.371 242.516 305.14 242.58C301.843 243.49 298.536 243.945 295.228 243.945H295.234Z" fill="#00124C"/>
<path d="M281.757 248.151C281.757 248.151 281.746 248.151 281.741 248.151C273.29 247.857 266.326 242.666 261.977 238.358C257.284 233.713 254.529 229.067 254.503 229.024C254.379 228.816 254.449 228.543 254.658 228.42C254.868 228.297 255.142 228.366 255.265 228.575C255.292 228.623 257.998 233.183 262.616 237.748C266.852 241.938 273.617 246.985 281.773 247.268C282.015 247.279 282.208 247.482 282.197 247.723C282.186 247.959 281.993 248.146 281.757 248.146V248.151Z" fill="#00124C"/>
<path d="M284.2 187.148C284.2 187.148 284.189 187.148 284.184 187.148C275.749 187.763 268.269 183.348 263.475 179.532C258.304 175.417 255.066 171.098 255.034 171.055C254.889 170.862 254.932 170.584 255.125 170.44C255.324 170.295 255.598 170.338 255.743 170.531C255.775 170.573 258.959 174.817 264.044 178.858C268.71 182.567 275.98 186.864 284.119 186.27C284.361 186.254 284.576 186.436 284.592 186.677C284.608 186.912 284.436 187.121 284.2 187.148Z" fill="#00124C"/>
<path d="M269.741 151.752C269.418 151.752 269.096 151.73 268.785 151.687C265.612 151.243 264.205 148.712 264.146 148.605C264.028 148.391 264.108 148.123 264.323 148.005C264.538 147.888 264.806 147.968 264.919 148.182C264.935 148.214 266.192 150.44 268.919 150.815C271.947 151.232 275.743 149.21 279.888 144.971C280.06 144.794 280.339 144.794 280.511 144.966C280.688 145.137 280.688 145.415 280.517 145.586C276.511 149.681 272.887 151.752 269.735 151.752H269.741Z" fill="#00124C"/>
<path d="M268.624 160.7C273.902 160.7 278.632 157.435 282.31 151.254C285.048 146.646 286.229 142.119 286.278 141.926C286.353 141.642 286.181 141.353 285.897 141.284C285.612 141.209 285.322 141.38 285.252 141.664C285.242 141.707 284.055 146.255 281.386 150.729C277.864 156.638 273.574 159.635 268.624 159.635C266.127 159.635 264.189 158.8 262.852 157.151C259.088 152.506 261.101 142.911 261.123 142.814C261.182 142.531 261.005 142.247 260.715 142.188C260.43 142.129 260.146 142.306 260.087 142.595C259.995 143.007 257.95 152.784 262.025 157.815C263.571 159.72 265.789 160.689 268.618 160.689L268.624 160.7Z" fill="#00124C"/>
<path d="M244.838 150.44L230.164 153.443C230.164 153.443 232.677 154.727 233.987 156.568C233.987 156.568 239.018 158.88 241.031 163.895C241.031 163.895 241.139 154.01 244.838 150.435V150.44Z" fill="#FF9FDA"/>
<path d="M262.981 136.703V141.883C263.587 142.37 264.205 142.798 264.817 143.168C273.837 148.567 283.566 141.883 283.566 141.883V123.928L265.429 135.177L262.975 136.703H262.981Z" fill="#FDF001"/>
<path d="M262.981 136.703V141.883C263.587 142.37 264.205 142.798 264.817 143.167C272.495 140.138 278.09 132.105 278.09 132.105L265.434 135.183L262.981 136.708V136.703Z" fill="#FFF983"/>
<path d="M260.36 93.7607C260.36 93.7607 249.337 95.7141 253.869 108.804C253.869 108.804 260.65 97.1805 260.36 93.7607Z" fill="#5570C6"/>
<path d="M256.489 113.755C256.489 113.755 253.536 110.281 251.872 113.755C250.202 117.228 251.485 124.26 255.979 123.109L256.495 113.755H256.489Z" fill="#FDF001"/>
<path d="M253.338 125.935C253.338 125.935 253.321 136.638 264.495 136.617C275.598 136.596 283.164 127.904 283.556 127.503C283.561 127.498 283.566 127.492 283.566 127.492L283.69 125.245L284.323 113.567L284.662 107.327C284.662 107.327 286.079 96.0886 275.362 94.0389C267.534 92.5405 260.189 93.8356 256.484 97.9082C255.12 99.412 254.25 101.29 254.03 103.549L253.681 114.761L253.595 117.506L253.332 125.94L253.338 125.935Z" fill="#FDF001"/>
<path d="M256.489 97.9031C256.57 98.2777 256.731 98.6041 256.978 98.861C259.147 101.13 264.28 100.327 269.032 98.861C273.789 97.4 277.123 100.836 277.123 100.836C275.802 105.374 280.28 105.738 279.325 109.179C278.369 112.62 278.739 117.153 278.739 117.153L281.531 116.789C282.133 115.173 283.572 113.45 286.745 112.765C290.004 113.364 290.192 106.61 288.517 101.264C288.517 101.264 286.085 96.0835 275.368 94.0338C267.539 92.5353 260.194 93.8304 256.495 97.9031H256.489Z" fill="#5570C6"/>
<path d="M290.89 101.285C290.89 101.285 272.785 94.1568 260.414 93.7394C260.092 93.7287 259.77 93.7233 259.453 93.7233C258.164 93.7126 256.946 93.7929 255.829 93.9641C255.829 93.9641 258.186 87.6598 266.648 85.8082C267.609 85.5941 268.656 85.4443 269.784 85.364C271.271 85.2623 272.898 85.2837 274.691 85.471C274.75 85.471 274.809 85.4817 274.868 85.4871C275.335 85.5406 275.792 85.5995 276.232 85.6744C277.59 85.8938 278.825 86.2095 279.948 86.6002C280.243 86.7019 280.527 86.8089 280.801 86.9213C282.874 87.7562 284.528 88.8533 285.832 90.0788C286.262 90.4802 286.654 90.8923 287.013 91.3097C290.885 95.8426 290.885 101.296 290.885 101.296L290.89 101.285Z" fill="#001E7D"/>
<path d="M291.137 100.456C291.137 100.456 279.292 90.7262 264.092 91.4755H264.087C264.055 91.4755 264.028 91.4755 263.995 91.4808C262.573 91.5558 261.123 91.7217 259.646 91.9946C246.862 93.5466 239.614 94.9862 240.253 99.2996C240.961 104.089 256.489 97.9028 256.489 97.9028L267.528 96.6666C273.972 97.2874 281.95 99.4388 289.392 105.294C289.392 105.294 292.184 104.041 291.148 100.456H291.137Z" fill="#FF9FDA"/>
<path d="M273.751 106.931C273.504 105.802 272.559 103.678 268.935 103.517C268.495 103.496 268.092 103.79 267.979 104.213C267.834 104.748 268.173 105.299 268.72 105.395C269.681 105.567 271.077 106.091 271.877 107.654C272.124 108.141 272.753 108.296 273.22 108.007L273.327 107.937C273.671 107.723 273.843 107.317 273.757 106.921L273.751 106.931Z" fill="#5570C6"/>
<path d="M255.174 106.931C255.421 105.802 256.366 103.678 259.99 103.517C260.43 103.496 260.833 103.79 260.946 104.213C261.091 104.748 260.752 105.299 260.205 105.395C259.244 105.567 257.848 106.091 257.048 107.654C256.801 108.141 256.172 108.296 255.705 108.007L255.598 107.937C255.254 107.723 255.082 107.317 255.168 106.921L255.174 106.931Z" fill="#5570C6"/>
<path d="M256.972 115.301C257.981 115.301 258.798 114.487 258.798 113.482C258.798 112.477 257.981 111.662 256.972 111.662C255.964 111.662 255.147 112.477 255.147 113.482C255.147 114.487 255.964 115.301 256.972 115.301Z" fill="#00222E"/>
<path d="M268.726 115.269C269.725 115.269 270.535 114.462 270.535 113.466C270.535 112.47 269.725 111.662 268.726 111.662C267.726 111.662 266.916 112.47 266.916 113.466C266.916 114.462 267.726 115.269 268.726 115.269Z" fill="#00124C"/>
<path d="M280.06 123.163C280.109 123.281 281.526 126.55 283.556 127.508C283.561 127.503 283.566 127.498 283.566 127.498L283.69 125.25C283.69 125.25 281.929 124.95 280.06 123.168V123.163Z" fill="#FFF983"/>
<path d="M282.031 115.724C282.031 115.724 286.326 109.976 289.473 114.493C292.066 118.218 287.164 127.921 282.031 124.592V115.724Z" fill="#FDF001"/>
<path d="M285.392 123.757C285.938 123.757 286.38 123.316 286.38 122.772C286.38 122.228 285.938 121.788 285.392 121.788C284.846 121.788 284.404 122.228 284.404 122.772C284.404 123.316 284.846 123.757 285.392 123.757Z" fill="#001E7D"/>
<path d="M247.329 111.662L253.853 111.887V112.791H253.842L247.302 112.561C247.055 112.55 246.857 112.342 246.867 112.096C246.878 111.849 247.077 111.646 247.335 111.662H247.329Z" fill="white"/>
<path d="M264.087 111.4C264.087 107.199 267.518 103.779 271.732 103.779C275.947 103.779 279.378 107.199 279.378 111.4C279.378 115.601 275.947 119.021 271.732 119.021C267.518 119.021 264.087 115.601 264.087 111.4ZM264.994 111.4C264.994 115.103 268.017 118.116 271.732 118.116C275.448 118.116 278.471 115.103 278.471 111.4C278.471 107.696 275.448 104.683 271.732 104.683C268.017 104.683 264.994 107.696 264.994 111.4Z" fill="white"/>
<path d="M246.03 111.4C246.03 107.199 249.461 103.779 253.676 103.779C257.891 103.779 261.322 107.199 261.322 111.4C261.322 115.601 257.891 119.021 253.676 119.021C249.461 119.021 246.03 115.601 246.03 111.4ZM246.937 111.4C246.937 115.103 249.96 118.116 253.676 118.116C257.391 118.116 260.414 115.103 260.414 111.4C260.414 107.696 257.391 104.683 253.676 104.683C249.96 104.683 246.937 107.696 246.937 111.4Z" fill="white"/>
<path d="M288.367 112.989C288.42 112.989 288.474 112.979 288.528 112.957C288.758 112.866 288.877 112.609 288.791 112.374C286.777 107.124 278.761 109.816 278.68 109.842C278.444 109.923 278.321 110.18 278.401 110.415C278.482 110.651 278.739 110.774 278.976 110.693C279.051 110.667 286.246 108.258 287.948 112.695C288.017 112.877 288.189 112.984 288.372 112.984L288.367 112.989Z" fill="white"/>
<path d="M260.817 110.217C260.935 110.217 261.053 110.174 261.139 110.083C262.395 108.815 264.296 109.891 264.312 109.901C264.527 110.024 264.806 109.955 264.93 109.735C265.053 109.521 264.983 109.243 264.763 109.12C263.893 108.617 261.885 108.039 260.489 109.446C260.312 109.623 260.317 109.907 260.489 110.083C260.575 110.169 260.693 110.212 260.806 110.212L260.817 110.217Z" fill="white"/>
<path d="M263.008 107.343C262.991 110.875 261.467 114.092 260.747 117.49C260.527 118.56 260.146 119.722 260.275 120.792L259.947 120.551C261.488 120.273 264.253 121.263 264.71 122.836C264.731 122.965 264.608 123.206 264.489 123.168C264.484 123.157 264.489 123.141 264.489 123.136C264.672 122.97 264.565 122.74 264.42 122.574C263.228 121.413 261.365 120.883 259.738 121.156L259.705 120.872C259.603 118.464 260.983 116.388 261.429 114.081C261.912 111.865 262.283 109.355 263.002 107.338L263.008 107.343Z" fill="#00124C"/>
<path d="M264.226 133.631C264.991 133.631 265.612 132.962 265.612 132.138C265.612 131.313 264.991 130.645 264.226 130.645C263.461 130.645 262.841 131.313 262.841 132.138C262.841 132.962 263.461 133.631 264.226 133.631Z" fill="#FF9FDA"/>
<path d="M269.51 128.552C268.076 133.229 262.154 132.962 258.728 130.693C258.696 130.682 258.707 130.628 258.744 130.645C262.723 132.239 267.163 132.651 269.504 128.557L269.51 128.552Z" fill="#00124C"/>
<path d="M341.984 216.866C341.968 217.235 341.941 217.61 341.909 217.979C341.871 218.348 341.812 218.728 341.753 219.097L341.656 219.654C341.619 219.841 341.576 220.023 341.533 220.205C341.442 220.569 341.345 220.938 341.243 221.297C341.13 221.65 341.007 222.003 340.878 222.351C340.813 222.522 340.749 222.704 340.679 222.87L340.459 223.368C339.868 224.711 339.133 225.862 338.36 226.911C337.973 227.403 337.565 227.917 337.162 228.34C336.958 228.554 336.754 228.778 336.545 228.987L335.927 229.576C334.274 231.106 332.636 232.177 331.063 233.065C329.49 233.948 327.965 234.623 326.488 235.222C325.747 235.522 325.017 235.784 324.292 236.035C323.573 236.292 322.859 236.522 322.15 236.742C320.732 237.17 319.347 237.555 317.967 237.892C315.213 238.572 312.512 239.075 309.838 239.498C307.164 239.91 304.512 240.231 301.876 240.483C299.239 240.745 296.619 240.948 293.999 241.087C291.379 241.232 288.769 241.312 286.154 241.371C283.54 241.419 280.925 241.414 278.262 241.355C273.902 241.259 270.444 237.657 270.535 233.311C270.626 229.1 274.02 225.728 278.203 225.61H278.262C280.608 225.546 282.997 225.396 285.376 225.209C287.76 225.022 290.138 224.77 292.512 224.465C294.879 224.165 297.231 223.817 299.556 223.411C301.881 222.999 304.168 222.522 306.407 221.987C308.641 221.447 310.826 220.842 312.877 220.146C313.903 219.798 314.907 219.44 315.846 219.033C316.313 218.83 316.775 218.632 317.216 218.418C317.656 218.204 318.075 217.984 318.472 217.759C319.095 217.417 319.653 217.053 320.126 216.694C320.265 216.593 320.394 216.491 320.512 216.389L320.534 216.373L320.271 215.817L319.798 214.821C319.551 214.302 319.31 213.783 319.036 213.253C318.499 212.194 317.978 211.139 317.43 210.074L315.755 206.879C314.606 204.744 313.479 202.598 312.292 200.452L311.411 198.841L310.515 197.236L309.264 194.977L308.732 194.014L308.082 192.847L306.933 190.792L305.113 187.576C303.905 185.43 302.686 183.278 301.462 181.138L294.138 168.299L294.09 168.219C291.003 162.803 292.904 155.921 298.332 152.843C303.712 149.793 310.547 151.634 313.677 156.938L315.615 160.229L317.505 163.509C318.139 164.601 318.751 165.704 319.374 166.801C319.991 167.898 320.614 169 321.221 170.103C322.445 172.308 323.653 174.523 324.861 176.744L326.649 180.089L326.886 180.538L328.421 183.45C329.012 184.568 329.597 185.697 330.177 186.827L331.047 188.523L331.433 189.294L331.906 190.23C333.055 192.499 334.188 194.801 335.305 197.113L336.953 200.623C337.495 201.806 338.032 203.01 338.569 204.204C338.838 204.792 339.101 205.418 339.364 206.039L340.148 207.896L340.346 208.362L340.395 208.48L340.421 208.538L340.459 208.635L340.62 209.047C340.722 209.325 340.824 209.598 340.926 209.876C340.974 210.01 341.023 210.165 341.066 210.315L341.2 210.765C341.286 211.07 341.377 211.359 341.452 211.675C341.522 211.996 341.592 212.322 341.656 212.643L341.748 213.13C341.774 213.296 341.796 213.473 341.817 213.644C341.86 213.986 341.903 214.334 341.936 214.677C341.968 215.03 341.973 215.399 341.984 215.758C341.995 216.122 342 216.48 341.979 216.855L341.984 216.866Z" fill="#FDF001"/>
<path d="M290.01 160.903C291.529 150.51 304.19 146.207 312.018 153.239C313.892 154.92 315.82 157.167 317.672 160.154C325.973 173.533 328.781 177.68 328.781 177.68L305.011 191.969C305.011 191.969 288.893 170.279 289.951 161.326C289.967 161.187 289.983 161.047 290.004 160.908L290.01 160.903Z" fill="#FF9FDA"/>
<path d="M306.273 193.982C306.155 193.982 306.042 193.939 305.956 193.848C300.818 188.55 290.917 169.3 290.498 168.486C290.385 168.272 290.471 168.005 290.691 167.892C290.906 167.78 291.175 167.865 291.287 168.085C291.389 168.283 301.548 188.031 306.595 193.238C306.767 193.414 306.762 193.693 306.584 193.859C306.498 193.939 306.386 193.982 306.278 193.982H306.273Z" fill="#00124C"/>
<path d="M294.23 175.01C294.165 175.01 294.106 174.994 294.042 174.967L288.613 172.441C288.393 172.34 288.297 172.077 288.399 171.858C288.501 171.638 288.764 171.542 288.984 171.644L294.412 174.17C294.632 174.271 294.729 174.534 294.627 174.753C294.552 174.914 294.391 175.01 294.224 175.01H294.23Z" fill="#00124C"/>
<path d="M331.922 221.489C331.836 221.564 331.729 221.607 331.621 221.607C331.503 221.607 331.385 221.559 331.294 221.463C328.555 218.508 322.944 217.197 320.131 216.705C320.271 216.603 320.399 216.502 320.518 216.4L320.539 216.384L320.276 215.827C320.528 215.87 320.808 215.918 321.103 215.977C323.175 214.628 328.212 213.885 328.432 213.852C328.673 213.815 328.899 213.981 328.931 214.222C328.969 214.463 328.802 214.687 328.561 214.719C328.512 214.725 324.679 215.292 322.451 216.261C325.511 216.972 329.618 218.348 331.943 220.858C332.11 221.04 332.099 221.318 331.917 221.484L331.922 221.489Z" fill="#00222E"/>
<path d="M289.532 144.436C289.532 144.436 292.018 141.246 294.316 142.793C296.614 144.34 296.979 150.853 296.952 153.148C296.925 155.444 293.489 151.259 293.086 148.894C292.683 146.528 291.524 145.945 291.524 145.945L289.532 144.436Z" fill="#FDF001"/>
<path d="M297.333 147.24C297.333 147.24 300.002 144.184 302.316 145.699C304.635 147.219 305.081 153.726 305.081 156.022C305.081 158.318 301.596 154.176 301.161 151.816C300.727 149.456 299.561 148.888 299.561 148.888L297.328 147.24H297.333Z" fill="#FDF001"/>
<path d="M301.58 150.087C301.58 150.087 303.97 147.417 305.999 148.781C308.029 150.146 308.351 155.899 308.329 157.927C308.308 159.956 305.269 156.258 304.915 154.165C304.56 152.073 303.535 151.564 303.535 151.564L301.58 150.087Z" fill="#FDF001"/>
<path d="M293.199 146.534C293.199 146.534 295.905 143.51 298.203 145.057C300.501 146.603 300.866 153.116 300.839 155.412C300.812 157.708 297.376 153.523 296.973 151.158C296.571 148.792 295.411 148.209 295.411 148.209L293.199 146.534Z" fill="#FDF001"/>
<path d="M265.902 213.745H252.124C251.335 213.745 250.696 214.383 250.696 215.169V245.176C250.696 245.962 251.335 246.599 252.124 246.599H265.902C266.69 246.599 267.33 245.962 267.33 245.176V215.169C267.33 214.383 266.69 213.745 265.902 213.745Z" fill="#00124C"/>
<path d="M280.978 230.844C280.56 229.576 279.309 228.115 277.988 226.943C276.248 225.396 272.559 225.776 270.551 225.225C267.534 224.401 259.12 220.296 256.924 221.682C254.728 223.063 262.374 225.337 263.931 225.835C265.488 226.332 266.363 227.242 266.363 227.242C266.363 227.242 251.158 223.416 249.541 224.706C247.925 225.995 255.174 229.174 257.649 229.956C257.649 229.956 249.123 227.633 248.355 228.778C246.814 231.069 256.779 234.066 256.779 234.066C256.779 234.066 248.897 232.797 248.747 234.708C248.591 236.725 257.3 238.047 257.3 238.047C257.3 238.047 251.115 240.391 250.234 241.981C249.353 243.565 264.033 242.136 266.53 241.933C269.026 241.729 275.808 241.735 278.981 240.927C281.139 240.375 282.305 234.868 280.984 230.849L280.978 230.844Z" fill="#FDF001"/>
<path d="M286.987 224.706C286.987 224.706 289.118 234.21 286.928 241.451H282.901C282.901 241.451 285.172 234.002 282.901 224.706H286.987Z" fill="#5570C6"/>
<path d="M54.3959 120.053C55.1817 120.053 55.8187 119.418 55.8187 118.635C55.8187 117.852 55.1817 117.217 54.3959 117.217C53.6101 117.217 52.973 117.852 52.973 118.635C52.973 119.418 53.6101 120.053 54.3959 120.053Z" fill="#00124C"/>
<path d="M65.6714 119.781C66.3059 119.781 66.8204 119.268 66.8204 118.635C66.8204 118.003 66.3059 117.49 65.6714 117.49C65.0368 117.49 64.5223 118.003 64.5223 118.635C64.5223 119.268 65.0368 119.781 65.6714 119.781Z" fill="#00124C"/>
<path d="M48.9515 126.449C49.5268 126.449 49.9932 125.984 49.9932 125.411C49.9932 124.837 49.5268 124.372 48.9515 124.372C48.3763 124.372 47.9099 124.837 47.9099 125.411C47.9099 125.984 48.3763 126.449 48.9515 126.449Z" fill="#FE40B4"/>
<path d="M66.5144 126.449C66.9799 126.449 67.3573 126.073 67.3573 125.609C67.3573 125.144 66.9799 124.768 66.5144 124.768C66.0488 124.768 65.6714 125.144 65.6714 125.609C65.6714 126.073 66.0488 126.449 66.5144 126.449Z" fill="#FE40B4"/>
<path d="M60.0389 120.61C62.1866 121.9 65.9934 125.352 62.0256 126.963C61.945 126.995 61.8591 127 61.7786 126.979C61.0322 126.802 60.3342 126.524 59.6416 126.379C58.9758 126.235 58.3154 126.219 57.5906 126.486C57.5637 126.497 57.5315 126.486 57.5208 126.454C58.4604 125.031 60.694 125.394 62.0309 125.93H61.7088C64.1572 125.448 62.4014 123.147 61.3759 122.06C60.941 121.579 60.4577 121.14 59.9745 120.69C59.9262 120.653 59.9852 120.567 60.0389 120.605V120.61Z" fill="#00124C"/>
<path d="M140.449 210.7C140.642 210.577 140.857 210.481 141.029 210.342C141.249 210.16 141.517 210.165 141.764 210.106C142.027 210.042 142.274 210.155 142.511 210.245C143.101 210.47 143.429 210.957 143.606 211.519C143.751 211.979 143.703 212.456 143.542 212.916C143.305 213.601 143.074 214.286 142.838 214.966C142.742 215.239 142.634 215.506 142.538 215.774C142.403 216.148 142.285 216.528 142.146 216.898C142.076 217.074 142.119 217.213 142.231 217.347C142.672 217.856 143.123 218.359 143.552 218.872C143.917 219.306 144.288 219.739 144.615 220.205C145.104 220.89 145.587 221.591 145.942 222.356C146.103 222.699 146.21 223.063 146.344 223.421C146.355 223.453 146.36 223.486 146.377 223.512C146.586 223.93 146.597 224.385 146.645 224.834C146.704 225.375 146.666 225.904 146.505 226.418C146.339 226.953 146.081 227.456 145.77 227.927C145.442 228.42 145.077 228.891 144.717 229.356C144.428 229.731 144.127 230.09 143.821 230.448C143.622 230.684 143.413 230.914 143.193 231.122C142.983 231.32 142.758 231.497 142.538 231.684C142.436 231.77 142.344 231.872 142.237 231.952C142.001 232.123 141.759 232.289 141.512 232.455C141.26 232.626 141.018 232.803 140.755 232.958C140.529 233.092 140.293 233.204 140.052 233.301C139.703 233.445 139.343 233.584 138.983 233.697C138.639 233.804 138.29 233.879 137.941 233.948C137.678 234.002 137.405 234.034 137.082 234.082C136.717 234.018 136.315 233.943 135.907 233.873C135.246 233.761 134.677 233.45 134.151 233.065C133.077 232.273 132.03 231.454 131.171 230.421C130.763 229.929 130.403 229.405 130.124 228.821C129.888 228.329 129.786 227.815 129.753 227.291C129.727 226.82 129.866 226.375 130.199 226.012C130.5 225.69 130.822 225.385 131.273 225.337C131.584 225.305 131.901 225.369 132.218 225.391C132.282 225.391 132.39 225.401 132.4 225.38C132.427 225.316 132.427 225.23 132.4 225.166C132.25 224.834 132.304 224.481 132.298 224.138C132.293 223.785 132.406 223.469 132.578 223.18C132.835 222.758 133.184 222.399 133.673 222.271C133.984 222.19 134.323 222.223 134.65 222.206C134.682 222.206 134.715 222.217 134.747 222.217C135.074 222.233 135.101 222.18 135.037 221.864C134.881 221.104 135.047 220.424 135.59 219.852C135.681 219.755 135.788 219.664 135.896 219.579C136.239 219.284 136.653 219.226 137.088 219.258C137.131 219.258 137.179 219.236 137.227 219.226C137.217 219.172 137.217 219.103 137.184 219.065C137.045 218.883 136.889 218.712 136.749 218.535C136.143 217.759 135.536 216.983 134.94 216.202C134.564 215.71 134.21 215.206 133.85 214.703C133.582 214.323 133.388 213.906 133.217 213.467C133.029 212.991 132.98 212.504 133.109 212.028C133.184 211.739 133.356 211.46 133.533 211.214C133.845 210.775 134.306 210.551 134.817 210.427C135.064 210.369 135.311 210.411 135.552 210.502C136.094 210.695 136.562 210.995 136.986 211.369C137.179 211.535 137.345 211.733 137.517 211.921C137.582 211.99 137.598 212.108 137.662 212.177C137.909 212.434 138.178 212.675 138.425 212.932C138.564 213.077 138.677 213.248 138.811 213.398C138.854 213.446 138.951 213.483 139.015 213.467C139.064 213.456 139.117 213.36 139.117 213.301M137.174 233.21C137.716 233.268 138.269 233.06 138.822 232.888C139.397 232.706 139.966 232.487 140.47 232.139C140.943 231.813 141.426 231.508 141.872 231.154C142.296 230.812 142.677 230.421 143.069 230.047C143.585 229.554 143.998 228.971 144.395 228.382C144.83 227.74 145.206 227.05 145.593 226.375C145.781 226.038 145.877 225.658 145.856 225.278C145.829 224.861 145.764 224.443 145.668 224.037C145.539 223.496 145.335 222.977 145.072 222.485C144.513 221.457 143.821 220.521 143.074 219.627C142.495 218.926 141.899 218.241 141.303 217.556C140.524 216.651 139.74 215.752 138.956 214.853C138.403 214.216 137.861 213.569 137.292 212.948C136.76 212.365 136.256 211.744 135.509 211.396C135.219 211.262 134.962 211.198 134.65 211.38C133.984 211.765 133.727 212.284 133.931 213.012C134.054 213.451 134.253 213.869 134.521 214.243C134.806 214.645 135.101 215.035 135.396 215.431C135.81 215.988 136.213 216.55 136.642 217.096C137.12 217.7 137.625 218.284 138.119 218.878C138.494 219.327 138.87 219.777 139.246 220.221C139.536 220.564 139.837 220.895 140.127 221.238C140.562 221.746 140.991 222.255 141.426 222.758C141.587 222.94 141.636 223.154 141.587 223.384C141.571 223.459 141.501 223.56 141.437 223.577C141.233 223.625 141.023 223.614 140.873 223.443C140.503 223.02 140.143 222.581 139.772 222.158C139.305 221.623 138.849 221.072 138.355 220.564C137.893 220.087 137.313 219.943 136.658 220.135C136.186 220.275 135.933 220.633 135.842 221.056C135.745 221.505 135.805 221.971 136.041 222.388C136.433 223.079 136.943 223.689 137.469 224.283C137.796 224.658 138.167 224.995 138.511 225.353C138.645 225.492 138.666 225.781 138.57 225.899C138.457 226.033 138.172 226.081 138.006 225.963C137.807 225.819 137.625 225.653 137.458 225.471C136.959 224.941 136.476 224.395 135.982 223.866C135.794 223.662 135.59 223.464 135.364 223.298C134.994 223.02 134.559 223.036 134.124 223.052C133.813 223.063 133.598 223.207 133.415 223.421C132.991 223.924 133.039 224.508 133.211 225.08C133.351 225.541 133.646 225.931 133.963 226.279C134.419 226.782 134.924 227.237 135.396 227.724C135.536 227.869 135.66 228.029 135.762 228.2C135.864 228.372 135.805 228.575 135.649 228.709C135.504 228.837 135.364 228.773 135.23 228.687C135.166 228.645 135.096 228.612 135.037 228.564C134.86 228.409 134.698 228.232 134.516 228.088C133.866 227.553 133.211 227.023 132.556 226.488C132.073 226.097 131.391 226.076 130.929 226.45C130.704 226.632 130.564 226.884 130.553 227.173C130.537 227.628 130.655 228.061 130.854 228.463C131.047 228.837 131.284 229.19 131.525 229.544C131.923 230.127 132.422 230.619 132.953 231.074C133.415 231.476 133.904 231.85 134.382 232.23C135.182 232.862 136.073 233.247 137.174 233.215V233.21ZM142.876 212.151C142.838 211.894 142.785 211.664 142.65 211.444C142.339 210.936 141.791 210.834 141.372 211.016C141.077 211.145 140.846 211.375 140.658 211.648C140.358 212.076 140.197 212.568 140.041 213.055C139.939 213.376 139.853 213.703 139.735 214.013C139.654 214.227 139.676 214.404 139.821 214.575C140.089 214.885 140.363 215.19 140.626 215.501C140.846 215.763 141.061 216.031 141.281 216.298C141.303 216.325 141.362 216.352 141.389 216.341C141.431 216.325 141.474 216.282 141.491 216.239C141.636 215.827 141.775 215.41 141.92 214.992C142.167 214.291 142.43 213.596 142.672 212.895C142.752 212.654 142.806 212.408 142.87 212.161L142.876 212.151Z" fill="#00124C"/>
<path d="M137.184 233.204C136.084 233.231 135.192 232.851 134.392 232.219C133.909 231.84 133.426 231.465 132.964 231.064C132.433 230.603 131.933 230.116 131.536 229.533C131.3 229.185 131.058 228.832 130.865 228.452C130.661 228.056 130.543 227.617 130.564 227.162C130.575 226.873 130.714 226.622 130.94 226.44C131.402 226.065 132.084 226.086 132.567 226.477C133.222 227.007 133.877 227.537 134.527 228.077C134.709 228.227 134.87 228.398 135.047 228.554C135.101 228.602 135.176 228.639 135.241 228.677C135.375 228.762 135.515 228.827 135.66 228.698C135.815 228.559 135.874 228.361 135.772 228.19C135.67 228.018 135.547 227.858 135.407 227.713C134.935 227.226 134.43 226.771 133.974 226.268C133.657 225.921 133.362 225.53 133.222 225.07C133.05 224.497 133.002 223.914 133.426 223.411C133.603 223.197 133.823 223.047 134.135 223.041C134.575 223.031 135.01 223.015 135.375 223.288C135.595 223.453 135.799 223.651 135.992 223.855C136.492 224.385 136.975 224.93 137.469 225.46C137.635 225.637 137.818 225.808 138.017 225.953C138.183 226.07 138.462 226.022 138.58 225.888C138.677 225.776 138.656 225.482 138.521 225.343C138.178 224.984 137.813 224.642 137.48 224.272C136.954 223.678 136.443 223.073 136.052 222.378C135.815 221.96 135.756 221.489 135.853 221.045C135.944 220.622 136.196 220.264 136.669 220.125C137.324 219.932 137.904 220.077 138.366 220.553C138.86 221.061 139.316 221.612 139.783 222.148C140.154 222.57 140.513 223.009 140.884 223.432C141.034 223.603 141.244 223.614 141.448 223.566C141.512 223.55 141.587 223.448 141.598 223.373C141.646 223.143 141.598 222.934 141.437 222.747C141.002 222.244 140.572 221.73 140.138 221.227C139.848 220.885 139.547 220.553 139.257 220.21C138.876 219.766 138.505 219.317 138.129 218.867C137.635 218.273 137.131 217.69 136.653 217.085C136.223 216.544 135.821 215.977 135.407 215.421C135.112 215.025 134.817 214.634 134.532 214.232C134.269 213.858 134.065 213.44 133.941 213.002C133.737 212.279 134 211.76 134.661 211.369C134.972 211.187 135.23 211.252 135.52 211.385C136.266 211.733 136.771 212.354 137.303 212.937C137.872 213.558 138.414 214.206 138.967 214.843C139.751 215.742 140.535 216.641 141.313 217.545C141.909 218.23 142.505 218.915 143.085 219.616C143.832 220.515 144.524 221.447 145.083 222.474C145.351 222.966 145.55 223.486 145.679 224.026C145.775 224.433 145.845 224.85 145.867 225.268C145.888 225.648 145.791 226.033 145.603 226.365C145.222 227.044 144.846 227.729 144.406 228.372C144.009 228.955 143.595 229.538 143.08 230.036C142.688 230.411 142.301 230.801 141.883 231.144C141.437 231.502 140.954 231.807 140.481 232.128C139.976 232.476 139.407 232.696 138.833 232.878C138.28 233.049 137.721 233.258 137.184 233.199V233.204Z" fill="#FDF001" stroke="#00124C" stroke-width="0.5" stroke-miterlimit="10"/>
<path d="M142.887 212.145C142.822 212.392 142.768 212.643 142.688 212.879C142.446 213.58 142.183 214.275 141.936 214.976C141.791 215.388 141.652 215.806 141.507 216.223C141.491 216.266 141.448 216.309 141.405 216.325C141.378 216.336 141.319 216.309 141.297 216.282C141.077 216.02 140.862 215.747 140.642 215.485C140.379 215.174 140.105 214.869 139.837 214.559C139.692 214.393 139.67 214.211 139.751 213.997C139.869 213.681 139.95 213.355 140.057 213.039C140.218 212.552 140.379 212.06 140.674 211.632C140.862 211.359 141.099 211.129 141.389 211C141.807 210.818 142.355 210.92 142.666 211.428C142.801 211.648 142.854 211.878 142.892 212.135L142.887 212.145Z" fill="#FDF001" stroke="#00124C" stroke-miterlimit="10"/>
<path d="M141.496 202.523C141.346 202.255 141.125 202.036 140.857 201.886C139.88 201.335 139.037 202.384 138.355 202.908C137.668 202.384 136.524 201.335 135.536 201.908C135.289 202.047 135.085 202.255 134.945 202.502C134.365 203.502 134.521 204.509 135.069 205.199L137.7 209.737C137.931 210.197 138.511 210.197 138.741 209.796L141.56 204.931C141.576 204.899 141.593 204.872 141.603 204.84C141.619 204.803 141.63 204.765 141.646 204.728C141.931 204.096 141.936 203.315 141.496 202.534V202.523Z" fill="#FF9FDA" stroke="#00124C" stroke-miterlimit="10"/>
<path d="M155.488 102.901C155.488 101.098 154.436 99.5404 152.916 98.7912C155.767 96.8004 157.534 93.3592 157.12 89.5381C156.61 84.8394 152.728 81.0985 148.003 80.7293C144.723 80.4724 141.754 81.805 139.767 84.0259C138.935 83.2071 137.797 82.704 136.54 82.704C135.026 82.704 133.689 83.4372 132.851 84.5611C131.874 82.7308 129.936 81.4785 127.708 81.4785C124.631 81.4785 122.118 83.86 121.904 86.8677C121.308 86.584 120.642 86.4235 119.938 86.4235C118.161 86.4235 116.62 87.4296 115.858 88.9013C114.268 88.3608 112.513 88.1895 110.666 88.5641C106.392 89.4311 103.106 93.0381 102.708 97.3677C102.317 101.601 104.593 105.342 108.046 107.134C106.241 107.755 104.947 109.457 104.947 111.464C104.947 113.995 107.004 116.045 109.544 116.045C109.624 116.045 109.705 116.034 109.785 116.034C110.333 116.88 111.154 117.533 112.126 117.875C112.872 119.395 114.435 120.439 116.25 120.439C116.255 120.439 116.266 120.439 116.271 120.439C116.255 120.583 116.25 120.733 116.25 120.883C116.25 124.485 127.842 124.934 124.212 124.238C120.583 123.543 124.459 116.302 120.846 116.302C120.84 116.302 120.83 116.302 120.824 116.302C120.84 116.157 120.846 116.008 120.846 115.858C120.846 113.862 119.557 112.165 117.769 111.539C117.023 110.019 115.46 108.975 113.646 108.975C113.565 108.975 113.485 108.981 113.404 108.986C113.232 108.724 113.039 108.478 112.819 108.253C118.252 108.162 122.628 103.752 122.628 98.3149C122.628 97.175 122.424 96.0832 122.07 95.0664C123.235 94.4563 124.1 93.3699 124.411 92.0641C125.351 92.7117 126.484 93.0863 127.713 93.0863C129.941 93.0863 131.874 91.8394 132.857 90.0037C133.694 91.1276 135.031 91.8608 136.546 91.8608C136.803 91.8608 137.056 91.834 137.303 91.7912C137.866 96.6505 141.947 100.44 146.946 100.568C146.543 101.248 146.307 102.04 146.307 102.891C146.307 104.287 146.935 105.534 147.923 106.375C146.656 107.188 145.818 108.606 145.818 110.222C145.818 110.522 145.85 110.816 145.904 111.1C143.864 111.705 142.414 113.68 142.64 115.954C142.865 118.229 144.798 120 147.069 120.069C149.673 120.15 151.805 118.068 151.805 115.488C151.805 115.189 151.773 114.894 151.719 114.611C153.62 114.049 155.01 112.299 155.01 110.222C155.01 108.826 154.382 107.579 153.394 106.738C154.661 105.925 155.499 104.507 155.499 102.891L155.488 102.901Z" fill="#5570C6"/>
<path d="M130.253 119.368C131.222 119.368 132.008 118.585 132.008 117.618C132.008 116.652 131.222 115.868 130.253 115.868C129.283 115.868 128.497 116.652 128.497 117.618C128.497 118.585 129.283 119.368 130.253 119.368Z" fill="#00124C"/>
<path d="M139.912 119.24C140.882 119.24 141.668 118.456 141.668 117.49C141.668 116.523 140.882 115.74 139.912 115.74C138.942 115.74 138.156 116.523 138.156 117.49C138.156 118.456 138.942 119.24 139.912 119.24Z" fill="#00124C"/>
<path d="M127.321 119.534C129.281 120.583 131.257 120.573 133.238 119.534" stroke="#00124C" stroke-linecap="round" stroke-linejoin="round"/>
<path d="M136.954 119.368C138.913 120.417 140.889 120.407 142.871 119.368" stroke="#00124C" stroke-linecap="round" stroke-linejoin="round"/>
<path d="M135.284 122.055C134.988 123.682 135.284 125.609 136.76 126.583C137.233 126.904 137.743 127.161 138.248 127.412C138.419 127.492 138.36 127.765 138.178 127.771C137.501 127.824 136.825 127.867 136.143 127.862C135.466 127.84 134.741 127.883 134.092 127.76C135.407 127.476 136.798 127.412 138.146 127.391L138.065 127.749C136.664 126.877 134.956 125.534 134.854 123.757C134.833 123.152 134.978 122.558 135.241 122.039C135.252 122.018 135.284 122.028 135.278 122.05L135.284 122.055Z" fill="#00124C"/>
<path d="M127.987 126.818C128.699 126.818 129.275 126.243 129.275 125.534C129.275 124.824 128.699 124.249 127.987 124.249C127.275 124.249 126.698 124.824 126.698 125.534C126.698 126.243 127.275 126.818 127.987 126.818Z" fill="#FE40B4"/>
<path d="M142.022 128.103C142.734 128.103 143.311 127.527 143.311 126.818C143.311 126.109 142.734 125.534 142.022 125.534C141.31 125.534 140.734 126.109 140.734 126.818C140.734 127.527 141.31 128.103 142.022 128.103Z" fill="#FE40B4"/>
<path d="M137.512 136.917C138.772 136.917 139.794 136.208 139.794 135.333C139.794 134.458 138.772 133.749 137.512 133.749C136.252 133.749 135.23 134.458 135.23 135.333C135.23 136.208 136.252 136.917 137.512 136.917Z" fill="#FF9FDA"/>
<path d="M131.021 132.02C132.792 132.962 136.766 135.857 138.629 134.535C139.257 133.978 139.423 132.908 139.687 132.068C139.697 132.014 139.778 132.014 139.794 132.068C140.669 134.894 138.876 136.874 136.03 135.509C134.119 134.68 132.529 133.422 130.956 132.116C130.908 132.079 130.961 131.993 131.021 132.03V132.02Z" fill="#00124C"/>
<path d="M273.682 124.527C274.642 124.527 275.421 123.751 275.421 122.794C275.421 121.836 274.642 121.06 273.682 121.06C272.721 121.06 271.942 121.836 271.942 122.794C271.942 123.751 272.721 124.527 273.682 124.527Z" fill="#FE40B4"/>
<path d="M256.489 127.508C257.45 127.508 258.229 126.732 258.229 125.774C258.229 124.817 257.45 124.041 256.489 124.041C255.529 124.041 254.75 124.817 254.75 125.774C254.75 126.732 255.529 127.508 256.489 127.508Z" fill="#FE40B4"/>
<defs>
<linearGradient id="paint0_linear_431_1240" x1="88.6142" y1="235.484" x2="88.6142" y2="204.535" gradientUnits="userSpaceOnUse">
<stop stop-color="#FF71C8"/>
<stop offset="0.4" stop-color="#FE60C1"/>
<stop offset="1" stop-color="#FE40B4"/>
</linearGradient>
</defs>
</svg>
