<svg width="55" height="60" viewBox="0 0 55 60" fill="none" xmlns="http://www.w3.org/2000/svg">
<path d="M54.4016 56.159C54.4016 57.035 54.0644 57.8752 53.4642 58.4947C52.864 59.1141 52.05 59.4622 51.2011 59.4622C50.3523 59.4622 49.5383 59.1141 48.9381 58.4947C48.3379 57.8752 48.0007 57.035 48.0007 56.159L48.0007 34.7016L7.88604 58.7223C4.42954 60.79 9.66951e-05 58.2862 9.63313e-05 54.1242L9.20667e-05 5.3431C9.17029e-05 1.18111 4.42953 -1.3293 7.88603 0.738484L48.0007 24.7591L48.0007 3.30834C48.0007 2.43229 48.3379 1.59212 48.9381 0.972651C49.5383 0.353188 50.3523 0.0051779 51.2011 0.00517782C52.05 0.00517775 52.864 0.353187 53.4642 0.972651C54.0644 1.59211 54.4016 2.43229 54.4016 3.30834L54.4016 56.159Z" fill="#00124C"/>
</svg>
