<svg width="390" height="600" viewBox="0 0 390 600" fill="none" xmlns="http://www.w3.org/2000/svg">
<g clip-path="url(#clip0_264_3863)">
<path d="M374.25 89.69C372.05 78.25 369.98 67.45 369.38 57.59C366.38 8.38 389.77 0.29 390.01 0.21L389.83 -1C389.58 -0.92 383.63 1.05 377.99 9.3C368.58 23.05 367.66 43.21 368.54 57.7C369.15 67.67 371.23 78.52 373.44 90.02C377.62 111.78 382.25 135.89 379.48 163.79C376.93 137.85 368.08 115.12 360.27 87.73C342.95 27.02 371.68 -0.39 371.68 -0.39H0C9.63 64.56 32.62 74.38 50.46 91.78C56.46 104.38 60.17 118.27 58.67 135.84C56.69 159.02 44.35 180.85 32.41 201.97C28.64 208.65 24.92 215.23 21.56 221.76C5.17 247.2 -4 274.38 17.64 305.14C18.57 307.34 19.48 309.39 20.37 311.36C27.98 328.4 33.48 340.72 26.8 403.39C22.82 440.76 28.09 471.46 42.04 492.18C52.28 507.38 66.98 516.86 84.25 519.91C102.99 527.82 125.32 524.52 145.18 516.45C176.77 503.61 210.11 504.39 241.81 516.62C254.99 521.7 270.47 526.09 286.28 523.19C308.2 520.86 330.98 503.78 344.87 478.04C356.39 456.7 367.19 419.86 353.26 365.52C345.58 335.54 343.7 311.96 345.12 292.15C345.89 290.38 346.72 288.63 347.63 286.89C375.03 234.2 381.95 198.75 379.83 168.21C383.57 138.26 378.66 112.67 374.24 89.68L374.25 89.69ZM33.07 202.76C45.08 181.51 57.5 159.54 59.51 136C60.94 119.24 57.75 105.82 52.37 93.7C59.53 101.11 65.72 110.18 69.63 125.26C77.29 154.77 48.35 183.26 26.7 214.13C28.76 210.37 30.9 206.58 33.06 202.76H33.07ZM42.65 491.32C28.89 470.89 23.71 440.56 27.64 403.59C34.36 340.45 28.79 327.97 21.08 310.7C20.75 309.97 20.42 309.23 20.09 308.48C20.32 308.78 20.55 309.08 20.78 309.38C60.82 360.18 16.92 443.99 62.49 502.93C67.52 509.44 73.3 514.25 79.56 517.67C64.56 513.86 51.79 504.91 42.65 491.33V491.32ZM352.47 365.96C366.26 419.76 355.59 456.19 344.21 477.28C333.57 497 317.65 511.58 300.94 518.23C305.66 515.84 310.35 512.62 314.96 508.39C380.17 448.67 317.17 361.99 344.08 294.64C343 314.06 345.06 337.05 352.47 365.95V365.96Z" fill="url(#paint0_linear_264_3863)"/>
<path d="M30.0801 595.01H363.83C363.83 595.01 341.26 523.92 262.12 538.97C262.12 538.97 194.98 570.87 124.88 538.97C124.88 538.97 65.2101 525.41 30.0801 595.01Z" fill="#FE40B4"/>
<path d="M260.922 467.77C262.463 461.284 258.456 454.777 251.97 453.236C245.485 451.694 238.978 455.702 237.436 462.188C235.895 468.673 239.903 475.18 246.388 476.722C252.874 478.263 259.381 474.255 260.922 467.77Z" fill="#FDF001" stroke="url(#paint1_linear_264_3863)" stroke-width="0.5" stroke-miterlimit="10"/>
<path d="M249.17 475.31C249.6 475.45 249.86 475.6 249.93 476.05L250.21 476.94C250.3 477.23 250.55 477.99 250.64 478.27C250.54 478.46 250.45 478.66 250.31 478.87C250.07 478.78 249.89 478.68 249.7 478.58C249.61 478.3 249.37 477.54 249.27 477.25L248.99 476.36C248.78 475.96 248.9 475.68 249.18 475.32L249.17 475.31Z" fill="url(#paint2_linear_264_3863)"/>
<path d="M252.16 474.6C252.65 474.75 252.93 474.96 253.04 475.44L253.47 476.47C253.61 476.81 253.98 477.69 254.11 478.02C254.04 478.25 253.98 478.48 253.87 478.72C253.62 478.62 253.41 478.51 253.2 478.39C253.06 478.07 252.7 477.18 252.56 476.84L252.13 475.81C251.87 475.39 251.92 475.04 252.16 474.59V474.6Z" fill="url(#paint3_linear_264_3863)"/>
<path d="M254.86 473.75C255.29 473.76 255.58 473.81 255.74 474.21L256.2 474.94C256.35 475.18 256.75 475.8 256.89 476.03C256.84 476.23 256.79 476.43 256.7 476.66C256.46 476.64 256.26 476.6 256.05 476.56C255.9 476.33 255.51 475.7 255.36 475.47L254.9 474.74C254.61 474.42 254.68 474.14 254.86 473.75V473.75Z" fill="url(#paint4_linear_264_3863)"/>
<path d="M151.993 473.48C156.706 468.766 156.706 461.124 151.993 456.41C147.279 451.696 139.637 451.696 134.923 456.41C130.21 461.124 130.21 468.766 134.923 473.48C139.637 478.193 147.279 478.193 151.993 473.48Z" fill="#FDF001" stroke="url(#paint5_linear_264_3863)" stroke-width="0.5" stroke-miterlimit="10"/>
<path d="M136.19 472.47C136.25 472.98 136.17 473.33 135.77 473.64L134.99 474.47C134.73 474.74 134.07 475.45 133.82 475.72C133.58 475.76 133.34 475.8 133.07 475.8C133.06 475.53 133.07 475.29 133.1 475.05C133.34 474.79 134.01 474.07 134.27 473.8L135.05 472.97C135.33 472.56 135.68 472.45 136.19 472.48V472.47Z" fill="url(#paint6_linear_264_3863)"/>
<path d="M135.44 477.02C135.36 476.48 135.45 476.11 135.84 475.76L136.62 474.81C136.88 474.5 137.54 473.69 137.79 473.38C138.04 473.32 138.28 473.25 138.56 473.22C138.58 473.5 138.56 473.75 138.56 474.01C138.32 474.31 137.65 475.12 137.39 475.44L136.61 476.39C136.34 476.84 135.99 477 135.45 477.03L135.44 477.02Z" fill="url(#paint7_linear_264_3863)"/>
<path d="M138.77 478.16C138.5 477.74 138.42 477.42 138.65 476.99L139 475.98C139.12 475.65 139.41 474.79 139.52 474.47C139.72 474.35 139.92 474.23 140.16 474.13C140.29 474.36 140.37 474.58 140.45 474.8C140.34 475.12 140.04 475.98 139.93 476.31L139.58 477.32C139.5 477.79 139.23 478 138.76 478.17L138.77 478.16Z" fill="url(#paint8_linear_264_3863)"/>
<path d="M264.12 538.98C264.12 538.98 258.01 555.67 241.59 568.81C230.95 577.34 215.95 584.36 195.5 584.36C175.05 584.36 160.05 577.34 149.4 568.81C132.98 555.67 126.88 538.98 126.88 538.98C144.9 539.63 157.21 531.68 165.51 521.78C166.17 520.98 166.82 520.17 167.43 519.35C178.72 504.41 181.66 486.4 181.66 486.4H209.33C209.33 486.4 212.27 504.41 223.56 519.35C224.16 520.17 224.81 520.98 225.48 521.78C233.79 531.68 246.1 539.63 264.12 538.98V538.98Z" fill="#3E4BF6"/>
<path d="M264.12 538.98C264.12 538.98 258.01 555.67 241.59 568.81C230.95 577.34 215.95 584.36 195.5 584.36C175.05 584.36 160.05 577.34 149.4 568.81C132.98 555.67 126.88 538.98 126.88 538.98C144.9 539.63 157.21 531.68 165.51 521.78C166.17 520.98 166.82 520.17 167.43 519.35C178.72 504.41 181.66 486.4 181.66 486.4H209.33C209.33 486.4 212.27 504.41 223.56 519.35C224.16 520.17 224.81 520.98 225.48 521.78C233.79 531.68 246.1 539.63 264.12 538.98V538.98Z" fill="#FF71C8"/>
<path d="M223.57 519.35C215.46 524.52 205.83 527.51 195.51 527.51C185.19 527.51 175.55 524.51 167.44 519.35C178.73 504.41 181.67 486.4 181.67 486.4H209.34C209.34 486.4 212.28 504.41 223.57 519.35V519.35Z" fill="#FE40B4"/>
<path d="M247.79 422.2C247.79 393.315 224.377 369.9 195.495 369.9C166.613 369.9 143.2 393.315 143.2 422.2V462.88C143.2 491.764 166.613 515.18 195.495 515.18C224.377 515.18 247.79 491.764 247.79 462.88V422.2Z" fill="url(#paint9_linear_264_3863)"/>
<path d="M247.79 422.2C247.79 393.315 224.377 369.9 195.495 369.9C166.613 369.9 143.2 393.315 143.2 422.2V462.88C143.2 491.764 166.613 515.18 195.495 515.18C224.377 515.18 247.79 491.764 247.79 462.88V422.2Z" fill="#FDF001" stroke="url(#paint10_linear_264_3863)" stroke-miterlimit="10"/>
<path d="M168.906 480.917C172.476 477.348 172.476 471.561 168.906 467.991C165.337 464.422 159.55 464.422 155.981 467.991C152.411 471.561 152.411 477.348 155.981 480.917C159.55 484.487 165.337 484.487 168.906 480.917Z" fill="#FE40B4"/>
<path d="M237.477 481.381C241.097 477.863 241.179 472.077 237.661 468.457C234.144 464.837 228.357 464.754 224.737 468.272C221.117 471.79 221.034 477.576 224.552 481.196C228.07 484.816 233.856 484.899 237.477 481.381Z" fill="#FE40B4"/>
<path d="M196.5 414.05C199.02 425.94 201.48 439.02 203.89 450.85C204.78 454.98 205.38 459.16 205.83 463.36C205.92 464.11 205.28 464.78 204.52 464.73C202.6 464.62 200.68 464.48 198.76 464.3C196.84 464.11 194.92 463.89 193 463.57C192.84 463.54 192.84 463.3 193 463.27C196.82 462.65 200.66 462.34 204.52 462.11L203.23 463.63C201.31 455.5 200.64 447.16 199.43 438.91C198.42 431.71 197.11 421.41 196.21 414.09C196.18 413.92 196.47 413.85 196.5 414.04V414.05Z" fill="#00124C"/>
<path d="M198.76 499.41C201.284 499.41 203.33 496.209 203.33 492.26C203.33 488.311 201.284 485.11 198.76 485.11C196.236 485.11 194.19 488.311 194.19 492.26C194.19 496.209 196.236 499.41 198.76 499.41Z" fill="#FF9FDA"/>
<path d="M182.04 487.3C193.1 493.37 204.47 493.5 215.49 487.3C215.56 487.25 215.68 487.25 215.73 487.34C215.76 487.4 215.75 487.46 215.71 487.51C209.29 494.65 198.26 496.89 189.53 492.94C186.6 491.72 184.03 489.77 181.83 487.51C181.71 487.37 181.88 487.18 182.04 487.3V487.3Z" fill="#00124C"/>
<path d="M180.44 489.72C180.32 487.6 181.47 485.59 183.33 484.59C183.37 484.56 183.44 484.58 183.42 484.64C182.74 485.94 181.29 488.51 180.53 489.77C180.5 489.82 180.43 489.77 180.44 489.72Z" fill="#00124C"/>
<path d="M214.51 485.67C216.24 486.23 217.33 487.92 217.16 489.72C217.16 489.77 217.12 489.82 217.08 489.77C216.38 488.79 215.05 486.75 214.43 485.72C214.4 485.67 214.47 485.64 214.51 485.67Z" fill="#00124C"/>
<path d="M208.57 441.69C216.68 445.73 225.8 445.77 233.9 441.69C228.14 449.76 214.35 449.7 208.57 441.69Z" fill="#00124C"/>
<path d="M155.61 441.69C163.72 445.73 172.84 445.77 180.94 441.69C175.18 449.76 161.4 449.7 155.61 441.69Z" fill="#00124C"/>
<path d="M165.63 532.98C160.8 534.44 166.07 540.26 167.02 553.49C160.19 545.99 153.22 539.55 147.68 535.31C145.12 536.4 142.38 537.29 139.45 537.92C143.4 544.07 150.36 551.97 152.06 556.44C151.56 555.88 133.77 535.93 128.47 540.38C124.87 543.4 141.49 557.99 145.91 567.14C145.91 567.14 126.01 545.04 122.35 548.18C117.96 551.95 134.71 567.81 139.2 575.75C138.27 574.56 123.25 555.29 118.7 555.54C114.45 555.77 123.19 573.56 140.94 595H194.63C182.06 565.69 170.9 531.38 165.63 532.97V532.98Z" fill="#FF71C8"/>
<path d="M256.42 595.01C274.26 576.01 283.37 560.23 279.32 559.7C274.8 559.1 258.37 577.19 257.36 578.31C262.44 570.73 280.33 556.17 276.24 552.08C272.83 548.67 251.32 569.21 251.32 569.21C256.42 560.42 274.1 547.12 270.73 543.84C265.78 539.01 246.54 557.56 246 558.08C248.21 553.36 257 545.02 261.1 538.99C257.57 538.93 254.27 538.52 251.19 537.84C245.47 541.66 238.36 547.35 231.3 554.01C233.24 540.89 238.94 535.48 234.23 533.66C228.99 531.64 214.83 566.39 199.76 595.01H256.42Z" fill="#FF71C8"/>
<path d="M195.96 587.97L195.98 588C182.86 558.06 171.09 521.2 165.63 522.85C160.8 524.31 166.07 530.13 167.02 543.36C152.9 527.87 138.15 516.85 136.81 520.54C135.12 525.18 149.52 539.62 152.06 546.31C151.56 545.75 133.77 525.8 128.47 530.25C124.87 533.27 141.49 547.86 145.91 557.01C145.91 557.01 126.01 534.91 122.35 538.05C117.96 541.82 134.71 557.68 139.2 565.62C138.27 564.43 123.25 545.16 118.7 545.41C114 545.67 125.18 567.39 146.87 591.78C147.74 592.76 148.55 593.85 149.33 595.01H194.58C195.35 593.41 196.14 591.81 196.94 590.24C196.61 589.48 196.29 588.72 195.95 587.96L195.96 587.97Z" fill="#FDF001"/>
<path d="M195.96 587.97L195.98 588C182.86 558.06 171.09 521.2 165.63 522.85C160.8 524.31 166.07 530.13 167.02 543.36C152.9 527.87 138.15 516.85 136.81 520.54C135.12 525.18 149.52 539.62 152.06 546.31C151.56 545.75 133.77 525.8 128.47 530.25C124.87 533.27 141.49 547.86 145.91 557.01C145.91 557.01 126.01 534.91 122.35 538.05C117.96 541.82 134.71 557.68 139.2 565.62C138.27 564.43 123.25 545.16 118.7 545.41C114 545.67 125.18 567.39 146.87 591.78C147.74 592.76 148.55 593.85 149.33 595.01H194.58C195.35 593.41 196.14 591.81 196.94 590.24C196.61 589.48 196.29 588.72 195.95 587.96L195.96 587.97Z" fill="#FDF001"/>
<path d="M279.32 549.56C274.8 548.96 258.37 567.05 257.36 568.17C262.44 560.59 280.33 546.03 276.24 541.94C272.83 538.53 251.32 559.07 251.32 559.07C256.42 550.28 274.1 536.98 270.73 533.7C265.78 528.87 246.54 547.42 246 547.94C249.04 541.45 264.48 528.14 263.15 523.39C262.08 519.61 246.55 529.48 231.3 543.87C233.24 530.75 238.94 525.34 234.23 523.52C228.91 521.46 214.39 557.34 199.06 586.2L199.08 586.17C198.36 587.51 197.65 588.87 196.95 590.24C196.14 591.82 195.36 593.41 194.59 595.01H246.46C246.88 594.55 247.31 594.1 247.74 593.67C271.21 570.98 283.99 550.16 279.32 549.55V549.56Z" fill="#FDF001"/>
<path d="M279.32 549.56C274.8 548.96 258.37 567.05 257.36 568.17C262.44 560.59 280.33 546.03 276.24 541.94C272.83 538.53 251.32 559.07 251.32 559.07C256.42 550.28 274.1 536.98 270.73 533.7C265.78 528.87 246.54 547.42 246 547.94C249.04 541.45 264.48 528.14 263.15 523.39C262.08 519.61 246.55 529.48 231.3 543.87C233.24 530.75 238.94 525.34 234.23 523.52C228.91 521.46 214.39 557.34 199.06 586.2L199.08 586.17C198.36 587.51 197.65 588.87 196.95 590.24C196.14 591.82 195.36 593.41 194.59 595.01H246.46C246.88 594.55 247.31 594.1 247.74 593.67C271.21 570.98 283.99 550.16 279.32 549.55V549.56Z" fill="#FDF001"/>
<path d="M143.2 374.15V438.37H148.67V439.07C148.79 439.07 161.09 438.96 169.61 429.1C176.64 420.97 179.16 408.74 177.13 392.73C185.45 417.02 206.27 434.98 231.62 439.59L247.79 442.53V374.14H143.2V374.15Z" fill="#FFF983"/>
<path d="M133.67 359.54C117.47 380.89 121.85 408.03 133.67 437.26H140.29V438.11C140.44 438.11 155.31 437.97 165.63 426.05C174.14 416.21 177.18 401.41 174.73 382.04C184.8 411.43 209.99 433.17 240.68 438.75L260.25 442.3C273.39 413.04 275.22 385.22 260.25 359.54C182.66 317.65 182.8 330.51 133.68 359.54H133.67ZM164.99 425.48C156.86 434.89 145.81 436.78 141.81 437.16C148.32 434.69 173.54 422.61 174.03 383.35C176.18 401.87 173.15 416.04 164.98 425.48H164.99Z" fill="#FE40B4"/>
<path d="M173.26 330.12C171.36 328.12 171.18 326.23 172.72 324.86C174.08 323.65 176.23 323.8 177.42 325.18C178.77 326.76 178.37 328.75 176.31 330.3C178.74 336.12 181.18 341.97 183.69 348.01C185.52 343.84 187.25 339.89 188.98 335.94C191.1 331.12 193.2 326.29 195.34 321.48C195.64 320.81 195.73 320.38 195.06 319.78C193.71 318.57 193.77 316.58 195.02 315.34C196.29 314.09 198.37 314.09 199.65 315.34C200.94 316.6 200.99 318.51 199.71 319.79C199.27 320.23 199.06 320.52 199.38 321.2C203.51 329.86 207.6 338.54 211.7 347.22C211.77 347.38 211.87 347.52 212.04 347.82C214.33 341.84 216.57 336 218.81 330.15C216.41 328.54 216.39 326.28 217.7 324.83C218.9 323.5 220.99 323.46 222.31 324.69C223.82 326.09 223.67 328.01 221.84 329.84C225.18 335.34 228.54 340.87 231.97 346.51C233.48 345.25 234.91 344.06 236.33 342.86C241.3 338.68 246.25 334.48 251.24 330.32C251.81 329.85 251.86 329.5 251.6 328.83C250.94 327.11 251.99 325.24 253.78 324.78C255.62 324.31 257.52 325.48 257.86 327.28C258.21 329.17 256.99 330.95 255.1 331.05C254.22 331.1 254.06 331.56 253.88 332.18C252.43 337.1 250.98 342.01 249.53 346.93C246.72 356.46 243.91 365.98 241.12 375.52C240.92 376.2 240.6 376.37 239.93 376.37C212.5 370.04 184.74 370.41 156.68 376.79C155.98 376.79 155.7 376.57 155.49 375.92C151.46 363.6 147.41 351.28 143.36 338.97C142.65 336.82 141.93 334.68 141.23 332.53C141.05 331.97 140.85 331.69 140.14 331.66C138.17 331.57 136.89 329.85 137.18 327.89C137.45 326.1 139.32 324.92 141.18 325.37C143.02 325.82 144.08 327.71 143.44 329.5C143.25 330.03 143.22 330.35 143.72 330.76C150.25 336.02 156.77 341.3 163.29 346.58C163.37 346.65 163.47 346.69 163.71 346.84C166.89 341.27 170.07 335.7 173.24 330.15L173.26 330.12Z" fill="#FDF001"/>
<path d="M155.83 377.62C154.69 377.32 154.48 375.81 154.14 374.89L153.24 372.14C150 362.22 143.96 343.76 140.65 333.67L140.28 332.56C137.59 332.62 135.53 329.73 136.42 327.11C138.26 322.1 145.89 324.51 144.32 329.67C144.28 329.8 144.24 329.9 144.22 329.98C144.22 330.01 144.22 330.03 144.22 329.99C144.22 329.95 144.19 329.91 144.2 329.93C144.28 330.01 144.54 330.21 144.71 330.35L145.83 331.26L163.8 345.82L163.21 345.93L172.34 329.99L172.38 330.42C171.28 329.2 170.4 327.43 171.04 325.76C172.48 322.12 177.91 322.47 178.9 326.23C179.38 327.94 178.39 329.67 177.1 330.71L177.2 330.3L184 346.66H183.38C184.79 343.45 191.68 327.79 192.95 324.93L193.91 322.76C194.11 322.27 194.68 321.12 194.78 320.68C194.84 320.58 194.43 320.28 194.16 319.96C193.88 319.63 193.66 319.26 193.51 318.85C192.51 316.33 194.78 313.43 197.44 313.62C200.09 313.62 202.22 316.56 201.11 319.04C200.89 319.6 200.44 320.13 200.04 320.54C199.95 320.67 199.98 320.64 200.04 320.8C202.61 326.23 209.55 340.93 212.2 346.55L211.74 346.57L218.02 330.23L218.1 330.5C216.78 329.55 215.82 327.86 216.22 326.19C218.3 319.59 227.58 324.77 222.6 330.04L222.62 329.79L232.26 345.68L231.97 345.63L249.71 330.76L250.82 329.83C251.01 329.67 251.16 329.55 251.12 329.39C250.65 328.27 250.63 326.86 251.34 325.82C252.98 323 257.72 323.73 258.43 326.92C258.96 328.88 257.77 331.19 255.71 331.58C255.47 331.64 255.19 331.65 254.98 331.67C254.76 331.7 254.67 331.79 254.58 332.02C254.43 332.46 254.3 332.94 254.17 333.4C251.13 343.67 245.66 362.16 242.69 372.24L241.87 375.01C241.72 375.46 241.65 375.97 241.32 376.38C240.96 376.84 240.34 376.95 239.81 376.9C212.5 370.58 182.48 370.82 155.83 377.61V377.62ZM155.99 377.15C156.24 377.23 156.53 377.26 156.79 377.23C183.99 370.97 212.6 370.41 239.85 376.72C240.22 376.74 240.91 376.67 241.17 376.26C241.46 375.91 241.54 375.42 241.68 374.96L242.49 372.18C245.42 362.16 250.89 343.5 253.88 333.31C254.1 332.73 254.12 332.06 254.52 331.55C254.85 331.28 255.28 331.4 255.63 331.29C258.62 330.72 259.15 326.23 256.48 324.85C253.91 323.24 250.33 325.64 251.21 328.63C251.32 328.95 251.59 329.47 251.3 329.8C251.2 329.95 232.7 345.49 232.03 346.06L231.91 345.87L222.24 330L222.16 329.86L222.27 329.74C224.82 327.24 223.37 323.42 219.75 323.54C216.23 323.93 215.52 328.23 218.36 330.12L218.5 330.23L218.44 330.39L212.19 346.74L211.98 347.29L211.73 346.76C209.03 341.07 202.12 326.52 199.51 321.03C199.47 320.93 199.41 320.81 199.41 320.63C199.41 320.43 199.52 320.28 199.59 320.19C200.56 319.3 201.1 317.98 200.69 316.69C199.28 312.37 192.72 314.19 194.07 318.64C194.27 319.17 194.58 319.59 195.01 319.97C195.15 320.11 195.39 320.34 195.38 320.7C195.3 321.28 195.08 321.53 194.94 321.92C192.68 327.05 186.33 341.58 183.99 346.92L183.68 347.64L183.38 346.92L176.55 330.58L176.45 330.33L176.65 330.17C179.4 328.13 178.51 324.25 175.1 323.92C173.68 323.8 172.24 324.71 171.73 326.02C171.22 327.35 171.94 328.83 172.94 329.93L173.12 330.13L172.99 330.37L163.89 346.33L163.66 346.73L163.3 346.44L145.3 331.92L144.17 331.01C143.74 330.66 143.26 330.41 143.4 329.79C143.75 328.85 143.82 327.83 143.32 326.94C142.13 324.46 138.04 324.73 137.26 327.38C136.65 329.23 137.88 331.48 139.9 331.64C140.25 331.7 140.42 331.61 140.81 331.85C141.16 332.14 141.14 332.39 141.27 332.72C145.43 345.04 151.45 363.77 155.52 375.95C155.66 376.35 155.84 376.59 156.14 376.68L155.98 377.15H155.99Z" fill="#00124C"/>
<path d="M140.91 330.79C142.06 331.11 142.28 332.69 142.63 333.63C143.22 335.4 144.83 340.36 145.45 342.21C148.57 351.64 152.64 364.29 155.74 373.68C155.89 374.07 156.33 375.53 156.45 375.84C169.64 372.97 184.34 370.98 198.3 370.96C212.3 370.76 226.92 372.58 240.24 375.51C240.35 375.4 240.38 375.07 240.47 374.85L240.87 373.5C244.12 362.49 249.51 344.22 252.82 333.05L253.23 331.69C253.38 330.93 254.22 330.26 255.04 330.28C256.6 330.26 257.55 328.48 257.02 327.08C256.46 325.42 254.07 324.89 252.86 326.17C252.26 326.76 252.02 327.68 252.29 328.47C252.45 328.88 252.65 329.47 252.42 330.02C252.21 330.57 251.75 330.89 251.41 331.17L249.26 332.98L232.02 347.43C231.71 347.69 231.84 347.66 231.64 347.37L221.05 329.9L220.95 329.74C221.46 329.25 221.95 328.75 222.27 328.15C223.38 326.46 221.75 324.32 219.85 324.52C217.91 324.6 216.81 327.08 218.09 328.57C218.49 329.11 219.06 329.52 219.65 329.9L219.59 330.06L212.3 349.02L212.16 349.38C211.21 347.9 210.5 346.25 209.75 344.67C208.44 341.88 204.86 334.31 203.49 331.43L199.32 322.6C199.03 321.93 198.36 320.98 198.66 320.2C199 319.39 199.79 319.05 199.94 318.17C200.52 315.61 197.03 313.93 195.32 315.93C194.52 316.79 194.43 318.2 195.22 319.09C196.55 320.21 196.26 321.07 195.57 322.48L191.63 331.41L183.77 349.29L183.67 349.52L183.57 349.29L175.64 330.2L175.61 330.14C176.15 329.75 176.68 329.32 177.06 328.78C179.51 325.19 173.36 322.64 172.24 326.68C172.08 328.01 173.04 329.15 173.92 330.06L173.89 330.1L163.92 347.51L163.9 347.55C163.1 347.13 162.41 346.52 161.72 345.96C157.95 342.91 151.11 337.36 147.28 334.27C145.91 333.15 144.52 332.06 143.17 330.91C142.43 330.18 143.17 329.22 143.14 328.37C143.15 326.5 141 325.24 139.33 325.95C137.55 326.56 137.08 329.01 138.34 330.34C138.96 331.06 139.88 331.15 140.75 331.27L140.91 330.8V330.79ZM140.75 331.26C139.88 331.13 138.94 331.05 138.34 330.33C137.09 328.99 137.53 326.53 139.33 325.92C141.03 325.2 143.17 326.46 143.18 328.35C143.22 329.2 142.47 330.14 143.21 330.87C144.55 332.01 145.95 333.1 147.32 334.22C150.13 336.49 157.02 342.03 159.72 344.21C160.89 345.17 162.81 346.72 163.86 347.45L173.79 330.02C173.07 329.51 171.9 327.89 172.11 326.64C172.77 323.54 177.45 323.85 177.8 326.97C177.91 328.37 176.82 329.47 175.78 330.21L175.81 330.11L183.78 349.18H183.58L191.41 331.28L195.33 322.34C195.62 321.6 196.14 320.84 195.78 320.15C195.4 319.49 194.55 318.97 194.45 318.11C194.05 316.36 195.64 314.63 197.4 314.73C199.14 314.71 200.69 316.48 200.26 318.23C200.14 319.08 199.29 319.61 198.98 320.29C198.73 320.98 199.34 321.71 199.63 322.45L203.82 331.27C206.31 336.31 209.65 343.97 212.3 348.84L211.95 348.87L219.2 329.9L219.28 330.15C218.15 329.46 217.02 328.31 217.1 326.86C217.17 325.43 218.38 324.16 219.82 324.08C222.05 323.85 223.98 326.36 222.68 328.37C222.35 328.98 221.88 329.49 221.41 329.94L221.44 329.66L232.07 347.11L231.69 347.05L248.9 332.56L251.05 330.75C251.42 330.44 251.76 330.18 251.89 329.83C252.03 329.49 251.92 329.11 251.75 328.66C250.96 326.54 253.22 324.4 255.31 324.96C258.17 325.49 258.68 329.75 255.84 330.75C255.41 330.92 254.9 330.84 254.49 331.02C253.78 331.28 253.71 332.36 253.4 333.23L247.06 354.81C245.6 359.78 242.96 368.81 241.53 373.7L241.14 375.05C241.03 375.43 240.95 376.04 240.45 376.19C240.24 376.24 240.12 376.24 239.96 376.25C226.31 373.12 212.3 371.63 198.3 371.77C184.3 371.9 170.32 373.65 156.68 376.76C156.49 376.76 156.36 376.76 156.09 376.66C155.83 376.55 155.68 376.3 155.63 376.16C155.51 375.85 155.46 375.66 155.37 375.41L154.9 373.98C151.79 364.61 147.66 351.95 144.54 342.53C143.95 340.69 142.28 335.75 141.7 333.96L141.23 332.53C141.09 332.09 140.92 331.85 140.6 331.75L140.76 331.28L140.75 331.26Z" fill="#00124C"/>
<path d="M199.153 318.053C199.481 317.079 198.945 316.02 197.956 315.686C196.967 315.353 195.899 315.872 195.571 316.845C195.243 317.818 195.779 318.878 196.768 319.211C197.757 319.545 198.825 319.026 199.153 318.053Z" fill="#FE40B4"/>
<path d="M221.907 327.668C222.235 326.694 221.699 325.635 220.71 325.301C219.721 324.968 218.653 325.487 218.325 326.46C217.996 327.434 218.532 328.493 219.521 328.827C220.511 329.16 221.578 328.641 221.907 327.668Z" fill="#FE40B4"/>
<path d="M256.46 328.372C256.788 327.399 256.253 326.339 255.264 326.006C254.274 325.672 253.207 326.191 252.878 327.165C252.55 328.138 253.086 329.198 254.075 329.531C255.064 329.864 256.132 329.346 256.46 328.372Z" fill="#FE40B4"/>
<path d="M176.762 327.698C177.09 326.725 176.554 325.666 175.565 325.332C174.576 324.999 173.508 325.517 173.18 326.491C172.852 327.464 173.388 328.524 174.377 328.857C175.366 329.191 176.434 328.672 176.762 327.698Z" fill="#FE40B4"/>
<path d="M142.118 329.061C142.446 328.088 141.91 327.029 140.921 326.695C139.932 326.362 138.864 326.88 138.536 327.854C138.207 328.827 138.743 329.887 139.732 330.22C140.722 330.554 141.789 330.035 142.118 329.061Z" fill="#FE40B4"/>
<path d="M206.358 361.403C207.837 357.018 205.417 352.242 200.952 350.737C196.488 349.232 191.671 351.568 190.192 355.953C188.714 360.339 191.134 365.114 195.598 366.619C200.063 368.124 204.88 365.789 206.358 361.403Z" fill="#00124C"/>
<path d="M203.089 360.301C203.97 357.69 202.528 354.846 199.87 353.95C197.211 353.053 194.342 354.444 193.462 357.055C192.581 359.667 194.023 362.511 196.682 363.407C199.34 364.303 202.209 362.913 203.089 360.301Z" fill="#FDF001"/>
<path d="M201.222 359.672C201.761 358.075 200.877 356.337 199.25 355.788C197.622 355.239 195.866 356.088 195.328 357.685C194.79 359.281 195.673 361.02 197.301 361.568C198.929 362.117 200.684 361.268 201.222 359.672Z" fill="#FE40B4"/>
<path d="M199.621 359.132C199.866 358.404 199.463 357.612 198.72 357.361C197.976 357.111 197.175 357.497 196.93 358.225C196.685 358.952 197.088 359.745 197.831 359.995C198.575 360.246 199.376 359.859 199.621 359.132Z" fill="#00124C"/>
<path d="M140.67 460.07C140.69 460.01 140.7 459.94 140.67 459.93C140.72 459.98 140.13 460.49 140.01 460.77C138.19 463.38 139.82 466.18 140.66 468.9C136.94 467.34 135.52 461.1 140.14 459.77C140.43 459.68 141.11 459.77 140.66 460.07H140.67Z" fill="#00124C"/>
<path d="M251.44 468.53C251.42 468.59 251.41 468.66 251.44 468.67C251.39 468.62 251.98 468.11 252.1 467.83C253.92 465.22 252.29 462.42 251.45 459.7C255.17 461.26 256.59 467.5 251.97 468.83C251.68 468.92 251 468.83 251.45 468.53H251.44Z" fill="#00124C"/>
</g>
<path d="M86.4069 46.3778C70.2722 48.8866 60.0738 60.881 55.2188 82.0384C49.3679 59.1811 38.5039 49.64 21.2389 52.4529C38.9282 49.0974 50.1382 38.4222 52.4282 16.7923C56.6014 41.3536 69.8007 49.427 86.408 46.3778L86.4069 46.3778Z" fill="#FDF001"/>
<path d="M104.999 85.6012C95.5919 86.8353 89.5016 93.6619 86.3885 105.885C83.306 92.5262 77.1271 86.8333 67.0588 88.2284C77.3811 86.5239 84.0408 80.4777 85.6704 67.9442C87.7547 82.27 95.3105 87.1426 105 85.6012L104.999 85.6012Z" fill="#FDF001"/>
<path d="M44.1171 106.201C36.8975 107.148 32.2235 112.387 29.8344 121.768C27.4688 111.515 22.7268 107.146 15 108.217C22.9217 106.909 28.0327 102.269 29.2833 92.6501C30.8829 103.644 36.6815 107.384 44.1176 106.201L44.1171 106.201Z" fill="#FDF001"/>
<path d="M318.235 150.767C330.605 149.118 338.596 140.122 342.657 124.037C346.748 141.599 354.891 149.069 368.129 147.206C354.558 149.477 345.815 157.447 343.706 173.936C340.925 155.1 330.974 148.712 318.234 150.767L318.235 150.767Z" fill="#FDF001"/>
<path d="M304.68 120.488C311.888 119.701 316.655 114.586 319.237 105.298C321.37 115.557 325.997 120.009 333.713 119.11C325.798 120.241 320.609 124.751 319.156 134.3C317.801 123.32 312.108 119.471 304.679 120.488L304.68 120.488Z" fill="#FDF001"/>
<path d="M351.541 105.759C357.073 105.155 360.731 101.229 362.712 94.1014C364.35 101.974 367.9 105.391 373.822 104.701C367.747 105.569 363.765 109.03 362.65 116.359C361.61 107.932 357.242 104.978 351.54 105.759L351.541 105.759Z" fill="#FDF001"/>
<path d="M43.2579 581.616C52.0836 580.44 57.7854 574.021 60.6827 562.545C63.6017 575.075 69.4114 580.405 78.8569 579.076C69.1736 580.696 62.936 586.383 61.4315 598.147C59.4472 584.708 52.3471 580.151 43.2573 581.616L43.2579 581.616Z" fill="#FDF001"/>
<path d="M33.5869 560.013C38.7301 559.452 42.1311 555.802 43.973 549.175C45.4952 556.495 48.7964 559.671 54.3017 559.03C48.6542 559.837 44.952 563.054 43.9152 569.868C42.9486 562.033 38.8871 559.287 33.5865 560.013L33.5869 560.013Z" fill="#FDF001"/>
<path d="M67.021 549.504C70.9681 549.073 73.5782 546.272 74.9917 541.186C76.16 546.804 78.6934 549.242 82.9184 548.749C78.5843 549.369 75.7431 551.838 74.9474 557.067C74.2056 551.054 71.0886 548.947 67.0207 549.504L67.021 549.504Z" fill="#FDF001"/>
<path d="M296.486 469.759C305.013 468.622 310.521 462.421 313.321 451.333C316.141 463.439 321.754 468.589 330.879 467.305C321.524 468.87 315.498 474.364 314.044 485.731C312.127 472.746 305.267 468.343 296.485 469.759L296.486 469.759Z" fill="#FDF001"/>
<path d="M287.142 448.887C292.111 448.345 295.397 444.819 297.176 438.416C298.647 445.488 301.837 448.557 307.155 447.938C301.699 448.717 298.122 451.826 297.121 458.408C296.187 450.839 292.263 448.186 287.142 448.887L287.142 448.887Z" fill="#FDF001"/>
<path d="M319.444 438.734C323.258 438.318 325.779 435.612 327.145 430.698C328.274 436.125 330.722 438.481 334.803 438.005C330.616 438.603 327.871 440.989 327.102 446.041C326.386 440.232 323.374 438.196 319.444 438.734L319.444 438.734Z" fill="#FDF001"/>
<path d="M42.5863 328.231C51.6067 327.029 57.4343 320.469 60.3955 308.739C63.3789 321.546 69.3168 326.994 78.9707 325.635C69.0738 327.291 62.6985 333.103 61.1608 345.127C59.1328 331.392 51.876 326.733 42.5856 328.231L42.5863 328.231Z" fill="#FDF001"/>
<path d="M32.7014 306.152C37.9581 305.578 41.4341 301.848 43.3166 295.075C44.8725 302.556 48.2464 305.802 53.8732 305.147C48.1012 305.972 44.3173 309.26 43.2576 316.224C42.2696 308.216 38.1186 305.41 32.701 306.152L32.7014 306.152Z" fill="#FDF001"/>
<path d="M66.8735 295.41C70.9077 294.97 73.5753 292.108 75.0201 286.91C76.2141 292.651 78.8034 295.142 83.1217 294.639C78.6919 295.272 75.788 297.796 74.9748 303.14C74.2166 296.995 71.0309 294.841 66.8732 295.41L66.8735 295.41Z" fill="#FDF001"/>
<defs>
<linearGradient id="paint0_linear_264_3863" x1="152.16" y1="528.57" x2="199.83" y2="-17.58" gradientUnits="userSpaceOnUse">
<stop stop-color="#FE40B4"/>
<stop offset="0.21" stop-color="#FE4DB9"/>
<stop offset="0.6" stop-color="#FE72C8"/>
<stop offset="1" stop-color="#FF9FDA"/>
</linearGradient>
<linearGradient id="paint1_linear_264_3863" x1="236.887" y1="464.958" x2="261.527" y2="464.958" gradientUnits="userSpaceOnUse">
<stop stop-color="#00124C"/>
<stop offset="0.36" stop-color="#001559"/>
<stop offset="1" stop-color="#001E7D"/>
</linearGradient>
<linearGradient id="paint2_linear_264_3863" x1="248.88" y1="477.09" x2="250.64" y2="477.09" gradientUnits="userSpaceOnUse">
<stop stop-color="#00124C"/>
<stop offset="0.36" stop-color="#001559"/>
<stop offset="1" stop-color="#001E7D"/>
</linearGradient>
<linearGradient id="paint3_linear_264_3863" x1="251.96" y1="476.67" x2="254.11" y2="476.67" gradientUnits="userSpaceOnUse">
<stop stop-color="#00124C"/>
<stop offset="0.36" stop-color="#001559"/>
<stop offset="1" stop-color="#001E7D"/>
</linearGradient>
<linearGradient id="paint4_linear_264_3863" x1="254.71" y1="475.21" x2="256.9" y2="475.21" gradientUnits="userSpaceOnUse">
<stop stop-color="#00124C"/>
<stop offset="0.36" stop-color="#001559"/>
<stop offset="1" stop-color="#001E7D"/>
</linearGradient>
<linearGradient id="paint5_linear_264_3863" x1="131.147" y1="-1.00305" x2="155.787" y2="-1.00304" gradientUnits="userSpaceOnUse">
<stop stop-color="#00124C"/>
<stop offset="0.36" stop-color="#001559"/>
<stop offset="1" stop-color="#001E7D"/>
</linearGradient>
<linearGradient id="paint6_linear_264_3863" x1="133.07" y1="474.13" x2="136.21" y2="474.13" gradientUnits="userSpaceOnUse">
<stop stop-color="#00124C"/>
<stop offset="0.36" stop-color="#001559"/>
<stop offset="1" stop-color="#001E7D"/>
</linearGradient>
<linearGradient id="paint7_linear_264_3863" x1="135.41" y1="475.12" x2="138.57" y2="475.12" gradientUnits="userSpaceOnUse">
<stop stop-color="#00124C"/>
<stop offset="0.36" stop-color="#001559"/>
<stop offset="1" stop-color="#001E7D"/>
</linearGradient>
<linearGradient id="paint8_linear_264_3863" x1="138.52" y1="476.15" x2="140.46" y2="476.15" gradientUnits="userSpaceOnUse">
<stop stop-color="#00124C"/>
<stop offset="0.36" stop-color="#001559"/>
<stop offset="1" stop-color="#001E7D"/>
</linearGradient>
<linearGradient id="paint9_linear_264_3863" x1="190.22" y1="356.44" x2="199.57" y2="508.87" gradientUnits="userSpaceOnUse">
<stop stop-color="#FA4E8F"/>
<stop offset="0.04" stop-color="#FA5795"/>
<stop offset="0.18" stop-color="#FC77AA"/>
<stop offset="0.32" stop-color="#FD90BA"/>
<stop offset="0.48" stop-color="#FEA2C6"/>
<stop offset="0.64" stop-color="#FEADCD"/>
<stop offset="0.82" stop-color="#FFB1D0"/>
</linearGradient>
<linearGradient id="paint10_linear_264_3863" x1="189.15" y1="515.33" x2="201.85" y2="369.75" gradientUnits="userSpaceOnUse">
<stop stop-color="#00124C"/>
<stop offset="0.36" stop-color="#001559"/>
<stop offset="1" stop-color="#001E7D"/>
</linearGradient>
<clipPath id="clip0_264_3863">
<rect width="390" height="596.01" fill="white" transform="translate(0 -1)"/>
</clipPath>
</defs>
</svg>
