<svg width="390" height="604" viewBox="0 0 390 604" fill="none" xmlns="http://www.w3.org/2000/svg">
<g clip-path="url(#clip0_630_4074)">
<path d="M374.25 89.69C372.05 78.25 369.98 67.45 369.38 57.59C366.38 8.38 389.77 0.29 390.01 0.21L389.83 -1C389.58 -0.92 383.63 1.05 377.99 9.3C368.58 23.05 367.66 43.21 368.54 57.7C369.15 67.67 371.23 78.52 373.44 90.02C377.62 111.78 382.25 135.89 379.48 163.79C376.93 137.85 368.08 115.12 360.27 87.73C342.95 27.02 371.68 -0.39 371.68 -0.39H0C9.63 64.56 32.62 74.38 50.46 91.78C56.46 104.38 60.17 118.27 58.67 135.84C56.69 159.02 44.35 180.85 32.41 201.97C28.64 208.65 24.92 215.23 21.56 221.76C5.17 247.2 -4 274.38 17.64 305.14C18.57 307.34 19.48 309.39 20.37 311.36C27.98 328.4 33.48 340.72 26.8 403.39C22.82 440.76 28.09 471.46 42.04 492.18C52.28 507.38 66.98 516.86 84.25 519.91C102.99 527.82 125.32 524.52 145.18 516.45C176.77 503.61 210.11 504.39 241.81 516.62C254.99 521.7 270.47 526.09 286.28 523.19C308.2 520.86 330.98 503.78 344.87 478.04C356.39 456.7 367.19 419.86 353.26 365.52C345.58 335.54 343.7 311.96 345.12 292.15C345.89 290.38 346.72 288.63 347.63 286.89C375.03 234.2 381.95 198.75 379.83 168.21C383.57 138.26 378.66 112.67 374.24 89.68L374.25 89.69ZM33.07 202.76C45.08 181.51 57.5 159.54 59.51 136C60.94 119.24 57.75 105.82 52.37 93.7C59.53 101.11 65.72 110.18 69.63 125.26C77.29 154.77 48.35 183.26 26.7 214.13C28.76 210.37 30.9 206.58 33.06 202.76H33.07ZM42.65 491.32C28.89 470.89 23.71 440.56 27.64 403.59C34.36 340.45 28.79 327.97 21.08 310.7C20.75 309.97 20.42 309.23 20.09 308.48C20.32 308.78 20.55 309.08 20.78 309.38C60.82 360.18 16.92 443.99 62.49 502.93C67.52 509.44 73.3 514.25 79.56 517.67C64.56 513.86 51.79 504.91 42.65 491.33V491.32ZM352.47 365.96C366.26 419.76 355.59 456.19 344.21 477.28C333.57 497 317.65 511.58 300.94 518.23C305.66 515.84 310.35 512.62 314.96 508.39C380.17 448.67 317.17 361.99 344.08 294.64C343 314.06 345.06 337.05 352.47 365.95V365.96Z" fill="url(#paint0_linear_630_4074)"/>
<path d="M30.0801 595.01H363.83C363.83 595.01 341.26 523.92 262.12 538.97C262.12 538.97 194.98 570.87 124.88 538.97C124.88 538.97 65.2101 525.41 30.0801 595.01Z" fill="#FE40B4"/>
<path d="M260.922 467.77C262.464 461.284 258.456 454.777 251.97 453.236C245.485 451.695 238.978 455.702 237.437 462.188C235.895 468.673 239.903 475.18 246.388 476.722C252.874 478.263 259.381 474.255 260.922 467.77Z" fill="#FDF001" stroke="url(#paint1_linear_630_4074)" stroke-width="0.5" stroke-miterlimit="10"/>
<path d="M249.17 475.31C249.6 475.45 249.86 475.6 249.93 476.05L250.21 476.94C250.3 477.23 250.55 477.99 250.64 478.27C250.54 478.46 250.45 478.66 250.31 478.87C250.07 478.78 249.89 478.68 249.7 478.58C249.61 478.3 249.37 477.54 249.27 477.25L248.99 476.36C248.78 475.96 248.9 475.68 249.18 475.32L249.17 475.31Z" fill="url(#paint2_linear_630_4074)"/>
<path d="M252.16 474.6C252.65 474.75 252.93 474.96 253.04 475.44L253.47 476.47C253.61 476.81 253.98 477.69 254.11 478.02C254.04 478.25 253.98 478.48 253.87 478.72C253.62 478.62 253.41 478.51 253.2 478.39C253.06 478.07 252.7 477.18 252.56 476.84L252.13 475.81C251.87 475.39 251.92 475.04 252.16 474.59V474.6Z" fill="url(#paint3_linear_630_4074)"/>
<path d="M254.861 473.75C255.291 473.76 255.581 473.81 255.741 474.21L256.201 474.94C256.351 475.18 256.751 475.8 256.891 476.03C256.841 476.23 256.791 476.43 256.701 476.66C256.461 476.64 256.261 476.6 256.051 476.56C255.901 476.33 255.511 475.7 255.361 475.47L254.901 474.74C254.611 474.42 254.681 474.14 254.861 473.75Z" fill="url(#paint4_linear_630_4074)"/>
<path d="M151.993 473.48C156.707 468.766 156.707 461.124 151.993 456.41C147.279 451.696 139.637 451.696 134.923 456.41C130.21 461.124 130.21 468.766 134.923 473.48C139.637 478.193 147.279 478.193 151.993 473.48Z" fill="#FDF001" stroke="url(#paint5_linear_630_4074)" stroke-width="0.5" stroke-miterlimit="10"/>
<path d="M136.19 472.47C136.25 472.98 136.17 473.33 135.77 473.64L134.99 474.47C134.73 474.74 134.07 475.45 133.82 475.72C133.58 475.76 133.34 475.8 133.07 475.8C133.06 475.53 133.07 475.29 133.1 475.05C133.34 474.79 134.01 474.07 134.27 473.8L135.05 472.97C135.33 472.56 135.68 472.45 136.19 472.48V472.47Z" fill="url(#paint6_linear_630_4074)"/>
<path d="M135.44 477.02C135.36 476.48 135.45 476.11 135.84 475.76L136.62 474.81C136.88 474.5 137.54 473.69 137.79 473.38C138.04 473.32 138.28 473.25 138.56 473.22C138.58 473.5 138.56 473.75 138.56 474.01C138.32 474.31 137.65 475.12 137.39 475.44L136.61 476.39C136.34 476.84 135.99 477 135.45 477.03L135.44 477.02Z" fill="url(#paint7_linear_630_4074)"/>
<path d="M138.77 478.16C138.5 477.74 138.42 477.42 138.65 476.99L139 475.98C139.12 475.65 139.41 474.79 139.52 474.47C139.72 474.35 139.92 474.23 140.16 474.13C140.29 474.36 140.37 474.58 140.45 474.8C140.34 475.12 140.04 475.98 139.93 476.31L139.58 477.32C139.5 477.79 139.23 478 138.76 478.17L138.77 478.16Z" fill="url(#paint8_linear_630_4074)"/>
<path d="M264.12 538.98C264.12 538.98 258.01 555.67 241.59 568.81C230.95 577.34 215.95 584.36 195.5 584.36C175.05 584.36 160.05 577.34 149.4 568.81C132.98 555.67 126.88 538.98 126.88 538.98C144.9 539.63 157.21 531.68 165.51 521.78C166.17 520.98 166.82 520.17 167.43 519.35C178.72 504.41 181.66 486.4 181.66 486.4H209.33C209.33 486.4 212.27 504.41 223.56 519.35C224.16 520.17 224.81 520.98 225.48 521.78C233.79 531.68 246.1 539.63 264.12 538.98Z" fill="#3E4BF6"/>
<path d="M264.12 538.98C264.12 538.98 258.01 555.67 241.59 568.81C230.95 577.34 215.95 584.36 195.5 584.36C175.05 584.36 160.05 577.34 149.4 568.81C132.98 555.67 126.88 538.98 126.88 538.98C144.9 539.63 157.21 531.68 165.51 521.78C166.17 520.98 166.82 520.17 167.43 519.35C178.72 504.41 181.66 486.4 181.66 486.4H209.33C209.33 486.4 212.27 504.41 223.56 519.35C224.16 520.17 224.81 520.98 225.48 521.78C233.79 531.68 246.1 539.63 264.12 538.98Z" fill="#FF71C8"/>
<path d="M223.57 519.35C215.46 524.52 205.83 527.51 195.51 527.51C185.19 527.51 175.55 524.51 167.44 519.35C178.73 504.41 181.67 486.4 181.67 486.4H209.34C209.34 486.4 212.28 504.41 223.57 519.35Z" fill="#FE40B4"/>
<path d="M247.79 422.2C247.79 393.316 224.377 369.9 195.495 369.9C166.613 369.9 143.2 393.316 143.2 422.2V462.88C143.2 491.764 166.613 515.18 195.495 515.18C224.377 515.18 247.79 491.764 247.79 462.88V422.2Z" fill="url(#paint9_linear_630_4074)"/>
<path d="M247.79 422.2C247.79 393.316 224.377 369.9 195.495 369.9C166.613 369.9 143.2 393.316 143.2 422.2V462.88C143.2 491.764 166.613 515.18 195.495 515.18C224.377 515.18 247.79 491.764 247.79 462.88V422.2Z" fill="#FDF001" stroke="url(#paint10_linear_630_4074)" stroke-miterlimit="10"/>
<path d="M168.906 480.917C172.476 477.348 172.476 471.561 168.906 467.991C165.337 464.422 159.55 464.422 155.981 467.991C152.411 471.561 152.411 477.348 155.981 480.917C159.55 484.487 165.337 484.487 168.906 480.917Z" fill="#FE40B4"/>
<path d="M237.477 481.381C241.097 477.863 241.18 472.077 237.662 468.457C234.144 464.837 228.358 464.754 224.737 468.272C221.117 471.79 221.034 477.576 224.552 481.196C228.07 484.816 233.857 484.899 237.477 481.381Z" fill="#FE40B4"/>
<path d="M196.5 414.05C199.02 425.94 201.48 439.02 203.89 450.85C204.78 454.98 205.38 459.16 205.83 463.36C205.92 464.11 205.28 464.78 204.52 464.73C202.6 464.62 200.68 464.48 198.76 464.3C196.84 464.11 194.92 463.89 193 463.57C192.84 463.54 192.84 463.3 193 463.27C196.82 462.65 200.66 462.34 204.52 462.11L203.23 463.63C201.31 455.5 200.64 447.16 199.43 438.91C198.42 431.71 197.11 421.41 196.21 414.09C196.18 413.92 196.47 413.85 196.5 414.04V414.05Z" fill="#00124C"/>
<path d="M198.84 498.89C201.364 498.89 203.411 495.689 203.411 491.74C203.411 487.791 201.364 484.59 198.84 484.59C196.317 484.59 194.271 487.791 194.271 491.74C194.271 495.689 196.317 498.89 198.84 498.89Z" fill="#FF9FDA"/>
<path d="M215.571 496.69C204.511 490.62 193.141 490.49 182.121 496.69C182.051 496.74 181.931 496.74 181.881 496.65C181.851 496.59 181.861 496.53 181.901 496.48C188.321 489.34 199.351 487.1 208.081 491.05C211.011 492.27 213.581 494.22 215.781 496.48C215.901 496.62 215.731 496.81 215.571 496.69Z" fill="#00124C"/>
<path d="M217.16 494.27C217.28 496.39 216.13 498.4 214.27 499.4C214.23 499.43 214.16 499.41 214.18 499.35C214.86 498.05 216.31 495.48 217.07 494.22C217.1 494.17 217.17 494.22 217.16 494.27Z" fill="#00124C"/>
<path d="M183.101 498.32C181.371 497.76 180.281 496.07 180.451 494.27C180.451 494.22 180.491 494.17 180.531 494.22C181.231 495.2 182.56 497.24 183.18 498.27C183.21 498.32 183.141 498.35 183.101 498.32Z" fill="#00124C"/>
<path d="M180.93 442.33C180.93 442.33 180.95 442.31 180.95 442.3C180.94 442.3 180.93 442.3 180.92 442.32C175.12 434.36 161.42 434.3 155.65 442.32C155.64 442.32 155.63 442.32 155.62 442.31C155.62 442.31 155.64 442.33 155.64 442.34C155.64 442.34 155.62 442.36 155.62 442.37C155.63 442.37 155.64 442.37 155.65 442.35C161.45 450.31 175.15 450.37 180.92 442.35C180.93 442.35 180.94 442.35 180.95 442.36C180.95 442.36 180.93 442.34 180.93 442.33ZM155.68 442.33C163.75 438.29 172.82 438.32 180.9 442.33C172.83 446.37 163.76 446.34 155.68 442.33Z" fill="#00124C" stroke="url(#paint11_linear_630_4074)" stroke-miterlimit="10"/>
<path d="M168.04 439.31C166.37 439.31 165.02 440.66 165.02 442.33C165.02 444 166.37 445.35 168.04 445.35C169.71 445.35 171.06 444 171.06 442.33C171.06 440.66 169.71 439.31 168.04 439.31ZM167.55 442.54C167.01 442.54 166.57 442.1 166.57 441.56C166.57 441.02 167.01 440.58 167.55 440.58C168.09 440.58 168.53 441.02 168.53 441.56C168.53 442.1 168.09 442.54 167.55 442.54ZM168.72 443.83C168.48 443.83 168.29 443.64 168.29 443.4C168.29 443.16 168.48 442.97 168.72 442.97C168.96 442.97 169.15 443.16 169.15 443.4C169.15 443.64 168.96 443.83 168.72 443.83Z" fill="#00124C"/>
<path d="M233.88 442.3C233.88 442.3 233.9 442.28 233.9 442.27C233.89 442.27 233.88 442.27 233.87 442.29C228.07 434.33 214.37 434.27 208.6 442.29C208.59 442.29 208.58 442.29 208.57 442.28C208.57 442.28 208.59 442.3 208.59 442.31C208.59 442.31 208.57 442.33 208.57 442.34C208.58 442.34 208.59 442.34 208.6 442.32C214.4 450.28 228.1 450.34 233.87 442.32C233.88 442.32 233.89 442.32 233.9 442.33C233.9 442.33 233.88 442.31 233.88 442.3ZM208.63 442.3C216.7 438.26 225.77 438.29 233.85 442.3C225.78 446.34 216.71 446.31 208.63 442.3Z" fill="#00124C" stroke="url(#paint12_linear_630_4074)" stroke-miterlimit="10"/>
<path d="M221 439.28C219.33 439.28 217.98 440.63 217.98 442.3C217.98 443.97 219.33 445.32 221 445.32C222.67 445.32 224.02 443.97 224.02 442.3C224.02 440.63 222.67 439.28 221 439.28ZM220.51 442.51C219.97 442.51 219.53 442.07 219.53 441.53C219.53 440.99 219.97 440.55 220.51 440.55C221.05 440.55 221.49 440.99 221.49 441.53C221.49 442.07 221.05 442.51 220.51 442.51ZM221.68 443.8C221.44 443.8 221.25 443.61 221.25 443.37C221.25 443.13 221.44 442.94 221.68 442.94C221.92 442.94 222.11 443.13 222.11 443.37C222.11 443.61 221.92 443.8 221.68 443.8Z" fill="#00124C"/>
<path d="M165.63 532.98C160.8 534.44 166.07 540.26 167.02 553.49C160.19 545.99 153.22 539.55 147.68 535.31C145.12 536.4 142.38 537.29 139.45 537.92C143.4 544.07 150.36 551.97 152.06 556.44C151.56 555.88 133.77 535.93 128.47 540.38C124.87 543.4 141.49 557.99 145.91 567.14C145.91 567.14 126.01 545.04 122.35 548.18C117.96 551.95 134.71 567.81 139.2 575.75C138.27 574.56 123.25 555.29 118.7 555.54C114.45 555.77 123.19 573.56 140.94 595H194.63C182.06 565.69 170.9 531.38 165.63 532.97V532.98Z" fill="#FF71C8"/>
<path d="M256.42 595.01C274.26 576.01 283.37 560.23 279.32 559.7C274.8 559.1 258.37 577.19 257.36 578.31C262.44 570.73 280.33 556.17 276.24 552.08C272.83 548.67 251.32 569.21 251.32 569.21C256.42 560.42 274.1 547.12 270.73 543.84C265.78 539.01 246.54 557.56 246 558.08C248.21 553.36 257 545.02 261.1 538.99C257.57 538.93 254.27 538.52 251.19 537.84C245.47 541.66 238.36 547.35 231.3 554.01C233.24 540.89 238.94 535.48 234.23 533.66C228.99 531.64 214.83 566.39 199.76 595.01H256.42Z" fill="#FF71C8"/>
<path d="M195.96 587.97L195.98 588C182.86 558.06 171.09 521.2 165.63 522.85C160.8 524.31 166.07 530.13 167.02 543.36C152.9 527.87 138.15 516.85 136.81 520.54C135.12 525.18 149.52 539.62 152.06 546.31C151.56 545.75 133.77 525.8 128.47 530.25C124.87 533.27 141.49 547.86 145.91 557.01C145.91 557.01 126.01 534.91 122.35 538.05C117.96 541.82 134.71 557.68 139.2 565.62C138.27 564.43 123.25 545.16 118.7 545.41C114 545.67 125.18 567.39 146.87 591.78C147.74 592.76 148.55 593.85 149.33 595.01H194.58C195.35 593.41 196.14 591.81 196.94 590.24C196.61 589.48 196.29 588.72 195.95 587.96L195.96 587.97Z" fill="#FDF001"/>
<path d="M195.96 587.97L195.98 588C182.86 558.06 171.09 521.2 165.63 522.85C160.8 524.31 166.07 530.13 167.02 543.36C152.9 527.87 138.15 516.85 136.81 520.54C135.12 525.18 149.52 539.62 152.06 546.31C151.56 545.75 133.77 525.8 128.47 530.25C124.87 533.27 141.49 547.86 145.91 557.01C145.91 557.01 126.01 534.91 122.35 538.05C117.96 541.82 134.71 557.68 139.2 565.62C138.27 564.43 123.25 545.16 118.7 545.41C114 545.67 125.18 567.39 146.87 591.78C147.74 592.76 148.55 593.85 149.33 595.01H194.58C195.35 593.41 196.14 591.81 196.94 590.24C196.61 589.48 196.29 588.72 195.95 587.96L195.96 587.97Z" fill="#FDF001"/>
<path d="M279.32 549.56C274.8 548.96 258.37 567.05 257.36 568.17C262.44 560.59 280.33 546.03 276.24 541.94C272.83 538.53 251.32 559.07 251.32 559.07C256.42 550.28 274.1 536.98 270.73 533.7C265.78 528.87 246.54 547.42 246 547.94C249.04 541.45 264.48 528.14 263.15 523.39C262.08 519.61 246.55 529.48 231.3 543.87C233.24 530.75 238.94 525.34 234.23 523.52C228.91 521.46 214.39 557.34 199.06 586.2L199.08 586.17C198.36 587.51 197.65 588.87 196.95 590.24C196.14 591.82 195.36 593.41 194.59 595.01H246.46C246.88 594.55 247.31 594.1 247.74 593.67C271.21 570.98 283.99 550.16 279.32 549.55V549.56Z" fill="#FDF001"/>
<path d="M279.32 549.56C274.8 548.96 258.37 567.05 257.36 568.17C262.44 560.59 280.33 546.03 276.24 541.94C272.83 538.53 251.32 559.07 251.32 559.07C256.42 550.28 274.1 536.98 270.73 533.7C265.78 528.87 246.54 547.42 246 547.94C249.04 541.45 264.48 528.14 263.15 523.39C262.08 519.61 246.55 529.48 231.3 543.87C233.24 530.75 238.94 525.34 234.23 523.52C228.91 521.46 214.39 557.34 199.06 586.2L199.08 586.17C198.36 587.51 197.65 588.87 196.95 590.24C196.14 591.82 195.36 593.41 194.59 595.01H246.46C246.88 594.55 247.31 594.1 247.74 593.67C271.21 570.98 283.99 550.16 279.32 549.55V549.56Z" fill="#FDF001"/>
<path d="M143.2 374.15V438.37H148.67V439.07C148.79 439.07 161.09 438.96 169.61 429.1C176.64 420.97 179.16 408.74 177.13 392.73C185.45 417.02 206.27 434.98 231.62 439.59L247.79 442.53V374.14H143.2V374.15Z" fill="#FFF983"/>
<path d="M133.67 359.54C117.47 380.89 121.85 408.03 133.67 437.26H140.29V438.11C140.44 438.11 155.31 437.97 165.63 426.05C174.14 416.21 177.18 401.41 174.73 382.04C184.8 411.43 209.99 433.17 240.68 438.75L260.25 442.3C273.39 413.04 275.22 385.22 260.25 359.54C182.66 317.65 182.8 330.51 133.68 359.54H133.67ZM164.99 425.48C156.86 434.89 145.81 436.78 141.81 437.16C148.32 434.69 173.54 422.61 174.03 383.35C176.18 401.87 173.15 416.04 164.98 425.48H164.99Z" fill="#FE40B4"/>
<path d="M297.563 375.876C292.57 375.876 288.509 379.872 288.461 384.819L246.619 385.031L279.785 357.677C281.443 359.415 283.791 360.504 286.394 360.504C291.424 360.504 295.502 356.454 295.502 351.459C295.502 346.464 291.424 342.414 286.394 342.414C281.364 342.414 277.285 346.464 277.285 351.459C277.285 352.494 277.462 353.487 277.785 354.414L237.431 369.235L258.587 333.278C259.739 333.804 261.025 334.101 262.379 334.101C267.409 334.101 271.487 330.051 271.487 325.056C271.487 320.061 267.409 316.011 262.379 316.011C257.349 316.011 253.27 320.061 253.27 325.056C253.27 327.181 254.008 329.13 255.24 330.674L223.36 357.513L231.017 315.659C231.566 315.762 232.127 315.817 232.7 315.817C237.73 315.817 241.808 311.767 241.808 306.772C241.808 301.777 237.73 297.726 232.7 297.726C227.67 297.726 223.591 301.777 223.591 306.772C223.591 309.817 225.109 312.511 227.432 314.152L206.1 351.277L198.802 308.897C202.929 308.037 206.027 304.398 206.027 300.045C206.027 295.05 201.948 291 196.918 291C191.888 291 187.81 295.05 187.81 300.045C187.81 304.398 190.907 308.031 195.034 308.897L187.736 351.277L166.599 314.485C169.001 312.856 170.574 310.12 170.574 307.014C170.574 302.019 166.495 297.969 161.466 297.969C156.436 297.969 152.357 302.019 152.357 307.014C152.357 312.009 156.436 316.059 161.466 316.059C161.947 316.059 162.417 316.023 162.874 315.95L170.477 357.519L138.28 330.414C139.371 328.925 140.017 327.09 140.017 325.104C140.017 320.109 135.939 316.059 130.909 316.059C125.879 316.059 121.8 320.109 121.8 325.104C121.8 330.099 125.879 334.15 130.909 334.15C132.439 334.15 133.884 333.774 135.152 333.108L156.411 369.241L115.886 354.359C116.38 353.245 116.655 352.016 116.655 350.726C116.655 345.732 112.576 341.681 107.546 341.681C102.516 341.681 98.4375 345.732 98.4375 350.726C98.4375 355.721 102.516 359.772 107.546 359.772C109.924 359.772 112.082 358.87 113.704 357.386L147.23 385.037L105.211 384.825C105.071 379.951 101.053 376.046 96.1085 376.046C91.1641 376.046 87 380.096 87 385.091C87 390.086 91.0787 394.136 96.1085 394.136C99.7727 394.136 102.925 391.987 104.376 388.893L144.023 402.994C153.826 383.923 173.793 370.869 196.833 370.869C219.872 370.869 239.839 383.929 249.643 403H249.795L289.381 388.918C290.869 391.908 293.966 393.967 297.557 393.967C302.587 393.967 306.666 389.916 306.666 384.922C306.666 379.927 302.587 375.876 297.557 375.876H297.563Z" fill="#FDF001"/>
<path d="M297.52 389.444C300.035 389.444 302.074 387.419 302.074 384.922C302.074 382.424 300.035 380.399 297.52 380.399C295.005 380.399 292.966 382.424 292.966 384.922C292.966 387.419 295.005 389.444 297.52 389.444Z" fill="#FE40B4" stroke="#00124C" stroke-miterlimit="10"/>
<path d="M286.357 355.988C288.872 355.988 290.911 353.963 290.911 351.465C290.911 348.967 288.872 346.942 286.357 346.942C283.842 346.942 281.803 348.967 281.803 351.465C281.803 353.963 283.842 355.988 286.357 355.988Z" fill="#FE40B4" stroke="#00124C" stroke-miterlimit="10"/>
<path d="M262.342 329.585C264.857 329.585 266.896 327.56 266.896 325.062C266.896 322.564 264.857 320.539 262.342 320.539C259.827 320.539 257.788 322.564 257.788 325.062C257.788 327.56 259.827 329.585 262.342 329.585Z" fill="#FE40B4" stroke="#00124C" stroke-miterlimit="10"/>
<path d="M232.663 311.3C235.178 311.3 237.217 309.275 237.217 306.778C237.217 304.28 235.178 302.255 232.663 302.255C230.148 302.255 228.109 304.28 228.109 306.778C228.109 309.275 230.148 311.3 232.663 311.3Z" fill="#FE40B4" stroke="#00124C" stroke-miterlimit="10"/>
<path d="M196.887 304.574C199.403 304.574 201.442 302.549 201.442 300.051C201.442 297.554 199.403 295.529 196.887 295.529C194.372 295.529 192.333 297.554 192.333 300.051C192.333 302.549 194.372 304.574 196.887 304.574Z" fill="#FE40B4" stroke="#00124C" stroke-miterlimit="10"/>
<path d="M161.435 311.536C163.95 311.536 165.989 309.512 165.989 307.014C165.989 304.516 163.95 302.491 161.435 302.491C158.92 302.491 156.881 304.516 156.881 307.014C156.881 309.512 158.92 311.536 161.435 311.536Z" fill="#FE40B4" stroke="#00124C" stroke-miterlimit="10"/>
<path d="M130.878 329.627C133.393 329.627 135.432 327.602 135.432 325.104C135.432 322.607 133.393 320.582 130.878 320.582C128.363 320.582 126.324 322.607 126.324 325.104C126.324 327.602 128.363 329.627 130.878 329.627Z" fill="#FE40B4" stroke="#00124C" stroke-miterlimit="10"/>
<path d="M107.509 355.249C110.025 355.249 112.064 353.224 112.064 350.726C112.064 348.229 110.025 346.204 107.509 346.204C104.994 346.204 102.955 348.229 102.955 350.726C102.955 353.224 104.994 355.249 107.509 355.249Z" fill="#FE40B4" stroke="#00124C" stroke-miterlimit="10"/>
<path d="M96.0782 389.608C98.5934 389.608 100.632 387.583 100.632 385.085C100.632 382.587 98.5934 380.562 96.0782 380.562C93.5629 380.562 91.5239 382.587 91.5239 385.085C91.5239 387.583 93.5629 389.608 96.0782 389.608Z" fill="#FE40B4" stroke="#00124C" stroke-miterlimit="10"/>
<path d="M140.67 460.07C140.69 460.01 140.7 459.94 140.67 459.93C140.72 459.98 140.13 460.49 140.01 460.77C138.19 463.38 139.82 466.18 140.66 468.9C136.94 467.34 135.52 461.1 140.14 459.77C140.43 459.68 141.11 459.77 140.66 460.07H140.67Z" fill="#00124C"/>
<path d="M251.44 468.53C251.42 468.59 251.41 468.66 251.44 468.67C251.39 468.62 251.98 468.11 252.1 467.83C253.92 465.22 252.29 462.42 251.45 459.7C255.17 461.26 256.59 467.5 251.97 468.83C251.68 468.92 251 468.83 251.45 468.53H251.44Z" fill="#00124C"/>
</g>
<g clip-path="url(#clip1_630_4074)">
<path d="M33.6565 92.4658C31.8904 92.4967 30.224 92.5286 28.5593 92.5541C25.9192 92.5949 24.1052 90.7247 24.3356 88.2022C24.5605 85.7356 26.6937 83.7968 29.2956 83.7151C30.7819 83.6688 32.2667 83.6529 33.8446 83.6206C33.8861 81.9399 33.8828 80.3399 33.9747 78.7335C34.1677 75.3244 37.9293 73.0221 40.7716 74.572C42.1142 75.3031 42.8085 76.5048 42.7907 78.1211C42.7721 79.8701 42.7344 81.6215 42.702 83.4395C44.558 83.4077 46.3439 83.3378 48.1201 83.3544C51.142 83.383 52.8826 86.2771 51.6507 89.1626C50.9214 90.8712 49.2417 92.078 47.389 92.1691C45.8086 92.247 44.2324 92.2728 42.6535 92.3228C42.6282 92.3241 42.6001 92.3522 42.806 92.3551C42.6522 93.9369 42.329 95.5442 42.3852 97.0985C42.4603 99.1762 40.0756 101.542 38.1895 101.784C35.8696 102.078 33.7802 100.632 33.6294 98.3612C33.5199 96.7163 33.6411 95.0325 33.6566 93.3658C33.6593 93.1015 33.6568 92.8399 33.6565 92.4658Z" fill="#FDF001"/>
</g>
<g clip-path="url(#clip2_630_4074)">
<path d="M90.6897 106.231C88.9236 106.262 87.2572 106.294 85.5925 106.319C82.9524 106.36 81.1384 104.49 81.3688 101.967C81.5937 99.5007 83.7269 97.5619 86.3288 97.4802C87.8151 97.4339 89.2999 97.418 90.8778 97.3858C90.9193 95.705 90.916 94.105 91.0079 92.4987C91.2009 89.0896 94.9625 86.7872 97.8048 88.3371C99.1474 89.0682 99.8417 90.2699 99.8239 91.8862C99.8053 93.6353 99.7676 95.3866 99.7352 97.2047C101.591 97.1728 103.377 97.1029 105.153 97.1196C108.175 97.1482 109.916 100.042 108.684 102.928C107.955 104.636 106.275 105.843 104.422 105.934C102.842 106.012 101.266 106.038 99.6867 106.088C99.6614 106.089 99.6333 106.117 99.8392 106.12C99.6854 107.702 99.3622 109.309 99.4184 110.864C99.4935 112.941 97.1088 115.307 95.2227 115.549C92.9028 115.843 90.8134 114.397 90.6626 112.126C90.5531 110.481 90.6743 108.798 90.6898 107.131C90.6925 106.867 90.69 106.605 90.6897 106.231Z" fill="#FDF001"/>
</g>
<g clip-path="url(#clip3_630_4074)">
<path d="M64.5765 44.6765C61.6329 44.728 58.8556 44.7811 56.0811 44.8236C51.6809 44.8915 48.6575 41.7747 49.0416 37.5705C49.4165 33.4595 52.9718 30.2281 57.3082 30.0919C59.7855 30.0147 62.2601 29.9882 64.8899 29.9345C64.959 27.1333 64.9536 24.4666 65.1068 21.7893C65.4284 16.1075 71.6978 12.2702 76.4349 14.8534C78.6725 16.0719 79.8298 18.0747 79.8 20.7686C79.7691 23.6837 79.7063 26.6026 79.6523 29.6327C82.7455 29.5796 85.7221 29.4631 88.6825 29.4908C93.719 29.5385 96.6199 34.3619 94.5668 39.1712C93.3512 42.0188 90.5518 44.0301 87.4638 44.182C84.83 44.3118 82.2028 44.3548 79.5714 44.4381C79.5292 44.4403 79.4825 44.4871 79.8256 44.492C79.5693 47.1284 79.0305 49.8072 79.1243 52.3975C79.2495 55.8605 75.2749 59.803 72.1315 60.2064C68.265 60.6968 64.7826 58.2869 64.5313 54.5021C64.3487 51.7606 64.5508 48.9543 64.5766 46.1764C64.5811 45.7359 64.577 45.3 64.5765 44.6765Z" fill="#FDF001"/>
</g>
<g clip-path="url(#clip4_630_4074)">
<path d="M103.586 555.299C104.621 555.281 105.597 555.262 106.573 555.247C108.12 555.223 109.182 556.319 109.047 557.797C108.916 559.242 107.666 560.378 106.141 560.426C105.27 560.453 104.4 560.462 103.476 560.481C103.451 561.466 103.453 562.404 103.4 563.345C103.286 565.342 101.082 566.691 99.417 565.783C98.6303 565.355 98.2234 564.651 98.2339 563.704C98.2448 562.679 98.2669 561.653 98.2858 560.587C97.1984 560.606 96.1519 560.647 95.1112 560.637C93.3405 560.621 92.3207 558.925 93.0425 557.234C93.4698 556.233 94.454 555.526 95.5396 555.472C96.4656 555.427 97.3892 555.412 98.3143 555.382C98.3291 555.382 98.3455 555.365 98.2249 555.363C98.315 554.437 98.5044 553.495 98.4715 552.584C98.4275 551.367 99.8248 549.981 100.93 549.839C102.289 549.666 103.513 550.514 103.602 551.844C103.666 552.808 103.595 553.795 103.586 554.771C103.584 554.926 103.586 555.079 103.586 555.299Z" fill="#FDF001"/>
</g>
<g clip-path="url(#clip5_630_4074)">
<path d="M70.168 547.233C71.2028 547.215 72.1792 547.196 73.1546 547.181C74.7016 547.157 75.7645 548.253 75.6295 549.731C75.4977 551.177 74.2477 552.313 72.7232 552.36C71.8523 552.388 70.9823 552.397 70.0578 552.416C70.0335 553.401 70.0354 554.338 69.9815 555.279C69.8685 557.277 67.6644 558.626 65.999 557.718C65.2123 557.289 64.8055 556.585 64.8159 555.638C64.8268 554.613 64.8489 553.587 64.8679 552.522C63.7804 552.541 62.734 552.582 61.6932 552.572C59.9225 552.555 58.9027 550.859 59.6245 549.169C60.0518 548.167 61.036 547.46 62.1216 547.407C63.0476 547.361 63.9712 547.346 64.8963 547.317C64.9112 547.316 64.9276 547.3 64.807 547.298C64.8971 546.371 65.0865 545.429 65.0535 544.519C65.0095 543.301 66.4068 541.915 67.5119 541.773C68.8712 541.601 70.0955 542.448 70.1839 543.779C70.2481 544.743 70.177 545.729 70.1679 546.706C70.1663 546.861 70.1678 547.014 70.168 547.233Z" fill="#FDF001"/>
</g>
<g clip-path="url(#clip6_630_4074)">
<path d="M85.4681 583.3C87.1929 583.27 88.8202 583.239 90.4459 583.214C93.0241 583.174 94.7956 585 94.5706 587.464C94.3509 589.873 92.2677 591.766 89.7269 591.846C88.2753 591.891 86.8254 591.907 85.2845 591.938C85.2439 593.579 85.2471 595.142 85.1574 596.711C84.9689 600.04 81.2955 602.288 78.5198 600.775C77.2087 600.061 76.5306 598.887 76.548 597.309C76.5662 595.601 76.603 593.89 76.6346 592.115C74.8222 592.146 73.0781 592.214 71.3435 592.198C68.3924 592.17 66.6927 589.344 67.8957 586.526C68.6079 584.857 70.2482 583.679 72.0575 583.59C73.6008 583.514 75.1401 583.489 76.682 583.44C76.7067 583.439 76.7341 583.411 76.5331 583.408C76.6832 581.864 76.9989 580.294 76.944 578.776C76.8706 576.747 79.1995 574.437 81.0414 574.201C83.3069 573.913 85.3473 575.325 85.4946 577.543C85.6016 579.149 85.4831 580.794 85.468 582.421C85.4654 582.679 85.4678 582.935 85.4681 583.3Z" fill="#FDF001"/>
</g>
<g clip-path="url(#clip7_630_4074)">
<path d="M312.552 147.725C311.366 147.745 310.247 147.767 309.13 147.784C307.358 147.811 306.14 146.556 306.295 144.863C306.446 143.207 307.878 141.905 309.624 141.85C310.622 141.819 311.619 141.809 312.678 141.787C312.706 140.659 312.704 139.585 312.765 138.506C312.895 136.218 315.42 134.672 317.328 135.713C318.229 136.203 318.695 137.01 318.683 138.095C318.671 139.269 318.646 140.445 318.624 141.665C319.87 141.644 321.069 141.597 322.261 141.608C324.29 141.628 325.458 143.57 324.631 145.507C324.141 146.654 323.014 147.464 321.77 147.526C320.709 147.578 319.651 147.595 318.591 147.629C318.574 147.63 318.555 147.648 318.694 147.65C318.59 148.712 318.373 149.791 318.411 150.835C318.462 152.229 316.861 153.817 315.595 153.98C314.037 154.177 312.635 153.207 312.534 151.682C312.46 150.578 312.541 149.448 312.552 148.329C312.554 148.151 312.552 147.976 312.552 147.725Z" fill="#FDF001"/>
</g>
<g clip-path="url(#clip8_630_4074)">
<path d="M350.837 156.965C349.652 156.986 348.533 157.007 347.416 157.024C345.643 157.052 344.426 155.796 344.58 154.103C344.731 152.447 346.163 151.146 347.91 151.091C348.908 151.06 349.904 151.049 350.964 151.027C350.991 149.899 350.989 148.825 351.051 147.747C351.18 145.458 353.706 143.913 355.614 144.953C356.515 145.444 356.981 146.251 356.969 147.336C356.957 148.51 356.931 149.685 356.91 150.906C358.155 150.884 359.354 150.838 360.547 150.849C362.575 150.868 363.744 152.811 362.917 154.748C362.427 155.895 361.3 156.705 360.056 156.766C358.995 156.818 357.937 156.836 356.877 156.869C356.86 156.87 356.841 156.889 356.979 156.891C356.876 157.953 356.659 159.032 356.697 160.075C356.747 161.47 355.146 163.058 353.88 163.22C352.323 163.418 350.92 162.447 350.819 160.923C350.746 159.818 350.827 158.688 350.837 157.569C350.839 157.392 350.838 157.216 350.837 156.965Z" fill="#FDF001"/>
</g>
<g clip-path="url(#clip9_630_4074)">
<path d="M333.308 115.644C331.332 115.679 329.468 115.714 327.605 115.743C324.651 115.788 322.622 113.696 322.88 110.874C323.131 108.114 325.518 105.945 328.429 105.854C330.092 105.802 331.753 105.784 333.519 105.748C333.565 103.867 333.561 102.077 333.664 100.28C333.88 96.4659 338.089 93.89 341.269 95.624C342.771 96.442 343.548 97.7865 343.528 99.5948C343.507 101.552 343.465 103.511 343.428 105.545C345.505 105.51 347.503 105.431 349.49 105.45C352.871 105.482 354.819 108.72 353.44 111.948C352.624 113.86 350.745 115.21 348.672 115.312C346.904 115.399 345.141 115.428 343.374 115.484C343.346 115.486 343.314 115.517 343.545 115.52C343.373 117.29 343.011 119.088 343.074 120.827C343.158 123.152 340.49 125.798 338.38 126.069C335.784 126.398 333.447 124.781 333.278 122.24C333.155 120.4 333.291 118.516 333.308 116.651C333.311 116.355 333.309 116.063 333.308 115.644Z" fill="#FDF001"/>
</g>
<g clip-path="url(#clip10_630_4074)">
<path d="M60.7238 354.964C59.8145 354.98 58.9565 354.997 58.0993 355.01C56.74 355.031 55.806 354.068 55.9246 352.769C56.0404 351.499 57.1388 350.501 58.4784 350.459C59.2437 350.435 60.0082 350.427 60.8206 350.41C60.842 349.545 60.8403 348.721 60.8877 347.894C60.987 346.138 62.9238 344.953 64.3873 345.751C65.0786 346.127 65.4361 346.746 65.4269 347.578C65.4173 348.479 65.3979 349.381 65.3812 350.317C66.3368 350.3 67.2564 350.264 68.171 350.273C69.7269 350.288 70.6231 351.778 69.9888 353.264C69.6133 354.143 68.7485 354.765 67.7945 354.812C66.9808 354.852 66.1692 354.865 65.3563 354.891C65.3432 354.891 65.3288 354.906 65.4348 354.907C65.3556 355.722 65.1892 356.549 65.2181 357.35C65.2568 358.419 64.0289 359.637 63.0578 359.762C61.8633 359.914 60.7875 359.169 60.7099 358C60.6535 357.153 60.7159 356.286 60.7239 355.428C60.7253 355.292 60.724 355.157 60.7238 354.964Z" fill="#FDF001"/>
</g>
<g clip-path="url(#clip11_630_4074)">
<path d="M90.0896 362.052C89.1802 362.068 88.3222 362.084 87.465 362.097C86.1057 362.118 85.1717 361.155 85.2903 359.857C85.4061 358.587 86.5045 357.588 87.8441 357.546C88.6095 357.522 89.3739 357.514 90.1864 357.498C90.2077 356.632 90.2061 355.808 90.2534 354.981C90.3527 353.226 92.2896 352.041 93.753 352.839C94.4443 353.215 94.8018 353.834 94.7926 354.666C94.783 355.566 94.7636 356.468 94.747 357.404C95.7026 357.388 96.6221 357.352 97.5367 357.361C99.0926 357.375 99.9888 358.865 99.3545 360.351C98.979 361.231 98.1142 361.852 97.1602 361.899C96.3465 361.939 95.5349 361.952 94.722 361.978C94.7089 361.979 94.6945 361.993 94.8005 361.995C94.7213 362.809 94.5549 363.637 94.5838 364.437C94.6225 365.507 93.3947 366.725 92.4235 366.85C91.229 367.001 90.1532 366.257 90.0756 365.087C90.0192 364.24 90.0816 363.373 90.0896 362.515C90.091 362.379 90.0897 362.244 90.0896 362.052Z" fill="#FDF001"/>
</g>
<g clip-path="url(#clip12_630_4074)">
<path d="M76.6445 330.358C75.1289 330.385 73.6989 330.412 72.2704 330.434C70.0048 330.469 68.4481 328.864 68.6458 326.699C68.8388 324.583 70.6695 322.919 72.9022 322.849C74.1777 322.809 75.4518 322.795 76.8059 322.768C76.8415 321.325 76.8387 319.952 76.9176 318.574C77.0832 315.648 80.3112 313.673 82.7503 315.003C83.9024 315.63 84.4983 316.661 84.483 318.048C84.467 319.549 84.4347 321.052 84.4069 322.612C85.9996 322.585 87.5321 322.525 89.0564 322.539C91.6497 322.564 93.1433 325.047 92.0861 327.524C91.4603 328.99 90.0189 330.025 88.429 330.104C87.0728 330.17 85.7201 330.193 84.3653 330.235C84.3435 330.237 84.3194 330.261 84.4961 330.263C84.3641 331.621 84.0868 333 84.135 334.334C84.1995 336.117 82.153 338.147 80.5345 338.354C78.5437 338.607 76.7507 337.366 76.6213 335.417C76.5272 334.006 76.6313 332.561 76.6446 331.131C76.6469 330.904 76.6448 330.679 76.6445 330.358Z" fill="#FDF001"/>
</g>
<g clip-path="url(#clip13_630_4074)">
<path d="M299.761 454.618C298.989 454.631 298.261 454.645 297.533 454.656C296.378 454.674 295.585 453.856 295.686 452.754C295.784 451.675 296.717 450.827 297.855 450.792C298.505 450.771 299.154 450.764 299.844 450.75C299.862 450.016 299.86 449.316 299.9 448.614C299.985 447.123 301.629 446.117 302.872 446.794C303.459 447.114 303.763 447.639 303.755 448.346C303.747 449.111 303.73 449.876 303.716 450.671C304.528 450.657 305.308 450.627 306.085 450.634C307.406 450.647 308.167 451.912 307.629 453.173C307.31 453.92 306.575 454.448 305.765 454.488C305.074 454.522 304.385 454.533 303.695 454.555C303.684 454.556 303.672 454.568 303.762 454.569C303.694 455.261 303.553 455.964 303.578 456.643C303.61 457.551 302.568 458.586 301.743 458.691C300.729 458.82 299.815 458.188 299.749 457.195C299.702 456.476 299.755 455.74 299.761 455.011C299.763 454.895 299.761 454.781 299.761 454.618Z" fill="#FDF001"/>
</g>
<g clip-path="url(#clip14_630_4074)">
<path d="M324.696 460.636C323.924 460.649 323.196 460.663 322.468 460.674C321.314 460.692 320.52 459.875 320.621 458.772C320.72 457.693 321.652 456.846 322.79 456.81C323.44 456.79 324.089 456.783 324.779 456.769C324.797 456.034 324.795 455.334 324.835 454.632C324.92 453.141 326.564 452.135 327.807 452.812C328.394 453.132 328.698 453.658 328.69 454.364C328.682 455.129 328.665 455.895 328.651 456.689C329.463 456.676 330.243 456.645 331.02 456.652C332.341 456.665 333.102 457.93 332.564 459.192C332.245 459.939 331.51 460.466 330.7 460.506C330.009 460.54 329.32 460.551 328.63 460.573C328.619 460.574 328.607 460.586 328.697 460.587C328.629 461.279 328.488 461.982 328.513 462.661C328.545 463.57 327.503 464.604 326.678 464.71C325.664 464.838 324.75 464.206 324.685 463.213C324.637 462.494 324.69 461.758 324.696 461.029C324.698 460.914 324.696 460.799 324.696 460.636Z" fill="#FDF001"/>
</g>
<g clip-path="url(#clip15_630_4074)">
<path d="M313.28 433.724C311.993 433.746 310.779 433.769 309.565 433.788C307.642 433.818 306.32 432.455 306.488 430.617C306.652 428.82 308.206 427.407 310.102 427.347C311.185 427.313 312.267 427.302 313.417 427.278C313.447 426.054 313.445 424.888 313.512 423.717C313.652 421.233 316.393 419.555 318.464 420.685C319.443 421.218 319.949 422.093 319.936 423.271C319.922 424.545 319.895 425.822 319.871 427.146C321.223 427.123 322.525 427.072 323.819 427.084C326.021 427.105 327.289 429.214 326.392 431.317C325.86 432.562 324.636 433.441 323.286 433.507C322.135 433.564 320.986 433.583 319.836 433.619C319.817 433.62 319.797 433.641 319.947 433.643C319.835 434.796 319.599 435.967 319.64 437.099C319.695 438.613 317.957 440.337 316.583 440.514C314.892 440.728 313.37 439.674 313.26 438.02C313.18 436.821 313.269 435.594 313.28 434.379C313.282 434.187 313.28 433.996 313.28 433.724Z" fill="#FDF001"/>
</g>
<defs>
<linearGradient id="paint0_linear_630_4074" x1="152.16" y1="528.57" x2="199.83" y2="-17.58" gradientUnits="userSpaceOnUse">
<stop stop-color="#FE40B4"/>
<stop offset="0.21" stop-color="#FE4DB9"/>
<stop offset="0.6" stop-color="#FE72C8"/>
<stop offset="1" stop-color="#FF9FDA"/>
</linearGradient>
<linearGradient id="paint1_linear_630_4074" x1="236.887" y1="464.958" x2="261.527" y2="464.958" gradientUnits="userSpaceOnUse">
<stop stop-color="#00124C"/>
<stop offset="0.36" stop-color="#001559"/>
<stop offset="1" stop-color="#001E7D"/>
</linearGradient>
<linearGradient id="paint2_linear_630_4074" x1="248.88" y1="477.09" x2="250.64" y2="477.09" gradientUnits="userSpaceOnUse">
<stop stop-color="#00124C"/>
<stop offset="0.36" stop-color="#001559"/>
<stop offset="1" stop-color="#001E7D"/>
</linearGradient>
<linearGradient id="paint3_linear_630_4074" x1="251.96" y1="476.67" x2="254.11" y2="476.67" gradientUnits="userSpaceOnUse">
<stop stop-color="#00124C"/>
<stop offset="0.36" stop-color="#001559"/>
<stop offset="1" stop-color="#001E7D"/>
</linearGradient>
<linearGradient id="paint4_linear_630_4074" x1="254.711" y1="475.21" x2="256.901" y2="475.21" gradientUnits="userSpaceOnUse">
<stop stop-color="#00124C"/>
<stop offset="0.36" stop-color="#001559"/>
<stop offset="1" stop-color="#001E7D"/>
</linearGradient>
<linearGradient id="paint5_linear_630_4074" x1="131.148" y1="-1.00301" x2="155.788" y2="-1.003" gradientUnits="userSpaceOnUse">
<stop stop-color="#00124C"/>
<stop offset="0.36" stop-color="#001559"/>
<stop offset="1" stop-color="#001E7D"/>
</linearGradient>
<linearGradient id="paint6_linear_630_4074" x1="133.07" y1="474.13" x2="136.21" y2="474.13" gradientUnits="userSpaceOnUse">
<stop stop-color="#00124C"/>
<stop offset="0.36" stop-color="#001559"/>
<stop offset="1" stop-color="#001E7D"/>
</linearGradient>
<linearGradient id="paint7_linear_630_4074" x1="135.41" y1="475.12" x2="138.57" y2="475.12" gradientUnits="userSpaceOnUse">
<stop stop-color="#00124C"/>
<stop offset="0.36" stop-color="#001559"/>
<stop offset="1" stop-color="#001E7D"/>
</linearGradient>
<linearGradient id="paint8_linear_630_4074" x1="138.52" y1="476.15" x2="140.46" y2="476.15" gradientUnits="userSpaceOnUse">
<stop stop-color="#00124C"/>
<stop offset="0.36" stop-color="#001559"/>
<stop offset="1" stop-color="#001E7D"/>
</linearGradient>
<linearGradient id="paint9_linear_630_4074" x1="190.22" y1="356.44" x2="199.57" y2="508.87" gradientUnits="userSpaceOnUse">
<stop stop-color="#FA4E8F"/>
<stop offset="0.04" stop-color="#FA5795"/>
<stop offset="0.18" stop-color="#FC77AA"/>
<stop offset="0.32" stop-color="#FD90BA"/>
<stop offset="0.48" stop-color="#FEA2C6"/>
<stop offset="0.64" stop-color="#FEADCD"/>
<stop offset="0.82" stop-color="#FFB1D0"/>
</linearGradient>
<linearGradient id="paint10_linear_630_4074" x1="189.15" y1="515.33" x2="201.85" y2="369.75" gradientUnits="userSpaceOnUse">
<stop stop-color="#00124C"/>
<stop offset="0.36" stop-color="#001559"/>
<stop offset="1" stop-color="#001E7D"/>
</linearGradient>
<linearGradient id="paint11_linear_630_4074" x1="167.74" y1="448.85" x2="168.88" y2="435.81" gradientUnits="userSpaceOnUse">
<stop stop-color="#00124C"/>
<stop offset="0.36" stop-color="#001559"/>
<stop offset="1" stop-color="#001E7D"/>
</linearGradient>
<linearGradient id="paint12_linear_630_4074" x1="220.7" y1="448.82" x2="221.84" y2="435.78" gradientUnits="userSpaceOnUse">
<stop stop-color="#00124C"/>
<stop offset="0.36" stop-color="#001559"/>
<stop offset="1" stop-color="#001E7D"/>
</linearGradient>
<clipPath id="clip0_630_4074">
<rect width="390" height="596.01" fill="white" transform="translate(0 -1)"/>
</clipPath>
<clipPath id="clip1_630_4074">
<rect width="22.9461" height="21.455" fill="white" transform="translate(22.4854 88.4854) rotate(-45)"/>
</clipPath>
<clipPath id="clip2_630_4074">
<rect width="22.9461" height="21.455" fill="white" transform="translate(79.5186 102.25) rotate(-45)"/>
</clipPath>
<clipPath id="clip3_630_4074">
<rect width="38.2435" height="35.7584" fill="white" transform="translate(45.958 38.0423) rotate(-45)"/>
</clipPath>
<clipPath id="clip4_630_4074">
<rect width="13.445" height="12.5713" fill="white" transform="translate(110.131 557.631) rotate(135)"/>
</clipPath>
<clipPath id="clip5_630_4074">
<rect width="13.445" height="12.5713" fill="white" transform="translate(76.7134 549.565) rotate(135)"/>
</clipPath>
<clipPath id="clip6_630_4074">
<rect width="22.4083" height="20.9522" fill="white" transform="translate(96.3774 587.187) rotate(135)"/>
</clipPath>
<clipPath id="clip7_630_4074">
<rect width="15.4036" height="14.4026" fill="white" transform="translate(305.053 145.053) rotate(-45)"/>
</clipPath>
<clipPath id="clip8_630_4074">
<rect width="15.4036" height="14.4026" fill="white" transform="translate(343.338 154.293) rotate(-45)"/>
</clipPath>
<clipPath id="clip9_630_4074">
<rect width="25.6726" height="24.0043" fill="white" transform="translate(320.81 111.191) rotate(-45)"/>
</clipPath>
<clipPath id="clip10_630_4074">
<rect width="11.8147" height="11.0469" fill="white" transform="translate(54.9722 352.915) rotate(-45)"/>
</clipPath>
<clipPath id="clip11_630_4074">
<rect width="11.8147" height="11.0469" fill="white" transform="translate(84.3379 360.002) rotate(-45)"/>
</clipPath>
<clipPath id="clip12_630_4074">
<rect width="19.6911" height="18.4115" fill="white" transform="translate(67.0581 326.942) rotate(-45)"/>
</clipPath>
<clipPath id="clip13_630_4074">
<rect width="10.0322" height="9.38032" fill="white" transform="translate(294.877 452.877) rotate(-45)"/>
</clipPath>
<clipPath id="clip14_630_4074">
<rect width="10.0322" height="9.38032" fill="white" transform="translate(319.812 458.896) rotate(-45)"/>
</clipPath>
<clipPath id="clip15_630_4074">
<rect width="16.7204" height="15.6339" fill="white" transform="translate(305.14 430.823) rotate(-45)"/>
</clipPath>
</defs>
</svg>
