<svg width="31" height="25" viewBox="0 0 31 25" fill="none" xmlns="http://www.w3.org/2000/svg">
<path d="M16.5618 0.118228L8.15813 4.9361C8.02513 5.0123 7.87474 5.05193 7.7223 5.05193H1.28709C0.848189 5.05193 0.478855 5.37502 0.421562 5.80682C0.134075 7.95261 -0.00199541 10.1228 5.07617e-05 12.3174C5.07617e-05 12.3346 5.07617e-05 12.3509 5.07617e-05 12.3682C5.07617e-05 12.3854 5.07617e-05 12.4017 5.07617e-05 12.419C-0.00301849 14.6135 0.133052 16.7847 0.420539 18.9295C0.478855 19.3613 0.848189 19.6844 1.28607 19.6844H7.72025C7.87372 19.6844 8.02411 19.724 8.15609 19.8002L16.5597 24.6191C17.1418 24.9523 17.8682 24.5358 17.8682 23.8683V0.868037C17.8682 0.200524 17.1408 -0.216036 16.5597 0.117212L16.5618 0.118228Z" fill="white"/>
<path d="M22.9426 7.60635C24.4404 10.5274 24.4435 13.4463 22.9426 16.3622" stroke="white" stroke-linecap="round" stroke-linejoin="round"/>
<path d="M25.1432 5.7084C27.2497 9.81711 27.2538 13.9218 25.1432 18.0223" stroke="white" stroke-linecap="round" stroke-linejoin="round"/>
<path d="M27.8014 3.80856C30.7305 9.52052 30.7356 15.2274 27.8014 20.9282" stroke="white" stroke-linecap="round" stroke-linejoin="round"/>
</svg>
