<svg width="41" height="52" viewBox="0 0 41 52" fill="none" xmlns="http://www.w3.org/2000/svg">
<path d="M39.3732 4.1064H25.8924C25.9032 4.0356 25.9104 3.9636 25.9104 3.8892V1.4676C25.9104 0.6576 25.2528 0 24.4428 0H16.398C15.588 0 14.9304 0.6576 14.9304 1.4676V3.888C14.9304 3.9624 14.9376 4.0344 14.9484 4.1052H1.4676C0.6576 4.1052 0 4.7628 0 5.5728V7.9932C0 8.8032 0.6576 9.4608 1.4676 9.4608H39.3732C40.1832 9.4608 40.8408 8.8032 40.8408 7.9932V5.574C40.8408 4.7628 40.1832 4.1064 39.3732 4.1064Z" fill="#00124C"/>
<path d="M35.7576 10.0824H5.0832C4.2732 10.0824 3.6156 10.74 3.6156 11.55V50.1252C3.6156 50.9352 4.2732 51.5928 5.0832 51.5928H35.7576C36.5676 51.5928 37.2252 50.9352 37.2252 50.1252V11.55C37.2252 10.74 36.5676 10.0824 35.7576 10.0824ZM10.6224 43.59C10.6224 44.142 10.1748 44.5884 9.624 44.5884C9.0732 44.5884 8.6256 44.1408 8.6256 43.59V18.0852C8.6256 17.5332 9.0732 17.0868 9.624 17.0868C10.1748 17.0868 10.6224 17.5344 10.6224 18.0852V43.59ZM21.4188 43.59C21.4188 44.142 20.9712 44.5884 20.4204 44.5884C19.8684 44.5884 19.422 44.1408 19.422 43.59V18.0852C19.422 17.5332 19.8696 17.0868 20.4204 17.0868C20.9724 17.0868 21.4188 17.5344 21.4188 18.0852V43.59ZM32.214 43.59C32.214 44.142 31.7664 44.5884 31.2156 44.5884C30.6636 44.5884 30.2172 44.1408 30.2172 43.59V18.0852C30.2172 17.5332 30.6648 17.0868 31.2156 17.0868C31.7676 17.0868 32.214 17.5344 32.214 18.0852V43.59Z" fill="#00124C"/>
</svg>
