<svg width="43" height="43" viewBox="0 0 43 43" fill="none" xmlns="http://www.w3.org/2000/svg">
<path d="M27.95 38.7H34.4C35.5404 38.7 36.6342 38.247 37.4406 37.4406C38.247 36.6342 38.7 35.5404 38.7 34.4V27.95C38.7 27.3798 38.9265 26.8329 39.3297 26.4297C39.7329 26.0265 40.2798 25.8 40.85 25.8C41.4202 25.8 41.9671 26.0265 42.3703 26.4297C42.7735 26.8329 43 27.3798 43 27.95V34.4C43 36.6809 42.0939 38.8683 40.4811 40.4811C38.8683 42.0939 36.6809 43 34.4 43H8.6C6.31914 43 4.13169 42.0939 2.51888 40.4811C0.906069 38.8683 0 36.6809 0 34.4V27.95C0 27.3798 0.226517 26.8329 0.62972 26.4297C1.03292 26.0265 1.57978 25.8 2.15 25.8C2.72022 25.8 3.26708 26.0265 3.67028 26.4297C4.07348 26.8329 4.3 27.3798 4.3 27.95V34.4C4.3 35.5404 4.75303 36.6342 5.55944 37.4406C6.36585 38.247 7.45957 38.7 8.6 38.7H15.05C15.6202 38.7 16.1671 38.9265 16.5703 39.3297C16.9735 39.7329 17.2 40.2798 17.2 40.85C17.2 41.4202 16.9735 41.9671 16.5703 42.3703C16.1671 42.7735 15.6202 43 15.05 43H27.95C27.3798 43 26.8329 42.7735 26.4297 42.3703C26.0265 41.9671 25.8 41.4202 25.8 40.85C25.8 40.2798 26.0265 39.7329 26.4297 39.3297C26.8329 38.9265 27.3798 38.7 27.95 38.7ZM4.3 15.05C4.3 15.6202 4.07348 16.1671 3.67028 16.5703C3.26708 16.9735 2.72022 17.2 2.15 17.2C1.57978 17.2 1.03292 16.9735 0.62972 16.5703C0.226517 16.1671 0 15.6202 0 15.05V8.6C0 6.31914 0.906069 4.13169 2.51888 2.51888C4.13169 0.906069 6.31914 0 8.6 0L15.05 0C15.6202 0 16.1671 0.226517 16.5703 0.62972C16.9735 1.03292 17.2 1.57978 17.2 2.15C17.2 2.72022 16.9735 3.26708 16.5703 3.67028C16.1671 4.07348 15.6202 4.3 15.05 4.3H8.6C7.45957 4.3 6.36585 4.75303 5.55944 5.55944C4.75303 6.36585 4.3 7.45957 4.3 8.6V15.05ZM38.7 15.05V8.6C38.7 7.45957 38.247 6.36585 37.4406 5.55944C36.6342 4.75303 35.5404 4.3 34.4 4.3H27.95C27.3798 4.3 26.8329 4.07348 26.4297 3.67028C26.0265 3.26708 25.8 2.72022 25.8 2.15C25.8 1.57978 26.0265 1.03292 26.4297 0.62972C26.8329 0.226517 27.3798 0 27.95 0L34.4 0C36.6809 0 38.8683 0.906069 40.4811 2.51888C42.0939 4.13169 43 6.31914 43 8.6V15.05C43 15.6202 42.7735 16.1671 42.3703 16.5703C41.9671 16.9735 41.4202 17.2 40.85 17.2C40.2798 17.2 39.7329 16.9735 39.3297 16.5703C38.9265 16.1671 38.7 15.6202 38.7 15.05Z" fill="#00124C"/>
</svg>
