<svg width="43" height="43" viewBox="0 0 43 43" fill="none" xmlns="http://www.w3.org/2000/svg">
<path fill-rule="evenodd" clip-rule="evenodd" d="M2.38889 0C1.75532 0 1.14769 0.251686 0.699689 0.699689C0.251686 1.14769 0 1.75532 0 2.38889V16.7222C0 17.3558 0.251686 17.9634 0.699689 18.4114C1.14769 18.8594 1.75532 19.1111 2.38889 19.1111H16.7222C17.3558 19.1111 17.9634 18.8594 18.4114 18.4114C18.8594 17.9634 19.1111 17.3558 19.1111 16.7222V2.38889C19.1111 1.75532 18.8594 1.14769 18.4114 0.699689C17.9634 0.251686 17.3558 0 16.7222 0H2.38889ZM4.77778 14.3333V4.77778H14.3333V14.3333H4.77778ZM26.2778 0C25.6442 0 25.0366 0.251686 24.5886 0.699689C24.1406 1.14769 23.8889 1.75532 23.8889 2.38889V16.7222C23.8889 17.3558 24.1406 17.9634 24.5886 18.4114C25.0366 18.8594 25.6442 19.1111 26.2778 19.1111H40.6111C41.2447 19.1111 41.8523 18.8594 42.3003 18.4114C42.7483 17.9634 43 17.3558 43 16.7222V2.38889C43 1.75532 42.7483 1.14769 42.3003 0.699689C41.8523 0.251686 41.2447 0 40.6111 0H26.2778ZM2.38889 23.8889C1.75532 23.8889 1.14769 24.1406 0.699689 24.5886C0.251686 25.0366 0 25.6442 0 26.2778V40.6111C0 41.2447 0.251686 41.8523 0.699689 42.3003C1.14769 42.7483 1.75532 43 2.38889 43H16.7222C17.3558 43 17.9634 42.7483 18.4114 42.3003C18.8594 41.8523 19.1111 41.2447 19.1111 40.6111V26.2778C19.1111 25.6442 18.8594 25.0366 18.4114 24.5886C17.9634 24.1406 17.3558 23.8889 16.7222 23.8889H2.38889ZM26.2778 23.8889C25.6442 23.8889 25.0366 24.1406 24.5886 24.5886C24.1406 25.0366 23.8889 25.6442 23.8889 26.2778V28.6667C23.8889 29.3002 24.1406 29.9079 24.5886 30.3559C25.0366 30.8039 25.6442 31.0556 26.2778 31.0556H28.6667C29.3002 31.0556 29.9079 30.8039 30.3559 30.3559C30.8039 29.9079 31.0556 29.3002 31.0556 28.6667V26.2778C31.0556 25.6442 30.8039 25.0366 30.3559 24.5886C29.9079 24.1406 29.3002 23.8889 28.6667 23.8889H26.2778ZM38.2222 23.8889C37.5887 23.889 36.9812 24.1408 36.5333 24.5888L31.7555 29.3666C31.3203 29.8172 31.0796 30.4206 31.085 31.047C31.0904 31.6733 31.3417 32.2725 31.7846 32.7154C32.2275 33.1583 32.8267 33.4096 33.453 33.415C34.0794 33.4204 34.6828 33.1797 35.1334 32.7445L39.2112 28.6667H40.6111C41.2447 28.6667 41.8523 28.415 42.3003 27.967C42.7483 27.519 43 26.9113 43 26.2778C43 25.6442 42.7483 25.0366 42.3003 24.5886C41.8523 24.1406 41.2447 23.8889 40.6111 23.8889H38.2222ZM26.2778 33.4444C25.6442 33.4444 25.0366 33.6961 24.5886 34.1441C24.1406 34.5921 23.8889 35.1998 23.8889 35.8333V40.6111C23.8889 41.2447 24.1406 41.8523 24.5886 42.3003C25.0366 42.7483 25.6442 43 26.2778 43C26.9113 43 27.519 42.7483 27.967 42.3003C28.415 41.8523 28.6667 41.2447 28.6667 40.6111V38.2222H31.0556C31.6891 38.2222 32.2968 37.9705 32.7448 37.5225C33.1928 37.0745 33.4444 36.4669 33.4444 35.8333C33.4444 35.1998 33.1928 34.5921 32.7448 34.1441C32.2968 33.6961 31.6891 33.4444 31.0556 33.4444H26.2778ZM43 35.8333C43 35.1998 42.7483 34.5921 42.3003 34.1441C41.8523 33.6961 41.2447 33.4444 40.6111 33.4444C39.9775 33.4444 39.3699 33.6961 38.9219 34.1441C38.4739 34.5921 38.2222 35.1998 38.2222 35.8333V38.2222H35.8333C35.1998 38.2222 34.5921 38.4739 34.1441 38.9219C33.6961 39.3699 33.4444 39.9775 33.4444 40.6111C33.4444 41.2447 33.6961 41.8523 34.1441 42.3003C34.5921 42.7483 35.1998 43 35.8333 43H40.6111C41.2447 43 41.8523 42.7483 42.3003 42.3003C42.7483 41.8523 43 41.2447 43 40.6111V35.8333ZM31.0556 9.55556C31.0556 8.92198 31.3072 8.31436 31.7552 7.86636C32.2032 7.41835 32.8109 7.16667 33.4444 7.16667H33.4468C34.0804 7.16667 34.688 7.41835 35.136 7.86636C35.584 8.31436 35.8357 8.92198 35.8357 9.55556C35.8357 10.1891 35.584 10.7968 35.136 11.2448C34.688 11.6928 34.0804 11.9444 33.4468 11.9444H33.4444C32.8109 11.9444 32.2032 11.6928 31.7552 11.2448C31.3072 10.7968 31.0556 10.1891 31.0556 9.55556ZM9.55556 31.0556C8.92198 31.0556 8.31436 31.3072 7.86636 31.7552C7.41835 32.2032 7.16667 32.8109 7.16667 33.4444C7.16667 34.078 7.41835 34.6856 7.86636 35.1336C8.31436 35.5816 8.92198 35.8333 9.55556 35.8333H9.55794C10.1915 35.8333 10.7991 35.5816 11.2471 35.1336C11.6951 34.6856 11.9468 34.078 11.9468 33.4444C11.9468 32.8109 11.6951 32.2032 11.2471 31.7552C10.7991 31.3072 10.1915 31.0556 9.55794 31.0556H9.55556Z" fill="#00124C"/>
</svg>
