<svg width="132" height="32" viewBox="0 0 132 32" fill="none" xmlns="http://www.w3.org/2000/svg">
<path opacity="0.8" d="M0.0583832 5.19642C0.243271 9.47909 0.360046 13.771 0.389239 18.0629C0.418431 22.7055 0.360047 27.3574 0.291931 32H132C131.601 27.5235 131.504 23.0286 131.747 18.5428C131.844 16.6784 132 14.7678 131.475 12.968C131.27 12.2665 130.959 11.565 131.027 10.8359C131.085 10.2821 131.358 9.77444 131.504 9.22988C131.718 8.41765 131.65 7.5685 131.572 6.73781C131.572 4.83646 130.424 1.91059 131.027 0H0C0.223811 1.66138 -0.00972795 3.72887 0.0486576 5.20565L0.0583832 5.19642Z" fill="#FFC2C7"/>
</svg>
