<svg width="362" height="228" viewBox="0 0 362 228" fill="none" xmlns="http://www.w3.org/2000/svg">
<g filter="url(#filter0_d_72_628)">
<path d="M344 16H2V211H344V16Z" fill="#FDF001"/>
</g>
<path opacity="0.8" d="M107.058 5.19642C107.243 9.47909 107.36 13.771 107.389 18.0629C107.418 22.7055 107.36 27.3574 107.292 32H239C238.601 27.5235 238.504 23.0286 238.747 18.5428C238.844 16.6784 239 14.7678 238.475 12.968C238.27 12.2665 237.959 11.565 238.027 10.8359C238.085 10.2821 238.358 9.77444 238.504 9.22988C238.718 8.41765 238.65 7.5685 238.572 6.73781C238.572 4.83646 237.424 1.91059 238.027 0H107C107.224 1.66138 106.99 3.72887 107.049 5.20565L107.058 5.19642Z" fill="#FFC2C7"/>
<defs>
<filter id="filter0_d_72_628" x="0" y="13" width="362" height="215" filterUnits="userSpaceOnUse" color-interpolation-filters="sRGB">
<feFlood flood-opacity="0" result="BackgroundImageFix"/>
<feColorMatrix in="SourceAlpha" type="matrix" values="0 0 0 0 0 0 0 0 0 0 0 0 0 0 0 0 0 0 127 0" result="hardAlpha"/>
<feOffset dx="8" dy="7"/>
<feGaussianBlur stdDeviation="5"/>
<feComposite in2="hardAlpha" operator="out"/>
<feColorMatrix type="matrix" values="0 0 0 0 0 0 0 0 0 0 0 0 0 0 0 0 0 0 0.25 0"/>
<feBlend mode="normal" in2="BackgroundImageFix" result="effect1_dropShadow_72_628"/>
<feBlend mode="normal" in="SourceGraphic" in2="effect1_dropShadow_72_628" result="shape"/>
</filter>
</defs>
</svg>
