<svg width="342" height="211" viewBox="0 0 342 211" fill="none" xmlns="http://www.w3.org/2000/svg">
<path d="M342 16H0V211H342V16Z" fill="#FDF001"/>
<path opacity="0.8" d="M105.058 5.19642C105.243 9.47909 105.36 13.771 105.389 18.0629C105.418 22.7055 105.36 27.3574 105.292 32H237C236.601 27.5235 236.504 23.0286 236.747 18.5428C236.844 16.6784 237 14.7678 236.475 12.968C236.27 12.2665 235.959 11.565 236.027 10.8359C236.085 10.2821 236.358 9.77444 236.504 9.22988C236.718 8.41765 236.65 7.5685 236.572 6.73781C236.572 4.83646 235.424 1.91059 236.027 0H105C105.224 1.66138 104.99 3.72887 105.049 5.20565L105.058 5.19642Z" fill="#FFC2C7"/>
</svg>
