<svg width="240" height="240" viewBox="0 0 240 240" fill="none" xmlns="http://www.w3.org/2000/svg">
<path d="M120 240C186.274 240 240 186.274 240 120C240 53.7258 186.274 0 120 0C53.7258 0 0 53.7258 0 120C0 186.274 53.7258 240 120 240Z" fill="#5570C6"/>
<mask id="mask0_47_2471" style="mask-type:alpha" maskUnits="userSpaceOnUse" x="0" y="0" width="240" height="240">
<path d="M120 240C186.274 240 240 186.274 240 120C240 53.7258 186.274 0 120 0C53.7258 0 0 53.7258 0 120C0 186.274 53.7258 240 120 240Z" fill="#001E7D"/>
</mask>
<g mask="url(#mask0_47_2471)">
<path d="M201.77 6.09089C200.748 0.781379 199.787 -4.23109 199.508 -8.80729C198.116 -31.6466 208.976 -35.4013 209.087 -35.4384L209.004 -36C208.888 -35.9629 206.125 -35.0486 203.506 -31.2196C199.137 -24.838 198.71 -15.4813 199.118 -8.75625C199.402 -4.12899 200.367 0.906699 201.394 6.24406C203.334 16.3433 205.484 27.5331 204.198 40.482C203.014 28.4428 198.905 17.8934 195.279 5.18121C187.246 -22.9954 200.581 -35.7215 200.581 -35.7215H28C32.4713 -5.57706 43.1459 -1.01939 51.4293 7.06091C54.2152 12.9088 55.9378 19.3554 55.2413 27.51C54.322 38.2682 48.5923 48.3999 43.0484 58.2021C41.298 61.3024 39.5707 64.3563 38.0106 67.387C30.4005 79.1942 26.1427 91.8089 36.1905 106.085C36.6223 107.106 37.0448 108.058 37.4581 108.972C40.9915 116.881 43.5452 122.598 40.4436 151.685C38.5957 169.029 41.0426 183.277 47.5198 192.894C52.2744 199.948 59.0998 204.348 67.1185 205.764C75.8197 209.435 86.1879 207.903 95.4092 204.158C110.077 198.199 125.557 198.561 140.276 204.237C146.396 206.595 153.583 208.632 160.924 207.286C171.102 206.205 181.679 198.278 188.128 186.331C193.477 176.427 198.492 159.329 192.024 134.109C188.458 120.194 187.585 109.25 188.244 100.056C188.602 99.2348 188.987 98.4226 189.41 97.615C202.132 73.1606 205.345 56.7076 204.361 42.5335C206.097 28.6331 203.817 16.7563 201.765 6.08625L201.77 6.09089ZM43.3549 58.5734C48.9313 48.7109 54.6981 38.5142 55.6314 27.5889C56.2953 19.8102 54.8142 13.5818 52.3161 7.95666C55.6406 11.3958 58.5147 15.6053 60.3302 22.6042C63.8869 36.3004 50.4496 49.5231 40.3972 63.8504C41.3537 62.1053 42.3473 60.3463 43.3502 58.5734H43.3549ZM47.803 192.499C41.414 183.017 39.0089 168.941 40.8336 151.782C43.9538 122.478 41.3676 116.686 37.7877 108.67C37.6345 108.332 37.4813 107.988 37.3281 107.64C37.4349 107.779 37.5417 107.918 37.6485 108.058C56.2396 131.635 35.8562 170.533 57.015 197.888C59.3505 200.909 62.0342 203.142 64.9409 204.729C57.9761 202.961 52.0468 198.807 47.803 192.504V192.499ZM191.657 134.318C198.06 159.287 193.106 176.195 187.822 185.983C182.881 195.136 175.489 201.902 167.731 204.989C169.922 203.88 172.1 202.385 174.24 200.422C204.518 172.705 175.267 132.475 187.761 101.217C187.26 110.23 188.216 120.9 191.657 134.313V134.318Z" fill="url(#paint0_linear_47_2471)"/>
<path d="M41.9667 240.619H196.932C196.932 240.619 186.452 207.625 149.706 214.61C149.706 214.61 118.532 229.415 85.9837 214.61C85.9837 214.61 58.278 208.317 41.9667 240.619V240.619Z" fill="#00124C"/>
<path d="M149.146 181.577C149.862 178.567 148.001 175.547 144.99 174.832C141.978 174.116 138.957 175.977 138.241 178.987C137.526 181.996 139.386 185.017 142.398 185.732C145.409 186.447 148.43 184.587 149.146 181.577Z" fill="#FDF001" stroke="url(#paint1_linear_47_2471)" stroke-width="0.5" stroke-miterlimit="10"/>
<path d="M143.698 185.064C143.898 185.129 144.018 185.199 144.051 185.408L144.181 185.821C144.223 185.955 144.339 186.308 144.38 186.438C144.334 186.526 144.292 186.619 144.227 186.716C144.116 186.675 144.032 186.628 143.944 186.582C143.902 186.452 143.791 186.099 143.744 185.965L143.614 185.552C143.517 185.366 143.572 185.236 143.702 185.069L143.698 185.064Z" fill="#FE40B4"/>
<path d="M145.082 184.735C145.309 184.804 145.439 184.902 145.49 185.125L145.69 185.603C145.755 185.76 145.927 186.169 145.987 186.322C145.954 186.429 145.927 186.535 145.875 186.647C145.759 186.6 145.662 186.549 145.564 186.494C145.499 186.345 145.332 185.932 145.267 185.774L145.068 185.296C144.947 185.101 144.97 184.939 145.082 184.73V184.735Z" fill="#FE40B4"/>
<path d="M146.335 184.34C146.535 184.345 146.67 184.368 146.744 184.554L146.957 184.892C147.027 185.004 147.213 185.292 147.278 185.398C147.255 185.491 147.231 185.584 147.19 185.691C147.078 185.681 146.985 185.663 146.888 185.644C146.818 185.538 146.637 185.245 146.567 185.138L146.354 184.8C146.219 184.651 146.252 184.521 146.335 184.34V184.34Z" fill="#FE40B4"/>
<path d="M98.5729 184.216C100.762 182.028 100.762 178.481 98.5729 176.294C96.3843 174.106 92.8359 174.106 90.6473 176.294C88.4587 178.481 88.4587 182.028 90.6473 184.216C92.8359 186.404 96.3843 186.404 98.5729 184.216Z" fill="#FDF001" stroke="url(#paint2_linear_47_2471)" stroke-width="0.5" stroke-miterlimit="10"/>
<path d="M91.2397 183.746C91.2676 183.983 91.2304 184.145 91.0447 184.289L90.6825 184.674C90.5618 184.8 90.2554 185.129 90.1393 185.255C90.0278 185.273 89.9164 185.292 89.791 185.292C89.7864 185.166 89.791 185.055 89.805 184.944C89.9164 184.823 90.2275 184.489 90.3482 184.363L90.7104 183.978C90.8404 183.788 91.0029 183.737 91.2397 183.751V183.746Z" fill="#FE40B4"/>
<path d="M90.8914 185.858C90.8543 185.607 90.8961 185.436 91.0772 185.273L91.4393 184.832C91.5601 184.688 91.8665 184.312 91.9826 184.168C92.0987 184.141 92.2101 184.108 92.3401 184.094C92.3494 184.224 92.3401 184.34 92.3401 184.461C92.2287 184.6 91.9176 184.976 91.7969 185.125L91.4347 185.565C91.3093 185.774 91.1468 185.849 90.8961 185.862L90.8914 185.858Z" fill="#FE40B4"/>
<path d="M92.4377 186.387C92.3123 186.192 92.2752 186.044 92.382 185.844L92.5445 185.375C92.6002 185.222 92.7348 184.823 92.7859 184.674C92.8788 184.619 92.9716 184.563 93.0831 184.517C93.1434 184.623 93.1806 184.725 93.2177 184.828C93.1667 184.976 93.0274 185.375 92.9763 185.528L92.8138 185.997C92.7766 186.215 92.6513 186.313 92.433 186.392L92.4377 186.387Z" fill="#FE40B4"/>
<path d="M150.639 214.61C150.639 214.61 147.802 222.356 140.178 228.455C135.238 232.414 128.273 235.672 118.778 235.672C109.283 235.672 102.318 232.414 97.3732 228.455C89.7492 222.356 86.9169 214.61 86.9169 214.61C95.2838 214.912 101 211.222 104.853 206.627C105.16 206.256 105.462 205.88 105.745 205.499C110.987 198.565 112.352 190.207 112.352 190.207H125.2C125.2 190.207 126.565 198.565 131.807 205.499C132.085 205.88 132.387 206.256 132.698 206.627C136.557 211.222 142.272 214.912 150.639 214.61Z" fill="#3E4BF6"/>
<path d="M150.639 214.61C150.639 214.61 147.802 222.356 140.178 228.455C135.238 232.414 128.273 235.672 118.778 235.672C109.283 235.672 102.318 232.414 97.3732 228.455C89.7492 222.356 86.9169 214.61 86.9169 214.61C95.2838 214.912 101 211.222 104.853 206.627C105.16 206.256 105.462 205.88 105.745 205.499C110.987 198.565 112.352 190.207 112.352 190.207H125.2C125.2 190.207 126.565 198.565 131.807 205.499C132.085 205.88 132.387 206.256 132.698 206.627C136.557 211.222 142.272 214.912 150.639 214.61Z" fill="#00124C"/>
<path d="M131.807 205.504C128.041 207.903 123.57 209.291 118.778 209.291C113.986 209.291 109.51 207.899 105.745 205.504C110.987 198.57 112.352 190.211 112.352 190.211H125.2C125.2 190.211 126.565 198.57 131.807 205.504Z" fill="#001559"/>
<path d="M143.057 160.415C143.057 147.009 132.186 136.141 118.776 136.141C105.366 136.141 94.4945 147.009 94.4945 160.415V179.295C94.4945 192.701 105.366 203.569 118.776 203.569C132.186 203.569 143.057 192.701 143.057 179.295V160.415Z" fill="url(#paint3_linear_47_2471)"/>
<path d="M143.057 160.415C143.057 147.009 132.186 136.141 118.776 136.141C105.366 136.141 94.4945 147.009 94.4945 160.415V179.295C94.4945 192.701 105.366 203.569 118.776 203.569C132.186 203.569 143.057 192.701 143.057 179.295V160.415Z" fill="#FDF001" stroke="url(#paint4_linear_47_2471)" stroke-miterlimit="10"/>
<path d="M106.426 187.668C108.084 186.011 108.084 183.325 106.426 181.669C104.769 180.012 102.082 180.012 100.425 181.669C98.7672 183.325 98.7672 186.011 100.425 187.668C102.082 189.325 104.769 189.325 106.426 187.668Z" fill="#FE40B4"/>
<path d="M138.252 187.899C139.933 186.266 139.971 183.58 138.338 181.9C136.704 180.22 134.018 180.182 132.337 181.814C130.656 183.447 130.617 186.133 132.251 187.813C133.884 189.493 136.571 189.532 138.252 187.899Z" fill="#FE40B4"/>
<path d="M119.242 156.632C120.413 162.151 121.555 168.221 122.674 173.712C123.087 175.629 123.366 177.569 123.575 179.518C123.616 179.866 123.319 180.177 122.966 180.154C122.075 180.103 121.183 180.038 120.292 179.954C119.4 179.866 118.509 179.764 117.617 179.615C117.543 179.602 117.543 179.49 117.617 179.476C119.391 179.188 121.174 179.045 122.966 178.938L122.367 179.643C121.476 175.87 121.165 171.999 120.603 168.17C120.134 164.829 119.526 160.048 119.108 156.651C119.094 156.572 119.229 156.54 119.242 156.628V156.632Z" fill="#00124C"/>
<path d="M120.292 196.245C121.464 196.245 122.414 194.759 122.414 192.926C122.414 191.094 121.464 189.608 120.292 189.608C119.12 189.608 118.17 191.094 118.17 192.926C118.17 194.759 119.12 196.245 120.292 196.245Z" fill="#FF9FDA"/>
<path d="M112.524 190.629C117.659 193.446 122.938 193.507 128.055 190.629C128.088 190.606 128.143 190.606 128.167 190.648C128.181 190.675 128.176 190.703 128.157 190.726C125.176 194.04 120.055 195.08 116.002 193.247C114.641 192.68 113.448 191.775 112.426 190.726C112.371 190.661 112.45 190.573 112.524 190.629V190.629Z" fill="#00124C"/>
<path d="M111.781 191.752C111.725 190.768 112.259 189.835 113.123 189.371C113.141 189.357 113.174 189.367 113.165 189.394C112.849 189.998 112.176 191.191 111.823 191.775C111.809 191.799 111.776 191.775 111.781 191.752Z" fill="#00124C"/>
<path d="M127.6 189.872C128.403 190.132 128.91 190.917 128.831 191.752C128.831 191.775 128.812 191.799 128.793 191.775C128.468 191.321 127.851 190.374 127.563 189.896C127.549 189.873 127.582 189.859 127.6 189.872Z" fill="#00124C"/>
<path d="M112.008 169.758C112.008 169.758 112.018 169.748 112.018 169.744C112.013 169.744 112.008 169.744 112.004 169.753C109.311 166.059 102.95 166.031 100.271 169.753C100.266 169.753 100.261 169.753 100.257 169.748C100.257 169.748 100.266 169.758 100.266 169.762C100.266 169.762 100.257 169.772 100.257 169.776C100.261 169.776 100.266 169.776 100.271 169.767C102.964 173.461 109.325 173.489 112.004 169.767C112.008 169.767 112.013 169.767 112.018 169.772C112.018 169.772 112.008 169.762 112.008 169.758ZM100.284 169.758C104.031 167.883 108.243 167.896 111.994 169.758C108.247 171.633 104.036 171.619 100.284 169.758Z" fill="#00124C" stroke="url(#paint5_linear_47_2471)" stroke-miterlimit="10"/>
<path d="M106.023 168.356C105.248 168.356 104.621 168.983 104.621 169.758C104.621 170.533 105.248 171.159 106.023 171.159C106.799 171.159 107.426 170.533 107.426 169.758C107.426 168.983 106.799 168.356 106.023 168.356ZM105.796 169.855C105.545 169.855 105.341 169.651 105.341 169.4C105.341 169.15 105.545 168.945 105.796 168.945C106.047 168.945 106.251 169.15 106.251 169.4C106.251 169.651 106.047 169.855 105.796 169.855ZM106.339 170.454C106.228 170.454 106.139 170.366 106.139 170.254C106.139 170.143 106.228 170.055 106.339 170.055C106.45 170.055 106.539 170.143 106.539 170.254C106.539 170.366 106.45 170.454 106.339 170.454Z" fill="#00124C"/>
<path d="M136.598 169.744C136.598 169.744 136.608 169.734 136.608 169.73C136.603 169.73 136.598 169.73 136.594 169.739C133.901 166.045 127.54 166.017 124.861 169.739C124.856 169.739 124.851 169.739 124.847 169.734C124.847 169.734 124.856 169.744 124.856 169.748C124.856 169.748 124.847 169.758 124.847 169.762C124.851 169.762 124.856 169.762 124.861 169.753C127.554 173.447 133.915 173.475 136.594 169.753C136.598 169.753 136.603 169.753 136.608 169.758C136.608 169.758 136.598 169.748 136.598 169.744ZM124.875 169.744C128.622 167.869 132.833 167.883 136.585 169.744C132.838 171.619 128.626 171.605 124.875 169.744V169.744Z" fill="#00124C" stroke="url(#paint6_linear_47_2471)" stroke-miterlimit="10"/>
<path d="M130.613 168.342C129.838 168.342 129.211 168.969 129.211 169.744C129.211 170.519 129.838 171.145 130.613 171.145C131.389 171.145 132.016 170.519 132.016 169.744C132.016 168.969 131.389 168.342 130.613 168.342ZM130.386 169.841C130.135 169.841 129.931 169.637 129.931 169.386C129.931 169.136 130.135 168.931 130.386 168.931C130.637 168.931 130.841 169.136 130.841 169.386C130.841 169.637 130.637 169.841 130.386 169.841ZM130.929 170.44C130.818 170.44 130.729 170.352 130.729 170.24C130.729 170.129 130.818 170.041 130.929 170.041C131.041 170.041 131.129 170.129 131.129 170.24C131.129 170.352 131.041 170.44 130.929 170.44Z" fill="#00124C"/>
<path d="M104.904 211.83C102.662 212.508 105.109 215.209 105.55 221.349C102.379 217.868 99.1423 214.879 96.57 212.911C95.3814 213.417 94.1092 213.83 92.7487 214.123C94.5828 216.977 97.8144 220.643 98.6037 222.718C98.3716 222.458 90.1114 213.199 87.6506 215.264C85.979 216.666 93.6959 223.437 95.7482 227.684C95.7482 227.684 86.5083 217.427 84.809 218.884C82.7706 220.634 90.5479 227.995 92.6327 231.68C92.2008 231.128 85.2268 222.184 83.1142 222.3C81.1409 222.407 85.199 230.664 93.4406 240.615H118.37C112.533 227.011 107.351 211.087 104.904 211.825V211.83Z" fill="#00124C"/>
<path d="M147.06 240.619C155.343 231.801 159.573 224.477 157.692 224.231C155.594 223.953 147.965 232.349 147.496 232.868C149.855 229.35 158.161 222.593 156.262 220.695C154.679 219.112 144.692 228.645 144.692 228.645C147.06 224.565 155.269 218.393 153.704 216.87C151.406 214.629 142.472 223.238 142.221 223.479C143.248 221.289 147.329 217.418 149.233 214.619C147.594 214.591 146.061 214.401 144.631 214.086C141.975 215.858 138.674 218.499 135.396 221.59C136.297 215.501 138.943 212.99 136.757 212.145C134.323 211.208 127.749 227.336 120.752 240.619H147.06V240.619Z" fill="#00124C"/>
<path d="M94.4945 138.114V167.92H97.0343V168.245C97.09 168.245 102.801 168.194 106.757 163.617C110.021 159.844 111.191 154.168 110.249 146.737C114.112 158.011 123.779 166.346 135.549 168.486L143.057 169.85V138.109H94.4945V138.114Z" fill="#FFF983"/>
<path d="M90.0696 131.333C82.5477 141.242 84.5814 153.838 90.0696 167.404H93.1434V167.799C93.213 167.799 100.117 167.734 104.909 162.202C108.86 157.635 110.272 150.766 109.134 141.776C113.81 155.416 125.506 165.506 139.756 168.096L148.843 169.744C154.944 156.163 155.793 143.252 148.843 131.333C112.816 111.891 112.881 117.86 90.0743 131.333H90.0696ZM104.612 161.937C100.837 166.305 95.7064 167.182 93.8491 167.358C96.8718 166.212 108.582 160.605 108.809 142.384C109.808 150.979 108.401 157.556 104.607 161.937H104.612Z" fill="#00124C"/>
<path d="M108.447 117.679C107.565 116.751 107.481 115.873 108.197 115.238C108.828 114.676 109.826 114.746 110.379 115.386C111.006 116.119 110.82 117.043 109.863 117.762C110.992 120.464 112.125 123.179 113.29 125.982C114.14 124.047 114.943 122.213 115.746 120.38C116.731 118.143 117.706 115.901 118.699 113.669C118.839 113.358 118.88 113.158 118.569 112.88C117.942 112.318 117.97 111.395 118.551 110.819C119.14 110.239 120.106 110.239 120.7 110.819C121.299 111.404 121.323 112.29 120.728 112.885C120.524 113.089 120.427 113.223 120.575 113.539C122.493 117.558 124.392 121.587 126.295 125.615C126.328 125.69 126.374 125.755 126.453 125.894C127.517 123.118 128.557 120.408 129.597 117.693C128.482 116.946 128.473 115.897 129.081 115.224C129.639 114.606 130.609 114.588 131.222 115.159C131.923 115.808 131.853 116.7 131.004 117.549C132.554 120.102 134.115 122.668 135.707 125.286C136.408 124.701 137.072 124.149 137.732 123.592C140.039 121.652 142.338 119.702 144.654 117.772C144.919 117.554 144.942 117.391 144.822 117.08C144.515 116.282 145.003 115.414 145.834 115.2C146.688 114.982 147.57 115.525 147.728 116.361C147.891 117.238 147.324 118.064 146.447 118.11C146.038 118.134 145.964 118.347 145.88 118.635C145.207 120.918 144.534 123.197 143.86 125.481C142.556 129.904 141.251 134.322 139.956 138.75C139.863 139.065 139.714 139.144 139.403 139.144C126.667 136.206 113.778 136.378 100.749 139.339C100.424 139.339 100.294 139.237 100.196 138.935C98.3252 133.218 96.4447 127.5 94.5642 121.786C94.2346 120.788 93.9003 119.795 93.5752 118.797C93.4917 118.537 93.3988 118.408 93.0691 118.394C92.1544 118.352 91.5601 117.554 91.6948 116.644C91.8201 115.813 92.6884 115.265 93.552 115.474C94.4064 115.683 94.8985 116.56 94.6014 117.391C94.5132 117.637 94.4992 117.786 94.7314 117.976C97.7634 120.417 100.791 122.868 103.818 125.318C103.855 125.351 103.902 125.369 104.013 125.439C105.49 122.854 106.966 120.269 108.438 117.693L108.447 117.679Z" fill="#FDF001"/>
<path d="M100.359 139.724C99.8295 139.585 99.732 138.884 99.5741 138.457L99.1563 137.181C97.6519 132.577 94.8474 124.009 93.3105 119.326L93.1387 118.811C91.8897 118.839 90.9332 117.498 91.3465 116.282C92.2008 113.957 95.7435 115.075 95.0146 117.47C94.996 117.53 94.9774 117.577 94.9681 117.614C94.9681 117.628 94.9681 117.637 94.9681 117.619C94.9681 117.6 94.9542 117.581 94.9588 117.591C94.996 117.628 95.1167 117.721 95.1956 117.786L95.7157 118.208L104.059 124.965L103.785 125.017L108.025 117.619L108.043 117.818C107.532 117.252 107.124 116.43 107.421 115.655C108.09 113.966 110.611 114.128 111.071 115.873C111.293 116.667 110.834 117.47 110.235 117.953L110.281 117.762L113.439 125.355H113.151C113.805 123.861 117.004 116.597 117.594 115.27L118.04 114.263C118.133 114.035 118.397 113.502 118.444 113.298C118.472 113.251 118.281 113.112 118.156 112.963C118.026 112.81 117.924 112.639 117.854 112.448C117.39 111.279 118.444 109.933 119.679 110.021C120.909 110.021 121.898 111.385 121.383 112.536C121.281 112.796 121.072 113.042 120.886 113.233C120.844 113.293 120.858 113.279 120.886 113.353C122.079 115.873 125.302 122.696 126.532 125.304L126.319 125.314L129.235 117.73L129.272 117.855C128.659 117.414 128.213 116.63 128.399 115.855C129.365 112.792 133.673 115.196 131.361 117.642L131.37 117.526L135.846 124.901L135.712 124.877L143.949 117.976L144.464 117.544C144.552 117.47 144.622 117.414 144.603 117.34C144.385 116.82 144.376 116.166 144.705 115.683C145.467 114.374 147.668 114.713 147.997 116.194C148.244 117.103 147.691 118.175 146.735 118.356C146.623 118.384 146.493 118.389 146.396 118.398C146.293 118.412 146.252 118.454 146.21 118.561C146.14 118.765 146.08 118.988 146.02 119.201C144.608 123.968 142.068 132.549 140.689 137.228L140.308 138.513C140.239 138.722 140.206 138.959 140.053 139.149C139.886 139.362 139.598 139.413 139.352 139.39C126.672 136.457 112.733 136.568 100.359 139.72V139.724ZM100.433 139.506C100.549 139.543 100.684 139.557 100.805 139.543C113.434 136.638 126.718 136.378 139.371 139.307C139.542 139.316 139.863 139.284 139.983 139.093C140.118 138.931 140.155 138.703 140.22 138.49L140.596 137.2C141.957 132.549 144.497 123.889 145.885 119.159C145.987 118.89 145.996 118.579 146.182 118.343C146.335 118.217 146.535 118.273 146.697 118.222C148.086 117.957 148.332 115.873 147.092 115.233C145.899 114.486 144.237 115.6 144.645 116.987C144.696 117.136 144.822 117.377 144.687 117.53C144.64 117.6 136.051 124.812 135.74 125.077L135.684 124.989L131.194 117.623L131.157 117.558L131.208 117.502C132.392 116.342 131.719 114.569 130.038 114.625C128.403 114.806 128.074 116.802 129.392 117.679L129.457 117.73L129.43 117.804L126.528 125.392L126.43 125.648L126.314 125.402C125.06 122.761 121.852 116.008 120.64 113.46C120.622 113.414 120.594 113.358 120.594 113.274C120.594 113.181 120.645 113.112 120.677 113.07C121.128 112.657 121.378 112.044 121.188 111.446C120.533 109.441 117.487 110.285 118.114 112.351C118.207 112.597 118.351 112.792 118.551 112.968C118.616 113.033 118.727 113.14 118.722 113.307C118.685 113.576 118.583 113.692 118.518 113.873C117.469 116.254 114.52 122.998 113.434 125.476L113.29 125.81L113.151 125.476L109.979 117.892L109.933 117.776L110.026 117.702C111.303 116.755 110.889 114.954 109.306 114.801C108.647 114.746 107.978 115.168 107.741 115.776C107.505 116.393 107.839 117.08 108.303 117.591L108.387 117.683L108.326 117.795L104.101 125.202L103.994 125.388L103.827 125.253L95.4696 118.514L94.9449 118.092C94.7453 117.929 94.5224 117.813 94.5874 117.526C94.7499 117.089 94.7824 116.616 94.5503 116.203C93.9977 115.052 92.0987 115.177 91.7365 116.407C91.4533 117.266 92.0244 118.31 92.9623 118.384C93.1248 118.412 93.2037 118.37 93.3848 118.482C93.5473 118.616 93.538 118.732 93.5984 118.886C95.53 124.603 98.3251 133.296 100.215 138.949C100.28 139.135 100.363 139.246 100.503 139.288L100.428 139.506H100.433Z" fill="#FE40B4"/>
<path d="M93.4313 117.99C93.9653 118.138 94.0674 118.872 94.2299 119.308C94.5039 120.129 95.2514 122.431 95.5393 123.29C96.9879 127.667 98.8777 133.538 100.317 137.896C100.387 138.077 100.591 138.754 100.647 138.898C106.771 137.566 113.596 136.643 120.078 136.633C126.579 136.541 133.367 137.385 139.552 138.745C139.603 138.694 139.617 138.541 139.658 138.439L139.844 137.812C141.353 132.702 143.856 124.223 145.393 119.039L145.583 118.408C145.653 118.055 146.043 117.744 146.424 117.753C147.148 117.744 147.589 116.918 147.343 116.268C147.083 115.498 145.973 115.252 145.411 115.846C145.133 116.119 145.021 116.546 145.147 116.913C145.221 117.103 145.314 117.377 145.207 117.632C145.109 117.888 144.896 118.036 144.738 118.166L143.74 119.006L135.735 125.713C135.591 125.833 135.651 125.82 135.559 125.685L130.641 117.577L130.595 117.503C130.832 117.275 131.059 117.043 131.208 116.765C131.723 115.98 130.966 114.987 130.084 115.08C129.184 115.117 128.673 116.268 129.267 116.959C129.453 117.21 129.717 117.4 129.991 117.577L129.964 117.651L126.579 126.451L126.514 126.618C126.073 125.931 125.743 125.165 125.395 124.432C124.786 123.137 123.124 119.624 122.488 118.287L120.552 114.189C120.417 113.878 120.106 113.437 120.245 113.075C120.403 112.699 120.77 112.541 120.84 112.133C121.109 110.944 119.489 110.165 118.695 111.093C118.323 111.492 118.281 112.147 118.648 112.56C119.266 113.079 119.131 113.479 118.811 114.133L116.981 118.278L113.332 126.576L113.285 126.683L113.239 126.576L109.557 117.716L109.543 117.688C109.794 117.507 110.04 117.308 110.216 117.057C111.354 115.391 108.498 114.207 107.978 116.082C107.904 116.7 108.35 117.229 108.758 117.651L108.744 117.67L104.115 125.75L104.106 125.768C103.734 125.574 103.414 125.29 103.094 125.031C101.343 123.615 98.1673 121.039 96.389 119.605C95.7529 119.085 95.1075 118.579 94.4806 118.046C94.137 117.707 94.4806 117.261 94.4667 116.867C94.4714 115.999 93.4731 115.414 92.6977 115.743C91.8712 116.027 91.653 117.164 92.238 117.781C92.5259 118.115 92.953 118.157 93.357 118.213L93.4313 117.994V117.99ZM93.357 118.208C92.953 118.148 92.5166 118.11 92.238 117.776C91.6576 117.154 91.8619 116.013 92.6977 115.73C93.487 115.395 94.4806 115.98 94.4853 116.857C94.5039 117.252 94.1556 117.688 94.4992 118.027C95.1214 118.556 95.7714 119.062 96.4076 119.582C97.7123 120.635 100.911 123.207 102.165 124.218C102.708 124.664 103.6 125.383 104.087 125.722L108.698 117.632C108.364 117.396 107.82 116.644 107.918 116.064C108.224 114.625 110.397 114.769 110.56 116.217C110.611 116.867 110.105 117.377 109.622 117.721L109.636 117.674L113.336 126.525H113.244L116.879 118.217L118.699 114.068C118.834 113.725 119.075 113.372 118.908 113.052C118.732 112.745 118.337 112.504 118.291 112.105C118.105 111.293 118.843 110.49 119.66 110.536C120.468 110.527 121.188 111.348 120.988 112.161C120.933 112.555 120.538 112.801 120.394 113.117C120.278 113.437 120.561 113.776 120.696 114.119L122.641 118.213C123.797 120.552 125.348 124.107 126.579 126.367L126.416 126.381L129.782 117.577L129.82 117.693C129.295 117.373 128.77 116.839 128.807 116.166C128.84 115.502 129.402 114.913 130.07 114.876C131.106 114.769 132.002 115.934 131.398 116.867C131.245 117.15 131.027 117.386 130.809 117.595L130.823 117.465L135.758 125.564L135.582 125.536L143.573 118.811L144.571 117.971C144.743 117.827 144.901 117.707 144.961 117.544C145.026 117.386 144.975 117.21 144.896 117.001C144.529 116.017 145.578 115.024 146.549 115.284C147.877 115.53 148.114 117.507 146.795 117.971C146.595 118.05 146.358 118.013 146.168 118.097C145.838 118.217 145.806 118.719 145.662 119.122L142.718 129.138C142.04 131.445 140.815 135.636 140.151 137.905L139.97 138.532C139.918 138.708 139.881 138.991 139.649 139.061C139.552 139.084 139.496 139.084 139.422 139.089C133.084 137.636 126.579 136.944 120.078 137.009C113.578 137.07 107.087 137.882 100.754 139.325C100.665 139.325 100.605 139.325 100.48 139.279C100.359 139.228 100.289 139.112 100.266 139.047C100.21 138.903 100.187 138.815 100.145 138.699L99.927 138.035C98.483 133.686 96.5654 127.811 95.1168 123.439C94.8428 122.585 94.0674 120.292 93.7981 119.461L93.5799 118.797C93.5149 118.593 93.4359 118.482 93.2874 118.435L93.3616 118.217L93.357 118.208Z" fill="#FE40B4"/>
<path d="M120.472 112.082C120.624 111.631 120.375 111.139 119.916 110.984C119.457 110.829 118.961 111.07 118.808 111.522C118.656 111.974 118.905 112.465 119.364 112.62C119.823 112.775 120.319 112.534 120.472 112.082Z" fill="#FE40B4"/>
<path d="M131.032 116.55C131.184 116.098 130.935 115.606 130.476 115.451C130.017 115.297 129.521 115.537 129.368 115.989C129.216 116.441 129.465 116.933 129.924 117.088C130.383 117.242 130.879 117.002 131.032 116.55Z" fill="#FE40B4"/>
<path d="M147.08 116.877C147.232 116.425 146.984 115.933 146.524 115.778C146.065 115.624 145.569 115.864 145.417 116.316C145.265 116.768 145.513 117.26 145.973 117.414C146.432 117.569 146.928 117.328 147.08 116.877Z" fill="#FE40B4"/>
<path d="M110.067 116.553C110.22 116.102 109.971 115.61 109.512 115.455C109.053 115.3 108.557 115.541 108.404 115.993C108.252 116.445 108.501 116.936 108.96 117.091C109.419 117.246 109.915 117.005 110.067 116.553Z" fill="#FE40B4"/>
<path d="M93.9845 117.197C94.1368 116.745 93.888 116.253 93.4288 116.098C92.9695 115.944 92.4737 116.184 92.3213 116.636C92.1689 117.088 92.4177 117.58 92.877 117.734C93.3363 117.889 93.8321 117.648 93.9845 117.197Z" fill="#FE40B4"/>
<path d="M123.817 132.207C124.504 130.171 123.38 127.955 121.307 127.257C119.234 126.558 116.997 127.642 116.311 129.677C115.624 131.713 116.748 133.929 118.821 134.628C120.894 135.326 123.131 134.242 123.817 132.207Z" fill="#00124C"/>
<path d="M122.299 131.695C122.708 130.483 122.039 129.164 120.804 128.748C119.57 128.332 118.238 128.977 117.829 130.189C117.42 131.401 118.089 132.721 119.324 133.137C120.558 133.553 121.89 132.907 122.299 131.695Z" fill="#FDF001"/>
<path d="M121.432 131.403C121.682 130.662 121.272 129.855 120.516 129.601C119.761 129.346 118.946 129.74 118.696 130.481C118.446 131.222 118.856 132.029 119.612 132.284C120.367 132.538 121.183 132.144 121.432 131.403Z" fill="#FE40B4"/>
<path d="M120.689 131.153C120.803 130.815 120.615 130.447 120.27 130.331C119.925 130.215 119.553 130.394 119.439 130.732C119.325 131.069 119.513 131.437 119.858 131.554C120.203 131.67 120.575 131.49 120.689 131.153Z" fill="#00124C"/>
<path d="M93.3151 177.991C93.3244 177.963 93.329 177.931 93.3151 177.926C93.3383 177.949 93.0644 178.186 93.0086 178.316C92.1636 179.527 92.9204 180.827 93.3104 182.089C91.5832 181.365 90.9239 178.469 93.069 177.852C93.2037 177.81 93.5194 177.852 93.3104 177.991H93.3151Z" fill="#00124C"/>
<path d="M144.747 181.917C144.738 181.945 144.733 181.978 144.747 181.982C144.724 181.959 144.998 181.723 145.054 181.593C145.899 180.381 145.142 179.082 144.752 177.819C146.479 178.543 147.138 181.439 144.993 182.057C144.859 182.099 144.543 182.057 144.752 181.917H144.747Z" fill="#00124C"/>
</g>
<defs>
<linearGradient id="paint0_linear_47_2471" x1="98.6547" y1="209.783" x2="120.765" y2="-43.6967" gradientUnits="userSpaceOnUse">
<stop stop-color="#00124C"/>
<stop offset="0.36" stop-color="#001559"/>
<stop offset="1" stop-color="#001E7D"/>
</linearGradient>
<linearGradient id="paint1_linear_47_2471" x1="138.002" y1="180.277" x2="149.438" y2="180.277" gradientUnits="userSpaceOnUse">
<stop stop-color="#00124C"/>
<stop offset="0.36" stop-color="#001559"/>
<stop offset="1" stop-color="#001E7D"/>
</linearGradient>
<linearGradient id="paint2_linear_47_2471" x1="88.8902" y1="180.254" x2="100.331" y2="180.254" gradientUnits="userSpaceOnUse">
<stop stop-color="#00124C"/>
<stop offset="0.36" stop-color="#001559"/>
<stop offset="1" stop-color="#001E7D"/>
</linearGradient>
<linearGradient id="paint3_linear_47_2471" x1="116.327" y1="129.894" x2="120.66" y2="200.64" gradientUnits="userSpaceOnUse">
<stop stop-color="#FA4E8F"/>
<stop offset="0.04" stop-color="#FA5795"/>
<stop offset="0.18" stop-color="#FC77AA"/>
<stop offset="0.32" stop-color="#FD90BA"/>
<stop offset="0.48" stop-color="#FEA2C6"/>
<stop offset="0.64" stop-color="#FEADCD"/>
<stop offset="0.82" stop-color="#FFB1D0"/>
</linearGradient>
<linearGradient id="paint4_linear_47_2471" x1="115.825" y1="203.638" x2="121.722" y2="136.071" gradientUnits="userSpaceOnUse">
<stop stop-color="#00124C"/>
<stop offset="0.36" stop-color="#001559"/>
<stop offset="1" stop-color="#001E7D"/>
</linearGradient>
<linearGradient id="paint5_linear_47_2471" x1="105.884" y1="172.784" x2="106.413" y2="166.731" gradientUnits="userSpaceOnUse">
<stop stop-color="#00124C"/>
<stop offset="0.36" stop-color="#001559"/>
<stop offset="1" stop-color="#001E7D"/>
</linearGradient>
<linearGradient id="paint6_linear_47_2471" x1="130.474" y1="172.77" x2="131.003" y2="166.718" gradientUnits="userSpaceOnUse">
<stop stop-color="#00124C"/>
<stop offset="0.36" stop-color="#001559"/>
<stop offset="1" stop-color="#001E7D"/>
</linearGradient>
</defs>
</svg>
