<svg width="390" height="844" viewBox="0 0 390 844" fill="none" xmlns="http://www.w3.org/2000/svg">
<path d="M390 780.21V844H0V798.36C47.15 752.38 101.51 764.73 101.51 764.73C102.65 765.25 103.8 765.76 104.94 766.25C200.78 807.93 291.74 766.55 295.53 764.79C295.61 764.75 295.65 764.73 295.65 764.73C337.4 756.79 368.01 765.8 390 780.21Z" fill="#FE40B4"/>
<path d="M390 0H0V121.72C0.55 122.24 1.1 122.77 1.65 123.3C9.68 140.15 14.63 158.73 12.63 182.24C11.3 197.79 6.49 212.88 0 227.63V230.68C7.05 215.07 12.34 199.05 13.75 182.44C15.66 160.02 11.4 142.08 4.2 125.86C13.78 135.78 22.06 147.91 27.29 168.08C34.1 194.35 19.24 220.02 0 246.42V642.2C4.34 652.97 10.1 663.38 17.74 673.26C24.47 681.97 32.2 688.41 40.57 692.99C24.94 689.02 11.13 680.88 0 668.89V670.89C12.67 684.26 28.7 692.78 46.85 695.99C71.91 706.57 101.79 702.15 128.35 691.35C130.44 690.5 132.53 689.7 134.62 688.95C139.12 687.31 143.64 685.89 148.18 684.66C153.81 683.14 159.46 681.93 165.14 681.01C195.97 676.03 227.35 679.91 257.61 691.58C260.11 692.55 262.67 693.49 265.29 694.39H265.3C281.13 699.85 298.94 703.7 317.09 700.37C343.7 697.54 371.25 678.47 390 649.23V646.81C376 669.21 356.77 685.75 336.7 693.74C343.01 690.54 349.29 686.23 355.45 680.57C373.34 664.19 384.02 646.28 390 627.4V509.23C385.35 474.41 381.34 439.77 390 407.85V0Z" fill="url(#paint0_linear_658_4521)"/>
<path d="M290.44 764.48C290.44 764.48 281.77 788.17 258.46 806.82C243.36 818.93 222.07 828.89 193.05 828.89C164.03 828.89 142.74 818.93 127.62 806.82C104.32 788.17 95.6599 764.48 95.6599 764.48C121.24 765.4 138.71 754.12 150.49 740.07C151.43 738.93 152.35 737.78 153.22 736.62C169.24 715.42 173.42 689.85 173.42 689.85H212.69C212.69 689.85 216.86 715.41 232.89 736.62C233.74 737.78 234.66 738.93 235.62 740.07C247.41 754.12 264.89 765.4 290.46 764.48H290.44Z" fill="#FF71C8"/>
<path d="M290.44 764.48C290.44 764.48 281.77 788.17 258.46 806.82C243.36 818.93 222.07 828.89 193.05 828.89C164.03 828.89 142.74 818.93 127.62 806.82C104.32 788.17 95.6599 764.48 95.6599 764.48C121.24 765.4 138.71 754.12 150.49 740.07C151.43 738.93 152.35 737.78 153.22 736.62C169.24 715.42 173.42 689.85 173.42 689.85H212.69C212.69 689.85 216.86 715.41 232.89 736.62C233.74 737.78 234.66 738.93 235.62 740.07C247.41 754.12 264.89 765.4 290.46 764.48H290.44Z" fill="#FF71C8"/>
<path d="M285.9 663.41C288.09 654.2 282.4 644.97 273.19 642.78C263.99 640.59 254.75 646.28 252.56 655.49C250.37 664.69 256.06 673.93 265.26 676.12C274.47 678.31 283.7 672.62 285.89 663.41H285.9Z" fill="#FDF001" stroke="url(#paint1_linear_658_4521)" stroke-width="0.5" stroke-miterlimit="10"/>
<path d="M269.22 674.12C269.83 674.32 270.2 674.53 270.3 675.17L270.7 676.43C270.83 676.84 271.18 677.92 271.31 678.32C271.17 678.59 271.04 678.87 270.84 679.17C270.5 679.04 270.24 678.9 269.97 678.76C269.84 678.36 269.5 677.28 269.36 676.87L268.96 675.61C268.66 675.04 268.83 674.64 269.23 674.13H269.22V674.12Z" fill="url(#paint2_linear_658_4521)"/>
<path d="M273.46 673.11C274.16 673.32 274.55 673.62 274.71 674.3L275.32 675.76C275.52 676.24 276.04 677.49 276.23 677.96C276.13 678.29 276.05 678.61 275.89 678.95C275.54 678.81 275.24 678.65 274.94 678.48C274.74 678.03 274.23 676.76 274.03 676.28L273.42 674.82C273.05 674.22 273.12 673.73 273.46 673.09V673.11Z" fill="url(#paint3_linear_658_4521)"/>
<path d="M277.3 671.9C277.91 671.91 278.32 671.99 278.55 672.55L279.2 673.59C279.41 673.93 279.98 674.81 280.18 675.14C280.11 675.42 280.04 675.71 279.91 676.03C279.57 676 279.29 675.94 278.99 675.89C278.78 675.56 278.22 674.67 278.01 674.34L277.36 673.3C276.95 672.85 277.05 672.45 277.3 671.89V671.9Z" fill="url(#paint4_linear_658_4521)"/>
<path d="M131.3 671.52C137.99 664.83 137.99 653.98 131.3 647.29C124.61 640.6 113.76 640.6 107.07 647.29C100.38 653.98 100.38 664.83 107.07 671.52C113.76 678.21 124.61 678.21 131.3 671.52Z" fill="#FDF001" stroke="url(#paint5_linear_658_4521)" stroke-width="0.5" stroke-miterlimit="10"/>
<path d="M108.87 670.09C108.96 670.81 108.84 671.31 108.27 671.75L107.16 672.93C106.79 673.31 105.85 674.32 105.5 674.7C105.16 674.76 104.82 674.81 104.44 674.81C104.43 674.43 104.44 674.09 104.48 673.75C104.82 673.38 105.77 672.36 106.14 671.98L107.25 670.8C107.65 670.22 108.14 670.06 108.87 670.1V670.09Z" fill="url(#paint6_linear_658_4521)"/>
<path d="M107.81 676.54C107.7 675.77 107.82 675.25 108.38 674.75L109.49 673.4C109.86 672.96 110.8 671.81 111.15 671.37C111.5 671.28 111.85 671.19 112.24 671.14C112.27 671.54 112.24 671.89 112.24 672.26C111.9 672.69 110.95 673.84 110.58 674.29L109.47 675.64C109.09 676.28 108.59 676.51 107.82 676.55H107.81V676.54Z" fill="url(#paint7_linear_658_4521)"/>
<path d="M112.53 678.16C112.15 677.56 112.03 677.11 112.36 676.5L112.86 675.07C113.03 674.6 113.44 673.38 113.6 672.93C113.88 672.76 114.17 672.59 114.51 672.45C114.69 672.78 114.81 673.09 114.92 673.4C114.76 673.85 114.34 675.07 114.18 675.54L113.68 676.97C113.57 677.64 113.18 677.94 112.52 678.18H112.53V678.16Z" fill="url(#paint8_linear_658_4521)"/>
<path d="M232.89 736.62C221.38 743.96 207.71 748.2 193.06 748.2C178.41 748.2 164.73 743.94 153.22 736.62C169.24 715.42 173.42 689.85 173.42 689.85H212.69C212.69 689.85 216.86 715.41 232.89 736.62V736.62Z" fill="#FE40B4"/>
<path d="M267.26 598.74C267.26 557.75 234.03 524.51 193.04 524.51C152.05 524.51 118.82 557.74 118.82 598.74V656.48C118.82 697.47 152.05 730.71 193.04 730.71C234.03 730.71 267.26 697.48 267.26 656.48V598.74Z" fill="url(#paint9_linear_658_4521)"/>
<path d="M267.26 598.74C267.26 557.75 234.03 524.51 193.04 524.51C152.05 524.51 118.82 557.74 118.82 598.74V656.48C118.82 697.47 152.05 730.71 193.04 730.71C234.03 730.71 267.26 697.48 267.26 656.48V598.74Z" fill="#FDF001" stroke="url(#paint10_linear_658_4521)" stroke-miterlimit="10"/>
<path d="M155.3 682.07C160.37 677 160.37 668.79 155.3 663.72C150.23 658.65 142.02 658.65 136.96 663.72C131.9 668.79 131.89 677 136.96 682.07C142.03 687.14 150.24 687.14 155.3 682.07Z" fill="#FE40B4"/>
<path d="M252.63 682.73C257.77 677.74 257.89 669.52 252.89 664.39C247.9 659.25 239.68 659.13 234.55 664.13C229.41 669.12 229.29 677.34 234.29 682.47C239.28 687.61 247.5 687.73 252.63 682.73Z" fill="#FE40B4"/>
<path d="M194.47 587.17C198.05 604.05 201.54 622.61 204.96 639.4C206.22 645.26 207.07 651.19 207.71 657.16C207.84 658.22 206.93 659.18 205.85 659.1C203.12 658.94 200.4 658.75 197.67 658.49C194.94 658.22 192.22 657.91 189.49 657.45C189.26 657.41 189.26 657.07 189.49 657.02C194.91 656.14 200.36 655.7 205.84 655.37L204.01 657.53C201.28 645.99 200.33 634.15 198.62 622.45C197.19 612.23 195.33 597.61 194.05 587.22C194.01 586.98 194.42 586.88 194.46 587.15L194.47 587.17Z" fill="#00124C"/>
<path d="M197.67 708.32C201.25 708.32 204.16 703.78 204.16 698.17C204.16 692.56 201.26 688.02 197.67 688.02C194.08 688.02 191.18 692.56 191.18 698.17C191.18 703.78 194.08 708.32 197.67 708.32Z" fill="#FF9FDA"/>
<path d="M173.94 691.13C189.64 699.75 205.77 699.93 221.42 691.13C221.52 691.06 221.69 691.06 221.76 691.19C221.8 691.28 221.79 691.36 221.73 691.43C212.62 701.56 196.96 704.74 184.57 699.14C180.41 697.41 176.76 694.64 173.64 691.43C173.47 691.23 173.71 690.96 173.94 691.13Z" fill="#00124C"/>
<path d="M171.67 694.57C171.5 691.56 173.13 688.71 175.77 687.29C175.83 687.25 175.93 687.28 175.9 687.36C174.93 689.21 172.88 692.85 171.8 694.64C171.76 694.71 171.66 694.64 171.67 694.57Z" fill="#00124C"/>
<path d="M220.03 688.82C222.49 689.61 224.03 692.01 223.79 694.57C223.79 694.64 223.73 694.71 223.68 694.64C222.69 693.25 220.8 690.35 219.92 688.89C219.88 688.82 219.98 688.78 220.03 688.82Z" fill="#00124C"/>
<path d="M211.6 626.4C223.11 632.13 236.05 632.19 247.55 626.4C239.37 637.85 219.8 637.77 211.6 626.4Z" fill="#00124C"/>
<path d="M136.43 626.4C147.94 632.13 160.88 632.19 172.38 626.4C164.2 637.85 144.65 637.77 136.43 626.4V626.4Z" fill="#00124C"/>
<path d="M118.82 530.54V621.69H126.58V622.68C126.75 622.68 144.21 622.52 156.3 608.53C166.28 596.99 169.85 579.63 166.97 556.91C178.78 591.38 208.33 616.87 244.31 623.42L267.26 627.59V530.52H118.82V530.54Z" fill="#FFF983"/>
<path d="M105.29 509.8C82.3 540.1 88.51 578.62 105.29 620.11H114.69V621.32C114.9 621.32 136.01 621.12 150.65 604.2C162.73 590.23 167.04 569.23 163.57 541.74C177.86 583.45 213.61 614.31 257.17 622.23L284.95 627.27C303.6 585.74 306.2 546.26 284.95 509.81C174.83 450.36 175.03 468.61 105.31 509.81H105.3L105.29 509.8ZM149.74 603.39C138.2 616.75 122.52 619.43 116.84 619.97C126.08 616.46 161.87 599.32 162.57 543.6C165.62 569.89 161.32 590 149.73 603.39H149.74V603.39Z" fill="#FE40B4"/>
<path d="M337.9 532.99C330.81 532.99 325.05 538.66 324.98 545.68L265.59 545.98L312.66 507.16C315.01 509.63 318.35 511.17 322.04 511.17C329.18 511.17 334.97 505.42 334.97 498.33C334.97 491.24 329.18 485.49 322.04 485.49C314.9 485.49 309.11 491.24 309.11 498.33C309.11 499.8 309.36 501.21 309.82 502.52L252.55 523.56L282.58 472.53C284.22 473.28 286.04 473.7 287.96 473.7C295.1 473.7 300.89 467.95 300.89 460.86C300.89 453.77 295.1 448.02 287.96 448.02C280.82 448.02 275.03 453.77 275.03 460.86C275.03 463.88 276.08 466.64 277.83 468.83L232.58 506.92L243.45 447.52C244.23 447.67 245.03 447.74 245.84 447.74C252.98 447.74 258.77 441.99 258.77 434.9C258.77 427.81 252.98 422.06 245.84 422.06C238.7 422.06 232.91 427.81 232.91 434.9C232.91 439.22 235.06 443.05 238.36 445.37L208.08 498.06L197.72 437.91C203.58 436.69 207.97 431.52 207.97 425.35C207.97 418.26 202.18 412.51 195.04 412.51C187.9 412.51 182.11 418.26 182.11 425.35C182.11 431.53 186.51 436.68 192.36 437.91L182 498.06L152 445.84C155.41 443.53 157.64 439.64 157.64 435.24C157.64 428.15 151.85 422.4 144.71 422.4C137.57 422.4 131.78 428.15 131.78 435.24C131.78 442.33 137.57 448.08 144.71 448.08C145.39 448.08 146.06 448.03 146.71 447.93L157.5 506.93L111.8 468.46C113.35 466.35 114.27 463.74 114.27 460.92C114.27 453.83 108.48 448.08 101.34 448.08C94.2 448.08 88.41 453.83 88.41 460.92C88.41 468.01 94.2 473.76 101.34 473.76C103.51 473.76 105.56 473.23 107.36 472.28L137.53 523.56L80.01 502.44C80.71 500.86 81.1 499.11 81.1 497.28C81.1 490.19 75.31 484.44 68.17 484.44C61.03 484.44 55.24 490.19 55.24 497.28C55.24 504.37 61.03 510.12 68.17 510.12C71.55 510.12 74.61 508.84 76.91 506.73L124.49 545.97L64.85 545.67C64.65 538.75 58.95 533.21 51.93 533.21C44.91 533.21 39 538.96 39 546.05C39 553.14 44.79 558.89 51.93 558.89C57.13 558.89 61.6 555.84 63.66 551.45L119.93 571.46C133.84 544.39 162.18 525.87 194.88 525.87C227.58 525.87 255.92 544.41 269.83 571.47H270.05L326.23 551.48C328.34 555.72 332.74 558.65 337.83 558.65C344.97 558.65 350.76 552.9 350.76 545.81C350.76 538.72 344.97 532.97 337.83 532.97L337.9 532.99Z" fill="#FDF001"/>
<path d="M337.84 552.25C341.41 552.25 344.3 549.38 344.3 545.83C344.3 542.28 341.41 539.41 337.84 539.41C334.27 539.41 331.38 542.28 331.38 545.83C331.38 549.38 334.27 552.25 337.84 552.25Z" fill="#FE40B4" stroke="#00124C" stroke-miterlimit="10"/>
<path d="M322 504.76C325.57 504.76 328.46 501.89 328.46 498.34C328.46 494.79 325.57 491.92 322 491.92C318.43 491.92 315.54 494.79 315.54 498.34C315.54 501.89 318.43 504.76 322 504.76Z" fill="#FE40B4" stroke="#00124C" stroke-miterlimit="10"/>
<path d="M287.92 467.29C291.49 467.29 294.38 464.42 294.38 460.87C294.38 457.32 291.49 454.45 287.92 454.45C284.35 454.45 281.46 457.32 281.46 460.87C281.46 464.42 284.35 467.29 287.92 467.29Z" fill="#FE40B4" stroke="#00124C" stroke-miterlimit="10"/>
<path d="M245.79 441.34C249.36 441.34 252.25 438.47 252.25 434.92C252.25 431.37 249.36 428.5 245.79 428.5C242.22 428.5 239.33 431.37 239.33 434.92C239.33 438.47 242.22 441.34 245.79 441.34Z" fill="#FE40B4" stroke="#00124C" stroke-miterlimit="10"/>
<path d="M195.02 431.79C198.59 431.79 201.48 428.92 201.48 425.37C201.48 421.82 198.59 418.95 195.02 418.95C191.45 418.95 188.56 421.82 188.56 425.37C188.56 428.92 191.45 431.79 195.02 431.79Z" fill="#FE40B4" stroke="#00124C" stroke-miterlimit="10"/>
<path d="M144.7 441.67C148.27 441.67 151.16 438.8 151.16 435.25C151.16 431.7 148.27 428.83 144.7 428.83C141.13 428.83 138.24 431.7 138.24 435.25C138.24 438.8 141.13 441.67 144.7 441.67Z" fill="#FE40B4" stroke="#00124C" stroke-miterlimit="10"/>
<path d="M101.33 467.35C104.9 467.35 107.79 464.48 107.79 460.93C107.79 457.38 104.9 454.51 101.33 454.51C97.7601 454.51 94.8701 457.38 94.8701 460.93C94.8701 464.48 97.7601 467.35 101.33 467.35Z" fill="#FE40B4" stroke="#00124C" stroke-miterlimit="10"/>
<path d="M68.16 503.71C71.73 503.71 74.6199 500.84 74.6199 497.29C74.6199 493.74 71.73 490.87 68.16 490.87C64.59 490.87 61.7 493.74 61.7 497.29C61.7 500.84 64.59 503.71 68.16 503.71Z" fill="#FE40B4" stroke="#00124C" stroke-miterlimit="10"/>
<path d="M51.94 552.48C55.51 552.48 58.4 549.61 58.4 546.06C58.4 542.51 55.51 539.64 51.94 539.64C48.37 539.64 45.48 542.51 45.48 546.06C45.48 549.61 48.37 552.48 51.94 552.48Z" fill="#FE40B4" stroke="#00124C" stroke-miterlimit="10"/>
<path d="M115.23 652.49C115.26 652.4 115.27 652.31 115.23 652.29C115.3 652.36 114.46 653.08 114.29 653.48C111.71 657.18 114.02 661.16 115.21 665.02C109.93 662.81 107.91 653.95 114.47 652.06C114.88 651.93 115.85 652.06 115.21 652.49H115.22H115.23Z" fill="#00124C"/>
<path d="M272.44 664.49C272.41 664.58 272.4 664.67 272.44 664.69C272.37 664.62 273.21 663.9 273.38 663.5C275.96 659.8 273.65 655.82 272.46 651.96C277.74 654.17 279.76 663.03 273.2 664.92C272.79 665.05 271.82 664.92 272.46 664.49H272.45H272.44Z" fill="#00124C"/>
<path d="M300.868 241.462C314.503 239.643 323.309 229.723 327.784 212C332.292 231.355 341.264 239.588 355.857 237.538C340.9 240.04 331.267 248.825 328.942 267C325.877 246.234 314.91 239.202 300.868 241.462V241.462Z" fill="#FDF001"/>
<path d="M285.934 208.087C293.88 207.216 299.138 201.584 301.982 191.345C304.329 202.653 309.433 207.558 317.942 206.566C309.212 207.812 303.503 212.783 301.894 223.309C300.395 211.206 294.123 206.963 285.934 208.087Z" fill="#FDF001"/>
<path d="M337.583 191.852C343.678 191.19 347.712 186.859 349.895 179C351.702 187.674 355.615 191.444 362.14 190.683C355.45 191.642 351.052 195.456 349.828 203.535C348.682 194.243 343.866 190.992 337.583 191.852V191.852Z" fill="#FDF001"/>
<path d="M62.448 450.704C50.6601 448.8 41.4403 454.713 38.8723 472.15C36.9181 456.892 28.8257 449.514 16.2612 447.409C28.5126 449.138 36.0538 442.223 39.8369 425.963C43.595 440.858 50.9984 449.176 62.448 450.704V450.704Z" fill="#FDF001"/>
<path d="M74.9999 422.681C68.1227 421.742 62.8488 425.299 61.5961 435.471C60.2558 426.627 55.4454 422.456 48.1172 421.416C55.2575 422.243 59.5417 418.121 61.521 408.626C63.9136 417.22 68.3231 421.955 74.9999 422.681V422.681Z" fill="#FDF001"/>
<path d="M31.6193 409.039C26.3455 408.313 22.2993 411.056 21.3347 418.848C20.3075 412.058 16.6121 408.864 11 408.062C16.4868 408.701 19.7688 405.544 21.2846 398.254C23.1135 404.855 26.5083 408.488 31.6193 409.039Z" fill="#FDF001"/>
<defs>
<linearGradient id="paint0_linear_658_4521" x1="161.39" y1="709.63" x2="224.59" y2="-14.44" gradientUnits="userSpaceOnUse">
<stop stop-color="#FE40B4"/>
<stop offset="0.21" stop-color="#FE4DB9"/>
<stop offset="0.6" stop-color="#FE72C8"/>
<stop offset="1" stop-color="#FF9FDA"/>
</linearGradient>
<linearGradient id="paint1_linear_658_4521" x1="251.89" y1="659.45" x2="286.66" y2="659.45" gradientUnits="userSpaceOnUse">
<stop stop-color="#00124C"/>
<stop offset="0.36" stop-color="#001559"/>
<stop offset="1" stop-color="#001E7D"/>
</linearGradient>
<linearGradient id="paint2_linear_658_4521" x1="268.81" y1="676.64" x2="271.31" y2="676.64" gradientUnits="userSpaceOnUse">
<stop stop-color="#00124C"/>
<stop offset="0.36" stop-color="#001559"/>
<stop offset="1" stop-color="#001E7D"/>
</linearGradient>
<linearGradient id="paint3_linear_658_4521" x1="273.18" y1="676.02" x2="276.23" y2="676.02" gradientUnits="userSpaceOnUse">
<stop stop-color="#00124C"/>
<stop offset="0.36" stop-color="#001559"/>
<stop offset="1" stop-color="#001E7D"/>
</linearGradient>
<linearGradient id="paint4_linear_658_4521" x1="277.09" y1="673.97" x2="280.19" y2="673.97" gradientUnits="userSpaceOnUse">
<stop stop-color="#00124C"/>
<stop offset="0.36" stop-color="#001559"/>
<stop offset="1" stop-color="#001E7D"/>
</linearGradient>
<linearGradient id="paint5_linear_658_4521" x1="101.81" y1="659.41" x2="136.57" y2="659.41" gradientUnits="userSpaceOnUse">
<stop stop-color="#00124C"/>
<stop offset="0.36" stop-color="#001559"/>
<stop offset="1" stop-color="#001E7D"/>
</linearGradient>
<linearGradient id="paint6_linear_658_4521" x1="104.44" y1="672.45" x2="108.9" y2="672.45" gradientUnits="userSpaceOnUse">
<stop stop-color="#00124C"/>
<stop offset="0.36" stop-color="#001559"/>
<stop offset="1" stop-color="#001E7D"/>
</linearGradient>
<linearGradient id="paint7_linear_658_4521" x1="107.76" y1="673.85" x2="112.25" y2="673.85" gradientUnits="userSpaceOnUse">
<stop stop-color="#00124C"/>
<stop offset="0.36" stop-color="#001559"/>
<stop offset="1" stop-color="#001E7D"/>
</linearGradient>
<linearGradient id="paint8_linear_658_4521" x1="112.18" y1="675.31" x2="114.93" y2="675.31" gradientUnits="userSpaceOnUse">
<stop stop-color="#00124C"/>
<stop offset="0.36" stop-color="#001559"/>
<stop offset="1" stop-color="#001E7D"/>
</linearGradient>
<linearGradient id="paint9_linear_658_4521" x1="185.54" y1="505.41" x2="198.82" y2="721.75" gradientUnits="userSpaceOnUse">
<stop stop-color="#FA4E8F"/>
<stop offset="0.04" stop-color="#FA5795"/>
<stop offset="0.18" stop-color="#FC77AA"/>
<stop offset="0.32" stop-color="#FD90BA"/>
<stop offset="0.48" stop-color="#FEA2C6"/>
<stop offset="0.64" stop-color="#FEADCD"/>
<stop offset="0.82" stop-color="#FFB1D0"/>
</linearGradient>
<linearGradient id="paint10_linear_658_4521" x1="184.05" y1="730.71" x2="202.03" y2="524.51" gradientUnits="userSpaceOnUse">
<stop stop-color="#00124C"/>
<stop offset="0.36" stop-color="#001559"/>
<stop offset="1" stop-color="#001E7D"/>
</linearGradient>
</defs>
</svg>
