<svg width="390" height="844" viewBox="0 0 390 844" fill="none" xmlns="http://www.w3.org/2000/svg">
<path d="M390 0H0V121.71C0.55 122.23 1.1 122.76 1.65 123.29C9.68 140.14 14.63 158.72 12.63 182.23C11.3 197.78 6.49 212.88 0 227.63V230.68C7.05 215.07 12.34 199.05 13.75 182.44C15.66 160.02 11.4 142.07 4.2 125.86C13.78 135.78 22.06 147.91 27.29 168.08C34.1 194.35 19.24 220.01 0 246.41V642.2C4.34 652.97 10.1 663.38 17.74 673.26C24.47 681.97 32.2 688.41 40.57 692.98C24.94 689.02 11.13 680.88 0 668.89V670.9C12.67 684.26 28.7 692.77 46.85 695.98C71.91 706.56 101.79 702.15 128.35 691.35C170.6 674.18 215.2 675.22 257.61 691.58C275.23 698.37 295.94 704.25 317.09 700.37C343.7 697.54 371.25 678.46 390 649.23V646.81C375.99 669.21 356.77 685.74 336.7 693.73C343.01 690.53 349.29 686.22 355.45 680.57C373.34 664.19 384.02 646.28 390 627.4V509.23C385.35 474.41 381.34 439.77 390 407.85V0Z" fill="url(#paint0_linear_652_3209)"/>
<path d="M390 783.98V844H0V792.07C45.57 753.32 95.02 764.55 95.02 764.55C194.49 809.78 289.75 764.55 289.75 764.55C335.3 755.89 367.64 767.33 390 783.98Z" fill="#00124C"/>
<path d="M288.47 663.59C290.66 654.39 284.97 645.17 275.78 642.98C266.59 640.79 257.36 646.48 255.18 655.67C252.99 664.87 258.68 674.09 267.87 676.28C277.07 678.47 286.29 672.78 288.48 663.59H288.47Z" fill="#FDF001" stroke="url(#paint1_linear_652_3209)" stroke-width="0.5" stroke-miterlimit="10"/>
<path d="M271.81 674.28C272.42 674.48 272.79 674.69 272.89 675.33L273.29 676.59C273.42 677 273.77 678.08 273.9 678.48C273.76 678.75 273.63 679.03 273.43 679.33C273.09 679.2 272.83 679.06 272.57 678.92C272.44 678.52 272.1 677.45 271.96 677.03L271.56 675.77C271.26 675.2 271.43 674.81 271.83 674.3H271.82L271.81 674.28Z" fill="#FE40B4"/>
<path d="M276.05 673.28C276.74 673.49 277.14 673.79 277.3 674.47L277.91 675.93C278.11 676.41 278.63 677.66 278.82 678.13C278.72 678.46 278.64 678.78 278.48 679.12C278.13 678.98 277.83 678.82 277.53 678.65C277.33 678.2 276.82 676.93 276.62 676.45L276.01 674.99C275.64 674.39 275.71 673.9 276.05 673.26V673.28Z" fill="#FE40B4"/>
<path d="M279.88 672.07C280.49 672.08 280.9 672.16 281.13 672.72L281.78 673.75C281.99 674.09 282.56 674.97 282.76 675.3C282.69 675.58 282.62 675.87 282.49 676.19C282.15 676.16 281.87 676.1 281.57 676.05C281.36 675.72 280.8 674.83 280.59 674.5L279.94 673.47C279.53 673.02 279.63 672.62 279.88 672.07Z" fill="#FE40B4"/>
<path d="M134.04 671.69C140.72 665.01 140.72 654.17 134.04 647.49C127.36 640.81 116.52 640.81 109.84 647.49C103.16 654.17 103.16 665.01 109.84 671.69C116.52 678.37 127.36 678.37 134.04 671.69Z" fill="#FDF001" stroke="url(#paint2_linear_652_3209)" stroke-width="0.5" stroke-miterlimit="10"/>
<path d="M111.64 670.26C111.73 670.98 111.61 671.48 111.04 671.92L109.93 673.1C109.56 673.48 108.63 674.49 108.27 674.87C107.93 674.93 107.59 674.98 107.21 674.98C107.2 674.6 107.21 674.26 107.25 673.92C107.59 673.55 108.54 672.53 108.91 672.15L110.02 670.97C110.42 670.39 110.91 670.23 111.64 670.28V670.26Z" fill="#FE40B4"/>
<path d="M110.57 676.71C110.46 675.94 110.58 675.42 111.14 674.92L112.25 673.57C112.62 673.13 113.55 671.98 113.91 671.54C114.26 671.45 114.6 671.36 115 671.31C115.03 671.71 115 672.06 115 672.43C114.66 672.86 113.71 674 113.34 674.46L112.23 675.81C111.85 676.45 111.35 676.67 110.59 676.72H110.58L110.57 676.71Z" fill="#FE40B4"/>
<path d="M115.29 678.32C114.91 677.72 114.79 677.27 115.12 676.66L115.62 675.23C115.79 674.76 116.2 673.54 116.36 673.09C116.64 672.92 116.93 672.75 117.27 672.61C117.45 672.94 117.57 673.25 117.68 673.56C117.52 674.01 117.1 675.23 116.94 675.7L116.44 677.13C116.33 677.8 115.94 678.09 115.28 678.34H115.29V678.32Z" fill="#FE40B4"/>
<path d="M293.01 764.55C293.01 764.55 284.35 788.21 261.07 806.84C245.99 818.93 224.72 828.89 195.73 828.89C166.74 828.89 145.47 818.94 130.37 806.84C107.09 788.21 98.4399 764.55 98.4399 764.55C123.99 765.47 141.44 754.2 153.21 740.16C154.15 739.03 155.07 737.88 155.93 736.71C171.94 715.53 176.1 690 176.1 690H215.33C215.33 690 219.5 715.53 235.5 736.71C236.35 737.87 237.27 739.02 238.22 740.16C250 754.2 267.45 765.47 293 764.55H293.01Z" fill="#3E4BF6"/>
<path d="M293.01 764.55C293.01 764.55 284.35 788.21 261.07 806.84C245.99 818.93 224.72 828.89 195.73 828.89C166.74 828.89 145.47 818.94 130.37 806.84C107.09 788.21 98.4399 764.55 98.4399 764.55C123.99 765.47 141.44 754.2 153.21 740.16C154.15 739.03 155.07 737.88 155.93 736.71C171.94 715.53 176.1 690 176.1 690H215.33C215.33 690 219.5 715.53 235.5 736.71C236.35 737.87 237.27 739.02 238.22 740.16C250 754.2 267.45 765.47 293 764.55H293.01Z" fill="#001E7D"/>
<path d="M235.52 736.72C224.02 744.05 210.37 748.29 195.74 748.29C181.11 748.29 167.44 744.04 155.94 736.72C171.95 715.54 176.11 690.01 176.11 690.01H215.34C215.34 690.01 219.51 715.54 235.51 736.72H235.52Z" fill="#00124C"/>
<path d="M269.86 598.99C269.86 558.04 236.67 524.84 195.72 524.84C154.77 524.84 121.58 558.04 121.58 598.99V656.66C121.58 697.61 154.77 730.81 195.72 730.81C236.67 730.81 269.86 697.61 269.86 656.66V598.99Z" fill="url(#paint3_linear_652_3209)"/>
<path d="M269.86 598.99C269.86 558.04 236.67 524.84 195.72 524.84C154.77 524.84 121.58 558.04 121.58 598.99V656.66C121.58 697.61 154.77 730.81 195.72 730.81C236.67 730.81 269.86 697.61 269.86 656.66V598.99Z" fill="#FDF001" stroke="url(#paint4_linear_652_3209)" stroke-miterlimit="10"/>
<path d="M158.02 682.23C163.08 677.17 163.08 668.97 158.02 663.9C152.96 658.84 144.75 658.84 139.69 663.9C134.63 668.96 134.63 677.17 139.69 682.23C144.75 687.29 152.95 687.29 158.02 682.23Z" fill="#FE40B4"/>
<path d="M255.24 682.88C260.37 677.89 260.49 669.69 255.5 664.56C250.51 659.43 242.31 659.31 237.18 664.3C232.05 669.29 231.93 677.49 236.92 682.62C241.91 687.75 250.11 687.87 255.24 682.88Z" fill="#FE40B4"/>
<path d="M197.14 587.43C200.71 604.29 204.2 622.83 207.62 639.6C208.88 645.46 209.73 651.38 210.37 657.34C210.5 658.4 209.59 659.35 208.51 659.28C205.79 659.12 203.07 658.93 200.34 658.67C197.62 658.4 194.9 658.09 192.17 657.64C191.94 657.6 191.94 657.26 192.17 657.21C197.59 656.33 203.03 655.89 208.5 655.57L206.67 657.72C203.95 646.19 203 634.37 201.28 622.67C199.85 612.46 197.99 597.86 196.71 587.48C196.67 587.24 197.08 587.14 197.12 587.41L197.14 587.43Z" fill="#00124C"/>
<path d="M200.34 708.45C203.92 708.45 206.82 703.91 206.82 698.31C206.82 692.71 203.92 688.17 200.34 688.17C196.76 688.17 193.86 692.71 193.86 698.31C193.86 703.91 196.76 708.45 200.34 708.45Z" fill="#FF9FDA"/>
<path d="M176.64 691.28C192.32 699.89 208.44 700.07 224.06 691.28C224.16 691.21 224.33 691.21 224.4 691.34C224.44 691.43 224.43 691.51 224.37 691.58C215.27 701.7 199.63 704.88 187.25 699.28C183.1 697.55 179.45 694.79 176.33 691.58C176.16 691.38 176.4 691.11 176.63 691.28H176.64Z" fill="#00124C"/>
<path d="M174.37 694.71C174.2 691.7 175.83 688.85 178.47 687.44C178.53 687.4 178.63 687.43 178.6 687.51C177.64 689.35 175.58 693 174.5 694.78C174.46 694.85 174.36 694.78 174.37 694.71Z" fill="#00124C"/>
<path d="M222.67 688.97C225.12 689.76 226.67 692.16 226.43 694.71C226.43 694.78 226.37 694.85 226.32 694.78C225.33 693.39 223.44 690.5 222.56 689.04C222.52 688.97 222.62 688.93 222.67 688.97Z" fill="#00124C"/>
<path d="M214.25 626.62C225.75 632.35 238.68 632.4 250.16 626.62C241.99 638.06 222.44 637.98 214.25 626.62Z" fill="#00124C"/>
<path d="M139.17 626.62C150.67 632.35 163.6 632.4 175.08 626.62C166.91 638.06 147.38 637.98 139.17 626.62Z" fill="#00124C"/>
<path d="M121.58 530.86V621.91H129.34V622.9C129.51 622.9 146.95 622.74 159.03 608.77C169 597.24 172.57 579.9 169.69 557.21C181.49 591.65 211 617.11 246.94 623.65L269.86 627.82V530.86H121.58Z" fill="#FFF983"/>
<path d="M108.06 510.15C85.09 540.42 91.3 578.9 108.06 620.34H117.45V621.55C117.66 621.55 138.74 621.35 153.38 604.45C165.44 590.5 169.75 569.52 166.28 542.06C180.56 583.73 216.27 614.55 259.78 622.46L287.53 627.49C306.16 586.01 308.75 546.57 287.53 510.16C177.53 450.77 177.73 469 108.09 510.16H108.08L108.06 510.15ZM152.46 603.64C140.93 616.98 125.27 619.66 119.6 620.2C128.83 616.7 164.58 599.57 165.28 543.91C168.33 570.17 164.03 590.26 152.45 603.64H152.46Z" fill="#00124C"/>
<path d="M339.6 533.31C332.52 533.31 326.76 538.98 326.7 545.99L267.38 546.29L314.4 507.51C316.75 509.97 320.08 511.52 323.77 511.52C330.9 511.52 336.68 505.78 336.68 498.7C336.68 491.62 330.9 485.88 323.77 485.88C316.64 485.88 310.86 491.62 310.86 498.7C310.86 500.17 311.11 501.58 311.57 502.89L254.36 523.9L284.35 472.92C285.98 473.67 287.81 474.09 289.73 474.09C296.86 474.09 302.64 468.35 302.64 461.27C302.64 454.19 296.86 448.45 289.73 448.45C282.6 448.45 276.82 454.19 276.82 461.27C276.82 464.28 277.87 467.05 279.61 469.23L234.41 507.28L245.27 447.94C246.05 448.09 246.84 448.16 247.66 448.16C254.79 448.16 260.57 442.42 260.57 435.34C260.57 428.26 254.79 422.52 247.66 422.52C240.53 422.52 234.75 428.26 234.75 435.34C234.75 439.66 236.9 443.48 240.2 445.8L209.96 498.43L199.61 438.35C205.46 437.13 209.85 431.97 209.85 425.8C209.85 418.72 204.07 412.98 196.94 412.98C189.81 412.98 184.03 418.72 184.03 425.8C184.03 431.97 188.42 437.12 194.27 438.35L183.92 498.43L153.95 446.27C157.36 443.96 159.59 440.08 159.59 435.68C159.59 428.6 153.81 422.86 146.68 422.86C139.55 422.86 133.77 428.6 133.77 435.68C133.77 442.76 139.55 448.5 146.68 448.5C147.36 448.5 148.03 448.45 148.68 448.35L159.46 507.28L113.81 468.85C115.36 466.74 116.27 464.14 116.27 461.32C116.27 454.24 110.49 448.5 103.36 448.5C96.2299 448.5 90.4499 454.24 90.4499 461.32C90.4499 468.4 96.2299 474.14 103.36 474.14C105.53 474.14 107.58 473.61 109.38 472.66L139.52 523.89L82.0699 502.79C82.7699 501.21 83.1599 499.47 83.1599 497.64C83.1599 490.56 77.3799 484.82 70.2499 484.82C63.1199 484.82 57.3399 490.56 57.3399 497.64C57.3399 504.72 63.1199 510.46 70.2499 510.46C73.6199 510.46 76.6799 509.18 78.9799 507.08L126.51 546.28L66.9399 545.98C66.7399 539.07 61.0499 533.53 54.0399 533.53C47.0299 533.53 41.1299 539.27 41.1299 546.35C41.1299 553.43 46.9099 559.17 54.0399 559.17C59.2299 559.17 63.6999 556.12 65.7599 551.74L121.97 571.73C135.87 544.69 164.18 526.19 196.84 526.19C229.5 526.19 257.81 544.71 271.71 571.74H271.93L328.05 551.78C330.16 556.02 334.55 558.94 339.64 558.94C346.77 558.94 352.55 553.2 352.55 546.12C352.55 539.04 346.77 533.3 339.64 533.3L339.6 533.31Z" fill="#FDF001"/>
<path d="M339.54 552.55C343.11 552.55 346 549.68 346 546.14C346 542.6 343.11 539.73 339.54 539.73C335.97 539.73 333.08 542.6 333.08 546.14C333.08 549.68 335.97 552.55 339.54 552.55Z" fill="#FE40B4" stroke="#00124C" stroke-miterlimit="10"/>
<path d="M323.71 505.12C327.28 505.12 330.17 502.25 330.17 498.71C330.17 495.17 327.28 492.3 323.71 492.3C320.14 492.3 317.25 495.17 317.25 498.71C317.25 502.25 320.14 505.12 323.71 505.12Z" fill="#FE40B4" stroke="#00124C" stroke-miterlimit="10"/>
<path d="M289.67 467.68C293.24 467.68 296.13 464.81 296.13 461.27C296.13 457.73 293.24 454.86 289.67 454.86C286.1 454.86 283.21 457.73 283.21 461.27C283.21 464.81 286.1 467.68 289.67 467.68Z" fill="#FE40B4" stroke="#00124C" stroke-miterlimit="10"/>
<path d="M247.59 441.76C251.16 441.76 254.05 438.89 254.05 435.35C254.05 431.81 251.16 428.94 247.59 428.94C244.02 428.94 241.13 431.81 241.13 435.35C241.13 438.89 244.02 441.76 247.59 441.76Z" fill="#FE40B4" stroke="#00124C" stroke-miterlimit="10"/>
<path d="M196.87 432.22C200.44 432.22 203.33 429.35 203.33 425.81C203.33 422.27 200.44 419.4 196.87 419.4C193.3 419.4 190.41 422.27 190.41 425.81C190.41 429.35 193.3 432.22 196.87 432.22Z" fill="#FE40B4" stroke="#00124C" stroke-miterlimit="10"/>
<path d="M146.61 442.09C150.18 442.09 153.07 439.22 153.07 435.68C153.07 432.14 150.18 429.27 146.61 429.27C143.04 429.27 140.15 432.14 140.15 435.68C140.15 439.22 143.04 442.09 146.61 442.09Z" fill="#FE40B4" stroke="#00124C" stroke-miterlimit="10"/>
<path d="M103.28 467.74C106.85 467.74 109.74 464.87 109.74 461.33C109.74 457.79 106.85 454.92 103.28 454.92C99.7101 454.92 96.8201 457.79 96.8201 461.33C96.8201 464.87 99.7101 467.74 103.28 467.74Z" fill="#FE40B4" stroke="#00124C" stroke-miterlimit="10"/>
<path d="M70.1499 504.07C73.7199 504.07 76.6099 501.2 76.6099 497.66C76.6099 494.12 73.7199 491.25 70.1499 491.25C66.5799 491.25 63.6899 494.12 63.6899 497.66C63.6899 501.2 66.5799 504.07 70.1499 504.07Z" fill="#FE40B4" stroke="#00124C" stroke-miterlimit="10"/>
<path d="M53.95 552.78C57.52 552.78 60.41 549.91 60.41 546.37C60.41 542.83 57.52 539.96 53.95 539.96C50.38 539.96 47.49 542.83 47.49 546.37C47.49 549.91 50.38 552.78 53.95 552.78Z" fill="#FE40B4" stroke="#00124C" stroke-miterlimit="10"/>
<path d="M117.99 652.68C118.02 652.59 118.03 652.5 117.99 652.48C118.06 652.55 117.22 653.27 117.05 653.67C114.47 657.37 116.78 661.34 117.97 665.2C112.7 662.99 110.68 654.14 117.23 652.26C117.64 652.13 118.61 652.26 117.97 652.69H117.98L117.99 652.68Z" fill="#00124C"/>
<path d="M275.03 664.67C275 664.76 274.99 664.85 275.03 664.87C274.96 664.8 275.8 664.08 275.97 663.68C278.55 659.98 276.24 656.01 275.05 652.15C280.32 654.36 282.34 663.21 275.79 665.09C275.38 665.22 274.41 665.09 275.05 664.66H275.04L275.03 664.67Z" fill="#00124C"/>
<path d="M24.1699 447.32C31.6299 446.33 36.4399 440.9 38.8899 431.21C41.3599 441.8 46.2599 446.3 54.2499 445.18C46.0699 446.55 40.7999 451.35 39.5299 461.29C37.8499 449.94 31.8499 446.08 24.1699 447.32Z" fill="#FDF001"/>
<path d="M16 429.07C20.35 428.6 23.22 425.51 24.78 419.91C26.07 426.09 28.86 428.78 33.51 428.24C28.74 428.92 25.61 431.64 24.73 437.4C23.91 430.78 20.48 428.46 16 429.07Z" fill="#FDF001"/>
<path d="M44.25 420.19C47.58 419.83 49.79 417.46 50.98 413.16C51.97 417.91 54.11 419.97 57.68 419.55C54.02 420.07 51.62 422.16 50.95 426.58C50.32 421.5 47.69 419.72 44.25 420.19Z" fill="#FDF001"/>
<path d="M316.91 242.33C330.52 240.51 339.31 230.62 343.77 212.93C348.27 232.25 357.23 240.47 371.79 238.42C356.86 240.92 347.24 249.69 344.92 267.82C341.86 247.1 330.91 240.07 316.9 242.33H316.91Z" fill="#FDF001"/>
<path d="M302 209.03C309.93 208.16 315.17 202.54 318.01 192.32C320.36 203.61 325.45 208.5 333.93 207.51C325.22 208.76 319.52 213.72 317.92 224.22C316.43 212.14 310.17 207.91 302 209.03Z" fill="#FDF001"/>
<path d="M353.55 192.82C359.64 192.16 363.66 187.84 365.84 180C367.64 188.66 371.55 192.42 378.06 191.66C371.38 192.61 367 196.42 365.77 204.48C364.63 195.21 359.82 191.96 353.55 192.82Z" fill="#FDF001"/>
<defs>
<linearGradient id="paint0_linear_652_3209" x1="161.4" y1="709.62" x2="224.59" y2="-14.44" gradientUnits="userSpaceOnUse">
<stop stop-color="#00124C"/>
<stop offset="0.36" stop-color="#001559"/>
<stop offset="1" stop-color="#001E7D"/>
</linearGradient>
<linearGradient id="paint1_linear_652_3209" x1="254.45" y1="659.63" x2="289.18" y2="659.63" gradientUnits="userSpaceOnUse">
<stop stop-color="#00124C"/>
<stop offset="0.36" stop-color="#001559"/>
<stop offset="1" stop-color="#001E7D"/>
</linearGradient>
<linearGradient id="paint2_linear_652_3209" x1="104.58" y1="659.59" x2="139.3" y2="659.59" gradientUnits="userSpaceOnUse">
<stop stop-color="#00124C"/>
<stop offset="0.36" stop-color="#001559"/>
<stop offset="1" stop-color="#001E7D"/>
</linearGradient>
<linearGradient id="paint3_linear_652_3209" x1="188.23" y1="505.76" x2="201.48" y2="721.86" gradientUnits="userSpaceOnUse">
<stop stop-color="#FA4E8F"/>
<stop offset="0.04" stop-color="#FA5795"/>
<stop offset="0.18" stop-color="#FC77AA"/>
<stop offset="0.32" stop-color="#FD90BA"/>
<stop offset="0.48" stop-color="#FEA2C6"/>
<stop offset="0.64" stop-color="#FEADCD"/>
<stop offset="0.82" stop-color="#FFB1D0"/>
</linearGradient>
<linearGradient id="paint4_linear_652_3209" x1="186.73" y1="730.81" x2="204.7" y2="524.83" gradientUnits="userSpaceOnUse">
<stop stop-color="#00124C"/>
<stop offset="0.36" stop-color="#001559"/>
<stop offset="1" stop-color="#001E7D"/>
</linearGradient>
</defs>
</svg>
