<svg width="390" height="844" viewBox="0 0 390 844" fill="none" xmlns="http://www.w3.org/2000/svg">
<g clip-path="url(#clip0_658_4422)">
<path d="M306.55 235.67C318.92 234.02 326.91 225.02 330.97 208.94C335.06 226.5 343.2 233.97 356.44 232.11C342.87 234.38 334.13 242.35 332.02 258.84C329.24 240 319.29 233.62 306.55 235.67V235.67Z" fill="#FDF001"/>
<path d="M293 205.39C300.21 204.6 304.98 199.49 307.56 190.2C309.69 200.46 314.32 204.91 322.04 204.01C314.12 205.14 308.94 209.65 307.48 219.2C306.12 208.22 300.43 204.37 293 205.39Z" fill="#FDF001"/>
<path d="M339.86 190.66C345.39 190.06 349.05 186.13 351.03 179C352.67 186.87 356.22 190.29 362.14 189.6C356.07 190.47 352.08 193.93 350.97 201.26C349.93 192.83 345.56 189.88 339.86 190.66V190.66Z" fill="#FDF001"/>
<path d="M52.07 455.03C42.66 453.51 35.3 458.23 33.25 472.15C31.69 459.97 25.23 454.08 15.2 452.4C24.98 453.78 31 448.26 34.02 435.28C37.02 447.17 42.9299 453.81 52.07 455.03V455.03Z" fill="#FDF001"/>
<path d="M62.09 432.66C56.6 431.91 52.39 434.75 51.39 442.87C50.32 435.81 46.48 432.48 40.63 431.65C46.33 432.31 49.75 429.02 51.33 421.44C53.24 428.3 56.76 432.08 62.09 432.66V432.66Z" fill="#FDF001"/>
<path d="M27.46 421.77C23.25 421.19 20.02 423.38 19.25 429.6C18.43 424.18 15.48 421.63 11 420.99C15.38 421.5 18 418.98 19.21 413.16C20.67 418.43 23.38 421.33 27.46 421.77Z" fill="#FDF001"/>
<g clip-path="url(#clip1_658_4422)">
<path d="M390 780.21V844H0V798.36C47.15 752.38 101.51 764.73 101.51 764.73C102.65 765.25 103.8 765.76 104.94 766.25C200.78 807.93 291.74 766.55 295.53 764.79C295.61 764.75 295.65 764.73 295.65 764.73C337.4 756.79 368.01 765.8 390 780.21Z" fill="#FE40B4"/>
<path d="M390 0H0V121.72C0.55 122.24 1.1 122.77 1.65 123.3C9.68 140.15 14.63 158.73 12.63 182.24C11.3 197.79 6.49 212.88 0 227.63V230.68C7.05 215.07 12.34 199.05 13.75 182.44C15.66 160.02 11.4 142.08 4.2 125.86C13.78 135.78 22.06 147.91 27.29 168.08C34.1 194.35 19.24 220.02 0 246.42V642.2C4.34 652.97 10.1 663.38 17.74 673.26C24.47 681.97 32.2 688.41 40.57 692.99C24.94 689.02 11.13 680.88 0 668.89V670.89C12.67 684.26 28.7 692.78 46.85 695.99C71.91 706.57 101.79 702.15 128.35 691.35C130.44 690.5 132.53 689.7 134.62 688.95C139.12 687.31 143.64 685.89 148.18 684.66C153.81 683.14 159.46 681.93 165.14 681.01C195.97 676.03 227.35 679.91 257.61 691.58C260.11 692.55 262.67 693.49 265.29 694.39H265.3C281.13 699.85 298.94 703.7 317.09 700.37C343.7 697.54 371.25 678.47 390 649.23V646.81C376 669.21 356.77 685.75 336.7 693.74C343.01 690.54 349.29 686.23 355.45 680.57C373.34 664.19 384.02 646.28 390 627.4V509.23C385.35 474.41 381.34 439.77 390 407.85V0Z" fill="url(#paint0_linear_658_4422)"/>
<path d="M292.07 764.74C292.07 764.74 283.43 788.35 260.2 806.94C245.15 819.01 223.93 828.94 195 828.94C166.07 828.94 144.85 819.01 129.79 806.94C106.56 788.35 97.9301 764.74 97.9301 764.74C123.42 765.66 140.84 754.41 152.58 740.41C153.51 739.28 154.43 738.13 155.3 736.97C171.27 715.84 175.43 690.36 175.43 690.36H214.57C214.57 690.36 218.73 715.84 234.7 736.97C235.55 738.13 236.47 739.28 237.42 740.41C249.18 754.41 266.59 765.66 292.08 764.74H292.07Z" fill="#FF71C8"/>
<path d="M292.07 764.74C292.07 764.74 283.43 788.35 260.2 806.94C245.15 819.01 223.93 828.94 195 828.94C166.07 828.94 144.85 819.01 129.79 806.94C106.56 788.35 97.9301 764.74 97.9301 764.74C123.42 765.66 140.84 754.41 152.58 740.41C153.51 739.28 154.43 738.13 155.3 736.97C171.27 715.84 175.43 690.36 175.43 690.36H214.57C214.57 690.36 218.73 715.84 234.7 736.97C235.55 738.13 236.47 739.28 237.42 740.41C249.18 754.41 266.59 765.66 292.08 764.74H292.07Z" fill="#FF71C8"/>
<path d="M234.7 736.97C223.23 744.28 209.6 748.51 195.01 748.51C180.42 748.51 166.77 744.27 155.3 736.97C171.27 715.84 175.43 690.36 175.43 690.36H214.57C214.57 690.36 218.73 715.84 234.7 736.97Z" fill="#FE40B4"/>
<path d="M267.98 599.54C267.98 558.68 234.86 525.55 194 525.55C153.14 525.55 120.02 558.68 120.02 599.54V657.09C120.02 697.95 153.14 731.08 194 731.08C229.52 731.08 267.98 697.95 267.98 657.09V599.54Z" fill="url(#paint1_linear_658_4422)"/>
<path d="M285.5 664.01C287.68 654.83 282.01 645.63 272.84 643.45C263.67 641.27 254.46 646.94 252.28 656.11C250.1 665.28 255.77 674.49 264.94 676.67C274.12 678.85 283.32 673.18 285.5 664.01Z" fill="#FDF001" stroke="url(#paint2_linear_658_4422)" stroke-width="0.5" stroke-miterlimit="10"/>
<path d="M268.87 674.67C269.48 674.87 269.85 675.08 269.95 675.72L270.35 676.98C270.48 677.39 270.83 678.47 270.96 678.86C270.82 679.13 270.69 679.41 270.49 679.71C270.15 679.58 269.9 679.44 269.63 679.3C269.5 678.9 269.16 677.83 269.02 677.42L268.62 676.16C268.32 675.59 268.49 675.2 268.89 674.69H268.88L268.87 674.67Z" fill="url(#paint3_linear_658_4422)"/>
<path d="M273.1 673.67C273.79 673.88 274.19 674.18 274.34 674.86L274.95 676.32C275.15 676.8 275.67 678.05 275.86 678.51C275.76 678.84 275.68 679.16 275.52 679.5C275.17 679.36 274.87 679.2 274.57 679.03C274.37 678.58 273.86 677.32 273.66 676.84L273.05 675.38C272.68 674.79 272.75 674.29 273.09 673.65L273.1 673.67Z" fill="url(#paint4_linear_658_4422)"/>
<path d="M276.92 672.47C277.53 672.48 277.94 672.55 278.16 673.12L278.81 674.15C279.02 674.49 279.59 675.37 279.79 675.69C279.72 675.97 279.65 676.26 279.52 676.58C279.18 676.55 278.9 676.5 278.6 676.44C278.39 676.11 277.84 675.22 277.62 674.9L276.97 673.87C276.56 673.42 276.66 673.02 276.91 672.47H276.92Z" fill="url(#paint5_linear_658_4422)"/>
<path d="M131.4 672.08C138.07 665.41 138.07 654.6 131.4 647.93C124.73 641.26 113.92 641.26 107.25 647.93C100.58 654.6 100.58 665.41 107.25 672.08C113.92 678.75 124.73 678.75 131.4 672.08Z" fill="#FDF001" stroke="url(#paint6_linear_658_4422)" stroke-width="0.5" stroke-miterlimit="10"/>
<path d="M109.05 670.66C109.13 671.38 109.02 671.88 108.46 672.32L107.36 673.49C106.99 673.87 106.06 674.88 105.7 675.26C105.36 675.32 105.02 675.37 104.64 675.37C104.63 674.99 104.64 674.65 104.68 674.31C105.02 673.94 105.97 672.92 106.34 672.54L107.44 671.37C107.84 670.79 108.33 670.63 109.05 670.68V670.66Z" fill="url(#paint7_linear_658_4422)"/>
<path d="M107.98 677.09C107.87 676.33 107.99 675.8 108.55 675.31L109.65 673.97C110.02 673.53 110.95 672.39 111.31 671.95C111.66 671.87 112 671.77 112.4 671.72C112.43 672.12 112.4 672.47 112.4 672.84C112.06 673.26 111.11 674.41 110.74 674.86L109.64 676.2C109.26 676.84 108.76 677.06 108 677.11H107.99L107.98 677.09Z" fill="url(#paint8_linear_658_4422)"/>
<path d="M112.7 678.7C112.32 678.11 112.2 677.65 112.53 677.04L113.03 675.61C113.2 675.14 113.61 673.93 113.77 673.47C114.05 673.3 114.34 673.13 114.68 672.99C114.86 673.32 114.98 673.63 115.09 673.94C114.93 674.39 114.51 675.61 114.35 676.08L113.85 677.51C113.74 678.17 113.35 678.47 112.69 678.71H112.7V678.7Z" fill="url(#paint9_linear_658_4422)"/>
<path d="M266.92 599.54C266.92 558.68 233.8 525.55 192.94 525.55C152.08 525.55 118.96 558.68 118.96 599.54V657.09C118.96 697.95 152.08 731.08 192.94 731.08C233.8 731.08 266.92 697.95 266.92 657.09V599.54Z" fill="#FDF001" stroke="url(#paint10_linear_658_4422)" stroke-miterlimit="10"/>
<path d="M155.33 682.6C160.38 677.55 160.38 669.36 155.33 664.31C150.28 659.26 142.09 659.26 137.05 664.31C132.01 669.36 132 677.55 137.05 682.6C142.1 687.65 150.29 687.65 155.33 682.6Z" fill="#FE40B4"/>
<path d="M252.33 683.26C257.45 678.28 257.57 670.1 252.59 664.98C247.61 659.86 239.43 659.74 234.31 664.72C229.19 669.7 229.07 677.88 234.05 683C239.03 688.12 247.21 688.24 252.33 683.26Z" fill="#FE40B4"/>
<path d="M194.36 588.01C197.92 604.83 201.4 623.33 204.81 640.07C206.07 645.91 206.92 651.83 207.55 657.77C207.68 658.83 206.77 659.78 205.7 659.71C202.98 659.55 200.27 659.36 197.55 659.1C194.83 658.83 192.12 658.52 189.4 658.07C189.17 658.03 189.17 657.69 189.4 657.65C194.8 656.77 200.24 656.33 205.7 656.01L203.88 658.16C201.16 646.66 200.22 634.86 198.5 623.19C197.07 613 195.22 598.43 193.94 588.08C193.9 587.84 194.31 587.74 194.35 588.01H194.36Z" fill="#00124C"/>
<path d="M197.56 708.77C201.13 708.77 204.02 704.24 204.02 698.66C204.02 693.08 201.13 688.55 197.56 688.55C193.99 688.55 191.1 693.08 191.1 698.66C191.1 704.24 193.99 708.77 197.56 708.77Z" fill="#FF9FDA"/>
<path d="M173.91 691.63C189.56 700.22 205.64 700.4 221.23 691.63C221.33 691.56 221.5 691.56 221.57 691.69C221.61 691.77 221.6 691.86 221.54 691.93C212.46 702.03 196.85 705.2 184.5 699.61C180.36 697.88 176.72 695.13 173.61 691.93C173.44 691.73 173.68 691.46 173.91 691.63V691.63Z" fill="#00124C"/>
<path d="M171.64 695.06C171.47 692.06 173.1 689.22 175.73 687.8C175.79 687.76 175.89 687.79 175.86 687.87C174.9 689.71 172.85 693.34 171.77 695.13C171.73 695.2 171.63 695.13 171.64 695.06Z" fill="#00124C"/>
<path d="M219.84 689.33C222.29 690.12 223.83 692.51 223.59 695.06C223.59 695.13 223.53 695.2 223.48 695.13C222.49 693.74 220.61 690.86 219.73 689.4C219.69 689.33 219.79 689.29 219.84 689.33Z" fill="#00124C"/>
<path d="M172.34 628.02C172.34 628.02 172.37 627.99 172.37 627.98C172.36 627.98 172.34 627.98 172.33 628.01C164.13 616.75 144.74 616.66 136.58 628.01C136.57 628.01 136.55 628.01 136.54 628C136.54 628 136.57 628.03 136.57 628.04C136.57 628.04 136.54 628.07 136.54 628.08C136.55 628.08 136.57 628.08 136.58 628.05C144.78 639.31 164.17 639.4 172.33 628.05C172.34 628.05 172.36 628.05 172.37 628.06C172.37 628.06 172.34 628.03 172.34 628.02ZM136.62 628.02C148.04 622.3 160.87 622.35 172.3 628.02C160.88 633.74 148.05 633.69 136.62 628.02Z" fill="#00124C" stroke="url(#paint11_linear_658_4422)" stroke-miterlimit="10"/>
<path d="M154.1 623.75C151.74 623.75 149.83 625.66 149.83 628.02C149.83 630.38 151.74 632.29 154.1 632.29C156.46 632.29 158.37 630.38 158.37 628.02C158.37 625.66 156.46 623.75 154.1 623.75ZM153.41 628.32C152.65 628.32 152.02 627.7 152.02 626.93C152.02 626.16 152.64 625.54 153.41 625.54C154.18 625.54 154.8 626.16 154.8 626.93C154.8 627.7 154.18 628.32 153.41 628.32ZM155.07 630.14C154.73 630.14 154.46 629.87 154.46 629.53C154.46 629.19 154.73 628.92 155.07 628.92C155.41 628.92 155.68 629.19 155.68 629.53C155.68 629.87 155.41 630.14 155.07 630.14Z" fill="#00124C"/>
<path d="M247.24 627.98C247.24 627.98 247.27 627.95 247.27 627.94C247.26 627.94 247.24 627.94 247.23 627.97C239.03 616.71 219.64 616.62 211.48 627.97C211.47 627.97 211.45 627.97 211.44 627.96C211.44 627.96 211.47 627.99 211.47 628C211.47 628 211.44 628.03 211.44 628.04C211.45 628.04 211.47 628.04 211.48 628.01C219.68 639.27 239.07 639.36 247.23 628.01C247.24 628.01 247.26 628.01 247.27 628.02C247.27 628.02 247.24 627.99 247.24 627.98ZM211.52 627.98C222.94 622.26 235.77 622.31 247.2 627.98C235.78 633.7 222.95 633.65 211.52 627.98Z" fill="#00124C" stroke="url(#paint12_linear_658_4422)" stroke-miterlimit="10"/>
<path d="M229.02 623.7C226.66 623.7 224.75 625.61 224.75 627.97C224.75 630.33 226.66 632.24 229.02 632.24C231.38 632.24 233.29 630.33 233.29 627.97C233.29 625.61 231.38 623.7 229.02 623.7ZM228.33 628.27C227.57 628.27 226.94 627.65 226.94 626.88C226.94 626.11 227.56 625.49 228.33 625.49C229.1 625.49 229.72 626.11 229.72 626.88C229.72 627.65 229.1 628.27 228.33 628.27ZM229.99 630.09C229.65 630.09 229.38 629.82 229.38 629.48C229.38 629.14 229.65 628.87 229.99 628.87C230.33 628.87 230.6 629.14 230.6 629.48C230.6 629.82 230.33 630.09 229.99 630.09Z" fill="#00124C"/>
<path d="M118.96 531.57V622.42H126.7V623.41C126.87 623.41 144.27 623.25 156.32 609.31C166.26 597.81 169.83 580.51 166.96 557.86C178.73 592.22 208.18 617.63 244.04 624.15L266.91 628.31V531.56H118.96V531.57Z" fill="#FFF983"/>
<path d="M105.48 510.9C82.56 541.1 88.76 579.5 105.48 620.85H114.84V622.05C115.05 622.05 136.09 621.85 150.69 604.99C162.73 591.07 167.03 570.13 163.56 542.73C177.81 584.31 213.44 615.06 256.86 622.95L284.54 627.97C303.13 586.58 305.72 547.22 284.54 510.89C174.78 451.63 174.98 469.82 105.49 510.89H105.48V510.9ZM149.79 604.18C138.29 617.49 122.66 620.17 117 620.7C126.21 617.21 161.89 600.12 162.58 544.58C165.62 570.78 161.34 590.82 149.78 604.18H149.79Z" fill="#FE40B4"/>
<path d="M115.38 653.11C115.41 653.03 115.42 652.93 115.38 652.91C115.45 652.98 114.62 653.7 114.45 654.1C111.88 657.79 114.18 661.75 115.37 665.6C110.11 663.39 108.1 654.57 114.63 652.68C115.04 652.55 116 652.68 115.37 653.1H115.38V653.11Z" fill="#00124C"/>
<path d="M272.08 665.08C272.05 665.16 272.04 665.26 272.08 665.28C272.01 665.21 272.84 664.49 273.01 664.09C275.58 660.4 273.28 656.44 272.09 652.59C277.35 654.8 279.36 663.62 272.83 665.51C272.42 665.64 271.46 665.51 272.09 665.09H272.08V665.08Z" fill="#00124C"/>
<path d="M337.5 532.6C330.44 532.6 324.69 538.25 324.62 545.25L265.43 545.55L312.35 506.85C314.7 509.31 318.02 510.85 321.7 510.85C328.82 510.85 334.58 505.12 334.58 498.05C334.58 490.98 328.81 485.25 321.7 485.25C314.59 485.25 308.81 490.98 308.81 498.05C308.81 499.51 309.06 500.92 309.52 502.23L252.43 523.2L282.36 472.33C283.99 473.07 285.81 473.49 287.72 473.49C294.84 473.49 300.6 467.76 300.6 460.69C300.6 453.62 294.83 447.89 287.72 447.89C280.61 447.89 274.83 453.62 274.83 460.69C274.83 463.7 275.87 466.45 277.62 468.64L232.52 506.61L243.35 447.4C244.13 447.55 244.92 447.62 245.73 447.62C252.85 447.62 258.61 441.89 258.61 434.82C258.61 427.75 252.84 422.02 245.73 422.02C238.62 422.02 232.84 427.75 232.84 434.82C232.84 439.13 234.99 442.94 238.27 445.26L208.09 497.78L197.77 437.83C203.61 436.61 207.99 431.47 207.99 425.31C207.99 418.24 202.22 412.51 195.1 412.51C187.98 412.51 182.22 418.24 182.22 425.31C182.22 431.47 186.6 436.61 192.44 437.83L182.12 497.78L152.22 445.73C155.62 443.43 157.84 439.56 157.84 435.16C157.84 428.09 152.07 422.36 144.96 422.36C137.85 422.36 132.07 428.09 132.07 435.16C132.07 442.23 137.84 447.96 144.96 447.96C145.64 447.96 146.31 447.91 146.95 447.81L157.71 506.61L112.16 468.27C113.7 466.16 114.62 463.57 114.62 460.76C114.62 453.69 108.85 447.96 101.74 447.96C94.63 447.96 88.85 453.69 88.85 460.76C88.85 467.83 94.62 473.56 101.74 473.56C103.9 473.56 105.95 473.03 107.74 472.09L137.81 523.2L80.48 502.15C81.18 500.57 81.57 498.84 81.57 497.01C81.57 489.95 75.8 484.21 68.68 484.21C61.56 484.21 55.79 489.94 55.79 497.01C55.79 504.08 61.56 509.81 68.68 509.81C72.04 509.81 75.1 508.53 77.39 506.43L124.82 545.55L65.38 545.25C65.18 538.36 59.5 532.83 52.5 532.83C45.5 532.83 39.61 538.56 39.61 545.63C39.61 552.7 45.38 558.43 52.5 558.43C57.68 558.43 62.14 555.39 64.2 551.01L120.29 570.96C134.16 543.98 162.4 525.51 195 525.51C227.6 525.51 255.84 543.99 269.71 570.96H269.93L325.93 551.04C328.03 555.27 332.42 558.18 337.5 558.18C344.62 558.18 350.39 552.45 350.39 545.38C350.39 538.31 344.62 532.58 337.5 532.58V532.6Z" fill="#FDF001"/>
<path d="M337.44 551.79C341 551.79 343.88 548.93 343.88 545.39C343.88 541.85 341 538.99 337.44 538.99C333.88 538.99 331 541.85 331 545.39C331 548.93 333.88 551.79 337.44 551.79Z" fill="#FE40B4" stroke="#00124C" stroke-miterlimit="10"/>
<path d="M321.64 504.46C325.2 504.46 328.08 501.6 328.08 498.06C328.08 494.52 325.2 491.66 321.64 491.66C318.08 491.66 315.2 494.52 315.2 498.06C315.2 501.6 318.08 504.46 321.64 504.46Z" fill="#FE40B4" stroke="#00124C" stroke-miterlimit="10"/>
<path d="M287.67 467.11C291.23 467.11 294.11 464.25 294.11 460.71C294.11 457.17 291.23 454.31 287.67 454.31C284.11 454.31 281.23 457.17 281.23 460.71C281.23 464.25 284.11 467.11 287.67 467.11Z" fill="#FE40B4" stroke="#00124C" stroke-miterlimit="10"/>
<path d="M245.69 441.24C249.25 441.24 252.13 438.38 252.13 434.84C252.13 431.3 249.25 428.44 245.69 428.44C242.13 428.44 239.25 431.3 239.25 434.84C239.25 438.38 242.13 441.24 245.69 441.24Z" fill="#FE40B4" stroke="#00124C" stroke-miterlimit="10"/>
<path d="M195.08 431.73C198.64 431.73 201.52 428.87 201.52 425.33C201.52 421.79 198.64 418.93 195.08 418.93C191.52 418.93 188.64 421.79 188.64 425.33C188.64 428.87 191.52 431.73 195.08 431.73Z" fill="#FE40B4" stroke="#00124C" stroke-miterlimit="10"/>
<path d="M144.92 441.58C148.48 441.58 151.36 438.72 151.36 435.18C151.36 431.64 148.48 428.78 144.92 428.78C141.36 428.78 138.48 431.64 138.48 435.18C138.48 438.72 141.36 441.58 144.92 441.58Z" fill="#FE40B4" stroke="#00124C" stroke-miterlimit="10"/>
<path d="M101.7 467.17C105.26 467.17 108.14 464.31 108.14 460.77C108.14 457.23 105.26 454.37 101.7 454.37C98.14 454.37 95.26 457.23 95.26 460.77C95.26 464.31 98.14 467.17 101.7 467.17Z" fill="#FE40B4" stroke="#00124C" stroke-miterlimit="10"/>
<path d="M68.6399 503.42C72.1999 503.42 75.08 500.56 75.08 497.02C75.08 493.48 72.1999 490.62 68.6399 490.62C65.0799 490.62 62.2 493.48 62.2 497.02C62.2 500.56 65.0799 503.42 68.6399 503.42Z" fill="#FE40B4" stroke="#00124C" stroke-miterlimit="10"/>
<path d="M52.47 552.02C56.03 552.02 58.91 549.16 58.91 545.62C58.91 542.08 56.03 539.22 52.47 539.22C48.91 539.22 46.03 542.08 46.03 545.62C46.03 549.16 48.91 552.02 52.47 552.02Z" fill="#FE40B4" stroke="#00124C" stroke-miterlimit="10"/>
</g>
<path d="M306.55 235.67C318.92 234.02 326.91 225.02 330.97 208.94C335.06 226.5 343.2 233.97 356.44 232.11C342.87 234.38 334.13 242.35 332.02 258.84C329.24 240 319.29 233.62 306.55 235.67V235.67Z" fill="#FDF001"/>
<path d="M293 205.39C300.21 204.6 304.98 199.49 307.56 190.2C309.69 200.46 314.32 204.91 322.04 204.01C314.12 205.14 308.94 209.65 307.48 219.2C306.12 208.22 300.43 204.37 293 205.39Z" fill="#FDF001"/>
<path d="M339.86 190.66C345.39 190.06 349.05 186.13 351.03 179C352.67 186.87 356.22 190.29 362.14 189.6C356.07 190.47 352.08 193.93 350.97 201.26C349.93 192.83 345.56 189.88 339.86 190.66V190.66Z" fill="#FDF001"/>
<path d="M52.07 455.03C42.66 453.51 35.3 458.23 33.25 472.15C31.69 459.97 25.23 454.08 15.2 452.4C24.98 453.78 31 448.26 34.02 435.28C37.02 447.17 42.9299 453.81 52.07 455.03V455.03Z" fill="#FDF001"/>
<path d="M62.09 432.66C56.6 431.91 52.39 434.75 51.39 442.87C50.32 435.81 46.48 432.48 40.63 431.65C46.33 432.31 49.75 429.02 51.33 421.44C53.24 428.3 56.76 432.08 62.09 432.66V432.66Z" fill="#FDF001"/>
<path d="M27.46 421.77C23.25 421.19 20.02 423.38 19.25 429.6C18.43 424.18 15.48 421.63 11 420.99C15.38 421.5 18 418.98 19.21 413.16C20.67 418.43 23.38 421.33 27.46 421.77Z" fill="#FDF001"/>
</g>
<defs>
<linearGradient id="paint0_linear_658_4422" x1="161.39" y1="709.63" x2="224.59" y2="-14.44" gradientUnits="userSpaceOnUse">
<stop stop-color="#FE40B4"/>
<stop offset="0.21" stop-color="#FE4DB9"/>
<stop offset="0.6" stop-color="#FE72C8"/>
<stop offset="1" stop-color="#FF9FDA"/>
</linearGradient>
<linearGradient id="paint1_linear_658_4422" x1="186.53" y1="506.52" x2="199.75" y2="722.12" gradientUnits="userSpaceOnUse">
<stop stop-color="#FA4E8F"/>
<stop offset="0.04" stop-color="#FA5795"/>
<stop offset="0.18" stop-color="#FC77AA"/>
<stop offset="0.32" stop-color="#FD90BA"/>
<stop offset="0.48" stop-color="#FEA2C6"/>
<stop offset="0.64" stop-color="#FEADCD"/>
<stop offset="0.82" stop-color="#FFB1D0"/>
</linearGradient>
<linearGradient id="paint2_linear_658_4422" x1="251.6" y1="660.06" x2="286.26" y2="660.06" gradientUnits="userSpaceOnUse">
<stop stop-color="#00124C"/>
<stop offset="0.36" stop-color="#001559"/>
<stop offset="1" stop-color="#001E7D"/>
</linearGradient>
<linearGradient id="paint3_linear_658_4422" x1="268.46" y1="677.19" x2="270.95" y2="677.19" gradientUnits="userSpaceOnUse">
<stop stop-color="#00124C"/>
<stop offset="0.36" stop-color="#001559"/>
<stop offset="1" stop-color="#001E7D"/>
</linearGradient>
<linearGradient id="paint4_linear_658_4422" x1="272.82" y1="676.57" x2="275.86" y2="676.57" gradientUnits="userSpaceOnUse">
<stop stop-color="#00124C"/>
<stop offset="0.36" stop-color="#001559"/>
<stop offset="1" stop-color="#001E7D"/>
</linearGradient>
<linearGradient id="paint5_linear_658_4422" x1="276.71" y1="674.52" x2="279.81" y2="674.52" gradientUnits="userSpaceOnUse">
<stop stop-color="#00124C"/>
<stop offset="0.36" stop-color="#001559"/>
<stop offset="1" stop-color="#001E7D"/>
</linearGradient>
<linearGradient id="paint6_linear_658_4422" x1="102.01" y1="660.01" x2="136.65" y2="660.01" gradientUnits="userSpaceOnUse">
<stop stop-color="#00124C"/>
<stop offset="0.36" stop-color="#001559"/>
<stop offset="1" stop-color="#001E7D"/>
</linearGradient>
<linearGradient id="paint7_linear_658_4422" x1="104.63" y1="673.01" x2="109.08" y2="673.01" gradientUnits="userSpaceOnUse">
<stop stop-color="#00124C"/>
<stop offset="0.36" stop-color="#001559"/>
<stop offset="1" stop-color="#001E7D"/>
</linearGradient>
<linearGradient id="paint8_linear_658_4422" x1="107.94" y1="674.41" x2="112.41" y2="674.41" gradientUnits="userSpaceOnUse">
<stop stop-color="#00124C"/>
<stop offset="0.36" stop-color="#001559"/>
<stop offset="1" stop-color="#001E7D"/>
</linearGradient>
<linearGradient id="paint9_linear_658_4422" x1="112.34" y1="675.86" x2="115.09" y2="675.86" gradientUnits="userSpaceOnUse">
<stop stop-color="#00124C"/>
<stop offset="0.36" stop-color="#001559"/>
<stop offset="1" stop-color="#001E7D"/>
</linearGradient>
<linearGradient id="paint10_linear_658_4422" x1="183.98" y1="731.08" x2="201.91" y2="525.55" gradientUnits="userSpaceOnUse">
<stop stop-color="#00124C"/>
<stop offset="0.36" stop-color="#001559"/>
<stop offset="1" stop-color="#001E7D"/>
</linearGradient>
<linearGradient id="paint11_linear_658_4422" x1="153.67" y1="637.05" x2="155.24" y2="619" gradientUnits="userSpaceOnUse">
<stop stop-color="#00124C"/>
<stop offset="0.36" stop-color="#001559"/>
<stop offset="1" stop-color="#001E7D"/>
</linearGradient>
<linearGradient id="paint12_linear_658_4422" x1="228.57" y1="637.01" x2="230.15" y2="618.96" gradientUnits="userSpaceOnUse">
<stop stop-color="#00124C"/>
<stop offset="0.36" stop-color="#001559"/>
<stop offset="1" stop-color="#001E7D"/>
</linearGradient>
<clipPath id="clip0_658_4422">
<rect width="390" height="844" fill="white"/>
</clipPath>
<clipPath id="clip1_658_4422">
<rect width="390" height="844" fill="white"/>
</clipPath>
</defs>
</svg>
