<svg width="390" height="844" viewBox="0 0 390 844" fill="none" xmlns="http://www.w3.org/2000/svg">
<g clip-path="url(#clip0_652_3015)">
<path d="M390 0H0V121.71C0.55 122.23 1.1 122.76 1.65 123.29C9.68 140.14 14.63 158.72 12.63 182.23C11.3 197.78 6.49 212.88 0 227.63V230.68C7.05 215.07 12.34 199.05 13.75 182.44C15.66 160.02 11.4 142.07 4.2 125.86C13.78 135.78 22.06 147.91 27.29 168.08C34.1 194.35 19.24 220.01 0 246.41V642.2C4.34 652.97 10.1 663.38 17.74 673.26C24.47 681.97 32.2 688.41 40.57 692.98C24.94 689.02 11.13 680.88 0 668.89V670.9C12.67 684.26 28.7 692.77 46.85 695.98C71.91 706.56 101.79 702.15 128.35 691.35C170.6 674.18 215.2 675.22 257.61 691.58C275.23 698.37 295.94 704.25 317.09 700.37C343.7 697.54 371.25 678.46 390 649.23V646.81C375.99 669.21 356.77 685.74 336.7 693.73C343.01 690.53 349.29 686.22 355.45 680.57C373.34 664.19 384.02 646.28 390 627.4V509.23C385.35 474.41 381.34 439.77 390 407.85V0Z" fill="url(#paint0_linear_652_3015)"/>
<path d="M390 783.98V844H0V792.07C45.57 753.32 95.02 764.55 95.02 764.55C194.49 809.78 289.75 764.55 289.75 764.55C335.3 755.89 367.64 767.33 390 783.98Z" fill="#00124C"/>
<path d="M288.04 663.6C290.23 654.4 284.54 645.18 275.34 642.99C266.14 640.81 256.91 646.49 254.72 655.68C252.53 664.87 258.22 674.1 267.42 676.28C276.62 678.47 285.85 672.78 288.04 663.59V663.6Z" fill="#FDF001" stroke="url(#paint1_linear_652_3015)" stroke-width="0.5" stroke-miterlimit="10"/>
<path d="M271.38 674.29C271.99 674.49 272.36 674.7 272.46 675.34L272.86 676.6C272.99 677.01 273.34 678.09 273.47 678.49C273.33 678.76 273.2 679.04 273 679.34C272.66 679.21 272.4 679.07 272.14 678.93C272.01 678.53 271.67 677.46 271.53 677.04L271.13 675.78C270.83 675.21 271 674.82 271.4 674.3H271.39L271.38 674.29Z" fill="#FE40B4"/>
<path d="M275.62 673.29C276.32 673.5 276.71 673.8 276.87 674.48L277.48 675.94C277.68 676.42 278.2 677.67 278.39 678.14C278.29 678.47 278.21 678.79 278.05 679.13C277.7 678.99 277.4 678.83 277.1 678.66C276.9 678.21 276.39 676.94 276.19 676.46L275.58 675C275.21 674.4 275.28 673.91 275.62 673.27V673.29Z" fill="#FE40B4"/>
<path d="M279.45 672.08C280.06 672.09 280.47 672.17 280.7 672.73L281.35 673.76C281.56 674.1 282.13 674.98 282.33 675.31C282.26 675.59 282.19 675.88 282.06 676.2C281.72 676.17 281.44 676.11 281.14 676.06C280.93 675.73 280.37 674.84 280.16 674.52L279.51 673.49C279.1 673.04 279.2 672.64 279.45 672.09V672.08Z" fill="#FE40B4"/>
<path d="M133.49 671.7C140.18 665.02 140.18 654.18 133.49 647.5C126.8 640.82 115.96 640.82 109.27 647.5C102.58 654.18 102.58 665.02 109.27 671.7C115.96 678.38 126.8 678.38 133.49 671.7Z" fill="#FDF001" stroke="url(#paint2_linear_652_3015)" stroke-width="0.5" stroke-miterlimit="10"/>
<path d="M111.07 670.27C111.15 670.99 111.04 671.49 110.47 671.93L109.36 673.11C108.99 673.49 108.05 674.5 107.7 674.88C107.36 674.94 107.02 674.99 106.64 674.99C106.63 674.61 106.64 674.27 106.68 673.93C107.02 673.56 107.97 672.54 108.34 672.16L109.45 670.98C109.85 670.4 110.34 670.24 111.07 670.29V670.27Z" fill="#FE40B4"/>
<path d="M110 676.72C109.89 675.95 110.01 675.43 110.57 674.93L111.68 673.58C112.05 673.14 112.99 671.99 113.34 671.55C113.7 671.47 114.04 671.37 114.43 671.32C114.46 671.72 114.43 672.07 114.43 672.44C114.09 672.86 113.14 674.01 112.77 674.47L111.66 675.82C111.28 676.46 110.78 676.68 110.01 676.73H110V676.72Z" fill="#FE40B4"/>
<path d="M114.73 678.34C114.35 677.74 114.23 677.29 114.56 676.68L115.06 675.25C115.23 674.78 115.64 673.56 115.8 673.11C116.08 672.94 116.37 672.77 116.71 672.63C116.9 672.96 117.01 673.27 117.12 673.58C116.96 674.03 116.54 675.25 116.38 675.72L115.88 677.15C115.77 677.82 115.38 678.11 114.72 678.36H114.73V678.34Z" fill="#FE40B4"/>
<path d="M292.59 764.56C292.59 764.56 283.92 788.22 260.62 806.85C245.52 818.94 224.24 828.9 195.22 828.9C166.2 828.9 144.92 818.95 129.81 806.85C106.51 788.22 97.86 764.56 97.86 764.56C123.43 765.48 140.9 754.21 152.67 740.17C153.61 739.04 154.53 737.89 155.39 736.72C171.41 715.54 175.58 690.01 175.58 690.01H214.84C214.84 690.01 219.01 715.54 235.03 736.72C235.88 737.88 236.8 739.03 237.75 740.17C249.54 754.21 267.01 765.48 292.58 764.56H292.59Z" fill="#3E4BF6"/>
<path d="M292.59 764.56C292.59 764.56 283.92 788.22 260.62 806.85C245.52 818.94 224.24 828.9 195.22 828.9C166.2 828.9 144.92 818.95 129.81 806.85C106.51 788.22 97.86 764.56 97.86 764.56C123.43 765.48 140.9 754.21 152.67 740.17C153.61 739.04 154.53 737.89 155.39 736.72C171.41 715.54 175.58 690.01 175.58 690.01H214.84C214.84 690.01 219.01 715.54 235.03 736.72C235.88 737.88 236.8 739.03 237.75 740.17C249.54 754.21 267.01 765.48 292.58 764.56H292.59Z" fill="#001E7D"/>
<path d="M235.05 736.73C223.54 744.06 209.88 748.3 195.24 748.3C180.6 748.3 166.92 744.05 155.41 736.73C171.43 715.55 175.6 690.02 175.6 690.02H214.86C214.86 690.02 219.03 715.55 235.05 736.73Z" fill="#00124C"/>
<path d="M269.42 599C269.42 558.05 236.2 524.85 195.22 524.85C154.24 524.85 121.02 558.05 121.02 599V656.67C121.02 697.62 154.24 730.82 195.22 730.82C236.2 730.82 269.42 697.62 269.42 656.67V599Z" fill="url(#paint3_linear_652_3015)"/>
<path d="M269.42 599C269.42 558.05 236.2 524.85 195.22 524.85C154.24 524.85 121.02 558.05 121.02 599V656.67C121.02 697.62 154.24 730.82 195.22 730.82C236.2 730.82 269.42 697.62 269.42 656.67V599Z" fill="#FDF001" stroke="url(#paint4_linear_652_3015)" stroke-miterlimit="10"/>
<path d="M157.49 682.24C162.56 677.18 162.56 668.97 157.49 663.91C152.43 658.85 144.21 658.85 139.15 663.91C134.09 668.97 134.09 677.17 139.15 682.24C144.22 687.3 152.43 687.3 157.49 682.24Z" fill="#FE40B4"/>
<path d="M254.79 682.9C259.93 677.91 260.04 669.71 255.05 664.58C250.06 659.45 241.85 659.33 236.71 664.32C231.57 669.31 231.46 677.51 236.45 682.64C241.44 687.77 249.65 687.89 254.79 682.9Z" fill="#FE40B4"/>
<path d="M196.64 587.44C200.21 604.3 203.71 622.84 207.13 639.61C208.39 645.47 209.24 651.39 209.88 657.35C210.01 658.41 209.1 659.36 208.02 659.29C205.3 659.13 202.57 658.94 199.85 658.68C197.13 658.41 194.4 658.1 191.68 657.64C191.45 657.6 191.45 657.26 191.68 657.22C197.1 656.34 202.55 655.9 208.03 655.57L206.2 657.73C203.48 646.2 202.52 634.38 200.81 622.68C199.38 612.47 197.52 597.87 196.24 587.49C196.2 587.25 196.61 587.15 196.65 587.42L196.64 587.44Z" fill="#00124C"/>
<path d="M199.85 708.46C203.43 708.46 206.34 703.92 206.34 698.32C206.34 692.72 203.44 688.18 199.85 688.18C196.26 688.18 193.37 692.72 193.37 698.32C193.37 703.92 196.27 708.46 199.85 708.46Z" fill="#FF9FDA"/>
<path d="M176.12 691.29C191.81 699.9 207.95 700.08 223.58 691.29C223.68 691.22 223.85 691.22 223.92 691.35C223.96 691.44 223.95 691.52 223.89 691.59C214.78 701.71 199.13 704.89 186.74 699.29C182.58 697.56 178.93 694.8 175.81 691.59C175.64 691.39 175.88 691.12 176.11 691.29H176.12Z" fill="#00124C"/>
<path d="M173.85 694.72C173.68 691.71 175.31 688.87 177.95 687.45C178.01 687.41 178.11 687.44 178.08 687.52C177.12 689.36 175.06 693.01 173.98 694.79C173.94 694.86 173.84 694.79 173.85 694.72Z" fill="#00124C"/>
<path d="M222.2 688.98C224.65 689.77 226.2 692.17 225.96 694.72C225.96 694.79 225.9 694.86 225.85 694.79C224.86 693.4 222.97 690.51 222.09 689.05C222.05 688.98 222.15 688.94 222.2 688.98Z" fill="#00124C"/>
<path d="M174.55 627.54C174.55 627.54 174.58 627.51 174.58 627.5C174.57 627.5 174.55 627.5 174.54 627.53C166.31 616.25 146.87 616.16 138.68 627.53C138.67 627.53 138.65 627.53 138.64 627.52C138.64 627.52 138.67 627.55 138.67 627.56C138.67 627.56 138.64 627.59 138.64 627.6C138.65 627.6 138.67 627.6 138.68 627.57C146.91 638.85 166.35 638.94 174.54 627.57C174.55 627.57 174.57 627.57 174.58 627.58C174.58 627.58 174.55 627.55 174.55 627.54ZM138.72 627.54C150.17 621.81 163.04 621.86 174.51 627.54C163.06 633.27 150.19 633.22 138.72 627.54Z" fill="#00124C" stroke="url(#paint5_linear_652_3015)" stroke-miterlimit="10"/>
<path d="M156.26 623.26C153.89 623.26 151.98 625.17 151.98 627.54C151.98 629.91 153.89 631.82 156.26 631.82C158.63 631.82 160.55 629.91 160.55 627.54C160.55 625.17 158.63 623.26 156.26 623.26ZM155.56 627.84C154.79 627.84 154.17 627.22 154.17 626.45C154.17 625.68 154.79 625.06 155.56 625.06C156.33 625.06 156.95 625.68 156.95 626.45C156.95 627.22 156.33 627.84 155.56 627.84ZM157.22 629.67C156.88 629.67 156.61 629.4 156.61 629.06C156.61 628.72 156.88 628.45 157.22 628.45C157.56 628.45 157.83 628.72 157.83 629.06C157.83 629.4 157.56 629.67 157.22 629.67Z" fill="#00124C"/>
<path d="M249.68 627.49C249.68 627.49 249.71 627.46 249.71 627.45C249.7 627.45 249.68 627.45 249.67 627.48C241.44 616.19 222 616.11 213.81 627.48C213.8 627.48 213.78 627.48 213.77 627.47C213.77 627.47 213.8 627.5 213.8 627.51C213.8 627.51 213.77 627.54 213.77 627.55C213.78 627.55 213.8 627.55 213.81 627.52C222.04 638.81 241.48 638.89 249.67 627.52C249.68 627.52 249.7 627.52 249.71 627.53C249.71 627.53 249.68 627.5 249.68 627.49ZM213.85 627.49C225.3 621.76 238.17 621.8 249.64 627.49C238.19 633.22 225.32 633.17 213.85 627.49Z" fill="#00124C" stroke="url(#paint6_linear_652_3015)" stroke-miterlimit="10"/>
<path d="M231.41 623.21C229.04 623.21 227.12 625.12 227.12 627.49C227.12 629.86 229.04 631.77 231.41 631.77C233.78 631.77 235.69 629.86 235.69 627.49C235.69 625.12 233.78 623.21 231.41 623.21ZM230.71 627.79C229.94 627.79 229.32 627.17 229.32 626.4C229.32 625.63 229.94 625.01 230.71 625.01C231.48 625.01 232.1 625.63 232.1 626.4C232.1 627.17 231.48 627.79 230.71 627.79ZM232.37 629.62C232.03 629.62 231.76 629.35 231.76 629.01C231.76 628.67 232.03 628.4 232.37 628.4C232.71 628.4 232.98 628.67 232.98 629.01C232.98 629.35 232.71 629.62 232.37 629.62Z" fill="#00124C"/>
<path d="M121.01 530.87V621.92H128.77V622.91C128.94 622.91 146.39 622.75 158.48 608.77C168.45 597.24 172.03 579.91 169.15 557.21C180.95 591.65 210.5 617.11 246.47 623.65L269.41 627.82V530.86H121.01V530.87Z" fill="#FFF983"/>
<path d="M107.49 510.16C84.5 540.43 90.72 578.91 107.49 620.35H116.88V621.55C117.09 621.55 138.19 621.35 152.83 604.45C164.9 590.5 169.22 569.52 165.74 542.05C180.03 583.72 215.77 614.54 259.32 622.45L287.09 627.48C305.73 586 308.33 546.55 287.09 510.15C177 450.76 177.19 468.99 107.5 510.15H107.49V510.16ZM151.93 603.65C140.39 616.99 124.71 619.67 119.04 620.21C128.28 616.71 164.06 599.58 164.76 543.92C167.81 570.18 163.51 590.27 151.92 603.65H151.93Z" fill="#00124C"/>
<path d="M208.18 566.29C208.53 565.26 207.96 564.13 206.9 563.78C205.84 563.43 204.71 563.97 204.36 565.01C204.01 566.04 204.59 567.16 205.64 567.52C206.69 567.87 207.83 567.33 208.18 566.3V566.29Z" fill="#00124C"/>
<path d="M339.37 533.33C332.28 533.33 326.52 538.99 326.45 546.01L267.06 546.31L314.14 507.53C316.49 509.99 319.83 511.54 323.52 511.54C330.66 511.54 336.45 505.8 336.45 498.72C336.45 491.64 330.66 485.9 323.52 485.9C316.38 485.9 310.59 491.64 310.59 498.72C310.59 500.19 310.84 501.6 311.3 502.91L254.02 523.92L284.05 472.94C285.69 473.69 287.51 474.11 289.43 474.11C296.57 474.11 302.36 468.37 302.36 461.29C302.36 454.21 296.57 448.47 289.43 448.47C282.29 448.47 276.5 454.21 276.5 461.29C276.5 464.3 277.55 467.07 279.3 469.26L234.05 507.31L244.92 447.97C245.7 448.12 246.5 448.19 247.31 448.19C254.45 448.19 260.24 442.45 260.24 435.37C260.24 428.29 254.45 422.55 247.31 422.55C240.17 422.55 234.38 428.29 234.38 435.37C234.38 439.69 236.54 443.51 239.83 445.83L209.55 498.47L199.19 438.38C205.05 437.16 209.45 432 209.45 425.83C209.45 418.75 203.66 413.01 196.52 413.01C189.38 413.01 183.59 418.75 183.59 425.83C183.59 432 187.99 437.15 193.85 438.38L183.49 498.47L153.49 446.31C156.9 444 159.13 440.12 159.13 435.72C159.13 428.64 153.34 422.9 146.2 422.9C139.06 422.9 133.27 428.64 133.27 435.72C133.27 442.8 139.06 448.55 146.2 448.55C146.88 448.55 147.55 448.5 148.2 448.4L158.99 507.34L113.29 468.91C114.84 466.8 115.76 464.2 115.76 461.38C115.76 454.3 109.97 448.56 102.83 448.56C95.69 448.56 89.9 454.3 89.9 461.38C89.9 468.46 95.69 474.2 102.83 474.2C105 474.2 107.05 473.67 108.85 472.72L139.03 523.95L81.51 502.85C82.21 501.27 82.6 499.53 82.6 497.7C82.6 490.62 76.81 484.87 69.67 484.87C62.53 484.87 56.74 490.61 56.74 497.7C56.74 504.79 62.53 510.52 69.67 510.52C73.05 510.52 76.11 509.24 78.41 507.14L126 546.34L66.36 546.04C66.16 539.13 60.46 533.59 53.44 533.59C46.42 533.59 40.51 539.33 40.51 546.41C40.51 553.49 46.3 559.24 53.44 559.24C58.64 559.24 63.12 556.19 65.17 551.81L121.45 571.8C135.37 544.76 163.71 526.25 196.41 526.25C229.11 526.25 257.46 544.76 271.37 571.8H271.59L327.78 551.83C329.89 556.07 334.29 558.99 339.39 558.99C346.53 558.99 352.32 553.25 352.32 546.17C352.32 539.09 346.53 533.35 339.39 533.35L339.37 533.33Z" fill="#FDF001"/>
<path d="M339.31 552.57C342.88 552.57 345.77 549.7 345.77 546.16C345.77 542.62 342.88 539.75 339.31 539.75C335.74 539.75 332.85 542.62 332.85 546.16C332.85 549.7 335.74 552.57 339.31 552.57Z" fill="#FE40B4" stroke="#00124C" stroke-miterlimit="10"/>
<path d="M323.47 505.13C327.04 505.13 329.93 502.26 329.93 498.72C329.93 495.18 327.04 492.31 323.47 492.31C319.9 492.31 317.01 495.18 317.01 498.72C317.01 502.26 319.9 505.13 323.47 505.13Z" fill="#FE40B4" stroke="#00124C" stroke-miterlimit="10"/>
<path d="M289.38 467.7C292.95 467.7 295.84 464.83 295.84 461.29C295.84 457.75 292.95 454.88 289.38 454.88C285.81 454.88 282.92 457.75 282.92 461.29C282.92 464.83 285.81 467.7 289.38 467.7Z" fill="#FE40B4" stroke="#00124C" stroke-miterlimit="10"/>
<path d="M247.25 441.77C250.82 441.77 253.71 438.9 253.71 435.36C253.71 431.82 250.81 428.95 247.25 428.95C243.69 428.95 240.79 431.82 240.79 435.36C240.79 438.9 243.68 441.77 247.25 441.77Z" fill="#FE40B4" stroke="#00124C" stroke-miterlimit="10"/>
<path d="M196.47 432.24C200.04 432.24 202.93 429.37 202.93 425.83C202.93 422.29 200.04 419.42 196.47 419.42C192.9 419.42 190.01 422.29 190.01 425.83C190.01 429.37 192.9 432.24 196.47 432.24Z" fill="#FE40B4" stroke="#00124C" stroke-miterlimit="10"/>
<path d="M146.15 442.11C149.72 442.11 152.61 439.24 152.61 435.7C152.61 432.16 149.71 429.29 146.15 429.29C142.59 429.29 139.69 432.16 139.69 435.7C139.69 439.24 142.58 442.11 146.15 442.11Z" fill="#FE40B4" stroke="#00124C" stroke-miterlimit="10"/>
<path d="M102.77 467.76C106.34 467.76 109.23 464.89 109.23 461.35C109.23 457.81 106.34 454.94 102.77 454.94C99.2001 454.94 96.3101 457.81 96.3101 461.35C96.3101 464.89 99.2001 467.76 102.77 467.76Z" fill="#FE40B4" stroke="#00124C" stroke-miterlimit="10"/>
<path d="M69.6 504.08C73.17 504.08 76.06 501.21 76.06 497.67C76.06 494.13 73.17 491.26 69.6 491.26C66.03 491.26 63.14 494.13 63.14 497.67C63.14 501.21 66.03 504.08 69.6 504.08Z" fill="#FE40B4" stroke="#00124C" stroke-miterlimit="10"/>
<path d="M53.38 552.8C56.95 552.8 59.84 549.93 59.84 546.39C59.84 542.85 56.95 539.98 53.38 539.98C49.81 539.98 46.92 542.85 46.92 546.39C46.92 549.93 49.81 552.8 53.38 552.8Z" fill="#FE40B4" stroke="#00124C" stroke-miterlimit="10"/>
<path d="M117.42 652.69C117.45 652.6 117.46 652.51 117.42 652.49C117.49 652.56 116.65 653.28 116.48 653.68C113.9 657.38 116.21 661.35 117.4 665.21C112.12 663 110.11 654.15 116.66 652.27C117.07 652.14 118.04 652.27 117.4 652.69H117.41H117.42Z" fill="#00124C"/>
<path d="M274.6 664.68C274.57 664.77 274.56 664.86 274.6 664.88C274.53 664.81 275.37 664.09 275.54 663.69C278.12 659.99 275.81 656.02 274.62 652.16C279.9 654.37 281.91 663.22 275.36 665.1C274.95 665.23 273.98 665.1 274.62 664.67H274.6V664.68Z" fill="#00124C"/>
<path d="M306.55 235.67C318.92 234.02 326.91 225.02 330.97 208.94C335.06 226.5 343.2 233.97 356.44 232.11C342.87 234.38 334.13 242.35 332.02 258.84C329.24 240 319.29 233.62 306.55 235.67Z" fill="#FDF001"/>
<path d="M293 205.39C300.21 204.6 304.98 199.49 307.56 190.2C309.69 200.46 314.32 204.91 322.04 204.01C314.12 205.14 308.94 209.65 307.48 219.2C306.12 208.22 300.43 204.37 293 205.39Z" fill="#FDF001"/>
<path d="M339.86 190.66C345.39 190.06 349.05 186.13 351.03 179C352.67 186.87 356.22 190.29 362.14 189.6C356.07 190.47 352.08 193.93 350.97 201.26C349.93 192.83 345.56 189.88 339.86 190.66Z" fill="#FDF001"/>
<path d="M52.07 455.03C42.66 453.51 35.2999 458.23 33.25 472.15C31.69 459.97 25.23 454.08 15.2 452.4C24.98 453.78 31 448.26 34.02 435.28C37.02 447.17 42.93 453.81 52.07 455.03Z" fill="#FDF001"/>
<path d="M62.09 432.66C56.6 431.91 52.39 434.75 51.39 442.87C50.32 435.81 46.48 432.48 40.63 431.65C46.33 432.31 49.75 429.02 51.33 421.44C53.24 428.3 56.76 432.08 62.09 432.66Z" fill="#FDF001"/>
<path d="M27.46 421.77C23.25 421.19 20.02 423.38 19.25 429.6C18.43 424.18 15.48 421.63 11 420.99C15.38 421.5 18 418.98 19.21 413.16C20.67 418.43 23.38 421.33 27.46 421.77Z" fill="#FDF001"/>
</g>
<defs>
<linearGradient id="paint0_linear_652_3015" x1="161.4" y1="709.62" x2="224.59" y2="-14.44" gradientUnits="userSpaceOnUse">
<stop stop-color="#00124C"/>
<stop offset="0.36" stop-color="#001559"/>
<stop offset="1" stop-color="#001E7D"/>
</linearGradient>
<linearGradient id="paint1_linear_652_3015" x1="253.93" y1="659.64" x2="288.89" y2="659.64" gradientUnits="userSpaceOnUse">
<stop stop-color="#00124C"/>
<stop offset="0.36" stop-color="#001559"/>
<stop offset="1" stop-color="#001E7D"/>
</linearGradient>
<linearGradient id="paint2_linear_652_3015" x1="103.91" y1="659.6" x2="138.87" y2="659.6" gradientUnits="userSpaceOnUse">
<stop stop-color="#00124C"/>
<stop offset="0.36" stop-color="#001559"/>
<stop offset="1" stop-color="#001E7D"/>
</linearGradient>
<linearGradient id="paint3_linear_652_3015" x1="187.74" y1="505.76" x2="200.98" y2="721.87" gradientUnits="userSpaceOnUse">
<stop stop-color="#FA4E8F"/>
<stop offset="0.04" stop-color="#FA5795"/>
<stop offset="0.18" stop-color="#FC77AA"/>
<stop offset="0.32" stop-color="#FD90BA"/>
<stop offset="0.48" stop-color="#FEA2C6"/>
<stop offset="0.64" stop-color="#FEADCD"/>
<stop offset="0.82" stop-color="#FFB1D0"/>
</linearGradient>
<linearGradient id="paint4_linear_652_3015" x1="186.22" y1="731.03" x2="204.21" y2="524.63" gradientUnits="userSpaceOnUse">
<stop stop-color="#00124C"/>
<stop offset="0.36" stop-color="#001559"/>
<stop offset="1" stop-color="#001E7D"/>
</linearGradient>
<linearGradient id="paint5_linear_652_3015" x1="155.81" y1="636.78" x2="157.42" y2="618.29" gradientUnits="userSpaceOnUse">
<stop stop-color="#00124C"/>
<stop offset="0.36" stop-color="#001559"/>
<stop offset="1" stop-color="#001E7D"/>
</linearGradient>
<linearGradient id="paint6_linear_652_3015" x1="230.94" y1="636.73" x2="232.55" y2="618.25" gradientUnits="userSpaceOnUse">
<stop stop-color="#00124C"/>
<stop offset="0.36" stop-color="#001559"/>
<stop offset="1" stop-color="#001E7D"/>
</linearGradient>
<clipPath id="clip0_652_3015">
<rect width="390" height="844" fill="white"/>
</clipPath>
</defs>
</svg>
