<svg width="390" height="604" viewBox="0 0 390 604" fill="none" xmlns="http://www.w3.org/2000/svg">
<g clip-path="url(#clip0_630_3702)">
<path d="M373.83 89.69C371.63 78.25 369.56 67.45 368.96 57.59C365.96 8.38 389.35 0.29 389.59 0.21L389.41 -1C389.16 -0.92 383.21 1.05 377.57 9.3C368.16 23.05 367.24 43.21 368.12 57.7C368.73 67.67 370.81 78.52 373.02 90.02C377.2 111.78 381.83 135.89 379.06 163.79C376.51 137.85 367.66 115.12 359.85 87.73C342.53 27.02 371.26 -0.39 371.26 -0.39H-0.419922C9.20008 64.56 32.2001 74.38 50.0401 91.78C56.0401 104.38 59.7501 118.27 58.2501 135.84C56.2701 159.02 43.9301 180.85 31.9901 201.97C28.2201 208.65 24.5001 215.23 21.1401 221.76C4.75008 247.2 -4.41992 274.38 17.2201 305.14C18.1501 307.34 19.0601 309.39 19.9501 311.36C27.5601 328.4 33.0601 340.72 26.3801 403.39C22.4001 440.76 27.6701 471.46 41.6201 492.18C51.8601 507.38 66.5601 516.86 83.8301 519.91C102.57 527.82 124.9 524.52 144.76 516.45C176.35 503.61 209.69 504.39 241.39 516.62C254.57 521.7 270.05 526.09 285.86 523.19C307.78 520.86 330.56 503.78 344.45 478.04C355.97 456.7 366.77 419.86 352.84 365.52C345.16 335.54 343.28 311.96 344.7 292.15C345.47 290.38 346.3 288.63 347.21 286.89C374.61 234.2 381.53 198.75 379.41 168.21C383.15 138.26 378.24 112.67 373.82 89.68L373.83 89.69ZM32.6501 202.76C44.6601 181.51 57.0801 159.54 59.0901 136C60.5201 119.24 57.3301 105.82 51.9501 93.7C59.1101 101.11 65.3001 110.18 69.2101 125.26C76.8701 154.77 47.9301 183.26 26.2801 214.13C28.3401 210.37 30.4801 206.58 32.6401 202.76H32.6501ZM42.2301 491.32C28.4701 470.89 23.2901 440.56 27.2201 403.59C33.9401 340.45 28.3701 327.97 20.6601 310.7C20.3301 309.97 20.0001 309.23 19.6701 308.48C19.9001 308.78 20.1301 309.08 20.3601 309.38C60.4001 360.18 16.5001 443.99 62.0701 502.93C67.1001 509.44 72.8801 514.25 79.1401 517.67C64.1401 513.86 51.3701 504.91 42.2301 491.33V491.32ZM352.05 365.96C365.84 419.76 355.17 456.19 343.79 477.28C333.15 497 317.23 511.58 300.52 518.23C305.24 515.84 309.93 512.62 314.54 508.39C379.75 448.67 316.75 361.99 343.66 294.64C342.58 314.06 344.64 337.05 352.05 365.95V365.96Z" fill="url(#paint0_linear_630_3702)"/>
<path d="M29.6501 595.01H363.41C363.41 595.01 340.84 523.92 261.7 538.97C261.7 538.97 194.56 570.87 124.46 538.97C124.46 538.97 64.7901 525.41 29.6601 595.01H29.6501Z" fill="#00124C"/>
<path d="M260.496 467.766C262.038 461.28 258.03 454.773 251.544 453.232C245.059 451.69 238.552 455.698 237.011 462.183C235.469 468.669 239.477 475.176 245.962 476.717C252.448 478.259 258.955 474.251 260.496 467.766Z" fill="#FDF001" stroke="url(#paint1_linear_630_3702)" stroke-width="0.5" stroke-miterlimit="10"/>
<path d="M248.75 475.31C249.18 475.45 249.44 475.6 249.51 476.05L249.79 476.94C249.88 477.23 250.13 477.99 250.22 478.27C250.12 478.46 250.03 478.66 249.89 478.87C249.65 478.78 249.47 478.68 249.28 478.58C249.19 478.3 248.95 477.54 248.85 477.25L248.57 476.36C248.36 475.96 248.48 475.68 248.76 475.32L248.75 475.31Z" fill="#FE40B4"/>
<path d="M251.74 474.6C252.23 474.75 252.51 474.96 252.62 475.44L253.05 476.47C253.19 476.81 253.56 477.69 253.69 478.02C253.62 478.25 253.56 478.48 253.45 478.72C253.2 478.62 252.99 478.51 252.78 478.39C252.64 478.07 252.28 477.18 252.14 476.84L251.71 475.81C251.45 475.39 251.5 475.04 251.74 474.59V474.6Z" fill="#FE40B4"/>
<path d="M254.44 473.75C254.87 473.76 255.16 473.81 255.32 474.21L255.78 474.94C255.93 475.18 256.33 475.8 256.47 476.03C256.42 476.23 256.37 476.43 256.28 476.66C256.04 476.64 255.84 476.6 255.63 476.56C255.48 476.33 255.09 475.7 254.94 475.47L254.48 474.74C254.19 474.42 254.26 474.14 254.44 473.75Z" fill="#FE40B4"/>
<path d="M151.573 473.48C156.287 468.766 156.287 461.124 151.573 456.41C146.859 451.696 139.217 451.696 134.504 456.41C129.79 461.124 129.79 468.766 134.504 473.48C139.217 478.193 146.859 478.193 151.573 473.48Z" fill="#FDF001" stroke="url(#paint2_linear_630_3702)" stroke-width="0.5" stroke-miterlimit="10"/>
<path d="M135.77 472.47C135.83 472.98 135.75 473.33 135.35 473.64L134.57 474.47C134.31 474.74 133.65 475.45 133.4 475.72C133.16 475.76 132.92 475.8 132.65 475.8C132.64 475.53 132.65 475.29 132.68 475.05C132.92 474.79 133.59 474.07 133.85 473.8L134.63 472.97C134.91 472.56 135.26 472.45 135.77 472.48V472.47Z" fill="#FE40B4"/>
<path d="M135.02 477.02C134.94 476.48 135.03 476.11 135.42 475.76L136.2 474.81C136.46 474.5 137.12 473.69 137.37 473.38C137.62 473.32 137.86 473.25 138.14 473.22C138.16 473.5 138.14 473.75 138.14 474.01C137.9 474.31 137.23 475.12 136.97 475.44L136.19 476.39C135.92 476.84 135.57 477 135.03 477.03L135.02 477.02Z" fill="#FE40B4"/>
<path d="M138.35 478.16C138.08 477.74 138 477.42 138.23 476.99L138.58 475.98C138.7 475.65 138.99 474.79 139.1 474.47C139.3 474.35 139.5 474.23 139.74 474.13C139.87 474.36 139.95 474.58 140.03 474.8C139.92 475.12 139.62 475.98 139.51 476.31L139.16 477.32C139.08 477.79 138.81 478 138.34 478.17L138.35 478.16Z" fill="#FE40B4"/>
<path d="M263.7 538.98C263.7 538.98 257.59 555.67 241.17 568.81C230.53 577.34 215.53 584.36 195.08 584.36C174.63 584.36 159.63 577.34 148.98 568.81C132.56 555.67 126.46 538.98 126.46 538.98C144.48 539.63 156.79 531.68 165.09 521.78C165.75 520.98 166.4 520.17 167.01 519.35C178.3 504.41 181.24 486.4 181.24 486.4H208.91C208.91 486.4 211.85 504.41 223.14 519.35C223.74 520.17 224.39 520.98 225.06 521.78C233.37 531.68 245.68 539.63 263.7 538.98Z" fill="#3E4BF6"/>
<path d="M263.7 538.98C263.7 538.98 257.59 555.67 241.17 568.81C230.53 577.34 215.53 584.36 195.08 584.36C174.63 584.36 159.63 577.34 148.98 568.81C132.56 555.67 126.46 538.98 126.46 538.98C144.48 539.63 156.79 531.68 165.09 521.78C165.75 520.98 166.4 520.17 167.01 519.35C178.3 504.41 181.24 486.4 181.24 486.4H208.91C208.91 486.4 211.85 504.41 223.14 519.35C223.74 520.17 224.39 520.98 225.06 521.78C233.37 531.68 245.68 539.63 263.7 538.98Z" fill="#00124C"/>
<path d="M223.15 519.35C215.04 524.52 205.41 527.51 195.09 527.51C184.77 527.51 175.13 524.51 167.02 519.35C178.31 504.41 181.25 486.4 181.25 486.4H208.92C208.92 486.4 211.86 504.41 223.15 519.35Z" fill="#001E7D"/>
<path d="M247.37 422.2C247.37 393.316 223.957 369.9 195.075 369.9C166.194 369.9 142.78 393.316 142.78 422.2V462.88C142.78 491.764 166.194 515.18 195.075 515.18C223.957 515.18 247.37 491.764 247.37 462.88V422.2Z" fill="url(#paint3_linear_630_3702)"/>
<path d="M247.37 422.2C247.37 393.316 223.957 369.9 195.075 369.9C166.194 369.9 142.78 393.316 142.78 422.2V462.88C142.78 491.764 166.194 515.18 195.075 515.18C223.957 515.18 247.37 491.764 247.37 462.88V422.2Z" fill="#FDF001" stroke="url(#paint4_linear_630_3702)" stroke-miterlimit="10"/>
<path d="M168.487 480.917C172.056 477.348 172.056 471.561 168.487 467.991C164.917 464.422 159.13 464.422 155.561 467.991C151.991 471.561 151.991 477.348 155.561 480.917C159.13 484.487 164.917 484.487 168.487 480.917Z" fill="#FE40B4"/>
<path d="M237.063 481.377C240.683 477.859 240.766 472.073 237.248 468.453C233.73 464.832 227.943 464.75 224.323 468.268C220.703 471.786 220.62 477.572 224.138 481.192C227.656 484.812 233.443 484.895 237.063 481.377Z" fill="#FE40B4"/>
<path d="M196.08 414.05C198.6 425.94 201.06 439.02 203.47 450.85C204.36 454.98 204.96 459.16 205.41 463.36C205.5 464.11 204.86 464.78 204.1 464.73C202.18 464.62 200.26 464.48 198.34 464.3C196.42 464.11 194.5 463.89 192.58 463.57C192.42 463.54 192.42 463.3 192.58 463.27C196.4 462.65 200.24 462.34 204.1 462.11L202.81 463.63C200.89 455.5 200.22 447.16 199.01 438.91C198 431.71 196.69 421.41 195.79 414.09C195.76 413.92 196.05 413.85 196.08 414.04V414.05Z" fill="#00124C"/>
<path d="M198.42 498.89C200.944 498.89 202.99 495.689 202.99 491.74C202.99 487.791 200.944 484.59 198.42 484.59C195.896 484.59 193.85 487.791 193.85 491.74C193.85 495.689 195.896 498.89 198.42 498.89Z" fill="#FF9FDA"/>
<path d="M215.15 496.69C204.09 490.62 192.72 490.49 181.7 496.69C181.63 496.74 181.51 496.74 181.46 496.65C181.43 496.59 181.44 496.53 181.48 496.48C187.9 489.34 198.93 487.1 207.66 491.05C210.59 492.27 213.16 494.22 215.36 496.48C215.48 496.62 215.31 496.81 215.15 496.69Z" fill="#00124C"/>
<path d="M216.74 494.27C216.86 496.39 215.71 498.4 213.85 499.4C213.81 499.43 213.74 499.41 213.76 499.35C214.44 498.05 215.89 495.48 216.65 494.22C216.68 494.17 216.75 494.22 216.74 494.27Z" fill="#00124C"/>
<path d="M182.68 498.32C180.95 497.76 179.86 496.07 180.03 494.27C180.03 494.22 180.07 494.17 180.11 494.22C180.81 495.2 182.14 497.24 182.76 498.27C182.79 498.32 182.72 498.35 182.68 498.32Z" fill="#00124C"/>
<path d="M180.51 442.33C180.51 442.33 180.53 442.31 180.53 442.3C180.52 442.3 180.51 442.3 180.5 442.32C174.7 434.36 161 434.3 155.23 442.32C155.22 442.32 155.21 442.32 155.2 442.31C155.2 442.31 155.22 442.33 155.22 442.34C155.22 442.34 155.2 442.36 155.2 442.37C155.21 442.37 155.22 442.37 155.23 442.35C161.03 450.31 174.73 450.37 180.5 442.35C180.51 442.35 180.52 442.35 180.53 442.36C180.53 442.36 180.51 442.34 180.51 442.33ZM155.26 442.33C163.33 438.29 172.4 438.32 180.48 442.33C172.41 446.37 163.34 446.34 155.26 442.33Z" fill="#00124C" stroke="url(#paint5_linear_630_3702)" stroke-miterlimit="10"/>
<path d="M167.62 439.31C165.95 439.31 164.6 440.66 164.6 442.33C164.6 444 165.95 445.35 167.62 445.35C169.29 445.35 170.64 444 170.64 442.33C170.64 440.66 169.29 439.31 167.62 439.31ZM167.13 442.54C166.59 442.54 166.15 442.1 166.15 441.56C166.15 441.02 166.59 440.58 167.13 440.58C167.67 440.58 168.11 441.02 168.11 441.56C168.11 442.1 167.67 442.54 167.13 442.54ZM168.3 443.83C168.06 443.83 167.87 443.64 167.87 443.4C167.87 443.16 168.06 442.97 168.3 442.97C168.54 442.97 168.73 443.16 168.73 443.4C168.73 443.64 168.54 443.83 168.3 443.83Z" fill="#00124C"/>
<path d="M233.46 442.3C233.46 442.3 233.48 442.28 233.48 442.27C233.47 442.27 233.46 442.27 233.45 442.29C227.65 434.33 213.95 434.27 208.18 442.29C208.17 442.29 208.16 442.29 208.15 442.28C208.15 442.28 208.17 442.3 208.17 442.31C208.17 442.31 208.15 442.33 208.15 442.34C208.16 442.34 208.17 442.34 208.18 442.32C213.98 450.28 227.68 450.34 233.45 442.32C233.46 442.32 233.47 442.32 233.48 442.33C233.48 442.33 233.46 442.31 233.46 442.3ZM208.21 442.3C216.28 438.26 225.35 438.29 233.43 442.3C225.36 446.34 216.29 446.31 208.21 442.3Z" fill="#00124C" stroke="url(#paint6_linear_630_3702)" stroke-miterlimit="10"/>
<path d="M220.58 439.28C218.91 439.28 217.56 440.63 217.56 442.3C217.56 443.97 218.91 445.32 220.58 445.32C222.25 445.32 223.6 443.97 223.6 442.3C223.6 440.63 222.25 439.28 220.58 439.28ZM220.09 442.51C219.55 442.51 219.11 442.07 219.11 441.53C219.11 440.99 219.55 440.55 220.09 440.55C220.63 440.55 221.07 440.99 221.07 441.53C221.07 442.07 220.63 442.51 220.09 442.51ZM221.26 443.8C221.02 443.8 220.83 443.61 220.83 443.37C220.83 443.13 221.02 442.94 221.26 442.94C221.5 442.94 221.69 443.13 221.69 443.37C221.69 443.61 221.5 443.8 221.26 443.8Z" fill="#00124C"/>
<path d="M165.21 532.98C160.38 534.44 165.65 540.26 166.6 553.49C159.77 545.99 152.8 539.55 147.26 535.31C144.7 536.4 141.96 537.29 139.03 537.92C142.98 544.07 149.94 551.97 151.64 556.44C151.14 555.88 133.35 535.93 128.05 540.38C124.45 543.4 141.07 557.99 145.49 567.14C145.49 567.14 125.59 545.04 121.93 548.18C117.54 551.95 134.29 567.81 138.78 575.75C137.85 574.56 122.83 555.29 118.28 555.54C114.03 555.77 122.77 573.56 140.52 595H194.21C181.64 565.69 170.48 531.38 165.21 532.97V532.98Z" fill="#00124C"/>
<path d="M256 595.01C273.84 576.01 282.95 560.23 278.9 559.7C274.38 559.1 257.95 577.19 256.94 578.31C262.02 570.73 279.91 556.17 275.82 552.08C272.41 548.67 250.9 569.21 250.9 569.21C256 560.42 273.68 547.12 270.31 543.84C265.36 539.01 246.12 557.56 245.58 558.08C247.79 553.36 256.58 545.02 260.68 538.99C257.15 538.93 253.85 538.52 250.77 537.84C245.05 541.66 237.94 547.35 230.88 554.01C232.82 540.89 238.52 535.48 233.81 533.66C228.57 531.64 214.41 566.39 199.34 595.01H256Z" fill="#00124C"/>
<path d="M195.54 587.97L195.56 588C182.44 558.06 170.67 521.2 165.21 522.85C160.38 524.31 165.65 530.13 166.6 543.36C152.48 527.87 137.73 516.85 136.39 520.54C134.7 525.18 149.1 539.62 151.64 546.31C151.14 545.75 133.35 525.8 128.05 530.25C124.45 533.27 141.07 547.86 145.49 557.01C145.49 557.01 125.59 534.91 121.93 538.05C117.54 541.82 134.29 557.68 138.78 565.62C137.85 564.43 122.83 545.16 118.28 545.41C113.58 545.67 124.76 567.39 146.45 591.78C147.32 592.76 148.13 593.85 148.91 595.01H194.16C194.93 593.41 195.72 591.81 196.52 590.24C196.19 589.48 195.87 588.72 195.53 587.96L195.54 587.97Z" fill="#FDF001"/>
<path d="M195.54 587.97L195.56 588C182.44 558.06 170.67 521.2 165.21 522.85C160.38 524.31 165.65 530.13 166.6 543.36C152.48 527.87 137.73 516.85 136.39 520.54C134.7 525.18 149.1 539.62 151.64 546.31C151.14 545.75 133.35 525.8 128.05 530.25C124.45 533.27 141.07 547.86 145.49 557.01C145.49 557.01 125.59 534.91 121.93 538.05C117.54 541.82 134.29 557.68 138.78 565.62C137.85 564.43 122.83 545.16 118.28 545.41C113.58 545.67 124.76 567.39 146.45 591.78C147.32 592.76 148.13 593.85 148.91 595.01H194.16C194.93 593.41 195.72 591.81 196.52 590.24C196.19 589.48 195.87 588.72 195.53 587.96L195.54 587.97Z" fill="#FDF001"/>
<path d="M278.9 549.56C274.38 548.96 257.95 567.05 256.94 568.17C262.02 560.59 279.91 546.03 275.82 541.94C272.41 538.53 250.9 559.07 250.9 559.07C256 550.28 273.68 536.98 270.31 533.7C265.36 528.87 246.12 547.42 245.58 547.94C248.62 541.45 264.06 528.14 262.73 523.39C261.66 519.61 246.13 529.48 230.88 543.87C232.82 530.75 238.52 525.34 233.81 523.52C228.49 521.46 213.97 557.34 198.64 586.2L198.66 586.17C197.94 587.51 197.23 588.87 196.53 590.24C195.72 591.82 194.94 593.41 194.17 595.01H246.04C246.46 594.55 246.89 594.1 247.32 593.67C270.79 570.98 283.57 550.16 278.9 549.55V549.56Z" fill="#FDF001"/>
<path d="M278.9 549.56C274.38 548.96 257.95 567.05 256.94 568.17C262.02 560.59 279.91 546.03 275.82 541.94C272.41 538.53 250.9 559.07 250.9 559.07C256 550.28 273.68 536.98 270.31 533.7C265.36 528.87 246.12 547.42 245.58 547.94C248.62 541.45 264.06 528.14 262.73 523.39C261.66 519.61 246.13 529.48 230.88 543.87C232.82 530.75 238.52 525.34 233.81 523.52C228.49 521.46 213.97 557.34 198.64 586.2L198.66 586.17C197.94 587.51 197.23 588.87 196.53 590.24C195.72 591.82 194.94 593.41 194.17 595.01H246.04C246.46 594.55 246.89 594.1 247.32 593.67C270.79 570.98 283.57 550.16 278.9 549.55V549.56Z" fill="#FDF001"/>
<path d="M142.78 374.15V438.37H148.25V439.07C148.37 439.07 160.67 438.96 169.19 429.1C176.22 420.97 178.74 408.74 176.71 392.73C185.03 417.02 205.85 434.98 231.2 439.59L247.37 442.53V374.14H142.78V374.15Z" fill="#FFF983"/>
<path d="M133.25 359.54C117.05 380.89 121.43 408.03 133.25 437.26H139.87V438.11C140.02 438.11 154.89 437.97 165.21 426.05C173.72 416.21 176.76 401.41 174.31 382.04C184.38 411.43 209.57 433.17 240.26 438.75L259.83 442.3C272.97 413.04 274.8 385.22 259.83 359.54C182.24 317.65 182.38 330.51 133.26 359.54H133.25ZM164.57 425.48C156.44 434.89 145.39 436.78 141.39 437.16C147.9 434.69 173.12 422.61 173.61 383.35C175.76 401.87 172.73 416.04 164.56 425.48H164.57Z" fill="#00124C"/>
<path d="M296.563 375.876C291.57 375.876 287.509 379.872 287.461 384.819L245.619 385.031L278.785 357.677C280.443 359.415 282.791 360.504 285.394 360.504C290.424 360.504 294.502 356.454 294.502 351.459C294.502 346.464 290.424 342.414 285.394 342.414C280.364 342.414 276.285 346.464 276.285 351.459C276.285 352.494 276.462 353.487 276.785 354.414L236.431 369.235L257.587 333.278C258.739 333.804 260.025 334.101 261.379 334.101C266.409 334.101 270.487 330.051 270.487 325.056C270.487 320.061 266.409 316.011 261.379 316.011C256.349 316.011 252.27 320.061 252.27 325.056C252.27 327.181 253.008 329.13 254.24 330.674L222.36 357.513L230.017 315.659C230.566 315.762 231.127 315.817 231.7 315.817C236.73 315.817 240.808 311.767 240.808 306.772C240.808 301.777 236.73 297.726 231.7 297.726C226.67 297.726 222.591 301.777 222.591 306.772C222.591 309.817 224.109 312.511 226.432 314.152L205.1 351.277L197.802 308.897C201.929 308.037 205.027 304.398 205.027 300.045C205.027 295.05 200.948 291 195.918 291C190.888 291 186.81 295.05 186.81 300.045C186.81 304.398 189.907 308.031 194.034 308.897L186.736 351.277L165.599 314.485C168.001 312.856 169.574 310.12 169.574 307.014C169.574 302.019 165.495 297.969 160.466 297.969C155.436 297.969 151.357 302.019 151.357 307.014C151.357 312.009 155.436 316.059 160.466 316.059C160.947 316.059 161.417 316.023 161.874 315.95L169.477 357.519L137.28 330.414C138.371 328.925 139.017 327.09 139.017 325.104C139.017 320.109 134.939 316.059 129.909 316.059C124.879 316.059 120.8 320.109 120.8 325.104C120.8 330.099 124.879 334.15 129.909 334.15C131.439 334.15 132.884 333.774 134.152 333.108L155.411 369.241L114.886 354.359C115.38 353.245 115.655 352.016 115.655 350.726C115.655 345.732 111.576 341.681 106.546 341.681C101.516 341.681 97.4375 345.732 97.4375 350.726C97.4375 355.721 101.516 359.772 106.546 359.772C108.924 359.772 111.082 358.87 112.704 357.386L146.23 385.037L104.211 384.825C104.071 379.951 100.053 376.046 95.1085 376.046C90.1641 376.046 86 380.096 86 385.091C86 390.086 90.0787 394.136 95.1085 394.136C98.7727 394.136 101.925 391.987 103.376 388.893L143.023 402.994C152.826 383.923 172.793 370.869 195.833 370.869C218.872 370.869 238.839 383.929 248.643 403H248.795L288.381 388.918C289.869 391.908 292.966 393.967 296.557 393.967C301.587 393.967 305.666 389.916 305.666 384.922C305.666 379.927 301.587 375.876 296.557 375.876H296.563Z" fill="#FDF001"/>
<path d="M296.52 389.444C299.035 389.444 301.074 387.419 301.074 384.922C301.074 382.424 299.035 380.399 296.52 380.399C294.005 380.399 291.966 382.424 291.966 384.922C291.966 387.419 294.005 389.444 296.52 389.444Z" fill="#FE40B4" stroke="#00124C" stroke-miterlimit="10"/>
<path d="M285.357 355.988C287.872 355.988 289.911 353.963 289.911 351.465C289.911 348.967 287.872 346.942 285.357 346.942C282.842 346.942 280.803 348.967 280.803 351.465C280.803 353.963 282.842 355.988 285.357 355.988Z" fill="#FE40B4" stroke="#00124C" stroke-miterlimit="10"/>
<path d="M261.342 329.585C263.857 329.585 265.896 327.56 265.896 325.062C265.896 322.564 263.857 320.539 261.342 320.539C258.827 320.539 256.788 322.564 256.788 325.062C256.788 327.56 258.827 329.585 261.342 329.585Z" fill="#FE40B4" stroke="#00124C" stroke-miterlimit="10"/>
<path d="M231.663 311.3C234.178 311.3 236.217 309.275 236.217 306.778C236.217 304.28 234.178 302.255 231.663 302.255C229.148 302.255 227.109 304.28 227.109 306.778C227.109 309.275 229.148 311.3 231.663 311.3Z" fill="#FE40B4" stroke="#00124C" stroke-miterlimit="10"/>
<path d="M195.888 304.574C198.403 304.574 200.442 302.549 200.442 300.051C200.442 297.554 198.403 295.529 195.888 295.529C193.372 295.529 191.333 297.554 191.333 300.051C191.333 302.549 193.372 304.574 195.888 304.574Z" fill="#FE40B4" stroke="#00124C" stroke-miterlimit="10"/>
<path d="M160.435 311.536C162.95 311.536 164.989 309.512 164.989 307.014C164.989 304.516 162.95 302.491 160.435 302.491C157.92 302.491 155.881 304.516 155.881 307.014C155.881 309.512 157.92 311.536 160.435 311.536Z" fill="#FE40B4" stroke="#00124C" stroke-miterlimit="10"/>
<path d="M129.878 329.627C132.393 329.627 134.432 327.602 134.432 325.104C134.432 322.607 132.393 320.582 129.878 320.582C127.363 320.582 125.324 322.607 125.324 325.104C125.324 327.602 127.363 329.627 129.878 329.627Z" fill="#FE40B4" stroke="#00124C" stroke-miterlimit="10"/>
<path d="M106.509 355.249C109.025 355.249 111.064 353.224 111.064 350.726C111.064 348.229 109.025 346.204 106.509 346.204C103.994 346.204 101.955 348.229 101.955 350.726C101.955 353.224 103.994 355.249 106.509 355.249Z" fill="#FE40B4" stroke="#00124C" stroke-miterlimit="10"/>
<path d="M95.0779 389.608C97.5932 389.608 99.6322 387.583 99.6322 385.085C99.6322 382.587 97.5932 380.562 95.0779 380.562C92.5627 380.562 90.5237 382.587 90.5237 385.085C90.5237 387.583 92.5627 389.608 95.0779 389.608Z" fill="#FE40B4" stroke="#00124C" stroke-miterlimit="10"/>
<path d="M140.25 460.07C140.27 460.01 140.28 459.94 140.25 459.93C140.3 459.98 139.71 460.49 139.59 460.77C137.77 463.38 139.4 466.18 140.24 468.9C136.52 467.34 135.1 461.1 139.72 459.77C140.01 459.68 140.69 459.77 140.24 460.07H140.25Z" fill="#00124C"/>
<path d="M251.02 468.53C251 468.59 250.99 468.66 251.02 468.67C250.97 468.62 251.56 468.11 251.68 467.83C253.5 465.22 251.87 462.42 251.03 459.7C254.75 461.26 256.17 467.5 251.55 468.83C251.26 468.92 250.58 468.83 251.03 468.53H251.02Z" fill="#00124C"/>
</g>
<g clip-path="url(#clip1_630_3702)">
<path d="M33.6568 92.4658C31.8906 92.4967 30.2243 92.5286 28.5595 92.5541C25.9194 92.5949 24.1054 90.7247 24.3358 88.2022C24.5608 85.7356 26.694 83.7968 29.2958 83.7151C30.7822 83.6688 32.2669 83.6529 33.8448 83.6206C33.8863 81.9399 33.8831 80.3399 33.975 78.7335C34.1679 75.3244 37.9296 73.0221 40.7718 74.572C42.1144 75.3031 42.8088 76.5048 42.7909 78.1211C42.7723 79.8701 42.7346 81.6215 42.7023 83.4395C44.5582 83.4077 46.3441 83.3378 48.1204 83.3544C51.1423 83.383 52.8828 86.2771 51.6509 89.1626C50.9216 90.8712 49.242 92.078 47.3892 92.1691C45.8089 92.247 44.2326 92.2728 42.6538 92.3228C42.6284 92.3241 42.6004 92.3522 42.8062 92.3551C42.6525 93.9369 42.3292 95.5442 42.3855 97.0985C42.4606 99.1762 40.0759 101.542 38.1898 101.784C35.8699 102.078 33.7804 100.632 33.6297 98.3612C33.5201 96.7163 33.6414 95.0325 33.6569 93.3658C33.6596 93.1015 33.6571 92.8399 33.6568 92.4658Z" fill="#FDF001"/>
</g>
<g clip-path="url(#clip2_630_3702)">
<path d="M90.69 106.231C88.9238 106.262 87.2575 106.294 85.5927 106.319C82.9526 106.36 81.1386 104.49 81.369 101.967C81.594 99.5007 83.7272 97.5619 86.329 97.4802C87.8154 97.4339 89.3001 97.418 90.878 97.3858C90.9195 95.705 90.9163 94.105 91.0082 92.4987C91.2011 89.0896 94.9628 86.7872 97.805 88.3371C99.1476 89.0682 99.842 90.2699 99.8241 91.8862C99.8055 93.6353 99.7679 95.3866 99.7355 97.2047C101.591 97.1728 103.377 97.1029 105.154 97.1196C108.175 97.1482 109.916 100.042 108.684 102.928C107.955 104.636 106.275 105.843 104.422 105.934C102.842 106.012 101.266 106.038 99.687 106.088C99.6616 106.089 99.6336 106.117 99.8394 106.12C99.6857 107.702 99.3624 109.309 99.4187 110.864C99.4938 112.941 97.1091 115.307 95.223 115.549C92.9031 115.843 90.8136 114.397 90.6629 112.126C90.5533 110.481 90.6746 108.798 90.6901 107.131C90.6928 106.867 90.6903 106.605 90.69 106.231Z" fill="#FDF001"/>
</g>
<g clip-path="url(#clip3_630_3702)">
<path d="M64.5762 44.6765C61.6326 44.728 58.8554 44.7811 56.0808 44.8236C51.6807 44.8915 48.6573 41.7747 49.0413 37.5705C49.4162 33.4595 52.9716 30.2281 57.3079 30.0919C59.7852 30.0147 62.2598 29.9882 64.8896 29.9345C64.9588 27.1333 64.9534 24.4666 65.1065 21.7893C65.4282 16.1075 71.6975 12.2702 76.4346 14.8534C78.6723 16.0719 79.8295 18.0747 79.7998 20.7686C79.7688 23.6837 79.706 26.6026 79.652 29.6327C82.7453 29.5796 85.7218 29.4631 88.6823 29.4908C93.7187 29.5385 96.6196 34.3619 94.5665 39.1712C93.351 42.0188 90.5516 44.0301 87.4636 44.182C84.8297 44.3118 82.2026 44.3548 79.5712 44.4381C79.529 44.4403 79.4822 44.4871 79.8253 44.492C79.569 47.1284 79.0303 49.8072 79.124 52.3975C79.2493 55.8605 75.2747 59.803 72.1312 60.2064C68.2647 60.6968 64.7823 58.2869 64.531 54.5021C64.3484 51.7606 64.5506 48.9543 64.5764 46.1764C64.5809 45.7359 64.5767 45.3 64.5762 44.6765Z" fill="#FDF001"/>
</g>
<g clip-path="url(#clip4_630_3702)">
<path d="M103.585 555.299C104.62 555.281 105.597 555.262 106.572 555.247C108.119 555.223 109.182 556.319 109.047 557.797C108.915 559.242 107.665 560.378 106.141 560.426C105.27 560.453 104.4 560.462 103.475 560.481C103.451 561.466 103.453 562.404 103.399 563.345C103.286 565.342 101.082 566.691 99.4165 565.783C98.6298 565.355 98.223 564.651 98.2334 563.704C98.2443 562.679 98.2664 561.653 98.2854 560.587C97.1979 560.606 96.1514 560.647 95.1107 560.637C93.34 560.621 92.3202 558.925 93.042 557.234C93.4693 556.233 94.4535 555.526 95.5391 555.472C96.4651 555.427 97.3887 555.412 98.3138 555.382C98.3286 555.382 98.3451 555.365 98.2244 555.363C98.3145 554.437 98.5039 553.495 98.471 552.584C98.427 551.367 99.8243 549.981 100.929 549.839C102.289 549.666 103.513 550.514 103.601 551.844C103.666 552.808 103.594 553.795 103.585 554.771C103.584 554.926 103.585 555.079 103.585 555.299Z" fill="#FDF001"/>
</g>
<g clip-path="url(#clip5_630_3702)">
<path d="M70.1675 547.233C71.2023 547.215 72.1787 547.196 73.1541 547.181C74.7011 547.157 75.764 548.253 75.629 549.731C75.4972 551.177 74.2472 552.313 72.7227 552.36C71.8518 552.388 70.9818 552.397 70.0573 552.416C70.033 553.401 70.0349 554.338 69.981 555.279C69.868 557.277 67.6639 558.626 65.9985 557.718C65.2118 557.289 64.805 556.585 64.8154 555.638C64.8263 554.613 64.8484 553.587 64.8674 552.522C63.7799 552.541 62.7335 552.582 61.6927 552.572C59.9221 552.555 58.9022 550.859 59.624 549.169C60.0514 548.167 61.0355 547.46 62.1211 547.407C63.0471 547.361 63.9707 547.346 64.8958 547.317C64.9107 547.316 64.9271 547.3 64.8065 547.298C64.8966 546.371 65.086 545.429 65.053 544.519C65.009 543.301 66.4063 541.915 67.5114 541.773C68.8707 541.601 70.095 542.448 70.1834 543.779C70.2476 544.743 70.1765 545.729 70.1674 546.706C70.1658 546.861 70.1673 547.014 70.1675 547.233Z" fill="#FDF001"/>
</g>
<g clip-path="url(#clip6_630_3702)">
<path d="M85.4686 583.3C87.1933 583.27 88.8206 583.239 90.4464 583.214C93.0246 583.174 94.7961 585 94.5711 587.464C94.3514 589.873 92.2682 591.766 89.7273 591.846C88.2758 591.891 86.8259 591.907 85.285 591.938C85.2444 593.579 85.2476 595.142 85.1579 596.711C84.9694 600.04 81.296 602.288 78.5203 600.775C77.2092 600.061 76.5311 598.887 76.5485 597.309C76.5667 595.601 76.6035 593.89 76.6351 592.115C74.8227 592.146 73.0786 592.214 71.344 592.198C68.3929 592.17 66.6932 589.344 67.8962 586.526C68.6084 584.857 70.2487 583.679 72.058 583.59C73.6013 583.514 75.1406 583.489 76.6825 583.44C76.7072 583.439 76.7346 583.411 76.5336 583.408C76.6837 581.864 76.9994 580.294 76.9445 578.776C76.8711 576.747 79.2 574.437 81.0418 574.201C83.3074 573.913 85.3478 575.325 85.4951 577.543C85.6021 579.149 85.4836 580.794 85.4685 582.421C85.4659 582.679 85.4683 582.935 85.4686 583.3Z" fill="#FDF001"/>
</g>
<g clip-path="url(#clip7_630_3702)">
<path d="M312.552 147.725C311.366 147.745 310.248 147.767 309.13 147.784C307.358 147.811 306.14 146.556 306.295 144.863C306.446 143.207 307.878 141.905 309.624 141.85C310.622 141.819 311.619 141.809 312.678 141.787C312.706 140.659 312.704 139.585 312.766 138.506C312.895 136.218 315.42 134.672 317.328 135.713C318.229 136.203 318.696 137.01 318.684 138.095C318.671 139.269 318.646 140.445 318.624 141.665C319.87 141.644 321.069 141.597 322.261 141.608C324.29 141.628 325.458 143.57 324.631 145.507C324.142 146.654 323.014 147.464 321.77 147.526C320.71 147.578 319.651 147.595 318.592 147.629C318.575 147.63 318.556 147.648 318.694 147.65C318.591 148.712 318.374 149.791 318.411 150.835C318.462 152.229 316.861 153.817 315.595 153.98C314.038 154.177 312.635 153.207 312.534 151.682C312.46 150.578 312.542 149.448 312.552 148.329C312.554 148.151 312.552 147.976 312.552 147.725Z" fill="#FDF001"/>
</g>
<g clip-path="url(#clip8_630_3702)">
<path d="M350.838 156.965C349.652 156.986 348.534 157.007 347.416 157.024C345.644 157.052 344.426 155.796 344.581 154.103C344.732 152.447 346.164 151.146 347.91 151.091C348.908 151.06 349.905 151.049 350.964 151.027C350.992 149.899 350.99 148.825 351.051 147.747C351.181 145.458 353.706 143.913 355.614 144.953C356.515 145.444 356.982 146.251 356.97 147.336C356.957 148.51 356.932 149.685 356.91 150.906C358.156 150.884 359.355 150.838 360.547 150.849C362.576 150.868 363.744 152.811 362.917 154.748C362.428 155.895 361.3 156.705 360.056 156.766C358.995 156.818 357.937 156.836 356.877 156.869C356.86 156.87 356.842 156.889 356.98 156.891C356.877 157.953 356.66 159.032 356.697 160.075C356.748 161.47 355.147 163.058 353.881 163.22C352.323 163.418 350.921 162.447 350.82 160.923C350.746 159.818 350.828 158.688 350.838 157.569C350.84 157.392 350.838 157.216 350.838 156.965Z" fill="#FDF001"/>
</g>
<g clip-path="url(#clip9_630_3702)">
<path d="M333.308 115.644C331.332 115.679 329.468 115.714 327.605 115.743C324.651 115.788 322.622 113.696 322.879 110.874C323.131 108.114 325.518 105.945 328.429 105.854C330.092 105.802 331.753 105.784 333.518 105.748C333.565 103.867 333.561 102.077 333.664 100.28C333.88 96.4659 338.088 93.89 341.268 95.624C342.77 96.442 343.547 97.7865 343.527 99.5948C343.507 101.552 343.464 103.511 343.428 105.545C345.505 105.51 347.503 105.431 349.49 105.45C352.871 105.482 354.818 108.72 353.44 111.948C352.624 113.86 350.745 115.21 348.672 115.312C346.904 115.399 345.14 115.428 343.374 115.484C343.346 115.486 343.314 115.517 343.545 115.52C343.372 117.29 343.011 119.088 343.074 120.827C343.158 123.152 340.49 125.798 338.38 126.069C335.784 126.398 333.446 124.781 333.278 122.24C333.155 120.4 333.291 118.516 333.308 116.651C333.311 116.355 333.308 116.063 333.308 115.644Z" fill="#FDF001"/>
</g>
<g clip-path="url(#clip10_630_3702)">
<path d="M60.7241 354.964C59.8147 354.98 58.9567 354.997 58.0996 355.01C56.7402 355.031 55.8062 354.068 55.9248 352.769C56.0407 351.499 57.139 350.501 58.4787 350.459C59.244 350.435 60.0085 350.427 60.8209 350.41C60.8423 349.545 60.8406 348.721 60.8879 347.894C60.9873 346.138 62.9241 344.953 64.3875 345.751C65.0788 346.127 65.4363 346.746 65.4271 347.578C65.4176 348.479 65.3982 349.381 65.3815 350.317C66.3371 350.3 67.2566 350.264 68.1712 350.273C69.7271 350.288 70.6233 351.778 69.989 353.264C69.6135 354.143 68.7487 354.765 67.7947 354.812C66.981 354.852 66.1694 354.865 65.3565 354.891C65.3435 354.891 65.329 354.906 65.435 354.907C65.3558 355.722 65.1894 356.549 65.2184 357.35C65.257 358.419 64.0292 359.637 63.0581 359.762C61.8636 359.914 60.7877 359.169 60.7101 358C60.6537 357.153 60.7162 356.286 60.7241 355.428C60.7255 355.292 60.7242 355.157 60.7241 354.964Z" fill="#FDF001"/>
</g>
<g clip-path="url(#clip11_630_3702)">
<path d="M90.0896 362.052C89.1802 362.068 88.3222 362.084 87.465 362.097C86.1057 362.118 85.1717 361.155 85.2903 359.857C85.4061 358.587 86.5045 357.588 87.8441 357.546C88.6095 357.522 89.3739 357.514 90.1864 357.498C90.2077 356.632 90.2061 355.808 90.2534 354.981C90.3527 353.226 92.2896 352.041 93.753 352.839C94.4443 353.215 94.8018 353.834 94.7926 354.666C94.783 355.566 94.7636 356.468 94.747 357.404C95.7026 357.388 96.6221 357.352 97.5367 357.361C99.0926 357.375 99.9888 358.865 99.3545 360.351C98.979 361.231 98.1142 361.852 97.1602 361.899C96.3465 361.939 95.5349 361.952 94.722 361.978C94.7089 361.979 94.6945 361.993 94.8005 361.995C94.7213 362.809 94.5549 363.637 94.5838 364.437C94.6225 365.507 93.3947 366.725 92.4235 366.85C91.229 367.001 90.1532 366.257 90.0756 365.087C90.0192 364.24 90.0816 363.373 90.0896 362.515C90.091 362.379 90.0897 362.244 90.0896 362.052Z" fill="#FDF001"/>
</g>
<g clip-path="url(#clip12_630_3702)">
<path d="M76.644 330.358C75.1284 330.385 73.6985 330.412 72.2699 330.434C70.0043 330.469 68.4476 328.864 68.6453 326.699C68.8384 324.583 70.669 322.919 72.9017 322.849C74.1772 322.809 75.4514 322.795 76.8054 322.768C76.841 321.325 76.8382 319.952 76.9171 318.574C77.0827 315.648 80.3107 313.673 82.7498 315.003C83.9019 315.63 84.4978 316.661 84.4825 318.048C84.4665 319.549 84.4342 321.052 84.4064 322.612C85.9991 322.585 87.5316 322.525 89.0559 322.539C91.6492 322.564 93.1428 325.047 92.0857 327.524C91.4598 328.99 90.0184 330.025 88.4285 330.104C87.0723 330.17 85.7196 330.193 84.3648 330.235C84.343 330.237 84.319 330.261 84.4956 330.263C84.3637 331.621 84.0863 333 84.1345 334.334C84.199 336.117 82.1526 338.147 80.534 338.354C78.5432 338.607 76.7502 337.366 76.6208 335.417C76.5268 334.006 76.6308 332.561 76.6441 331.131C76.6464 330.904 76.6443 330.679 76.644 330.358Z" fill="#FDF001"/>
</g>
<g clip-path="url(#clip13_630_3702)">
<path d="M299.762 454.618C298.989 454.631 298.261 454.645 297.533 454.656C296.379 454.674 295.586 453.856 295.686 452.754C295.785 451.675 296.717 450.827 297.855 450.792C298.505 450.771 299.154 450.764 299.844 450.75C299.862 450.016 299.86 449.316 299.901 448.614C299.985 447.123 301.63 446.117 302.872 446.794C303.459 447.114 303.763 447.639 303.755 448.346C303.747 449.111 303.73 449.876 303.716 450.671C304.528 450.657 305.309 450.627 306.085 450.634C307.406 450.647 308.167 451.912 307.629 453.173C307.31 453.92 306.576 454.448 305.765 454.488C305.075 454.522 304.385 454.533 303.695 454.555C303.684 454.556 303.672 454.568 303.762 454.569C303.695 455.261 303.553 455.964 303.578 456.643C303.611 457.551 302.568 458.586 301.743 458.691C300.729 458.82 299.816 458.188 299.75 457.195C299.702 456.476 299.755 455.74 299.762 455.011C299.763 454.895 299.762 454.781 299.762 454.618Z" fill="#FDF001"/>
</g>
<g clip-path="url(#clip14_630_3702)">
<path d="M324.697 460.636C323.924 460.649 323.196 460.663 322.468 460.674C321.314 460.692 320.521 459.875 320.621 458.772C320.72 457.693 321.652 456.846 322.79 456.81C323.44 456.79 324.089 456.783 324.779 456.769C324.797 456.034 324.796 455.334 324.836 454.632C324.92 453.141 326.565 452.135 327.807 452.812C328.394 453.132 328.698 453.658 328.69 454.364C328.682 455.129 328.666 455.895 328.651 456.689C329.463 456.676 330.244 456.645 331.02 456.652C332.341 456.665 333.102 457.93 332.564 459.192C332.245 459.939 331.511 460.466 330.701 460.506C330.01 460.54 329.32 460.551 328.63 460.573C328.619 460.574 328.607 460.586 328.697 460.587C328.63 461.279 328.488 461.982 328.513 462.661C328.546 463.57 327.503 464.604 326.678 464.71C325.664 464.838 324.751 464.206 324.685 463.213C324.637 462.494 324.69 461.758 324.697 461.029C324.698 460.914 324.697 460.799 324.697 460.636Z" fill="#FDF001"/>
</g>
<g clip-path="url(#clip15_630_3702)">
<path d="M313.279 433.724C311.993 433.746 310.778 433.769 309.565 433.788C307.641 433.818 306.32 432.455 306.488 430.617C306.651 428.82 308.206 427.407 310.102 427.347C311.185 427.313 312.267 427.302 313.417 427.278C313.447 426.054 313.444 424.888 313.511 423.717C313.652 421.233 316.393 419.555 318.464 420.685C319.442 421.218 319.948 422.093 319.935 423.271C319.922 424.545 319.894 425.822 319.871 427.146C321.223 427.123 322.525 427.072 323.819 427.084C326.021 427.105 327.289 429.214 326.392 431.317C325.86 432.562 324.636 433.441 323.286 433.507C322.135 433.564 320.986 433.583 319.835 433.619C319.817 433.62 319.797 433.641 319.947 433.643C319.834 434.796 319.599 435.967 319.64 437.099C319.695 438.613 317.957 440.337 316.583 440.514C314.892 440.728 313.37 439.674 313.26 438.02C313.18 436.821 313.268 435.594 313.28 434.379C313.282 434.187 313.28 433.996 313.279 433.724Z" fill="#FDF001"/>
</g>
<defs>
<linearGradient id="paint0_linear_630_3702" x1="151.74" y1="528.57" x2="199.41" y2="-17.58" gradientUnits="userSpaceOnUse">
<stop stop-color="#00124C"/>
<stop offset="0.36" stop-color="#001559"/>
<stop offset="1" stop-color="#001E7D"/>
</linearGradient>
<linearGradient id="paint1_linear_630_3702" x1="236.454" y1="464.959" x2="261.094" y2="464.959" gradientUnits="userSpaceOnUse">
<stop stop-color="#00124C"/>
<stop offset="0.36" stop-color="#001559"/>
<stop offset="1" stop-color="#001E7D"/>
</linearGradient>
<linearGradient id="paint2_linear_630_3702" x1="130.728" y1="464.947" x2="155.368" y2="464.947" gradientUnits="userSpaceOnUse">
<stop stop-color="#00124C"/>
<stop offset="0.36" stop-color="#001559"/>
<stop offset="1" stop-color="#001E7D"/>
</linearGradient>
<linearGradient id="paint3_linear_630_3702" x1="189.8" y1="356.44" x2="199.15" y2="508.87" gradientUnits="userSpaceOnUse">
<stop stop-color="#FA4E8F"/>
<stop offset="0.04" stop-color="#FA5795"/>
<stop offset="0.18" stop-color="#FC77AA"/>
<stop offset="0.32" stop-color="#FD90BA"/>
<stop offset="0.48" stop-color="#FEA2C6"/>
<stop offset="0.64" stop-color="#FEADCD"/>
<stop offset="0.82" stop-color="#FFB1D0"/>
</linearGradient>
<linearGradient id="paint4_linear_630_3702" x1="188.73" y1="515.33" x2="201.43" y2="369.75" gradientUnits="userSpaceOnUse">
<stop stop-color="#00124C"/>
<stop offset="0.36" stop-color="#001559"/>
<stop offset="1" stop-color="#001E7D"/>
</linearGradient>
<linearGradient id="paint5_linear_630_3702" x1="167.32" y1="448.85" x2="168.46" y2="435.81" gradientUnits="userSpaceOnUse">
<stop stop-color="#00124C"/>
<stop offset="0.36" stop-color="#001559"/>
<stop offset="1" stop-color="#001E7D"/>
</linearGradient>
<linearGradient id="paint6_linear_630_3702" x1="220.28" y1="448.82" x2="221.42" y2="435.78" gradientUnits="userSpaceOnUse">
<stop stop-color="#00124C"/>
<stop offset="0.36" stop-color="#001559"/>
<stop offset="1" stop-color="#001E7D"/>
</linearGradient>
<clipPath id="clip0_630_3702">
<rect width="391.14" height="596.01" fill="white" transform="translate(-1 -1)"/>
</clipPath>
<clipPath id="clip1_630_3702">
<rect width="22.9461" height="21.455" fill="white" transform="translate(22.4854 88.4854) rotate(-45)"/>
</clipPath>
<clipPath id="clip2_630_3702">
<rect width="22.9461" height="21.455" fill="white" transform="translate(79.5186 102.25) rotate(-45)"/>
</clipPath>
<clipPath id="clip3_630_3702">
<rect width="38.2435" height="35.7584" fill="white" transform="translate(45.9578 38.0423) rotate(-45)"/>
</clipPath>
<clipPath id="clip4_630_3702">
<rect width="13.445" height="12.5713" fill="white" transform="translate(110.131 557.631) rotate(135)"/>
</clipPath>
<clipPath id="clip5_630_3702">
<rect width="13.445" height="12.5713" fill="white" transform="translate(76.7131 549.565) rotate(135)"/>
</clipPath>
<clipPath id="clip6_630_3702">
<rect width="22.4083" height="20.9522" fill="white" transform="translate(96.3777 587.187) rotate(135)"/>
</clipPath>
<clipPath id="clip7_630_3702">
<rect width="15.4036" height="14.4026" fill="white" transform="translate(305.053 145.053) rotate(-45)"/>
</clipPath>
<clipPath id="clip8_630_3702">
<rect width="15.4036" height="14.4026" fill="white" transform="translate(343.339 154.293) rotate(-45)"/>
</clipPath>
<clipPath id="clip9_630_3702">
<rect width="25.6726" height="24.0043" fill="white" transform="translate(320.81 111.191) rotate(-45)"/>
</clipPath>
<clipPath id="clip10_630_3702">
<rect width="11.8147" height="11.0469" fill="white" transform="translate(54.9722 352.915) rotate(-45)"/>
</clipPath>
<clipPath id="clip11_630_3702">
<rect width="11.8147" height="11.0469" fill="white" transform="translate(84.3376 360.002) rotate(-45)"/>
</clipPath>
<clipPath id="clip12_630_3702">
<rect width="19.6911" height="18.4115" fill="white" transform="translate(67.0579 326.942) rotate(-45)"/>
</clipPath>
<clipPath id="clip13_630_3702">
<rect width="10.0322" height="9.38032" fill="white" transform="translate(294.877 452.877) rotate(-45)"/>
</clipPath>
<clipPath id="clip14_630_3702">
<rect width="10.0322" height="9.38032" fill="white" transform="translate(319.812 458.896) rotate(-45)"/>
</clipPath>
<clipPath id="clip15_630_3702">
<rect width="16.7204" height="15.6339" fill="white" transform="translate(305.14 430.823) rotate(-45)"/>
</clipPath>
</defs>
</svg>
