<svg width="27" height="29" viewBox="0 0 27 29" fill="none" xmlns="http://www.w3.org/2000/svg">
<path d="M13.4802 28.2496C10.9609 28.2496 8.76299 27.8754 6.88069 27.1289C4.99839 26.3823 3.52107 25.2489 2.44872 23.7304C1.37448 22.21 0.783172 20.2865 0.678599 17.9579C0.651981 16.9207 0.638672 15.8054 0.638672 14.6157C0.638672 13.4259 0.651981 12.2871 0.678599 11.1972C0.785073 8.91764 1.38779 7.01405 2.48675 5.48101C3.58571 3.94979 5.08395 2.80364 6.97956 2.04438C8.87517 1.28331 11.0408 0.903687 13.4802 0.903687C15.2294 0.903687 16.8664 1.09986 18.3894 1.4922C19.9123 1.88454 21.2717 2.48032 22.4639 3.27772C23.656 4.07512 24.5971 5.06324 25.2873 6.24027C25.9756 7.41729 26.3349 8.79049 26.3616 10.3617C26.3616 10.5887 26.276 10.7794 26.103 10.932C25.93 11.0846 25.7246 11.1591 25.487 11.1591H18.7677C18.3703 11.1591 18.0775 11.0828 17.8931 10.932C17.7068 10.7794 17.549 10.5143 17.4159 10.1346C17.0717 9.0466 16.5679 8.31096 15.9043 7.93133C15.2408 7.55171 14.4327 7.36098 13.4802 7.36098C12.3127 7.36098 11.3868 7.65887 10.6966 8.25284C10.0065 8.84861 9.6357 9.89304 9.58436 11.3861C9.5045 13.4623 9.5045 15.5893 9.58436 17.7671C9.6376 19.262 10.0084 20.3065 10.6966 20.9004C11.3849 21.4962 12.3127 21.7923 13.4802 21.7923C14.4346 21.7923 15.2484 21.5907 15.9252 21.1838C16.6002 20.7787 17.0984 20.0576 17.4159 19.0186C17.5224 18.6136 17.6745 18.3411 17.8722 18.2013C18.0718 18.0632 18.3684 17.9924 18.7658 17.9924H25.4851C25.7227 17.9924 25.9281 18.0687 26.1011 18.2194C26.2722 18.372 26.3597 18.5609 26.3597 18.7898C26.333 20.361 25.9756 21.7341 25.2854 22.9112C24.5952 24.0882 23.656 25.0763 22.462 25.8737C21.2698 26.6711 19.9104 27.2669 18.3874 27.6592C16.8626 28.0516 15.2275 28.2478 13.4783 28.2478L13.4802 28.2496Z" fill="#00124C"/>
</svg>
