<svg width="40" height="58" viewBox="0 0 40 58" fill="none" xmlns="http://www.w3.org/2000/svg">
<path d="M39.918 3.45205L39.2797 1.09372C39.0657 0.304374 38.2613 -0.160018 37.4832 0.0570217L24.5346 3.66424C24.5262 3.5927 24.5142 3.51995 24.4939 3.44841L23.8556 1.09008C23.6417 0.300736 22.8373 -0.163655 22.0591 0.0533842L14.3316 2.20559C13.5534 2.42263 13.0956 3.23865 13.3096 4.02799L13.9479 6.38633C13.967 6.45786 13.9933 6.52698 14.022 6.59245L1.0746 10.2009C0.296466 10.4179 -0.161331 11.2339 0.052626 12.0233L0.690912 14.3816C0.904869 15.171 1.7093 15.6354 2.48743 15.4183L38.896 5.27324C39.6741 5.05741 40.1319 4.2414 39.918 3.45205Z" fill="#00124C"/>
<path d="M37.2967 15.4729H6.74272C5.9359 15.4729 5.28088 16.1374 5.28088 16.9558V55.9332C5.28088 56.7516 5.9359 57.4161 6.74272 57.4161H37.2967C38.1036 57.4161 38.7586 56.7516 38.7586 55.9332V16.9558C38.7586 16.1374 38.1036 15.4729 37.2967 15.4729ZM12.2602 49.3298C12.2602 49.8876 11.8143 50.3386 11.2657 50.3386C10.7159 50.3386 10.2712 49.8864 10.2712 49.3298V23.5603C10.2712 23.0026 10.7171 22.5515 11.2657 22.5515C11.8155 22.5515 12.2602 23.0038 12.2602 23.5603V49.3298ZM23.0142 49.3298C23.0142 49.8876 22.5684 50.3386 22.0197 50.3386C21.4699 50.3386 21.0253 49.8864 21.0253 49.3298V23.5603C21.0253 23.0026 21.4711 22.5515 22.0197 22.5515C22.5696 22.5515 23.0142 23.0038 23.0142 23.5603V49.3298ZM33.767 49.3298C33.767 49.8876 33.3212 50.3386 32.7726 50.3386C32.2227 50.3386 31.7781 49.8864 31.7781 49.3298V23.5603C31.7781 23.0026 32.2239 22.5515 32.7726 22.5515C33.3224 22.5515 33.767 23.0038 33.767 23.5603V49.3298Z" fill="#00124C"/>
</svg>
