<svg width="390" height="604" viewBox="0 0 390 604" fill="none" xmlns="http://www.w3.org/2000/svg">
<g clip-path="url(#clip0_264_3858)">
<path d="M373.83 89.69C371.63 78.25 369.56 67.45 368.96 57.59C365.96 8.38 389.35 0.29 389.59 0.21L389.41 -1C389.16 -0.92 383.21 1.05 377.57 9.3C368.16 23.05 367.24 43.21 368.12 57.7C368.73 67.67 370.81 78.52 373.02 90.02C377.2 111.78 381.83 135.89 379.06 163.79C376.51 137.85 367.66 115.12 359.85 87.73C342.53 27.02 371.26 -0.39 371.26 -0.39H-0.419922C9.20008 64.56 32.2001 74.38 50.0401 91.78C56.0401 104.38 59.7501 118.27 58.2501 135.84C56.2701 159.02 43.9301 180.85 31.9901 201.97C28.2201 208.65 24.5001 215.23 21.1401 221.76C4.75008 247.2 -4.41992 274.38 17.2201 305.14C18.1501 307.34 19.0601 309.39 19.9501 311.36C27.5601 328.4 33.0601 340.72 26.3801 403.39C22.4001 440.76 27.6701 471.46 41.6201 492.18C51.8601 507.38 66.5601 516.86 83.8301 519.91C102.57 527.82 124.9 524.52 144.76 516.45C176.35 503.61 209.69 504.39 241.39 516.62C254.57 521.7 270.05 526.09 285.86 523.19C307.78 520.86 330.56 503.78 344.45 478.04C355.97 456.7 366.77 419.86 352.84 365.52C345.16 335.54 343.28 311.96 344.7 292.15C345.47 290.38 346.3 288.63 347.21 286.89C374.61 234.2 381.53 198.75 379.41 168.21C383.15 138.26 378.24 112.67 373.82 89.68L373.83 89.69ZM32.6501 202.76C44.6601 181.51 57.0801 159.54 59.0901 136C60.5201 119.24 57.3301 105.82 51.9501 93.7C59.1101 101.11 65.3001 110.18 69.2101 125.26C76.8701 154.77 47.9301 183.26 26.2801 214.13C28.3401 210.37 30.4801 206.58 32.6401 202.76H32.6501ZM42.2301 491.32C28.4701 470.89 23.2901 440.56 27.2201 403.59C33.9401 340.45 28.3701 327.97 20.6601 310.7C20.3301 309.97 20.0001 309.23 19.6701 308.48C19.9001 308.78 20.1301 309.08 20.3601 309.38C60.4001 360.18 16.5001 443.99 62.0701 502.93C67.1001 509.44 72.8801 514.25 79.1401 517.67C64.1401 513.86 51.3701 504.91 42.2301 491.33V491.32ZM352.05 365.96C365.84 419.76 355.17 456.19 343.79 477.28C333.15 497 317.23 511.58 300.52 518.23C305.24 515.84 309.93 512.62 314.54 508.39C379.75 448.67 316.75 361.99 343.66 294.64C342.58 314.06 344.64 337.05 352.05 365.95V365.96Z" fill="url(#paint0_linear_264_3858)"/>
<path d="M29.6504 595.01H363.41C363.41 595.01 340.84 523.92 261.7 538.97C261.7 538.97 194.56 570.87 124.46 538.97C124.46 538.97 64.7904 525.41 29.6604 595.01H29.6504Z" fill="#00124C"/>
<path d="M260.496 467.766C262.038 461.28 258.03 454.773 251.545 453.232C245.059 451.69 238.552 455.698 237.011 462.183C235.469 468.669 239.477 475.176 245.963 476.717C252.448 478.259 258.955 474.251 260.496 467.766Z" fill="#FDF001" stroke="url(#paint1_linear_264_3858)" stroke-width="0.5" stroke-miterlimit="10"/>
<path d="M248.75 475.31C249.18 475.45 249.44 475.6 249.51 476.05L249.79 476.94C249.88 477.23 250.13 477.99 250.22 478.27C250.12 478.46 250.03 478.66 249.89 478.87C249.65 478.78 249.47 478.68 249.28 478.58C249.19 478.3 248.95 477.54 248.85 477.25L248.57 476.36C248.36 475.96 248.48 475.68 248.76 475.32L248.75 475.31Z" fill="#FE40B4"/>
<path d="M251.74 474.6C252.23 474.75 252.51 474.96 252.62 475.44L253.05 476.47C253.19 476.81 253.56 477.69 253.69 478.02C253.62 478.25 253.56 478.48 253.45 478.72C253.2 478.62 252.99 478.51 252.78 478.39C252.64 478.07 252.28 477.18 252.14 476.84L251.71 475.81C251.45 475.39 251.5 475.04 251.74 474.59V474.6Z" fill="#FE40B4"/>
<path d="M254.441 473.75C254.871 473.76 255.161 473.81 255.321 474.21L255.781 474.94C255.931 475.18 256.331 475.8 256.471 476.03C256.421 476.23 256.371 476.43 256.281 476.66C256.041 476.64 255.841 476.6 255.631 476.56C255.481 476.33 255.091 475.7 254.941 475.47L254.481 474.74C254.191 474.42 254.261 474.14 254.441 473.75V473.75Z" fill="#FE40B4"/>
<path d="M151.573 473.48C156.287 468.766 156.287 461.124 151.573 456.41C146.859 451.696 139.217 451.696 134.504 456.41C129.79 461.124 129.79 468.766 134.504 473.48C139.217 478.193 146.859 478.193 151.573 473.48Z" fill="#FDF001" stroke="url(#paint2_linear_264_3858)" stroke-width="0.5" stroke-miterlimit="10"/>
<path d="M135.77 472.47C135.83 472.98 135.75 473.33 135.35 473.64L134.57 474.47C134.31 474.74 133.65 475.45 133.4 475.72C133.16 475.76 132.92 475.8 132.65 475.8C132.64 475.53 132.65 475.29 132.68 475.05C132.92 474.79 133.59 474.07 133.85 473.8L134.63 472.97C134.91 472.56 135.26 472.45 135.77 472.48V472.47Z" fill="#FE40B4"/>
<path d="M135.02 477.02C134.94 476.48 135.03 476.11 135.42 475.76L136.2 474.81C136.46 474.5 137.12 473.69 137.37 473.38C137.62 473.32 137.86 473.25 138.14 473.22C138.16 473.5 138.14 473.75 138.14 474.01C137.9 474.31 137.23 475.12 136.97 475.44L136.19 476.39C135.92 476.84 135.57 477 135.03 477.03L135.02 477.02Z" fill="#FE40B4"/>
<path d="M138.35 478.16C138.08 477.74 138 477.42 138.23 476.99L138.58 475.98C138.7 475.65 138.99 474.79 139.1 474.47C139.3 474.35 139.5 474.23 139.74 474.13C139.87 474.36 139.95 474.58 140.03 474.8C139.92 475.12 139.62 475.98 139.51 476.31L139.16 477.32C139.08 477.79 138.81 478 138.34 478.17L138.35 478.16Z" fill="#FE40B4"/>
<path d="M263.7 538.98C263.7 538.98 257.59 555.67 241.17 568.81C230.53 577.34 215.53 584.36 195.08 584.36C174.63 584.36 159.63 577.34 148.98 568.81C132.56 555.67 126.46 538.98 126.46 538.98C144.48 539.63 156.79 531.68 165.09 521.78C165.75 520.98 166.4 520.17 167.01 519.35C178.3 504.41 181.24 486.4 181.24 486.4H208.91C208.91 486.4 211.85 504.41 223.14 519.35C223.74 520.17 224.39 520.98 225.06 521.78C233.37 531.68 245.68 539.63 263.7 538.98V538.98Z" fill="#3E4BF6"/>
<path d="M263.7 538.98C263.7 538.98 257.59 555.67 241.17 568.81C230.53 577.34 215.53 584.36 195.08 584.36C174.63 584.36 159.63 577.34 148.98 568.81C132.56 555.67 126.46 538.98 126.46 538.98C144.48 539.63 156.79 531.68 165.09 521.78C165.75 520.98 166.4 520.17 167.01 519.35C178.3 504.41 181.24 486.4 181.24 486.4H208.91C208.91 486.4 211.85 504.41 223.14 519.35C223.74 520.17 224.39 520.98 225.06 521.78C233.37 531.68 245.68 539.63 263.7 538.98V538.98Z" fill="#00124C"/>
<path d="M223.15 519.35C215.04 524.52 205.41 527.51 195.09 527.51C184.771 527.51 175.131 524.51 167.021 519.35C178.311 504.41 181.251 486.4 181.251 486.4H208.921C208.921 486.4 211.86 504.41 223.15 519.35Z" fill="#001E7D"/>
<path d="M247.37 422.2C247.37 393.316 223.957 369.9 195.075 369.9C166.194 369.9 142.78 393.316 142.78 422.2V462.88C142.78 491.764 166.194 515.18 195.075 515.18C223.957 515.18 247.37 491.764 247.37 462.88V422.2Z" fill="url(#paint3_linear_264_3858)"/>
<path d="M247.37 422.2C247.37 393.316 223.957 369.9 195.075 369.9C166.194 369.9 142.78 393.316 142.78 422.2V462.88C142.78 491.764 166.194 515.18 195.075 515.18C223.957 515.18 247.37 491.764 247.37 462.88V422.2Z" fill="#FDF001" stroke="url(#paint4_linear_264_3858)" stroke-miterlimit="10"/>
<path d="M168.487 480.917C172.056 477.348 172.056 471.561 168.487 467.991C164.917 464.422 159.13 464.422 155.561 467.991C151.991 471.561 151.991 477.348 155.561 480.917C159.13 484.487 164.917 484.487 168.487 480.917Z" fill="#FE40B4"/>
<path d="M237.063 481.377C240.683 477.859 240.766 472.073 237.248 468.453C233.73 464.832 227.943 464.75 224.323 468.268C220.703 471.786 220.62 477.572 224.138 481.192C227.656 484.812 233.443 484.895 237.063 481.377Z" fill="#FE40B4"/>
<path d="M196.08 414.05C198.6 425.94 201.06 439.02 203.47 450.85C204.36 454.98 204.96 459.16 205.41 463.36C205.5 464.11 204.86 464.78 204.1 464.73C202.18 464.62 200.26 464.48 198.34 464.3C196.42 464.11 194.5 463.89 192.58 463.57C192.42 463.54 192.42 463.3 192.58 463.27C196.4 462.65 200.24 462.34 204.1 462.11L202.81 463.63C200.89 455.5 200.22 447.16 199.01 438.91C198 431.71 196.69 421.41 195.79 414.09C195.76 413.92 196.05 413.85 196.08 414.04V414.05Z" fill="#00124C"/>
<path d="M198.42 498.89C200.944 498.89 202.99 495.689 202.99 491.74C202.99 487.791 200.944 484.59 198.42 484.59C195.896 484.59 193.85 487.791 193.85 491.74C193.85 495.689 195.896 498.89 198.42 498.89Z" fill="#FF9FDA"/>
<path d="M215.15 496.69C204.09 490.62 192.72 490.49 181.7 496.69C181.63 496.74 181.51 496.74 181.46 496.65C181.43 496.59 181.44 496.53 181.48 496.48C187.9 489.34 198.93 487.1 207.66 491.05C210.59 492.27 213.16 494.22 215.36 496.48C215.48 496.62 215.31 496.81 215.15 496.69V496.69Z" fill="#00124C"/>
<path d="M216.74 494.27C216.86 496.39 215.71 498.4 213.85 499.4C213.81 499.43 213.74 499.41 213.76 499.35C214.44 498.05 215.89 495.48 216.65 494.22C216.68 494.17 216.75 494.22 216.74 494.27Z" fill="#00124C"/>
<path d="M182.68 498.32C180.95 497.76 179.86 496.07 180.03 494.27C180.03 494.22 180.07 494.17 180.11 494.22C180.81 495.2 182.14 497.24 182.76 498.27C182.79 498.32 182.72 498.35 182.68 498.32Z" fill="#00124C"/>
<path d="M180.51 442.33C180.51 442.33 180.53 442.31 180.53 442.3C180.52 442.3 180.51 442.3 180.5 442.32C174.7 434.36 161 434.3 155.23 442.32C155.22 442.32 155.21 442.32 155.2 442.31C155.2 442.31 155.22 442.33 155.22 442.34C155.22 442.34 155.2 442.36 155.2 442.37C155.21 442.37 155.22 442.37 155.23 442.35C161.03 450.31 174.73 450.37 180.5 442.35C180.51 442.35 180.52 442.35 180.53 442.36C180.53 442.36 180.51 442.34 180.51 442.33ZM155.26 442.33C163.33 438.29 172.4 438.32 180.48 442.33C172.41 446.37 163.34 446.34 155.26 442.33Z" fill="#00124C" stroke="url(#paint5_linear_264_3858)" stroke-miterlimit="10"/>
<path d="M167.62 439.31C165.95 439.31 164.6 440.66 164.6 442.33C164.6 444 165.95 445.35 167.62 445.35C169.29 445.35 170.64 444 170.64 442.33C170.64 440.66 169.29 439.31 167.62 439.31ZM167.13 442.54C166.59 442.54 166.15 442.1 166.15 441.56C166.15 441.02 166.59 440.58 167.13 440.58C167.67 440.58 168.11 441.02 168.11 441.56C168.11 442.1 167.67 442.54 167.13 442.54ZM168.3 443.83C168.06 443.83 167.87 443.64 167.87 443.4C167.87 443.16 168.06 442.97 168.3 442.97C168.54 442.97 168.73 443.16 168.73 443.4C168.73 443.64 168.54 443.83 168.3 443.83Z" fill="#00124C"/>
<path d="M233.46 442.3C233.46 442.3 233.48 442.28 233.48 442.27C233.47 442.27 233.46 442.27 233.45 442.29C227.65 434.33 213.95 434.27 208.18 442.29C208.17 442.29 208.16 442.29 208.15 442.28C208.15 442.28 208.17 442.3 208.17 442.31C208.17 442.31 208.15 442.33 208.15 442.34C208.16 442.34 208.17 442.34 208.18 442.32C213.98 450.28 227.68 450.34 233.45 442.32C233.46 442.32 233.47 442.32 233.48 442.33C233.48 442.33 233.46 442.31 233.46 442.3ZM208.21 442.3C216.28 438.26 225.35 438.29 233.43 442.3C225.36 446.34 216.29 446.31 208.21 442.3Z" fill="#00124C" stroke="url(#paint6_linear_264_3858)" stroke-miterlimit="10"/>
<path d="M220.581 439.28C218.911 439.28 217.561 440.63 217.561 442.3C217.561 443.97 218.911 445.32 220.581 445.32C222.251 445.32 223.601 443.97 223.601 442.3C223.601 440.63 222.251 439.28 220.581 439.28ZM220.091 442.51C219.551 442.51 219.111 442.07 219.111 441.53C219.111 440.99 219.551 440.55 220.091 440.55C220.631 440.55 221.071 440.99 221.071 441.53C221.071 442.07 220.631 442.51 220.091 442.51ZM221.261 443.8C221.021 443.8 220.831 443.61 220.831 443.37C220.831 443.13 221.021 442.94 221.261 442.94C221.501 442.94 221.691 443.13 221.691 443.37C221.691 443.61 221.501 443.8 221.261 443.8Z" fill="#00124C"/>
<path d="M165.21 532.98C160.38 534.44 165.65 540.26 166.6 553.49C159.77 545.99 152.8 539.55 147.26 535.31C144.7 536.4 141.96 537.29 139.03 537.92C142.98 544.07 149.94 551.97 151.64 556.44C151.14 555.88 133.35 535.93 128.05 540.38C124.45 543.4 141.07 557.99 145.49 567.14C145.49 567.14 125.59 545.04 121.93 548.18C117.54 551.95 134.29 567.81 138.78 575.75C137.85 574.56 122.83 555.29 118.28 555.54C114.03 555.77 122.77 573.56 140.52 595H194.21C181.64 565.69 170.48 531.38 165.21 532.97V532.98Z" fill="#00124C"/>
<path d="M256 595.01C273.84 576.01 282.95 560.23 278.9 559.7C274.38 559.1 257.95 577.19 256.94 578.31C262.02 570.73 279.91 556.17 275.82 552.08C272.41 548.67 250.9 569.21 250.9 569.21C256 560.42 273.68 547.12 270.31 543.84C265.36 539.01 246.12 557.56 245.58 558.08C247.79 553.36 256.58 545.02 260.68 538.99C257.15 538.93 253.85 538.52 250.77 537.84C245.05 541.66 237.94 547.35 230.88 554.01C232.82 540.89 238.52 535.48 233.81 533.66C228.57 531.64 214.41 566.39 199.34 595.01H256Z" fill="#00124C"/>
<path d="M195.54 587.97L195.56 588C182.44 558.06 170.67 521.2 165.21 522.85C160.38 524.31 165.65 530.13 166.6 543.36C152.48 527.87 137.73 516.85 136.39 520.54C134.7 525.18 149.1 539.62 151.64 546.31C151.14 545.75 133.35 525.8 128.05 530.25C124.45 533.27 141.07 547.86 145.49 557.01C145.49 557.01 125.59 534.91 121.93 538.05C117.54 541.82 134.29 557.68 138.78 565.62C137.85 564.43 122.83 545.16 118.28 545.41C113.58 545.67 124.76 567.39 146.45 591.78C147.32 592.76 148.13 593.85 148.91 595.01H194.16C194.93 593.41 195.72 591.81 196.52 590.24C196.19 589.48 195.87 588.72 195.53 587.96L195.54 587.97Z" fill="#FDF001"/>
<path d="M195.54 587.97L195.56 588C182.44 558.06 170.67 521.2 165.21 522.85C160.38 524.31 165.65 530.13 166.6 543.36C152.48 527.87 137.73 516.85 136.39 520.54C134.7 525.18 149.1 539.62 151.64 546.31C151.14 545.75 133.35 525.8 128.05 530.25C124.45 533.27 141.07 547.86 145.49 557.01C145.49 557.01 125.59 534.91 121.93 538.05C117.54 541.82 134.29 557.68 138.78 565.62C137.85 564.43 122.83 545.16 118.28 545.41C113.58 545.67 124.76 567.39 146.45 591.78C147.32 592.76 148.13 593.85 148.91 595.01H194.16C194.93 593.41 195.72 591.81 196.52 590.24C196.19 589.48 195.87 588.72 195.53 587.96L195.54 587.97Z" fill="#FDF001"/>
<path d="M278.9 549.56C274.38 548.96 257.95 567.05 256.94 568.17C262.02 560.59 279.91 546.03 275.82 541.94C272.41 538.53 250.9 559.07 250.9 559.07C256 550.28 273.68 536.98 270.31 533.7C265.36 528.87 246.12 547.42 245.58 547.94C248.62 541.45 264.06 528.14 262.73 523.39C261.66 519.61 246.13 529.48 230.88 543.87C232.82 530.75 238.52 525.34 233.81 523.52C228.49 521.46 213.97 557.34 198.64 586.2L198.66 586.17C197.94 587.51 197.23 588.87 196.53 590.24C195.72 591.82 194.94 593.41 194.17 595.01H246.04C246.46 594.55 246.89 594.1 247.32 593.67C270.79 570.98 283.57 550.16 278.9 549.55V549.56Z" fill="#FDF001"/>
<path d="M278.9 549.56C274.38 548.96 257.95 567.05 256.94 568.17C262.02 560.59 279.91 546.03 275.82 541.94C272.41 538.53 250.9 559.07 250.9 559.07C256 550.28 273.68 536.98 270.31 533.7C265.36 528.87 246.12 547.42 245.58 547.94C248.62 541.45 264.06 528.14 262.73 523.39C261.66 519.61 246.13 529.48 230.88 543.87C232.82 530.75 238.52 525.34 233.81 523.52C228.49 521.46 213.97 557.34 198.64 586.2L198.66 586.17C197.94 587.51 197.23 588.87 196.53 590.24C195.72 591.82 194.94 593.41 194.17 595.01H246.04C246.46 594.55 246.89 594.1 247.32 593.67C270.79 570.98 283.57 550.16 278.9 549.55V549.56Z" fill="#FDF001"/>
<path d="M142.78 374.15V438.37H148.25V439.07C148.37 439.07 160.67 438.96 169.19 429.1C176.22 420.97 178.74 408.74 176.71 392.73C185.03 417.02 205.85 434.98 231.2 439.59L247.37 442.53V374.14H142.78V374.15Z" fill="#FFF983"/>
<path d="M133.25 359.54C117.05 380.89 121.43 408.03 133.25 437.26H139.87V438.11C140.02 438.11 154.89 437.97 165.21 426.05C173.72 416.21 176.76 401.41 174.31 382.04C184.38 411.43 209.57 433.17 240.26 438.75L259.83 442.3C272.97 413.04 274.8 385.22 259.83 359.54C182.24 317.65 182.38 330.51 133.26 359.54H133.25ZM164.57 425.48C156.44 434.89 145.39 436.78 141.39 437.16C147.9 434.69 173.12 422.61 173.61 383.35C175.76 401.87 172.73 416.04 164.56 425.48H164.57Z" fill="#00124C"/>
<path d="M172.83 330.12C170.93 328.12 170.75 326.23 172.29 324.86C173.65 323.65 175.8 323.8 176.99 325.18C178.34 326.76 177.94 328.75 175.88 330.3C178.31 336.12 180.75 341.97 183.26 348.01C185.09 343.84 186.82 339.89 188.55 335.94C190.67 331.12 192.77 326.29 194.91 321.48C195.21 320.81 195.3 320.38 194.63 319.78C193.28 318.57 193.34 316.58 194.59 315.34C195.86 314.09 197.94 314.09 199.22 315.34C200.51 316.6 200.56 318.51 199.28 319.79C198.84 320.23 198.63 320.52 198.95 321.2C203.08 329.86 207.17 338.54 211.27 347.22C211.34 347.38 211.44 347.52 211.61 347.82C213.9 341.84 216.14 336 218.38 330.15C215.98 328.54 215.96 326.28 217.27 324.83C218.47 323.5 220.56 323.46 221.88 324.69C223.39 326.09 223.24 328.01 221.41 329.84C224.75 335.34 228.11 340.87 231.54 346.51C233.05 345.25 234.48 344.06 235.9 342.86C240.87 338.68 245.82 334.48 250.81 330.32C251.38 329.85 251.43 329.5 251.17 328.83C250.51 327.11 251.56 325.24 253.35 324.78C255.19 324.31 257.09 325.48 257.43 327.28C257.78 329.17 256.56 330.95 254.67 331.05C253.79 331.1 253.63 331.56 253.45 332.18C252 337.1 250.55 342.01 249.1 346.93C246.29 356.46 243.48 365.98 240.69 375.52C240.49 376.2 240.17 376.37 239.5 376.37C212.07 370.04 184.31 370.41 156.25 376.79C155.55 376.79 155.27 376.57 155.06 375.92C151.03 363.6 146.98 351.28 142.93 338.97C142.22 336.82 141.5 334.68 140.8 332.53C140.62 331.97 140.42 331.69 139.71 331.66C137.74 331.57 136.46 329.85 136.75 327.89C137.02 326.1 138.89 324.92 140.75 325.37C142.59 325.82 143.65 327.71 143.01 329.5C142.82 330.03 142.79 330.35 143.29 330.76C149.82 336.02 156.34 341.3 162.86 346.58C162.94 346.65 163.04 346.69 163.28 346.84C166.46 341.27 169.64 335.7 172.81 330.15L172.83 330.12Z" fill="#FDF001"/>
<path d="M155.41 377.62C154.27 377.32 154.06 375.81 153.72 374.89L152.82 372.14C149.58 362.22 143.54 343.76 140.23 333.67L139.86 332.56C137.17 332.62 135.11 329.73 136 327.11C137.84 322.1 145.47 324.51 143.9 329.67C143.86 329.8 143.82 329.9 143.8 329.98C143.8 330.01 143.8 330.03 143.8 329.99C143.8 329.95 143.77 329.91 143.78 329.93C143.86 330.01 144.12 330.21 144.29 330.35L145.41 331.26L163.38 345.82L162.79 345.93L171.92 329.99L171.96 330.42C170.86 329.2 169.98 327.43 170.62 325.76C172.06 322.12 177.49 322.47 178.48 326.23C178.96 327.94 177.97 329.67 176.68 330.71L176.78 330.3L183.58 346.66H182.96C184.37 343.45 191.26 327.79 192.53 324.93L193.49 322.76C193.69 322.27 194.26 321.12 194.36 320.68C194.42 320.58 194.01 320.28 193.74 319.96C193.46 319.63 193.24 319.26 193.09 318.85C192.09 316.33 194.36 313.43 197.02 313.62C199.67 313.62 201.8 316.56 200.69 319.04C200.47 319.6 200.02 320.13 199.62 320.54C199.53 320.67 199.56 320.64 199.62 320.8C202.19 326.23 209.13 340.93 211.78 346.55L211.32 346.57L217.6 330.23L217.68 330.5C216.36 329.55 215.4 327.86 215.8 326.19C217.88 319.59 227.16 324.77 222.18 330.04L222.2 329.79L231.84 345.68L231.55 345.63L249.29 330.76L250.4 329.83C250.59 329.67 250.74 329.55 250.7 329.39C250.23 328.27 250.21 326.86 250.92 325.82C252.56 323 257.3 323.73 258.01 326.92C258.54 328.88 257.35 331.19 255.29 331.58C255.05 331.64 254.77 331.65 254.56 331.67C254.34 331.7 254.25 331.79 254.16 332.02C254.01 332.46 253.88 332.94 253.75 333.4C250.71 343.67 245.24 362.16 242.27 372.24L241.45 375.01C241.3 375.46 241.23 375.97 240.9 376.38C240.54 376.84 239.92 376.95 239.39 376.9C212.08 370.58 182.06 370.82 155.41 377.61V377.62ZM155.57 377.15C155.82 377.23 156.11 377.26 156.37 377.23C183.57 370.97 212.18 370.41 239.43 376.72C239.8 376.74 240.49 376.67 240.75 376.26C241.04 375.91 241.12 375.42 241.26 374.96L242.07 372.18C245 362.16 250.47 343.5 253.46 333.31C253.68 332.73 253.7 332.06 254.1 331.55C254.43 331.28 254.86 331.4 255.21 331.29C258.2 330.72 258.73 326.23 256.06 324.85C253.49 323.24 249.91 325.64 250.79 328.63C250.9 328.95 251.17 329.47 250.88 329.8C250.78 329.95 232.28 345.49 231.61 346.06L231.49 345.87L221.82 330L221.74 329.86L221.85 329.74C224.4 327.24 222.95 323.42 219.33 323.54C215.81 323.93 215.1 328.23 217.94 330.12L218.08 330.23L218.02 330.39L211.77 346.74L211.56 347.29L211.31 346.76C208.61 341.07 201.7 326.52 199.09 321.03C199.05 320.93 198.99 320.81 198.99 320.63C198.99 320.43 199.1 320.28 199.17 320.19C200.14 319.3 200.68 317.98 200.27 316.69C198.86 312.37 192.3 314.19 193.65 318.64C193.85 319.17 194.16 319.59 194.59 319.97C194.73 320.11 194.97 320.34 194.96 320.7C194.88 321.28 194.66 321.53 194.52 321.92C192.26 327.05 185.91 341.58 183.57 346.92L183.26 347.64L182.96 346.92L176.13 330.58L176.03 330.33L176.23 330.17C178.98 328.13 178.09 324.25 174.68 323.92C173.26 323.8 171.82 324.71 171.31 326.02C170.8 327.35 171.52 328.83 172.52 329.93L172.7 330.13L172.57 330.37L163.47 346.33L163.24 346.73L162.88 346.44L144.88 331.92L143.75 331.01C143.32 330.66 142.84 330.41 142.98 329.79C143.33 328.85 143.4 327.83 142.9 326.94C141.71 324.46 137.62 324.73 136.84 327.38C136.23 329.23 137.46 331.48 139.48 331.64C139.83 331.7 140 331.61 140.39 331.85C140.74 332.14 140.72 332.39 140.85 332.72C145.01 345.04 151.03 363.77 155.1 375.95C155.24 376.35 155.42 376.59 155.72 376.68L155.56 377.15H155.57Z" fill="#FE40B4"/>
<path d="M140.49 330.79C141.64 331.11 141.86 332.69 142.21 333.63C142.8 335.4 144.41 340.36 145.03 342.21C148.15 351.64 152.22 364.29 155.32 373.68C155.47 374.07 155.91 375.53 156.03 375.84C169.22 372.97 183.92 370.98 197.88 370.96C211.88 370.76 226.5 372.58 239.82 375.51C239.93 375.4 239.96 375.07 240.05 374.85L240.45 373.5C243.7 362.49 249.09 344.22 252.4 333.05L252.81 331.69C252.96 330.93 253.8 330.26 254.62 330.28C256.18 330.26 257.13 328.48 256.6 327.08C256.04 325.42 253.65 324.89 252.44 326.17C251.84 326.76 251.6 327.68 251.87 328.47C252.03 328.88 252.23 329.47 252 330.02C251.79 330.57 251.33 330.89 250.99 331.17L248.84 332.98L231.6 347.43C231.29 347.69 231.42 347.66 231.22 347.37L220.63 329.9L220.53 329.74C221.04 329.25 221.53 328.75 221.85 328.15C222.96 326.46 221.33 324.32 219.43 324.52C217.49 324.6 216.39 327.08 217.67 328.57C218.07 329.11 218.64 329.52 219.23 329.9L219.17 330.06L211.88 349.02L211.74 349.38C210.79 347.9 210.08 346.25 209.33 344.67C208.02 341.88 204.44 334.31 203.07 331.43L198.9 322.6C198.61 321.93 197.94 320.98 198.24 320.2C198.58 319.39 199.37 319.05 199.52 318.17C200.1 315.61 196.61 313.93 194.9 315.93C194.1 316.79 194.01 318.2 194.8 319.09C196.13 320.21 195.84 321.07 195.15 322.48L191.21 331.41L183.35 349.29L183.25 349.52L183.15 349.29L175.22 330.2L175.19 330.14C175.73 329.75 176.26 329.32 176.64 328.78C179.09 325.19 172.94 322.64 171.82 326.68C171.66 328.01 172.62 329.15 173.5 330.06L173.47 330.1L163.5 347.51L163.48 347.55C162.68 347.13 161.99 346.52 161.3 345.96C157.53 342.91 150.69 337.36 146.86 334.27C145.49 333.15 144.1 332.06 142.75 330.91C142.01 330.18 142.75 329.22 142.72 328.37C142.73 326.5 140.58 325.24 138.91 325.95C137.13 326.56 136.66 329.01 137.92 330.34C138.54 331.06 139.46 331.15 140.33 331.27L140.49 330.8V330.79ZM140.33 331.26C139.46 331.13 138.52 331.05 137.92 330.33C136.67 328.99 137.11 326.53 138.91 325.92C140.61 325.2 142.75 326.46 142.76 328.35C142.8 329.2 142.05 330.14 142.79 330.87C144.13 332.01 145.53 333.1 146.9 334.22C149.71 336.49 156.6 342.03 159.3 344.21C160.47 345.17 162.39 346.72 163.44 347.45L173.37 330.02C172.65 329.51 171.48 327.89 171.69 326.64C172.35 323.54 177.03 323.85 177.38 326.97C177.49 328.37 176.4 329.47 175.36 330.21L175.39 330.11L183.36 349.18H183.16L190.99 331.28L194.91 322.34C195.2 321.6 195.72 320.84 195.36 320.15C194.98 319.49 194.13 318.97 194.03 318.11C193.63 316.36 195.22 314.63 196.98 314.73C198.72 314.71 200.27 316.48 199.84 318.23C199.72 319.08 198.87 319.61 198.56 320.29C198.31 320.98 198.92 321.71 199.21 322.45L203.4 331.27C205.89 336.31 209.23 343.97 211.88 348.84L211.53 348.87L218.78 329.9L218.86 330.15C217.73 329.46 216.6 328.31 216.68 326.86C216.75 325.43 217.96 324.16 219.4 324.08C221.63 323.85 223.56 326.36 222.26 328.37C221.93 328.98 221.46 329.49 220.99 329.94L221.02 329.66L231.65 347.11L231.27 347.05L248.48 332.56L250.63 330.75C251 330.44 251.34 330.18 251.47 329.83C251.61 329.49 251.5 329.11 251.33 328.66C250.54 326.54 252.8 324.4 254.89 324.96C257.75 325.49 258.26 329.75 255.42 330.75C254.99 330.92 254.48 330.84 254.07 331.02C253.36 331.28 253.29 332.36 252.98 333.23L246.64 354.81C245.18 359.78 242.54 368.81 241.11 373.7L240.72 375.05C240.61 375.43 240.53 376.04 240.03 376.19C239.82 376.24 239.7 376.24 239.54 376.25C225.89 373.12 211.88 371.63 197.88 371.77C183.88 371.9 169.9 373.65 156.26 376.76C156.07 376.76 155.94 376.76 155.67 376.66C155.41 376.55 155.26 376.3 155.21 376.16C155.09 375.85 155.04 375.66 154.95 375.41L154.48 373.98C151.37 364.61 147.24 351.95 144.12 342.53C143.53 340.69 141.86 335.75 141.28 333.96L140.81 332.53C140.67 332.09 140.5 331.85 140.18 331.75L140.34 331.28L140.33 331.26Z" fill="#FE40B4"/>
<path d="M198.738 318.053C199.066 317.08 198.53 316.02 197.541 315.687C196.552 315.353 195.484 315.872 195.156 316.845C194.828 317.819 195.364 318.878 196.353 319.212C197.342 319.545 198.41 319.026 198.738 318.053Z" fill="#FE40B4"/>
<path d="M221.482 327.668C221.81 326.695 221.274 325.635 220.285 325.302C219.296 324.968 218.228 325.487 217.9 326.461C217.572 327.434 218.107 328.494 219.097 328.827C220.086 329.16 221.154 328.642 221.482 327.668Z" fill="#FE40B4"/>
<path d="M256.046 328.373C256.374 327.399 255.838 326.34 254.849 326.006C253.86 325.673 252.792 326.192 252.464 327.165C252.136 328.139 252.671 329.198 253.661 329.532C254.65 329.865 255.718 329.346 256.046 328.373Z" fill="#FE40B4"/>
<path d="M176.337 327.689C176.665 326.715 176.13 325.656 175.14 325.322C174.151 324.989 173.083 325.508 172.755 326.481C172.427 327.455 172.963 328.514 173.952 328.848C174.941 329.181 176.009 328.662 176.337 327.689Z" fill="#FE40B4"/>
<path d="M141.693 329.062C142.021 328.088 141.485 327.029 140.496 326.696C139.507 326.362 138.439 326.881 138.111 327.854C137.783 328.828 138.318 329.887 139.308 330.221C140.297 330.554 141.365 330.035 141.693 329.062Z" fill="#FE40B4"/>
<path d="M205.944 361.404C207.422 357.018 205.002 352.243 200.538 350.738C196.074 349.233 191.256 351.568 189.778 355.954C188.299 360.339 190.719 365.115 195.184 366.619C199.648 368.124 204.465 365.789 205.944 361.404Z" fill="#00124C"/>
<path d="M202.674 360.301C203.555 357.69 202.113 354.846 199.455 353.95C196.796 353.054 193.927 354.444 193.047 357.056C192.166 359.667 193.608 362.511 196.266 363.407C198.925 364.303 201.794 362.913 202.674 360.301Z" fill="#FDF001"/>
<path d="M200.808 359.672C201.346 358.076 200.463 356.337 198.835 355.788C197.208 355.24 195.452 356.089 194.914 357.685C194.376 359.281 195.259 361.02 196.887 361.569C198.514 362.117 200.27 361.268 200.808 359.672Z" fill="#FE40B4"/>
<path d="M199.207 359.132C199.452 358.405 199.048 357.612 198.305 357.361C197.562 357.111 196.761 357.497 196.515 358.225C196.27 358.952 196.674 359.745 197.417 359.996C198.16 360.246 198.961 359.86 199.207 359.132Z" fill="#00124C"/>
<path d="M140.25 460.07C140.27 460.01 140.28 459.94 140.25 459.93C140.3 459.98 139.71 460.49 139.59 460.77C137.77 463.38 139.4 466.18 140.24 468.9C136.52 467.34 135.1 461.1 139.72 459.77C140.01 459.68 140.69 459.77 140.24 460.07H140.25Z" fill="#00124C"/>
<path d="M251.02 468.53C251 468.59 250.99 468.66 251.02 468.67C250.97 468.62 251.56 468.11 251.68 467.83C253.5 465.22 251.87 462.42 251.03 459.7C254.75 461.26 256.17 467.5 251.55 468.83C251.26 468.92 250.58 468.83 251.03 468.53H251.02Z" fill="#00124C"/>
</g>
<g clip-path="url(#clip1_264_3858)">
<path d="M33.6565 92.4658C31.8904 92.4967 30.224 92.5286 28.5593 92.5541C25.9192 92.5949 24.1052 90.7247 24.3356 88.2022C24.5605 85.7356 26.6937 83.7968 29.2956 83.7151C30.7819 83.6688 32.2667 83.6529 33.8446 83.6206C33.8861 81.9399 33.8828 80.3399 33.9747 78.7335C34.1677 75.3244 37.9293 73.0221 40.7716 74.572C42.1142 75.3031 42.8085 76.5048 42.7907 78.1211C42.7721 79.8701 42.7344 81.6215 42.702 83.4395C44.558 83.4077 46.3439 83.3378 48.1201 83.3544C51.142 83.383 52.8826 86.2771 51.6507 89.1626C50.9214 90.8712 49.2417 92.078 47.389 92.1691C45.8086 92.247 44.2324 92.2728 42.6535 92.3228C42.6282 92.3241 42.6001 92.3522 42.806 92.3551C42.6522 93.9369 42.329 95.5442 42.3852 97.0985C42.4603 99.1762 40.0756 101.542 38.1895 101.784C35.8696 102.078 33.7802 100.632 33.6294 98.3612C33.5199 96.7163 33.6411 95.0325 33.6566 93.3658C33.6593 93.1015 33.6568 92.8399 33.6565 92.4658V92.4658Z" fill="#FDF001"/>
</g>
<g clip-path="url(#clip2_264_3858)">
<path d="M90.6897 106.231C88.9236 106.262 87.2572 106.294 85.5925 106.319C82.9524 106.36 81.1384 104.49 81.3688 101.967C81.5937 99.5007 83.7269 97.5619 86.3288 97.4802C87.8151 97.4339 89.2999 97.418 90.8778 97.3858C90.9193 95.705 90.916 94.105 91.0079 92.4987C91.2009 89.0896 94.9625 86.7872 97.8048 88.3371C99.1474 89.0682 99.8417 90.2699 99.8239 91.8862C99.8053 93.6353 99.7676 95.3866 99.7352 97.2047C101.591 97.1728 103.377 97.1029 105.153 97.1196C108.175 97.1482 109.916 100.042 108.684 102.928C107.955 104.636 106.275 105.843 104.422 105.934C102.842 106.012 101.266 106.038 99.6867 106.088C99.6614 106.089 99.6333 106.117 99.8392 106.12C99.6854 107.702 99.3622 109.309 99.4184 110.864C99.4935 112.941 97.1088 115.307 95.2227 115.549C92.9028 115.843 90.8134 114.397 90.6626 112.126C90.5531 110.481 90.6743 108.798 90.6898 107.131C90.6925 106.867 90.69 106.605 90.6897 106.231V106.231Z" fill="#FDF001"/>
</g>
<g clip-path="url(#clip3_264_3858)">
<path d="M64.5765 44.6765C61.6329 44.728 58.8556 44.7811 56.0811 44.8236C51.6809 44.8915 48.6575 41.7747 49.0416 37.5705C49.4165 33.4595 52.9718 30.2281 57.3082 30.0919C59.7855 30.0147 62.2601 29.9882 64.8899 29.9345C64.959 27.1333 64.9536 24.4666 65.1068 21.7893C65.4284 16.1075 71.6978 12.2702 76.4349 14.8534C78.6725 16.0719 79.8298 18.0747 79.8001 20.7686C79.7691 23.6837 79.7063 26.6026 79.6523 29.6327C82.7455 29.5796 85.7221 29.4631 88.6825 29.4908C93.719 29.5385 96.6199 34.3619 94.5668 39.1712C93.3512 42.0188 90.5518 44.0301 87.4639 44.182C84.83 44.3118 82.2028 44.3548 79.5714 44.4381C79.5292 44.4403 79.4825 44.4871 79.8256 44.492C79.5693 47.1284 79.0305 49.8072 79.1243 52.3975C79.2495 55.8605 75.2749 59.803 72.1315 60.2064C68.265 60.6968 64.7826 58.2869 64.5313 54.5021C64.3487 51.7606 64.5508 48.9543 64.5766 46.1764C64.5811 45.7359 64.577 45.3 64.5765 44.6765V44.6765Z" fill="#FDF001"/>
</g>
<g clip-path="url(#clip4_264_3858)">
<path d="M103.586 555.299C104.621 555.281 105.597 555.262 106.573 555.247C108.12 555.223 109.182 556.319 109.047 557.797C108.916 559.242 107.666 560.378 106.141 560.426C105.27 560.453 104.4 560.462 103.476 560.481C103.451 561.466 103.453 562.404 103.4 563.345C103.286 565.342 101.082 566.691 99.417 565.783C98.6303 565.355 98.2234 564.651 98.2339 563.704C98.2448 562.679 98.2669 561.653 98.2858 560.587C97.1984 560.606 96.1519 560.647 95.1112 560.637C93.3405 560.621 92.3207 558.925 93.0425 557.234C93.4698 556.233 94.454 555.526 95.5396 555.472C96.4656 555.427 97.3892 555.412 98.3143 555.382C98.3291 555.382 98.3455 555.365 98.2249 555.363C98.315 554.437 98.5044 553.495 98.4715 552.584C98.4275 551.367 99.8248 549.981 100.93 549.839C102.289 549.666 103.513 550.514 103.602 551.844C103.666 552.808 103.595 553.795 103.586 554.771C103.584 554.926 103.586 555.079 103.586 555.299V555.299Z" fill="#FDF001"/>
</g>
<g clip-path="url(#clip5_264_3858)">
<path d="M70.168 547.233C71.2028 547.215 72.1792 547.196 73.1546 547.181C74.7016 547.157 75.7645 548.253 75.6295 549.731C75.4977 551.177 74.2477 552.313 72.7232 552.36C71.8523 552.388 70.9823 552.397 70.0578 552.416C70.0335 553.401 70.0354 554.338 69.9815 555.279C69.8685 557.277 67.6644 558.626 65.999 557.718C65.2123 557.289 64.8055 556.585 64.8159 555.638C64.8268 554.613 64.8489 553.587 64.8679 552.522C63.7804 552.541 62.734 552.582 61.6932 552.572C59.9225 552.555 58.9027 550.859 59.6245 549.169C60.0518 548.167 61.036 547.46 62.1216 547.407C63.0476 547.361 63.9712 547.346 64.8963 547.317C64.9112 547.316 64.9276 547.3 64.807 547.298C64.8971 546.371 65.0865 545.429 65.0535 544.519C65.0095 543.301 66.4068 541.915 67.5119 541.773C68.8712 541.601 70.0955 542.448 70.1839 543.779C70.2481 544.743 70.177 545.729 70.1679 546.706C70.1663 546.861 70.1678 547.014 70.168 547.233V547.233Z" fill="#FDF001"/>
</g>
<g clip-path="url(#clip6_264_3858)">
<path d="M85.4681 583.3C87.1929 583.27 88.8202 583.239 90.4459 583.214C93.0241 583.174 94.7956 585 94.5706 587.464C94.3509 589.873 92.2677 591.766 89.7269 591.846C88.2753 591.891 86.8254 591.907 85.2845 591.938C85.2439 593.579 85.2471 595.142 85.1574 596.711C84.9689 600.04 81.2955 602.288 78.5198 600.775C77.2087 600.061 76.5306 598.887 76.548 597.309C76.5662 595.601 76.603 593.89 76.6346 592.115C74.8222 592.146 73.0781 592.214 71.3435 592.198C68.3924 592.17 66.6927 589.344 67.8957 586.526C68.6079 584.857 70.2482 583.679 72.0575 583.59C73.6008 583.514 75.1401 583.489 76.682 583.44C76.7067 583.439 76.7341 583.411 76.5331 583.408C76.6832 581.864 76.9989 580.294 76.944 578.776C76.8706 576.747 79.1995 574.437 81.0414 574.201C83.3069 573.913 85.3473 575.325 85.4946 577.543C85.6016 579.149 85.4831 580.794 85.468 582.421C85.4654 582.679 85.4678 582.935 85.4681 583.3V583.3Z" fill="#FDF001"/>
</g>
<g clip-path="url(#clip7_264_3858)">
<path d="M312.552 147.725C311.366 147.745 310.247 147.767 309.13 147.784C307.358 147.811 306.14 146.556 306.295 144.863C306.446 143.207 307.878 141.905 309.624 141.85C310.622 141.819 311.619 141.809 312.678 141.787C312.706 140.659 312.704 139.585 312.765 138.506C312.895 136.218 315.42 134.672 317.328 135.713C318.229 136.203 318.695 137.01 318.683 138.095C318.671 139.269 318.646 140.445 318.624 141.665C319.87 141.644 321.069 141.597 322.261 141.608C324.29 141.628 325.458 143.57 324.631 145.507C324.141 146.654 323.014 147.464 321.77 147.526C320.709 147.578 319.651 147.595 318.591 147.629C318.574 147.63 318.555 147.648 318.694 147.65C318.59 148.712 318.373 149.791 318.411 150.835C318.462 152.229 316.861 153.817 315.595 153.98C314.037 154.177 312.635 153.207 312.533 151.682C312.46 150.578 312.541 149.448 312.552 148.329C312.554 148.151 312.552 147.976 312.552 147.725V147.725Z" fill="#FDF001"/>
</g>
<g clip-path="url(#clip8_264_3858)">
<path d="M350.837 156.965C349.652 156.986 348.533 157.007 347.416 157.024C345.643 157.052 344.426 155.796 344.58 154.103C344.731 152.447 346.163 151.146 347.91 151.091C348.908 151.06 349.904 151.049 350.964 151.027C350.991 149.899 350.989 148.825 351.051 147.747C351.18 145.458 353.706 143.913 355.614 144.953C356.515 145.444 356.981 146.251 356.969 147.336C356.957 148.51 356.931 149.685 356.91 150.906C358.155 150.884 359.354 150.838 360.547 150.849C362.575 150.868 363.744 152.811 362.917 154.748C362.427 155.895 361.3 156.705 360.056 156.766C358.995 156.818 357.937 156.836 356.877 156.869C356.86 156.87 356.841 156.889 356.979 156.891C356.876 157.953 356.659 159.032 356.697 160.075C356.747 161.47 355.146 163.058 353.88 163.22C352.323 163.418 350.92 162.447 350.819 160.923C350.746 159.818 350.827 158.688 350.837 157.569C350.839 157.392 350.838 157.216 350.837 156.965V156.965Z" fill="#FDF001"/>
</g>
<g clip-path="url(#clip9_264_3858)">
<path d="M333.308 115.644C331.332 115.679 329.468 115.714 327.605 115.743C324.651 115.788 322.622 113.696 322.88 110.874C323.131 108.114 325.518 105.945 328.429 105.854C330.092 105.802 331.753 105.784 333.519 105.748C333.565 103.867 333.561 102.077 333.664 100.28C333.88 96.4659 338.089 93.89 341.269 95.624C342.771 96.442 343.548 97.7865 343.528 99.5948C343.507 101.552 343.465 103.511 343.428 105.545C345.505 105.51 347.503 105.431 349.49 105.45C352.871 105.482 354.819 108.72 353.44 111.948C352.624 113.86 350.745 115.21 348.672 115.312C346.904 115.399 345.141 115.428 343.374 115.484C343.346 115.486 343.314 115.517 343.545 115.52C343.373 117.29 343.011 119.088 343.074 120.827C343.158 123.152 340.49 125.798 338.38 126.069C335.784 126.398 333.447 124.781 333.278 122.24C333.155 120.4 333.291 118.516 333.308 116.651C333.311 116.355 333.309 116.063 333.308 115.644V115.644Z" fill="#FDF001"/>
</g>
<g clip-path="url(#clip10_264_3858)">
<path d="M60.7238 354.964C59.8145 354.98 58.9565 354.997 58.0993 355.01C56.74 355.031 55.806 354.068 55.9246 352.769C56.0404 351.499 57.1388 350.501 58.4784 350.459C59.2437 350.435 60.0082 350.427 60.8206 350.41C60.842 349.545 60.8403 348.721 60.8877 347.894C60.987 346.138 62.9238 344.953 64.3873 345.751C65.0786 346.127 65.4361 346.746 65.4269 347.578C65.4173 348.479 65.3979 349.381 65.3812 350.317C66.3368 350.3 67.2564 350.264 68.171 350.273C69.7269 350.288 70.6231 351.778 69.9888 353.264C69.6133 354.143 68.7485 354.765 67.7945 354.812C66.9808 354.852 66.1692 354.865 65.3563 354.891C65.3432 354.891 65.3288 354.906 65.4348 354.907C65.3556 355.722 65.1892 356.549 65.2181 357.35C65.2568 358.419 64.0289 359.637 63.0578 359.762C61.8633 359.914 60.7875 359.169 60.7099 358C60.6535 357.153 60.7159 356.286 60.7239 355.428C60.7253 355.292 60.724 355.157 60.7238 354.964V354.964Z" fill="#FDF001"/>
</g>
<g clip-path="url(#clip11_264_3858)">
<path d="M90.0896 362.052C89.1802 362.068 88.3222 362.084 87.465 362.097C86.1057 362.118 85.1717 361.155 85.2903 359.857C85.4061 358.587 86.5045 357.588 87.8441 357.546C88.6095 357.522 89.3739 357.514 90.1864 357.498C90.2077 356.632 90.2061 355.808 90.2534 354.981C90.3527 353.226 92.2896 352.041 93.753 352.839C94.4443 353.215 94.8018 353.834 94.7926 354.666C94.783 355.566 94.7636 356.468 94.747 357.404C95.7026 357.388 96.6221 357.352 97.5367 357.361C99.0926 357.375 99.9888 358.865 99.3545 360.351C98.979 361.231 98.1142 361.852 97.1602 361.899C96.3465 361.939 95.5349 361.952 94.722 361.978C94.7089 361.979 94.6945 361.993 94.8005 361.995C94.7213 362.809 94.5549 363.637 94.5838 364.437C94.6225 365.507 93.3947 366.725 92.4235 366.85C91.229 367.001 90.1532 366.257 90.0756 365.087C90.0192 364.24 90.0816 363.373 90.0896 362.515C90.091 362.379 90.0897 362.244 90.0896 362.052V362.052Z" fill="#FDF001"/>
</g>
<g clip-path="url(#clip12_264_3858)">
<path d="M76.6445 330.358C75.1289 330.385 73.6989 330.412 72.2704 330.434C70.0048 330.469 68.4481 328.864 68.6458 326.699C68.8388 324.583 70.6695 322.919 72.9022 322.849C74.1777 322.809 75.4518 322.795 76.8059 322.768C76.8415 321.325 76.8387 319.952 76.9176 318.574C77.0832 315.648 80.3112 313.673 82.7503 315.003C83.9024 315.63 84.4983 316.661 84.483 318.048C84.467 319.549 84.4347 321.052 84.4069 322.612C85.9996 322.585 87.5321 322.525 89.0564 322.539C91.6497 322.564 93.1433 325.047 92.0861 327.524C91.4603 328.99 90.0189 330.025 88.429 330.104C87.0728 330.17 85.7201 330.193 84.3653 330.235C84.3435 330.237 84.3194 330.261 84.4961 330.263C84.3641 331.621 84.0868 333 84.135 334.334C84.1995 336.117 82.153 338.147 80.5345 338.354C78.5437 338.607 76.7507 337.366 76.6213 335.417C76.5272 334.006 76.6313 332.561 76.6446 331.131C76.6469 330.904 76.6448 330.679 76.6445 330.358V330.358Z" fill="#FDF001"/>
</g>
<g clip-path="url(#clip13_264_3858)">
<path d="M299.761 454.618C298.989 454.631 298.261 454.645 297.533 454.656C296.378 454.674 295.585 453.856 295.686 452.754C295.784 451.675 296.717 450.827 297.855 450.792C298.505 450.771 299.154 450.764 299.844 450.75C299.862 450.016 299.86 449.316 299.9 448.614C299.985 447.123 301.629 446.117 302.872 446.794C303.459 447.114 303.763 447.639 303.755 448.346C303.747 449.111 303.73 449.876 303.716 450.671C304.528 450.657 305.308 450.627 306.085 450.634C307.406 450.647 308.167 451.912 307.629 453.173C307.31 453.92 306.575 454.448 305.765 454.488C305.074 454.522 304.385 454.533 303.695 454.555C303.684 454.556 303.672 454.568 303.762 454.569C303.694 455.261 303.553 455.964 303.578 456.643C303.61 457.551 302.568 458.586 301.743 458.691C300.729 458.82 299.815 458.188 299.749 457.195C299.702 456.476 299.755 455.74 299.761 455.011C299.763 454.895 299.761 454.781 299.761 454.618V454.618Z" fill="#FDF001"/>
</g>
<g clip-path="url(#clip14_264_3858)">
<path d="M324.696 460.636C323.924 460.649 323.196 460.663 322.468 460.674C321.314 460.692 320.52 459.875 320.621 458.772C320.72 457.693 321.652 456.846 322.79 456.81C323.44 456.79 324.089 456.783 324.779 456.769C324.797 456.034 324.795 455.334 324.835 454.632C324.92 453.141 326.564 452.135 327.807 452.812C328.394 453.132 328.698 453.658 328.69 454.364C328.682 455.129 328.665 455.895 328.651 456.689C329.463 456.676 330.243 456.645 331.02 456.652C332.341 456.665 333.102 457.93 332.564 459.192C332.245 459.939 331.51 460.466 330.7 460.506C330.009 460.54 329.32 460.551 328.63 460.573C328.619 460.574 328.607 460.586 328.697 460.587C328.629 461.279 328.488 461.982 328.513 462.661C328.545 463.57 327.503 464.604 326.678 464.71C325.664 464.838 324.75 464.206 324.685 463.213C324.637 462.494 324.69 461.758 324.696 461.029C324.698 460.914 324.696 460.799 324.696 460.636V460.636Z" fill="#FDF001"/>
</g>
<g clip-path="url(#clip15_264_3858)">
<path d="M313.28 433.724C311.993 433.746 310.779 433.769 309.565 433.788C307.642 433.818 306.32 432.455 306.488 430.617C306.652 428.82 308.206 427.407 310.102 427.347C311.185 427.313 312.267 427.302 313.417 427.278C313.447 426.054 313.445 424.888 313.512 423.717C313.652 421.233 316.393 419.555 318.464 420.685C319.443 421.218 319.949 422.093 319.936 423.271C319.922 424.545 319.895 425.822 319.871 427.146C321.223 427.123 322.525 427.072 323.819 427.084C326.021 427.105 327.289 429.214 326.392 431.317C325.86 432.562 324.636 433.441 323.286 433.507C322.135 433.564 320.986 433.583 319.836 433.619C319.817 433.62 319.797 433.641 319.947 433.643C319.835 434.796 319.599 435.967 319.64 437.099C319.695 438.613 317.957 440.337 316.583 440.514C314.892 440.728 313.37 439.674 313.26 438.02C313.18 436.821 313.269 435.594 313.28 434.379C313.282 434.187 313.28 433.996 313.28 433.724V433.724Z" fill="#FDF001"/>
</g>
<defs>
<linearGradient id="paint0_linear_264_3858" x1="151.74" y1="528.57" x2="199.41" y2="-17.58" gradientUnits="userSpaceOnUse">
<stop stop-color="#00124C"/>
<stop offset="0.36" stop-color="#001559"/>
<stop offset="1" stop-color="#001E7D"/>
</linearGradient>
<linearGradient id="paint1_linear_264_3858" x1="236.455" y1="464.959" x2="261.095" y2="464.959" gradientUnits="userSpaceOnUse">
<stop stop-color="#00124C"/>
<stop offset="0.36" stop-color="#001559"/>
<stop offset="1" stop-color="#001E7D"/>
</linearGradient>
<linearGradient id="paint2_linear_264_3858" x1="130.728" y1="464.947" x2="155.368" y2="464.947" gradientUnits="userSpaceOnUse">
<stop stop-color="#00124C"/>
<stop offset="0.36" stop-color="#001559"/>
<stop offset="1" stop-color="#001E7D"/>
</linearGradient>
<linearGradient id="paint3_linear_264_3858" x1="189.8" y1="356.44" x2="199.15" y2="508.87" gradientUnits="userSpaceOnUse">
<stop stop-color="#FA4E8F"/>
<stop offset="0.04" stop-color="#FA5795"/>
<stop offset="0.18" stop-color="#FC77AA"/>
<stop offset="0.32" stop-color="#FD90BA"/>
<stop offset="0.48" stop-color="#FEA2C6"/>
<stop offset="0.64" stop-color="#FEADCD"/>
<stop offset="0.82" stop-color="#FFB1D0"/>
</linearGradient>
<linearGradient id="paint4_linear_264_3858" x1="188.73" y1="515.33" x2="201.43" y2="369.75" gradientUnits="userSpaceOnUse">
<stop stop-color="#00124C"/>
<stop offset="0.36" stop-color="#001559"/>
<stop offset="1" stop-color="#001E7D"/>
</linearGradient>
<linearGradient id="paint5_linear_264_3858" x1="167.32" y1="448.85" x2="168.46" y2="435.81" gradientUnits="userSpaceOnUse">
<stop stop-color="#00124C"/>
<stop offset="0.36" stop-color="#001559"/>
<stop offset="1" stop-color="#001E7D"/>
</linearGradient>
<linearGradient id="paint6_linear_264_3858" x1="220.28" y1="448.82" x2="221.42" y2="435.78" gradientUnits="userSpaceOnUse">
<stop stop-color="#00124C"/>
<stop offset="0.36" stop-color="#001559"/>
<stop offset="1" stop-color="#001E7D"/>
</linearGradient>
<clipPath id="clip0_264_3858">
<rect width="391.14" height="596.01" fill="white" transform="translate(-1 -1)"/>
</clipPath>
<clipPath id="clip1_264_3858">
<rect width="22.9461" height="21.455" fill="white" transform="translate(22.4854 88.4854) rotate(-45)"/>
</clipPath>
<clipPath id="clip2_264_3858">
<rect width="22.9461" height="21.455" fill="white" transform="translate(79.5186 102.25) rotate(-45)"/>
</clipPath>
<clipPath id="clip3_264_3858">
<rect width="38.2435" height="35.7584" fill="white" transform="translate(45.958 38.0423) rotate(-45)"/>
</clipPath>
<clipPath id="clip4_264_3858">
<rect width="13.445" height="12.5713" fill="white" transform="translate(110.131 557.631) rotate(135)"/>
</clipPath>
<clipPath id="clip5_264_3858">
<rect width="13.445" height="12.5713" fill="white" transform="translate(76.7134 549.565) rotate(135)"/>
</clipPath>
<clipPath id="clip6_264_3858">
<rect width="22.4083" height="20.9522" fill="white" transform="translate(96.3774 587.187) rotate(135)"/>
</clipPath>
<clipPath id="clip7_264_3858">
<rect width="15.4036" height="14.4026" fill="white" transform="translate(305.053 145.053) rotate(-45)"/>
</clipPath>
<clipPath id="clip8_264_3858">
<rect width="15.4036" height="14.4026" fill="white" transform="translate(343.338 154.293) rotate(-45)"/>
</clipPath>
<clipPath id="clip9_264_3858">
<rect width="25.6726" height="24.0043" fill="white" transform="translate(320.81 111.191) rotate(-45)"/>
</clipPath>
<clipPath id="clip10_264_3858">
<rect width="11.8147" height="11.0469" fill="white" transform="translate(54.9722 352.915) rotate(-45)"/>
</clipPath>
<clipPath id="clip11_264_3858">
<rect width="11.8147" height="11.0469" fill="white" transform="translate(84.3379 360.002) rotate(-45)"/>
</clipPath>
<clipPath id="clip12_264_3858">
<rect width="19.6911" height="18.4115" fill="white" transform="translate(67.0581 326.942) rotate(-45)"/>
</clipPath>
<clipPath id="clip13_264_3858">
<rect width="10.0322" height="9.38032" fill="white" transform="translate(294.877 452.877) rotate(-45)"/>
</clipPath>
<clipPath id="clip14_264_3858">
<rect width="10.0322" height="9.38032" fill="white" transform="translate(319.812 458.896) rotate(-45)"/>
</clipPath>
<clipPath id="clip15_264_3858">
<rect width="16.7204" height="15.6339" fill="white" transform="translate(305.14 430.823) rotate(-45)"/>
</clipPath>
</defs>
</svg>
