<svg width="390" height="604" viewBox="0 0 390 604" fill="none" xmlns="http://www.w3.org/2000/svg">
<g clip-path="url(#clip0_264_3864)">
<path d="M374.25 89.69C372.05 78.25 369.98 67.45 369.38 57.59C366.38 8.38 389.77 0.29 390.01 0.21L389.83 -1C389.58 -0.92 383.63 1.05 377.99 9.3C368.58 23.05 367.66 43.21 368.54 57.7C369.15 67.67 371.23 78.52 373.44 90.02C377.62 111.78 382.25 135.89 379.48 163.79C376.93 137.85 368.08 115.12 360.27 87.73C342.95 27.02 371.68 -0.39 371.68 -0.39H0C9.63 64.56 32.62 74.38 50.46 91.78C56.46 104.38 60.17 118.27 58.67 135.84C56.69 159.02 44.35 180.85 32.41 201.97C28.64 208.65 24.92 215.23 21.56 221.76C5.17 247.2 -4 274.38 17.64 305.14C18.57 307.34 19.48 309.39 20.37 311.36C27.98 328.4 33.48 340.72 26.8 403.39C22.82 440.76 28.09 471.46 42.04 492.18C52.28 507.38 66.98 516.86 84.25 519.91C102.99 527.82 125.32 524.52 145.18 516.45C176.77 503.61 210.11 504.39 241.81 516.62C254.99 521.7 270.47 526.09 286.28 523.19C308.2 520.86 330.98 503.78 344.87 478.04C356.39 456.7 367.19 419.86 353.26 365.52C345.58 335.54 343.7 311.96 345.12 292.15C345.89 290.38 346.72 288.63 347.63 286.89C375.03 234.2 381.95 198.75 379.83 168.21C383.57 138.26 378.66 112.67 374.24 89.68L374.25 89.69ZM33.07 202.76C45.08 181.51 57.5 159.54 59.51 136C60.94 119.24 57.75 105.82 52.37 93.7C59.53 101.11 65.72 110.18 69.63 125.26C77.29 154.77 48.35 183.26 26.7 214.13C28.76 210.37 30.9 206.58 33.06 202.76H33.07ZM42.65 491.32C28.89 470.89 23.71 440.56 27.64 403.59C34.36 340.45 28.79 327.97 21.08 310.7C20.75 309.97 20.42 309.23 20.09 308.48C20.32 308.78 20.55 309.08 20.78 309.38C60.82 360.18 16.92 443.99 62.49 502.93C67.52 509.44 73.3 514.25 79.56 517.67C64.56 513.86 51.79 504.91 42.65 491.33V491.32ZM352.47 365.96C366.26 419.76 355.59 456.19 344.21 477.28C333.57 497 317.65 511.58 300.94 518.23C305.66 515.84 310.35 512.62 314.96 508.39C380.17 448.67 317.17 361.99 344.08 294.64C343 314.06 345.06 337.05 352.47 365.95V365.96Z" fill="url(#paint0_linear_264_3864)"/>
<path d="M30.0801 595.01H363.83C363.83 595.01 341.26 523.92 262.12 538.97C262.12 538.97 194.98 570.87 124.88 538.97C124.88 538.97 65.2101 525.41 30.0801 595.01Z" fill="#FE40B4"/>
<path d="M260.922 467.77C262.464 461.284 258.456 454.777 251.97 453.236C245.485 451.694 238.978 455.702 237.437 462.188C235.895 468.673 239.903 475.18 246.388 476.722C252.874 478.263 259.381 474.255 260.922 467.77Z" fill="#FDF001" stroke="url(#paint1_linear_264_3864)" stroke-width="0.5" stroke-miterlimit="10"/>
<path d="M249.17 475.31C249.6 475.45 249.86 475.6 249.93 476.05L250.21 476.94C250.3 477.23 250.55 477.99 250.64 478.27C250.54 478.46 250.45 478.66 250.31 478.87C250.07 478.78 249.89 478.68 249.7 478.58C249.61 478.3 249.37 477.54 249.27 477.25L248.99 476.36C248.78 475.96 248.9 475.68 249.18 475.32L249.17 475.31Z" fill="url(#paint2_linear_264_3864)"/>
<path d="M252.16 474.6C252.65 474.75 252.93 474.96 253.04 475.44L253.47 476.47C253.61 476.81 253.98 477.69 254.11 478.02C254.04 478.25 253.98 478.48 253.87 478.72C253.62 478.62 253.41 478.51 253.2 478.39C253.06 478.07 252.7 477.18 252.56 476.84L252.13 475.81C251.87 475.39 251.92 475.04 252.16 474.59V474.6Z" fill="url(#paint3_linear_264_3864)"/>
<path d="M254.861 473.75C255.291 473.76 255.581 473.81 255.741 474.21L256.201 474.94C256.351 475.18 256.751 475.8 256.891 476.03C256.841 476.23 256.791 476.43 256.701 476.66C256.461 476.64 256.261 476.6 256.051 476.56C255.901 476.33 255.511 475.7 255.361 475.47L254.901 474.74C254.611 474.42 254.681 474.14 254.861 473.75V473.75Z" fill="url(#paint4_linear_264_3864)"/>
<path d="M151.993 473.48C156.707 468.766 156.707 461.124 151.993 456.41C147.279 451.696 139.637 451.696 134.923 456.41C130.21 461.124 130.21 468.766 134.923 473.48C139.637 478.193 147.279 478.193 151.993 473.48Z" fill="#FDF001" stroke="url(#paint5_linear_264_3864)" stroke-width="0.5" stroke-miterlimit="10"/>
<path d="M136.19 472.47C136.25 472.98 136.17 473.33 135.77 473.64L134.99 474.47C134.73 474.74 134.07 475.45 133.82 475.72C133.58 475.76 133.34 475.8 133.07 475.8C133.06 475.53 133.07 475.29 133.1 475.05C133.34 474.79 134.01 474.07 134.27 473.8L135.05 472.97C135.33 472.56 135.68 472.45 136.19 472.48V472.47Z" fill="url(#paint6_linear_264_3864)"/>
<path d="M135.44 477.02C135.36 476.48 135.45 476.11 135.84 475.76L136.62 474.81C136.88 474.5 137.54 473.69 137.79 473.38C138.04 473.32 138.28 473.25 138.56 473.22C138.58 473.5 138.56 473.75 138.56 474.01C138.32 474.31 137.65 475.12 137.39 475.44L136.61 476.39C136.34 476.84 135.99 477 135.45 477.03L135.44 477.02Z" fill="url(#paint7_linear_264_3864)"/>
<path d="M138.77 478.16C138.5 477.74 138.42 477.42 138.65 476.99L139 475.98C139.12 475.65 139.41 474.79 139.52 474.47C139.72 474.35 139.92 474.23 140.16 474.13C140.29 474.36 140.37 474.58 140.45 474.8C140.34 475.12 140.04 475.98 139.93 476.31L139.58 477.32C139.5 477.79 139.23 478 138.76 478.17L138.77 478.16Z" fill="url(#paint8_linear_264_3864)"/>
<path d="M264.12 538.98C264.12 538.98 258.01 555.67 241.59 568.81C230.95 577.34 215.95 584.36 195.5 584.36C175.05 584.36 160.05 577.34 149.4 568.81C132.98 555.67 126.88 538.98 126.88 538.98C144.9 539.63 157.21 531.68 165.51 521.78C166.17 520.98 166.82 520.17 167.43 519.35C178.72 504.41 181.66 486.4 181.66 486.4H209.33C209.33 486.4 212.27 504.41 223.56 519.35C224.16 520.17 224.81 520.98 225.48 521.78C233.79 531.68 246.1 539.63 264.12 538.98V538.98Z" fill="#3E4BF6"/>
<path d="M264.12 538.98C264.12 538.98 258.01 555.67 241.59 568.81C230.95 577.34 215.95 584.36 195.5 584.36C175.05 584.36 160.05 577.34 149.4 568.81C132.98 555.67 126.88 538.98 126.88 538.98C144.9 539.63 157.21 531.68 165.51 521.78C166.17 520.98 166.82 520.17 167.43 519.35C178.72 504.41 181.66 486.4 181.66 486.4H209.33C209.33 486.4 212.27 504.41 223.56 519.35C224.16 520.17 224.81 520.98 225.48 521.78C233.79 531.68 246.1 539.63 264.12 538.98V538.98Z" fill="#FF71C8"/>
<path d="M223.57 519.35C215.46 524.52 205.83 527.51 195.51 527.51C185.19 527.51 175.55 524.51 167.44 519.35C178.73 504.41 181.67 486.4 181.67 486.4H209.34C209.34 486.4 212.28 504.41 223.57 519.35V519.35Z" fill="#FE40B4"/>
<path d="M247.79 422.2C247.79 393.315 224.377 369.9 195.495 369.9C166.613 369.9 143.2 393.315 143.2 422.2V462.88C143.2 491.764 166.613 515.18 195.495 515.18C224.377 515.18 247.79 491.764 247.79 462.88V422.2Z" fill="url(#paint9_linear_264_3864)"/>
<path d="M247.79 422.2C247.79 393.315 224.377 369.9 195.495 369.9C166.613 369.9 143.2 393.315 143.2 422.2V462.88C143.2 491.764 166.613 515.18 195.495 515.18C224.377 515.18 247.79 491.764 247.79 462.88V422.2Z" fill="#FDF001" stroke="url(#paint10_linear_264_3864)" stroke-miterlimit="10"/>
<path d="M168.906 480.917C172.476 477.348 172.476 471.561 168.906 467.991C165.337 464.422 159.55 464.422 155.981 467.991C152.411 471.561 152.411 477.348 155.981 480.917C159.55 484.487 165.337 484.487 168.906 480.917Z" fill="#FE40B4"/>
<path d="M237.477 481.381C241.097 477.863 241.18 472.077 237.662 468.457C234.144 464.837 228.358 464.754 224.737 468.272C221.117 471.79 221.034 477.576 224.552 481.196C228.07 484.816 233.857 484.899 237.477 481.381Z" fill="#FE40B4"/>
<path d="M196.5 414.05C199.02 425.94 201.48 439.02 203.89 450.85C204.78 454.98 205.38 459.16 205.83 463.36C205.92 464.11 205.28 464.78 204.52 464.73C202.6 464.62 200.68 464.48 198.76 464.3C196.84 464.11 194.92 463.89 193 463.57C192.84 463.54 192.84 463.3 193 463.27C196.82 462.65 200.66 462.34 204.52 462.11L203.23 463.63C201.31 455.5 200.64 447.16 199.43 438.91C198.42 431.71 197.11 421.41 196.21 414.09C196.18 413.92 196.47 413.85 196.5 414.04V414.05Z" fill="#00124C"/>
<path d="M198.84 498.89C201.364 498.89 203.411 495.689 203.411 491.74C203.411 487.791 201.364 484.59 198.84 484.59C196.317 484.59 194.271 487.791 194.271 491.74C194.271 495.689 196.317 498.89 198.84 498.89Z" fill="#FF9FDA"/>
<path d="M215.571 496.69C204.511 490.62 193.141 490.49 182.121 496.69C182.051 496.74 181.931 496.74 181.881 496.65C181.851 496.59 181.861 496.53 181.901 496.48C188.321 489.34 199.351 487.1 208.081 491.05C211.011 492.27 213.581 494.22 215.781 496.48C215.901 496.62 215.731 496.81 215.571 496.69V496.69Z" fill="#00124C"/>
<path d="M217.16 494.27C217.28 496.39 216.13 498.4 214.27 499.4C214.23 499.43 214.16 499.41 214.18 499.35C214.86 498.05 216.31 495.48 217.07 494.22C217.1 494.17 217.17 494.22 217.16 494.27Z" fill="#00124C"/>
<path d="M183.101 498.32C181.371 497.76 180.281 496.07 180.451 494.27C180.451 494.22 180.491 494.17 180.531 494.22C181.231 495.2 182.56 497.24 183.18 498.27C183.21 498.32 183.141 498.35 183.101 498.32Z" fill="#00124C"/>
<path d="M180.93 442.33C180.93 442.33 180.95 442.31 180.95 442.3C180.94 442.3 180.93 442.3 180.92 442.32C175.12 434.36 161.42 434.3 155.65 442.32C155.64 442.32 155.63 442.32 155.62 442.31C155.62 442.31 155.64 442.33 155.64 442.34C155.64 442.34 155.62 442.36 155.62 442.37C155.63 442.37 155.64 442.37 155.65 442.35C161.45 450.31 175.15 450.37 180.92 442.35C180.93 442.35 180.94 442.35 180.95 442.36C180.95 442.36 180.93 442.34 180.93 442.33ZM155.68 442.33C163.75 438.29 172.82 438.32 180.9 442.33C172.83 446.37 163.76 446.34 155.68 442.33Z" fill="#00124C" stroke="url(#paint11_linear_264_3864)" stroke-miterlimit="10"/>
<path d="M168.04 439.31C166.37 439.31 165.02 440.66 165.02 442.33C165.02 444 166.37 445.35 168.04 445.35C169.71 445.35 171.06 444 171.06 442.33C171.06 440.66 169.71 439.31 168.04 439.31ZM167.55 442.54C167.01 442.54 166.57 442.1 166.57 441.56C166.57 441.02 167.01 440.58 167.55 440.58C168.09 440.58 168.53 441.02 168.53 441.56C168.53 442.1 168.09 442.54 167.55 442.54ZM168.72 443.83C168.48 443.83 168.29 443.64 168.29 443.4C168.29 443.16 168.48 442.97 168.72 442.97C168.96 442.97 169.15 443.16 169.15 443.4C169.15 443.64 168.96 443.83 168.72 443.83Z" fill="#00124C"/>
<path d="M233.88 442.3C233.88 442.3 233.9 442.28 233.9 442.27C233.89 442.27 233.88 442.27 233.87 442.29C228.07 434.33 214.37 434.27 208.6 442.29C208.59 442.29 208.58 442.29 208.57 442.28C208.57 442.28 208.59 442.3 208.59 442.31C208.59 442.31 208.57 442.33 208.57 442.34C208.58 442.34 208.59 442.34 208.6 442.32C214.4 450.28 228.1 450.34 233.87 442.32C233.88 442.32 233.89 442.32 233.9 442.33C233.9 442.33 233.88 442.31 233.88 442.3ZM208.63 442.3C216.7 438.26 225.77 438.29 233.85 442.3C225.78 446.34 216.71 446.31 208.63 442.3Z" fill="#00124C" stroke="url(#paint12_linear_264_3864)" stroke-miterlimit="10"/>
<path d="M221 439.28C219.33 439.28 217.98 440.63 217.98 442.3C217.98 443.97 219.33 445.32 221 445.32C222.67 445.32 224.02 443.97 224.02 442.3C224.02 440.63 222.67 439.28 221 439.28ZM220.51 442.51C219.97 442.51 219.53 442.07 219.53 441.53C219.53 440.99 219.97 440.55 220.51 440.55C221.05 440.55 221.49 440.99 221.49 441.53C221.49 442.07 221.05 442.51 220.51 442.51ZM221.68 443.8C221.44 443.8 221.25 443.61 221.25 443.37C221.25 443.13 221.44 442.94 221.68 442.94C221.92 442.94 222.11 443.13 222.11 443.37C222.11 443.61 221.92 443.8 221.68 443.8Z" fill="#00124C"/>
<path d="M165.63 532.98C160.8 534.44 166.07 540.26 167.02 553.49C160.19 545.99 153.22 539.55 147.68 535.31C145.12 536.4 142.38 537.29 139.45 537.92C143.4 544.07 150.36 551.97 152.06 556.44C151.56 555.88 133.77 535.93 128.47 540.38C124.87 543.4 141.49 557.99 145.91 567.14C145.91 567.14 126.01 545.04 122.35 548.18C117.96 551.95 134.71 567.81 139.2 575.75C138.27 574.56 123.25 555.29 118.7 555.54C114.45 555.77 123.19 573.56 140.94 595H194.63C182.06 565.69 170.9 531.38 165.63 532.97V532.98Z" fill="#FF71C8"/>
<path d="M256.42 595.01C274.26 576.01 283.37 560.23 279.32 559.7C274.8 559.1 258.37 577.19 257.36 578.31C262.44 570.73 280.33 556.17 276.24 552.08C272.83 548.67 251.32 569.21 251.32 569.21C256.42 560.42 274.1 547.12 270.73 543.84C265.78 539.01 246.54 557.56 246 558.08C248.21 553.36 257 545.02 261.1 538.99C257.57 538.93 254.27 538.52 251.19 537.84C245.47 541.66 238.36 547.35 231.3 554.01C233.24 540.89 238.94 535.48 234.23 533.66C228.99 531.64 214.83 566.39 199.76 595.01H256.42Z" fill="#FF71C8"/>
<path d="M195.96 587.97L195.98 588C182.86 558.06 171.09 521.2 165.63 522.85C160.8 524.31 166.07 530.13 167.02 543.36C152.9 527.87 138.15 516.85 136.81 520.54C135.12 525.18 149.52 539.62 152.06 546.31C151.56 545.75 133.77 525.8 128.47 530.25C124.87 533.27 141.49 547.86 145.91 557.01C145.91 557.01 126.01 534.91 122.35 538.05C117.96 541.82 134.71 557.68 139.2 565.62C138.27 564.43 123.25 545.16 118.7 545.41C114 545.67 125.18 567.39 146.87 591.78C147.74 592.76 148.55 593.85 149.33 595.01H194.58C195.35 593.41 196.14 591.81 196.94 590.24C196.61 589.48 196.29 588.72 195.95 587.96L195.96 587.97Z" fill="#FDF001"/>
<path d="M195.96 587.97L195.98 588C182.86 558.06 171.09 521.2 165.63 522.85C160.8 524.31 166.07 530.13 167.02 543.36C152.9 527.87 138.15 516.85 136.81 520.54C135.12 525.18 149.52 539.62 152.06 546.31C151.56 545.75 133.77 525.8 128.47 530.25C124.87 533.27 141.49 547.86 145.91 557.01C145.91 557.01 126.01 534.91 122.35 538.05C117.96 541.82 134.71 557.68 139.2 565.62C138.27 564.43 123.25 545.16 118.7 545.41C114 545.67 125.18 567.39 146.87 591.78C147.74 592.76 148.55 593.85 149.33 595.01H194.58C195.35 593.41 196.14 591.81 196.94 590.24C196.61 589.48 196.29 588.72 195.95 587.96L195.96 587.97Z" fill="#FDF001"/>
<path d="M279.32 549.56C274.8 548.96 258.37 567.05 257.36 568.17C262.44 560.59 280.33 546.03 276.24 541.94C272.83 538.53 251.32 559.07 251.32 559.07C256.42 550.28 274.1 536.98 270.73 533.7C265.78 528.87 246.54 547.42 246 547.94C249.04 541.45 264.48 528.14 263.15 523.39C262.08 519.61 246.55 529.48 231.3 543.87C233.24 530.75 238.94 525.34 234.23 523.52C228.91 521.46 214.39 557.34 199.06 586.2L199.08 586.17C198.36 587.51 197.65 588.87 196.95 590.24C196.14 591.82 195.36 593.41 194.59 595.01H246.46C246.88 594.55 247.31 594.1 247.74 593.67C271.21 570.98 283.99 550.16 279.32 549.55V549.56Z" fill="#FDF001"/>
<path d="M279.32 549.56C274.8 548.96 258.37 567.05 257.36 568.17C262.44 560.59 280.33 546.03 276.24 541.94C272.83 538.53 251.32 559.07 251.32 559.07C256.42 550.28 274.1 536.98 270.73 533.7C265.78 528.87 246.54 547.42 246 547.94C249.04 541.45 264.48 528.14 263.15 523.39C262.08 519.61 246.55 529.48 231.3 543.87C233.24 530.75 238.94 525.34 234.23 523.52C228.91 521.46 214.39 557.34 199.06 586.2L199.08 586.17C198.36 587.51 197.65 588.87 196.95 590.24C196.14 591.82 195.36 593.41 194.59 595.01H246.46C246.88 594.55 247.31 594.1 247.74 593.67C271.21 570.98 283.99 550.16 279.32 549.55V549.56Z" fill="#FDF001"/>
<path d="M143.2 374.15V438.37H148.67V439.07C148.79 439.07 161.09 438.96 169.61 429.1C176.64 420.97 179.16 408.74 177.13 392.73C185.45 417.02 206.27 434.98 231.62 439.59L247.79 442.53V374.14H143.2V374.15Z" fill="#FFF983"/>
<path d="M133.67 359.54C117.47 380.89 121.85 408.03 133.67 437.26H140.29V438.11C140.44 438.11 155.31 437.97 165.63 426.05C174.14 416.21 177.18 401.41 174.73 382.04C184.8 411.43 209.99 433.17 240.68 438.75L260.25 442.3C273.39 413.04 275.22 385.22 260.25 359.54C182.66 317.65 182.8 330.51 133.68 359.54H133.67ZM164.99 425.48C156.86 434.89 145.81 436.78 141.81 437.16C148.32 434.69 173.54 422.61 174.03 383.35C176.18 401.87 173.15 416.04 164.98 425.48H164.99Z" fill="#FE40B4"/>
<path d="M173.08 330.12C171.18 328.12 171 326.23 172.54 324.86C173.9 323.65 176.05 323.8 177.24 325.18C178.59 326.76 178.19 328.75 176.13 330.3C178.56 336.12 181 341.97 183.51 348.01C185.34 343.84 187.07 339.89 188.8 335.94C190.92 331.12 193.02 326.29 195.16 321.48C195.46 320.81 195.55 320.38 194.88 319.78C193.53 318.57 193.59 316.58 194.84 315.34C196.11 314.09 198.19 314.09 199.47 315.34C200.76 316.6 200.81 318.51 199.53 319.79C199.09 320.23 198.88 320.52 199.2 321.2C203.33 329.86 207.42 338.54 211.52 347.22C211.59 347.38 211.69 347.52 211.86 347.82C214.15 341.84 216.39 336 218.63 330.15C216.23 328.54 216.21 326.28 217.52 324.83C218.72 323.5 220.81 323.46 222.13 324.69C223.64 326.09 223.49 328.01 221.66 329.84C225 335.34 228.36 340.87 231.79 346.51C233.3 345.25 234.73 344.06 236.15 342.86C241.12 338.68 246.07 334.48 251.06 330.32C251.63 329.85 251.68 329.5 251.42 328.83C250.76 327.11 251.81 325.24 253.6 324.78C255.44 324.31 257.34 325.48 257.68 327.28C258.03 329.17 256.81 330.95 254.92 331.05C254.04 331.1 253.88 331.56 253.7 332.18C252.25 337.1 250.8 342.01 249.35 346.93C246.54 356.46 243.73 365.98 240.94 375.52C240.74 376.2 240.42 376.37 239.75 376.37C212.32 370.04 184.56 370.41 156.5 376.79C155.8 376.79 155.52 376.57 155.31 375.92C151.28 363.6 147.23 351.28 143.18 338.97C142.47 336.82 141.75 334.68 141.05 332.53C140.87 331.97 140.67 331.69 139.96 331.66C137.99 331.57 136.71 329.85 137 327.89C137.27 326.1 139.14 324.92 141 325.37C142.84 325.82 143.9 327.71 143.26 329.5C143.07 330.03 143.04 330.35 143.54 330.76C150.07 336.02 156.59 341.3 163.11 346.58C163.19 346.65 163.29 346.69 163.53 346.84C166.71 341.27 169.89 335.7 173.06 330.15L173.08 330.12Z" fill="#FDF001"/>
<path d="M155.66 377.62C154.52 377.32 154.31 375.81 153.97 374.89L153.07 372.14C149.83 362.22 143.79 343.76 140.48 333.67L140.11 332.56C137.42 332.62 135.36 329.73 136.25 327.11C138.09 322.1 145.72 324.51 144.15 329.67C144.11 329.8 144.07 329.9 144.05 329.98C144.05 330.01 144.05 330.03 144.05 329.99C144.05 329.95 144.02 329.91 144.03 329.93C144.11 330.01 144.37 330.21 144.54 330.35L145.66 331.26L163.63 345.82L163.04 345.93L172.17 329.99L172.21 330.42C171.11 329.2 170.23 327.43 170.87 325.76C172.31 322.12 177.74 322.47 178.73 326.23C179.21 327.94 178.22 329.67 176.93 330.71L177.03 330.3L183.83 346.66H183.21C184.62 343.45 191.51 327.79 192.78 324.93L193.74 322.76C193.94 322.27 194.51 321.12 194.61 320.68C194.67 320.58 194.26 320.28 193.99 319.96C193.71 319.63 193.49 319.26 193.34 318.85C192.34 316.33 194.61 313.43 197.27 313.62C199.92 313.62 202.05 316.56 200.94 319.04C200.72 319.6 200.27 320.13 199.87 320.54C199.78 320.67 199.81 320.64 199.87 320.8C202.44 326.23 209.38 340.93 212.03 346.55L211.57 346.57L217.85 330.23L217.93 330.5C216.61 329.55 215.65 327.86 216.05 326.19C218.13 319.59 227.41 324.77 222.43 330.04L222.45 329.79L232.09 345.68L231.8 345.63L249.54 330.76L250.65 329.83C250.84 329.67 250.99 329.55 250.95 329.39C250.48 328.27 250.46 326.86 251.17 325.82C252.81 323 257.55 323.73 258.26 326.92C258.79 328.88 257.6 331.19 255.54 331.58C255.3 331.64 255.02 331.65 254.81 331.67C254.59 331.7 254.5 331.79 254.41 332.02C254.26 332.46 254.13 332.94 254 333.4C250.96 343.67 245.49 362.16 242.52 372.24L241.7 375.01C241.55 375.46 241.48 375.97 241.15 376.38C240.79 376.84 240.17 376.95 239.64 376.9C212.33 370.58 182.31 370.82 155.66 377.61V377.62ZM155.82 377.15C156.07 377.23 156.36 377.26 156.62 377.23C183.82 370.97 212.43 370.41 239.68 376.72C240.05 376.74 240.74 376.67 241 376.26C241.29 375.91 241.37 375.42 241.51 374.96L242.32 372.18C245.25 362.16 250.72 343.5 253.71 333.31C253.93 332.73 253.95 332.06 254.35 331.55C254.68 331.28 255.11 331.4 255.46 331.29C258.45 330.72 258.98 326.23 256.31 324.85C253.74 323.24 250.16 325.64 251.04 328.63C251.15 328.95 251.42 329.47 251.13 329.8C251.03 329.95 232.53 345.49 231.86 346.06L231.74 345.87L222.07 330L221.99 329.86L222.1 329.74C224.65 327.24 223.2 323.42 219.58 323.54C216.06 323.93 215.35 328.23 218.19 330.12L218.33 330.23L218.27 330.39L212.02 346.74L211.81 347.29L211.56 346.76C208.86 341.07 201.95 326.52 199.34 321.03C199.3 320.93 199.24 320.81 199.24 320.63C199.24 320.43 199.35 320.28 199.42 320.19C200.39 319.3 200.93 317.98 200.52 316.69C199.11 312.37 192.55 314.19 193.9 318.64C194.1 319.17 194.41 319.59 194.84 319.97C194.98 320.11 195.22 320.34 195.21 320.7C195.13 321.28 194.91 321.53 194.77 321.92C192.51 327.05 186.16 341.58 183.82 346.92L183.51 347.64L183.21 346.92L176.38 330.58L176.28 330.33L176.48 330.17C179.23 328.13 178.34 324.25 174.93 323.92C173.51 323.8 172.07 324.71 171.56 326.02C171.05 327.35 171.77 328.83 172.77 329.93L172.95 330.13L172.82 330.37L163.72 346.33L163.49 346.73L163.13 346.44L145.13 331.92L144 331.01C143.57 330.66 143.09 330.41 143.23 329.79C143.58 328.85 143.65 327.83 143.15 326.94C141.96 324.46 137.87 324.73 137.09 327.38C136.48 329.23 137.71 331.48 139.73 331.64C140.08 331.7 140.25 331.61 140.64 331.85C140.99 332.14 140.97 332.39 141.1 332.72C145.26 345.04 151.28 363.77 155.35 375.95C155.49 376.35 155.67 376.59 155.97 376.68L155.81 377.15H155.82Z" fill="#00124C"/>
<path d="M140.74 330.79C141.89 331.11 142.11 332.69 142.46 333.63C143.05 335.4 144.66 340.36 145.28 342.21C148.4 351.64 152.47 364.29 155.57 373.68C155.72 374.07 156.16 375.53 156.28 375.84C169.47 372.97 184.17 370.98 198.13 370.96C212.13 370.76 226.75 372.58 240.07 375.51C240.18 375.4 240.21 375.07 240.3 374.85L240.7 373.5C243.95 362.49 249.34 344.22 252.65 333.05L253.06 331.69C253.21 330.93 254.05 330.26 254.87 330.28C256.43 330.26 257.38 328.48 256.85 327.08C256.29 325.42 253.9 324.89 252.69 326.17C252.09 326.76 251.85 327.68 252.12 328.47C252.28 328.88 252.48 329.47 252.25 330.02C252.04 330.57 251.58 330.89 251.24 331.17L249.09 332.98L231.85 347.43C231.54 347.69 231.67 347.66 231.47 347.37L220.88 329.9L220.78 329.74C221.29 329.25 221.78 328.75 222.1 328.15C223.21 326.46 221.58 324.32 219.68 324.52C217.74 324.6 216.64 327.08 217.92 328.57C218.32 329.11 218.89 329.52 219.48 329.9L219.42 330.06L212.13 349.02L211.99 349.38C211.04 347.9 210.33 346.25 209.58 344.67C208.27 341.88 204.69 334.31 203.32 331.43L199.15 322.6C198.86 321.93 198.19 320.98 198.49 320.2C198.83 319.39 199.62 319.05 199.77 318.17C200.35 315.61 196.86 313.93 195.15 315.93C194.35 316.79 194.26 318.2 195.05 319.09C196.38 320.21 196.09 321.07 195.4 322.48L191.46 331.41L183.6 349.29L183.5 349.52L183.4 349.29L175.47 330.2L175.44 330.14C175.98 329.75 176.51 329.32 176.89 328.78C179.34 325.19 173.19 322.64 172.07 326.68C171.91 328.01 172.87 329.15 173.75 330.06L173.72 330.1L163.75 347.51L163.73 347.55C162.93 347.13 162.24 346.52 161.55 345.96C157.78 342.91 150.94 337.36 147.11 334.27C145.74 333.15 144.35 332.06 143 330.91C142.26 330.18 143 329.22 142.97 328.37C142.98 326.5 140.83 325.24 139.16 325.95C137.38 326.56 136.91 329.01 138.17 330.34C138.79 331.06 139.71 331.15 140.58 331.27L140.74 330.8V330.79ZM140.58 331.26C139.71 331.13 138.77 331.05 138.17 330.33C136.92 328.99 137.36 326.53 139.16 325.92C140.86 325.2 143 326.46 143.01 328.35C143.05 329.2 142.3 330.14 143.04 330.87C144.38 332.01 145.78 333.1 147.15 334.22C149.96 336.49 156.85 342.03 159.55 344.21C160.72 345.17 162.64 346.72 163.69 347.45L173.62 330.02C172.9 329.51 171.73 327.89 171.94 326.64C172.6 323.54 177.28 323.85 177.63 326.97C177.74 328.37 176.65 329.47 175.61 330.21L175.64 330.11L183.61 349.18H183.41L191.24 331.28L195.16 322.34C195.45 321.6 195.97 320.84 195.61 320.15C195.23 319.49 194.38 318.97 194.28 318.11C193.88 316.36 195.47 314.63 197.23 314.73C198.97 314.71 200.52 316.48 200.09 318.23C199.97 319.08 199.12 319.61 198.81 320.29C198.56 320.98 199.17 321.71 199.46 322.45L203.65 331.27C206.14 336.31 209.48 343.97 212.13 348.84L211.78 348.87L219.03 329.9L219.11 330.15C217.98 329.46 216.85 328.31 216.93 326.86C217 325.43 218.21 324.16 219.65 324.08C221.88 323.85 223.81 326.36 222.51 328.37C222.18 328.98 221.71 329.49 221.24 329.94L221.27 329.66L231.9 347.11L231.52 347.05L248.73 332.56L250.88 330.75C251.25 330.44 251.59 330.18 251.72 329.83C251.86 329.49 251.75 329.11 251.58 328.66C250.79 326.54 253.05 324.4 255.14 324.96C258 325.49 258.51 329.75 255.67 330.75C255.24 330.92 254.73 330.84 254.32 331.02C253.61 331.28 253.54 332.36 253.23 333.23L246.89 354.81C245.43 359.78 242.79 368.81 241.36 373.7L240.97 375.05C240.86 375.43 240.78 376.04 240.28 376.19C240.07 376.24 239.95 376.24 239.79 376.25C226.14 373.12 212.13 371.63 198.13 371.77C184.13 371.9 170.15 373.65 156.51 376.76C156.32 376.76 156.19 376.76 155.92 376.66C155.66 376.55 155.51 376.3 155.46 376.16C155.34 375.85 155.29 375.66 155.2 375.41L154.73 373.98C151.62 364.61 147.49 351.95 144.37 342.53C143.78 340.69 142.11 335.75 141.53 333.96L141.06 332.53C140.92 332.09 140.75 331.85 140.43 331.75L140.59 331.28L140.58 331.26Z" fill="#00124C"/>
<path d="M198.975 318.053C199.304 317.08 198.768 316.02 197.779 315.687C196.79 315.353 195.722 315.872 195.393 316.846C195.065 317.819 195.601 318.878 196.59 319.212C197.579 319.545 198.647 319.027 198.975 318.053Z" fill="#FE40B4"/>
<path d="M221.719 327.678C222.047 326.705 221.511 325.646 220.522 325.312C219.533 324.979 218.465 325.497 218.137 326.471C217.809 327.444 218.345 328.504 219.334 328.837C220.323 329.171 221.391 328.652 221.719 327.678Z" fill="#FE40B4"/>
<path d="M256.283 328.373C256.611 327.399 256.075 326.34 255.086 326.007C254.097 325.673 253.029 326.192 252.701 327.165C252.372 328.139 252.908 329.198 253.897 329.532C254.887 329.865 255.954 329.346 256.283 328.373Z" fill="#FE40B4"/>
<path d="M176.588 327.69C176.916 326.716 176.38 325.657 175.391 325.323C174.402 324.99 173.334 325.509 173.006 326.482C172.678 327.455 173.213 328.515 174.203 328.848C175.192 329.182 176.26 328.663 176.588 327.69Z" fill="#FE40B4"/>
<path d="M141.94 329.062C142.268 328.089 141.733 327.029 140.744 326.696C139.754 326.362 138.687 326.881 138.358 327.855C138.03 328.828 138.566 329.887 139.555 330.221C140.544 330.554 141.612 330.035 141.94 329.062Z" fill="#FE40B4"/>
<path d="M206.181 361.404C207.659 357.018 205.239 352.243 200.775 350.738C196.311 349.233 191.493 351.568 190.015 355.954C188.536 360.34 190.957 365.115 195.421 366.62C199.885 368.125 204.703 365.789 206.181 361.404Z" fill="#00124C"/>
<path d="M202.912 360.302C203.792 357.69 202.351 354.846 199.692 353.95C197.033 353.054 194.164 354.444 193.284 357.056C192.404 359.667 193.845 362.511 196.504 363.407C199.162 364.304 202.031 362.913 202.912 360.302Z" fill="#FDF001"/>
<path d="M201.045 359.672C201.583 358.076 200.7 356.337 199.072 355.789C197.445 355.24 195.689 356.089 195.151 357.685C194.613 359.281 195.496 361.02 197.124 361.569C198.751 362.118 200.507 361.268 201.045 359.672Z" fill="#FE40B4"/>
<path d="M199.444 359.132C199.689 358.405 199.285 357.612 198.542 357.362C197.799 357.111 196.998 357.498 196.753 358.225C196.507 358.953 196.911 359.745 197.654 359.996C198.397 360.246 199.199 359.86 199.444 359.132Z" fill="#00124C"/>
<path d="M140.67 460.07C140.69 460.01 140.7 459.94 140.67 459.93C140.72 459.98 140.13 460.49 140.01 460.77C138.19 463.38 139.82 466.18 140.66 468.9C136.94 467.34 135.52 461.1 140.14 459.77C140.43 459.68 141.11 459.77 140.66 460.07H140.67Z" fill="#00124C"/>
<path d="M251.44 468.53C251.42 468.59 251.41 468.66 251.44 468.67C251.39 468.62 251.98 468.11 252.1 467.83C253.92 465.22 252.29 462.42 251.45 459.7C255.17 461.26 256.59 467.5 251.97 468.83C251.68 468.92 251 468.83 251.45 468.53H251.44Z" fill="#00124C"/>
</g>
<g clip-path="url(#clip1_264_3864)">
<path d="M33.6565 92.4657C31.8904 92.4966 30.224 92.5284 28.5593 92.5539C25.9192 92.5947 24.1052 90.7246 24.3356 88.2021C24.5605 85.7355 26.6937 83.7966 29.2956 83.7149C30.7819 83.6686 32.2667 83.6527 33.8446 83.6205C33.8861 81.9397 33.8828 80.3397 33.9747 78.7334C34.1677 75.3243 37.9293 73.0219 40.7716 74.5718C42.1142 75.3029 42.8085 76.5046 42.7907 78.1209C42.7721 79.87 42.7344 81.6213 42.702 83.4394C44.558 83.4075 46.3439 83.3377 48.1201 83.3543C51.142 83.3829 52.8826 86.2769 51.6507 89.1625C50.9214 90.871 49.2417 92.0779 47.389 92.169C45.8086 92.2468 44.2324 92.2727 42.6535 92.3226C42.6282 92.324 42.6001 92.352 42.806 92.355C42.6522 93.9368 42.329 95.5441 42.3852 97.0983C42.4603 99.1761 40.0756 101.542 38.1895 101.784C35.8696 102.078 33.7802 100.632 33.6294 98.361C33.5199 96.7161 33.6411 95.0324 33.6566 93.3656C33.6593 93.1013 33.6568 92.8398 33.6565 92.4657V92.4657Z" fill="#FDF001"/>
</g>
<g clip-path="url(#clip2_264_3864)">
<path d="M90.6897 106.231C88.9236 106.262 87.2572 106.294 85.5925 106.319C82.9524 106.36 81.1384 104.49 81.3688 101.967C81.5937 99.5006 83.7269 97.5618 86.3288 97.4801C87.8151 97.4338 89.2999 97.4179 90.8778 97.3856C90.9193 95.7049 90.916 94.1048 91.0079 92.4985C91.2009 89.0894 94.9625 86.787 97.8048 88.3369C99.1474 89.068 99.8417 90.2698 99.8239 91.8861C99.8053 93.6351 99.7676 95.3865 99.7352 97.2045C101.591 97.1726 103.377 97.1028 105.153 97.1194C108.175 97.148 109.916 100.042 108.684 102.928C107.955 104.636 106.275 105.843 104.422 105.934C102.842 106.012 101.266 106.038 99.6867 106.088C99.6614 106.089 99.6333 106.117 99.8392 106.12C99.6854 107.702 99.3622 109.309 99.4184 110.863C99.4935 112.941 97.1088 115.307 95.2227 115.549C92.9028 115.843 90.8134 114.397 90.6626 112.126C90.5531 110.481 90.6743 108.797 90.6898 107.131C90.6925 106.866 90.69 106.605 90.6897 106.231V106.231Z" fill="#FDF001"/>
</g>
<g clip-path="url(#clip3_264_3864)">
<path d="M64.5765 44.6764C61.6329 44.7279 58.8556 44.781 56.0811 44.8235C51.6809 44.8915 48.6575 41.7746 49.0416 37.5704C49.4165 33.4594 52.9718 30.2281 57.3082 30.0919C59.7855 30.0147 62.2601 29.9882 64.8899 29.9345C64.959 27.1332 64.9536 24.4665 65.1068 21.7893C65.4284 16.1074 71.6978 12.2702 76.4349 14.8533C78.6725 16.0718 79.8298 18.0747 79.8001 20.7685C79.7691 23.6836 79.7063 26.6025 79.6523 29.6326C82.7455 29.5795 85.7221 29.4631 88.6825 29.4908C93.719 29.5385 96.6199 34.3619 94.5668 39.1711C93.3512 42.0187 90.5518 44.0301 87.4639 44.1819C84.83 44.3117 82.2028 44.3547 79.5714 44.438C79.5292 44.4403 79.4825 44.487 79.8256 44.4919C79.5693 47.1283 79.0305 49.8071 79.1243 52.3975C79.2495 55.8604 75.2749 59.803 72.1315 60.2064C68.265 60.6967 64.7826 58.2869 64.5313 54.502C64.3487 51.7605 64.5508 48.9542 64.5766 46.1763C64.5811 45.7358 64.577 45.3 64.5765 44.6764V44.6764Z" fill="#FDF001"/>
</g>
<g clip-path="url(#clip4_264_3864)">
<path d="M103.586 555.299C104.621 555.28 105.597 555.262 106.573 555.247C108.12 555.223 109.182 556.319 109.047 557.797C108.916 559.242 107.666 560.378 106.141 560.426C105.27 560.453 104.4 560.462 103.476 560.481C103.451 561.466 103.453 562.404 103.4 563.345C103.286 565.342 101.082 566.691 99.417 565.783C98.6303 565.355 98.2234 564.651 98.2339 563.704C98.2448 562.679 98.2669 561.653 98.2858 560.587C97.1984 560.606 96.1519 560.647 95.1112 560.637C93.3405 560.621 92.3207 558.925 93.0425 557.234C93.4698 556.233 94.454 555.526 95.5396 555.472C96.4656 555.427 97.3892 555.412 98.3143 555.382C98.3291 555.382 98.3455 555.365 98.2249 555.363C98.315 554.437 98.5044 553.495 98.4715 552.584C98.4275 551.367 99.8248 549.981 100.93 549.839C102.289 549.666 103.513 550.514 103.602 551.844C103.666 552.808 103.595 553.795 103.586 554.771C103.584 554.926 103.586 555.079 103.586 555.299V555.299Z" fill="#FDF001"/>
</g>
<g clip-path="url(#clip5_264_3864)">
<path d="M70.168 547.233C71.2028 547.215 72.1792 547.196 73.1546 547.181C74.7016 547.158 75.7645 548.253 75.6295 549.731C75.4977 551.177 74.2477 552.313 72.7232 552.361C71.8523 552.388 70.9823 552.397 70.0578 552.416C70.0335 553.401 70.0354 554.338 69.9815 555.279C69.8685 557.277 67.6644 558.626 65.999 557.718C65.2123 557.289 64.8055 556.585 64.8159 555.638C64.8268 554.613 64.8489 553.587 64.8679 552.522C63.7804 552.541 62.734 552.582 61.6932 552.572C59.9225 552.555 58.9027 550.859 59.6245 549.169C60.0518 548.167 61.036 547.46 62.1216 547.407C63.0476 547.361 63.9712 547.346 64.8963 547.317C64.9112 547.316 64.9276 547.3 64.807 547.298C64.8971 546.371 65.0865 545.429 65.0535 544.519C65.0095 543.301 66.4068 541.915 67.5119 541.773C68.8712 541.601 70.0955 542.448 70.1839 543.779C70.2481 544.743 70.177 545.729 70.1679 546.706C70.1663 546.861 70.1678 547.014 70.168 547.233V547.233Z" fill="#FDF001"/>
</g>
<g clip-path="url(#clip6_264_3864)">
<path d="M85.4681 583.3C87.1929 583.27 88.8202 583.239 90.4459 583.214C93.0241 583.174 94.7956 585 94.5706 587.464C94.3509 589.873 92.2677 591.766 89.7269 591.846C88.2753 591.891 86.8254 591.906 85.2845 591.938C85.2439 593.579 85.2471 595.142 85.1574 596.711C84.9689 600.04 81.2955 602.288 78.5198 600.775C77.2087 600.061 76.5306 598.887 76.548 597.309C76.5662 595.601 76.603 593.89 76.6346 592.115C74.8222 592.146 73.0781 592.214 71.3435 592.198C68.3924 592.17 66.6927 589.344 67.8957 586.526C68.6079 584.857 70.2482 583.679 72.0575 583.59C73.6008 583.514 75.1401 583.489 76.682 583.44C76.7067 583.438 76.7341 583.411 76.5331 583.408C76.6832 581.863 76.9989 580.294 76.944 578.776C76.8706 576.747 79.1995 574.437 81.0414 574.201C83.3069 573.913 85.3473 575.325 85.4946 577.543C85.6016 579.149 85.4831 580.794 85.468 582.421C85.4654 582.679 85.4678 582.935 85.4681 583.3V583.3Z" fill="#FDF001"/>
</g>
<g clip-path="url(#clip7_264_3864)">
<path d="M312.552 147.725C311.366 147.745 310.247 147.767 309.13 147.784C307.358 147.811 306.14 146.556 306.295 144.863C306.446 143.207 307.878 141.905 309.624 141.85C310.622 141.819 311.619 141.809 312.678 141.787C312.706 140.659 312.704 139.585 312.765 138.506C312.895 136.218 315.42 134.672 317.328 135.713C318.229 136.203 318.695 137.01 318.683 138.095C318.671 139.269 318.646 140.445 318.624 141.665C319.87 141.644 321.069 141.597 322.261 141.608C324.29 141.627 325.458 143.57 324.631 145.507C324.141 146.654 323.014 147.464 321.77 147.525C320.709 147.578 319.651 147.595 318.591 147.629C318.574 147.63 318.555 147.648 318.694 147.65C318.59 148.712 318.373 149.791 318.411 150.835C318.462 152.229 316.861 153.817 315.595 153.98C314.037 154.177 312.635 153.207 312.533 151.682C312.46 150.578 312.541 149.448 312.552 148.329C312.554 148.151 312.552 147.976 312.552 147.725V147.725Z" fill="#FDF001"/>
</g>
<g clip-path="url(#clip8_264_3864)">
<path d="M350.837 156.965C349.652 156.986 348.533 157.007 347.416 157.024C345.643 157.052 344.426 155.796 344.58 154.103C344.731 152.447 346.163 151.146 347.91 151.091C348.908 151.06 349.904 151.049 350.964 151.027C350.991 149.899 350.989 148.825 351.051 147.747C351.18 145.458 353.706 143.913 355.614 144.953C356.515 145.444 356.981 146.25 356.969 147.335C356.957 148.51 356.931 149.685 356.91 150.906C358.155 150.884 359.354 150.837 360.547 150.849C362.575 150.868 363.744 152.811 362.917 154.748C362.427 155.895 361.3 156.705 360.056 156.766C358.995 156.818 357.937 156.835 356.877 156.869C356.86 156.87 356.841 156.889 356.979 156.891C356.876 157.953 356.659 159.032 356.697 160.075C356.747 161.47 355.146 163.058 353.88 163.22C352.323 163.418 350.92 162.447 350.819 160.923C350.746 159.818 350.827 158.688 350.837 157.569C350.839 157.392 350.838 157.216 350.837 156.965V156.965Z" fill="#FDF001"/>
</g>
<g clip-path="url(#clip9_264_3864)">
<path d="M333.308 115.644C331.332 115.679 329.468 115.714 327.605 115.743C324.651 115.788 322.622 113.696 322.88 110.874C323.131 108.114 325.518 105.945 328.429 105.854C330.092 105.802 331.753 105.784 333.519 105.748C333.565 103.867 333.561 102.077 333.664 100.28C333.88 96.4659 338.089 93.89 341.269 95.624C342.771 96.442 343.548 97.7865 343.528 99.5949C343.507 101.552 343.465 103.511 343.428 105.545C345.505 105.51 347.503 105.431 349.49 105.45C352.871 105.482 354.819 108.72 353.44 111.948C352.624 113.86 350.745 115.21 348.672 115.312C346.904 115.399 345.141 115.428 343.374 115.484C343.346 115.486 343.314 115.517 343.545 115.52C343.373 117.29 343.011 119.088 343.074 120.827C343.158 123.152 340.49 125.798 338.38 126.069C335.784 126.398 333.447 124.781 333.278 122.24C333.155 120.4 333.291 118.516 333.308 116.651C333.311 116.355 333.309 116.063 333.308 115.644V115.644Z" fill="#FDF001"/>
</g>
<g clip-path="url(#clip10_264_3864)">
<path d="M60.7238 354.964C59.8145 354.98 58.9565 354.997 58.0993 355.01C56.74 355.031 55.806 354.068 55.9246 352.769C56.0404 351.499 57.1388 350.501 58.4784 350.459C59.2437 350.435 60.0082 350.427 60.8206 350.41C60.842 349.545 60.8403 348.721 60.8877 347.894C60.987 346.139 62.9238 344.953 64.3873 345.751C65.0786 346.128 65.4361 346.746 65.4269 347.578C65.4173 348.479 65.3979 349.381 65.3812 350.317C66.3368 350.3 67.2564 350.264 68.171 350.273C69.7269 350.288 70.6231 351.778 69.9888 353.264C69.6133 354.143 68.7485 354.765 67.7945 354.812C66.9808 354.852 66.1692 354.865 65.3563 354.891C65.3432 354.891 65.3288 354.906 65.4348 354.907C65.3556 355.722 65.1892 356.549 65.2181 357.35C65.2568 358.419 64.0289 359.637 63.0578 359.762C61.8633 359.914 60.7875 359.169 60.7099 358C60.6535 357.153 60.7159 356.286 60.7239 355.428C60.7253 355.292 60.724 355.157 60.7238 354.964V354.964Z" fill="#FDF001"/>
</g>
<g clip-path="url(#clip11_264_3864)">
<path d="M90.0896 362.052C89.1802 362.068 88.3222 362.084 87.465 362.097C86.1057 362.118 85.1717 361.155 85.2903 359.857C85.4061 358.586 86.5045 357.588 87.8441 357.546C88.6095 357.522 89.3739 357.514 90.1864 357.498C90.2077 356.632 90.2061 355.808 90.2534 354.981C90.3527 353.226 92.2896 352.04 93.753 352.838C94.4443 353.215 94.8018 353.834 94.7926 354.666C94.783 355.566 94.7636 356.468 94.747 357.404C95.7026 357.388 96.6221 357.352 97.5367 357.36C99.0926 357.375 99.9888 358.865 99.3545 360.351C98.979 361.231 98.1142 361.852 97.1602 361.899C96.3465 361.939 95.5349 361.952 94.722 361.978C94.7089 361.979 94.6945 361.993 94.8005 361.995C94.7213 362.809 94.5549 363.637 94.5838 364.437C94.6225 365.507 93.3947 366.725 92.4235 366.849C91.229 367.001 90.1532 366.257 90.0756 365.087C90.0192 364.24 90.0816 363.373 90.0896 362.515C90.091 362.379 90.0897 362.244 90.0896 362.052V362.052Z" fill="#FDF001"/>
</g>
<g clip-path="url(#clip12_264_3864)">
<path d="M76.6445 330.358C75.1289 330.385 73.6989 330.412 72.2704 330.434C70.0048 330.469 68.4481 328.864 68.6458 326.7C68.8388 324.583 70.6695 322.919 72.9022 322.849C74.1777 322.809 75.4518 322.796 76.8059 322.768C76.8415 321.326 76.8387 319.952 76.9176 318.574C77.0832 315.648 80.3112 313.673 82.7503 315.003C83.9024 315.63 84.4983 316.661 84.483 318.048C84.467 319.549 84.4347 321.052 84.4069 322.612C85.9996 322.585 87.5321 322.525 89.0564 322.539C91.6497 322.564 93.1433 325.047 92.0861 327.524C91.4603 328.99 90.0189 330.026 88.429 330.104C87.0728 330.171 85.7201 330.193 84.3653 330.236C84.3435 330.237 84.3194 330.261 84.4961 330.263C84.3641 331.621 84.0868 333 84.135 334.334C84.1995 336.117 82.153 338.147 80.5345 338.354C78.5437 338.607 76.7507 337.366 76.6213 335.417C76.5272 334.006 76.6313 332.561 76.6446 331.131C76.6469 330.904 76.6448 330.679 76.6445 330.358V330.358Z" fill="#FDF001"/>
</g>
<g clip-path="url(#clip13_264_3864)">
<path d="M299.761 454.618C298.989 454.631 298.261 454.645 297.533 454.656C296.378 454.674 295.585 453.856 295.686 452.754C295.784 451.675 296.717 450.827 297.855 450.792C298.505 450.771 299.154 450.765 299.844 450.75C299.862 450.016 299.86 449.316 299.9 448.614C299.985 447.123 301.629 446.117 302.872 446.794C303.459 447.114 303.763 447.639 303.755 448.346C303.747 449.111 303.73 449.876 303.716 450.671C304.528 450.657 305.308 450.627 306.085 450.634C307.406 450.647 308.167 451.912 307.629 453.173C307.31 453.92 306.575 454.448 305.765 454.488C305.074 454.522 304.385 454.533 303.695 454.555C303.684 454.556 303.672 454.568 303.762 454.569C303.694 455.261 303.553 455.964 303.578 456.643C303.61 457.551 302.568 458.586 301.743 458.691C300.729 458.82 299.815 458.188 299.749 457.195C299.702 456.476 299.755 455.74 299.761 455.011C299.763 454.896 299.761 454.781 299.761 454.618V454.618Z" fill="#FDF001"/>
</g>
<g clip-path="url(#clip14_264_3864)">
<path d="M324.696 460.636C323.924 460.649 323.196 460.663 322.468 460.674C321.314 460.692 320.52 459.875 320.621 458.772C320.72 457.693 321.652 456.846 322.79 456.81C323.44 456.79 324.089 456.783 324.779 456.769C324.797 456.034 324.795 455.334 324.835 454.632C324.92 453.141 326.564 452.135 327.807 452.812C328.394 453.132 328.698 453.657 328.69 454.364C328.682 455.129 328.665 455.895 328.651 456.689C329.463 456.675 330.243 456.645 331.02 456.652C332.341 456.665 333.102 457.93 332.564 459.192C332.245 459.939 331.51 460.466 330.7 460.506C330.009 460.54 329.32 460.551 328.63 460.573C328.619 460.574 328.607 460.586 328.697 460.587C328.629 461.279 328.488 461.982 328.513 462.661C328.545 463.57 327.503 464.604 326.678 464.71C325.664 464.838 324.75 464.206 324.685 463.213C324.637 462.494 324.69 461.758 324.696 461.029C324.698 460.914 324.696 460.799 324.696 460.636V460.636Z" fill="#FDF001"/>
</g>
<g clip-path="url(#clip15_264_3864)">
<path d="M313.28 433.724C311.993 433.746 310.779 433.769 309.565 433.788C307.642 433.818 306.32 432.455 306.488 430.617C306.652 428.82 308.206 427.407 310.102 427.347C311.185 427.313 312.267 427.302 313.417 427.278C313.447 426.054 313.445 424.888 313.512 423.717C313.652 421.233 316.393 419.555 318.464 420.685C319.443 421.218 319.949 422.093 319.936 423.271C319.922 424.545 319.895 425.822 319.871 427.146C321.223 427.123 322.525 427.072 323.819 427.084C326.021 427.105 327.289 429.214 326.392 431.317C325.86 432.562 324.636 433.441 323.286 433.508C322.135 433.564 320.986 433.583 319.836 433.619C319.817 433.62 319.797 433.641 319.947 433.643C319.835 434.796 319.599 435.967 319.64 437.099C319.695 438.613 317.957 440.337 316.583 440.514C314.892 440.728 313.37 439.674 313.26 438.02C313.18 436.821 313.269 435.594 313.28 434.379C313.282 434.187 313.28 433.996 313.28 433.724V433.724Z" fill="#FDF001"/>
</g>
<defs>
<linearGradient id="paint0_linear_264_3864" x1="152.16" y1="528.57" x2="199.83" y2="-17.58" gradientUnits="userSpaceOnUse">
<stop stop-color="#FE40B4"/>
<stop offset="0.21" stop-color="#FE4DB9"/>
<stop offset="0.6" stop-color="#FE72C8"/>
<stop offset="1" stop-color="#FF9FDA"/>
</linearGradient>
<linearGradient id="paint1_linear_264_3864" x1="236.887" y1="464.958" x2="261.527" y2="464.958" gradientUnits="userSpaceOnUse">
<stop stop-color="#00124C"/>
<stop offset="0.36" stop-color="#001559"/>
<stop offset="1" stop-color="#001E7D"/>
</linearGradient>
<linearGradient id="paint2_linear_264_3864" x1="248.88" y1="477.09" x2="250.64" y2="477.09" gradientUnits="userSpaceOnUse">
<stop stop-color="#00124C"/>
<stop offset="0.36" stop-color="#001559"/>
<stop offset="1" stop-color="#001E7D"/>
</linearGradient>
<linearGradient id="paint3_linear_264_3864" x1="251.96" y1="476.67" x2="254.11" y2="476.67" gradientUnits="userSpaceOnUse">
<stop stop-color="#00124C"/>
<stop offset="0.36" stop-color="#001559"/>
<stop offset="1" stop-color="#001E7D"/>
</linearGradient>
<linearGradient id="paint4_linear_264_3864" x1="254.711" y1="475.21" x2="256.901" y2="475.21" gradientUnits="userSpaceOnUse">
<stop stop-color="#00124C"/>
<stop offset="0.36" stop-color="#001559"/>
<stop offset="1" stop-color="#001E7D"/>
</linearGradient>
<linearGradient id="paint5_linear_264_3864" x1="131.148" y1="-1.00305" x2="155.788" y2="-1.00304" gradientUnits="userSpaceOnUse">
<stop stop-color="#00124C"/>
<stop offset="0.36" stop-color="#001559"/>
<stop offset="1" stop-color="#001E7D"/>
</linearGradient>
<linearGradient id="paint6_linear_264_3864" x1="133.07" y1="474.13" x2="136.21" y2="474.13" gradientUnits="userSpaceOnUse">
<stop stop-color="#00124C"/>
<stop offset="0.36" stop-color="#001559"/>
<stop offset="1" stop-color="#001E7D"/>
</linearGradient>
<linearGradient id="paint7_linear_264_3864" x1="135.41" y1="475.12" x2="138.57" y2="475.12" gradientUnits="userSpaceOnUse">
<stop stop-color="#00124C"/>
<stop offset="0.36" stop-color="#001559"/>
<stop offset="1" stop-color="#001E7D"/>
</linearGradient>
<linearGradient id="paint8_linear_264_3864" x1="138.52" y1="476.15" x2="140.46" y2="476.15" gradientUnits="userSpaceOnUse">
<stop stop-color="#00124C"/>
<stop offset="0.36" stop-color="#001559"/>
<stop offset="1" stop-color="#001E7D"/>
</linearGradient>
<linearGradient id="paint9_linear_264_3864" x1="190.22" y1="356.44" x2="199.57" y2="508.87" gradientUnits="userSpaceOnUse">
<stop stop-color="#FA4E8F"/>
<stop offset="0.04" stop-color="#FA5795"/>
<stop offset="0.18" stop-color="#FC77AA"/>
<stop offset="0.32" stop-color="#FD90BA"/>
<stop offset="0.48" stop-color="#FEA2C6"/>
<stop offset="0.64" stop-color="#FEADCD"/>
<stop offset="0.82" stop-color="#FFB1D0"/>
</linearGradient>
<linearGradient id="paint10_linear_264_3864" x1="189.15" y1="515.33" x2="201.85" y2="369.75" gradientUnits="userSpaceOnUse">
<stop stop-color="#00124C"/>
<stop offset="0.36" stop-color="#001559"/>
<stop offset="1" stop-color="#001E7D"/>
</linearGradient>
<linearGradient id="paint11_linear_264_3864" x1="167.74" y1="448.85" x2="168.88" y2="435.81" gradientUnits="userSpaceOnUse">
<stop stop-color="#00124C"/>
<stop offset="0.36" stop-color="#001559"/>
<stop offset="1" stop-color="#001E7D"/>
</linearGradient>
<linearGradient id="paint12_linear_264_3864" x1="220.7" y1="448.82" x2="221.84" y2="435.78" gradientUnits="userSpaceOnUse">
<stop stop-color="#00124C"/>
<stop offset="0.36" stop-color="#001559"/>
<stop offset="1" stop-color="#001E7D"/>
</linearGradient>
<clipPath id="clip0_264_3864">
<rect width="390" height="596.01" fill="white" transform="translate(0 -1)"/>
</clipPath>
<clipPath id="clip1_264_3864">
<rect width="22.9461" height="21.455" fill="white" transform="translate(22.4854 88.4852) rotate(-45)"/>
</clipPath>
<clipPath id="clip2_264_3864">
<rect width="22.9461" height="21.455" fill="white" transform="translate(79.5186 102.25) rotate(-45)"/>
</clipPath>
<clipPath id="clip3_264_3864">
<rect width="38.2435" height="35.7584" fill="white" transform="translate(45.958 38.0422) rotate(-45)"/>
</clipPath>
<clipPath id="clip4_264_3864">
<rect width="13.445" height="12.5713" fill="white" transform="translate(110.131 557.631) rotate(135)"/>
</clipPath>
<clipPath id="clip5_264_3864">
<rect width="13.445" height="12.5713" fill="white" transform="translate(76.7134 549.565) rotate(135)"/>
</clipPath>
<clipPath id="clip6_264_3864">
<rect width="22.4083" height="20.9522" fill="white" transform="translate(96.3774 587.187) rotate(135)"/>
</clipPath>
<clipPath id="clip7_264_3864">
<rect width="15.4036" height="14.4026" fill="white" transform="translate(305.053 145.053) rotate(-45)"/>
</clipPath>
<clipPath id="clip8_264_3864">
<rect width="15.4036" height="14.4026" fill="white" transform="translate(343.338 154.293) rotate(-45)"/>
</clipPath>
<clipPath id="clip9_264_3864">
<rect width="25.6726" height="24.0043" fill="white" transform="translate(320.81 111.191) rotate(-45)"/>
</clipPath>
<clipPath id="clip10_264_3864">
<rect width="11.8147" height="11.0469" fill="white" transform="translate(54.9722 352.915) rotate(-45)"/>
</clipPath>
<clipPath id="clip11_264_3864">
<rect width="11.8147" height="11.0469" fill="white" transform="translate(84.3379 360.002) rotate(-45)"/>
</clipPath>
<clipPath id="clip12_264_3864">
<rect width="19.6911" height="18.4115" fill="white" transform="translate(67.0581 326.942) rotate(-45)"/>
</clipPath>
<clipPath id="clip13_264_3864">
<rect width="10.0322" height="9.38032" fill="white" transform="translate(294.877 452.877) rotate(-45)"/>
</clipPath>
<clipPath id="clip14_264_3864">
<rect width="10.0322" height="9.38032" fill="white" transform="translate(319.812 458.896) rotate(-45)"/>
</clipPath>
<clipPath id="clip15_264_3864">
<rect width="16.7204" height="15.6339" fill="white" transform="translate(305.14 430.823) rotate(-45)"/>
</clipPath>
</defs>
</svg>
