<svg width="43" height="44" viewBox="0 0 43 44" fill="none" xmlns="http://www.w3.org/2000/svg">
<path d="M21.9137 0.00333486C26.7552 0.136388 31.0944 1.66745 34.9046 4.67229C35.1459 4.86264 35.3789 5.06381 35.615 5.26053C35.8862 5.48653 36.0581 5.48589 36.3032 5.2357C36.8819 4.64492 37.458 4.05095 38.0304 3.45317C38.2564 3.21698 38.4913 3.03427 38.8382 3.18961C39.133 3.32139 39.2196 3.53466 39.1877 3.99684C39.0591 5.85895 38.9325 7.72169 38.8045 9.5838C38.7879 9.82635 38.7708 10.0683 38.7536 10.3108C38.7224 10.7431 38.5448 10.9385 38.1023 10.9837C36.4777 11.1505 34.8524 11.3103 33.2277 11.472C32.7 11.5242 32.1716 11.5681 31.6445 11.6273C31.3472 11.6604 31.1192 11.5681 30.9849 11.2989C30.85 11.0277 30.9162 10.787 31.1243 10.5737C31.6585 10.0282 32.1919 9.48131 32.7216 8.9319C33.0266 8.61614 33.0189 8.44489 32.6866 8.17051C29.5665 5.59475 25.9862 4.21902 21.9386 4.13753C16.8259 4.03504 12.5733 6.01556 9.05215 9.63791C6.69984 12.0583 5.13822 14.9314 4.45704 18.2482C3.77076 21.5917 4.1069 24.8582 5.37759 28.0164C5.8194 29.1146 5.33048 30.2051 4.42457 30.6247C3.39579 31.1015 2.12447 30.703 1.63682 29.6933C1.04795 28.4748 0.697807 27.1697 0.439977 25.8468C-0.709119 19.9607 0.389048 14.5068 3.77649 9.57107C7.11237 4.71049 11.6928 1.62353 17.4861 0.398675C18.9433 0.0905515 20.4228 -0.0214933 21.9137 0.00333486Z" fill="#00124C"/>
<path d="M21.4292 43.042C18.0055 43.0006 14.8294 42.2475 11.8201 40.761C9.94081 39.8328 8.25505 38.6404 6.74371 37.1979C6.1141 36.5969 5.96386 35.8374 6.23633 35.0315C6.49607 34.2637 7.05311 33.7773 7.87053 33.6443C8.51097 33.5399 9.06228 33.7448 9.53019 34.1854C11.4209 35.9654 13.5931 37.2825 16.0689 38.063C20.5844 39.4865 25.0077 39.2096 29.2322 37.0623C34.0846 34.596 37.1728 30.67 38.4422 25.3625C39.0381 22.8714 39.0572 20.3536 38.4842 17.8549C38.1965 16.5995 38.9591 15.5898 39.9675 15.3721C41.1084 15.1257 42.2625 15.8476 42.5204 17.0196C43.015 19.2656 43.1182 21.5345 42.8705 23.8206C42.5738 26.5638 41.7653 29.1446 40.4482 31.5695C39.4602 33.3883 38.2219 35.0181 36.7762 36.4957C35.6379 37.6588 34.3742 38.664 33.008 39.5451C29.4602 41.8318 25.5749 42.9911 21.4286 43.0427L21.4292 43.042Z" fill="#00124C"/>
<path d="M15.9238 21.471C15.9238 19.085 15.9346 16.699 15.9187 14.3129C15.9117 13.2421 16.8647 12.6819 17.6356 12.9728C17.9202 13.0804 18.1806 13.2542 18.446 13.4076C22.4204 15.7007 26.3936 17.9951 30.368 20.2888C31.1026 20.7128 31.3617 21.2922 31.1224 21.9702C30.9976 22.3235 30.7309 22.5374 30.4208 22.7163C26.8876 24.756 23.355 26.797 19.8218 28.8367C19.1896 29.2015 18.5594 29.5701 17.9227 29.9279C16.9946 30.4493 16.0205 29.9406 15.9365 28.8826C15.904 28.4713 15.9231 28.0562 15.9225 27.6424C15.9218 25.5849 15.9225 23.528 15.9225 21.4704H15.9238V21.471Z" fill="#00124C"/>
</svg>
