<svg width="390" height="358" viewBox="0 0 390 358" fill="none" xmlns="http://www.w3.org/2000/svg">
<g filter="url(#filter0_d_941_3468)">
<path d="M0 18C0 8.05888 8.05888 0 18 0H372C381.941 0 390 8.05888 390 18V341H0V18Z" fill="#5570C6"/>
<path d="M236.896 162.32L235.725 165.196L233.894 169.622L233.452 170.633L233.291 170.92L233.004 171.109L232.717 171.299L232.367 171.201L232.051 171.138L231.862 170.822L231.701 170.506V170.191L231.954 168.956L231.764 169.146L231.512 169.083L230.972 168.893L230.685 168.514L230.656 167.188L232.775 164.312L233.504 163.836L233.756 163.71L233.854 163.899L234.015 164.312L234.646 163.078L235.783 162.068L236.386 161.752L236.736 161.689L236.896 161.626V162.32V162.32ZM238.286 163.078L235.789 168.985L235.157 170.059L234.841 170.311L234.399 170.277L234.428 170.087V170.024L234.239 170.437L233.952 170.69L233.888 170.277L233.986 169.737L234.462 168.566L236.707 163.13L237.402 161.867L237.654 161.712L237.717 161.936L237.907 161.62L238.32 161.459L238.51 161.396L238.544 161.586L238.642 162.028L238.544 162.28L238.291 163.072L238.286 163.078ZM240.404 163.204L238.601 167.567L238.062 168.865L237.838 169.341L237.775 169.375L237.298 170.483L236.983 170.96L237.08 170.518L237.493 169.508L237.465 169.542L237.304 169.605L237.051 169.479L236.701 169.324L236.477 168.974L236.317 168.75L236.414 168.273L236.954 166.821L238.722 162.556L239.64 161.103L239.893 160.851L240.398 160.816L240.685 160.943L240.972 161.293L240.938 161.706L240.398 163.222L240.404 163.204ZM244.256 163.962L242.551 168.451L239.612 175.529L237.683 180.208L237.27 181.029L237.109 181.316L236.696 181.281L236.632 181.029L236.506 180.082L236.759 176.609L237.39 174.869L237.516 174.553H237.356V174.301L237.321 173.698L237.511 171.264L237.89 170.156L238.584 168.451L240.605 163.555L241.426 161.626L241.868 160.931L242.028 160.742L242.534 160.552L242.694 160.489L243.01 160.644L243.234 160.742L243.297 161.092L243.36 161.408L243.263 161.695L243.578 161.632L243.865 161.729L244.244 162.142L244.307 162.556L244.244 163.979L244.256 163.962ZM244.353 167.246L239.899 177.986L238.791 180.61L238.538 180.989L238.475 181.149L238.412 181.212L238.251 181.402L237.999 181.276L237.775 181.149L237.809 180.96L237.97 180.455L239.107 177.642L243.085 168.101L244.066 165.667L244.635 165.036L244.859 165.162L244.83 165.512L244.353 167.251V167.246ZM244.451 173.468L244.325 174.731L243.062 178.113L241.575 181.62L240.783 182.665L240.369 182.82L240.18 182.883L239.864 182.722L239.612 182.596L239.577 182.441L239.48 181.964L239.514 181.712L239.577 181.551L239.101 181.838L238.911 181.936L238.814 181.683L238.716 181.367L238.814 181.052L239.824 178.555L243.205 170.403L244.026 168.382L244.468 167.751L244.755 167.94L244.784 168.354L244.279 170.627L244.089 171.069L244.279 170.908L244.313 171.069L244.44 171.482L244.474 172.051L244.44 173.474L244.451 173.468ZM243.911 179.347L243.469 180.455L242.901 181.654L242.522 181.878V181.591L242.493 181.431L242.206 181.683V181.459L242.178 181.109L242.402 180.57L243.888 176.97L244.33 175.897L244.646 175.644L244.87 175.799L244.807 176.115L244.141 177.917L244.267 177.791L244.296 178.044L243.917 179.341L243.911 179.347ZM245.019 181.023L244.83 181.563L244.577 181.85L244.388 182.039L243.946 182.005H243.785L243.722 181.815L243.533 181.436L243.63 180.931L244.359 179.065L244.991 178.687L245.088 179.065L245.025 181.023H245.019Z" fill="#FDF001"/>
<path d="M252.786 163.997L249.376 172.246L248.556 174.111L248.24 174.427L247.798 174.301V174.14L247.769 173.698L247.867 173.193L248.309 171.706L248.659 170.851L248.63 170.69L248.533 170.277L248.596 168.382L249.514 164.686L250.525 162.946L251.472 161.999L251.822 161.746L252.327 161.683L252.643 161.999V162.033L252.803 161.873L253.119 162.033L253.372 162.16L253.309 162.573L252.803 163.997H252.786ZM254.841 162.447L254.744 162.636L255.347 161.339L255.57 161.052L255.886 160.862L256.139 160.707L256.391 160.834L256.707 160.989V161.431L256.231 163.044L251.397 174.703L250.197 177.481L250.008 177.86L249.629 178.113L249.405 178.268L249.216 178.113L248.9 177.86L248.865 177.671L248.837 177.165L249.153 176.029L249.376 175.489L248.998 175.931L248.774 175.834L248.55 175.736L248.515 175.449L248.613 174.657L249.658 172.097L253.194 163.532L254.175 161.477L254.744 160.971L254.933 161.132L255.123 161.322L255.06 161.574L254.836 162.43L254.841 162.447ZM259.394 162.223L258.636 164.244L257.878 165.822L256.236 168.004L255.921 170.024L255.634 171.322L254.778 173.503L253.389 176.85L252.568 178.87L251.937 180.231L251.713 180.581L251.11 180.897L250.949 180.834L250.507 180.673L250.283 180.386L250.094 180.099L250.06 179.812V179.117L250.41 178.072L250.381 178.17L250.094 178.394L250.123 178.107L250.283 177.441L251.518 174.473L255.565 164.743L256.546 162.343L256.833 161.804L256.931 161.58L257.247 161.706L257.689 161.075L257.941 160.851L258.446 160.725L258.607 160.696L258.986 160.822L259.302 161.046L259.526 161.523L259.399 162.217L259.394 162.223ZM256.076 179.726L255.192 181.81L254.813 182.475L254.652 182.665L254.21 182.762L253.923 182.665L253.636 182.349V181.907L253.825 181.304L253.446 181.402L253.194 181.465L252.97 181.339L252.62 181.115L252.557 180.96L252.43 180.42L252.494 179.978L253.159 178.147L255.025 173.658L255.438 172.648L255.725 172.142L256.139 171.855L256.363 172.108L256.46 172.613L256.495 173.813L256.397 175.805L255.829 177.257L256.018 177.229L256.305 177.326L256.621 177.74L256.592 178.182L256.087 179.731L256.076 179.726ZM266.122 166.454L264.13 171.287L260.748 179.439L259.893 181.523L259.353 182.567L258.94 183.009L258.498 183.136L258.246 183.233L258.022 183.107L257.643 182.917L257.58 182.665L257.551 182.033L257.264 182.257L257.04 182.384L256.661 182.349H256.374L256.213 182.125L255.989 181.838V181.586L256.053 180.983L256.874 178.865L257.758 177.223L259.497 175.455L259.939 173.118L260.318 170.748L261.868 166.861L262.786 164.617L263.355 163.291L263.986 162.498L264.239 162.275L264.744 162.338L265.031 162.498L265.318 162.94V163.354L265.002 164.427L265.065 164.364H265.697L265.921 164.617L266.144 164.904L266.208 165.248L266.11 166.448L266.122 166.454ZM262.298 164.686L261.288 167.183L260.622 168.733L260.209 169.714L259.893 170.346L259.451 170.598L259.164 170.374V170.219L259.227 168.514L259.859 166.586L259.795 166.614L259.508 166.517L259.158 166.419L258.745 165.914L258.682 165.661L258.619 165.248L258.779 164.582L259.727 162.246L260.266 161.201L260.49 160.914L261.058 160.564L261.535 160.627L261.885 160.816L262.172 161.258V161.609L261.983 162.366L262.08 162.303L262.62 162.464L262.746 162.877L262.717 163.48L262.304 164.68L262.298 164.686ZM266.34 171.89L263.211 179.41L262.453 181.178L262.166 181.746V181.241L261.787 181.97L261.472 182.257L261.093 182.384L260.806 182.447L260.266 182.097V181.907L260.232 181.431L260.645 180.323L261.437 178.394L265.352 168.916L266.299 166.672L266.805 165.914L267.057 166.012L267.373 166.201L267.499 166.517L267.436 168.824L266.896 170.185V170.374L266.736 170.88L266.322 171.89H266.34ZM267.981 172.269L267.729 174.892L266.971 176.947L267.224 176.597L267.189 176.787L267.161 177.292L266.592 178.681L266.34 179.031L266.15 178.842L265.582 180.013L263.906 181.436L263.59 181.563L263.24 181.465L262.953 181.368V181.178L263.016 180.638L263.774 178.71L266.46 172.263L267.155 170.65L267.505 170.237L267.884 170.426L267.947 170.839L267.976 172.263L267.981 172.269Z" fill="#FDF001"/>
<path d="M275.473 163.997L272.063 172.246L271.242 174.111L270.926 174.427L270.484 174.301V174.14L270.455 173.698L270.553 173.193L270.995 171.706L271.345 170.851L271.316 170.69L271.219 170.277L271.282 168.382L272.2 164.686L273.211 162.946L274.158 161.999L274.508 161.746L275.013 161.683L275.329 161.999V162.033L275.49 161.873L275.806 162.033L276.058 162.16L275.995 162.573L275.49 163.997H275.473ZM277.528 162.447L277.43 162.636L278.033 161.339L278.257 161.052L278.572 160.862L278.825 160.707L279.078 160.834L279.393 160.989V161.431L278.917 163.044L274.083 174.703L272.884 177.481L272.694 177.86L272.315 178.113L272.091 178.268L271.902 178.113L271.586 177.86L271.552 177.671L271.523 177.165L271.839 176.029L272.063 175.489L271.684 175.931L271.46 175.834L271.236 175.736L271.202 175.449L271.299 174.657L272.344 172.097L275.88 163.532L276.862 161.477L277.43 160.971L277.62 161.132L277.809 161.322L277.746 161.574L277.522 162.43L277.528 162.447ZM282.08 162.223L281.322 164.244L280.564 165.822L278.923 168.004L278.607 170.024L278.32 171.322L277.465 173.503L276.075 176.85L275.254 178.87L274.623 180.231L274.399 180.581L273.796 180.897L273.636 180.834L273.194 180.673L272.97 180.386L272.78 180.099L272.746 179.812V179.117L273.096 178.072L273.067 178.17L272.78 178.394L272.809 178.107L272.97 177.441L274.204 174.473L278.251 164.743L279.233 162.343L279.52 161.804L279.617 161.58L279.933 161.706L280.375 161.075L280.628 160.851L281.133 160.725L281.294 160.696L281.672 160.822L281.988 161.046L282.212 161.523L282.086 162.217L282.08 162.223ZM278.762 179.726L277.878 181.81L277.499 182.475L277.338 182.665L276.896 182.762L276.609 182.665L276.322 182.349V181.907L276.512 181.304L276.133 181.402L275.88 181.465L275.656 181.339L275.306 181.115L275.243 180.96L275.117 180.42L275.18 179.978L275.846 178.147L277.711 173.658L278.125 172.648L278.412 172.142L278.825 171.855L279.049 172.108L279.147 172.613L279.181 173.813L279.083 175.805L278.515 177.257L278.705 177.229L278.992 177.326L279.307 177.74L279.279 178.182L278.773 179.731L278.762 179.726ZM288.808 166.454L286.816 171.287L283.435 179.439L282.579 181.523L282.04 182.567L281.626 183.009L281.184 183.136L280.932 183.233L280.708 183.107L280.329 182.917L280.266 182.665L280.237 182.033L279.95 182.257L279.726 182.384L279.347 182.349H279.06L278.9 182.125L278.676 181.838V181.586L278.739 180.983L279.56 178.865L280.444 177.223L282.183 175.455L282.625 173.118L283.004 170.748L284.554 166.861L285.473 164.617L286.041 163.291L286.672 162.498L286.925 162.275L287.43 162.338L287.717 162.498L288.004 162.94V163.354L287.688 164.427L287.752 164.364H288.383L288.607 164.617L288.831 164.904L288.894 165.248L288.796 166.448L288.808 166.454ZM284.985 164.686L283.974 167.183L283.308 168.733L282.895 169.714L282.579 170.346L282.137 170.598L281.85 170.374V170.219L281.913 168.514L282.545 166.586L282.482 166.614L282.195 166.517L281.845 166.419L281.431 165.914L281.368 165.661L281.305 165.248L281.466 164.582L282.413 162.246L282.953 161.201L283.176 160.914L283.745 160.564L284.221 160.627L284.571 160.816L284.858 161.258V161.609L284.669 162.366L284.767 162.303L285.306 162.464L285.432 162.877L285.404 163.48L284.99 164.68L284.985 164.686ZM289.026 171.89L285.897 179.41L285.14 181.178L284.853 181.746V181.241L284.474 181.97L284.158 182.257L283.779 182.384L283.492 182.447L282.953 182.097V181.907L282.918 181.431L283.331 180.323L284.124 178.394L288.039 168.916L288.986 166.672L289.491 165.914L289.744 166.012L290.059 166.201L290.186 166.517L290.122 168.824L289.583 170.185V170.374L289.422 170.88L289.009 171.89H289.026ZM290.668 172.269L290.415 174.892L289.657 176.947L289.91 176.597L289.876 176.787L289.847 177.292L289.279 178.681L289.026 179.031L288.837 178.842L288.268 180.013L286.592 181.436L286.276 181.563L285.926 181.465L285.639 181.368V181.178L285.702 180.638L286.46 178.71L289.147 172.263L289.841 170.65L290.191 170.237L290.57 170.426L290.633 170.839L290.662 172.263L290.668 172.269Z" fill="#FDF001"/>
<path d="M106.701 288.56L106.925 288.118L106.954 288.308L106.988 288.721L106.701 288.566V288.56ZM112.706 275.386L109.612 282.843L109.043 284.14L108.791 284.582L108.251 284.835L108.222 284.674L108.188 284.169L108.98 282.114L111.54 275.983L112.298 274.215L112.614 273.71H112.648L112.809 273.296L113.188 272.883L113.159 273.262L112.97 273.704H113.194L113.165 274.054L112.723 275.38L112.706 275.386ZM111.85 274.72L109.353 280.69L108.94 281.7L108.716 282.142L108.4 282.366L108.211 281.987V281.385L108.372 280.059L108.75 277.877L109.606 275.73L109.416 275.633L109.445 275.443L109.508 275.093L109.985 273.606L110.3 273.003L110.587 272.94H110.84L110.811 273.227L111.001 273.003L111.477 272.78L111.638 272.716L111.925 272.906L112.178 273.032V273.382L112.206 273.733L111.856 274.714L111.85 274.72ZM108.314 287.958L108.377 287.642L108.504 287.481L108.601 287.642L108.314 287.958ZM111.064 289.978L110.117 292.096L109.64 292.573L109.416 292.734L109.256 292.671L108.779 292.516L108.618 292.102L109.06 290.173L108.808 290.047L108.521 289.605L108.492 289.192L108.934 287.676L109.566 286.855L109.79 286.666H110.455L110.519 286.827L110.742 287.303L110.645 287.745V287.78L111.087 287.843L111.339 288.003L111.529 288.48L111.466 288.796L111.052 289.995L111.064 289.978ZM113.779 275.415L112.419 278.669L111.563 280.788L110.616 283.032L110.392 283.411L110.14 283.348L109.95 283.664L110.013 283.474L110.042 283.348H110.013L110.174 282.906L110.777 281.419L113.303 275.288L114.158 273.359L114.663 272.981L114.629 273.141L114.531 273.491L113.773 275.42L113.779 275.415ZM117.35 274.812L116.052 277.814L114.945 279.582L114.468 281.54L113.71 283.595L112.602 285.426L112.315 285.615L111.936 285.581L111.649 285.547L111.552 285.294L111.362 284.95L111.426 284.634L111.552 284.284L111.139 284.318L110.788 284.065L110.76 283.813L110.788 283.181L111.546 281.224L114.485 274.18L115.214 272.665L115.564 272.188L115.978 271.901L116.454 271.964L116.644 271.999L116.672 272.188L116.833 272.63L116.736 273.009L116.707 273.136L116.994 273.009L117.31 273.17L117.533 273.268L117.597 273.618L117.625 273.933L117.338 274.817L117.35 274.812ZM113.561 291.844L112.706 293.738L112.419 294.18L112.166 294.243L111.85 294.341L111.787 294.054L111.69 293.704L111.879 293.072L112.132 292.441L111.971 292.412L111.81 292.251L111.494 291.936V291.207L111.655 290.73L112.666 288.233L113.395 286.683L113.71 286.27L114.313 285.983H114.726L115.105 286.109L115.455 286.586L115.421 286.901L115.042 288.199L114.158 290.346L114.06 290.598L113.555 291.832L113.561 291.844ZM121.081 283.847L117.229 293.107L116.374 294.53L116.121 294.783L115.616 294.881L115.329 294.783L115.042 294.496L115.013 294.209L115.111 293.578L114.858 293.612H114.571L114.382 293.359L114.158 293.107L114.221 292.762L114.508 291.878L115.519 289.416L116.024 288.434L116.213 288.147L116.816 287.86L117.229 287.986L117.453 288.084L117.614 288.497L118.09 287.803L118.44 285.811L119.135 283.945H118.946L118.659 283.819L118.372 283.377V283.026L118.595 282.045L119.261 280.495L119.801 279.64L120.404 279.261L120.909 279.387L121.07 279.416L121.133 279.576L121.259 280.082L121.196 280.334L121.007 280.902H121.133L121.449 281L121.764 281.35V282.016L121.638 282.429L121.098 283.853L121.081 283.847ZM117.321 282.837L116.718 284.134L116.339 284.674L115.961 284.99L115.737 284.8L115.547 284.611L115.61 284.261L115.645 284.134L115.329 284.037L115.105 283.974L115.008 283.721L114.881 283.377L114.979 282.711L115.547 281.321L116.431 279.68L117.287 279.111L117.602 278.985L117.855 279.02L118.234 279.054L118.331 279.307L118.458 279.622L118.268 280.38L117.637 281.896L117.321 282.843V282.837ZM120.071 276.138L119.376 277.751L119.089 278.256L118.928 278.48L118.515 278.578L118.326 278.451L118.165 278.072L118.389 277.406L118.486 277.154L118.199 277.028L117.947 276.901L117.884 276.614L117.786 276.264L117.947 275.598L118.831 273.417L119.623 271.93L120.163 271.517L120.605 271.419L120.857 271.385L121.144 271.545L121.46 271.735L121.489 272.085L121.11 273.572L120.57 274.898L120.542 274.961L120.065 276.132L120.071 276.138ZM126.104 287.165L124.778 290.42L123.705 292.63L122.976 293.325L122.688 293.514H122.023L121.988 293.325L121.862 292.848L121.988 292.435L121.925 292.561L121.322 293.543L121.07 293.796L120.593 293.893L120.306 293.83L119.956 293.451L120.019 293.164L119.858 293.417L119.606 293.641L119.29 293.767L118.94 293.893L118.561 293.796L118.308 293.698L118.211 293.474L118.085 293.061L118.148 292.711L118.94 290.529L121.845 283.514L122.7 281.494L123.113 280.862L123.24 280.638L123.871 280.386L124.284 280.541L124.635 280.793L124.858 281.235L124.83 281.586L124.577 282.567L124.801 282.406L125.117 282.567L125.369 282.693L125.467 283.009L125.564 283.325L125.536 283.675L125.186 284.72L124.996 285.196L125.249 284.783L125.375 284.749L125.536 284.37L125.76 283.991L125.662 284.404L125.536 284.691L125.697 284.628L126.012 284.726L126.299 285.07L126.362 285.42L126.11 287.16L126.104 287.165ZM124.112 276.488L123.481 277.848L123.257 278.227L122.654 278.578L122.241 278.514L121.954 278.451L121.891 278.29L121.73 277.785L121.793 277.47L121.822 277.372L121.598 277.47L121.248 277.343L121.024 277.246L120.961 276.959L120.897 276.58L121.087 275.948L122.034 273.612L122.574 272.567L122.763 272.315L123.331 271.936L123.682 271.964L123.969 271.999L124.066 272.188L124.256 272.602L124.192 273.015L124.066 273.365L124.101 273.331L124.353 273.428L124.703 273.933L124.738 274.536L124.106 276.494L124.112 276.488ZM125.788 276.867L125.186 277.154L124.87 276.867L124.904 276.614L125.444 275.127L125.984 274.84L126.012 275.001L126.047 275.415V276.017L125.794 276.873L125.788 276.867ZM126.799 288.273V288.308L126.007 290.581L125.628 291.149L125.467 291.373L125.564 291.121L125.754 290.679L125.312 291.184L125.088 291.057L124.899 290.897L124.962 290.673L125.186 290.041L126.23 287.544L126.644 286.815L126.833 286.689L126.959 286.913L127.12 287.137L127.057 287.389L126.896 287.992L127.023 287.676L126.833 288.279H126.799V288.273Z" fill="#FDF001"/>
<path d="M134.187 275.449L130.777 283.698L129.956 285.564L129.64 285.879L129.198 285.753V285.592L129.169 285.15L129.267 284.645L129.709 283.158L130.059 282.303L130.03 282.142L129.933 281.729L129.996 279.835L130.914 276.138L131.925 274.398L132.872 273.451L133.222 273.199L133.727 273.135L134.043 273.451V273.486L134.204 273.325L134.519 273.486L134.772 273.612L134.709 274.025L134.204 275.449H134.187ZM136.242 273.899L136.144 274.088L136.747 272.791L136.971 272.504L137.286 272.315L137.539 272.16L137.792 272.286L138.107 272.441V272.883L137.631 274.496L132.797 286.155L131.598 288.933L131.408 289.312L131.029 289.565L130.805 289.72L130.616 289.565L130.3 289.312L130.266 289.123L130.237 288.618L130.553 287.481L130.777 286.941L130.398 287.383L130.174 287.286L129.95 287.188L129.916 286.901L130.013 286.109L131.058 283.549L134.594 274.984L135.576 272.929L136.144 272.424L136.333 272.584L136.523 272.774L136.46 273.026L136.236 273.882L136.242 273.899ZM140.794 273.675L140.036 275.696L139.278 277.274L137.637 279.456L137.321 281.476L137.034 282.774L136.178 284.955L134.789 288.302L133.968 290.323L133.337 291.683L133.113 292.033L132.51 292.349L132.35 292.286L131.908 292.125L131.684 291.838L131.494 291.551L131.46 291.264V290.569L131.81 289.525L131.781 289.622L131.494 289.846L131.523 289.559L131.684 288.893L132.918 285.925L136.965 276.195L137.947 273.796L138.234 273.256L138.331 273.032L138.647 273.158L139.089 272.527L139.342 272.303L139.847 272.177L140.007 272.148L140.386 272.274L140.702 272.498L140.926 272.975L140.8 273.669L140.794 273.675ZM137.476 291.178L136.592 293.262L136.213 293.928L136.052 294.117L135.61 294.215L135.323 294.117L135.036 293.801V293.359L135.226 292.757L134.847 292.854L134.594 292.917L134.37 292.791L134.02 292.567L133.957 292.412L133.831 291.872L133.894 291.43L134.56 289.599L136.425 285.11L136.839 284.1L137.126 283.595L137.539 283.308L137.763 283.56L137.86 284.065L137.895 285.265L137.797 287.257L137.229 288.709L137.418 288.681L137.705 288.778L138.021 289.192L137.993 289.634L137.487 291.184L137.476 291.178ZM147.522 277.906L145.53 282.739L142.149 290.891L141.293 292.975L140.754 294.019L140.34 294.461L139.898 294.588L139.646 294.685L139.422 294.559L139.043 294.37L138.98 294.117L138.951 293.486L138.664 293.709L138.44 293.836L138.061 293.801H137.774L137.614 293.577L137.39 293.29V293.038L137.453 292.435L138.274 290.317L139.158 288.675L140.897 286.907L141.339 284.571L141.718 282.2L143.268 278.313L144.187 276.069L144.755 274.743L145.386 273.951L145.639 273.727L146.144 273.79L146.431 273.951L146.718 274.393V274.806L146.402 275.879L146.466 275.816H147.097L147.321 276.069L147.545 276.356L147.608 276.7L147.51 277.9L147.522 277.906ZM143.699 276.138L142.688 278.635L142.022 280.185L141.609 281.166L141.293 281.798L140.851 282.05L140.564 281.827V281.672L140.627 279.967L141.259 278.038L141.196 278.067L140.909 277.969L140.559 277.871L140.145 277.366L140.082 277.114L140.019 276.7L140.18 276.034L141.127 273.698L141.666 272.653L141.89 272.366L142.459 272.016L142.935 272.079L143.285 272.269L143.572 272.711V273.061L143.383 273.819L143.48 273.755L144.02 273.916L144.146 274.329L144.118 274.932L143.704 276.132L143.699 276.138ZM147.74 283.342L144.611 290.862L143.854 292.63L143.567 293.199V292.693L143.188 293.422L142.872 293.709L142.493 293.836L142.206 293.899L141.666 293.549V293.359L141.632 292.883L142.045 291.775L142.838 289.846L146.753 280.368L147.7 278.124L148.205 277.366L148.457 277.464L148.773 277.653L148.9 277.969L148.836 280.277L148.297 281.637V281.827L148.136 282.332L147.723 283.342H147.74ZM149.382 283.721L149.129 286.344L148.371 288.399L148.624 288.049L148.59 288.239L148.561 288.744L147.993 290.133L147.74 290.483L147.55 290.294L146.982 291.465L145.306 292.889L144.99 293.015L144.64 292.917L144.353 292.82V292.63L144.416 292.091L145.174 290.162L147.86 283.715L148.555 282.102L148.905 281.689L149.284 281.878L149.347 282.292L149.376 283.715L149.382 283.721Z" fill="#FDF001"/>
<path d="M195.937 116.649V226C195.937 227.039 195.094 227.883 194.055 227.883H66.7928C65.7538 227.883 64.9099 228.727 64.9099 229.766V339.117C64.9099 340.156 65.7538 341 66.7928 341H323.205C324.244 341 325.088 340.156 325.088 339.117V116.649C325.088 115.61 324.244 114.766 323.205 114.766H197.826C196.787 114.766 195.943 115.61 195.943 116.649H195.937ZM177.556 314.318C177.556 321.08 172.074 326.563 165.312 326.563H93.6413C86.8789 326.563 81.3967 321.08 81.3967 314.318V254.576C81.3967 247.814 86.8789 242.332 93.6413 242.332H165.318C172.08 242.332 177.562 247.814 177.562 254.576V314.318H177.556ZM212.43 141.454C212.43 134.691 217.912 129.209 224.675 129.209H296.351C303.113 129.209 308.595 134.691 308.595 141.454V201.195C308.595 207.958 303.113 213.44 296.351 213.44H224.675C217.912 213.44 212.43 207.958 212.43 201.195V141.454Z" fill="#001E7D"/>
<path d="M193.343 72.7222C198.63 74.054 203.601 79.3869 205.817 84.4673C208.033 89.5477 208.159 94.3582 207.482 99.8806C207.068 103.233 206.173 106.626 205.587 109.812C204.979 113.13 206.494 117.774 208.234 120.644C208.894 121.729 209.772 122.9 209.457 124.134C209.164 125.277 207.958 125.897 206.839 126.201C204.962 126.712 202.964 126.741 201.07 126.299C200.484 126.161 199.939 126.666 200.013 127.286C200.013 127.303 200.013 127.326 200.019 127.343C200.088 127.9 199.652 128.388 199.112 128.354C193.458 128.032 187.993 126.08 182.637 124.146C180.731 123.457 178.745 122.716 177.407 121.172C176.672 120.323 176.184 119.284 175.719 118.25C173.848 114.094 172.189 109.84 170.76 105.501" fill="#FE40B4"/>
<path d="M168.986 77.1712C173.194 72.0277 178.848 69.0655 185.49 68.9565C189.238 68.8933 190.788 69.674 193.492 70.4031C196.19 71.1321 198.63 72.5787 200.237 74.8692C202.149 77.5845 203.756 80.627 204.118 83.9278C204.491 87.3204 204.864 90.736 204.606 94.1344C204.347 97.5386 203.423 100.966 201.42 103.727L192.763 105.231C187.981 105.392 183.136 105.552 178.475 104.462C173.819 103.371 169.29 100.862 166.799 96.7808C163.331 91.1092 164.772 82.3204 168.98 77.1769L168.986 77.1712Z" fill="#FF9FDA"/>
<path d="M174.261 76.4765L185.806 71.8898L188.819 72.2399C195.605 72.2629 200.283 79.7486 200.329 85.2422C200.381 91.3444 200.197 98.8014 199.227 103.302C197.275 112.349 189.554 113.101 189.554 113.101C189.554 113.101 189.468 121.046 189.525 124.083C183.538 128.365 177.344 127.085 171.535 122.866L171.213 79.5763C171.271 77.9058 172.597 76.5626 174.261 76.4765V76.4765Z" fill="#FDF001" stroke="#00124C" stroke-miterlimit="10"/>
<path d="M195.771 92.6588C195.76 93.2788 195.226 93.7782 194.577 93.7782C193.934 93.7782 193.417 93.2788 193.429 92.6588C193.44 92.0389 193.974 91.5394 194.623 91.5394C195.272 91.5394 195.783 92.0446 195.771 92.6588Z" fill="#00124C"/>
<path d="M198.412 89.7198C198.257 89.8576 197.379 89.1917 196.087 89.14C194.801 89.0712 193.825 89.6509 193.693 89.5017C193.63 89.4328 193.791 89.1745 194.215 88.9104C194.635 88.6464 195.341 88.4053 196.144 88.4397C196.948 88.4799 197.608 88.7841 197.987 89.0826C198.372 89.3811 198.492 89.6567 198.418 89.7141L198.412 89.7198Z" fill="#1A2E35"/>
<path d="M190.168 98.1755C190.168 98.1009 190.955 98.009 192.235 97.9172C192.556 97.9 192.866 97.8541 192.935 97.6359C193.021 97.4063 192.907 97.0561 192.774 96.6715C192.516 95.8736 192.241 95.0412 191.959 94.1686C190.828 90.6095 190.031 87.6876 190.174 87.6474C190.318 87.6015 191.351 90.4545 192.482 94.0136C192.752 94.8919 193.01 95.7301 193.257 96.528C193.36 96.9011 193.544 97.3259 193.354 97.8024C193.257 98.0378 193.01 98.1985 192.797 98.2444C192.585 98.2961 192.407 98.2903 192.246 98.2903C190.966 98.2903 190.174 98.2502 190.174 98.1813L190.168 98.1755Z" fill="#1A2E35"/>
<path d="M189.485 112.338C189.485 112.338 184.129 112.389 179.014 108.922C179.014 108.922 181.54 114.576 189.525 114.272L189.485 112.343V112.338Z" fill="#FFF983"/>
<path d="M198.091 86.3271C197.861 86.6256 196.908 86.3673 195.777 86.396C194.646 86.396 193.693 86.6716 193.464 86.3845C193.36 86.241 193.498 85.9483 193.906 85.6612C194.308 85.3742 194.991 85.1274 195.766 85.1159C196.546 85.1044 197.229 85.3398 197.631 85.6153C198.045 85.8909 198.188 86.1836 198.085 86.3271H198.091Z" fill="#FE40B4"/>
<path d="M181.184 92.3949C181.15 93.0149 181.649 93.5488 182.292 93.5947C182.935 93.6406 183.486 93.1757 183.521 92.5614C183.555 91.9414 183.056 91.4018 182.413 91.3559C181.77 91.31 181.219 91.775 181.184 92.3892V92.3949Z" fill="#00124C"/>
<path d="M180.513 89.1514C180.662 89.3294 181.672 88.6578 183.056 88.7381C184.439 88.7955 185.409 89.5648 185.57 89.404C185.65 89.3351 185.501 89.0194 185.076 88.675C184.657 88.3306 183.934 87.9804 183.073 87.9345C182.212 87.8943 181.471 88.1698 181.035 88.4741C180.593 88.7783 180.432 89.0768 180.507 89.1514H180.513Z" fill="#1A2E35"/>
<path d="M182.384 84.7312C182.625 85.0239 183.607 84.7426 184.778 84.7484C185.949 84.7197 186.936 84.978 187.172 84.6852C187.275 84.5417 187.126 84.2547 186.695 83.9734C186.271 83.6979 185.564 83.4625 184.761 83.4682C183.957 83.4797 183.257 83.7266 182.843 84.0136C182.424 84.3006 182.287 84.5934 182.39 84.7369L182.384 84.7312Z" fill="#FE40B4"/>
<path d="M190.274 104.889C190.606 103.678 190.238 102.522 189.452 102.307C188.667 102.091 187.76 102.898 187.428 104.109C187.096 105.319 187.464 106.476 188.25 106.691C189.035 106.907 189.942 106.1 190.274 104.889Z" fill="#FF9FDA"/>
<path d="M183.515 101.591C185.903 103.629 189.118 104.014 192.137 104.123C192.35 104.117 192.568 104.123 192.786 104.129C192.803 104.129 192.815 104.14 192.815 104.157C189.789 104.921 185.209 104.312 183.515 101.591V101.591Z" fill="#00124C"/>
<path d="M180.071 102.125C180.946 102.125 181.655 101.416 181.655 100.541C181.655 99.6657 180.946 98.9563 180.071 98.9563C179.196 98.9563 178.486 99.6657 178.486 100.541C178.486 101.416 179.196 102.125 180.071 102.125Z" fill="#FE40B4"/>
<path d="M196.85 102.728C197.725 102.728 198.435 102.018 198.435 101.143C198.435 100.268 197.725 99.559 196.85 99.559C195.975 99.559 195.266 100.268 195.266 101.143C195.266 102.018 195.975 102.728 196.85 102.728Z" fill="#FE40B4"/>
<path d="M161.994 86.178C166.724 76.5454 173.813 70.1447 186.489 69.6854L176.431 94.1975C171.701 101.069 171.707 109.393 174.198 117.355C174.898 119.582 175.84 122.16 174.531 124.094C173.216 126.04 170.191 126.08 168.216 124.812C167.143 124.123 166.311 123.17 165.593 122.114C165.117 121.413 164.204 121.201 163.446 121.574C163.417 121.586 163.394 121.597 163.366 121.608C162.487 121.964 161.448 121.534 160.828 120.828C160.203 120.116 159.91 119.186 159.675 118.268C158.842 115.059 158.498 111.741 158.337 108.428C157.975 100.839 158.647 93.0034 161.994 86.1837V86.178Z" fill="#FE40B4"/>
<path d="M175.668 95.4603C175.691 94.7829 174.962 93.1469 174.296 93.0206C172.511 92.6761 169.279 92.7048 169.083 97.2571C168.819 103.48 175.117 102.464 175.14 102.286C175.157 102.148 175.593 97.8082 175.674 95.466L175.668 95.4603Z" fill="#FDF001"/>
<path d="M170.105 90.7647L171.833 92.6706C171.896 92.7395 172 92.7567 172.08 92.7108C188.527 83.6063 194.468 69.2722 194.015 69.4214C193.963 69.4387 193.906 69.4501 193.854 69.4329C193.067 69.1459 188.073 67.4237 182.723 68.1987C176.896 69.0426 165.852 71.6028 166.11 77.9806C166.363 84.1688 169.87 90.3686 170.082 90.7303C170.088 90.7418 170.094 90.7532 170.105 90.7647V90.7647Z" fill="#FF9FDA"/>
<path d="M156.121 125.851L169.95 120.621C177.728 123.623 184.364 122.418 189.663 116.327L205.547 118.434C208.899 118.503 214.697 125.541 219.118 133.084C223.073 139.835 226.184 146.631 226.184 146.631L207.711 153.532C206.661 161.396 205.116 171.763 203.779 175.868C201.506 182.86 200.817 192.464 200.817 192.464L156.925 186.746L156.305 156.62L141.879 154.743C141.902 153.681 147.441 128.532 156.115 125.856L156.121 125.851Z" fill="#5570C6"/>
<path d="M157.229 137.923C157.229 137.923 157.224 138.199 157.149 138.681C157.074 139.163 156.977 139.863 156.868 140.73C156.649 142.458 156.437 144.863 156.437 147.527C156.437 150.191 156.655 152.59 156.879 154.324C156.988 155.191 157.091 155.891 157.166 156.373C157.241 156.855 157.269 157.125 157.246 157.131C157.224 157.131 157.155 156.873 157.046 156.396C156.931 155.92 156.799 155.225 156.661 154.358C156.38 152.63 156.127 150.214 156.127 147.533C156.127 144.852 156.374 142.435 156.649 140.707C156.787 139.84 156.919 139.146 157.034 138.669C157.143 138.193 157.212 137.929 157.235 137.935L157.229 137.923Z" fill="#00124C"/>
<path d="M142.465 155.162L156.713 156.706L156.489 160.615L159.657 156.08L164.439 165.994C164.439 165.994 162.51 171.787 161.466 174.984C158.682 183.555 154.238 193.118 149.037 192.527C142.797 191.815 138.383 184.307 138.59 179.513C138.773 175.156 142.459 155.168 142.459 155.168L142.465 155.162Z" fill="#FDF001"/>
<path d="M135.788 211.993L111.081 221.683L120.473 233.049L141.5 229.393L135.788 211.993Z" fill="#FDF001"/>
<path d="M200.765 191.953C200.765 191.953 201.414 220.133 198.83 225.041C196.247 229.949 171.264 230.133 171.264 230.133L131.85 232.136L127.252 213.704C127.252 213.704 155.92 200.391 158.641 198.859C161.356 197.32 167.763 194.634 167.763 194.634L177.401 182.234L200.771 191.964L200.765 191.953Z" fill="#FF9FDA"/>
<path d="M155.22 230.46C155.22 230.46 155.323 230.414 155.53 230.351C155.771 230.282 156.07 230.196 156.437 230.087C157.27 229.857 158.406 229.542 159.807 229.157C162.706 228.388 166.678 227.332 171.144 226.149H171.162H171.19C171.799 226.12 172.442 226.132 173.09 226.029C173.722 225.977 174.325 225.828 174.927 225.713C175.519 225.541 176.11 225.409 176.661 225.185C177.786 224.806 178.814 224.278 179.755 223.727C181.627 222.596 183.102 221.252 184.17 219.984C185.237 218.715 185.915 217.544 186.34 216.723C186.552 216.31 186.684 215.977 186.793 215.753C186.896 215.529 186.96 215.414 186.965 215.42C186.977 215.42 186.937 215.546 186.85 215.776C186.759 216.006 186.644 216.35 186.449 216.775C186.053 217.619 185.398 218.818 184.336 220.121C183.28 221.419 181.799 222.802 179.904 223.968C178.946 224.53 177.907 225.076 176.764 225.466C176.202 225.696 175.599 225.828 175.002 226.006C174.388 226.12 173.768 226.275 173.131 226.327C172.47 226.43 171.81 226.419 171.19 226.448H171.23C166.753 227.59 162.775 228.606 159.87 229.352C158.464 229.697 157.315 229.984 156.477 230.185C156.104 230.271 155.8 230.34 155.559 230.397C155.346 230.443 155.237 230.46 155.232 230.449L155.22 230.46Z" fill="#00124C"/>
<path d="M156.391 200.524L149.68 159.49C149.68 159.49 150.57 129.955 133.98 132.068C117.396 134.18 119.376 160.173 119.376 160.173C119.376 160.173 121.523 195.805 122.694 200.948C123.865 206.092 124.456 211.815 127.849 213.876L142.901 211.534L156.385 200.529L156.391 200.524Z" fill="#FF9FDA"/>
<path d="M143.464 139.542L147.448 149.238L144.962 186.276C144.962 186.276 123.584 188.112 123.785 187.527C123.986 186.947 119.95 169.083 119.95 169.083C119.95 169.083 118.624 145.374 124.956 140.856C131.288 136.333 143.464 139.548 143.464 139.548V139.542Z" fill="#FF9FDA"/>
<path d="M144.123 186.344L143.848 204.025L128.911 212.223L124.864 187.642L144.123 186.344V186.344Z" fill="#FDF001"/>
<path d="M177.401 182.223L161.093 175.506L151.339 184.243L156.747 201.677L171.064 196.333L177.401 182.223Z" fill="#FF9FDA"/>
<path d="M128.182 213.704C128.182 213.704 128.245 213.663 128.383 213.595C128.532 213.52 128.727 213.422 128.98 213.296C129.525 213.032 130.295 212.653 131.288 212.171C133.314 211.201 136.213 209.812 139.789 208.095C143.389 206.379 147.671 204.347 152.419 202.085C154.795 200.954 157.292 199.771 159.881 198.543C161.173 197.929 162.493 197.309 163.831 196.671C164.497 196.356 165.174 196.034 165.851 195.713C166.19 195.552 166.529 195.391 166.873 195.231C167.212 195.07 167.551 194.898 167.924 194.789C169.37 194.249 170.874 193.968 172.361 193.887C173.848 193.807 175.329 193.882 176.747 194.163C179.589 194.685 182.195 195.787 184.439 197.194C186.701 198.583 188.555 200.334 190.094 202.102C191.621 203.893 192.832 205.73 193.808 207.464C195.754 210.954 196.839 214.014 197.539 216.126C197.889 217.182 198.136 218.015 198.291 218.577C198.366 218.847 198.423 219.06 198.463 219.22C198.504 219.364 198.515 219.438 198.515 219.444C198.515 219.444 198.481 219.375 198.435 219.232C198.383 219.071 198.314 218.864 198.228 218.595C198.05 218.038 197.786 217.211 197.424 216.161C196.684 214.065 195.576 211.029 193.613 207.573C192.625 205.851 191.414 204.037 189.893 202.269C188.36 200.523 186.523 198.801 184.284 197.435C182.068 196.057 179.491 194.972 176.695 194.461C175.3 194.186 173.842 194.117 172.384 194.197C170.926 194.278 169.439 194.559 168.039 195.081C167.677 195.185 167.338 195.357 167 195.518C166.661 195.678 166.316 195.839 165.978 196C165.3 196.321 164.629 196.637 163.957 196.953C162.62 197.584 161.305 198.204 160.008 198.818C157.419 200.041 154.922 201.218 152.539 202.343C147.78 204.582 143.492 206.597 139.887 208.29C136.293 209.967 133.377 211.327 131.345 212.274C130.346 212.733 129.566 213.089 129.015 213.342C128.756 213.457 128.555 213.543 128.406 213.612C128.268 213.669 128.194 213.698 128.194 213.692L128.182 213.704Z" fill="#00124C"/>
<path d="M159.244 199.283C159.175 199.283 159.353 198.239 159.061 196.603C158.791 194.961 157.935 192.814 156.724 190.575C155.513 188.336 154.422 186.27 153.923 184.651C153.664 183.847 153.521 183.181 153.458 182.716C153.395 182.251 153.389 181.987 153.406 181.987C153.463 181.976 153.567 183.015 154.135 184.582C154.68 186.155 155.788 188.181 157.005 190.426C158.222 192.676 159.072 194.88 159.284 196.568C159.405 197.406 159.405 198.095 159.365 198.56C159.325 199.031 159.267 199.283 159.25 199.283H159.244Z" fill="#00124C"/>
<path d="M119.95 169.083C119.95 169.083 119.973 169.146 120.008 169.272C120.042 169.416 120.094 169.605 120.151 169.84C120.277 170.363 120.45 171.098 120.674 172.028C121.116 173.933 121.747 176.689 122.488 180.099C122.855 181.804 123.263 183.675 123.653 185.696C123.745 186.201 123.848 186.712 123.911 187.251C123.911 187.332 123.928 187.372 123.923 187.481V187.556C123.905 187.59 123.934 187.527 123.917 187.487C123.888 187.441 123.894 187.452 123.888 187.447C123.86 187.435 123.911 187.447 123.923 187.452C124.038 187.475 124.17 187.481 124.302 187.487C124.566 187.498 124.835 187.498 125.111 187.487C126.202 187.47 127.327 187.406 128.475 187.343C133.085 187.068 138.148 186.666 143.458 186.23C143.969 186.189 144.474 186.144 144.945 186.103L144.801 186.253C145.513 175.96 146.15 166.712 146.609 160.013C146.856 156.689 147.051 153.997 147.189 152.114C147.264 151.201 147.321 150.483 147.361 149.972C147.384 149.743 147.401 149.559 147.413 149.416C147.424 149.289 147.436 149.226 147.442 149.226C147.442 149.226 147.447 149.289 147.442 149.416C147.442 149.559 147.43 149.743 147.419 149.972C147.39 150.483 147.356 151.201 147.304 152.119C147.189 154.002 147.023 156.695 146.822 160.024C146.385 166.723 145.777 175.977 145.105 186.276L145.094 186.413L144.956 186.425C144.485 186.465 143.98 186.505 143.469 186.551C138.153 186.987 133.09 187.383 128.475 187.642C127.321 187.705 126.196 187.757 125.1 187.774C124.824 187.774 124.554 187.774 124.279 187.762C124.141 187.757 124.009 187.751 123.854 187.722C123.802 187.705 123.785 187.722 123.705 187.665C123.687 187.648 123.676 187.653 123.647 187.59C123.636 187.561 123.636 187.533 123.636 187.504C123.647 187.47 123.728 187.504 123.636 187.475V187.447C123.636 187.447 123.624 187.332 123.624 187.28C123.567 186.764 123.469 186.247 123.377 185.747C123.004 183.733 122.608 181.855 122.252 180.15C121.529 176.746 120.943 173.991 120.536 172.056C120.341 171.115 120.186 170.38 120.077 169.852C120.031 169.611 119.99 169.421 119.962 169.278C119.939 169.146 119.927 169.083 119.933 169.077L119.95 169.083Z" fill="#00124C"/>
<path d="M139.635 136.752C139.635 136.752 139.818 136.884 140.111 137.159C140.41 137.435 140.812 137.86 141.288 138.405C142.241 139.496 143.435 141.12 144.457 143.084C145.479 145.053 146.127 146.958 146.472 148.365C146.644 149.065 146.764 149.639 146.816 150.041C146.874 150.443 146.896 150.661 146.879 150.667C146.828 150.678 146.655 149.8 146.259 148.422C145.863 147.044 145.192 145.173 144.181 143.233C143.171 141.292 142.023 139.668 141.122 138.554C140.22 137.435 139.6 136.798 139.64 136.757L139.635 136.752Z" fill="#00124C"/>
<path d="M164.049 194.605C164.049 194.605 164.066 194.387 164.152 194.014C164.239 193.64 164.382 193.101 164.589 192.441C164.996 191.126 165.674 189.341 166.632 187.464C167.591 185.586 168.642 183.991 169.468 182.888C169.882 182.337 170.226 181.901 170.484 181.614C170.737 181.321 170.886 181.172 170.903 181.183C170.944 181.218 170.427 181.89 169.652 183.02C168.877 184.151 167.867 185.753 166.919 187.607C165.972 189.467 165.266 191.224 164.807 192.51C164.348 193.801 164.101 194.611 164.055 194.599L164.049 194.605Z" fill="#00124C"/>
<path d="M190.869 192.464C190.92 192.446 191.133 193.084 191.58 194.065C192.028 195.047 191.672 199.679 193.745 197.653C195.811 195.627 195.834 199.978 196.667 200.655C197.499 201.338 198.061 201.706 198.033 201.752C198.021 201.769 197.872 201.694 197.602 201.545C197.332 201.396 196.965 201.155 196.523 200.833C195.645 200.19 194.508 199.169 193.486 197.848C192.464 196.522 191.77 195.167 191.368 194.151C191.167 193.646 191.029 193.227 190.955 192.929C190.874 192.636 190.846 192.469 190.863 192.464H190.869Z" fill="#00124C"/>
<path d="M111.443 233.319C102.241 232.848 99.9156 233.141 90.7078 232.67C88.4575 232.556 80.283 232.843 78.4001 231.603C76.6895 230.477 74.4908 229.421 74.0431 227.424C73.2853 224.054 74.221 220.236 77.3209 218.124C78.3887 217.395 79.6516 216.987 80.9375 216.884C86.3737 216.448 91.345 220.42 96.7813 219.243C98.2509 218.928 99.5712 218.107 101.029 217.756C103.165 217.246 105.444 217.779 107.396 218.784C109.347 219.789 109.801 219.961 109.801 219.961L119.474 216.683L122.499 233.606L111.443 233.319V233.319Z" fill="#FE40B4"/>
<path d="M111.443 233.319C102.241 232.848 99.9156 233.141 90.7078 232.67C88.4575 232.556 80.283 232.843 78.4001 231.603C76.6895 230.477 74.4908 229.421 74.0431 227.424C73.2853 224.054 74.221 220.236 77.3209 218.124C78.3887 217.395 79.6516 216.987 80.9375 216.884C86.3737 216.448 91.345 220.42 96.7813 219.243C98.2509 218.928 99.5712 218.107 101.029 217.756C103.165 217.246 105.444 217.779 107.396 218.784C109.347 219.789 109.801 219.961 109.801 219.961L119.474 216.683L122.499 233.606L111.443 233.319V233.319Z" fill="black" fill-opacity="0.2"/>
<path d="M119.646 212.693L114.56 214.352C113.779 214.605 113.32 215.408 113.498 216.206L117.43 234.352C117.602 235.15 118.354 235.69 119.169 235.598L124.342 235.024C125.277 234.92 125.92 234.031 125.725 233.112L121.707 213.881C121.511 212.951 120.553 212.395 119.646 212.693V212.693Z" fill="#FE40B4"/>
<path d="M119.646 212.693L114.56 214.352C113.779 214.605 113.32 215.408 113.498 216.206L117.43 234.352C117.602 235.15 118.354 235.69 119.169 235.598L124.342 235.024C125.277 234.92 125.92 234.031 125.725 233.112L121.707 213.881C121.511 212.951 120.553 212.395 119.646 212.693V212.693Z" fill="black" fill-opacity="0.2"/>
<path d="M117.545 235.064C117.488 235.081 117.12 234.042 116.604 232.343C116.087 230.644 115.433 228.273 114.853 225.621C114.273 222.969 113.883 220.541 113.676 218.773C113.573 217.889 113.504 217.171 113.469 216.677C113.435 216.184 113.435 215.902 113.469 215.902C113.532 215.897 113.699 216.982 113.986 218.732C114.273 220.483 114.704 222.889 115.283 225.529C115.863 228.17 116.472 230.541 116.908 232.263C117.35 233.979 117.614 235.047 117.551 235.064H117.545Z" fill="#1A2E35"/>
<path d="M114.353 218.52C114.273 218.451 115.823 217.159 118.199 216.798C120.576 216.407 122.447 217.159 122.39 217.251C122.361 217.383 120.524 216.855 118.262 217.234C116.001 217.573 114.416 218.646 114.347 218.526L114.353 218.52Z" fill="#00124C"/>
<path d="M114.956 225.368C114.921 225.253 116.822 224.582 119.233 224.019C121.649 223.457 123.647 223.227 123.67 223.342C123.693 223.462 121.735 223.887 119.336 224.444C116.936 225.001 114.99 225.483 114.956 225.368V225.368Z" fill="#00124C"/>
<path d="M117.275 232.464C117.275 232.326 119.256 232.561 121.432 231.631C123.624 230.741 124.853 229.169 124.95 229.266C124.991 229.295 124.75 229.731 124.187 230.305C123.63 230.879 122.729 231.557 121.598 232.033C120.461 232.504 119.342 232.665 118.544 232.653C117.74 232.647 117.264 232.515 117.27 232.464H117.275Z" fill="#00124C"/>
<path d="M144.508 198.376L144.124 206.023L128.865 213.348L126.322 200.581L144.508 198.376Z" fill="#FE40B4"/>
<path d="M123.796 196.086L124.939 201.413C125.111 202.228 125.874 202.779 126.707 202.688L145.507 200.627C146.334 200.535 146.959 199.835 146.954 198.996L146.919 193.698C146.913 192.739 146.081 191.993 145.128 192.091L125.22 194.129C124.256 194.226 123.595 195.139 123.796 196.086V196.086Z" fill="#FE40B4"/>
<path d="M146.236 200.587C146.248 200.644 145.157 200.908 143.383 201.252C141.603 201.597 139.135 202.004 136.391 202.314C133.641 202.624 131.138 202.756 129.33 202.779C128.423 202.791 127.694 202.785 127.183 202.762C126.678 202.745 126.397 202.716 126.397 202.688C126.397 202.619 127.516 202.573 129.319 202.464C131.121 202.36 133.607 202.177 136.345 201.867C139.078 201.557 141.546 201.195 143.337 200.937C145.122 200.673 146.23 200.518 146.242 200.581L146.236 200.587Z" fill="#00124C"/>
<path d="M129.141 202.068C129.06 202.142 127.918 200.437 127.803 197.986C127.66 195.535 128.618 193.721 128.705 193.784C128.837 193.824 128.108 195.633 128.245 197.957C128.354 200.288 129.267 202.005 129.141 202.062V202.068Z" fill="#00124C"/>
<path d="M136.139 202.182C136.024 202.205 135.536 200.213 135.226 197.705C134.91 195.196 134.887 193.147 135.008 193.141C135.134 193.135 135.352 195.162 135.668 197.653C135.978 200.144 136.265 202.165 136.139 202.188V202.182Z" fill="#00124C"/>
<path d="M143.572 200.581C143.435 200.564 143.877 198.583 143.17 196.281C142.499 193.962 141.041 192.556 141.15 192.464C141.184 192.424 141.598 192.716 142.12 193.348C142.642 193.973 143.234 194.955 143.595 196.155C143.951 197.355 143.991 198.503 143.899 199.312C143.808 200.122 143.624 200.598 143.572 200.581V200.581Z" fill="#00124C"/>
<path d="M178.487 142.24C178.487 142.24 170.691 143.336 170.192 143.819C169.692 144.301 159.658 156.08 159.658 156.08L164.44 165.994C164.44 165.994 172.379 161.907 173.286 161.436C174.193 160.966 176.087 160.592 176.087 160.592C176.087 160.592 184.945 159.387 185.542 158.336C186.139 157.286 185.817 157.033 185.163 156.855C184.514 156.677 179.216 157.171 178.039 157.36C176.856 157.55 174.526 157.286 174.526 157.286C174.526 157.286 178.211 156.505 179.049 156.235C179.887 155.96 188.136 154.301 188.039 152.825C187.941 151.35 186.925 150.793 181.759 152.079C176.586 153.365 173.062 153.29 173.062 153.29L184.508 149.565C184.508 149.565 189.118 148.187 187.671 146.85C186.225 145.512 176.357 148.003 176.357 148.003L171.988 149.548L173.268 146.959C173.268 146.959 179.468 145.259 180.272 144.662C181.265 143.922 181.42 143.216 180.697 142.567C179.973 141.918 178.492 142.24 178.492 142.24H178.487Z" fill="#FDF001"/>
<path d="M205.105 129.829C205.105 129.829 205.117 130.145 205.209 130.702C205.312 131.339 205.444 132.125 205.599 133.061C205.932 135.053 206.368 137.808 206.764 140.862C207.16 143.916 207.442 146.689 207.631 148.704C207.723 149.645 207.798 150.443 207.855 151.086C207.912 151.649 207.953 151.959 207.981 151.959C208.01 151.959 208.016 151.643 208.004 151.08C207.993 150.512 207.958 149.697 207.901 148.687C207.78 146.666 207.539 143.882 207.143 140.816C206.747 137.757 206.265 135.001 205.863 133.015C205.662 132.022 205.49 131.224 205.352 130.673C205.22 130.122 205.134 129.823 205.105 129.829V129.829Z" fill="#00124C"/>
<path d="M174.342 132.234L176.615 154.037C176.69 154.777 177.344 155.317 178.084 155.26L191.592 154.18C192.338 154.123 192.901 153.468 192.849 152.722L191.23 129.8C191.173 129.002 190.45 128.423 189.657 128.543L175.49 130.736C174.766 130.845 174.261 131.505 174.336 132.229L174.342 132.234Z" fill="#FE40B4"/>
<path d="M185.748 139.496C185.748 139.496 193.618 139.301 194.192 139.691C194.766 140.081 206.592 150.058 206.592 150.058L203.498 160.621C203.498 160.621 194.996 157.888 194.02 157.573C193.044 157.257 191.121 157.2 191.121 157.2C191.121 157.2 182.183 157.464 181.425 156.522C180.668 155.581 180.943 155.282 181.557 155.001C182.172 154.72 187.476 154.335 188.67 154.329C189.87 154.329 192.126 153.681 192.126 153.681C192.126 153.681 188.366 153.52 187.493 153.382C186.626 153.25 178.211 152.963 178.067 151.494C177.924 150.024 178.831 149.306 184.141 149.725C189.451 150.144 192.918 149.496 192.918 149.496L181.012 147.693C181.012 147.693 176.242 147.091 177.447 145.535C178.653 143.979 188.796 144.817 188.796 144.817L193.36 145.627L191.672 143.279C191.672 143.279 185.277 142.619 184.388 142.159C183.285 141.591 183.021 140.919 183.624 140.162C184.233 139.404 185.748 139.479 185.748 139.479V139.496Z" fill="#FDF001"/>
<path d="M223.165 147.757L209.974 152.682L210.215 154.513L206.242 149.789L202.58 159.301C202.58 159.301 208.716 171.362 210.043 174.456C213.866 183.382 220.622 188.061 225.467 186.075C231.277 183.698 234.652 177.538 231.989 170.713C230.404 166.649 223.165 147.757 223.165 147.757V147.757Z" fill="#FDF001"/>
<path d="M206.586 150.059C206.586 150.059 206.483 149.955 206.265 149.766C206.035 149.571 205.714 149.289 205.295 148.928C204.428 148.187 203.171 147.114 201.557 145.736C199.927 144.358 197.935 142.682 195.628 140.736C195.335 140.495 195.042 140.248 194.738 140.001C194.588 139.875 194.433 139.754 194.273 139.628C194.066 139.508 193.848 139.496 193.653 139.462C192.843 139.376 192.011 139.358 191.156 139.341C189.445 139.312 187.637 139.33 185.742 139.37H185.754C185.277 139.358 184.795 139.41 184.324 139.571C184.089 139.651 183.859 139.772 183.664 139.95C183.469 140.139 183.331 140.346 183.239 140.604C183.148 140.862 183.171 141.172 183.308 141.413C183.446 141.655 183.647 141.838 183.854 141.993C184.072 142.143 184.279 142.28 184.548 142.366C184.801 142.447 185.053 142.504 185.306 142.556C187.332 142.94 189.456 143.182 191.661 143.423L191.563 143.365C192.086 144.094 192.665 144.898 193.251 145.713L193.394 145.489C191.971 145.237 190.415 144.961 188.836 144.68H188.825C186.908 144.531 184.944 144.439 182.929 144.45C181.925 144.462 180.909 144.49 179.881 144.605C179.37 144.668 178.854 144.743 178.343 144.892C178.09 144.973 177.832 145.059 177.591 145.225C177.35 145.397 177.155 145.644 177.12 145.977C177.091 146.327 177.327 146.597 177.539 146.769C177.763 146.942 178.01 147.068 178.257 147.177C178.756 147.389 179.273 147.527 179.795 147.648C180.846 147.877 181.902 147.986 182.964 148.164C185.088 148.486 187.235 148.813 189.411 149.14C190.587 149.318 191.758 149.496 192.912 149.668V149.358C190.191 149.777 187.442 149.795 184.789 149.628C183.458 149.536 182.126 149.427 180.805 149.49C180.145 149.525 179.479 149.582 178.842 149.852C178.532 149.984 178.217 150.214 178.062 150.552C177.907 150.891 177.895 151.236 177.947 151.591C177.993 151.815 178.148 151.947 178.285 152.051C178.429 152.154 178.578 152.234 178.727 152.298C179.032 152.43 179.342 152.527 179.646 152.608C180.266 152.768 180.886 152.877 181.5 152.969C182.734 153.153 183.957 153.268 185.157 153.36C185.76 153.405 186.351 153.446 186.942 153.492C187.522 153.532 188.113 153.624 188.699 153.652C189.864 153.733 191.006 153.784 192.126 153.836L192.091 153.566C190.823 153.899 189.566 154.232 188.314 154.226C187.045 154.278 185.811 154.376 184.611 154.479C184.009 154.531 183.417 154.594 182.832 154.663C182.539 154.697 182.246 154.737 181.959 154.789C181.816 154.818 181.667 154.846 181.512 154.904C181.38 154.967 181.242 155.036 181.115 155.133C180.989 155.225 180.874 155.386 180.857 155.57C180.84 155.748 180.897 155.903 180.96 156.04C181.024 156.178 181.11 156.299 181.19 156.419L181.322 156.591C181.368 156.643 181.448 156.723 181.512 156.752C182.057 157.028 182.608 157.062 183.142 157.143C185.295 157.366 187.309 157.355 189.175 157.349C189.64 157.343 190.099 157.332 190.541 157.326C190.989 157.309 191.414 157.309 191.839 157.349C192.683 157.412 193.498 157.487 194.221 157.74C197.16 158.67 199.474 159.399 201.064 159.898C201.845 160.139 202.453 160.329 202.872 160.455C203.067 160.512 203.222 160.558 203.337 160.593C203.44 160.621 203.498 160.639 203.498 160.633C203.498 160.633 203.446 160.61 203.343 160.57C203.228 160.529 203.079 160.478 202.884 160.409C202.464 160.271 201.867 160.07 201.087 159.812C199.502 159.295 197.195 158.537 194.267 157.579C192.769 157.079 191.018 157.114 189.169 157.148C187.31 157.148 185.295 157.148 183.165 156.913C182.648 156.838 182.074 156.775 181.626 156.546C181.563 156.517 181.546 156.488 181.5 156.442L181.38 156.281C181.305 156.172 181.225 156.058 181.173 155.943C181.052 155.702 181.047 155.472 181.259 155.329C181.357 155.254 181.477 155.191 181.603 155.128C181.718 155.087 181.856 155.059 181.994 155.03C182.275 154.984 182.562 154.944 182.849 154.909C183.429 154.841 184.02 154.783 184.623 154.732C185.823 154.628 187.057 154.542 188.314 154.49C189.6 154.502 190.88 154.169 192.16 153.836C192.235 153.819 192.275 153.744 192.258 153.67C192.241 153.612 192.189 153.572 192.132 153.566C191.012 153.515 189.87 153.457 188.716 153.377C188.13 153.348 187.568 153.262 186.965 153.216C186.374 153.17 185.777 153.124 185.18 153.078C183.98 152.981 182.763 152.866 181.546 152.682C180.938 152.59 180.323 152.481 179.721 152.32C179.422 152.24 179.124 152.148 178.848 152.028C178.59 151.907 178.274 151.741 178.239 151.534C178.199 151.264 178.211 150.937 178.331 150.69C178.446 150.438 178.687 150.26 178.963 150.139C179.52 149.898 180.174 149.835 180.817 149.806C182.114 149.749 183.429 149.858 184.761 149.95C187.442 150.116 190.186 150.105 192.958 149.68C193.044 149.668 193.102 149.588 193.09 149.502C193.079 149.433 193.027 149.381 192.958 149.37C191.804 149.192 190.633 149.02 189.456 148.842C187.281 148.515 185.128 148.187 183.004 147.866C181.942 147.694 180.88 147.579 179.858 147.355C179.347 147.24 178.842 147.102 178.377 146.907C178.142 146.81 177.918 146.695 177.729 146.546C177.545 146.396 177.407 146.213 177.424 146.023C177.47 145.598 177.947 145.34 178.423 145.214C178.905 145.07 179.405 144.996 179.91 144.938C180.915 144.823 181.925 144.795 182.924 144.783C184.921 144.772 186.885 144.864 188.791 145.001H188.779C190.363 145.277 191.913 145.552 193.343 145.805C193.423 145.816 193.498 145.765 193.509 145.69C193.515 145.65 193.509 145.61 193.486 145.581C192.901 144.766 192.321 143.962 191.793 143.239C191.77 143.205 191.73 143.187 191.695 143.182C189.502 142.94 187.367 142.711 185.369 142.338C185.122 142.286 184.876 142.234 184.646 142.16C184.433 142.091 184.21 141.953 184.02 141.821C183.63 141.557 183.331 141.138 183.492 140.719C183.636 140.294 183.991 139.973 184.422 139.841C184.847 139.691 185.318 139.64 185.754 139.651H185.76C187.648 139.605 189.456 139.582 191.161 139.599C192.011 139.611 192.843 139.628 193.636 139.703C193.831 139.732 194.026 139.749 194.164 139.829C194.319 139.95 194.468 140.07 194.623 140.191C194.927 140.438 195.22 140.679 195.513 140.92C197.832 142.849 199.835 144.508 201.477 145.874C203.107 147.229 204.382 148.285 205.26 149.014C205.691 149.364 206.018 149.634 206.253 149.823C206.477 150.007 206.598 150.093 206.598 150.093L206.586 150.059Z" fill="#00124C"/>
<path d="M206.586 150.058C206.506 150.127 210.22 154.823 214.876 160.546C219.537 166.275 223.383 170.862 223.464 170.799C223.544 170.73 219.836 166.034 215.169 160.311C210.507 154.582 206.661 149.995 206.581 150.064L206.586 150.058Z" fill="#00124C"/>
<path d="M286.788 259.191L286.678 251.33C286.663 250.144 288.014 249.457 288.959 250.166L295.265 254.861C295.641 255.143 296.136 255.22 296.582 255.069L304.027 252.536C305.149 252.152 306.22 253.223 305.838 254.346L303.323 261.793C303.173 262.236 303.25 262.727 303.533 263.104L308.244 269.4C308.953 270.35 308.268 271.698 307.082 271.688L299.22 271.597C298.75 271.592 298.305 271.82 298.034 272.203L293.503 278.624C292.82 279.594 291.326 279.357 290.97 278.227L288.626 270.721C288.485 270.27 288.134 269.923 287.684 269.784L280.174 267.457C279.041 267.107 278.803 265.61 279.772 264.923L286.187 260.377C286.569 260.104 286.796 259.66 286.788 259.191V259.191Z" fill="#FDF001"/>
<path d="M216.188 296.435L216.078 288.575C216.063 287.389 217.414 286.702 218.359 287.411L224.665 292.106C225.041 292.388 225.536 292.464 225.982 292.313L233.427 289.781C234.549 289.397 235.62 290.468 235.238 291.59L232.723 299.038C232.573 299.48 232.65 299.972 232.933 300.348L237.644 306.645C238.353 307.595 237.668 308.942 236.482 308.932L228.62 308.842C228.15 308.837 227.705 309.065 227.434 309.448L222.903 315.869C222.22 316.839 220.726 316.602 220.37 315.472L218.026 307.966C217.885 307.514 217.534 307.168 217.084 307.029L209.574 304.701C208.441 304.351 208.203 302.854 209.172 302.168L215.587 297.622C215.969 297.349 216.196 296.905 216.188 296.435V296.435Z" fill="#FDF001"/>
<path d="M245.023 265.822L244.907 257.323C244.887 256.042 246.349 255.296 247.375 256.059L254.193 261.134C254.6 261.438 255.131 261.522 255.615 261.357L263.665 258.616C264.876 258.205 266.036 259.358 265.626 260.574L262.905 268.629C262.743 269.111 262.829 269.643 263.128 270.05L268.22 276.859C268.987 277.882 268.246 279.344 266.967 279.331L258.465 279.234C257.956 279.229 257.476 279.476 257.183 279.891L252.28 286.838C251.541 287.884 249.928 287.632 249.541 286.408L247.007 278.295C246.855 277.81 246.472 277.428 245.991 277.279L237.871 274.768C236.646 274.389 236.39 272.771 237.434 272.032L244.368 267.115C244.782 266.819 245.024 266.341 245.02 265.83L245.023 265.822Z" fill="#FDF001"/>
</g>
<defs>
<filter id="filter0_d_941_3468" x="-12" y="-5" width="412" height="363" filterUnits="userSpaceOnUse" color-interpolation-filters="sRGB">
<feFlood flood-opacity="0" result="BackgroundImageFix"/>
<feColorMatrix in="SourceAlpha" type="matrix" values="0 0 0 0 0 0 0 0 0 0 0 0 0 0 0 0 0 0 127 0" result="hardAlpha"/>
<feOffset dx="-1" dy="6"/>
<feGaussianBlur stdDeviation="5.5"/>
<feComposite in2="hardAlpha" operator="out"/>
<feColorMatrix type="matrix" values="0 0 0 0 0 0 0 0 0 0 0 0 0 0 0 0 0 0 0.25 0"/>
<feBlend mode="normal" in2="BackgroundImageFix" result="effect1_dropShadow_941_3468"/>
<feBlend mode="normal" in="SourceGraphic" in2="effect1_dropShadow_941_3468" result="shape"/>
</filter>
</defs>
</svg>
