<svg width="43" height="43" viewBox="0 0 43 43" fill="none" xmlns="http://www.w3.org/2000/svg">
<path d="M42.596 21.0803L33.2139 11.4395L22.4895 0.419515C21.9444 -0.139812 21.0546 -0.139812 20.5105 0.419515L9.78508 11.4395L9.62564 11.603V2.45995C9.62564 1.04447 8.48166 -0.0974079 7.08854 0.00658238C5.86583 0.0974477 4.90221 1.13129 4.90221 2.39331V16.4532C4.90221 16.4532 4.90121 16.4582 4.89922 16.4603L0.402988 21.0803C-0.462975 21.9707 0.158844 23.4771 1.39252 23.4771H4.89324C4.89822 23.4771 4.90321 23.4811 4.90321 23.4872V40.6163C4.90321 41.9328 5.95651 43 7.25595 43H13.9355C15.241 43 16.3002 41.9278 16.3002 40.6042V30.2738C16.3002 28.9522 17.3575 27.881 18.662 27.881H24.339C25.6435 27.881 26.7008 28.9522 26.7008 30.2738V40.6042C26.7008 41.9268 27.7591 43 29.0655 43H35.745C37.0445 43 38.0978 41.9328 38.0978 40.6163V23.4872C38.0978 23.4821 38.1018 23.4771 38.1078 23.4771H41.6075C42.8412 23.4771 43.463 21.9707 42.597 21.0803H42.596Z" fill="#00124C"/>
</svg>
