<svg width="390" height="604" viewBox="0 0 390 604" fill="none" xmlns="http://www.w3.org/2000/svg">
<g clip-path="url(#clip0_630_3821)">
<path d="M373.83 89.69C371.63 78.25 369.56 67.45 368.96 57.59C365.96 8.38 389.35 0.29 389.59 0.21L389.41 -1C389.16 -0.92 383.21 1.05 377.57 9.3C368.16 23.05 367.24 43.21 368.12 57.7C368.73 67.67 370.81 78.52 373.02 90.02C377.2 111.78 381.83 135.89 379.06 163.79C376.51 137.85 367.66 115.12 359.85 87.73C342.53 27.02 371.26 -0.39 371.26 -0.39H-0.419922C9.20008 64.56 32.2001 74.38 50.0401 91.78C56.0401 104.38 59.7501 118.27 58.2501 135.84C56.2701 159.02 43.9301 180.85 31.9901 201.97C28.2201 208.65 24.5001 215.23 21.1401 221.76C4.75008 247.2 -4.41992 274.38 17.2201 305.14C18.1501 307.34 19.0601 309.39 19.9501 311.36C27.5601 328.4 33.0601 340.72 26.3801 403.39C22.4001 440.76 27.6701 471.46 41.6201 492.18C51.8601 507.38 66.5601 516.86 83.8301 519.91C102.57 527.82 124.9 524.52 144.76 516.45C176.35 503.61 209.69 504.39 241.39 516.62C254.57 521.7 270.05 526.09 285.86 523.19C307.78 520.86 330.56 503.78 344.45 478.04C355.97 456.7 366.77 419.86 352.84 365.52C345.16 335.54 343.28 311.96 344.7 292.15C345.47 290.38 346.3 288.63 347.21 286.89C374.61 234.2 381.53 198.75 379.41 168.21C383.15 138.26 378.24 112.67 373.82 89.68L373.83 89.69ZM32.6501 202.76C44.6601 181.51 57.0801 159.54 59.0901 136C60.5201 119.24 57.3301 105.82 51.9501 93.7C59.1101 101.11 65.3001 110.18 69.2101 125.26C76.8701 154.77 47.9301 183.26 26.2801 214.13C28.3401 210.37 30.4801 206.58 32.6401 202.76H32.6501ZM42.2301 491.32C28.4701 470.89 23.2901 440.56 27.2201 403.59C33.9401 340.45 28.3701 327.97 20.6601 310.7C20.3301 309.97 20.0001 309.23 19.6701 308.48C19.9001 308.78 20.1301 309.08 20.3601 309.38C60.4001 360.18 16.5001 443.99 62.0701 502.93C67.1001 509.44 72.8801 514.25 79.1401 517.67C64.1401 513.86 51.3701 504.91 42.2301 491.33V491.32ZM352.05 365.96C365.84 419.76 355.17 456.19 343.79 477.28C333.15 497 317.23 511.58 300.52 518.23C305.24 515.84 309.93 512.62 314.54 508.39C379.75 448.67 316.75 361.99 343.66 294.64C342.58 314.06 344.64 337.05 352.05 365.95V365.96Z" fill="url(#paint0_linear_630_3821)"/>
<path d="M29.6501 595.01H363.41C363.41 595.01 340.84 523.92 261.7 538.97C261.7 538.97 194.56 570.87 124.46 538.97C124.46 538.97 64.7901 525.41 29.6601 595.01H29.6501Z" fill="#00124C"/>
<path d="M260.496 467.766C262.038 461.28 258.03 454.773 251.544 453.232C245.059 451.69 238.552 455.698 237.011 462.183C235.469 468.669 239.477 475.176 245.962 476.717C252.448 478.259 258.955 474.251 260.496 467.766Z" fill="#FDF001" stroke="url(#paint1_linear_630_3821)" stroke-width="0.5" stroke-miterlimit="10"/>
<path d="M248.75 475.31C249.18 475.45 249.44 475.6 249.51 476.05L249.79 476.94C249.88 477.23 250.13 477.99 250.22 478.27C250.12 478.46 250.03 478.66 249.89 478.87C249.65 478.78 249.47 478.68 249.28 478.58C249.19 478.3 248.95 477.54 248.85 477.25L248.57 476.36C248.36 475.96 248.48 475.68 248.76 475.32L248.75 475.31Z" fill="#FE40B4"/>
<path d="M251.74 474.6C252.23 474.75 252.51 474.96 252.62 475.44L253.05 476.47C253.19 476.81 253.56 477.69 253.69 478.02C253.62 478.25 253.56 478.48 253.45 478.72C253.2 478.62 252.99 478.51 252.78 478.39C252.64 478.07 252.28 477.18 252.14 476.84L251.71 475.81C251.45 475.39 251.5 475.04 251.74 474.59V474.6Z" fill="#FE40B4"/>
<path d="M254.44 473.75C254.87 473.76 255.16 473.81 255.32 474.21L255.78 474.94C255.93 475.18 256.33 475.8 256.47 476.03C256.42 476.23 256.37 476.43 256.28 476.66C256.04 476.64 255.84 476.6 255.63 476.56C255.48 476.33 255.09 475.7 254.94 475.47L254.48 474.74C254.19 474.42 254.26 474.14 254.44 473.75Z" fill="#FE40B4"/>
<path d="M151.573 473.48C156.287 468.766 156.287 461.124 151.573 456.41C146.859 451.696 139.217 451.696 134.504 456.41C129.79 461.124 129.79 468.766 134.504 473.48C139.217 478.193 146.859 478.193 151.573 473.48Z" fill="#FDF001" stroke="url(#paint2_linear_630_3821)" stroke-width="0.5" stroke-miterlimit="10"/>
<path d="M135.77 472.47C135.83 472.98 135.75 473.33 135.35 473.64L134.57 474.47C134.31 474.74 133.65 475.45 133.4 475.72C133.16 475.76 132.92 475.8 132.65 475.8C132.64 475.53 132.65 475.29 132.68 475.05C132.92 474.79 133.59 474.07 133.85 473.8L134.63 472.97C134.91 472.56 135.26 472.45 135.77 472.48V472.47Z" fill="#FE40B4"/>
<path d="M135.02 477.02C134.94 476.48 135.03 476.11 135.42 475.76L136.2 474.81C136.46 474.5 137.12 473.69 137.37 473.38C137.62 473.32 137.86 473.25 138.14 473.22C138.16 473.5 138.14 473.75 138.14 474.01C137.9 474.31 137.23 475.12 136.97 475.44L136.19 476.39C135.92 476.84 135.57 477 135.03 477.03L135.02 477.02Z" fill="#FE40B4"/>
<path d="M138.35 478.16C138.08 477.74 138 477.42 138.23 476.99L138.58 475.98C138.7 475.65 138.99 474.79 139.1 474.47C139.3 474.35 139.5 474.23 139.74 474.13C139.87 474.36 139.95 474.58 140.03 474.8C139.92 475.12 139.62 475.98 139.51 476.31L139.16 477.32C139.08 477.79 138.81 478 138.34 478.17L138.35 478.16Z" fill="#FE40B4"/>
<path d="M263.7 538.98C263.7 538.98 257.59 555.67 241.17 568.81C230.53 577.34 215.53 584.36 195.08 584.36C174.63 584.36 159.63 577.34 148.98 568.81C132.56 555.67 126.46 538.98 126.46 538.98C144.48 539.63 156.79 531.68 165.09 521.78C165.75 520.98 166.4 520.17 167.01 519.35C178.3 504.41 181.24 486.4 181.24 486.4H208.91C208.91 486.4 211.85 504.41 223.14 519.35C223.74 520.17 224.39 520.98 225.06 521.78C233.37 531.68 245.68 539.63 263.7 538.98Z" fill="#3E4BF6"/>
<path d="M263.7 538.98C263.7 538.98 257.59 555.67 241.17 568.81C230.53 577.34 215.53 584.36 195.08 584.36C174.63 584.36 159.63 577.34 148.98 568.81C132.56 555.67 126.46 538.98 126.46 538.98C144.48 539.63 156.79 531.68 165.09 521.78C165.75 520.98 166.4 520.17 167.01 519.35C178.3 504.41 181.24 486.4 181.24 486.4H208.91C208.91 486.4 211.85 504.41 223.14 519.35C223.74 520.17 224.39 520.98 225.06 521.78C233.37 531.68 245.68 539.63 263.7 538.98Z" fill="#00124C"/>
<path d="M223.15 519.35C215.04 524.52 205.41 527.51 195.09 527.51C184.77 527.51 175.13 524.51 167.02 519.35C178.31 504.41 181.25 486.4 181.25 486.4H208.92C208.92 486.4 211.86 504.41 223.15 519.35Z" fill="#001E7D"/>
<path d="M247.37 422.2C247.37 393.316 223.957 369.9 195.075 369.9C166.194 369.9 142.78 393.316 142.78 422.2V462.88C142.78 491.764 166.194 515.18 195.075 515.18C223.957 515.18 247.37 491.764 247.37 462.88V422.2Z" fill="url(#paint3_linear_630_3821)"/>
<path d="M247.37 422.2C247.37 393.316 223.957 369.9 195.075 369.9C166.194 369.9 142.78 393.316 142.78 422.2V462.88C142.78 491.764 166.194 515.18 195.075 515.18C223.957 515.18 247.37 491.764 247.37 462.88V422.2Z" fill="#FDF001" stroke="url(#paint4_linear_630_3821)" stroke-miterlimit="10"/>
<path d="M168.487 480.917C172.056 477.348 172.056 471.561 168.487 467.991C164.917 464.422 159.13 464.422 155.561 467.991C151.991 471.561 151.991 477.348 155.561 480.917C159.13 484.487 164.917 484.487 168.487 480.917Z" fill="#FE40B4"/>
<path d="M237.063 481.377C240.683 477.859 240.766 472.073 237.248 468.453C233.73 464.832 227.943 464.75 224.323 468.268C220.703 471.786 220.62 477.572 224.138 481.192C227.656 484.812 233.443 484.895 237.063 481.377Z" fill="#FE40B4"/>
<path d="M196.08 414.05C198.6 425.94 201.06 439.02 203.47 450.85C204.36 454.98 204.96 459.16 205.41 463.36C205.5 464.11 204.86 464.78 204.1 464.73C202.18 464.62 200.26 464.48 198.34 464.3C196.42 464.11 194.5 463.89 192.58 463.57C192.42 463.54 192.42 463.3 192.58 463.27C196.4 462.65 200.24 462.34 204.1 462.11L202.81 463.63C200.89 455.5 200.22 447.16 199.01 438.91C198 431.71 196.69 421.41 195.79 414.09C195.76 413.92 196.05 413.85 196.08 414.04V414.05Z" fill="#00124C"/>
<path d="M198.42 498.89C200.944 498.89 202.99 495.689 202.99 491.74C202.99 487.791 200.944 484.59 198.42 484.59C195.896 484.59 193.85 487.791 193.85 491.74C193.85 495.689 195.896 498.89 198.42 498.89Z" fill="#FF9FDA"/>
<path d="M215.15 496.69C204.09 490.62 192.72 490.49 181.7 496.69C181.63 496.74 181.51 496.74 181.46 496.65C181.43 496.59 181.44 496.53 181.48 496.48C187.9 489.34 198.93 487.1 207.66 491.05C210.59 492.27 213.16 494.22 215.36 496.48C215.48 496.62 215.31 496.81 215.15 496.69Z" fill="#00124C"/>
<path d="M216.74 494.27C216.86 496.39 215.71 498.4 213.85 499.4C213.81 499.43 213.74 499.41 213.76 499.35C214.44 498.05 215.89 495.48 216.65 494.22C216.68 494.17 216.75 494.22 216.74 494.27Z" fill="#00124C"/>
<path d="M182.68 498.32C180.95 497.76 179.86 496.07 180.03 494.27C180.03 494.22 180.07 494.17 180.11 494.22C180.81 495.2 182.14 497.24 182.76 498.27C182.79 498.32 182.72 498.35 182.68 498.32Z" fill="#00124C"/>
<path d="M208.15 441.69C216.26 445.73 225.38 445.77 233.48 441.69C227.72 449.76 213.93 449.7 208.15 441.69Z" fill="#00124C"/>
<path d="M155.19 441.69C163.3 445.73 172.42 445.77 180.52 441.69C174.76 449.76 160.98 449.7 155.19 441.69Z" fill="#00124C"/>
<path d="M165.21 532.98C160.38 534.44 165.65 540.26 166.6 553.49C159.77 545.99 152.8 539.55 147.26 535.31C144.7 536.4 141.96 537.29 139.03 537.92C142.98 544.07 149.94 551.97 151.64 556.44C151.14 555.88 133.35 535.93 128.05 540.38C124.45 543.4 141.07 557.99 145.49 567.14C145.49 567.14 125.59 545.04 121.93 548.18C117.54 551.95 134.29 567.81 138.78 575.75C137.85 574.56 122.83 555.29 118.28 555.54C114.03 555.77 122.77 573.56 140.52 595H194.21C181.64 565.69 170.48 531.38 165.21 532.97V532.98Z" fill="#00124C"/>
<path d="M256 595.01C273.84 576.01 282.95 560.23 278.9 559.7C274.38 559.1 257.95 577.19 256.94 578.31C262.02 570.73 279.91 556.17 275.82 552.08C272.41 548.67 250.9 569.21 250.9 569.21C256 560.42 273.68 547.12 270.31 543.84C265.36 539.01 246.12 557.56 245.58 558.08C247.79 553.36 256.58 545.02 260.68 538.99C257.15 538.93 253.85 538.52 250.77 537.84C245.05 541.66 237.94 547.35 230.88 554.01C232.82 540.89 238.52 535.48 233.81 533.66C228.57 531.64 214.41 566.39 199.34 595.01H256Z" fill="#00124C"/>
<path d="M195.54 587.97L195.56 588C182.44 558.06 170.67 521.2 165.21 522.85C160.38 524.31 165.65 530.13 166.6 543.36C152.48 527.87 137.73 516.85 136.39 520.54C134.7 525.18 149.1 539.62 151.64 546.31C151.14 545.75 133.35 525.8 128.05 530.25C124.45 533.27 141.07 547.86 145.49 557.01C145.49 557.01 125.59 534.91 121.93 538.05C117.54 541.82 134.29 557.68 138.78 565.62C137.85 564.43 122.83 545.16 118.28 545.41C113.58 545.67 124.76 567.39 146.45 591.78C147.32 592.76 148.13 593.85 148.91 595.01H194.16C194.93 593.41 195.72 591.81 196.52 590.24C196.19 589.48 195.87 588.72 195.53 587.96L195.54 587.97Z" fill="#FDF001"/>
<path d="M195.54 587.97L195.56 588C182.44 558.06 170.67 521.2 165.21 522.85C160.38 524.31 165.65 530.13 166.6 543.36C152.48 527.87 137.73 516.85 136.39 520.54C134.7 525.18 149.1 539.62 151.64 546.31C151.14 545.75 133.35 525.8 128.05 530.25C124.45 533.27 141.07 547.86 145.49 557.01C145.49 557.01 125.59 534.91 121.93 538.05C117.54 541.82 134.29 557.68 138.78 565.62C137.85 564.43 122.83 545.16 118.28 545.41C113.58 545.67 124.76 567.39 146.45 591.78C147.32 592.76 148.13 593.85 148.91 595.01H194.16C194.93 593.41 195.72 591.81 196.52 590.24C196.19 589.48 195.87 588.72 195.53 587.96L195.54 587.97Z" fill="#FDF001"/>
<path d="M278.9 549.56C274.38 548.96 257.95 567.05 256.94 568.17C262.02 560.59 279.91 546.03 275.82 541.94C272.41 538.53 250.9 559.07 250.9 559.07C256 550.28 273.68 536.98 270.31 533.7C265.36 528.87 246.12 547.42 245.58 547.94C248.62 541.45 264.06 528.14 262.73 523.39C261.66 519.61 246.13 529.48 230.88 543.87C232.82 530.75 238.52 525.34 233.81 523.52C228.49 521.46 213.97 557.34 198.64 586.2L198.66 586.17C197.94 587.51 197.23 588.87 196.53 590.24C195.72 591.82 194.94 593.41 194.17 595.01H246.04C246.46 594.55 246.89 594.1 247.32 593.67C270.79 570.98 283.57 550.16 278.9 549.55V549.56Z" fill="#FDF001"/>
<path d="M278.9 549.56C274.38 548.96 257.95 567.05 256.94 568.17C262.02 560.59 279.91 546.03 275.82 541.94C272.41 538.53 250.9 559.07 250.9 559.07C256 550.28 273.68 536.98 270.31 533.7C265.36 528.87 246.12 547.42 245.58 547.94C248.62 541.45 264.06 528.14 262.73 523.39C261.66 519.61 246.13 529.48 230.88 543.87C232.82 530.75 238.52 525.34 233.81 523.52C228.49 521.46 213.97 557.34 198.64 586.2L198.66 586.17C197.94 587.51 197.23 588.87 196.53 590.24C195.72 591.82 194.94 593.41 194.17 595.01H246.04C246.46 594.55 246.89 594.1 247.32 593.67C270.79 570.98 283.57 550.16 278.9 549.55V549.56Z" fill="#FDF001"/>
<path d="M142.78 374.15V438.37H148.25V439.07C148.37 439.07 160.67 438.96 169.19 429.1C176.22 420.97 178.74 408.74 176.71 392.73C185.03 417.02 205.85 434.98 231.2 439.59L247.37 442.53V374.14H142.78V374.15Z" fill="#FFF983"/>
<path d="M133.25 359.54C117.05 380.89 121.43 408.03 133.25 437.26H139.87V438.11C140.02 438.11 154.89 437.97 165.21 426.05C173.72 416.21 176.76 401.41 174.31 382.04C184.38 411.43 209.57 433.17 240.26 438.75L259.83 442.3C272.97 413.04 274.8 385.22 259.83 359.54C182.24 317.65 182.38 330.51 133.26 359.54H133.25ZM164.57 425.48C156.44 434.89 145.39 436.78 141.39 437.16C147.9 434.69 173.12 422.61 173.61 383.35C175.76 401.87 172.73 416.04 164.56 425.48H164.57Z" fill="#00124C"/>
<path d="M296.563 375.876C291.57 375.876 287.509 379.872 287.461 384.819L245.619 385.031L278.785 357.677C280.443 359.415 282.791 360.504 285.394 360.504C290.424 360.504 294.502 356.454 294.502 351.459C294.502 346.464 290.424 342.414 285.394 342.414C280.364 342.414 276.285 346.464 276.285 351.459C276.285 352.494 276.462 353.487 276.785 354.414L236.431 369.235L257.587 333.278C258.739 333.804 260.025 334.101 261.379 334.101C266.409 334.101 270.487 330.051 270.487 325.056C270.487 320.061 266.409 316.011 261.379 316.011C256.349 316.011 252.27 320.061 252.27 325.056C252.27 327.181 253.008 329.13 254.24 330.674L222.36 357.513L230.017 315.659C230.566 315.762 231.127 315.817 231.7 315.817C236.73 315.817 240.808 311.767 240.808 306.772C240.808 301.777 236.73 297.726 231.7 297.726C226.67 297.726 222.591 301.777 222.591 306.772C222.591 309.817 224.109 312.511 226.432 314.152L205.1 351.277L197.802 308.897C201.929 308.037 205.027 304.398 205.027 300.045C205.027 295.05 200.948 291 195.918 291C190.888 291 186.81 295.05 186.81 300.045C186.81 304.398 189.907 308.031 194.034 308.897L186.736 351.277L165.599 314.485C168.001 312.856 169.574 310.12 169.574 307.014C169.574 302.019 165.495 297.969 160.466 297.969C155.436 297.969 151.357 302.019 151.357 307.014C151.357 312.009 155.436 316.059 160.466 316.059C160.947 316.059 161.417 316.023 161.874 315.95L169.477 357.519L137.28 330.414C138.371 328.925 139.017 327.09 139.017 325.104C139.017 320.109 134.939 316.059 129.909 316.059C124.879 316.059 120.8 320.109 120.8 325.104C120.8 330.099 124.879 334.15 129.909 334.15C131.439 334.15 132.884 333.774 134.152 333.108L155.411 369.241L114.886 354.359C115.38 353.245 115.655 352.016 115.655 350.726C115.655 345.732 111.576 341.681 106.546 341.681C101.516 341.681 97.4375 345.732 97.4375 350.726C97.4375 355.721 101.516 359.772 106.546 359.772C108.924 359.772 111.082 358.87 112.704 357.386L146.23 385.037L104.211 384.825C104.071 379.951 100.053 376.046 95.1085 376.046C90.1641 376.046 86 380.096 86 385.091C86 390.086 90.0787 394.136 95.1085 394.136C98.7727 394.136 101.925 391.987 103.376 388.893L143.023 402.994C152.826 383.923 172.793 370.869 195.833 370.869C218.872 370.869 238.839 383.929 248.643 403H248.795L288.381 388.918C289.869 391.908 292.966 393.967 296.557 393.967C301.587 393.967 305.666 389.916 305.666 384.922C305.666 379.927 301.587 375.876 296.557 375.876H296.563Z" fill="#FDF001"/>
<path d="M296.52 389.444C299.035 389.444 301.074 387.419 301.074 384.922C301.074 382.424 299.035 380.399 296.52 380.399C294.005 380.399 291.966 382.424 291.966 384.922C291.966 387.419 294.005 389.444 296.52 389.444Z" fill="#FE40B4" stroke="#00124C" stroke-miterlimit="10"/>
<path d="M285.357 355.988C287.872 355.988 289.911 353.963 289.911 351.465C289.911 348.967 287.872 346.942 285.357 346.942C282.842 346.942 280.803 348.967 280.803 351.465C280.803 353.963 282.842 355.988 285.357 355.988Z" fill="#FE40B4" stroke="#00124C" stroke-miterlimit="10"/>
<path d="M261.342 329.585C263.857 329.585 265.896 327.56 265.896 325.062C265.896 322.564 263.857 320.539 261.342 320.539C258.827 320.539 256.788 322.564 256.788 325.062C256.788 327.56 258.827 329.585 261.342 329.585Z" fill="#FE40B4" stroke="#00124C" stroke-miterlimit="10"/>
<path d="M231.663 311.3C234.178 311.3 236.217 309.275 236.217 306.778C236.217 304.28 234.178 302.255 231.663 302.255C229.148 302.255 227.109 304.28 227.109 306.778C227.109 309.275 229.148 311.3 231.663 311.3Z" fill="#FE40B4" stroke="#00124C" stroke-miterlimit="10"/>
<path d="M195.888 304.574C198.403 304.574 200.442 302.549 200.442 300.051C200.442 297.554 198.403 295.529 195.888 295.529C193.372 295.529 191.333 297.554 191.333 300.051C191.333 302.549 193.372 304.574 195.888 304.574Z" fill="#FE40B4" stroke="#00124C" stroke-miterlimit="10"/>
<path d="M160.435 311.536C162.95 311.536 164.989 309.512 164.989 307.014C164.989 304.516 162.95 302.491 160.435 302.491C157.92 302.491 155.881 304.516 155.881 307.014C155.881 309.512 157.92 311.536 160.435 311.536Z" fill="#FE40B4" stroke="#00124C" stroke-miterlimit="10"/>
<path d="M129.878 329.627C132.393 329.627 134.432 327.602 134.432 325.104C134.432 322.607 132.393 320.582 129.878 320.582C127.363 320.582 125.324 322.607 125.324 325.104C125.324 327.602 127.363 329.627 129.878 329.627Z" fill="#FE40B4" stroke="#00124C" stroke-miterlimit="10"/>
<path d="M106.509 355.249C109.025 355.249 111.064 353.224 111.064 350.726C111.064 348.229 109.025 346.204 106.509 346.204C103.994 346.204 101.955 348.229 101.955 350.726C101.955 353.224 103.994 355.249 106.509 355.249Z" fill="#FE40B4" stroke="#00124C" stroke-miterlimit="10"/>
<path d="M95.0779 389.608C97.5932 389.608 99.6322 387.583 99.6322 385.085C99.6322 382.587 97.5932 380.562 95.0779 380.562C92.5627 380.562 90.5237 382.587 90.5237 385.085C90.5237 387.583 92.5627 389.608 95.0779 389.608Z" fill="#FE40B4" stroke="#00124C" stroke-miterlimit="10"/>
<path d="M140.25 460.07C140.27 460.01 140.28 459.94 140.25 459.93C140.3 459.98 139.71 460.49 139.59 460.77C137.77 463.38 139.4 466.18 140.24 468.9C136.52 467.34 135.1 461.1 139.72 459.77C140.01 459.68 140.69 459.77 140.24 460.07H140.25Z" fill="#00124C"/>
<path d="M251.02 468.53C251 468.59 250.99 468.66 251.02 468.67C250.97 468.62 251.56 468.11 251.68 467.83C253.5 465.22 251.87 462.42 251.03 459.7C254.75 461.26 256.17 467.5 251.55 468.83C251.26 468.92 250.58 468.83 251.03 468.53H251.02Z" fill="#00124C"/>
</g>
<g clip-path="url(#clip1_630_3821)">
<path d="M38.9115 81.5849C37.3812 81.6117 35.9374 81.6393 34.495 81.6614C32.2076 81.6967 30.6358 80.0764 30.8355 77.8908C31.0304 75.7536 32.8787 74.0738 35.133 74.0029C36.4208 73.9628 37.7073 73.9491 39.0744 73.9211C39.1104 72.4648 39.1075 71.0785 39.1872 69.6867C39.3544 66.733 42.6136 64.7381 45.0762 66.081C46.2395 66.7145 46.8411 67.7557 46.8256 69.1561C46.8095 70.6715 46.7769 72.189 46.7488 73.7642C48.3569 73.7366 49.9043 73.6761 51.4433 73.6905C54.0615 73.7153 55.5696 76.2228 54.5023 78.7229C53.8704 80.2033 52.4151 81.2489 50.8097 81.3278C49.4405 81.3953 48.0747 81.4177 46.7068 81.461C46.6848 81.4621 46.6605 81.4864 46.8389 81.489C46.7057 82.8595 46.4256 84.2522 46.4743 85.5988C46.5394 87.399 44.4732 89.4486 42.839 89.6583C40.829 89.9132 39.0186 88.6604 38.888 86.6928C38.793 85.2676 38.8981 83.8088 38.9115 82.3647C38.9139 82.1356 38.9117 81.9091 38.9115 81.5849Z" fill="#FDF001"/>
</g>
<g clip-path="url(#clip2_630_3821)">
<path d="M88.3272 93.5115C86.797 93.5383 85.3532 93.5659 83.9108 93.588C81.6233 93.6233 80.0516 92.003 80.2513 89.8174C80.4461 87.6802 82.2944 86.0004 84.5487 85.9296C85.8366 85.8894 87.123 85.8757 88.4902 85.8477C88.5261 84.3915 88.5233 83.0051 88.6029 81.6133C88.7701 78.6596 92.0293 76.6647 94.492 78.0076C95.6552 78.6411 96.2569 79.6823 96.2414 81.0827C96.2253 82.5982 96.1926 84.1156 96.1646 85.6908C97.7726 85.6632 99.32 85.6027 100.859 85.6171C103.477 85.6419 104.985 88.1494 103.918 90.6495C103.286 92.1299 101.831 93.1755 100.226 93.2544C98.8563 93.3219 97.4905 93.3443 96.1226 93.3876C96.1006 93.3887 96.0763 93.413 96.2547 93.4156C96.1214 94.7861 95.8414 96.1788 95.8901 97.5254C95.9552 99.3256 93.889 101.375 92.2548 101.585C90.2447 101.84 88.4344 100.587 88.3037 98.6195C88.2088 97.1942 88.3139 95.7354 88.3273 94.2913C88.3297 94.0622 88.3275 93.8357 88.3272 93.5115Z" fill="#FDF001"/>
</g>
<g clip-path="url(#clip3_630_3821)">
<path d="M65.7014 40.1785C63.151 40.2231 60.7447 40.2692 58.3407 40.3059C54.5282 40.3648 51.9087 37.6643 52.2414 34.0216C52.5662 30.4597 55.6467 27.6599 59.4039 27.5419C61.5503 27.475 63.6944 27.4521 65.9729 27.4055C66.0329 24.9784 66.0282 22.6679 66.1609 20.3482C66.4395 15.4253 71.8715 12.1005 75.976 14.3387C77.9147 15.3945 78.9174 17.1298 78.8917 19.4638C78.8648 21.9896 78.8104 24.5186 78.7636 27.144C81.4437 27.098 84.0227 26.9971 86.5877 27.0211C90.9515 27.0624 93.465 31.2416 91.6861 35.4085C90.6329 37.8758 88.2074 39.6185 85.5319 39.7501C83.2498 39.8625 80.9735 39.8998 78.6936 39.972C78.657 39.9739 78.6165 40.0144 78.9138 40.0186C78.6917 42.3029 78.2249 44.6239 78.3062 46.8683C78.4146 49.8687 74.9709 53.2847 72.2473 53.6342C68.8972 54.0591 65.88 51.9711 65.6622 48.6917C65.504 46.3164 65.6792 43.885 65.7015 41.4781C65.7054 41.0964 65.7018 40.7188 65.7014 40.1785Z" fill="#FDF001"/>
</g>
<g clip-path="url(#clip4_630_3821)">
<path d="M100.975 560.704C101.893 560.688 102.759 560.671 103.624 560.658C104.996 560.637 105.938 561.608 105.818 562.919C105.702 564.201 104.593 565.208 103.241 565.251C102.469 565.275 101.697 565.283 100.878 565.3C100.856 566.173 100.858 567.004 100.81 567.839C100.71 569.61 98.7552 570.807 97.2784 570.001C96.5808 569.621 96.2201 568.997 96.2293 568.157C96.239 567.248 96.2586 566.338 96.2754 565.394C95.3111 565.41 94.3831 565.447 93.4602 565.438C91.89 565.423 90.9857 563.919 91.6257 562.42C92.0047 561.532 92.8774 560.905 93.8401 560.858C94.6612 560.818 95.4802 560.804 96.3006 560.778C96.3138 560.777 96.3283 560.763 96.2214 560.761C96.3013 559.939 96.4692 559.104 96.44 558.297C96.401 557.217 97.64 555.988 98.62 555.862C99.8254 555.709 100.911 556.461 100.989 557.641C101.046 558.495 100.983 559.37 100.975 560.236C100.974 560.374 100.975 560.509 100.975 560.704Z" fill="#FDF001"/>
</g>
<g clip-path="url(#clip5_630_3821)">
<path d="M71.3413 553.552C72.259 553.536 73.1248 553.519 73.9898 553.506C75.3615 553.485 76.3041 554.456 76.1844 555.767C76.0675 557.049 74.9591 558.056 73.6072 558.098C72.8349 558.122 72.0635 558.131 71.2436 558.147C71.222 559.021 71.2237 559.852 71.176 560.687C71.0757 562.458 69.1212 563.654 67.6444 562.849C66.9468 562.469 66.586 561.845 66.5953 561.005C66.605 560.096 66.6245 559.186 66.6414 558.242C65.677 558.258 64.7491 558.294 63.8262 558.286C62.256 558.271 61.3516 556.767 61.9917 555.268C62.3707 554.38 63.2434 553.753 64.2061 553.706C65.0272 553.665 65.8462 553.652 66.6666 553.626C66.6797 553.625 66.6943 553.611 66.5873 553.609C66.6672 552.787 66.8352 551.952 66.806 551.145C66.7669 550.065 68.006 548.836 68.986 548.71C70.1914 548.557 71.2771 549.309 71.3554 550.488C71.4123 551.343 71.3493 552.218 71.3413 553.084C71.3399 553.221 71.3412 553.357 71.3413 553.552Z" fill="#FDF001"/>
</g>
<g clip-path="url(#clip6_630_3821)">
<path d="M84.9095 585.535C86.439 585.508 87.882 585.48 89.3236 585.458C91.6099 585.423 93.1808 587.042 92.9813 589.227C92.7865 591.363 90.9392 593.042 88.686 593.113C87.3989 593.153 86.1131 593.167 84.7467 593.194C84.7107 594.65 84.7135 596.036 84.634 597.427C84.4669 600.379 81.2094 602.373 78.748 601.03C77.5853 600.397 76.984 599.357 76.9995 597.957C77.0156 596.442 77.0482 594.926 77.0763 593.351C75.469 593.379 73.9225 593.439 72.3842 593.425C69.7673 593.4 68.2601 590.894 69.3269 588.395C69.9584 586.916 71.413 585.871 73.0175 585.792C74.386 585.724 75.751 585.702 77.1183 585.659C77.1402 585.657 77.1645 585.633 76.9862 585.631C77.1194 584.261 77.3993 582.869 77.3506 581.523C77.2855 579.724 79.3507 577.675 80.984 577.465C82.993 577.211 84.8024 578.463 84.933 580.429C85.0279 581.854 84.9228 583.312 84.9094 584.755C84.9071 584.984 84.9093 585.211 84.9095 585.535Z" fill="#FDF001"/>
</g>
<g clip-path="url(#clip7_630_3821)">
<path d="M310.093 152.816C308.797 152.839 307.574 152.862 306.353 152.881C304.415 152.911 303.084 151.539 303.253 149.688C303.418 147.878 304.984 146.455 306.893 146.395C307.984 146.361 309.073 146.349 310.231 146.326C310.261 145.092 310.259 143.918 310.326 142.74C310.468 140.238 313.228 138.549 315.314 139.686C316.299 140.222 316.809 141.104 316.796 142.29C316.782 143.574 316.754 144.859 316.73 146.193C318.092 146.169 319.403 146.118 320.706 146.13C322.924 146.151 324.201 148.275 323.297 150.392C322.762 151.646 321.529 152.532 320.17 152.599C319.01 152.656 317.853 152.675 316.695 152.711C316.676 152.712 316.656 152.733 316.807 152.735C316.694 153.896 316.457 155.075 316.498 156.216C316.553 157.74 314.803 159.476 313.419 159.654C311.717 159.87 310.184 158.809 310.073 157.142C309.993 155.935 310.082 154.7 310.093 153.477C310.095 153.283 310.093 153.091 310.093 152.816Z" fill="#FDF001"/>
</g>
<g clip-path="url(#clip8_630_3821)">
<path d="M351.943 162.917C350.647 162.94 349.425 162.963 348.203 162.982C346.266 163.012 344.935 161.639 345.104 159.788C345.269 157.978 346.834 156.556 348.743 156.496C349.834 156.462 350.923 156.45 352.081 156.426C352.112 155.193 352.109 154.019 352.177 152.84C352.318 150.339 355.079 148.649 357.164 149.787C358.149 150.323 358.659 151.205 358.646 152.391C358.632 153.674 358.605 154.96 358.581 156.294C359.943 156.27 361.253 156.219 362.557 156.231C364.774 156.252 366.051 158.376 365.147 160.493C364.612 161.747 363.38 162.632 362.02 162.699C360.86 162.756 359.704 162.775 358.545 162.812C358.527 162.813 358.506 162.834 358.657 162.836C358.544 163.997 358.307 165.176 358.348 166.316C358.403 167.841 356.654 169.577 355.27 169.754C353.567 169.97 352.034 168.909 351.923 167.243C351.843 166.036 351.932 164.8 351.943 163.577C351.945 163.383 351.944 163.192 351.943 162.917Z" fill="#FDF001"/>
</g>
<g clip-path="url(#clip9_630_3821)">
<path d="M332.781 117.749C330.621 117.787 328.584 117.826 326.548 117.857C323.319 117.907 321.1 115.619 321.382 112.534C321.657 109.518 324.266 107.147 327.448 107.047C329.266 106.99 331.082 106.971 333.011 106.931C333.062 104.876 333.058 102.919 333.171 100.954C333.407 96.785 338.007 93.9693 341.483 95.8648C343.125 96.7589 343.974 98.2286 343.952 100.205C343.93 102.344 343.884 104.486 343.844 106.71C346.114 106.671 348.298 106.585 350.47 106.606C354.166 106.641 356.295 110.18 354.788 113.709C353.896 115.799 351.842 117.274 349.576 117.386C347.643 117.481 345.716 117.513 343.785 117.574C343.754 117.575 343.719 117.61 343.971 117.613C343.783 119.548 343.388 121.514 343.457 123.414C343.548 125.955 340.632 128.849 338.325 129.145C335.488 129.504 332.933 127.736 332.748 124.959C332.614 122.947 332.763 120.888 332.782 118.849C332.785 118.526 332.782 118.206 332.781 117.749Z" fill="#FDF001"/>
</g>
<g clip-path="url(#clip10_630_3821)">
<path d="M54.5589 367.73C53.3728 367.75 52.2537 367.772 51.1356 367.789C49.3626 367.816 48.1443 366.56 48.2991 364.866C48.4501 363.21 49.8828 361.908 51.6301 361.853C52.6283 361.822 53.6255 361.811 54.6852 361.789C54.713 360.661 54.7109 359.586 54.7726 358.507C54.9022 356.218 57.4284 354.672 59.3372 355.712C60.2389 356.203 60.7052 357.011 60.6932 358.096C60.6808 359.271 60.6554 360.447 60.6337 361.668C61.8801 361.646 63.0795 361.599 64.2724 361.611C66.3019 361.63 67.4708 363.573 66.6435 365.511C66.1537 366.659 65.0257 367.469 63.7814 367.53C62.7201 367.583 61.6614 367.6 60.6011 367.634C60.5841 367.635 60.5653 367.653 60.7035 367.655C60.6003 368.718 60.3832 369.797 60.4209 370.841C60.4714 372.236 58.8698 373.825 57.6032 373.988C56.0452 374.185 54.6419 373.214 54.5407 371.689C54.4671 370.584 54.5485 369.453 54.5589 368.334C54.5608 368.157 54.5591 367.981 54.5589 367.73Z" fill="#FDF001"/>
</g>
<g clip-path="url(#clip11_630_3821)">
<path d="M92.8616 376.974C91.6755 376.995 90.5564 377.016 89.4384 377.033C87.6653 377.061 86.4471 375.805 86.6018 374.111C86.7529 372.454 88.1855 371.152 89.9329 371.097C90.9311 371.066 91.9282 371.056 92.9879 371.034C93.0158 369.905 93.0136 368.831 93.0753 367.752C93.2049 365.462 95.7311 363.916 97.64 364.957C98.5416 365.448 99.008 366.255 98.996 367.34C98.9835 368.515 98.9582 369.691 98.9364 370.912C100.183 370.891 101.382 370.844 102.575 370.855C104.605 370.874 105.774 372.818 104.946 374.756C104.456 375.903 103.328 376.714 102.084 376.775C101.023 376.827 99.9642 376.845 98.9039 376.878C98.8868 376.879 98.868 376.898 99.0063 376.9C98.903 377.962 98.6859 379.042 98.7237 380.085C98.7741 381.481 97.1726 383.069 95.9059 383.232C94.3479 383.43 92.9447 382.459 92.8434 380.933C92.7698 379.829 92.8513 378.698 92.8617 377.579C92.8635 377.401 92.8618 377.225 92.8616 376.974Z" fill="#FDF001"/>
</g>
<g clip-path="url(#clip12_630_3821)">
<path d="M75.3244 335.635C73.3475 335.67 71.4823 335.705 69.619 335.734C66.6639 335.78 64.6334 333.686 64.8914 330.863C65.1431 328.102 67.5309 325.932 70.4431 325.84C72.1068 325.788 73.7687 325.771 75.5348 325.735C75.5813 323.853 75.5777 322.062 75.6805 320.264C75.8965 316.449 80.1069 313.872 83.2883 315.606C84.7911 316.425 85.5683 317.77 85.5483 319.579C85.5275 321.537 85.4853 323.497 85.4491 325.532C87.5264 325.496 89.5254 325.418 91.5136 325.437C94.8961 325.469 96.8443 328.708 95.4654 331.938C94.6491 333.85 92.769 335.201 90.6952 335.303C88.9263 335.39 87.162 335.419 85.3948 335.475C85.3664 335.477 85.335 335.508 85.5655 335.511C85.3933 337.282 85.0315 339.081 85.0945 340.82C85.1786 343.146 82.5093 345.794 80.3982 346.065C77.8015 346.394 75.4628 344.776 75.294 342.234C75.1714 340.393 75.3072 338.508 75.3245 336.642C75.3275 336.347 75.3247 336.054 75.3244 335.635Z" fill="#FDF001"/>
</g>
<g clip-path="url(#clip13_630_3821)">
<path d="M295.16 449.176C294.182 449.193 293.258 449.211 292.336 449.225C290.874 449.248 289.869 448.212 289.996 446.814C290.121 445.448 291.303 444.373 292.744 444.328C293.568 444.303 294.39 444.294 295.264 444.276C295.287 443.345 295.285 442.458 295.336 441.568C295.443 439.68 297.527 438.404 299.102 439.263C299.846 439.668 300.23 440.334 300.22 441.229C300.21 442.198 300.189 443.168 300.171 444.176C301.2 444.158 302.189 444.119 303.173 444.128C304.847 444.144 305.811 445.748 305.129 447.346C304.725 448.293 303.794 448.961 302.768 449.012C301.892 449.055 301.019 449.069 300.144 449.097C300.13 449.098 300.115 449.113 300.229 449.115C300.144 449.991 299.965 450.882 299.996 451.743C300.037 452.894 298.716 454.204 297.671 454.338C296.386 454.501 295.229 453.7 295.145 452.442C295.084 451.531 295.152 450.598 295.16 449.675C295.162 449.528 295.16 449.383 295.16 449.176Z" fill="#FDF001"/>
</g>
<g clip-path="url(#clip14_630_3821)">
<path d="M326.756 456.802C325.778 456.819 324.855 456.837 323.932 456.851C322.47 456.874 321.465 455.838 321.592 454.44C321.717 453.073 322.899 451.999 324.34 451.954C325.164 451.928 325.986 451.92 326.86 451.902C326.883 450.971 326.882 450.084 326.933 449.194C327.039 447.306 329.123 446.03 330.698 446.889C331.442 447.294 331.827 447.96 331.817 448.855C331.806 449.824 331.785 450.794 331.768 451.801C332.796 451.784 333.785 451.745 334.769 451.754C336.443 451.77 337.408 453.373 336.725 454.972C336.321 455.919 335.391 456.587 334.364 456.638C333.489 456.681 332.615 456.695 331.741 456.723C331.727 456.724 331.711 456.739 331.825 456.741C331.74 457.617 331.561 458.508 331.592 459.369C331.634 460.52 330.312 461.83 329.268 461.964C327.982 462.127 326.825 461.326 326.741 460.068C326.681 459.157 326.748 458.224 326.756 457.301C326.758 457.154 326.756 457.009 326.756 456.802Z" fill="#FDF001"/>
</g>
<g clip-path="url(#clip15_630_3821)">
<path d="M312.289 422.701C310.658 422.729 309.12 422.759 307.583 422.782C305.145 422.82 303.47 421.093 303.683 418.764C303.89 416.486 305.86 414.696 308.262 414.621C309.635 414.578 311.006 414.563 312.463 414.533C312.501 412.982 312.498 411.504 312.583 410.021C312.761 406.873 316.234 404.747 318.859 406.178C320.098 406.854 320.74 407.963 320.723 409.455C320.706 411.07 320.671 412.688 320.641 414.366C322.355 414.337 324.004 414.272 325.644 414.288C328.434 414.314 330.041 416.986 328.904 419.651C328.23 421.228 326.68 422.343 324.969 422.427C323.51 422.499 322.054 422.522 320.596 422.569C320.573 422.57 320.547 422.596 320.737 422.598C320.595 424.059 320.297 425.543 320.349 426.978C320.418 428.897 318.216 431.081 316.475 431.304C314.333 431.576 312.403 430.241 312.264 428.144C312.163 426.625 312.275 425.071 312.289 423.532C312.292 423.288 312.289 423.046 312.289 422.701Z" fill="#FDF001"/>
</g>
<defs>
<linearGradient id="paint0_linear_630_3821" x1="151.74" y1="528.57" x2="199.41" y2="-17.58" gradientUnits="userSpaceOnUse">
<stop stop-color="#00124C"/>
<stop offset="0.36" stop-color="#001559"/>
<stop offset="1" stop-color="#001E7D"/>
</linearGradient>
<linearGradient id="paint1_linear_630_3821" x1="236.454" y1="464.959" x2="261.094" y2="464.959" gradientUnits="userSpaceOnUse">
<stop stop-color="#00124C"/>
<stop offset="0.36" stop-color="#001559"/>
<stop offset="1" stop-color="#001E7D"/>
</linearGradient>
<linearGradient id="paint2_linear_630_3821" x1="130.728" y1="464.947" x2="155.368" y2="464.947" gradientUnits="userSpaceOnUse">
<stop stop-color="#00124C"/>
<stop offset="0.36" stop-color="#001559"/>
<stop offset="1" stop-color="#001E7D"/>
</linearGradient>
<linearGradient id="paint3_linear_630_3821" x1="189.8" y1="356.44" x2="199.15" y2="508.87" gradientUnits="userSpaceOnUse">
<stop stop-color="#FA4E8F"/>
<stop offset="0.04" stop-color="#FA5795"/>
<stop offset="0.18" stop-color="#FC77AA"/>
<stop offset="0.32" stop-color="#FD90BA"/>
<stop offset="0.48" stop-color="#FEA2C6"/>
<stop offset="0.64" stop-color="#FEADCD"/>
<stop offset="0.82" stop-color="#FFB1D0"/>
</linearGradient>
<linearGradient id="paint4_linear_630_3821" x1="188.73" y1="515.33" x2="201.43" y2="369.75" gradientUnits="userSpaceOnUse">
<stop stop-color="#00124C"/>
<stop offset="0.36" stop-color="#001559"/>
<stop offset="1" stop-color="#001E7D"/>
</linearGradient>
<clipPath id="clip0_630_3821">
<rect width="391.14" height="596.01" fill="white" transform="translate(-1 -1)"/>
</clipPath>
<clipPath id="clip1_630_3821">
<rect width="19.8813" height="18.5894" fill="white" transform="translate(29.2322 78.1361) rotate(-45)"/>
</clipPath>
<clipPath id="clip2_630_3821">
<rect width="19.8813" height="18.5894" fill="white" transform="translate(78.6479 90.0627) rotate(-45)"/>
</clipPath>
<clipPath id="clip3_630_3821">
<rect width="33.1356" height="30.9823" fill="white" transform="translate(49.5698 34.4304) rotate(-45)"/>
</clipPath>
<clipPath id="clip4_630_3821">
<rect width="11.9226" height="11.1478" fill="white" transform="translate(106.78 562.772) rotate(135)"/>
</clipPath>
<clipPath id="clip5_630_3821">
<rect width="11.9226" height="11.1478" fill="white" transform="translate(77.1458 555.62) rotate(135)"/>
</clipPath>
<clipPath id="clip6_630_3821">
<rect width="19.871" height="18.5797" fill="white" transform="translate(94.5833 588.982) rotate(135)"/>
</clipPath>
<clipPath id="clip7_630_3821">
<rect width="16.8377" height="15.7435" fill="white" transform="translate(301.896 149.895) rotate(-45)"/>
</clipPath>
<clipPath id="clip8_630_3821">
<rect width="16.8377" height="15.7435" fill="white" transform="translate(343.746 159.996) rotate(-45)"/>
</clipPath>
<clipPath id="clip9_630_3821">
<rect width="28.0628" height="26.2392" fill="white" transform="translate(319.119 112.881) rotate(-45)"/>
</clipPath>
<clipPath id="clip10_630_3821">
<rect width="15.4103" height="14.4089" fill="white" transform="translate(47.0564 365.056) rotate(-45)"/>
</clipPath>
<clipPath id="clip11_630_3821">
<rect width="15.4103" height="14.4089" fill="white" transform="translate(85.3591 374.301) rotate(-45)"/>
</clipPath>
<clipPath id="clip12_630_3821">
<rect width="25.6838" height="24.0148" fill="white" transform="translate(62.8206 331.18) rotate(-45)"/>
</clipPath>
<clipPath id="clip13_630_3821">
<rect width="12.7123" height="11.8862" fill="white" transform="translate(288.971 446.971) rotate(-45)"/>
</clipPath>
<clipPath id="clip14_630_3821">
<rect width="12.7123" height="11.8862" fill="white" transform="translate(320.567 454.597) rotate(-45)"/>
</clipPath>
<clipPath id="clip15_630_3821">
<rect width="21.1871" height="19.8103" fill="white" transform="translate(301.975 419.025) rotate(-45)"/>
</clipPath>
</defs>
</svg>
